  0
SECTION
  2
HEADER
  9
$ACADVER
  1
AC1018
  9
$HANDSEED
  5
FFFFFFFF
  9
$ANGBASE
  50
0.0
  9
$ANGDIR
  70
1
  9
$MEASUREMENT
  70
1
  9
$INSUNITS
  70
4
  0
ENDSEC
  0
SECTION
  2
TABLES
  0
TABLE
  2
APPID
  5
1
330
0
100
AcDbSymbolTable
 70
1
  0
APPID
  5
2
330
1
100
AcDbSymbolTableRecord
100
AcDbRegAppTableRecord
  2
ACAD
 70
0
  0
ENDTAB
  0
TABLE
  2
LTYPE
  5
3
330
0
100
AcDbSymbolTable
 70
6
  0
LTYPE
  5
4
330
3
100
AcDbSymbolTableRecord
100
AcDbLinetypeTableRecord
  2
ByBlock
 70
0
  3

 72
65
 73
0
 40
0
  0
LTYPE
  5
5
330
3
100
AcDbSymbolTableRecord
100
AcDbLinetypeTableRecord
  2
ByLayer
 70
0
  3

 72
65
 73
0
 40
0
  0
LTYPE
  5
6
330
3
100
AcDbSymbolTableRecord
100
AcDbLinetypeTableRecord
  2
CONTINUOUS
 70
0
  3
Solid line
 72
65
 73
0
 40
0
  0
LTYPE
  5
7
330
3
100
AcDbSymbolTableRecord
100
AcDbLinetypeTableRecord
  2
DASHDOT
 70
0
  3
Dash Dot ____ _ ____ _
 72
65
 73
4
 40
2
 49
1.25
 74
0
 49
-0.25
 74
0
 49
0.25
 74
0
 49
-0.25
 74
0
  0
LTYPE
  5
8
330
3
100
AcDbSymbolTableRecord
100
AcDbLinetypeTableRecord
  2
DASHED
 70
0
  3
Dashed __ __ __ __ __
 72
65
 73
2
 40
0.75
 49
0.5
 74
0
 49
-0.25
 74
0
  0
LTYPE
  5
9
330
3
100
AcDbSymbolTableRecord
100
AcDbLinetypeTableRecord
  2
DOTTED
 70
0
  3
Dotted .  .  .  .
 72
65
 73
2
 40
0.2
 49
0.0
 74
0
 49
-0.2
 74
0
  0
ENDTAB
  0
TABLE
  2
STYLE
  5
A
330
0
100
AcDbSymbolTable
 70
4
  0
STYLE
  5
B
330
A
100
AcDbSymbolTableRecord
100
AcDbTextStyleTableRecord
  2
KICAD
 70
0
 40
0
 41
1
 42
1
 50
0
 71
0
  3
isocp.shx
  0
STYLE
  5
C
330
A
100
AcDbSymbolTableRecord
100
AcDbTextStyleTableRecord
  2
KICADB
 70
0
 40
0
 41
1
 42
1
 50
0
 71
0
  3
isocp.shx
  0
STYLE
  5
D
330
A
100
AcDbSymbolTableRecord
100
AcDbTextStyleTableRecord
  2
KICADI
 70
0
 40
0
 41
1
 42
1
 50
15
 71
0
  3
isocp.shx
  0
STYLE
  5
E
330
A
100
AcDbSymbolTableRecord
100
AcDbTextStyleTableRecord
  2
KICADBI
 70
0
 40
0
 41
1
 42
1
 50
15
 71
0
  3
isocp.shx
  0
ENDTAB
  0
TABLE
  2
LAYER
  5
F
330
0
100
AcDbSymbolTable
 70
2
  0
LAYER
  5
12
330
F
100
AcDbSymbolTableRecord
100
AcDbLayerTableRecord
  2
0
 70
0
 62
7
  6
CONTINUOUS
390
10
  0
LAYER
  5
13
330
F
100
AcDbSymbolTableRecord
100
AcDbLayerTableRecord
  2
Edge.Cuts
 70
0
 62
254
420
13685453
  6
CONTINUOUS
390
10
  0
ENDTAB
  0
TABLE
  2
VPORT
  5
14
330
0
100
AcDbSymbolTable
 70
0
  0
ENDTAB
  0
TABLE
  2
VIEW
  5
15
330
0
100
AcDbSymbolTable
 70
0
  0
ENDTAB
  0
TABLE
  2
UCS
  5
16
330
0
100
AcDbSymbolTable
 70
0
  0
ENDTAB
  0
TABLE
  2
DIMSTYLE
  5
17
330
0
100
AcDbSymbolTable
 70
1
100
AcDbDimStyleTable
 71
0
  0
DIMSTYLE
105
18
330
17
100
AcDbSymbolTableRecord
100
AcDbDimStyleTableRecord
  2
Standard
 70
0
  0
ENDTAB
  0
TABLE
  2
BLOCK_RECORD
  5
19
330
0
100
AcDbSymbolTable
 70
3
  0
BLOCK_RECORD
  5
1A
330
19
100
AcDbSymbolTableRecord
100
AcDbBlockTableRecord
  2
*Model_Space
340
1D
 70
0
280
1
281
0
  0
BLOCK_RECORD
  5
1B
330
19
100
AcDbSymbolTableRecord
100
AcDbBlockTableRecord
  2
*Paper_Space
340
1E
 70
0
280
1
281
0
  0
BLOCK_RECORD
  5
1C
330
19
100
AcDbSymbolTableRecord
100
AcDbBlockTableRecord
  2
*Paper_Space0
340
1F
 70
0
280
1
281
0
  0
ENDTAB
  0
ENDSEC
  0
SECTION
  2
BLOCKS
  0
BLOCK
  5
22
330
1A
100
AcDbEntity
  8
0
100
AcDbBlockBegin
  2
*Model_Space
 70
0
 10
0.0
 20
0.0
 30
0.0
  3
*Model_Space
  1

  0
ENDBLK
  5
23
330
1A
100
AcDbEntity
  8
0
100
AcDbBlockEnd
  0
BLOCK
  5
24
330
1B
100
AcDbEntity
 67
1
  8
0
100
AcDbBlockBegin
  2
*Paper_Space
 70
0
 10
0.0
 20
0.0
 30
0.0
  3
*Paper_Space
  1

  0
ENDBLK
  5
25
330
1B
100
AcDbEntity
 67
1
  8
0
100
AcDbBlockEnd
  0
BLOCK
  5
26
330
1C
100
AcDbEntity
 67
1
  8
0
100
AcDbBlockBegin
  2
*Paper_Space0
 70
0
 10
0.0
 20
0.0
 30
0.0
  3
*Paper_Space0
  1

  0
ENDBLK
  5
27
330
1C
100
AcDbEntity
 67
1
  8
0
100
AcDbBlockEnd
  0
ENDSEC
  0
SECTION
  2
ENTITIES
  0
LINE
  5
28
330
1A
100
AcDbEntity
  8
Edge.Cuts
  6
CONTINUOUS
100
AcDbLine
 10
100.0095669999999899
 20
100.0230969999999928
 30
0
 11
100.0230969999999928
 21
100.0095669999999899
 31
0
  0
LINE
  5
29
330
1A
100
AcDbEntity
  8
Edge.Cuts
  6
CONTINUOUS
100
AcDbLine
 10
100.0230969999999928
 20
100.0095669999999899
 30
0
 11
100.0249999999999915
 21
100.
 31
0
  0
LINE
  5
2A
330
1A
100
AcDbEntity
  8
Edge.Cuts
  6
CONTINUOUS
100
AcDbLine
 10
100.0249999999999915
 20
100.
 30
0
 11
100.0249999999999915
 21
0.
 31
0
  0
LINE
  5
2B
330
1A
100
AcDbEntity
  8
Edge.Cuts
  6
CONTINUOUS
100
AcDbLine
 10
100.0249999999999915
 20
0.
 30
0
 11
100.0230969999999928
 21
-0.009567
 31
0
  0
LINE
  5
2C
330
1A
100
AcDbEntity
  8
Edge.Cuts
  6
CONTINUOUS
100
AcDbLine
 10
100.0230969999999928
 20
-0.009567
 30
0
 11
100.0095669999999899
 21
-0.023097
 31
0
  0
LINE
  5
2D
330
1A
100
AcDbEntity
  8
Edge.Cuts
  6
CONTINUOUS
100
AcDbLine
 10
100.0095669999999899
 20
-0.023097
 30
0
 11
100.
 21
-0.025
 31
0
  0
LINE
  5
2E
330
1A
100
AcDbEntity
  8
Edge.Cuts
  6
CONTINUOUS
100
AcDbLine
 10
100.
 20
-0.025
 30
0
 11
0.
 21
-0.025
 31
0
  0
LINE
  5
2F
330
1A
100
AcDbEntity
  8
Edge.Cuts
  6
CONTINUOUS
100
AcDbLine
 10
0.
 20
-0.025
 30
0
 11
-0.009567
 21
-0.023097
 31
0
  0
LINE
  5
30
330
1A
100
AcDbEntity
  8
Edge.Cuts
  6
CONTINUOUS
100
AcDbLine
 10
-0.009567
 20
-0.023097
 30
0
 11
-0.023097
 21
-0.009567
 31
0
  0
LINE
  5
31
330
1A
100
AcDbEntity
  8
Edge.Cuts
  6
CONTINUOUS
100
AcDbLine
 10
-0.023097
 20
-0.009567
 30
0
 11
-0.025
 21
0.
 31
0
  0
LINE
  5
32
330
1A
100
AcDbEntity
  8
Edge.Cuts
  6
CONTINUOUS
100
AcDbLine
 10
-0.025
 20
0.
 30
0
 11
-0.025
 21
100.
 31
0
  0
LINE
  5
33
330
1A
100
AcDbEntity
  8
Edge.Cuts
  6
CONTINUOUS
100
AcDbLine
 10
-0.025
 20
100.
 30
0
 11
-0.023097
 21
100.0095669999999899
 31
0
  0
LINE
  5
34
330
1A
100
AcDbEntity
  8
Edge.Cuts
  6
CONTINUOUS
100
AcDbLine
 10
-0.023097
 20
100.0095669999999899
 30
0
 11
-0.009567
 21
100.0230969999999928
 31
0
  0
LINE
  5
35
330
1A
100
AcDbEntity
  8
Edge.Cuts
  6
CONTINUOUS
100
AcDbLine
 10
-0.009567
 20
100.0230969999999928
 30
0
 11
0.
 21
100.0249999999999915
 31
0
  0
LINE
  5
36
330
1A
100
AcDbEntity
  8
Edge.Cuts
  6
CONTINUOUS
100
AcDbLine
 10
0.
 20
100.0249999999999915
 30
0
 11
100.
 21
100.0249999999999915
 31
0
  0
LINE
  5
37
330
1A
100
AcDbEntity
  8
Edge.Cuts
  6
CONTINUOUS
100
AcDbLine
 10
100.
 20
100.0249999999999915
 30
0
 11
100.0095669999999899
 21
100.0230969999999928
 31
0
  0
LINE
  5
38
330
1A
100
AcDbEntity
  8
Edge.Cuts
  6
CONTINUOUS
100
AcDbLine
 10
0.025
 20
99.9749999999999943
 30
0
 11
0.025
 21
0.025
 31
0
  0
LINE
  5
39
330
1A
100
AcDbEntity
  8
Edge.Cuts
  6
CONTINUOUS
100
AcDbLine
 10
0.025
 20
0.025
 30
0
 11
99.9749999999999943
 21
0.025
 31
0
  0
LINE
  5
3A
330
1A
100
AcDbEntity
  8
Edge.Cuts
  6
CONTINUOUS
100
AcDbLine
 10
99.9749999999999943
 20
0.025
 30
0
 11
99.9749999999999943
 21
99.9749999999999943
 31
0
  0
LINE
  5
3B
330
1A
100
AcDbEntity
  8
Edge.Cuts
  6
CONTINUOUS
100
AcDbLine
 10
99.9749999999999943
 20
99.9749999999999943
 30
0
 11
0.025
 21
99.9749999999999943
 31
0
  0
CIRCLE
  5
3C
330
1A
100
AcDbEntity
  8
Edge.Cuts
100
AcDbCircle
 10
5.
 20
5.
 30
0
 40
1.5999999999999999
  0
CIRCLE
  5
3D
330
1A
100
AcDbEntity
  8
Edge.Cuts
100
AcDbCircle
 10
62.019999999999996
 20
20.3780999999999999
 30
0
 40
0.5969
  0
CIRCLE
  5
3E
330
1A
100
AcDbEntity
  8
Edge.Cuts
100
AcDbCircle
 10
62.019999999999996
 20
15.2980999999999998
 30
0
 40
0.5969
  0
CIRCLE
  5
3F
330
1A
100
AcDbEntity
  8
Edge.Cuts
100
AcDbCircle
 10
67.0999999999999943
 20
15.2980999999999998
 30
0
 40
0.5969
  0
CIRCLE
  5
40
330
1A
100
AcDbEntity
  8
Edge.Cuts
100
AcDbCircle
 10
67.0999999999999943
 20
20.3780999999999999
 30
0
 40
0.5969
  0
CIRCLE
  5
41
330
1A
100
AcDbEntity
  8
Edge.Cuts
100
AcDbCircle
 10
78.8699999999999903
 20
47.7100000000000009
 30
0
 40
0.3175
  0
CIRCLE
  5
42
330
1A
100
AcDbEntity
  8
Edge.Cuts
100
AcDbCircle
 10
78.8699999999999903
 20
46.4399999999999977
 30
0
 40
0.3175
  0
CIRCLE
  5
43
330
1A
100
AcDbEntity
  8
Edge.Cuts
100
AcDbCircle
 10
80.1400000000000006
 20
48.3449999999999989
 30
0
 40
0.4191
  0
CIRCLE
  5
44
330
1A
100
AcDbEntity
  8
Edge.Cuts
100
AcDbCircle
 10
80.1400000000000006
 20
45.8049999999999997
 30
0
 40
0.4191
  0
CIRCLE
  5
45
330
1A
100
AcDbEntity
  8
Edge.Cuts
100
AcDbCircle
 10
77.5999999999999943
 20
48.3449999999999989
 30
0
 40
0.4191
  0
CIRCLE
  5
46
330
1A
100
AcDbEntity
  8
Edge.Cuts
100
AcDbCircle
 10
77.5999999999999943
 20
45.8049999999999997
 30
0
 40
0.4191
  0
CIRCLE
  5
47
330
1A
100
AcDbEntity
  8
Edge.Cuts
100
AcDbCircle
 10
86.5300000000000011
 20
4.0999999999999996
 30
0
 40
0.5
  0
CIRCLE
  5
48
330
1A
100
AcDbEntity
  8
Edge.Cuts
100
AcDbCircle
 10
89.0699999999999932
 20
4.0999999999999996
 30
0
 40
0.5
  0
CIRCLE
  5
49
330
1A
100
AcDbEntity
  8
Edge.Cuts
100
AcDbCircle
 10
90.1700000000000017
 20
18.8200000000000003
 30
0
 40
0.5969
  0
CIRCLE
  5
4A
330
1A
100
AcDbEntity
  8
Edge.Cuts
100
AcDbCircle
 10
90.1700000000000017
 20
13.7400000000000002
 30
0
 40
0.5969
  0
CIRCLE
  5
4B
330
1A
100
AcDbEntity
  8
Edge.Cuts
100
AcDbCircle
 10
95.25
 20
13.7400000000000002
 30
0
 40
0.5969
  0
CIRCLE
  5
4C
330
1A
100
AcDbEntity
  8
Edge.Cuts
100
AcDbCircle
 10
95.25
 20
18.8200000000000003
 30
0
 40
0.5969
  0
CIRCLE
  5
4D
330
1A
100
AcDbEntity
  8
Edge.Cuts
100
AcDbCircle
 10
5.
 20
95.
 30
0
 40
1.5999999999999999
  0
CIRCLE
  5
4E
330
1A
100
AcDbEntity
  8
Edge.Cuts
100
AcDbCircle
 10
12.3899999999999988
 20
79.8299999999999983
 30
0
 40
0.5969
  0
CIRCLE
  5
4F
330
1A
100
AcDbEntity
  8
Edge.Cuts
100
AcDbCircle
 10
12.3899999999999988
 20
84.9099999999999966
 30
0
 40
0.5969
  0
CIRCLE
  5
50
330
1A
100
AcDbEntity
  8
Edge.Cuts
100
AcDbCircle
 10
7.3099999999999996
 20
84.9099999999999966
 30
0
 40
0.5969
  0
CIRCLE
  5
51
330
1A
100
AcDbEntity
  8
Edge.Cuts
100
AcDbCircle
 10
7.3099999999999996
 20
79.8299999999999983
 30
0
 40
0.5969
  0
CIRCLE
  5
52
330
1A
100
AcDbEntity
  8
Edge.Cuts
100
AcDbCircle
 10
94.
 20
83.2299999999999898
 30
0
 40
0.5
  0
CIRCLE
  5
53
330
1A
100
AcDbEntity
  8
Edge.Cuts
100
AcDbCircle
 10
94.
 20
85.769999999999996
 30
0
 40
0.5
  0
CIRCLE
  5
54
330
1A
100
AcDbEntity
  8
Edge.Cuts
100
AcDbCircle
 10
43.3900000000000006
 20
76.539999999999992
 30
0
 40
0.5969
  0
CIRCLE
  5
55
330
1A
100
AcDbEntity
  8
Edge.Cuts
100
AcDbCircle
 10
43.3900000000000006
 20
71.4599999999999937
 30
0
 40
0.5969
  0
CIRCLE
  5
56
330
1A
100
AcDbEntity
  8
Edge.Cuts
100
AcDbCircle
 10
48.4699999999999989
 20
71.4599999999999937
 30
0
 40
0.5969
  0
CIRCLE
  5
57
330
1A
100
AcDbEntity
  8
Edge.Cuts
100
AcDbCircle
 10
48.4699999999999989
 20
76.539999999999992
 30
0
 40
0.5969
  0
CIRCLE
  5
58
330
1A
100
AcDbEntity
  8
Edge.Cuts
100
AcDbCircle
 10
57.6599999999999966
 20
76.539999999999992
 30
0
 40
0.5969
  0
CIRCLE
  5
59
330
1A
100
AcDbEntity
  8
Edge.Cuts
100
AcDbCircle
 10
57.6599999999999966
 20
71.4599999999999937
 30
0
 40
0.5969
  0
CIRCLE
  5
5A
330
1A
100
AcDbEntity
  8
Edge.Cuts
100
AcDbCircle
 10
62.7399999999999949
 20
71.4599999999999937
 30
0
 40
0.5969
  0
CIRCLE
  5
5B
330
1A
100
AcDbEntity
  8
Edge.Cuts
100
AcDbCircle
 10
62.7399999999999949
 20
76.539999999999992
 30
0
 40
0.5969
  0
CIRCLE
  5
5C
330
1A
100
AcDbEntity
  8
Edge.Cuts
100
AcDbCircle
 10
50.3999999999999986
 20
92.539999999999992
 30
0
 40
0.5969
  0
CIRCLE
  5
5D
330
1A
100
AcDbEntity
  8
Edge.Cuts
100
AcDbCircle
 10
50.3999999999999986
 20
87.4599999999999937
 30
0
 40
0.5969
  0
CIRCLE
  5
5E
330
1A
100
AcDbEntity
  8
Edge.Cuts
100
AcDbCircle
 10
55.4799999999999969
 20
87.4599999999999937
 30
0
 40
0.5969
  0
CIRCLE
  5
5F
330
1A
100
AcDbEntity
  8
Edge.Cuts
100
AcDbCircle
 10
55.4799999999999969
 20
92.539999999999992
 30
0
 40
0.5969
  0
CIRCLE
  5
60
330
1A
100
AcDbEntity
  8
Edge.Cuts
100
AcDbCircle
 10
95.
 20
95.
 30
0
 40
1.5999999999999999
  0
CIRCLE
  5
61
330
1A
100
AcDbEntity
  8
Edge.Cuts
100
AcDbCircle
 10
21.4399999999999977
 20
18.6699999999999982
 30
0
 40
0.508
  0
CIRCLE
  5
62
330
1A
100
AcDbEntity
  8
Edge.Cuts
100
AcDbCircle
 10
21.4399999999999977
 20
16.129999999999999
 30
0
 40
0.508
  0
CIRCLE
  5
63
330
1A
100
AcDbEntity
  8
Edge.Cuts
100
AcDbCircle
 10
18.8999999999999986
 20
18.6699999999999982
 30
0
 40
0.508
  0
CIRCLE
  5
64
330
1A
100
AcDbEntity
  8
Edge.Cuts
100
AcDbCircle
 10
18.8999999999999986
 20
16.129999999999999
 30
0
 40
0.508
  0
CIRCLE
  5
65
330
1A
100
AcDbEntity
  8
Edge.Cuts
100
AcDbCircle
 10
16.3599999999999994
 20
18.6699999999999982
 30
0
 40
0.508
  0
CIRCLE
  5
66
330
1A
100
AcDbEntity
  8
Edge.Cuts
100
AcDbCircle
 10
16.3599999999999994
 20
16.129999999999999
 30
0
 40
0.508
  0
CIRCLE
  5
67
330
1A
100
AcDbEntity
  8
Edge.Cuts
100
AcDbCircle
 10
13.8199999999999985
 20
18.6699999999999982
 30
0
 40
0.508
  0
CIRCLE
  5
68
330
1A
100
AcDbEntity
  8
Edge.Cuts
100
AcDbCircle
 10
13.8199999999999985
 20
16.129999999999999
 30
0
 40
0.508
  0
CIRCLE
  5
69
330
1A
100
AcDbEntity
  8
Edge.Cuts
100
AcDbCircle
 10
11.2799999999999994
 20
18.6699999999999982
 30
0
 40
0.508
  0
CIRCLE
  5
6A
330
1A
100
AcDbEntity
  8
Edge.Cuts
100
AcDbCircle
 10
11.2799999999999994
 20
16.129999999999999
 30
0
 40
0.508
  0
CIRCLE
  5
6B
330
1A
100
AcDbEntity
  8
Edge.Cuts
100
AcDbCircle
 10
8.7400000000000002
 20
18.6699999999999982
 30
0
 40
0.508
  0
CIRCLE
  5
6C
330
1A
100
AcDbEntity
  8
Edge.Cuts
100
AcDbCircle
 10
8.7400000000000002
 20
16.129999999999999
 30
0
 40
0.508
  0
CIRCLE
  5
6D
330
1A
100
AcDbEntity
  8
Edge.Cuts
100
AcDbCircle
 10
28.129999999999999
 20
3.7999999999999998
 30
0
 40
0.5
  0
CIRCLE
  5
6E
330
1A
100
AcDbEntity
  8
Edge.Cuts
100
AcDbCircle
 10
30.6699999999999982
 20
3.7999999999999998
 30
0
 40
0.5
  0
CIRCLE
  5
6F
330
1A
100
AcDbEntity
  8
Edge.Cuts
100
AcDbCircle
 10
95.
 20
5.
 30
0
 40
1.5999999999999999
  0
CIRCLE
  5
70
330
1A
100
AcDbEntity
  8
Edge.Cuts
100
AcDbCircle
 10
50.25
 20
20.8099999999999987
 30
0
 40
0.5969
  0
CIRCLE
  5
71
330
1A
100
AcDbEntity
  8
Edge.Cuts
100
AcDbCircle
 10
50.25
 20
15.7299999999999986
 30
0
 40
0.5969
  0
CIRCLE
  5
72
330
1A
100
AcDbEntity
  8
Edge.Cuts
100
AcDbCircle
 10
55.3299999999999983
 20
15.7299999999999986
 30
0
 40
0.5969
  0
CIRCLE
  5
73
330
1A
100
AcDbEntity
  8
Edge.Cuts
100
AcDbCircle
 10
55.3299999999999983
 20
20.8099999999999987
 30
0
 40
0.5969
  0
CIRCLE
  5
74
330
1A
100
AcDbEntity
  8
Edge.Cuts
100
AcDbCircle
 10
13.6699999999999999
 20
95.1999999999999886
 30
0
 40
0.5
  0
CIRCLE
  5
75
330
1A
100
AcDbEntity
  8
Edge.Cuts
100
AcDbCircle
 10
11.129999999999999
 20
95.1999999999999886
 30
0
 40
0.5
  0
CIRCLE
  5
76
330
1A
100
AcDbEntity
  8
Edge.Cuts
100
AcDbCircle
 10
70.7878979999999984
 20
71.9799999999999898
 30
0
 40
0.5969
  0
CIRCLE
  5
77
330
1A
100
AcDbEntity
  8
Edge.Cuts
100
AcDbCircle
 10
74.3799999999999955
 20
68.3878979999999927
 30
0
 40
0.5969
  0
CIRCLE
  5
78
330
1A
100
AcDbEntity
  8
Edge.Cuts
100
AcDbCircle
 10
77.9721019999999925
 20
71.9799999999999898
 30
0
 40
0.5969
  0
CIRCLE
  5
79
330
1A
100
AcDbEntity
  8
Edge.Cuts
100
AcDbCircle
 10
74.3799999999999955
 20
75.572102000000001
 30
0
 40
0.5969
  0
CIRCLE
  5
7A
330
1A
100
AcDbEntity
  8
Edge.Cuts
100
AcDbCircle
 10
4.7999999999999998
 20
31.9699999999999989
 30
0
 40
0.5
  0
CIRCLE
  5
7B
330
1A
100
AcDbEntity
  8
Edge.Cuts
100
AcDbCircle
 10
4.7999999999999998
 20
29.4299999999999997
 30
0
 40
0.5
  0
CIRCLE
  5
7C
330
1A
100
AcDbEntity
  8
Edge.Cuts
100
AcDbCircle
 10
43.3699999999999974
 20
95.2999999999999972
 30
0
 40
0.5
  0
CIRCLE
  5
7D
330
1A
100
AcDbEntity
  8
Edge.Cuts
100
AcDbCircle
 10
40.8299999999999983
 20
95.2999999999999972
 30
0
 40
0.5
  0
CIRCLE
  5
7E
330
1A
100
AcDbEntity
  8
Edge.Cuts
100
AcDbCircle
 10
78.8699999999999903
 20
40.25
 30
0
 40
0.3175
  0
CIRCLE
  5
7F
330
1A
100
AcDbEntity
  8
Edge.Cuts
100
AcDbCircle
 10
78.8699999999999903
 20
38.9799999999999969
 30
0
 40
0.3175
  0
CIRCLE
  5
80
330
1A
100
AcDbEntity
  8
Edge.Cuts
100
AcDbCircle
 10
80.1400000000000006
 20
40.884999999999998
 30
0
 40
0.4191
  0
CIRCLE
  5
81
330
1A
100
AcDbEntity
  8
Edge.Cuts
100
AcDbCircle
 10
80.1400000000000006
 20
38.3449999999999989
 30
0
 40
0.4191
  0
CIRCLE
  5
82
330
1A
100
AcDbEntity
  8
Edge.Cuts
100
AcDbCircle
 10
77.5999999999999943
 20
40.884999999999998
 30
0
 40
0.4191
  0
CIRCLE
  5
83
330
1A
100
AcDbEntity
  8
Edge.Cuts
100
AcDbCircle
 10
77.5999999999999943
 20
38.3449999999999989
 30
0
 40
0.4191
  0
CIRCLE
  5
84
330
1A
100
AcDbEntity
  8
Edge.Cuts
100
AcDbCircle
 10
9.129999999999999
 20
65.3699999999999903
 30
0
 40
0.5969
  0
CIRCLE
  5
85
330
1A
100
AcDbEntity
  8
Edge.Cuts
100
AcDbCircle
 10
14.2099999999999991
 20
65.3699999999999903
 30
0
 40
0.5969
  0
CIRCLE
  5
86
330
1A
100
AcDbEntity
  8
Edge.Cuts
100
AcDbCircle
 10
14.2099999999999991
 20
70.4500000000000028
 30
0
 40
0.5969
  0
CIRCLE
  5
87
330
1A
100
AcDbEntity
  8
Edge.Cuts
100
AcDbCircle
 10
9.129999999999999
 20
70.4500000000000028
 30
0
 40
0.5969
  0
CIRCLE
  5
88
330
1A
100
AcDbEntity
  8
Edge.Cuts
100
AcDbCircle
 10
89.8199999999999932
 20
58.3599999999999994
 30
0
 40
0.508
  0
CIRCLE
  5
89
330
1A
100
AcDbEntity
  8
Edge.Cuts
100
AcDbCircle
 10
87.2800000000000011
 20
58.3599999999999994
 30
0
 40
0.508
  0
CIRCLE
  5
8A
330
1A
100
AcDbEntity
  8
Edge.Cuts
100
AcDbCircle
 10
89.8199999999999932
 20
60.8999999999999986
 30
0
 40
0.508
  0
CIRCLE
  5
8B
330
1A
100
AcDbEntity
  8
Edge.Cuts
100
AcDbCircle
 10
87.2800000000000011
 20
60.8999999999999986
 30
0
 40
0.508
  0
CIRCLE
  5
8C
330
1A
100
AcDbEntity
  8
Edge.Cuts
100
AcDbCircle
 10
89.8199999999999932
 20
63.4399999999999977
 30
0
 40
0.508
  0
CIRCLE
  5
8D
330
1A
100
AcDbEntity
  8
Edge.Cuts
100
AcDbCircle
 10
87.2800000000000011
 20
63.4399999999999977
 30
0
 40
0.508
  0
CIRCLE
  5
8E
330
1A
100
AcDbEntity
  8
Edge.Cuts
100
AcDbCircle
 10
89.8199999999999932
 20
65.980000000000004
 30
0
 40
0.508
  0
CIRCLE
  5
8F
330
1A
100
AcDbEntity
  8
Edge.Cuts
100
AcDbCircle
 10
87.2800000000000011
 20
65.980000000000004
 30
0
 40
0.508
  0
CIRCLE
  5
90
330
1A
100
AcDbEntity
  8
Edge.Cuts
100
AcDbCircle
 10
89.8199999999999932
 20
68.519999999999996
 30
0
 40
0.508
  0
CIRCLE
  5
91
330
1A
100
AcDbEntity
  8
Edge.Cuts
100
AcDbCircle
 10
87.2800000000000011
 20
68.519999999999996
 30
0
 40
0.508
  0
CIRCLE
  5
92
330
1A
100
AcDbEntity
  8
Edge.Cuts
100
AcDbCircle
 10
89.8199999999999932
 20
71.0600000000000023
 30
0
 40
0.508
  0
CIRCLE
  5
93
330
1A
100
AcDbEntity
  8
Edge.Cuts
100
AcDbCircle
 10
87.2800000000000011
 20
71.0600000000000023
 30
0
 40
0.508
  0
CIRCLE
  5
94
330
1A
100
AcDbEntity
  8
Edge.Cuts
100
AcDbCircle
 10
89.8199999999999932
 20
73.5999999999999943
 30
0
 40
0.508
  0
CIRCLE
  5
95
330
1A
100
AcDbEntity
  8
Edge.Cuts
100
AcDbCircle
 10
87.2800000000000011
 20
73.5999999999999943
 30
0
 40
0.508
  0
CIRCLE
  5
96
330
1A
100
AcDbEntity
  8
Edge.Cuts
100
AcDbCircle
 10
90.1700000000000017
 20
27.6600000000000001
 30
0
 40
0.5969
  0
CIRCLE
  5
97
330
1A
100
AcDbEntity
  8
Edge.Cuts
100
AcDbCircle
 10
95.25
 20
27.6600000000000001
 30
0
 40
0.5969
  0
CIRCLE
  5
98
330
1A
100
AcDbEntity
  8
Edge.Cuts
100
AcDbCircle
 10
95.25
 20
32.740000000000002
 30
0
 40
0.5969
  0
CIRCLE
  5
99
330
1A
100
AcDbEntity
  8
Edge.Cuts
100
AcDbCircle
 10
90.1700000000000017
 20
32.740000000000002
 30
0
 40
0.5969
  0
CIRCLE
  5
9A
330
1A
100
AcDbEntity
  8
Edge.Cuts
100
AcDbCircle
 10
90.3199999999999932
 20
46.8200000000000003
 30
0
 40
0.5969
  0
CIRCLE
  5
9B
330
1A
100
AcDbEntity
  8
Edge.Cuts
100
AcDbCircle
 10
95.3999999999999915
 20
46.8200000000000003
 30
0
 40
0.5969
  0
CIRCLE
  5
9C
330
1A
100
AcDbEntity
  8
Edge.Cuts
100
AcDbCircle
 10
95.3999999999999915
 20
51.8999999999999986
 30
0
 40
0.5969
  0
CIRCLE
  5
9D
330
1A
100
AcDbEntity
  8
Edge.Cuts
100
AcDbCircle
 10
90.3199999999999932
 20
51.8999999999999986
 30
0
 40
0.5969
  0
CIRCLE
  5
9E
330
1A
100
AcDbEntity
  8
Edge.Cuts
100
AcDbCircle
 10
5.
 20
5.
 30
0
 40
1.5999989999999999
  0
CIRCLE
  5
9F
330
1A
100
AcDbEntity
  8
Edge.Cuts
100
AcDbCircle
 10
62.019999999999996
 20
20.3780999999999999
 30
0
 40
0.5969
  0
CIRCLE
  5
A0
330
1A
100
AcDbEntity
  8
Edge.Cuts
100
AcDbCircle
 10
62.019999999999996
 20
15.2980999999999998
 30
0
 40
0.5969
  0
CIRCLE
  5
A1
330
1A
100
AcDbEntity
  8
Edge.Cuts
100
AcDbCircle
 10
67.0999999999999943
 20
15.2980999999999998
 30
0
 40
0.5969
  0
CIRCLE
  5
A2
330
1A
100
AcDbEntity
  8
Edge.Cuts
100
AcDbCircle
 10
67.0999999999999943
 20
20.3780999999999999
 30
0
 40
0.5969
  0
CIRCLE
  5
A3
330
1A
100
AcDbEntity
  8
Edge.Cuts
100
AcDbCircle
 10
78.8699999999999903
 20
47.7100000000000009
 30
0
 40
0.3175
  0
CIRCLE
  5
A4
330
1A
100
AcDbEntity
  8
Edge.Cuts
100
AcDbCircle
 10
78.8699999999999903
 20
46.4399999999999977
 30
0
 40
0.3175
  0
CIRCLE
  5
A5
330
1A
100
AcDbEntity
  8
Edge.Cuts
100
AcDbCircle
 10
80.1400000000000006
 20
48.3449999999999989
 30
0
 40
0.4191
  0
CIRCLE
  5
A6
330
1A
100
AcDbEntity
  8
Edge.Cuts
100
AcDbCircle
 10
80.1400000000000006
 20
45.8049999999999997
 30
0
 40
0.4191
  0
CIRCLE
  5
A7
330
1A
100
AcDbEntity
  8
Edge.Cuts
100
AcDbCircle
 10
77.5999999999999943
 20
48.3449999999999989
 30
0
 40
0.4191
  0
CIRCLE
  5
A8
330
1A
100
AcDbEntity
  8
Edge.Cuts
100
AcDbCircle
 10
77.5999999999999943
 20
45.8049999999999997
 30
0
 40
0.4191
  0
CIRCLE
  5
A9
330
1A
100
AcDbEntity
  8
Edge.Cuts
100
AcDbCircle
 10
86.5300000000000011
 20
4.0999999999999996
 30
0
 40
0.5
  0
CIRCLE
  5
AA
330
1A
100
AcDbEntity
  8
Edge.Cuts
100
AcDbCircle
 10
89.0699999999999932
 20
4.0999999999999996
 30
0
 40
0.5
  0
CIRCLE
  5
AB
330
1A
100
AcDbEntity
  8
Edge.Cuts
100
AcDbCircle
 10
90.1700000000000017
 20
18.8200000000000003
 30
0
 40
0.5969
  0
CIRCLE
  5
AC
330
1A
100
AcDbEntity
  8
Edge.Cuts
100
AcDbCircle
 10
90.1700000000000017
 20
13.7400000000000002
 30
0
 40
0.5969
  0
CIRCLE
  5
AD
330
1A
100
AcDbEntity
  8
Edge.Cuts
100
AcDbCircle
 10
95.25
 20
13.7400000000000002
 30
0
 40
0.5969
  0
CIRCLE
  5
AE
330
1A
100
AcDbEntity
  8
Edge.Cuts
100
AcDbCircle
 10
95.25
 20
18.8200000000000003
 30
0
 40
0.5969
  0
CIRCLE
  5
AF
330
1A
100
AcDbEntity
  8
Edge.Cuts
100
AcDbCircle
 10
5.
 20
95.
 30
0
 40
1.5999989999999999
  0
CIRCLE
  5
B0
330
1A
100
AcDbEntity
  8
Edge.Cuts
100
AcDbCircle
 10
12.3899999999999988
 20
79.8299999999999983
 30
0
 40
0.5969
  0
CIRCLE
  5
B1
330
1A
100
AcDbEntity
  8
Edge.Cuts
100
AcDbCircle
 10
12.3899999999999988
 20
84.9099999999999966
 30
0
 40
0.5969
  0
CIRCLE
  5
B2
330
1A
100
AcDbEntity
  8
Edge.Cuts
100
AcDbCircle
 10
7.3099999999999996
 20
84.9099999999999966
 30
0
 40
0.5969
  0
CIRCLE
  5
B3
330
1A
100
AcDbEntity
  8
Edge.Cuts
100
AcDbCircle
 10
7.3099999999999996
 20
79.8299999999999983
 30
0
 40
0.5969
  0
CIRCLE
  5
B4
330
1A
100
AcDbEntity
  8
Edge.Cuts
100
AcDbCircle
 10
94.
 20
83.2299999999999898
 30
0
 40
0.5
  0
CIRCLE
  5
B5
330
1A
100
AcDbEntity
  8
Edge.Cuts
100
AcDbCircle
 10
94.
 20
85.769999999999996
 30
0
 40
0.5
  0
CIRCLE
  5
B6
330
1A
100
AcDbEntity
  8
Edge.Cuts
100
AcDbCircle
 10
43.3900000000000006
 20
76.539999999999992
 30
0
 40
0.5969
  0
CIRCLE
  5
B7
330
1A
100
AcDbEntity
  8
Edge.Cuts
100
AcDbCircle
 10
43.3900000000000006
 20
71.4599999999999937
 30
0
 40
0.5969
  0
CIRCLE
  5
B8
330
1A
100
AcDbEntity
  8
Edge.Cuts
100
AcDbCircle
 10
48.4699999999999989
 20
71.4599999999999937
 30
0
 40
0.5969
  0
CIRCLE
  5
B9
330
1A
100
AcDbEntity
  8
Edge.Cuts
100
AcDbCircle
 10
48.4699999999999989
 20
76.539999999999992
 30
0
 40
0.5969
  0
CIRCLE
  5
BA
330
1A
100
AcDbEntity
  8
Edge.Cuts
100
AcDbCircle
 10
57.6599999999999966
 20
76.539999999999992
 30
0
 40
0.5969
  0
CIRCLE
  5
BB
330
1A
100
AcDbEntity
  8
Edge.Cuts
100
AcDbCircle
 10
57.6599999999999966
 20
71.4599999999999937
 30
0
 40
0.5969
  0
CIRCLE
  5
BC
330
1A
100
AcDbEntity
  8
Edge.Cuts
100
AcDbCircle
 10
62.7399999999999949
 20
71.4599999999999937
 30
0
 40
0.5969
  0
CIRCLE
  5
BD
330
1A
100
AcDbEntity
  8
Edge.Cuts
100
AcDbCircle
 10
62.7399999999999949
 20
76.539999999999992
 30
0
 40
0.5969
  0
CIRCLE
  5
BE
330
1A
100
AcDbEntity
  8
Edge.Cuts
100
AcDbCircle
 10
50.3999999999999986
 20
92.539999999999992
 30
0
 40
0.5969
  0
CIRCLE
  5
BF
330
1A
100
AcDbEntity
  8
Edge.Cuts
100
AcDbCircle
 10
50.3999999999999986
 20
87.4599999999999937
 30
0
 40
0.5969
  0
CIRCLE
  5
C0
330
1A
100
AcDbEntity
  8
Edge.Cuts
100
AcDbCircle
 10
55.4799999999999969
 20
87.4599999999999937
 30
0
 40
0.5969
  0
CIRCLE
  5
C1
330
1A
100
AcDbEntity
  8
Edge.Cuts
100
AcDbCircle
 10
55.4799999999999969
 20
92.539999999999992
 30
0
 40
0.5969
  0
CIRCLE
  5
C2
330
1A
100
AcDbEntity
  8
Edge.Cuts
100
AcDbCircle
 10
95.
 20
95.
 30
0
 40
1.5999989999999999
  0
CIRCLE
  5
C3
330
1A
100
AcDbEntity
  8
Edge.Cuts
100
AcDbCircle
 10
21.4399999999999977
 20
18.6699999999999982
 30
0
 40
0.508
  0
CIRCLE
  5
C4
330
1A
100
AcDbEntity
  8
Edge.Cuts
100
AcDbCircle
 10
21.4399999999999977
 20
16.129999999999999
 30
0
 40
0.508
  0
CIRCLE
  5
C5
330
1A
100
AcDbEntity
  8
Edge.Cuts
100
AcDbCircle
 10
18.8999999999999986
 20
18.6699999999999982
 30
0
 40
0.508
  0
CIRCLE
  5
C6
330
1A
100
AcDbEntity
  8
Edge.Cuts
100
AcDbCircle
 10
18.8999999999999986
 20
16.129999999999999
 30
0
 40
0.508
  0
CIRCLE
  5
C7
330
1A
100
AcDbEntity
  8
Edge.Cuts
100
AcDbCircle
 10
16.3599999999999994
 20
18.6699999999999982
 30
0
 40
0.508
  0
CIRCLE
  5
C8
330
1A
100
AcDbEntity
  8
Edge.Cuts
100
AcDbCircle
 10
16.3599999999999994
 20
16.129999999999999
 30
0
 40
0.508
  0
CIRCLE
  5
C9
330
1A
100
AcDbEntity
  8
Edge.Cuts
100
AcDbCircle
 10
13.8199999999999985
 20
18.6699999999999982
 30
0
 40
0.508
  0
CIRCLE
  5
CA
330
1A
100
AcDbEntity
  8
Edge.Cuts
100
AcDbCircle
 10
13.8199999999999985
 20
16.129999999999999
 30
0
 40
0.508
  0
CIRCLE
  5
CB
330
1A
100
AcDbEntity
  8
Edge.Cuts
100
AcDbCircle
 10
11.2799999999999994
 20
18.6699999999999982
 30
0
 40
0.508
  0
CIRCLE
  5
CC
330
1A
100
AcDbEntity
  8
Edge.Cuts
100
AcDbCircle
 10
11.2799999999999994
 20
16.129999999999999
 30
0
 40
0.508
  0
CIRCLE
  5
CD
330
1A
100
AcDbEntity
  8
Edge.Cuts
100
AcDbCircle
 10
8.7400000000000002
 20
18.6699999999999982
 30
0
 40
0.508
  0
CIRCLE
  5
CE
330
1A
100
AcDbEntity
  8
Edge.Cuts
100
AcDbCircle
 10
8.7400000000000002
 20
16.129999999999999
 30
0
 40
0.508
  0
CIRCLE
  5
CF
330
1A
100
AcDbEntity
  8
Edge.Cuts
100
AcDbCircle
 10
28.129999999999999
 20
3.7999999999999998
 30
0
 40
0.5
  0
CIRCLE
  5
D0
330
1A
100
AcDbEntity
  8
Edge.Cuts
100
AcDbCircle
 10
30.6699999999999982
 20
3.7999999999999998
 30
0
 40
0.5
  0
CIRCLE
  5
D1
330
1A
100
AcDbEntity
  8
Edge.Cuts
100
AcDbCircle
 10
95.
 20
5.
 30
0
 40
1.5999989999999999
  0
CIRCLE
  5
D2
330
1A
100
AcDbEntity
  8
Edge.Cuts
100
AcDbCircle
 10
50.25
 20
20.8099999999999987
 30
0
 40
0.5969
  0
CIRCLE
  5
D3
330
1A
100
AcDbEntity
  8
Edge.Cuts
100
AcDbCircle
 10
50.25
 20
15.7299999999999986
 30
0
 40
0.5969
  0
CIRCLE
  5
D4
330
1A
100
AcDbEntity
  8
Edge.Cuts
100
AcDbCircle
 10
55.3299999999999983
 20
15.7299999999999986
 30
0
 40
0.5969
  0
CIRCLE
  5
D5
330
1A
100
AcDbEntity
  8
Edge.Cuts
100
AcDbCircle
 10
55.3299999999999983
 20
20.8099999999999987
 30
0
 40
0.5969
  0
CIRCLE
  5
D6
330
1A
100
AcDbEntity
  8
Edge.Cuts
100
AcDbCircle
 10
13.6699999999999999
 20
95.1999999999999886
 30
0
 40
0.5
  0
CIRCLE
  5
D7
330
1A
100
AcDbEntity
  8
Edge.Cuts
100
AcDbCircle
 10
11.129999999999999
 20
95.1999999999999886
 30
0
 40
0.5
  0
CIRCLE
  5
D8
330
1A
100
AcDbEntity
  8
Edge.Cuts
100
AcDbCircle
 10
70.7878979999999984
 20
71.9799999999999898
 30
0
 40
0.5969
  0
CIRCLE
  5
D9
330
1A
100
AcDbEntity
  8
Edge.Cuts
100
AcDbCircle
 10
74.3799999999999955
 20
68.3878979999999927
 30
0
 40
0.5969
  0
CIRCLE
  5
DA
330
1A
100
AcDbEntity
  8
Edge.Cuts
100
AcDbCircle
 10
77.9721019999999925
 20
71.9799999999999898
 30
0
 40
0.5969
  0
CIRCLE
  5
DB
330
1A
100
AcDbEntity
  8
Edge.Cuts
100
AcDbCircle
 10
74.3799999999999955
 20
75.572102000000001
 30
0
 40
0.5969
  0
CIRCLE
  5
DC
330
1A
100
AcDbEntity
  8
Edge.Cuts
100
AcDbCircle
 10
4.7999999999999998
 20
31.9699999999999989
 30
0
 40
0.5
  0
CIRCLE
  5
DD
330
1A
100
AcDbEntity
  8
Edge.Cuts
100
AcDbCircle
 10
4.7999999999999998
 20
29.4299999999999997
 30
0
 40
0.5
  0
CIRCLE
  5
DE
330
1A
100
AcDbEntity
  8
Edge.Cuts
100
AcDbCircle
 10
43.3699999999999974
 20
95.2999999999999972
 30
0
 40
0.5
  0
CIRCLE
  5
DF
330
1A
100
AcDbEntity
  8
Edge.Cuts
100
AcDbCircle
 10
40.8299999999999983
 20
95.2999999999999972
 30
0
 40
0.5
  0
CIRCLE
  5
E0
330
1A
100
AcDbEntity
  8
Edge.Cuts
100
AcDbCircle
 10
78.8699999999999903
 20
40.25
 30
0
 40
0.3175
  0
CIRCLE
  5
E1
330
1A
100
AcDbEntity
  8
Edge.Cuts
100
AcDbCircle
 10
78.8699999999999903
 20
38.9799999999999969
 30
0
 40
0.3175
  0
CIRCLE
  5
E2
330
1A
100
AcDbEntity
  8
Edge.Cuts
100
AcDbCircle
 10
80.1400000000000006
 20
40.884999999999998
 30
0
 40
0.4191
  0
CIRCLE
  5
E3
330
1A
100
AcDbEntity
  8
Edge.Cuts
100
AcDbCircle
 10
80.1400000000000006
 20
38.3449999999999989
 30
0
 40
0.4191
  0
CIRCLE
  5
E4
330
1A
100
AcDbEntity
  8
Edge.Cuts
100
AcDbCircle
 10
77.5999999999999943
 20
40.884999999999998
 30
0
 40
0.4191
  0
CIRCLE
  5
E5
330
1A
100
AcDbEntity
  8
Edge.Cuts
100
AcDbCircle
 10
77.5999999999999943
 20
38.3449999999999989
 30
0
 40
0.4191
  0
CIRCLE
  5
E6
330
1A
100
AcDbEntity
  8
Edge.Cuts
100
AcDbCircle
 10
9.129999999999999
 20
65.3699999999999903
 30
0
 40
0.5969
  0
CIRCLE
  5
E7
330
1A
100
AcDbEntity
  8
Edge.Cuts
100
AcDbCircle
 10
14.2099999999999991
 20
65.3699999999999903
 30
0
 40
0.5969
  0
CIRCLE
  5
E8
330
1A
100
AcDbEntity
  8
Edge.Cuts
100
AcDbCircle
 10
14.2099999999999991
 20
70.4500000000000028
 30
0
 40
0.5969
  0
CIRCLE
  5
E9
330
1A
100
AcDbEntity
  8
Edge.Cuts
100
AcDbCircle
 10
9.129999999999999
 20
70.4500000000000028
 30
0
 40
0.5969
  0
CIRCLE
  5
EA
330
1A
100
AcDbEntity
  8
Edge.Cuts
100
AcDbCircle
 10
89.8199999999999932
 20
58.3599999999999994
 30
0
 40
0.508
  0
CIRCLE
  5
EB
330
1A
100
AcDbEntity
  8
Edge.Cuts
100
AcDbCircle
 10
87.2800000000000011
 20
58.3599999999999994
 30
0
 40
0.508
  0
CIRCLE
  5
EC
330
1A
100
AcDbEntity
  8
Edge.Cuts
100
AcDbCircle
 10
89.8199999999999932
 20
60.8999999999999986
 30
0
 40
0.508
  0
CIRCLE
  5
ED
330
1A
100
AcDbEntity
  8
Edge.Cuts
100
AcDbCircle
 10
87.2800000000000011
 20
60.8999999999999986
 30
0
 40
0.508
  0
CIRCLE
  5
EE
330
1A
100
AcDbEntity
  8
Edge.Cuts
100
AcDbCircle
 10
89.8199999999999932
 20
63.4399999999999977
 30
0
 40
0.508
  0
CIRCLE
  5
EF
330
1A
100
AcDbEntity
  8
Edge.Cuts
100
AcDbCircle
 10
87.2800000000000011
 20
63.4399999999999977
 30
0
 40
0.508
  0
CIRCLE
  5
F0
330
1A
100
AcDbEntity
  8
Edge.Cuts
100
AcDbCircle
 10
89.8199999999999932
 20
65.980000000000004
 30
0
 40
0.508
  0
CIRCLE
  5
F1
330
1A
100
AcDbEntity
  8
Edge.Cuts
100
AcDbCircle
 10
87.2800000000000011
 20
65.980000000000004
 30
0
 40
0.508
  0
CIRCLE
  5
F2
330
1A
100
AcDbEntity
  8
Edge.Cuts
100
AcDbCircle
 10
89.8199999999999932
 20
68.519999999999996
 30
0
 40
0.508
  0
CIRCLE
  5
F3
330
1A
100
AcDbEntity
  8
Edge.Cuts
100
AcDbCircle
 10
87.2800000000000011
 20
68.519999999999996
 30
0
 40
0.508
  0
CIRCLE
  5
F4
330
1A
100
AcDbEntity
  8
Edge.Cuts
100
AcDbCircle
 10
89.8199999999999932
 20
71.0600000000000023
 30
0
 40
0.508
  0
CIRCLE
  5
F5
330
1A
100
AcDbEntity
  8
Edge.Cuts
100
AcDbCircle
 10
87.2800000000000011
 20
71.0600000000000023
 30
0
 40
0.508
  0
CIRCLE
  5
F6
330
1A
100
AcDbEntity
  8
Edge.Cuts
100
AcDbCircle
 10
89.8199999999999932
 20
73.5999999999999943
 30
0
 40
0.508
  0
CIRCLE
  5
F7
330
1A
100
AcDbEntity
  8
Edge.Cuts
100
AcDbCircle
 10
87.2800000000000011
 20
73.5999999999999943
 30
0
 40
0.508
  0
CIRCLE
  5
F8
330
1A
100
AcDbEntity
  8
Edge.Cuts
100
AcDbCircle
 10
90.1700000000000017
 20
27.6600000000000001
 30
0
 40
0.5969
  0
CIRCLE
  5
F9
330
1A
100
AcDbEntity
  8
Edge.Cuts
100
AcDbCircle
 10
95.25
 20
27.6600000000000001
 30
0
 40
0.5969
  0
CIRCLE
  5
FA
330
1A
100
AcDbEntity
  8
Edge.Cuts
100
AcDbCircle
 10
95.25
 20
32.740000000000002
 30
0
 40
0.5969
  0
CIRCLE
  5
FB
330
1A
100
AcDbEntity
  8
Edge.Cuts
100
AcDbCircle
 10
90.1700000000000017
 20
32.740000000000002
 30
0
 40
0.5969
  0
CIRCLE
  5
FC
330
1A
100
AcDbEntity
  8
Edge.Cuts
100
AcDbCircle
 10
90.3199999999999932
 20
46.8200000000000003
 30
0
 40
0.5969
  0
CIRCLE
  5
FD
330
1A
100
AcDbEntity
  8
Edge.Cuts
100
AcDbCircle
 10
95.3999999999999915
 20
46.8200000000000003
 30
0
 40
0.5969
  0
CIRCLE
  5
FE
330
1A
100
AcDbEntity
  8
Edge.Cuts
100
AcDbCircle
 10
95.3999999999999915
 20
51.8999999999999986
 30
0
 40
0.5969
  0
CIRCLE
  5
FF
330
1A
100
AcDbEntity
  8
Edge.Cuts
100
AcDbCircle
 10
90.3199999999999932
 20
51.8999999999999986
 30
0
 40
0.5969
  0
ENDSEC
  0
SECTION
  2
OBJECTS
  0
DICTIONARY
  5
20
330
0
100
AcDbDictionary
281
1
  3
ACAD_GROUP
350
100
  3
ACAD_LAYOUT
350
21
  3
ACAD_PLOTSTYLENAME
350
11
  0
DICTIONARY
  5
100
330
20
100
AcDbDictionary
281
1
  0
ACDBDICTIONARYWDFLT
  5
11
330
20
100
AcDbDictionary
281
1
  3
Normal
350
10
100
AcDbDictionaryWithDefault
340
10
  0
ACDBPLACEHOLDER
  5
10
330
11
  0
DICTIONARY
  5
21
330
20
100
AcDbDictionary
281
1
  3
Model
350
1D
  3
Layout1
350
1E
  3
Layout2
350
1F
  0
LAYOUT
  5
1D
330
21
100
AcDbPlotSettings
  1

  2
none_device
  4
A3
  6

 40
0.0
 41
0.0
 42
0.0
 43
0.0
 44
420.0
 45
297.0
 46
0.0
 47
0.0
 48
0.0
 49
0.0
140
0.0
141
0.0
142
1.0
143
1.0
 70
1024
 72
1
 73
0
 74
5
  7

 75
16
 76
0
 77
2
 78
300
147
1.0
148
0.0
149
0.0
100
AcDbLayout
  1
Model
 70
1
 71
0
 10
0.0
 20
0.0
 11
420.0
 21
297.0
 12
0.0
 22
0.0
 32
0.0
 14
1e+20
 24
1e+20
 34
1e+20
 15
-1e+20
 25
-1e+20
 35
-1e+20
146
0.0
 13
0.0
 23
0.0
 33
0.0
 16
1.0
 26
0.0
 36
0.0
 17
0.0
 27
1.0
 37
0.0
 76
0
330
1A
  0
LAYOUT
  5
1E
330
21
100
AcDbPlotSettings
  1

  2
none_device
  4
A3
  6

 40
0.0
 41
0.0
 42
0.0
 43
0.0
 44
420.0
 45
297.0
 46
0.0
 47
0.0
 48
0.0
 49
0.0
140
0.0
141
0.0
142
1.0
143
1.0
 70
0
 72
1
 73
0
 74
5
  7

 75
16
 76
0
 77
2
 78
300
147
1.0
148
0.0
149
0.0
100
AcDbLayout
  1
Layout1
 70
1
 71
1
 10
0.0
 20
0.0
 11
420.0
 21
297.0
 12
0.0
 22
0.0
 32
0.0
 14
1e+20
 24
1e+20
 34
1e+20
 15
-1e+20
 25
-1e+20
 35
-1e+20
146
0.0
 13
0.0
 23
0.0
 33
0.0
 16
1.0
 26
0.0
 36
0.0
 17
0.0
 27
1.0
 37
0.0
 76
0
330
1B
  0
LAYOUT
  5
1F
330
21
100
AcDbPlotSettings
  1

  2
none_device
  4
A3
  6

 40
0.0
 41
0.0
 42
0.0
 43
0.0
 44
420.0
 45
297.0
 46
0.0
 47
0.0
 48
0.0
 49
0.0
140
0.0
141
0.0
142
1.0
143
1.0
 70
0
 72
1
 73
0
 74
5
  7

 75
16
 76
0
 77
2
 78
300
147
1.0
148
0.0
149
0.0
100
AcDbLayout
  1
Layout2
 70
1
 71
2
 10
0.0
 20
0.0
 11
420.0
 21
297.0
 12
0.0
 22
0.0
 32
0.0
 14
1e+20
 24
1e+20
 34
1e+20
 15
-1e+20
 25
-1e+20
 35
-1e+20
146
0.0
 13
0.0
 23
0.0
 33
0.0
 16
1.0
 26
0.0
 36
0.0
 17
0.0
 27
1.0
 37
0.0
 76
0
330
1C
  0
ENDSEC
  0
EOF
