%TF.GenerationSoftware,KiCad,Pcbnew,10.0.6*%
%TF.CreationDate,2026-10-09T14:28:17+03:00*%
%TF.ProjectId,POWER_SUPPLY,504f5745-525f-4535-9550-504c592e6b69,rev?*%
%TF.SameCoordinates,Original*%
%TF.FileFunction,Legend,Bot*%
%TF.FilePolarity,Positive*%
%FSLAX46Y46*%
G04 Gerber Fmt 4.6, Leading zero omitted, Abs format (unit mm)*
G04 Created by KiCad (PCBNEW 10.0.6) date 2026-10-09 14:28:17*
%MOMM*%
%LPD*%
G01*
G04 APERTURE LIST*
G04 Aperture macros list*
%AMFreePoly0*
4,1,17,0.351552,0.797921,0.797921,0.351552,0.812800,0.315631,0.812800,-0.315631,0.797921,-0.351552,0.351552,-0.797921,0.315631,-0.812800,-0.315631,-0.812800,-0.351552,-0.797921,-0.797921,-0.351552,-0.812800,-0.315631,-0.812800,0.315631,-0.797921,0.351552,-0.351552,0.797921,-0.315631,0.812800,0.315631,0.812800,0.351552,0.797921,0.351552,0.797921,$1*%
G04 Aperture macros list end*
%ADD10O,1.601600X3.101600*%
%ADD11C,3.200000*%
%ADD12O,3.101600X1.601600*%
%ADD13FreePoly0,90.000000*%
%ADD14C,0.660400*%
%ADD15O,4.064000X2.082800*%
G04 APERTURE END LIST*
%LPC*%
D10*
%TO.C,X18*%
X206930000Y188120000D03*
X204390000Y188120000D03*
%TD*%
%TO.C,X14*%
X271397000Y126698000D03*
X273937000Y126698000D03*
%TD*%
D11*
%TO.C,UNK_HOLE_1*%
X270000000Y10000000D03*
%TD*%
%TO.C,UNK_HOLE_7*%
X10000000Y120000000D03*
%TD*%
D10*
%TO.C,X12*%
X232930000Y62950000D03*
X235470000Y62950000D03*
%TD*%
%TO.C,X30*%
X5397000Y192698000D03*
X7937000Y192698000D03*
%TD*%
%TO.C,X6*%
X175397000Y7698000D03*
X177937000Y7698000D03*
%TD*%
%TO.C,X8*%
X144397000Y7698000D03*
X146937000Y7698000D03*
%TD*%
%TO.C,X7*%
X163397000Y7698000D03*
X165937000Y7698000D03*
%TD*%
D12*
%TO.C,X21*%
X111130000Y138250000D03*
X111130000Y135710000D03*
%TD*%
D11*
%TO.C,UNK_HOLE_5*%
X140000000Y10000000D03*
%TD*%
%TO.C,UNK_HOLE_2*%
X270000000Y230000000D03*
%TD*%
D10*
%TO.C,X5*%
X134330000Y54800000D03*
X136870000Y54800000D03*
%TD*%
D13*
%TO.C,SV1*%
X259420000Y107670000D03*
X256880000Y107670000D03*
X259420000Y110210000D03*
X256880000Y110210000D03*
X259420000Y112750000D03*
X256880000Y112750000D03*
X259420000Y115290000D03*
X256880000Y115290000D03*
X259420000Y117830000D03*
X256880000Y117830000D03*
X259420000Y120370000D03*
X256880000Y120370000D03*
X259420000Y122910000D03*
X256880000Y122910000D03*
X259420000Y125450000D03*
X256880000Y125450000D03*
X259420000Y127990000D03*
X256880000Y127990000D03*
X259420000Y130530000D03*
X256880000Y130530000D03*
%TD*%
D10*
%TO.C,X26*%
X271397000Y91698000D03*
X273937000Y91698000D03*
%TD*%
D12*
%TO.C,X20*%
X147130000Y163310000D03*
X147130000Y160770000D03*
%TD*%
D10*
%TO.C,X34*%
X271397000Y99698000D03*
X273937000Y99698000D03*
%TD*%
%TO.C,X9*%
X271397000Y141698000D03*
X273937000Y141698000D03*
%TD*%
%TO.C,X2*%
X271397000Y80698000D03*
X273937000Y80698000D03*
%TD*%
%TO.C,X17*%
X132397000Y7698000D03*
X134937000Y7698000D03*
%TD*%
%TO.C,X4*%
X91230000Y55100000D03*
X93770000Y55100000D03*
%TD*%
D12*
%TO.C,X19*%
X87680000Y239870000D03*
X87680000Y237330000D03*
%TD*%
D10*
%TO.C,X3*%
X98397000Y292698000D03*
X100937000Y292698000D03*
%TD*%
%TO.C,X13*%
X125397000Y7698000D03*
X127937000Y7698000D03*
%TD*%
D14*
%TO.C,U34*%
X120593600Y91593600D03*
X120593600Y92406400D03*
X121406400Y91593600D03*
X121406400Y92406400D03*
%TD*%
D11*
%TO.C,UNK_HOLE_0*%
X10000000Y10000000D03*
%TD*%
D10*
%TO.C,X35*%
X118397000Y7698000D03*
X120937000Y7698000D03*
%TD*%
%TO.C,X31*%
X5397000Y200698000D03*
X7937000Y200698000D03*
%TD*%
D14*
%TO.C,U32*%
X237593600Y98593600D03*
X237593600Y99406400D03*
X238406400Y98593600D03*
X238406400Y99406400D03*
%TD*%
D10*
%TO.C,X32*%
X143397000Y292698000D03*
X145937000Y292698000D03*
%TD*%
%TO.C,X15*%
X271397000Y149698000D03*
X273937000Y149698000D03*
%TD*%
%TO.C,X10*%
X271397000Y157698000D03*
X273937000Y157698000D03*
%TD*%
%TO.C,X22*%
X215010000Y54430000D03*
X217550000Y54430000D03*
%TD*%
D11*
%TO.C,UNK_HOLE_6*%
X270000000Y120000000D03*
%TD*%
D10*
%TO.C,X29*%
X271397000Y165698000D03*
X273937000Y165698000D03*
%TD*%
%TO.C,X28*%
X111397000Y7698000D03*
X113937000Y7698000D03*
%TD*%
D15*
%TO.C,X1*%
X10450000Y90814600D03*
X10450000Y85810800D03*
%TD*%
D10*
%TO.C,X16*%
X62650000Y54330000D03*
X65190000Y54330000D03*
%TD*%
%TO.C,X25*%
X156397000Y7698000D03*
X158937000Y7698000D03*
%TD*%
D11*
%TO.C,UNK_HOLE_4*%
X138450000Y267850000D03*
%TD*%
%TO.C,UNK_HOLE_3*%
X10000000Y230000000D03*
%TD*%
D10*
%TO.C,X11*%
X271397000Y72698000D03*
X273937000Y72698000D03*
%TD*%
%TO.C,X33*%
X271397000Y186698000D03*
X273937000Y186698000D03*
%TD*%
D12*
%TO.C,X24*%
X74930000Y137620000D03*
X74930000Y135080000D03*
%TD*%
D10*
%TO.C,X27*%
X163080000Y55300000D03*
X165620000Y55300000D03*
%TD*%
%TO.C,X23*%
X97570000Y132680000D03*
X100110000Y132680000D03*
%TD*%
%LPD*%
M02*
