0
SECTION
2
HEADER
9
$INSUNITS
70
4
9
$EXTMIN
10
0
20
0
9
$EXTMAX
10
35.0000
20
60.0000
0
ENDSEC
0
SECTION
2
TABLES
0
TABLE
2
LAYER
70
2
0
LAYER
2
OUTLINE
70
0
62
7
6
CONTINUOUS
0
LAYER
2
HOLES
70
0
62
1
6
CONTINUOUS
0
ENDTAB
0
ENDSEC
0
SECTION
2
ENTITIES
0
LINE
8
OUTLINE
10
0.0000
20
0.0000
30
0
11
35.0000
21
0.0000
31
0
0
LINE
8
OUTLINE
10
35.0000
20
0.0000
30
0
11
35.0000
21
60.0000
31
0
0
LINE
8
OUTLINE
10
35.0000
20
60.0000
30
0
11
0.0000
21
60.0000
31
0
0
LINE
8
OUTLINE
10
0.0000
20
60.0000
30
0
11
0.0000
21
0.0000
31
0
0
CIRCLE
8
HOLES
10
2.6000
20
2.6000
30
0
40
1.6000
0
CIRCLE
8
HOLES
10
17.5000
20
2.6000
30
0
40
1.6000
0
CIRCLE
8
HOLES
10
32.4000
20
2.6000
30
0
40
1.6000
0
CIRCLE
8
HOLES
10
2.6000
20
38.0000
30
0
40
1.6000
0
CIRCLE
8
HOLES
10
32.4000
20
38.0000
30
0
40
1.6000
0
CIRCLE
8
HOLES
10
2.6000
20
57.4000
30
0
40
1.6000
0
CIRCLE
8
HOLES
10
32.4000
20
57.4000
30
0
40
1.6000
0
ENDSEC
0
EOF
