%TF.GenerationSoftware,KiCad,Pcbnew,10.0.6*%
%TF.CreationDate,2026-10-09T14:03:34+03:00*%
%TF.ProjectId,RF_PA,52465f50-412e-46b6-9963-61645f706362,rev?*%
%TF.SameCoordinates,Original*%
%TF.FileFunction,Legend,Top*%
%TF.FilePolarity,Positive*%
%FSLAX46Y46*%
G04 Gerber Fmt 4.6, Leading zero omitted, Abs format (unit mm)*
G04 Created by KiCad (PCBNEW 10.0.6) date 2026-10-09 14:03:34*
%MOMM*%
%LPD*%
G01*
G04 APERTURE LIST*
G04 Aperture macros list*
%AMRoundRect*
0 Rectangle with rounded corners*
0 $1 Rounding radius*
0 $2 $3 $4 $5 $6 $7 $8 $9 X,Y pos of 4 corners*
0 Add a 4 corners polygon primitive as box body*
4,1,4,$2,$3,$4,$5,$6,$7,$8,$9,$2,$3,0*
0 Add four circle primitives for the rounded corners*
1,1,$1+$1,$2,$3*
1,1,$1+$1,$4,$5*
1,1,$1+$1,$6,$7*
1,1,$1+$1,$8,$9*
0 Add four rect primitives between the rounded corners*
20,1,$1+$1,$2,$3,$4,$5,0*
20,1,$1+$1,$4,$5,$6,$7,0*
20,1,$1+$1,$6,$7,$8,$9,0*
20,1,$1+$1,$8,$9,$2,$3,0*%
G04 Aperture macros list end*
%ADD10C,0.040000*%
%ADD11C,0.064000*%
%ADD12C,0.142240*%
%ADD13C,0.093472*%
%ADD14C,0.160020*%
%ADD15C,0.127000*%
%ADD16C,0.032000*%
%ADD17C,0.152400*%
%ADD18C,0.200000*%
%ADD19C,0.100000*%
%ADD20C,0.254000*%
%ADD21C,3.200000*%
%ADD22RoundRect,0.050800X2.222500X-1.473200X2.222500X1.473200X-2.222500X1.473200X-2.222500X-1.473200X0*%
%ADD23RoundRect,0.050800X-0.300000X-0.350000X0.300000X-0.350000X0.300000X0.350000X-0.300000X0.350000X0*%
%ADD24O,2.082800X4.064000*%
%ADD25RoundRect,0.050800X-0.800000X-0.900000X0.800000X-0.900000X0.800000X0.900000X-0.800000X0.900000X0*%
%ADD26RoundRect,0.330300X-0.000010X-0.000010X0.000010X-0.000010X0.000010X0.000010X-0.000010X0.000010X0*%
%ADD27C,1.892600*%
%ADD28RoundRect,0.050800X-0.350000X-0.450000X0.350000X-0.450000X0.350000X0.450000X-0.350000X0.450000X0*%
%ADD29O,3.101600X1.601600*%
%ADD30RoundRect,0.050800X0.500000X0.550000X-0.500000X0.550000X-0.500000X-0.550000X0.500000X-0.550000X0*%
%ADD31RoundRect,0.050800X0.800000X0.900000X-0.800000X0.900000X-0.800000X-0.900000X0.800000X-0.900000X0*%
%ADD32RoundRect,0.050800X-0.172500X-0.160000X0.172500X-0.160000X0.172500X0.160000X-0.172500X0.160000X0*%
%ADD33RoundRect,0.050800X-0.160000X-0.172500X0.160000X-0.172500X0.160000X0.172500X-0.160000X0.172500X0*%
%ADD34RoundRect,0.050800X-0.295000X-0.172500X0.295000X-0.172500X0.295000X0.172500X-0.295000X0.172500X0*%
%ADD35RoundRect,0.330300X-0.000010X0.000010X-0.000010X-0.000010X0.000010X-0.000010X0.000010X0.000010X0*%
%ADD36RoundRect,0.050800X0.350000X0.450000X-0.350000X0.450000X-0.350000X-0.450000X0.350000X-0.450000X0*%
%ADD37RoundRect,0.050800X0.300000X0.350000X-0.300000X0.350000X-0.300000X-0.350000X0.300000X-0.350000X0*%
%ADD38RoundRect,0.050800X-0.350000X0.300000X-0.350000X-0.300000X0.350000X-0.300000X0.350000X0.300000X0*%
G04 APERTURE END LIST*
D10*
X20047815Y37498695D02*
X20069720Y37476791D01*
X20069720Y37476791D02*
X20091624Y37411076D01*
X20091624Y37411076D02*
X20091624Y37367267D01*
X20091624Y37367267D02*
X20069720Y37301553D01*
X20069720Y37301553D02*
X20025910Y37257743D01*
X20025910Y37257743D02*
X19982100Y37235838D01*
X19982100Y37235838D02*
X19894481Y37213934D01*
X19894481Y37213934D02*
X19828767Y37213934D01*
X19828767Y37213934D02*
X19741148Y37235838D01*
X19741148Y37235838D02*
X19697339Y37257743D01*
X19697339Y37257743D02*
X19653529Y37301553D01*
X19653529Y37301553D02*
X19631624Y37367267D01*
X19631624Y37367267D02*
X19631624Y37411076D01*
X19631624Y37411076D02*
X19653529Y37476791D01*
X19653529Y37476791D02*
X19675434Y37498695D01*
X19631624Y37695838D02*
X20004005Y37695838D01*
X20004005Y37695838D02*
X20047815Y37717743D01*
X20047815Y37717743D02*
X20069720Y37739648D01*
X20069720Y37739648D02*
X20091624Y37783457D01*
X20091624Y37783457D02*
X20091624Y37871076D01*
X20091624Y37871076D02*
X20069720Y37914886D01*
X20069720Y37914886D02*
X20047815Y37936791D01*
X20047815Y37936791D02*
X20004005Y37958695D01*
X20004005Y37958695D02*
X19631624Y37958695D01*
X20091624Y38440600D02*
X19872577Y38287267D01*
X20091624Y38177743D02*
X19631624Y38177743D01*
X19631624Y38177743D02*
X19631624Y38352981D01*
X19631624Y38352981D02*
X19653529Y38396791D01*
X19653529Y38396791D02*
X19675434Y38418696D01*
X19675434Y38418696D02*
X19719243Y38440600D01*
X19719243Y38440600D02*
X19784958Y38440600D01*
X19784958Y38440600D02*
X19828767Y38418696D01*
X19828767Y38418696D02*
X19850672Y38396791D01*
X19850672Y38396791D02*
X19872577Y38352981D01*
X19872577Y38352981D02*
X19872577Y38177743D01*
X20091624Y38900600D02*
X19872577Y38747267D01*
X20091624Y38637743D02*
X19631624Y38637743D01*
X19631624Y38637743D02*
X19631624Y38812981D01*
X19631624Y38812981D02*
X19653529Y38856791D01*
X19653529Y38856791D02*
X19675434Y38878696D01*
X19675434Y38878696D02*
X19719243Y38900600D01*
X19719243Y38900600D02*
X19784958Y38900600D01*
X19784958Y38900600D02*
X19828767Y38878696D01*
X19828767Y38878696D02*
X19850672Y38856791D01*
X19850672Y38856791D02*
X19872577Y38812981D01*
X19872577Y38812981D02*
X19872577Y38637743D01*
X19850672Y39097743D02*
X19850672Y39251077D01*
X20091624Y39316791D02*
X20091624Y39097743D01*
X20091624Y39097743D02*
X19631624Y39097743D01*
X19631624Y39097743D02*
X19631624Y39316791D01*
X20091624Y39513933D02*
X19631624Y39513933D01*
X19631624Y39513933D02*
X20091624Y39776790D01*
X20091624Y39776790D02*
X19631624Y39776790D01*
X19631624Y39930124D02*
X19631624Y40192981D01*
X20091624Y40061553D02*
X19631624Y40061553D01*
X20069720Y40674886D02*
X20091624Y40740600D01*
X20091624Y40740600D02*
X20091624Y40850124D01*
X20091624Y40850124D02*
X20069720Y40893933D01*
X20069720Y40893933D02*
X20047815Y40915838D01*
X20047815Y40915838D02*
X20004005Y40937743D01*
X20004005Y40937743D02*
X19960196Y40937743D01*
X19960196Y40937743D02*
X19916386Y40915838D01*
X19916386Y40915838D02*
X19894481Y40893933D01*
X19894481Y40893933D02*
X19872577Y40850124D01*
X19872577Y40850124D02*
X19850672Y40762505D01*
X19850672Y40762505D02*
X19828767Y40718695D01*
X19828767Y40718695D02*
X19806862Y40696790D01*
X19806862Y40696790D02*
X19763053Y40674886D01*
X19763053Y40674886D02*
X19719243Y40674886D01*
X19719243Y40674886D02*
X19675434Y40696790D01*
X19675434Y40696790D02*
X19653529Y40718695D01*
X19653529Y40718695D02*
X19631624Y40762505D01*
X19631624Y40762505D02*
X19631624Y40872028D01*
X19631624Y40872028D02*
X19653529Y40937743D01*
X19850672Y41134885D02*
X19850672Y41288219D01*
X20091624Y41353933D02*
X20091624Y41134885D01*
X20091624Y41134885D02*
X19631624Y41134885D01*
X19631624Y41134885D02*
X19631624Y41353933D01*
X20091624Y41551075D02*
X19631624Y41551075D01*
X19631624Y41551075D02*
X20091624Y41813932D01*
X20091624Y41813932D02*
X19631624Y41813932D01*
X20069720Y42011076D02*
X20091624Y42076790D01*
X20091624Y42076790D02*
X20091624Y42186314D01*
X20091624Y42186314D02*
X20069720Y42230123D01*
X20069720Y42230123D02*
X20047815Y42252028D01*
X20047815Y42252028D02*
X20004005Y42273933D01*
X20004005Y42273933D02*
X19960196Y42273933D01*
X19960196Y42273933D02*
X19916386Y42252028D01*
X19916386Y42252028D02*
X19894481Y42230123D01*
X19894481Y42230123D02*
X19872577Y42186314D01*
X19872577Y42186314D02*
X19850672Y42098695D01*
X19850672Y42098695D02*
X19828767Y42054885D01*
X19828767Y42054885D02*
X19806862Y42032980D01*
X19806862Y42032980D02*
X19763053Y42011076D01*
X19763053Y42011076D02*
X19719243Y42011076D01*
X19719243Y42011076D02*
X19675434Y42032980D01*
X19675434Y42032980D02*
X19653529Y42054885D01*
X19653529Y42054885D02*
X19631624Y42098695D01*
X19631624Y42098695D02*
X19631624Y42208218D01*
X19631624Y42208218D02*
X19653529Y42273933D01*
X19631624Y42558694D02*
X19631624Y42646313D01*
X19631624Y42646313D02*
X19653529Y42690123D01*
X19653529Y42690123D02*
X19697339Y42733932D01*
X19697339Y42733932D02*
X19784958Y42755837D01*
X19784958Y42755837D02*
X19938291Y42755837D01*
X19938291Y42755837D02*
X20025910Y42733932D01*
X20025910Y42733932D02*
X20069720Y42690123D01*
X20069720Y42690123D02*
X20091624Y42646313D01*
X20091624Y42646313D02*
X20091624Y42558694D01*
X20091624Y42558694D02*
X20069720Y42514885D01*
X20069720Y42514885D02*
X20025910Y42471075D01*
X20025910Y42471075D02*
X19938291Y42449171D01*
X19938291Y42449171D02*
X19784958Y42449171D01*
X19784958Y42449171D02*
X19697339Y42471075D01*
X19697339Y42471075D02*
X19653529Y42514885D01*
X19653529Y42514885D02*
X19631624Y42558694D01*
X20091624Y43215837D02*
X19872577Y43062504D01*
X20091624Y42952980D02*
X19631624Y42952980D01*
X19631624Y42952980D02*
X19631624Y43128218D01*
X19631624Y43128218D02*
X19653529Y43172028D01*
X19653529Y43172028D02*
X19675434Y43193933D01*
X19675434Y43193933D02*
X19719243Y43215837D01*
X19719243Y43215837D02*
X19784958Y43215837D01*
X19784958Y43215837D02*
X19828767Y43193933D01*
X19828767Y43193933D02*
X19850672Y43172028D01*
X19850672Y43172028D02*
X19872577Y43128218D01*
X19872577Y43128218D02*
X19872577Y42952980D01*
D11*
X8052866Y26794352D02*
X7982771Y26829400D01*
X7982771Y26829400D02*
X7877628Y26829400D01*
X7877628Y26829400D02*
X7772485Y26794352D01*
X7772485Y26794352D02*
X7702390Y26724257D01*
X7702390Y26724257D02*
X7667343Y26654162D01*
X7667343Y26654162D02*
X7632295Y26513971D01*
X7632295Y26513971D02*
X7632295Y26408828D01*
X7632295Y26408828D02*
X7667343Y26268638D01*
X7667343Y26268638D02*
X7702390Y26198543D01*
X7702390Y26198543D02*
X7772485Y26128448D01*
X7772485Y26128448D02*
X7877628Y26093400D01*
X7877628Y26093400D02*
X7947724Y26093400D01*
X7947724Y26093400D02*
X8052866Y26128448D01*
X8052866Y26128448D02*
X8087914Y26163495D01*
X8087914Y26163495D02*
X8087914Y26408828D01*
X8087914Y26408828D02*
X7947724Y26408828D01*
X8403343Y26093400D02*
X8403343Y26829400D01*
X8403343Y26829400D02*
X8823914Y26093400D01*
X8823914Y26093400D02*
X8823914Y26829400D01*
X9174391Y26093400D02*
X9174391Y26829400D01*
X9174391Y26829400D02*
X9349629Y26829400D01*
X9349629Y26829400D02*
X9454772Y26794352D01*
X9454772Y26794352D02*
X9524867Y26724257D01*
X9524867Y26724257D02*
X9559914Y26654162D01*
X9559914Y26654162D02*
X9594962Y26513971D01*
X9594962Y26513971D02*
X9594962Y26408828D01*
X9594962Y26408828D02*
X9559914Y26268638D01*
X9559914Y26268638D02*
X9524867Y26198543D01*
X9524867Y26198543D02*
X9454772Y26128448D01*
X9454772Y26128448D02*
X9349629Y26093400D01*
X9349629Y26093400D02*
X9174391Y26093400D01*
X7862200Y33229400D02*
X8107533Y32493400D01*
X8107533Y32493400D02*
X8352866Y33229400D01*
X8983723Y33194352D02*
X8913628Y33229400D01*
X8913628Y33229400D02*
X8808485Y33229400D01*
X8808485Y33229400D02*
X8703342Y33194352D01*
X8703342Y33194352D02*
X8633247Y33124257D01*
X8633247Y33124257D02*
X8598200Y33054162D01*
X8598200Y33054162D02*
X8563152Y32913971D01*
X8563152Y32913971D02*
X8563152Y32808828D01*
X8563152Y32808828D02*
X8598200Y32668638D01*
X8598200Y32668638D02*
X8633247Y32598543D01*
X8633247Y32598543D02*
X8703342Y32528448D01*
X8703342Y32528448D02*
X8808485Y32493400D01*
X8808485Y32493400D02*
X8878581Y32493400D01*
X8878581Y32493400D02*
X8983723Y32528448D01*
X8983723Y32528448D02*
X9018771Y32563495D01*
X9018771Y32563495D02*
X9018771Y32808828D01*
X9018771Y32808828D02*
X8878581Y32808828D01*
X10452866Y38944352D02*
X10382771Y38979400D01*
X10382771Y38979400D02*
X10277628Y38979400D01*
X10277628Y38979400D02*
X10172485Y38944352D01*
X10172485Y38944352D02*
X10102390Y38874257D01*
X10102390Y38874257D02*
X10067343Y38804162D01*
X10067343Y38804162D02*
X10032295Y38663971D01*
X10032295Y38663971D02*
X10032295Y38558828D01*
X10032295Y38558828D02*
X10067343Y38418638D01*
X10067343Y38418638D02*
X10102390Y38348543D01*
X10102390Y38348543D02*
X10172485Y38278448D01*
X10172485Y38278448D02*
X10277628Y38243400D01*
X10277628Y38243400D02*
X10347724Y38243400D01*
X10347724Y38243400D02*
X10452866Y38278448D01*
X10452866Y38278448D02*
X10487914Y38313495D01*
X10487914Y38313495D02*
X10487914Y38558828D01*
X10487914Y38558828D02*
X10347724Y38558828D01*
X10803343Y38243400D02*
X10803343Y38979400D01*
X10803343Y38979400D02*
X11223914Y38243400D01*
X11223914Y38243400D02*
X11223914Y38979400D01*
X11574391Y38243400D02*
X11574391Y38979400D01*
X11574391Y38979400D02*
X11749629Y38979400D01*
X11749629Y38979400D02*
X11854772Y38944352D01*
X11854772Y38944352D02*
X11924867Y38874257D01*
X11924867Y38874257D02*
X11959914Y38804162D01*
X11959914Y38804162D02*
X11994962Y38663971D01*
X11994962Y38663971D02*
X11994962Y38558828D01*
X11994962Y38558828D02*
X11959914Y38418638D01*
X11959914Y38418638D02*
X11924867Y38348543D01*
X11924867Y38348543D02*
X11854772Y38278448D01*
X11854772Y38278448D02*
X11749629Y38243400D01*
X11749629Y38243400D02*
X11574391Y38243400D01*
X10062200Y44429400D02*
X10307533Y43693400D01*
X10307533Y43693400D02*
X10552866Y44429400D01*
X10798200Y43693400D02*
X10798200Y44429400D01*
X11148676Y43693400D02*
X11148676Y44429400D01*
X11148676Y44429400D02*
X11569247Y43693400D01*
X11569247Y43693400D02*
X11569247Y44429400D01*
X11919724Y43973781D02*
X12480486Y43973781D01*
X12200105Y43693400D02*
X12200105Y44254162D01*
X10212200Y41579400D02*
X10457533Y40843400D01*
X10457533Y40843400D02*
X10702866Y41579400D01*
X10948200Y40843400D02*
X10948200Y41579400D01*
X11298676Y40843400D02*
X11298676Y41579400D01*
X11298676Y41579400D02*
X11719247Y40843400D01*
X11719247Y40843400D02*
X11719247Y41579400D01*
X12069724Y41123781D02*
X12630486Y41123781D01*
D12*
X7900182Y2543743D02*
X7354929Y3322677D01*
X6965462Y2543743D02*
X6965462Y4179503D01*
X6965462Y4179503D02*
X7588609Y4179503D01*
X7588609Y4179503D02*
X7744396Y4101610D01*
X7744396Y4101610D02*
X7822289Y4023717D01*
X7822289Y4023717D02*
X7900182Y3867930D01*
X7900182Y3867930D02*
X7900182Y3634250D01*
X7900182Y3634250D02*
X7822289Y3478463D01*
X7822289Y3478463D02*
X7744396Y3400570D01*
X7744396Y3400570D02*
X7588609Y3322677D01*
X7588609Y3322677D02*
X6965462Y3322677D01*
X9146476Y3400570D02*
X8601222Y3400570D01*
X8601222Y2543743D02*
X8601222Y4179503D01*
X8601222Y4179503D02*
X9380156Y4179503D01*
X10003302Y2543743D02*
X10003302Y4179503D01*
X10782235Y2543743D02*
X10782235Y4179503D01*
X10782235Y4179503D02*
X11716955Y2543743D01*
X11716955Y2543743D02*
X11716955Y4179503D01*
X23169169Y2593743D02*
X22623916Y3372677D01*
X22234449Y2593743D02*
X22234449Y4229503D01*
X22234449Y4229503D02*
X22857596Y4229503D01*
X22857596Y4229503D02*
X23013383Y4151610D01*
X23013383Y4151610D02*
X23091276Y4073717D01*
X23091276Y4073717D02*
X23169169Y3917930D01*
X23169169Y3917930D02*
X23169169Y3684250D01*
X23169169Y3684250D02*
X23091276Y3528463D01*
X23091276Y3528463D02*
X23013383Y3450570D01*
X23013383Y3450570D02*
X22857596Y3372677D01*
X22857596Y3372677D02*
X22234449Y3372677D01*
X24415463Y3450570D02*
X23870209Y3450570D01*
X23870209Y2593743D02*
X23870209Y4229503D01*
X23870209Y4229503D02*
X24649143Y4229503D01*
X25583863Y4229503D02*
X25895436Y4229503D01*
X25895436Y4229503D02*
X26051223Y4151610D01*
X26051223Y4151610D02*
X26207009Y3995823D01*
X26207009Y3995823D02*
X26284903Y3684250D01*
X26284903Y3684250D02*
X26284903Y3138997D01*
X26284903Y3138997D02*
X26207009Y2827423D01*
X26207009Y2827423D02*
X26051223Y2671637D01*
X26051223Y2671637D02*
X25895436Y2593743D01*
X25895436Y2593743D02*
X25583863Y2593743D01*
X25583863Y2593743D02*
X25428076Y2671637D01*
X25428076Y2671637D02*
X25272289Y2827423D01*
X25272289Y2827423D02*
X25194396Y3138997D01*
X25194396Y3138997D02*
X25194396Y3684250D01*
X25194396Y3684250D02*
X25272289Y3995823D01*
X25272289Y3995823D02*
X25428076Y4151610D01*
X25428076Y4151610D02*
X25583863Y4229503D01*
X26985942Y4229503D02*
X26985942Y2905317D01*
X26985942Y2905317D02*
X27063836Y2749530D01*
X27063836Y2749530D02*
X27141729Y2671637D01*
X27141729Y2671637D02*
X27297516Y2593743D01*
X27297516Y2593743D02*
X27609089Y2593743D01*
X27609089Y2593743D02*
X27764876Y2671637D01*
X27764876Y2671637D02*
X27842769Y2749530D01*
X27842769Y2749530D02*
X27920662Y2905317D01*
X27920662Y2905317D02*
X27920662Y4229503D01*
X28465915Y4229503D02*
X29400635Y4229503D01*
X28933275Y2593743D02*
X28933275Y4229503D01*
X14634550Y52489871D02*
X14556657Y52334084D01*
X14556657Y52334084D02*
X14556657Y52100404D01*
X14556657Y52100404D02*
X14634550Y51866724D01*
X14634550Y51866724D02*
X14790337Y51710938D01*
X14790337Y51710938D02*
X14946124Y51633044D01*
X14946124Y51633044D02*
X15257697Y51555151D01*
X15257697Y51555151D02*
X15491377Y51555151D01*
X15491377Y51555151D02*
X15802950Y51633044D01*
X15802950Y51633044D02*
X15958737Y51710938D01*
X15958737Y51710938D02*
X16114524Y51866724D01*
X16114524Y51866724D02*
X16192417Y52100404D01*
X16192417Y52100404D02*
X16192417Y52256191D01*
X16192417Y52256191D02*
X16114524Y52489871D01*
X16114524Y52489871D02*
X16036630Y52567764D01*
X16036630Y52567764D02*
X15491377Y52567764D01*
X15491377Y52567764D02*
X15491377Y52256191D01*
X16192417Y53268804D02*
X14556657Y53268804D01*
X14556657Y53268804D02*
X16192417Y54203524D01*
X16192417Y54203524D02*
X14556657Y54203524D01*
X16192417Y54982457D02*
X14556657Y54982457D01*
X14556657Y54982457D02*
X14556657Y55371924D01*
X14556657Y55371924D02*
X14634550Y55605604D01*
X14634550Y55605604D02*
X14790337Y55761391D01*
X14790337Y55761391D02*
X14946124Y55839284D01*
X14946124Y55839284D02*
X15257697Y55917177D01*
X15257697Y55917177D02*
X15491377Y55917177D01*
X15491377Y55917177D02*
X15802950Y55839284D01*
X15802950Y55839284D02*
X15958737Y55761391D01*
X15958737Y55761391D02*
X16114524Y55605604D01*
X16114524Y55605604D02*
X16192417Y55371924D01*
X16192417Y55371924D02*
X16192417Y54982457D01*
D13*
X21144311Y20803024D02*
X20972269Y21048799D01*
X20849381Y20803024D02*
X20849381Y21319152D01*
X20849381Y21319152D02*
X21046001Y21319152D01*
X21046001Y21319152D02*
X21095156Y21294574D01*
X21095156Y21294574D02*
X21119734Y21269997D01*
X21119734Y21269997D02*
X21144311Y21220842D01*
X21144311Y21220842D02*
X21144311Y21147109D01*
X21144311Y21147109D02*
X21119734Y21097954D01*
X21119734Y21097954D02*
X21095156Y21073377D01*
X21095156Y21073377D02*
X21046001Y21048799D01*
X21046001Y21048799D02*
X20849381Y21048799D01*
X21439242Y21097954D02*
X21390087Y21122532D01*
X21390087Y21122532D02*
X21365509Y21147109D01*
X21365509Y21147109D02*
X21340932Y21196264D01*
X21340932Y21196264D02*
X21340932Y21220842D01*
X21340932Y21220842D02*
X21365509Y21269997D01*
X21365509Y21269997D02*
X21390087Y21294574D01*
X21390087Y21294574D02*
X21439242Y21319152D01*
X21439242Y21319152D02*
X21537552Y21319152D01*
X21537552Y21319152D02*
X21586707Y21294574D01*
X21586707Y21294574D02*
X21611284Y21269997D01*
X21611284Y21269997D02*
X21635862Y21220842D01*
X21635862Y21220842D02*
X21635862Y21196264D01*
X21635862Y21196264D02*
X21611284Y21147109D01*
X21611284Y21147109D02*
X21586707Y21122532D01*
X21586707Y21122532D02*
X21537552Y21097954D01*
X21537552Y21097954D02*
X21439242Y21097954D01*
X21439242Y21097954D02*
X21390087Y21073377D01*
X21390087Y21073377D02*
X21365509Y21048799D01*
X21365509Y21048799D02*
X21340932Y20999644D01*
X21340932Y20999644D02*
X21340932Y20901334D01*
X21340932Y20901334D02*
X21365509Y20852179D01*
X21365509Y20852179D02*
X21390087Y20827602D01*
X21390087Y20827602D02*
X21439242Y20803024D01*
X21439242Y20803024D02*
X21537552Y20803024D01*
X21537552Y20803024D02*
X21586707Y20827602D01*
X21586707Y20827602D02*
X21611284Y20852179D01*
X21611284Y20852179D02*
X21635862Y20901334D01*
X21635862Y20901334D02*
X21635862Y20999644D01*
X21635862Y20999644D02*
X21611284Y21048799D01*
X21611284Y21048799D02*
X21586707Y21073377D01*
X21586707Y21073377D02*
X21537552Y21097954D01*
D14*
X27844688Y54610509D02*
X29154482Y54610509D01*
X29154482Y54610509D02*
X29308575Y54687556D01*
X29308575Y54687556D02*
X29385622Y54764602D01*
X29385622Y54764602D02*
X29462668Y54918696D01*
X29462668Y54918696D02*
X29462668Y55226882D01*
X29462668Y55226882D02*
X29385622Y55380976D01*
X29385622Y55380976D02*
X29308575Y55458022D01*
X29308575Y55458022D02*
X29154482Y55535069D01*
X29154482Y55535069D02*
X27844688Y55535069D01*
X29462668Y56305536D02*
X27844688Y56305536D01*
X27844688Y56305536D02*
X29462668Y57230096D01*
X29462668Y57230096D02*
X27844688Y57230096D01*
X29462668Y58000563D02*
X27844688Y58000563D01*
X29462668Y58925123D02*
X28538108Y58231703D01*
X27844688Y58925123D02*
X28769248Y58000563D01*
X27998782Y59541496D02*
X27921735Y59618543D01*
X27921735Y59618543D02*
X27844688Y59772636D01*
X27844688Y59772636D02*
X27844688Y60157870D01*
X27844688Y60157870D02*
X27921735Y60311963D01*
X27921735Y60311963D02*
X27998782Y60389010D01*
X27998782Y60389010D02*
X28152875Y60466056D01*
X28152875Y60466056D02*
X28306968Y60466056D01*
X28306968Y60466056D02*
X28538108Y60389010D01*
X28538108Y60389010D02*
X29462668Y59464450D01*
X29462668Y59464450D02*
X29462668Y60466056D01*
X27998782Y61082429D02*
X27921735Y61159476D01*
X27921735Y61159476D02*
X27844688Y61313569D01*
X27844688Y61313569D02*
X27844688Y61698803D01*
X27844688Y61698803D02*
X27921735Y61852896D01*
X27921735Y61852896D02*
X27998782Y61929943D01*
X27998782Y61929943D02*
X28152875Y62006989D01*
X28152875Y62006989D02*
X28306968Y62006989D01*
X28306968Y62006989D02*
X28538108Y61929943D01*
X28538108Y61929943D02*
X29462668Y61005383D01*
X29462668Y61005383D02*
X29462668Y62006989D01*
X27844688Y62469269D02*
X29462668Y63008596D01*
X29462668Y63008596D02*
X27844688Y63547922D01*
X27844688Y64395436D02*
X27844688Y64549529D01*
X27844688Y64549529D02*
X27921735Y64703622D01*
X27921735Y64703622D02*
X27998782Y64780669D01*
X27998782Y64780669D02*
X28152875Y64857716D01*
X28152875Y64857716D02*
X28461062Y64934762D01*
X28461062Y64934762D02*
X28846295Y64934762D01*
X28846295Y64934762D02*
X29154482Y64857716D01*
X29154482Y64857716D02*
X29308575Y64780669D01*
X29308575Y64780669D02*
X29385622Y64703622D01*
X29385622Y64703622D02*
X29462668Y64549529D01*
X29462668Y64549529D02*
X29462668Y64395436D01*
X29462668Y64395436D02*
X29385622Y64241342D01*
X29385622Y64241342D02*
X29308575Y64164296D01*
X29308575Y64164296D02*
X29154482Y64087249D01*
X29154482Y64087249D02*
X28846295Y64010202D01*
X28846295Y64010202D02*
X28461062Y64010202D01*
X28461062Y64010202D02*
X28152875Y64087249D01*
X28152875Y64087249D02*
X27998782Y64164296D01*
X27998782Y64164296D02*
X27921735Y64241342D01*
X27921735Y64241342D02*
X27844688Y64395436D01*
D15*
X22067066Y52510628D02*
X22121494Y52565056D01*
X22121494Y52565056D02*
X22230352Y52619485D01*
X22230352Y52619485D02*
X22502494Y52619485D01*
X22502494Y52619485D02*
X22611352Y52565056D01*
X22611352Y52565056D02*
X22665780Y52510628D01*
X22665780Y52510628D02*
X22720209Y52401771D01*
X22720209Y52401771D02*
X22720209Y52292914D01*
X22720209Y52292914D02*
X22665780Y52129628D01*
X22665780Y52129628D02*
X22012637Y51476485D01*
X22012637Y51476485D02*
X22720209Y51476485D01*
X27800209Y51476485D02*
X27147066Y51476485D01*
X27473637Y51476485D02*
X27473637Y52619485D01*
X27473637Y52619485D02*
X27364780Y52456199D01*
X27364780Y52456199D02*
X27255923Y52347342D01*
X27255923Y52347342D02*
X27147066Y52292914D01*
D13*
X11994311Y20703024D02*
X11822269Y20948799D01*
X11699381Y20703024D02*
X11699381Y21219152D01*
X11699381Y21219152D02*
X11896001Y21219152D01*
X11896001Y21219152D02*
X11945156Y21194574D01*
X11945156Y21194574D02*
X11969734Y21169997D01*
X11969734Y21169997D02*
X11994311Y21120842D01*
X11994311Y21120842D02*
X11994311Y21047109D01*
X11994311Y21047109D02*
X11969734Y20997954D01*
X11969734Y20997954D02*
X11945156Y20973377D01*
X11945156Y20973377D02*
X11896001Y20948799D01*
X11896001Y20948799D02*
X11699381Y20948799D01*
X12190932Y21169997D02*
X12215509Y21194574D01*
X12215509Y21194574D02*
X12264664Y21219152D01*
X12264664Y21219152D02*
X12387552Y21219152D01*
X12387552Y21219152D02*
X12436707Y21194574D01*
X12436707Y21194574D02*
X12461284Y21169997D01*
X12461284Y21169997D02*
X12485862Y21120842D01*
X12485862Y21120842D02*
X12485862Y21071687D01*
X12485862Y21071687D02*
X12461284Y20997954D01*
X12461284Y20997954D02*
X12166354Y20703024D01*
X12166354Y20703024D02*
X12485862Y20703024D01*
X10904311Y23503024D02*
X10732269Y23748799D01*
X10609381Y23503024D02*
X10609381Y24019152D01*
X10609381Y24019152D02*
X10806001Y24019152D01*
X10806001Y24019152D02*
X10855156Y23994574D01*
X10855156Y23994574D02*
X10879734Y23969997D01*
X10879734Y23969997D02*
X10904311Y23920842D01*
X10904311Y23920842D02*
X10904311Y23847109D01*
X10904311Y23847109D02*
X10879734Y23797954D01*
X10879734Y23797954D02*
X10855156Y23773377D01*
X10855156Y23773377D02*
X10806001Y23748799D01*
X10806001Y23748799D02*
X10609381Y23748799D01*
X11395862Y23503024D02*
X11100932Y23503024D01*
X11248397Y23503024D02*
X11248397Y24019152D01*
X11248397Y24019152D02*
X11199242Y23945419D01*
X11199242Y23945419D02*
X11150087Y23896264D01*
X11150087Y23896264D02*
X11100932Y23871687D01*
X6189311Y24417179D02*
X6164734Y24392602D01*
X6164734Y24392602D02*
X6091001Y24368024D01*
X6091001Y24368024D02*
X6041846Y24368024D01*
X6041846Y24368024D02*
X5968114Y24392602D01*
X5968114Y24392602D02*
X5918959Y24441757D01*
X5918959Y24441757D02*
X5894381Y24490912D01*
X5894381Y24490912D02*
X5869804Y24589222D01*
X5869804Y24589222D02*
X5869804Y24662954D01*
X5869804Y24662954D02*
X5894381Y24761264D01*
X5894381Y24761264D02*
X5918959Y24810419D01*
X5918959Y24810419D02*
X5968114Y24859574D01*
X5968114Y24859574D02*
X6041846Y24884152D01*
X6041846Y24884152D02*
X6091001Y24884152D01*
X6091001Y24884152D02*
X6164734Y24859574D01*
X6164734Y24859574D02*
X6189311Y24834997D01*
X6680862Y24368024D02*
X6385932Y24368024D01*
X6533397Y24368024D02*
X6533397Y24884152D01*
X6533397Y24884152D02*
X6484242Y24810419D01*
X6484242Y24810419D02*
X6435087Y24761264D01*
X6435087Y24761264D02*
X6385932Y24736687D01*
X9234311Y18472179D02*
X9209734Y18447602D01*
X9209734Y18447602D02*
X9136001Y18423024D01*
X9136001Y18423024D02*
X9086846Y18423024D01*
X9086846Y18423024D02*
X9013114Y18447602D01*
X9013114Y18447602D02*
X8963959Y18496757D01*
X8963959Y18496757D02*
X8939381Y18545912D01*
X8939381Y18545912D02*
X8914804Y18644222D01*
X8914804Y18644222D02*
X8914804Y18717954D01*
X8914804Y18717954D02*
X8939381Y18816264D01*
X8939381Y18816264D02*
X8963959Y18865419D01*
X8963959Y18865419D02*
X9013114Y18914574D01*
X9013114Y18914574D02*
X9086846Y18939152D01*
X9086846Y18939152D02*
X9136001Y18939152D01*
X9136001Y18939152D02*
X9209734Y18914574D01*
X9209734Y18914574D02*
X9234311Y18889997D01*
X9406354Y18939152D02*
X9725862Y18939152D01*
X9725862Y18939152D02*
X9553819Y18742532D01*
X9553819Y18742532D02*
X9627552Y18742532D01*
X9627552Y18742532D02*
X9676707Y18717954D01*
X9676707Y18717954D02*
X9701284Y18693377D01*
X9701284Y18693377D02*
X9725862Y18644222D01*
X9725862Y18644222D02*
X9725862Y18521334D01*
X9725862Y18521334D02*
X9701284Y18472179D01*
X9701284Y18472179D02*
X9676707Y18447602D01*
X9676707Y18447602D02*
X9627552Y18423024D01*
X9627552Y18423024D02*
X9480087Y18423024D01*
X9480087Y18423024D02*
X9430932Y18447602D01*
X9430932Y18447602D02*
X9406354Y18472179D01*
X18434311Y18803024D02*
X18262269Y19048799D01*
X18139381Y18803024D02*
X18139381Y19319152D01*
X18139381Y19319152D02*
X18336001Y19319152D01*
X18336001Y19319152D02*
X18385156Y19294574D01*
X18385156Y19294574D02*
X18409734Y19269997D01*
X18409734Y19269997D02*
X18434311Y19220842D01*
X18434311Y19220842D02*
X18434311Y19147109D01*
X18434311Y19147109D02*
X18409734Y19097954D01*
X18409734Y19097954D02*
X18385156Y19073377D01*
X18385156Y19073377D02*
X18336001Y19048799D01*
X18336001Y19048799D02*
X18139381Y19048799D01*
X18680087Y18803024D02*
X18778397Y18803024D01*
X18778397Y18803024D02*
X18827552Y18827602D01*
X18827552Y18827602D02*
X18852129Y18852179D01*
X18852129Y18852179D02*
X18901284Y18925912D01*
X18901284Y18925912D02*
X18925862Y19024222D01*
X18925862Y19024222D02*
X18925862Y19220842D01*
X18925862Y19220842D02*
X18901284Y19269997D01*
X18901284Y19269997D02*
X18876707Y19294574D01*
X18876707Y19294574D02*
X18827552Y19319152D01*
X18827552Y19319152D02*
X18729242Y19319152D01*
X18729242Y19319152D02*
X18680087Y19294574D01*
X18680087Y19294574D02*
X18655509Y19269997D01*
X18655509Y19269997D02*
X18630932Y19220842D01*
X18630932Y19220842D02*
X18630932Y19097954D01*
X18630932Y19097954D02*
X18655509Y19048799D01*
X18655509Y19048799D02*
X18680087Y19024222D01*
X18680087Y19024222D02*
X18729242Y18999644D01*
X18729242Y18999644D02*
X18827552Y18999644D01*
X18827552Y18999644D02*
X18876707Y19024222D01*
X18876707Y19024222D02*
X18901284Y19048799D01*
X18901284Y19048799D02*
X18925862Y19097954D01*
X15143645Y24909155D02*
X14971603Y25154930D01*
X14848715Y24909155D02*
X14848715Y25425283D01*
X14848715Y25425283D02*
X15045335Y25425283D01*
X15045335Y25425283D02*
X15094490Y25400705D01*
X15094490Y25400705D02*
X15119068Y25376128D01*
X15119068Y25376128D02*
X15143645Y25326973D01*
X15143645Y25326973D02*
X15143645Y25253240D01*
X15143645Y25253240D02*
X15119068Y25204085D01*
X15119068Y25204085D02*
X15094490Y25179508D01*
X15094490Y25179508D02*
X15045335Y25154930D01*
X15045335Y25154930D02*
X14848715Y25154930D01*
X15586041Y25425283D02*
X15487731Y25425283D01*
X15487731Y25425283D02*
X15438576Y25400705D01*
X15438576Y25400705D02*
X15413998Y25376128D01*
X15413998Y25376128D02*
X15364843Y25302395D01*
X15364843Y25302395D02*
X15340266Y25204085D01*
X15340266Y25204085D02*
X15340266Y25007465D01*
X15340266Y25007465D02*
X15364843Y24958310D01*
X15364843Y24958310D02*
X15389421Y24933733D01*
X15389421Y24933733D02*
X15438576Y24909155D01*
X15438576Y24909155D02*
X15536886Y24909155D01*
X15536886Y24909155D02*
X15586041Y24933733D01*
X15586041Y24933733D02*
X15610618Y24958310D01*
X15610618Y24958310D02*
X15635196Y25007465D01*
X15635196Y25007465D02*
X15635196Y25130353D01*
X15635196Y25130353D02*
X15610618Y25179508D01*
X15610618Y25179508D02*
X15586041Y25204085D01*
X15586041Y25204085D02*
X15536886Y25228663D01*
X15536886Y25228663D02*
X15438576Y25228663D01*
X15438576Y25228663D02*
X15389421Y25204085D01*
X15389421Y25204085D02*
X15364843Y25179508D01*
X15364843Y25179508D02*
X15340266Y25130353D01*
X22554311Y24203024D02*
X22382269Y24448799D01*
X22259381Y24203024D02*
X22259381Y24719152D01*
X22259381Y24719152D02*
X22456001Y24719152D01*
X22456001Y24719152D02*
X22505156Y24694574D01*
X22505156Y24694574D02*
X22529734Y24669997D01*
X22529734Y24669997D02*
X22554311Y24620842D01*
X22554311Y24620842D02*
X22554311Y24547109D01*
X22554311Y24547109D02*
X22529734Y24497954D01*
X22529734Y24497954D02*
X22505156Y24473377D01*
X22505156Y24473377D02*
X22456001Y24448799D01*
X22456001Y24448799D02*
X22259381Y24448799D01*
X22726354Y24719152D02*
X23070439Y24719152D01*
X23070439Y24719152D02*
X22849242Y24203024D01*
X23158645Y28523310D02*
X23134068Y28498733D01*
X23134068Y28498733D02*
X23060335Y28474155D01*
X23060335Y28474155D02*
X23011180Y28474155D01*
X23011180Y28474155D02*
X22937448Y28498733D01*
X22937448Y28498733D02*
X22888293Y28547888D01*
X22888293Y28547888D02*
X22863715Y28597043D01*
X22863715Y28597043D02*
X22839138Y28695353D01*
X22839138Y28695353D02*
X22839138Y28769085D01*
X22839138Y28769085D02*
X22863715Y28867395D01*
X22863715Y28867395D02*
X22888293Y28916550D01*
X22888293Y28916550D02*
X22937448Y28965705D01*
X22937448Y28965705D02*
X23011180Y28990283D01*
X23011180Y28990283D02*
X23060335Y28990283D01*
X23060335Y28990283D02*
X23134068Y28965705D01*
X23134068Y28965705D02*
X23158645Y28941128D01*
X23601041Y28818240D02*
X23601041Y28474155D01*
X23478153Y29014861D02*
X23355266Y28646198D01*
X23355266Y28646198D02*
X23674773Y28646198D01*
X11984311Y18403024D02*
X11812269Y18648799D01*
X11689381Y18403024D02*
X11689381Y18919152D01*
X11689381Y18919152D02*
X11886001Y18919152D01*
X11886001Y18919152D02*
X11935156Y18894574D01*
X11935156Y18894574D02*
X11959734Y18869997D01*
X11959734Y18869997D02*
X11984311Y18820842D01*
X11984311Y18820842D02*
X11984311Y18747109D01*
X11984311Y18747109D02*
X11959734Y18697954D01*
X11959734Y18697954D02*
X11935156Y18673377D01*
X11935156Y18673377D02*
X11886001Y18648799D01*
X11886001Y18648799D02*
X11689381Y18648799D01*
X12156354Y18919152D02*
X12475862Y18919152D01*
X12475862Y18919152D02*
X12303819Y18722532D01*
X12303819Y18722532D02*
X12377552Y18722532D01*
X12377552Y18722532D02*
X12426707Y18697954D01*
X12426707Y18697954D02*
X12451284Y18673377D01*
X12451284Y18673377D02*
X12475862Y18624222D01*
X12475862Y18624222D02*
X12475862Y18501334D01*
X12475862Y18501334D02*
X12451284Y18452179D01*
X12451284Y18452179D02*
X12426707Y18427602D01*
X12426707Y18427602D02*
X12377552Y18403024D01*
X12377552Y18403024D02*
X12230087Y18403024D01*
X12230087Y18403024D02*
X12180932Y18427602D01*
X12180932Y18427602D02*
X12156354Y18452179D01*
X9144311Y20772179D02*
X9119734Y20747602D01*
X9119734Y20747602D02*
X9046001Y20723024D01*
X9046001Y20723024D02*
X8996846Y20723024D01*
X8996846Y20723024D02*
X8923114Y20747602D01*
X8923114Y20747602D02*
X8873959Y20796757D01*
X8873959Y20796757D02*
X8849381Y20845912D01*
X8849381Y20845912D02*
X8824804Y20944222D01*
X8824804Y20944222D02*
X8824804Y21017954D01*
X8824804Y21017954D02*
X8849381Y21116264D01*
X8849381Y21116264D02*
X8873959Y21165419D01*
X8873959Y21165419D02*
X8923114Y21214574D01*
X8923114Y21214574D02*
X8996846Y21239152D01*
X8996846Y21239152D02*
X9046001Y21239152D01*
X9046001Y21239152D02*
X9119734Y21214574D01*
X9119734Y21214574D02*
X9144311Y21189997D01*
X9340932Y21189997D02*
X9365509Y21214574D01*
X9365509Y21214574D02*
X9414664Y21239152D01*
X9414664Y21239152D02*
X9537552Y21239152D01*
X9537552Y21239152D02*
X9586707Y21214574D01*
X9586707Y21214574D02*
X9611284Y21189997D01*
X9611284Y21189997D02*
X9635862Y21140842D01*
X9635862Y21140842D02*
X9635862Y21091687D01*
X9635862Y21091687D02*
X9611284Y21017954D01*
X9611284Y21017954D02*
X9316354Y20723024D01*
X9316354Y20723024D02*
X9635862Y20723024D01*
D16*
X14361242Y14814700D02*
X14361242Y14727081D01*
X14273623Y14762128D02*
X14361242Y14727081D01*
X14361242Y14727081D02*
X14448861Y14762128D01*
X14308671Y14656985D02*
X14361242Y14727081D01*
X14361242Y14727081D02*
X14413813Y14656985D01*
D13*
X25889311Y24807179D02*
X25864734Y24782602D01*
X25864734Y24782602D02*
X25791001Y24758024D01*
X25791001Y24758024D02*
X25741846Y24758024D01*
X25741846Y24758024D02*
X25668114Y24782602D01*
X25668114Y24782602D02*
X25618959Y24831757D01*
X25618959Y24831757D02*
X25594381Y24880912D01*
X25594381Y24880912D02*
X25569804Y24979222D01*
X25569804Y24979222D02*
X25569804Y25052954D01*
X25569804Y25052954D02*
X25594381Y25151264D01*
X25594381Y25151264D02*
X25618959Y25200419D01*
X25618959Y25200419D02*
X25668114Y25249574D01*
X25668114Y25249574D02*
X25741846Y25274152D01*
X25741846Y25274152D02*
X25791001Y25274152D01*
X25791001Y25274152D02*
X25864734Y25249574D01*
X25864734Y25249574D02*
X25889311Y25224997D01*
X26356284Y25274152D02*
X26110509Y25274152D01*
X26110509Y25274152D02*
X26085932Y25028377D01*
X26085932Y25028377D02*
X26110509Y25052954D01*
X26110509Y25052954D02*
X26159664Y25077532D01*
X26159664Y25077532D02*
X26282552Y25077532D01*
X26282552Y25077532D02*
X26331707Y25052954D01*
X26331707Y25052954D02*
X26356284Y25028377D01*
X26356284Y25028377D02*
X26380862Y24979222D01*
X26380862Y24979222D02*
X26380862Y24856334D01*
X26380862Y24856334D02*
X26356284Y24807179D01*
X26356284Y24807179D02*
X26331707Y24782602D01*
X26331707Y24782602D02*
X26282552Y24758024D01*
X26282552Y24758024D02*
X26159664Y24758024D01*
X26159664Y24758024D02*
X26110509Y24782602D01*
X26110509Y24782602D02*
X26085932Y24807179D01*
X18603645Y24958310D02*
X18579068Y24933733D01*
X18579068Y24933733D02*
X18505335Y24909155D01*
X18505335Y24909155D02*
X18456180Y24909155D01*
X18456180Y24909155D02*
X18382448Y24933733D01*
X18382448Y24933733D02*
X18333293Y24982888D01*
X18333293Y24982888D02*
X18308715Y25032043D01*
X18308715Y25032043D02*
X18284138Y25130353D01*
X18284138Y25130353D02*
X18284138Y25204085D01*
X18284138Y25204085D02*
X18308715Y25302395D01*
X18308715Y25302395D02*
X18333293Y25351550D01*
X18333293Y25351550D02*
X18382448Y25400705D01*
X18382448Y25400705D02*
X18456180Y25425283D01*
X18456180Y25425283D02*
X18505335Y25425283D01*
X18505335Y25425283D02*
X18579068Y25400705D01*
X18579068Y25400705D02*
X18603645Y25376128D01*
X19046041Y25425283D02*
X18947731Y25425283D01*
X18947731Y25425283D02*
X18898576Y25400705D01*
X18898576Y25400705D02*
X18873998Y25376128D01*
X18873998Y25376128D02*
X18824843Y25302395D01*
X18824843Y25302395D02*
X18800266Y25204085D01*
X18800266Y25204085D02*
X18800266Y25007465D01*
X18800266Y25007465D02*
X18824843Y24958310D01*
X18824843Y24958310D02*
X18849421Y24933733D01*
X18849421Y24933733D02*
X18898576Y24909155D01*
X18898576Y24909155D02*
X18996886Y24909155D01*
X18996886Y24909155D02*
X19046041Y24933733D01*
X19046041Y24933733D02*
X19070618Y24958310D01*
X19070618Y24958310D02*
X19095196Y25007465D01*
X19095196Y25007465D02*
X19095196Y25130353D01*
X19095196Y25130353D02*
X19070618Y25179508D01*
X19070618Y25179508D02*
X19046041Y25204085D01*
X19046041Y25204085D02*
X18996886Y25228663D01*
X18996886Y25228663D02*
X18898576Y25228663D01*
X18898576Y25228663D02*
X18849421Y25204085D01*
X18849421Y25204085D02*
X18824843Y25179508D01*
X18824843Y25179508D02*
X18800266Y25130353D01*
X18353645Y29129155D02*
X18181603Y29374930D01*
X18058715Y29129155D02*
X18058715Y29645283D01*
X18058715Y29645283D02*
X18255335Y29645283D01*
X18255335Y29645283D02*
X18304490Y29620705D01*
X18304490Y29620705D02*
X18329068Y29596128D01*
X18329068Y29596128D02*
X18353645Y29546973D01*
X18353645Y29546973D02*
X18353645Y29473240D01*
X18353645Y29473240D02*
X18329068Y29424085D01*
X18329068Y29424085D02*
X18304490Y29399508D01*
X18304490Y29399508D02*
X18255335Y29374930D01*
X18255335Y29374930D02*
X18058715Y29374930D01*
X18796041Y29473240D02*
X18796041Y29129155D01*
X18673153Y29669861D02*
X18550266Y29301198D01*
X18550266Y29301198D02*
X18869773Y29301198D01*
X24104311Y20872179D02*
X24079734Y20847602D01*
X24079734Y20847602D02*
X24006001Y20823024D01*
X24006001Y20823024D02*
X23956846Y20823024D01*
X23956846Y20823024D02*
X23883114Y20847602D01*
X23883114Y20847602D02*
X23833959Y20896757D01*
X23833959Y20896757D02*
X23809381Y20945912D01*
X23809381Y20945912D02*
X23784804Y21044222D01*
X23784804Y21044222D02*
X23784804Y21117954D01*
X23784804Y21117954D02*
X23809381Y21216264D01*
X23809381Y21216264D02*
X23833959Y21265419D01*
X23833959Y21265419D02*
X23883114Y21314574D01*
X23883114Y21314574D02*
X23956846Y21339152D01*
X23956846Y21339152D02*
X24006001Y21339152D01*
X24006001Y21339152D02*
X24079734Y21314574D01*
X24079734Y21314574D02*
X24104311Y21289997D01*
X24399242Y21117954D02*
X24350087Y21142532D01*
X24350087Y21142532D02*
X24325509Y21167109D01*
X24325509Y21167109D02*
X24300932Y21216264D01*
X24300932Y21216264D02*
X24300932Y21240842D01*
X24300932Y21240842D02*
X24325509Y21289997D01*
X24325509Y21289997D02*
X24350087Y21314574D01*
X24350087Y21314574D02*
X24399242Y21339152D01*
X24399242Y21339152D02*
X24497552Y21339152D01*
X24497552Y21339152D02*
X24546707Y21314574D01*
X24546707Y21314574D02*
X24571284Y21289997D01*
X24571284Y21289997D02*
X24595862Y21240842D01*
X24595862Y21240842D02*
X24595862Y21216264D01*
X24595862Y21216264D02*
X24571284Y21167109D01*
X24571284Y21167109D02*
X24546707Y21142532D01*
X24546707Y21142532D02*
X24497552Y21117954D01*
X24497552Y21117954D02*
X24399242Y21117954D01*
X24399242Y21117954D02*
X24350087Y21093377D01*
X24350087Y21093377D02*
X24325509Y21068799D01*
X24325509Y21068799D02*
X24300932Y21019644D01*
X24300932Y21019644D02*
X24300932Y20921334D01*
X24300932Y20921334D02*
X24325509Y20872179D01*
X24325509Y20872179D02*
X24350087Y20847602D01*
X24350087Y20847602D02*
X24399242Y20823024D01*
X24399242Y20823024D02*
X24497552Y20823024D01*
X24497552Y20823024D02*
X24546707Y20847602D01*
X24546707Y20847602D02*
X24571284Y20872179D01*
X24571284Y20872179D02*
X24595862Y20921334D01*
X24595862Y20921334D02*
X24595862Y21019644D01*
X24595862Y21019644D02*
X24571284Y21068799D01*
X24571284Y21068799D02*
X24546707Y21093377D01*
X24546707Y21093377D02*
X24497552Y21117954D01*
X21094311Y18872179D02*
X21069734Y18847602D01*
X21069734Y18847602D02*
X20996001Y18823024D01*
X20996001Y18823024D02*
X20946846Y18823024D01*
X20946846Y18823024D02*
X20873114Y18847602D01*
X20873114Y18847602D02*
X20823959Y18896757D01*
X20823959Y18896757D02*
X20799381Y18945912D01*
X20799381Y18945912D02*
X20774804Y19044222D01*
X20774804Y19044222D02*
X20774804Y19117954D01*
X20774804Y19117954D02*
X20799381Y19216264D01*
X20799381Y19216264D02*
X20823959Y19265419D01*
X20823959Y19265419D02*
X20873114Y19314574D01*
X20873114Y19314574D02*
X20946846Y19339152D01*
X20946846Y19339152D02*
X20996001Y19339152D01*
X20996001Y19339152D02*
X21069734Y19314574D01*
X21069734Y19314574D02*
X21094311Y19289997D01*
X21340087Y18823024D02*
X21438397Y18823024D01*
X21438397Y18823024D02*
X21487552Y18847602D01*
X21487552Y18847602D02*
X21512129Y18872179D01*
X21512129Y18872179D02*
X21561284Y18945912D01*
X21561284Y18945912D02*
X21585862Y19044222D01*
X21585862Y19044222D02*
X21585862Y19240842D01*
X21585862Y19240842D02*
X21561284Y19289997D01*
X21561284Y19289997D02*
X21536707Y19314574D01*
X21536707Y19314574D02*
X21487552Y19339152D01*
X21487552Y19339152D02*
X21389242Y19339152D01*
X21389242Y19339152D02*
X21340087Y19314574D01*
X21340087Y19314574D02*
X21315509Y19289997D01*
X21315509Y19289997D02*
X21290932Y19240842D01*
X21290932Y19240842D02*
X21290932Y19117954D01*
X21290932Y19117954D02*
X21315509Y19068799D01*
X21315509Y19068799D02*
X21340087Y19044222D01*
X21340087Y19044222D02*
X21389242Y19019644D01*
X21389242Y19019644D02*
X21487552Y19019644D01*
X21487552Y19019644D02*
X21536707Y19044222D01*
X21536707Y19044222D02*
X21561284Y19068799D01*
X21561284Y19068799D02*
X21585862Y19117954D01*
X14370844Y21513645D02*
X14125069Y21341603D01*
X14370844Y21218715D02*
X13854716Y21218715D01*
X13854716Y21218715D02*
X13854716Y21415335D01*
X13854716Y21415335D02*
X13879294Y21464490D01*
X13879294Y21464490D02*
X13903871Y21489068D01*
X13903871Y21489068D02*
X13953026Y21513645D01*
X13953026Y21513645D02*
X14026759Y21513645D01*
X14026759Y21513645D02*
X14075914Y21489068D01*
X14075914Y21489068D02*
X14100491Y21464490D01*
X14100491Y21464490D02*
X14125069Y21415335D01*
X14125069Y21415335D02*
X14125069Y21218715D01*
X13854716Y21980618D02*
X13854716Y21734843D01*
X13854716Y21734843D02*
X14100491Y21710266D01*
X14100491Y21710266D02*
X14075914Y21734843D01*
X14075914Y21734843D02*
X14051336Y21783998D01*
X14051336Y21783998D02*
X14051336Y21906886D01*
X14051336Y21906886D02*
X14075914Y21956041D01*
X14075914Y21956041D02*
X14100491Y21980618D01*
X14100491Y21980618D02*
X14149646Y22005196D01*
X14149646Y22005196D02*
X14272534Y22005196D01*
X14272534Y22005196D02*
X14321689Y21980618D01*
X14321689Y21980618D02*
X14346267Y21956041D01*
X14346267Y21956041D02*
X14370844Y21906886D01*
X14370844Y21906886D02*
X14370844Y21783998D01*
X14370844Y21783998D02*
X14346267Y21734843D01*
X14346267Y21734843D02*
X14321689Y21710266D01*
X16313645Y24208310D02*
X16289068Y24183733D01*
X16289068Y24183733D02*
X16215335Y24159155D01*
X16215335Y24159155D02*
X16166180Y24159155D01*
X16166180Y24159155D02*
X16092448Y24183733D01*
X16092448Y24183733D02*
X16043293Y24232888D01*
X16043293Y24232888D02*
X16018715Y24282043D01*
X16018715Y24282043D02*
X15994138Y24380353D01*
X15994138Y24380353D02*
X15994138Y24454085D01*
X15994138Y24454085D02*
X16018715Y24552395D01*
X16018715Y24552395D02*
X16043293Y24601550D01*
X16043293Y24601550D02*
X16092448Y24650705D01*
X16092448Y24650705D02*
X16166180Y24675283D01*
X16166180Y24675283D02*
X16215335Y24675283D01*
X16215335Y24675283D02*
X16289068Y24650705D01*
X16289068Y24650705D02*
X16313645Y24626128D01*
X16485688Y24675283D02*
X16829773Y24675283D01*
X16829773Y24675283D02*
X16608576Y24159155D01*
%TO.C,R10*%
D17*
X22663200Y39225000D02*
X22663200Y37955000D01*
X27336800Y37955000D02*
X27336800Y39225000D01*
%TO.C,UNK22V0*%
X16762000Y58061000D02*
X17270000Y57807000D01*
X16762000Y56410000D02*
X16762000Y58061000D01*
X16762000Y56410000D02*
X17270000Y56664000D01*
X16762000Y51203000D02*
X17270000Y50949000D01*
X16762000Y46377000D02*
X16762000Y51203000D01*
X17270000Y57807000D02*
X17270000Y58823000D01*
X17270000Y56664000D02*
X17270000Y57807000D01*
X17270000Y51965000D02*
X17270000Y56664000D01*
X17270000Y51965000D02*
X18209800Y51965000D01*
X17270000Y50949000D02*
X17270000Y51965000D01*
X17270000Y49425000D02*
X17270000Y50949000D01*
X17270000Y46377000D02*
X16762000Y46377000D01*
X17270000Y46377000D02*
X17270000Y49425000D01*
X17270000Y46377000D02*
X27430000Y46377000D01*
X17828800Y58823000D02*
X17270000Y58823000D01*
X17828800Y56918000D02*
X17828800Y58823000D01*
X17828800Y52346000D02*
X17828800Y56918000D01*
X17828800Y52346000D02*
X18209800Y52346000D01*
X17828800Y49171000D02*
X21892800Y49171000D01*
X17828800Y46631000D02*
X17828800Y49171000D01*
X18209800Y56283000D02*
X18209800Y53108000D01*
X18209800Y56283000D02*
X21511800Y56283000D01*
X21359400Y48282000D02*
X18311400Y47647000D01*
X21486400Y48155000D02*
X18438400Y47520000D01*
X21511800Y56283000D02*
X21511800Y53108000D01*
X21892800Y58823000D02*
X17828800Y58823000D01*
X21892800Y58823000D02*
X21892800Y56918000D01*
X21892800Y56918000D02*
X17828800Y56918000D01*
X21892800Y56918000D02*
X21892800Y52346000D01*
X21892800Y52346000D02*
X21511800Y52346000D01*
X21892800Y49171000D02*
X21892800Y46631000D01*
X21892800Y46631000D02*
X17828800Y46631000D01*
X22832600Y58823000D02*
X21892800Y58823000D01*
X22832600Y58823000D02*
X22832600Y56918000D01*
X22832600Y56918000D02*
X22832600Y52346000D01*
X22832600Y56918000D02*
X26896600Y56918000D01*
X22832600Y52346000D02*
X23213600Y52346000D01*
X22832600Y49171000D02*
X22832600Y46631000D01*
X22832600Y49171000D02*
X26896600Y49171000D01*
X22832600Y46631000D02*
X26896600Y46631000D01*
X23213600Y56283000D02*
X23213600Y53108000D01*
X23213600Y56283000D02*
X26515600Y56283000D01*
X23213600Y51965000D02*
X21511800Y51965000D01*
X26363200Y48282000D02*
X23315200Y47647000D01*
X26490200Y48155000D02*
X23442200Y47520000D01*
X26515600Y56283000D02*
X26515600Y53108000D01*
X26896600Y58823000D02*
X22832600Y58823000D01*
X26896600Y56918000D02*
X26896600Y58823000D01*
X26896600Y52346000D02*
X26515600Y52346000D01*
X26896600Y52346000D02*
X26896600Y56918000D01*
X26896600Y49171000D02*
X26896600Y46631000D01*
X27430000Y58823000D02*
X26896600Y58823000D01*
X27430000Y58823000D02*
X27430000Y51965000D01*
X27430000Y51965000D02*
X26515600Y51965000D01*
X27430000Y51965000D02*
X27430000Y49425000D01*
X27430000Y49425000D02*
X17270000Y49425000D01*
X27430000Y49425000D02*
X27430000Y46377000D01*
X18336900Y47545500D02*
G75*
G02*
X18392603Y48515097I507900J457220D01*
G01*
X18346200Y48481099D02*
G75*
G02*
X21334000Y48434400I1463760J-1951699D01*
G01*
X21291902Y48470300D02*
G75*
G02*
X21435600Y47545400I-288101J-518374D01*
G01*
X21486400Y47596200D02*
G75*
G02*
X18332201Y47541403I-1600080J1295400D01*
G01*
X23340699Y47545501D02*
G75*
G02*
X23396400Y48515100I507898J457222D01*
G01*
X23350001Y48481201D02*
G75*
G02*
X26337800Y48434400I1463693J-1951798D01*
G01*
X26295701Y48470301D02*
G75*
G02*
X26439400Y47545400I-288100J-518375D01*
G01*
X26490200Y47596200D02*
G75*
G02*
X23335799Y47541199I-1600267J1295399D01*
G01*
%TO.C,J1*%
D18*
X5053000Y13370000D02*
X5050000Y10370000D01*
X6550000Y14867000D02*
X9550000Y14867000D01*
X6550000Y8870000D02*
X9550000Y8873000D01*
D19*
X8050000Y15670000D02*
X8050000Y15670000D01*
X8050000Y15570000D02*
X8050000Y15570000D01*
D18*
X11047000Y13370000D02*
X11047000Y10370000D01*
D19*
X8050000Y15670000D02*
G75*
G02*
X8050000Y15570000I0J-50000D01*
G01*
X8050000Y15570000D02*
G75*
G02*
X8050000Y15670000I0J50000D01*
G01*
%TO.C,X2*%
D20*
X5625000Y32120000D02*
X10070000Y32120000D01*
X5625000Y27040000D02*
X5625000Y32120000D01*
X10070000Y32120000D02*
X10070000Y27040000D01*
X10070000Y32120000D02*
X11975000Y32120000D01*
X10070000Y27040000D02*
X5625000Y27040000D01*
X11975000Y32120000D02*
X11975000Y27040000D01*
X11975000Y27040000D02*
X10070000Y27040000D01*
%TO.C,J2*%
D18*
X21270000Y13370000D02*
X21273000Y10370000D01*
X25770000Y14867000D02*
X22770000Y14870000D01*
X25770000Y8873000D02*
X22770000Y8873000D01*
X27267000Y13370000D02*
X27267000Y10370000D01*
D19*
X27970000Y11870000D02*
X27970000Y11870000D01*
X28070000Y11870000D02*
X28070000Y11870000D01*
X27970000Y11870000D02*
G75*
G02*
X28070000Y11870000I50000J0D01*
G01*
X28070000Y11870000D02*
G75*
G02*
X27970000Y11870000I-50000J0D01*
G01*
%TO.C,X3*%
D20*
X12625000Y44910000D02*
X17070000Y44910000D01*
X12625000Y37290000D02*
X12625000Y44910000D01*
X17070000Y44910000D02*
X17070000Y37290000D01*
X17070000Y44910000D02*
X18975000Y44910000D01*
X17070000Y37290000D02*
X12625000Y37290000D01*
X18975000Y44910000D02*
X18975000Y37290000D01*
X18975000Y37290000D02*
X17070000Y37290000D01*
%TD*%
%LPC*%
D21*
%TO.C,UNK_HOLE_5*%
X2600000Y38000000D03*
%TD*%
D22*
%TO.C,R10*%
X25000000Y36177000D03*
X25000000Y41003000D03*
%TD*%
D23*
%TO.C,R8*%
X20800000Y20100000D03*
X21800000Y20100000D03*
%TD*%
D24*
%TO.C,UNK22V0*%
X24864600Y52600000D03*
X19860800Y52600000D03*
%TD*%
D21*
%TO.C,UNK_HOLE_3*%
X32400000Y2600000D03*
%TD*%
D23*
%TO.C,R2*%
X11650000Y20000000D03*
X12650000Y20000000D03*
%TD*%
%TO.C,R1*%
X10560000Y22800000D03*
X11560000Y22800000D03*
%TD*%
D25*
%TO.C,C1*%
X5580000Y23030000D03*
X8380000Y23030000D03*
%TD*%
D26*
%TO.C,J1*%
X8050000Y11870000D03*
D27*
X5510000Y14410000D03*
X5510000Y9330000D03*
X10590000Y9330000D03*
X10590000Y14410000D03*
%TD*%
D28*
%TO.C,C3*%
X8740000Y17720000D03*
X10040000Y17720000D03*
%TD*%
D23*
%TO.C,R9*%
X18090000Y18100000D03*
X19090000Y18100000D03*
%TD*%
D29*
%TO.C,X2*%
X8800000Y30850000D03*
X8800000Y28310000D03*
%TD*%
D30*
%TO.C,R6*%
X16010000Y26080000D03*
X14310000Y26080000D03*
%TD*%
D23*
%TO.C,R7*%
X22210000Y23500000D03*
X23210000Y23500000D03*
%TD*%
D31*
%TO.C,C4*%
X23940000Y30280000D03*
X21140000Y30280000D03*
%TD*%
D21*
%TO.C,UNK_HOLE_2*%
X32400000Y57400000D03*
%TD*%
%TO.C,UNK_HOLE_4*%
X17500000Y2600000D03*
%TD*%
%TO.C,UNK_HOLE_6*%
X32400000Y38000000D03*
%TD*%
D23*
%TO.C,R3*%
X11640000Y17700000D03*
X12640000Y17700000D03*
%TD*%
D28*
%TO.C,C2*%
X8650000Y20020000D03*
X9950000Y20020000D03*
%TD*%
D21*
%TO.C,UNK_HOLE_0*%
X2600000Y2600000D03*
%TD*%
D32*
%TO.C,U$1*%
X13972500Y11935000D03*
X18427500Y11935000D03*
D33*
X15240000Y15627500D03*
D34*
X17455000Y15627500D03*
D33*
X14720000Y15627500D03*
%TD*%
D25*
%TO.C,C5*%
X25280000Y23420000D03*
X28080000Y23420000D03*
%TD*%
D35*
%TO.C,J2*%
X24270000Y11870000D03*
D27*
X26810000Y14410000D03*
X21730000Y14410000D03*
X21730000Y9330000D03*
X26810000Y9330000D03*
%TD*%
D36*
%TO.C,C6*%
X19270000Y26080000D03*
X17970000Y26080000D03*
%TD*%
D37*
%TO.C,R4*%
X18870000Y30300000D03*
X17870000Y30300000D03*
%TD*%
D28*
%TO.C,C8*%
X23610000Y20120000D03*
X24910000Y20120000D03*
%TD*%
D29*
%TO.C,X3*%
X15800000Y43640000D03*
X15800000Y41100000D03*
X15800000Y38560000D03*
%TD*%
D28*
%TO.C,C9*%
X20600000Y18120000D03*
X21900000Y18120000D03*
%TD*%
D38*
%TO.C,R5*%
X15000000Y21880000D03*
X15000000Y20880000D03*
%TD*%
D36*
%TO.C,C7*%
X16280000Y23380000D03*
X14980000Y23380000D03*
%TD*%
D21*
%TO.C,UNK_HOLE_1*%
X2600000Y57400000D03*
%TD*%
G36*
X18717971Y13092971D02*
G01*
X18725000Y13076000D01*
X18725000Y13050001D01*
X18725001Y13050000D01*
X26026000Y13050000D01*
X26042971Y13042971D01*
X26050000Y13026000D01*
X26050000Y10474000D01*
X26042971Y10457029D01*
X26026000Y10450000D01*
X6974000Y10450000D01*
X6957029Y10457029D01*
X6950000Y10474000D01*
X6950000Y13026000D01*
X6957029Y13042971D01*
X6974000Y13050000D01*
X13674999Y13050000D01*
X13675000Y13050001D01*
X13675000Y13076000D01*
X13682029Y13092971D01*
X13699000Y13100000D01*
X18701000Y13100000D01*
X18717971Y13092971D01*
G37*
G36*
X18721632Y15921632D02*
G01*
X18725000Y15913500D01*
X18725000Y13050001D01*
X18725001Y13050000D01*
X18738500Y13050000D01*
X18746632Y13046632D01*
X18750000Y13038500D01*
X18750000Y10877288D01*
X18749124Y10872887D01*
X18744499Y10861723D01*
X18738276Y10855499D01*
X18727113Y10850875D01*
X18722712Y10850000D01*
X13677288Y10850000D01*
X13672887Y10850875D01*
X13661723Y10855499D01*
X13655499Y10861723D01*
X13650875Y10872887D01*
X13650000Y10877288D01*
X13650000Y13038500D01*
X13653368Y13046632D01*
X13661500Y13050000D01*
X13674999Y13050000D01*
X13675000Y13050001D01*
X13675000Y15913500D01*
X13678368Y15921632D01*
X13686500Y15925000D01*
X18713500Y15925000D01*
X18721632Y15921632D01*
G37*
%LPD*%
M02*
