%TF.GenerationSoftware,KiCad,Pcbnew,10.0.6*%
%TF.CreationDate,2026-10-09T14:03:56+03:00*%
%TF.ProjectId,FREQUENCY_SYNTHESIZER,46524551-5545-44e4-9359-5f53594e5448,rev?*%
%TF.SameCoordinates,Original*%
%TF.FileFunction,Copper,L1,Top*%
%TF.FilePolarity,Positive*%
%FSLAX46Y46*%
G04 Gerber Fmt 4.6, Leading zero omitted, Abs format (unit mm)*
G04 Created by KiCad (PCBNEW 10.0.6) date 2026-10-09 14:03:56*
%MOMM*%
%LPD*%
G01*
G04 APERTURE LIST*
G04 Aperture macros list*
%AMRoundRect*
0 Rectangle with rounded corners*
0 $1 Rounding radius*
0 $2 $3 $4 $5 $6 $7 $8 $9 X,Y pos of 4 corners*
0 Add a 4 corners polygon primitive as box body*
4,1,4,$2,$3,$4,$5,$6,$7,$8,$9,$2,$3,0*
0 Add four circle primitives for the rounded corners*
1,1,$1+$1,$2,$3*
1,1,$1+$1,$4,$5*
1,1,$1+$1,$6,$7*
1,1,$1+$1,$8,$9*
0 Add four rect primitives between the rounded corners*
20,1,$1+$1,$2,$3,$4,$5,0*
20,1,$1+$1,$4,$5,$6,$7,0*
20,1,$1+$1,$6,$7,$8,$9,0*
20,1,$1+$1,$8,$9,$2,$3,0*%
%AMRotRect*
0 Rectangle, with rotation*
0 The origin of the aperture is its center*
0 $1 length*
0 $2 width*
0 $3 Rotation angle, in degrees counterclockwise*
0 Add horizontal line*
21,1,$1,$2,0,0,$3*%
%AMOutline5P*
0 Free polygon, 5 corners , with rotation*
0 The origin of the aperture is its center*
0 number of corners: always 5*
0 $1 to $10 corner X, Y*
0 $11 Rotation angle, in degrees counterclockwise*
0 create outline with 5 corners*
4,1,5,$1,$2,$3,$4,$5,$6,$7,$8,$9,$10,$1,$2,$11*%
%AMOutline6P*
0 Free polygon, 6 corners , with rotation*
0 The origin of the aperture is its center*
0 number of corners: always 6*
0 $1 to $12 corner X, Y*
0 $13 Rotation angle, in degrees counterclockwise*
0 create outline with 6 corners*
4,1,6,$1,$2,$3,$4,$5,$6,$7,$8,$9,$10,$11,$12,$1,$2,$13*%
%AMOutline7P*
0 Free polygon, 7 corners , with rotation*
0 The origin of the aperture is its center*
0 number of corners: always 7*
0 $1 to $14 corner X, Y*
0 $15 Rotation angle, in degrees counterclockwise*
0 create outline with 7 corners*
4,1,7,$1,$2,$3,$4,$5,$6,$7,$8,$9,$10,$11,$12,$13,$14,$1,$2,$15*%
%AMOutline8P*
0 Free polygon, 8 corners , with rotation*
0 The origin of the aperture is its center*
0 number of corners: always 8*
0 $1 to $16 corner X, Y*
0 $17 Rotation angle, in degrees counterclockwise*
0 create outline with 8 corners*
4,1,8,$1,$2,$3,$4,$5,$6,$7,$8,$9,$10,$11,$12,$13,$14,$15,$16,$1,$2,$17*%
G04 Aperture macros list end*
%TA.AperFunction,SMDPad,CuDef*%
%ADD10R,0.430000X0.280000*%
%TD*%
%TA.AperFunction,SMDPad,CuDef*%
%ADD11R,0.280000X0.430000*%
%TD*%
%TA.AperFunction,SMDPad,CuDef*%
%ADD12R,0.250000X0.350000*%
%TD*%
%TA.AperFunction,SMDPad,CuDef*%
%ADD13RoundRect,0.150000X-0.350000X-0.350000X0.350000X-0.350000X0.350000X0.350000X-0.350000X0.350000X0*%
%TD*%
%TA.AperFunction,SMDPad,CuDef*%
%ADD14R,0.350000X0.250000*%
%TD*%
%TA.AperFunction,SMDPad,CuDef*%
%ADD15R,2.700000X1.600000*%
%TD*%
%TA.AperFunction,SMDPad,CuDef*%
%ADD16R,0.177800X0.711200*%
%TD*%
%TA.AperFunction,SMDPad,CuDef*%
%ADD17R,0.711200X0.177800*%
%TD*%
%TA.AperFunction,SMDPad,CuDef*%
%ADD18R,1.447800X1.447800*%
%TD*%
%TA.AperFunction,SMDPad,CuDef*%
%ADD19R,4.000000X1.800000*%
%TD*%
%TA.AperFunction,SMDPad,CuDef*%
%ADD20RotRect,0.177800X0.711200X135.000000*%
%TD*%
%TA.AperFunction,SMDPad,CuDef*%
%ADD21RotRect,0.177800X0.711200X45.000000*%
%TD*%
%TA.AperFunction,SMDPad,CuDef*%
%ADD22RotRect,1.447800X1.447800X225.000000*%
%TD*%
%TA.AperFunction,SMDPad,CuDef*%
%ADD23R,1.600000X2.700000*%
%TD*%
%TA.AperFunction,SMDPad,CuDef*%
%ADD24RoundRect,0.279500X-0.000010X-0.000010X0.000010X-0.000010X0.000010X0.000010X-0.000010X0.000010X0*%
%TD*%
%TA.AperFunction,ComponentPad*%
%ADD25C,1.791000*%
%TD*%
%TA.AperFunction,SMDPad,CuDef*%
%ADD26R,1.800000X4.000000*%
%TD*%
%TA.AperFunction,ComponentPad*%
%ADD27C,1.143000*%
%TD*%
%TA.AperFunction,ComponentPad*%
%ADD28C,1.346200*%
%TD*%
%TA.AperFunction,ComponentPad*%
%ADD29O,1.500000X3.000000*%
%TD*%
%TA.AperFunction,SMDPad,CuDef*%
%ADD30R,0.900000X0.700000*%
%TD*%
%TA.AperFunction,SMDPad,CuDef*%
%ADD31RoundRect,0.279500X0.000010X0.000010X-0.000010X0.000010X-0.000010X-0.000010X0.000010X-0.000010X0*%
%TD*%
%TA.AperFunction,SMDPad,CuDef*%
%ADD32R,0.203200X0.355600*%
%TD*%
%TA.AperFunction,SMDPad,CuDef*%
%ADD33R,0.355600X0.660400*%
%TD*%
%TA.AperFunction,SMDPad,CuDef*%
%ADD34R,0.840000X0.930000*%
%TD*%
%TA.AperFunction,SMDPad,CuDef*%
%ADD35R,0.965200X2.082800*%
%TD*%
%TA.AperFunction,ComponentPad*%
%ADD36O,3.000000X1.500000*%
%TD*%
%TA.AperFunction,ComponentPad*%
%ADD37Outline8P,-0.762000X0.315631X-0.315631X0.762000X0.315631X0.762000X0.762000X0.315631X0.762000X-0.315631X0.315631X-0.762000X-0.315631X-0.762000X-0.762000X-0.315631X180.000000*%
%TD*%
%TA.AperFunction,SMDPad,CuDef*%
%ADD38R,0.457200X0.254000*%
%TD*%
%TA.AperFunction,SMDPad,CuDef*%
%ADD39R,0.254000X0.457200*%
%TD*%
%TA.AperFunction,SMDPad,CuDef*%
%ADD40R,2.387600X2.387600*%
%TD*%
%TA.AperFunction,SMDPad,CuDef*%
%ADD41RoundRect,0.279500X0.000000X-0.000014X0.000014X0.000000X0.000000X0.000014X-0.000014X0.000000X0*%
%TD*%
%TA.AperFunction,SMDPad,CuDef*%
%ADD42RotRect,0.203200X0.355600X135.000000*%
%TD*%
%TA.AperFunction,SMDPad,CuDef*%
%ADD43RotRect,0.355600X0.660400X135.000000*%
%TD*%
%TA.AperFunction,SMDPad,CuDef*%
%ADD44RoundRect,0.279500X0.000010X-0.000010X0.000010X0.000010X-0.000010X0.000010X-0.000010X-0.000010X0*%
%TD*%
%TA.AperFunction,ComponentPad*%
%ADD45Outline8P,-0.762000X0.315631X-0.315631X0.762000X0.315631X0.762000X0.762000X0.315631X0.762000X-0.315631X0.315631X-0.762000X-0.315631X-0.762000X-0.762000X-0.315631X90.000000*%
%TD*%
%TA.AperFunction,SMDPad,CuDef*%
%ADD46R,0.930000X0.840000*%
%TD*%
%TA.AperFunction,SMDPad,CuDef*%
%ADD47R,0.812800X0.304800*%
%TD*%
%TA.AperFunction,SMDPad,CuDef*%
%ADD48R,0.304800X0.812800*%
%TD*%
%TA.AperFunction,SMDPad,CuDef*%
%ADD49R,8.356600X8.356600*%
%TD*%
%TA.AperFunction,SMDPad,CuDef*%
%ADD50R,0.700000X0.900000*%
%TD*%
%TA.AperFunction,SMDPad,CuDef*%
%ADD51R,3.556000X3.302000*%
%TD*%
%TA.AperFunction,ViaPad*%
%ADD52C,0.350000*%
%TD*%
%TA.AperFunction,ViaPad*%
%ADD53C,0.500000*%
%TD*%
%TA.AperFunction,ViaPad*%
%ADD54C,1.500000*%
%TD*%
%TA.AperFunction,ViaPad*%
%ADD55C,0.750000*%
%TD*%
%TA.AperFunction,ViaPad*%
%ADD56C,0.450000*%
%TD*%
%TA.AperFunction,ViaPad*%
%ADD57C,0.400000*%
%TD*%
%TA.AperFunction,ViaPad*%
%ADD58C,3.000000*%
%TD*%
%TA.AperFunction,Conductor*%
%ADD59C,0.300000*%
%TD*%
%TA.AperFunction,Conductor*%
%ADD60C,0.220000*%
%TD*%
%TA.AperFunction,Conductor*%
%ADD61C,0.200000*%
%TD*%
%TA.AperFunction,Conductor*%
%ADD62C,0.500000*%
%TD*%
%TA.AperFunction,Conductor*%
%ADD63C,0.350000*%
%TD*%
%TA.AperFunction,Conductor*%
%ADD64C,0.152400*%
%TD*%
%TA.AperFunction,Conductor*%
%ADD65C,2.000000*%
%TD*%
%TA.AperFunction,Conductor*%
%ADD66C,4.000000*%
%TD*%
%TA.AperFunction,Conductor*%
%ADD67C,0.204000*%
%TD*%
%TA.AperFunction,Conductor*%
%ADD68C,0.150000*%
%TD*%
%TA.AperFunction,Conductor*%
%ADD69C,0.400000*%
%TD*%
G04 APERTURE END LIST*
D10*
%TO.P,R3,1*%
%TO.N,GND*%
X7380000Y59975000D03*
%TO.P,R3,2*%
%TO.N,N$1*%
X7380000Y59465000D03*
%TD*%
D11*
%TO.P,R13,1*%
%TO.N,ADF4382_TX_SYNC_P*%
X44855000Y51070000D03*
%TO.P,R13,2*%
%TO.N,ADF4382_TX_SYNC_N*%
X45365000Y51070000D03*
%TD*%
D12*
%TO.P,C10,1*%
%TO.N,GND*%
X48380000Y39420000D03*
%TO.P,C10,2*%
%TO.N,N$11*%
X48880000Y39420000D03*
%TD*%
D13*
%TO.P,D1,A*%
%TO.N,N$36*%
X41750000Y59003000D03*
%TO.P,D1,C*%
%TO.N,GND*%
X41750000Y60757000D03*
%TD*%
D10*
%TO.P,R14,1*%
%TO.N,N$18*%
X51740000Y56425000D03*
%TO.P,R14,2*%
%TO.N,N$19*%
X51740000Y55915000D03*
%TD*%
D11*
%TO.P,R32,1*%
%TO.N,N$44*%
X65205000Y50900000D03*
%TO.P,R32,2*%
%TO.N,N$48*%
X65715000Y50900000D03*
%TD*%
D12*
%TO.P,C75,1*%
%TO.N,+3V3_LO_2*%
X64970000Y59830000D03*
%TO.P,C75,2*%
%TO.N,GND*%
X64470000Y59830000D03*
%TD*%
D10*
%TO.P,R23,1*%
%TO.N,GND*%
X41340000Y55475000D03*
%TO.P,R23,2*%
%TO.N,ADF4382_TX_DELSTR*%
X41340000Y55985000D03*
%TD*%
D14*
%TO.P,C74,1*%
%TO.N,+3V3_LO_2*%
X66040000Y57360000D03*
%TO.P,C74,2*%
%TO.N,GND*%
X66040000Y57860000D03*
%TD*%
D12*
%TO.P,C4,1*%
%TO.N,GND*%
X49230000Y43390000D03*
%TO.P,C4,2*%
%TO.N,N$5*%
X49730000Y43390000D03*
%TD*%
D15*
%TO.P,C25,1*%
%TO.N,N$71*%
X35400000Y6300000D03*
%TO.P,C25,2*%
%TO.N,GND*%
X35400000Y3500000D03*
%TD*%
D12*
%TO.P,C8,1*%
%TO.N,N$9*%
X49260000Y39870000D03*
%TO.P,C8,2*%
%TO.N,N$8*%
X49760000Y39870000D03*
%TD*%
D16*
%TO.P,U3,1*%
%TO.N,GND*%
X53418000Y65827800D03*
%TO.P,U3,2*%
%TO.N,N$34*%
X52910000Y65827800D03*
%TO.P,U3,3*%
%TO.N,GND*%
X52402000Y65827800D03*
D17*
%TO.P,U3,4*%
%TO.N,N/C*%
X51462200Y64888000D03*
%TO.P,U3,5*%
X51462200Y64380000D03*
%TO.P,U3,6*%
%TO.N,GND*%
X51462200Y63872000D03*
D16*
%TO.P,U3,7*%
%TO.N,N$32*%
X52402000Y62932200D03*
%TO.P,U3,8*%
%TO.N,N/C*%
X52910000Y62932200D03*
%TO.P,U3,9*%
%TO.N,N$33*%
X53418000Y62932200D03*
D17*
%TO.P,U3,10*%
%TO.N,GND*%
X54357800Y63872000D03*
%TO.P,U3,11*%
%TO.N,N/C*%
X54357800Y64380000D03*
%TO.P,U3,12*%
X54357800Y64888000D03*
D18*
%TO.P,U3,13*%
%TO.N,GND*%
X52910000Y64380000D03*
%TD*%
D14*
%TO.P,C90,1*%
%TO.N,RX_RFOUT_2_N*%
X63470000Y59660000D03*
%TO.P,C90,2*%
%TO.N,N$57*%
X63470000Y60160000D03*
%TD*%
D19*
%TO.P,L12,1*%
%TO.N,+3V3_LO_1*%
X22200000Y88500000D03*
%TO.P,L12,2*%
%TO.N,N$75*%
X22200000Y93500000D03*
%TD*%
D20*
%TO.P,U9,1*%
%TO.N,GND*%
X69292959Y66284539D03*
%TO.P,U9,2*%
%TO.N,N$58*%
X68933749Y66643749D03*
%TO.P,U9,3*%
%TO.N,GND*%
X68574539Y67002959D03*
D21*
%TO.P,U9,4*%
%TO.N,N/C*%
X67245461Y67002959D03*
%TO.P,U9,5*%
X66886251Y66643749D03*
%TO.P,U9,6*%
%TO.N,GND*%
X66527041Y66284539D03*
D20*
%TO.P,U9,7*%
%TO.N,N$56*%
X66527041Y64955461D03*
%TO.P,U9,8*%
%TO.N,N/C*%
X66886251Y64596251D03*
%TO.P,U9,9*%
%TO.N,N$57*%
X67245461Y64237041D03*
D21*
%TO.P,U9,10*%
%TO.N,GND*%
X68574539Y64237041D03*
%TO.P,U9,11*%
%TO.N,N/C*%
X68933749Y64596251D03*
%TO.P,U9,12*%
X69292959Y64955461D03*
D22*
%TO.P,U9,13*%
%TO.N,GND*%
X67910000Y65620000D03*
%TD*%
D12*
%TO.P,C40,1*%
%TO.N,+3V3_LO_1*%
X45860000Y50520000D03*
%TO.P,C40,2*%
%TO.N,GND*%
X46360000Y50520000D03*
%TD*%
D19*
%TO.P,L13,1*%
%TO.N,+3V3_LO_2*%
X29600000Y90200000D03*
%TO.P,L13,2*%
%TO.N,N$77*%
X29600000Y95200000D03*
%TD*%
D11*
%TO.P,R5,1*%
%TO.N,N$9*%
X47765000Y38160000D03*
%TO.P,R5,2*%
%TO.N,N$10*%
X48275000Y38160000D03*
%TD*%
D14*
%TO.P,C87,1*%
%TO.N,RX_RFOUT_1_N*%
X60940000Y60750000D03*
%TO.P,C87,2*%
%TO.N,N$53*%
X60940000Y61250000D03*
%TD*%
D12*
%TO.P,C77,1*%
%TO.N,+3V3_LO_1*%
X56870000Y55380000D03*
%TO.P,C77,2*%
%TO.N,GND*%
X56370000Y55380000D03*
%TD*%
%TO.P,C3,1*%
%TO.N,GND*%
X49210000Y45720000D03*
%TO.P,C3,2*%
%TO.N,N$3*%
X49710000Y45720000D03*
%TD*%
D23*
%TO.P,C45,1*%
%TO.N,+3V3_LO_1*%
X20800000Y85700000D03*
%TO.P,C45,2*%
%TO.N,GND*%
X18000000Y85700000D03*
%TD*%
D12*
%TO.P,C56,1*%
%TO.N,+3V3_LO_2*%
X52110000Y59440000D03*
%TO.P,C56,2*%
%TO.N,GND*%
X51610000Y59440000D03*
%TD*%
D14*
%TO.P,C59,1*%
%TO.N,GND*%
X49650000Y49320000D03*
%TO.P,C59,2*%
%TO.N,N$20*%
X49650000Y49820000D03*
%TD*%
D12*
%TO.P,C37,1*%
%TO.N,+1V8_CLOCK*%
X61950000Y38960000D03*
%TO.P,C37,2*%
%TO.N,GND*%
X62450000Y38960000D03*
%TD*%
D14*
%TO.P,C86,1*%
%TO.N,+3V3_LO_2*%
X60200000Y60750000D03*
%TO.P,C86,2*%
%TO.N,GND*%
X60200000Y61250000D03*
%TD*%
D15*
%TO.P,C27,1*%
%TO.N,+3V3_CLOCK*%
X45900000Y6700000D03*
%TO.P,C27,2*%
%TO.N,GND*%
X45900000Y3900000D03*
%TD*%
D14*
%TO.P,C65,1*%
%TO.N,TX_RFOUT_1_P*%
X45150000Y60750000D03*
%TO.P,C65,2*%
%TO.N,N$28*%
X45150000Y61250000D03*
%TD*%
D24*
%TO.P,J5,1*%
%TO.N,N$64*%
X64560000Y17838100D03*
D25*
%TO.P,J5,2*%
%TO.N,GND*%
X62020000Y20378100D03*
%TO.P,J5,3*%
X62020000Y15298100D03*
%TO.P,J5,4*%
X67100000Y15298100D03*
%TO.P,J5,5*%
X67100000Y20378100D03*
%TD*%
D26*
%TO.P,L11,1*%
%TO.N,+1V8_CLOCK*%
X73300000Y6300000D03*
%TO.P,L11,2*%
%TO.N,N$73*%
X78300000Y6300000D03*
%TD*%
D12*
%TO.P,C28,1*%
%TO.N,+3V3_CLOCK*%
X61810000Y43410000D03*
%TO.P,C28,2*%
%TO.N,GND*%
X62310000Y43410000D03*
%TD*%
D14*
%TO.P,C32,1*%
%TO.N,+3V3_CLOCK*%
X54480000Y46650000D03*
%TO.P,C32,2*%
%TO.N,GND*%
X54480000Y47150000D03*
%TD*%
D27*
%TO.P,J3,1*%
%TO.N,AD9523_OUT4_P*%
X78870000Y47710000D03*
%TO.P,J3,2*%
%TO.N,AD9523_OUT4_N*%
X78870000Y46440000D03*
D28*
%TO.P,J3,3*%
%TO.N,N/C*%
X80140000Y48345000D03*
%TO.P,J3,4*%
X80140000Y45805000D03*
%TO.P,J3,5*%
X77600000Y48345000D03*
%TO.P,J3,6*%
X77600000Y45805000D03*
%TD*%
D10*
%TO.P,R34,1*%
%TO.N,N$50*%
X56820000Y58465000D03*
%TO.P,R34,2*%
%TO.N,ADF4382_RX_LKDET*%
X56820000Y57955000D03*
%TD*%
D16*
%TO.P,U2,1*%
%TO.N,GND*%
X46418000Y66447800D03*
%TO.P,U2,2*%
%TO.N,N$27*%
X45910000Y66447800D03*
%TO.P,U2,3*%
%TO.N,GND*%
X45402000Y66447800D03*
D17*
%TO.P,U2,4*%
%TO.N,N/C*%
X44462200Y65508000D03*
%TO.P,U2,5*%
X44462200Y65000000D03*
%TO.P,U2,6*%
%TO.N,GND*%
X44462200Y64492000D03*
D16*
%TO.P,U2,7*%
%TO.N,N$28*%
X45402000Y63552200D03*
%TO.P,U2,8*%
%TO.N,N/C*%
X45910000Y63552200D03*
%TO.P,U2,9*%
%TO.N,N$31*%
X46418000Y63552200D03*
D17*
%TO.P,U2,10*%
%TO.N,GND*%
X47357800Y64492000D03*
%TO.P,U2,11*%
%TO.N,N/C*%
X47357800Y65000000D03*
%TO.P,U2,12*%
X47357800Y65508000D03*
D18*
%TO.P,U2,13*%
%TO.N,GND*%
X45910000Y65000000D03*
%TD*%
D11*
%TO.P,R16,1*%
%TO.N,N$24*%
X53035000Y53710000D03*
%TO.P,R16,2*%
%TO.N,N$23*%
X52525000Y53710000D03*
%TD*%
D15*
%TO.P,C29,1*%
%TO.N,N$73*%
X81200000Y6300000D03*
%TO.P,C29,2*%
%TO.N,GND*%
X81200000Y3500000D03*
%TD*%
D14*
%TO.P,C70,1*%
%TO.N,ADF4382_RX_SYNC_N*%
X59815000Y50275000D03*
%TO.P,C70,2*%
%TO.N,AD9523_OUT8_N*%
X59815000Y49775000D03*
%TD*%
D11*
%TO.P,R39,1*%
%TO.N,N$62*%
X62965000Y41380000D03*
%TO.P,R39,2*%
%TO.N,N$63*%
X63475000Y41380000D03*
%TD*%
D29*
%TO.P,X12,1*%
%TO.N,N$73*%
X86530000Y4100000D03*
%TO.P,X12,2*%
%TO.N,GND*%
X89070000Y4100000D03*
%TD*%
D10*
%TO.P,R36,1*%
%TO.N,GND*%
X55840000Y56415000D03*
%TO.P,R36,2*%
%TO.N,ADF4382_RX_DELSTR*%
X55840000Y55905000D03*
%TD*%
D11*
%TO.P,R26,1*%
%TO.N,ADF4382_RX_SYNC_P*%
X59215000Y51160000D03*
%TO.P,R26,2*%
%TO.N,ADF4382_RX_SYNC_N*%
X59725000Y51160000D03*
%TD*%
D12*
%TO.P,C30,1*%
%TO.N,+3V3_CLOCK*%
X57460000Y46830000D03*
%TO.P,C30,2*%
%TO.N,GND*%
X57960000Y46830000D03*
%TD*%
D14*
%TO.P,C84,1*%
%TO.N,N$43*%
X68700000Y54710000D03*
%TO.P,C84,2*%
%TO.N,GND*%
X68700000Y55210000D03*
%TD*%
D11*
%TO.P,R18,1*%
%TO.N,N$25*%
X52455000Y52070000D03*
%TO.P,R18,2*%
%TO.N,N$17*%
X52965000Y52070000D03*
%TD*%
D15*
%TO.P,C23,1*%
%TO.N,+3V3_XO*%
X21000000Y31900000D03*
%TO.P,C23,2*%
%TO.N,GND*%
X21000000Y29100000D03*
%TD*%
D14*
%TO.P,C13,1*%
%TO.N,ADF4382_TX_SYNC_N*%
X45400000Y50600000D03*
%TO.P,C13,2*%
%TO.N,AD9523_OUT9_N*%
X45400000Y50100000D03*
%TD*%
D30*
%TO.P,C19,1*%
%TO.N,N$68*%
X52860000Y24920000D03*
%TO.P,C19,2*%
%TO.N,N$67*%
X52860000Y23620000D03*
%TD*%
D14*
%TO.P,C68,1*%
%TO.N,N$38*%
X61740000Y50610000D03*
%TO.P,C68,2*%
%TO.N,AD9523_OUT1_N*%
X61740000Y50110000D03*
%TD*%
D24*
%TO.P,J8,1*%
%TO.N,AD9523_OUT7+*%
X92710000Y16280000D03*
D25*
%TO.P,J8,2*%
%TO.N,GND*%
X90170000Y18820000D03*
%TO.P,J8,3*%
X90170000Y13740000D03*
%TO.P,J8,4*%
X95250000Y13740000D03*
%TO.P,J8,5*%
X95250000Y18820000D03*
%TD*%
D12*
%TO.P,C41,1*%
%TO.N,+1V8_CLOCK*%
X62010000Y41880000D03*
%TO.P,C41,2*%
%TO.N,GND*%
X62510000Y41880000D03*
%TD*%
D14*
%TO.P,C9,1*%
%TO.N,GND*%
X48760000Y37640000D03*
%TO.P,C9,2*%
%TO.N,N$10*%
X48760000Y38140000D03*
%TD*%
D13*
%TO.P,D2,A*%
%TO.N,N$50*%
X56830000Y59733000D03*
%TO.P,D2,C*%
%TO.N,GND*%
X56830000Y61487000D03*
%TD*%
D14*
%TO.P,C85,1*%
%TO.N,N$49*%
X63740000Y50910000D03*
%TO.P,C85,2*%
%TO.N,GND*%
X63740000Y50410000D03*
%TD*%
D31*
%TO.P,J9,1*%
%TO.N,N$37*%
X9850000Y82370000D03*
D25*
%TO.P,J9,2*%
%TO.N,GND*%
X12390000Y79830000D03*
%TO.P,J9,3*%
X12390000Y84910000D03*
%TO.P,J9,4*%
X7310000Y84910000D03*
%TO.P,J9,5*%
X7310000Y79830000D03*
%TD*%
D14*
%TO.P,C50,1*%
%TO.N,+3V3_LO_1*%
X51640000Y53370000D03*
%TO.P,C50,2*%
%TO.N,GND*%
X51640000Y52870000D03*
%TD*%
D26*
%TO.P,L10,1*%
%TO.N,+3V3_CLOCK*%
X43300000Y6200000D03*
%TO.P,L10,2*%
%TO.N,N$71*%
X38300000Y6200000D03*
%TD*%
D12*
%TO.P,C18,1*%
%TO.N,+3V3_CLOCK*%
X50820000Y34640000D03*
%TO.P,C18,2*%
%TO.N,GND*%
X50320000Y34640000D03*
%TD*%
D14*
%TO.P,C62,1*%
%TO.N,N$26*%
X49860000Y50870000D03*
%TO.P,C62,2*%
%TO.N,GND*%
X49860000Y50370000D03*
%TD*%
D32*
%TO.P,U4,1*%
%TO.N,N$27*%
X45910000Y67644400D03*
%TO.P,U4,2*%
%TO.N,N$30*%
X45910000Y68355600D03*
D33*
%TO.P,U4,3*%
%TO.N,GND*%
X46532300Y68000000D03*
%TO.P,U4,4*%
X45287700Y68000000D03*
%TD*%
D10*
%TO.P,R38,1*%
%TO.N,ADF4382_RX_CE*%
X56240000Y54865000D03*
%TO.P,R38,2*%
%TO.N,+3V3_LO_1*%
X56240000Y54355000D03*
%TD*%
D12*
%TO.P,C43,1*%
%TO.N,+1V8_CLOCK*%
X56310000Y46730000D03*
%TO.P,C43,2*%
%TO.N,GND*%
X56810000Y46730000D03*
%TD*%
%TO.P,C92,1*%
%TO.N,N$60*%
X17180000Y67920000D03*
%TO.P,C92,2*%
%TO.N,N$61*%
X16680000Y67920000D03*
%TD*%
D34*
%TO.P,FB2,1*%
%TO.N,+5V0_LO*%
X54375000Y56010000D03*
%TO.P,FB2,2*%
%TO.N,N$19*%
X52785000Y56010000D03*
%TD*%
D10*
%TO.P,R25,1*%
%TO.N,ADF4382_TX_CE*%
X41390000Y54895000D03*
%TO.P,R25,2*%
%TO.N,+3V3_LO_1*%
X41390000Y54385000D03*
%TD*%
%TO.P,R8,1*%
%TO.N,AD9523_SDIO*%
X13860000Y21245000D03*
%TO.P,R8,2*%
%TO.N,N$13*%
X13860000Y21755000D03*
%TD*%
D14*
%TO.P,C71,1*%
%TO.N,ADF4382_RX_SYNC_P*%
X59190000Y50270000D03*
%TO.P,C71,2*%
%TO.N,AD9523_OUT8_P*%
X59190000Y49770000D03*
%TD*%
D34*
%TO.P,FB1,1*%
%TO.N,+5V0_LO*%
X69205000Y56870000D03*
%TO.P,FB1,2*%
%TO.N,N$41*%
X67615000Y56870000D03*
%TD*%
D11*
%TO.P,R20,1*%
%TO.N,N$26*%
X50355000Y50880000D03*
%TO.P,R20,2*%
%TO.N,N$21*%
X50865000Y50880000D03*
%TD*%
D35*
%TO.P,X6,1*%
%TO.N,N$2*%
X31330000Y16071100D03*
%TO.P,X6,2*%
%TO.N,GND*%
X36410000Y16071100D03*
%TO.P,X6,3*%
%TO.N,VCXO_OUT*%
X36410000Y23868900D03*
%TO.P,X6,4*%
%TO.N,+3V3_XO*%
X31330000Y23868900D03*
%TD*%
D14*
%TO.P,C14,1*%
%TO.N,ADF4382_TX_SYNC_P*%
X44820000Y50600000D03*
%TO.P,C14,2*%
%TO.N,AD9523_OUT9_P*%
X44820000Y50100000D03*
%TD*%
D12*
%TO.P,C78,1*%
%TO.N,+3V3_LO_1*%
X57170000Y52330000D03*
%TO.P,C78,2*%
%TO.N,GND*%
X56670000Y52330000D03*
%TD*%
%TO.P,L4,1*%
%TO.N,TX_RFOUT_2_P*%
X47675000Y59320000D03*
%TO.P,L4,2*%
%TO.N,+3V3_LO_2*%
X48225000Y59320000D03*
%TD*%
D36*
%TO.P,X15,1*%
%TO.N,+5V0_LO*%
X94000000Y83230000D03*
%TO.P,X15,2*%
%TO.N,GND*%
X94000000Y85770000D03*
%TD*%
D14*
%TO.P,C89,1*%
%TO.N,+3V3_LO_2*%
X62700000Y59660000D03*
%TO.P,C89,2*%
%TO.N,GND*%
X62700000Y60160000D03*
%TD*%
D11*
%TO.P,R12,1*%
%TO.N,N$16*%
X46855000Y51070000D03*
%TO.P,R12,2*%
%TO.N,N$15*%
X47365000Y51070000D03*
%TD*%
D12*
%TO.P,C76,1*%
%TO.N,+3V3_LO_2*%
X57820000Y59640000D03*
%TO.P,C76,2*%
%TO.N,GND*%
X58320000Y59640000D03*
%TD*%
D24*
%TO.P,J10,1*%
%TO.N,N$30*%
X45930000Y74000000D03*
D25*
%TO.P,J10,2*%
%TO.N,GND*%
X43390000Y76540000D03*
%TO.P,J10,3*%
X43390000Y71460000D03*
%TO.P,J10,4*%
X48470000Y71460000D03*
%TO.P,J10,5*%
X48470000Y76540000D03*
%TD*%
D12*
%TO.P,L8,1*%
%TO.N,RX_RFOUT_2_P*%
X61995000Y59310000D03*
%TO.P,L8,2*%
%TO.N,+3V3_LO_2*%
X62545000Y59310000D03*
%TD*%
D24*
%TO.P,J11,1*%
%TO.N,N$55*%
X60200000Y74000000D03*
D25*
%TO.P,J11,2*%
%TO.N,GND*%
X57660000Y76540000D03*
%TO.P,J11,3*%
X57660000Y71460000D03*
%TO.P,J11,4*%
X62740000Y71460000D03*
%TO.P,J11,5*%
X62740000Y76540000D03*
%TD*%
D10*
%TO.P,R22,1*%
%TO.N,GND*%
X41780000Y56945000D03*
%TO.P,R22,2*%
%TO.N,ADF4382_TX_DELADJ*%
X41780000Y56435000D03*
%TD*%
D24*
%TO.P,J1,1*%
%TO.N,N$35*%
X52940000Y90000000D03*
D25*
%TO.P,J1,2*%
%TO.N,GND*%
X50400000Y92540000D03*
%TO.P,J1,3*%
X50400000Y87460000D03*
%TO.P,J1,4*%
X55480000Y87460000D03*
%TO.P,J1,5*%
X55480000Y92540000D03*
%TD*%
D15*
%TO.P,C46,1*%
%TO.N,N$77*%
X34300000Y95200000D03*
%TO.P,C46,2*%
%TO.N,GND*%
X34300000Y92400000D03*
%TD*%
D11*
%TO.P,R2,1*%
%TO.N,N$1*%
X7395000Y58810000D03*
%TO.P,R2,2*%
%TO.N,+3V3_XO*%
X6885000Y58810000D03*
%TD*%
D12*
%TO.P,L1,1*%
%TO.N,+3V3_LO_2*%
X48525000Y59320000D03*
%TO.P,L1,2*%
%TO.N,TX_RFOUT_2_N*%
X49075000Y59320000D03*
%TD*%
D10*
%TO.P,R40,1*%
%TO.N,AD9523_OUT10+*%
X59450000Y33725000D03*
%TO.P,R40,2*%
%TO.N,N$65*%
X59450000Y33215000D03*
%TD*%
D37*
%TO.P,JP1,1*%
%TO.N,AD9523_PD*%
X21440000Y18670000D03*
%TO.P,JP1,2*%
%TO.N,AD9523_REF_SEL*%
X21440000Y16130000D03*
%TO.P,JP1,3*%
%TO.N,AD9523_SYNC*%
X18900000Y18670000D03*
%TO.P,JP1,4*%
%TO.N,AD9523_RESET*%
X18900000Y16130000D03*
%TO.P,JP1,5*%
%TO.N,AD9523_CS*%
X16360000Y18670000D03*
%TO.P,JP1,6*%
%TO.N,AD9523_SCLK*%
X16360000Y16130000D03*
%TO.P,JP1,7*%
%TO.N,AD9523_SDIO*%
X13820000Y18670000D03*
%TO.P,JP1,8*%
%TO.N,AD9523_SDO*%
X13820000Y16130000D03*
%TO.P,JP1,9*%
%TO.N,AD9523_STATUS0*%
X11280000Y18670000D03*
%TO.P,JP1,10*%
%TO.N,AD9523_STATUS1*%
X11280000Y16130000D03*
%TO.P,JP1,11*%
%TO.N,AD9523_EEPROM_SEL*%
X8740000Y18670000D03*
%TO.P,JP1,12*%
%TO.N,GND*%
X8740000Y16130000D03*
%TD*%
D14*
%TO.P,C67,1*%
%TO.N,TX_RFOUT_2_P*%
X47660000Y59690000D03*
%TO.P,C67,2*%
%TO.N,N$32*%
X47660000Y60190000D03*
%TD*%
D12*
%TO.P,L6,1*%
%TO.N,RX_RFOUT_1_P*%
X59495000Y60400000D03*
%TO.P,L6,2*%
%TO.N,+3V3_LO_2*%
X60045000Y60400000D03*
%TD*%
D26*
%TO.P,L9,1*%
%TO.N,+3V3_XO*%
X17900000Y31900000D03*
%TO.P,L9,2*%
%TO.N,N$69*%
X12900000Y31900000D03*
%TD*%
D12*
%TO.P,C34,1*%
%TO.N,+3V3_CLOCK*%
X49450000Y38860000D03*
%TO.P,C34,2*%
%TO.N,GND*%
X48950000Y38860000D03*
%TD*%
D14*
%TO.P,C83,1*%
%TO.N,N$47*%
X67620000Y55360000D03*
%TO.P,C83,2*%
%TO.N,GND*%
X67620000Y55860000D03*
%TD*%
D11*
%TO.P,R33,1*%
%TO.N,N$49*%
X64285000Y50900000D03*
%TO.P,R33,2*%
%TO.N,N$44*%
X64795000Y50900000D03*
%TD*%
D12*
%TO.P,C82,1*%
%TO.N,GND*%
X65050000Y49140000D03*
%TO.P,C82,2*%
%TO.N,N$42*%
X64550000Y49140000D03*
%TD*%
D32*
%TO.P,U8,1*%
%TO.N,N$54*%
X60200000Y67644400D03*
%TO.P,U8,2*%
%TO.N,N$55*%
X60200000Y68355600D03*
D33*
%TO.P,U8,3*%
%TO.N,GND*%
X60822300Y68000000D03*
%TO.P,U8,4*%
X59577700Y68000000D03*
%TD*%
D12*
%TO.P,L3,1*%
%TO.N,TX_RFOUT_1_P*%
X45165000Y60400000D03*
%TO.P,L3,2*%
%TO.N,+3V3_LO_2*%
X45715000Y60400000D03*
%TD*%
D10*
%TO.P,R41,1*%
%TO.N,AD9523_OUT11+*%
X57970000Y33725000D03*
%TO.P,R41,2*%
%TO.N,N$68*%
X57970000Y33215000D03*
%TD*%
D12*
%TO.P,C61,1*%
%TO.N,N$17*%
X53410000Y52040000D03*
%TO.P,C61,2*%
%TO.N,GND*%
X53910000Y52040000D03*
%TD*%
%TO.P,C20,1*%
%TO.N,+3V3_CLOCK*%
X55410000Y34540000D03*
%TO.P,C20,2*%
%TO.N,GND*%
X55910000Y34540000D03*
%TD*%
D29*
%TO.P,X11,1*%
%TO.N,N$71*%
X28130000Y3800000D03*
%TO.P,X11,2*%
%TO.N,GND*%
X30670000Y3800000D03*
%TD*%
D12*
%TO.P,C38,1*%
%TO.N,+3V3_LO_1*%
X42480000Y55440000D03*
%TO.P,C38,2*%
%TO.N,GND*%
X41980000Y55440000D03*
%TD*%
D14*
%TO.P,C42,1*%
%TO.N,+1V8_CLOCK*%
X61850000Y45000000D03*
%TO.P,C42,2*%
%TO.N,GND*%
X61850000Y45500000D03*
%TD*%
%TO.P,C11,1*%
%TO.N,N$15*%
X47370000Y50550000D03*
%TO.P,C11,2*%
%TO.N,AD9523_OUT0_N*%
X47370000Y50050000D03*
%TD*%
D16*
%TO.P,U7,1*%
%TO.N,GND*%
X60718000Y66447800D03*
%TO.P,U7,2*%
%TO.N,N$54*%
X60210000Y66447800D03*
%TO.P,U7,3*%
%TO.N,GND*%
X59702000Y66447800D03*
D17*
%TO.P,U7,4*%
%TO.N,N/C*%
X58762200Y65508000D03*
%TO.P,U7,5*%
X58762200Y65000000D03*
%TO.P,U7,6*%
%TO.N,GND*%
X58762200Y64492000D03*
D16*
%TO.P,U7,7*%
%TO.N,N$52*%
X59702000Y63552200D03*
%TO.P,U7,8*%
%TO.N,N/C*%
X60210000Y63552200D03*
%TO.P,U7,9*%
%TO.N,N$53*%
X60718000Y63552200D03*
D17*
%TO.P,U7,10*%
%TO.N,GND*%
X61657800Y64492000D03*
%TO.P,U7,11*%
%TO.N,N/C*%
X61657800Y65000000D03*
%TO.P,U7,12*%
X61657800Y65508000D03*
D18*
%TO.P,U7,13*%
%TO.N,GND*%
X60210000Y65000000D03*
%TD*%
D12*
%TO.P,C7,1*%
%TO.N,GND*%
X49260000Y40390000D03*
%TO.P,C7,2*%
%TO.N,N$7*%
X49760000Y40390000D03*
%TD*%
D11*
%TO.P,R31,1*%
%TO.N,N$48*%
X68215000Y54260000D03*
%TO.P,R31,2*%
%TO.N,N$43*%
X68725000Y54260000D03*
%TD*%
D14*
%TO.P,C26,1*%
%TO.N,+3V3_CLOCK*%
X61840000Y40400000D03*
%TO.P,C26,2*%
%TO.N,GND*%
X61840000Y40900000D03*
%TD*%
D12*
%TO.P,C24,1*%
%TO.N,+3V3_CLOCK*%
X61880000Y37420000D03*
%TO.P,C24,2*%
%TO.N,GND*%
X62380000Y37420000D03*
%TD*%
D15*
%TO.P,C21,1*%
%TO.N,N$69*%
X10000000Y32000000D03*
%TO.P,C21,2*%
%TO.N,GND*%
X10000000Y29200000D03*
%TD*%
D10*
%TO.P,R35,1*%
%TO.N,GND*%
X56940000Y56965000D03*
%TO.P,R35,2*%
%TO.N,ADF4382_RX_DELADJ*%
X56940000Y56455000D03*
%TD*%
D12*
%TO.P,L5,1*%
%TO.N,+3V3_LO_2*%
X60395000Y60400000D03*
%TO.P,L5,2*%
%TO.N,RX_RFOUT_1_N*%
X60945000Y60400000D03*
%TD*%
%TO.P,C2,1*%
%TO.N,N$2*%
X31490000Y13520000D03*
%TO.P,C2,2*%
%TO.N,GND*%
X31990000Y13520000D03*
%TD*%
D10*
%TO.P,R6,1*%
%TO.N,AD9523_SCLK*%
X16380000Y13625000D03*
%TO.P,R6,2*%
%TO.N,N$12*%
X16380000Y13115000D03*
%TD*%
D11*
%TO.P,R29,1*%
%TO.N,N$47*%
X67175000Y55360000D03*
%TO.P,R29,2*%
%TO.N,N$46*%
X66665000Y55360000D03*
%TD*%
D12*
%TO.P,L2,1*%
%TO.N,+3V3_LO_2*%
X46015000Y60400000D03*
%TO.P,L2,2*%
%TO.N,TX_RFOUT_1_N*%
X46565000Y60400000D03*
%TD*%
%TO.P,C22,1*%
%TO.N,+3V3_CLOCK*%
X58460000Y34530000D03*
%TO.P,C22,2*%
%TO.N,GND*%
X58960000Y34530000D03*
%TD*%
D30*
%TO.P,C17,1*%
%TO.N,N$65*%
X64580000Y24920000D03*
%TO.P,C17,2*%
%TO.N,N$64*%
X64580000Y23620000D03*
%TD*%
D24*
%TO.P,J6,1*%
%TO.N,N$67*%
X52790000Y18270000D03*
D25*
%TO.P,J6,2*%
%TO.N,GND*%
X50250000Y20810000D03*
%TO.P,J6,3*%
X50250000Y15730000D03*
%TO.P,J6,4*%
X55330000Y15730000D03*
%TO.P,J6,5*%
X55330000Y20810000D03*
%TD*%
D12*
%TO.P,C44,1*%
%TO.N,+1V8_CLOCK*%
X52580000Y46820000D03*
%TO.P,C44,2*%
%TO.N,GND*%
X52080000Y46820000D03*
%TD*%
D29*
%TO.P,X13,1*%
%TO.N,N$75*%
X13670000Y95200000D03*
%TO.P,X13,2*%
%TO.N,GND*%
X11130000Y95200000D03*
%TD*%
D14*
%TO.P,C16,1*%
%TO.N,+3V3_CLOCK*%
X49070000Y44400000D03*
%TO.P,C16,2*%
%TO.N,GND*%
X49070000Y44900000D03*
%TD*%
D38*
%TO.P,U1,1*%
%TO.N,GND*%
X50345800Y52370000D03*
%TO.P,U1,2*%
X50345800Y52870000D03*
%TO.P,U1,3*%
%TO.N,+3V3_LO_1*%
X50345800Y53370000D03*
%TO.P,U1,4*%
%TO.N,GND*%
X50345800Y53870000D03*
%TO.P,U1,5*%
%TO.N,+3V3_LO_2*%
X50345800Y54370000D03*
%TO.P,U1,6*%
%TO.N,N/C*%
X50345800Y54870000D03*
%TO.P,U1,7*%
%TO.N,N$22*%
X50345800Y55370000D03*
%TO.P,U1,8*%
%TO.N,N$19*%
X50345800Y55870000D03*
%TO.P,U1,9*%
%TO.N,N$18*%
X50345800Y56370000D03*
%TO.P,U1,10*%
%TO.N,GND*%
X50345800Y56870000D03*
%TO.P,U1,11*%
%TO.N,+3V3_LO_2*%
X50345800Y57370000D03*
%TO.P,U1,12*%
%TO.N,GND*%
X50345800Y57870000D03*
D39*
%TO.P,U1,13*%
%TO.N,+3V3_LO_2*%
X49870000Y58345800D03*
%TO.P,U1,14*%
%TO.N,GND*%
X49370000Y58345800D03*
%TO.P,U1,15*%
%TO.N,TX_RFOUT_2_N*%
X48870000Y58345800D03*
%TO.P,U1,16*%
%TO.N,GND*%
X48370000Y58345800D03*
%TO.P,U1,17*%
%TO.N,TX_RFOUT_2_P*%
X47870000Y58345800D03*
%TO.P,U1,18*%
%TO.N,GND*%
X47370000Y58345800D03*
%TO.P,U1,19*%
X46870000Y58345800D03*
%TO.P,U1,20*%
%TO.N,TX_RFOUT_1_N*%
X46370000Y58345800D03*
%TO.P,U1,21*%
%TO.N,GND*%
X45870000Y58345800D03*
%TO.P,U1,22*%
%TO.N,TX_RFOUT_1_P*%
X45370000Y58345800D03*
%TO.P,U1,23*%
%TO.N,GND*%
X44870000Y58345800D03*
%TO.P,U1,24*%
%TO.N,+3V3_LO_2*%
X44370000Y58345800D03*
D38*
%TO.P,U1,25*%
%TO.N,GND*%
X43894200Y57870000D03*
%TO.P,U1,26*%
X43894200Y57370000D03*
%TO.P,U1,27*%
%TO.N,ADF4382_TX_LKDET*%
X43894200Y56870000D03*
%TO.P,U1,28*%
%TO.N,ADF4382_TX_DELADJ*%
X43894200Y56370000D03*
%TO.P,U1,29*%
%TO.N,ADF4382_TX_DELSTR*%
X43894200Y55870000D03*
%TO.P,U1,30*%
%TO.N,+3V3_LO_1*%
X43894200Y55370000D03*
%TO.P,U1,31*%
%TO.N,ADF4382_TX_CE*%
X43894200Y54870000D03*
%TO.P,U1,32*%
%TO.N,ADF4382_TX_CS*%
X43894200Y54370000D03*
%TO.P,U1,33*%
%TO.N,ADF4382_SDIO*%
X43894200Y53870000D03*
%TO.P,U1,34*%
%TO.N,ADF4382_SCLK*%
X43894200Y53370000D03*
%TO.P,U1,35*%
%TO.N,ADF4382_SDO*%
X43894200Y52870000D03*
%TO.P,U1,36*%
%TO.N,+3V3_LO_1*%
X43894200Y52370000D03*
D39*
%TO.P,U1,37*%
%TO.N,N$37*%
X44370000Y51894200D03*
%TO.P,U1,38*%
%TO.N,ADF4382_TX_SYNC_P*%
X44870000Y51894200D03*
%TO.P,U1,39*%
%TO.N,ADF4382_TX_SYNC_N*%
X45370000Y51894200D03*
%TO.P,U1,40*%
%TO.N,+3V3_LO_1*%
X45870000Y51894200D03*
%TO.P,U1,41*%
%TO.N,GND*%
X46370000Y51894200D03*
%TO.P,U1,42*%
%TO.N,N$16*%
X46870000Y51894200D03*
%TO.P,U1,43*%
%TO.N,N$15*%
X47370000Y51894200D03*
%TO.P,U1,44*%
%TO.N,+3V3_LO_1*%
X47870000Y51894200D03*
%TO.P,U1,45*%
X48370000Y51894200D03*
%TO.P,U1,46*%
%TO.N,N$20*%
X48870000Y51894200D03*
%TO.P,U1,47*%
%TO.N,N$26*%
X49370000Y51894200D03*
%TO.P,U1,48*%
%TO.N,GND*%
X49870000Y51894200D03*
D40*
%TO.P,U1,49*%
X48432500Y53807500D03*
%TO.P,U1,50*%
X48432500Y56432500D03*
%TO.P,U1,51*%
X45807500Y56432500D03*
%TO.P,U1,52*%
X45807500Y53807500D03*
%TD*%
D14*
%TO.P,C88,1*%
%TO.N,RX_RFOUT_1_P*%
X59440000Y60750000D03*
%TO.P,C88,2*%
%TO.N,N$52*%
X59440000Y61250000D03*
%TD*%
%TO.P,C63,1*%
%TO.N,+3V3_LO_2*%
X45840000Y60750000D03*
%TO.P,C63,2*%
%TO.N,GND*%
X45840000Y61250000D03*
%TD*%
D12*
%TO.P,C55,1*%
%TO.N,+3V3_LO_2*%
X43960000Y59600000D03*
%TO.P,C55,2*%
%TO.N,GND*%
X44460000Y59600000D03*
%TD*%
D11*
%TO.P,R1,1*%
%TO.N,N$39*%
X61215000Y51110000D03*
%TO.P,R1,2*%
%TO.N,N$38*%
X61725000Y51110000D03*
%TD*%
D41*
%TO.P,J12,1*%
%TO.N,N$59*%
X74380000Y71980000D03*
D25*
%TO.P,J12,2*%
%TO.N,GND*%
X70787898Y71980000D03*
%TO.P,J12,3*%
X74380000Y68387898D03*
%TO.P,J12,4*%
X77972102Y71980000D03*
%TO.P,J12,5*%
X74380000Y75572102D03*
%TD*%
D36*
%TO.P,X10,1*%
%TO.N,N$69*%
X4800000Y31970000D03*
%TO.P,X10,2*%
%TO.N,GND*%
X4800000Y29430000D03*
%TD*%
D10*
%TO.P,R11,1*%
%TO.N,N$14*%
X16420000Y22445000D03*
%TO.P,R11,2*%
%TO.N,GND*%
X16420000Y22955000D03*
%TD*%
D14*
%TO.P,C58,1*%
%TO.N,+3V3_LO_2*%
X51620000Y54420000D03*
%TO.P,C58,2*%
%TO.N,GND*%
X51620000Y53920000D03*
%TD*%
D42*
%TO.P,U10,1*%
%TO.N,N$58*%
X69838553Y67588553D03*
%TO.P,U10,2*%
%TO.N,N$59*%
X70341447Y68091447D03*
D43*
%TO.P,U10,3*%
%TO.N,GND*%
X70530033Y67399967D03*
%TO.P,U10,4*%
X69649967Y68280033D03*
%TD*%
D29*
%TO.P,X14,1*%
%TO.N,N$77*%
X43370000Y95300000D03*
%TO.P,X14,2*%
%TO.N,GND*%
X40830000Y95300000D03*
%TD*%
D11*
%TO.P,R15,1*%
%TO.N,N$22*%
X51705000Y55040000D03*
%TO.P,R15,2*%
%TO.N,N$23*%
X52215000Y55040000D03*
%TD*%
D10*
%TO.P,R21,1*%
%TO.N,N$36*%
X42530000Y57425000D03*
%TO.P,R21,2*%
%TO.N,ADF4382_TX_LKDET*%
X42530000Y56915000D03*
%TD*%
D11*
%TO.P,R27,1*%
%TO.N,N$40*%
X65615000Y56550000D03*
%TO.P,R27,2*%
%TO.N,N$41*%
X66125000Y56550000D03*
%TD*%
D12*
%TO.P,C6,1*%
%TO.N,GND*%
X49270000Y41920000D03*
%TO.P,C6,2*%
%TO.N,N$4*%
X49770000Y41920000D03*
%TD*%
D15*
%TO.P,C31,1*%
%TO.N,+1V8_CLOCK*%
X70500000Y6400000D03*
%TO.P,C31,2*%
%TO.N,GND*%
X70500000Y3600000D03*
%TD*%
D12*
%TO.P,L7,1*%
%TO.N,+3V3_LO_2*%
X62895000Y59310000D03*
%TO.P,L7,2*%
%TO.N,RX_RFOUT_2_N*%
X63445000Y59310000D03*
%TD*%
D10*
%TO.P,R24,1*%
%TO.N,ADF4382_TX_CS*%
X42320000Y54345000D03*
%TO.P,R24,2*%
%TO.N,+3V3_LO_1*%
X42320000Y53835000D03*
%TD*%
D14*
%TO.P,C64,1*%
%TO.N,TX_RFOUT_1_N*%
X46570000Y60750000D03*
%TO.P,C64,2*%
%TO.N,N$31*%
X46570000Y61250000D03*
%TD*%
D27*
%TO.P,J4,1*%
%TO.N,AD9523_OUT5_P*%
X78870000Y40250000D03*
%TO.P,J4,2*%
%TO.N,AD9523_OUT5_N*%
X78870000Y38980000D03*
D28*
%TO.P,J4,3*%
%TO.N,N/C*%
X80140000Y40885000D03*
%TO.P,J4,4*%
X80140000Y38345000D03*
%TO.P,J4,5*%
X77600000Y40885000D03*
%TO.P,J4,6*%
X77600000Y38345000D03*
%TD*%
D10*
%TO.P,R37,1*%
%TO.N,ADF4382_RX_CS*%
X56840000Y54415000D03*
%TO.P,R37,2*%
%TO.N,+3V3_LO_1*%
X56840000Y53905000D03*
%TD*%
%TO.P,R30,1*%
%TO.N,N$48*%
X67630000Y54265000D03*
%TO.P,R30,2*%
%TO.N,N$47*%
X67630000Y54775000D03*
%TD*%
D44*
%TO.P,J13,1*%
%TO.N,N$61*%
X11670000Y67910000D03*
D25*
%TO.P,J13,2*%
%TO.N,GND*%
X9130000Y65370000D03*
%TO.P,J13,3*%
X14210000Y65370000D03*
%TO.P,J13,4*%
X14210000Y70450000D03*
%TO.P,J13,5*%
X9130000Y70450000D03*
%TD*%
D14*
%TO.P,C12,1*%
%TO.N,N$16*%
X46810000Y50550000D03*
%TO.P,C12,2*%
%TO.N,AD9523_OUT0_P*%
X46810000Y50050000D03*
%TD*%
D15*
%TO.P,C33,1*%
%TO.N,N$75*%
X18100000Y93700000D03*
%TO.P,C33,2*%
%TO.N,GND*%
X18100000Y96500000D03*
%TD*%
D34*
%TO.P,FB3,1*%
%TO.N,N$20*%
X51265000Y49650000D03*
%TO.P,FB3,2*%
%TO.N,+5V0_LO*%
X52855000Y49650000D03*
%TD*%
D45*
%TO.P,JP2,1*%
%TO.N,ADF4382_SDO*%
X89820000Y58360000D03*
%TO.P,JP2,2*%
%TO.N,ADF4382_SCLK*%
X87280000Y58360000D03*
%TO.P,JP2,3*%
%TO.N,ADF4382_SDIO*%
X89820000Y60900000D03*
%TO.P,JP2,4*%
%TO.N,ADF4382_TX_CS*%
X87280000Y60900000D03*
%TO.P,JP2,5*%
%TO.N,ADF4382_TX_CE*%
X89820000Y63440000D03*
%TO.P,JP2,6*%
%TO.N,ADF4382_TX_DELSTR*%
X87280000Y63440000D03*
%TO.P,JP2,7*%
%TO.N,ADF4382_TX_DELADJ*%
X89820000Y65980000D03*
%TO.P,JP2,8*%
%TO.N,ADF4382_TX_LKDET*%
X87280000Y65980000D03*
%TO.P,JP2,9*%
%TO.N,ADF4382_RX_CS*%
X89820000Y68520000D03*
%TO.P,JP2,10*%
%TO.N,ADF4382_RX_CE*%
X87280000Y68520000D03*
%TO.P,JP2,11*%
%TO.N,ADF4382_RX_DELSTR*%
X89820000Y71060000D03*
%TO.P,JP2,12*%
%TO.N,ADF4382_RX_DELADJ*%
X87280000Y71060000D03*
%TO.P,JP2,13*%
%TO.N,ADF4382_RX_LKDET*%
X89820000Y73600000D03*
%TO.P,JP2,14*%
%TO.N,GND*%
X87280000Y73600000D03*
%TD*%
D10*
%TO.P,R10,1*%
%TO.N,AD9523_CS*%
X16360000Y21295000D03*
%TO.P,R10,2*%
%TO.N,N$14*%
X16360000Y21805000D03*
%TD*%
%TO.P,R7,1*%
%TO.N,N$12*%
X16370000Y12575000D03*
%TO.P,R7,2*%
%TO.N,GND*%
X16370000Y12065000D03*
%TD*%
D14*
%TO.P,C1,1*%
%TO.N,+3V3_LO_2*%
X48370000Y59660000D03*
%TO.P,C1,2*%
%TO.N,GND*%
X48370000Y60160000D03*
%TD*%
D12*
%TO.P,C48,1*%
%TO.N,+3V3_LO_1*%
X47860000Y50540000D03*
%TO.P,C48,2*%
%TO.N,GND*%
X48360000Y50540000D03*
%TD*%
D44*
%TO.P,J7,1*%
%TO.N,AD9523_OUT6+*%
X92710000Y30200000D03*
D25*
%TO.P,J7,2*%
%TO.N,GND*%
X90170000Y27660000D03*
%TO.P,J7,3*%
X95250000Y27660000D03*
%TO.P,J7,4*%
X95250000Y32740000D03*
%TO.P,J7,5*%
X90170000Y32740000D03*
%TD*%
D11*
%TO.P,R4,1*%
%TO.N,N$2*%
X31525000Y14160000D03*
%TO.P,R4,2*%
%TO.N,OSC_CTRL*%
X32035000Y14160000D03*
%TD*%
%TO.P,R28,1*%
%TO.N,N$45*%
X65645000Y55350000D03*
%TO.P,R28,2*%
%TO.N,N$46*%
X66155000Y55350000D03*
%TD*%
D12*
%TO.P,C36,1*%
%TO.N,+1V8_CLOCK*%
X60910000Y34740000D03*
%TO.P,C36,2*%
%TO.N,GND*%
X61410000Y34740000D03*
%TD*%
D14*
%TO.P,C73,1*%
%TO.N,+3V3_LO_2*%
X66100000Y54410000D03*
%TO.P,C73,2*%
%TO.N,GND*%
X66100000Y53910000D03*
%TD*%
%TO.P,C39,1*%
%TO.N,+3V3_LO_1*%
X42560000Y52320000D03*
%TO.P,C39,2*%
%TO.N,GND*%
X42560000Y51820000D03*
%TD*%
D12*
%TO.P,C79,1*%
%TO.N,+3V3_LO_1*%
X60220000Y50840000D03*
%TO.P,C79,2*%
%TO.N,GND*%
X60720000Y50840000D03*
%TD*%
D32*
%TO.P,U5,1*%
%TO.N,N$34*%
X52940000Y68324400D03*
%TO.P,U5,2*%
%TO.N,N$35*%
X52940000Y69035600D03*
D33*
%TO.P,U5,3*%
%TO.N,GND*%
X53562300Y68680000D03*
%TO.P,U5,4*%
X52317700Y68680000D03*
%TD*%
D10*
%TO.P,R9,1*%
%TO.N,N$13*%
X13820000Y22435000D03*
%TO.P,R9,2*%
%TO.N,GND*%
X13820000Y22945000D03*
%TD*%
D14*
%TO.P,C72,1*%
%TO.N,+3V3_LO_1*%
X66000000Y53460000D03*
%TO.P,C72,2*%
%TO.N,GND*%
X66000000Y52960000D03*
%TD*%
D38*
%TO.P,U6,1*%
%TO.N,GND*%
X64705800Y52370000D03*
%TO.P,U6,2*%
X64705800Y52870000D03*
%TO.P,U6,3*%
%TO.N,+3V3_LO_1*%
X64705800Y53370000D03*
%TO.P,U6,4*%
%TO.N,GND*%
X64705800Y53870000D03*
%TO.P,U6,5*%
%TO.N,+3V3_LO_2*%
X64705800Y54370000D03*
%TO.P,U6,6*%
%TO.N,N/C*%
X64705800Y54870000D03*
%TO.P,U6,7*%
%TO.N,N$45*%
X64705800Y55370000D03*
%TO.P,U6,8*%
%TO.N,N$41*%
X64705800Y55870000D03*
%TO.P,U6,9*%
%TO.N,N$40*%
X64705800Y56370000D03*
%TO.P,U6,10*%
%TO.N,GND*%
X64705800Y56870000D03*
%TO.P,U6,11*%
%TO.N,+3V3_LO_2*%
X64705800Y57370000D03*
%TO.P,U6,12*%
%TO.N,GND*%
X64705800Y57870000D03*
D39*
%TO.P,U6,13*%
%TO.N,+3V3_LO_2*%
X64230000Y58345800D03*
%TO.P,U6,14*%
%TO.N,GND*%
X63730000Y58345800D03*
%TO.P,U6,15*%
%TO.N,RX_RFOUT_2_N*%
X63230000Y58345800D03*
%TO.P,U6,16*%
%TO.N,GND*%
X62730000Y58345800D03*
%TO.P,U6,17*%
%TO.N,RX_RFOUT_2_P*%
X62230000Y58345800D03*
%TO.P,U6,18*%
%TO.N,GND*%
X61730000Y58345800D03*
%TO.P,U6,19*%
X61230000Y58345800D03*
%TO.P,U6,20*%
%TO.N,RX_RFOUT_1_N*%
X60730000Y58345800D03*
%TO.P,U6,21*%
%TO.N,GND*%
X60230000Y58345800D03*
%TO.P,U6,22*%
%TO.N,RX_RFOUT_1_P*%
X59730000Y58345800D03*
%TO.P,U6,23*%
%TO.N,GND*%
X59230000Y58345800D03*
%TO.P,U6,24*%
%TO.N,+3V3_LO_2*%
X58730000Y58345800D03*
D38*
%TO.P,U6,25*%
%TO.N,GND*%
X58254200Y57870000D03*
%TO.P,U6,26*%
X58254200Y57370000D03*
%TO.P,U6,27*%
%TO.N,ADF4382_RX_LKDET*%
X58254200Y56870000D03*
%TO.P,U6,28*%
%TO.N,ADF4382_RX_DELADJ*%
X58254200Y56370000D03*
%TO.P,U6,29*%
%TO.N,ADF4382_RX_DELSTR*%
X58254200Y55870000D03*
%TO.P,U6,30*%
%TO.N,+3V3_LO_1*%
X58254200Y55370000D03*
%TO.P,U6,31*%
%TO.N,ADF4382_RX_CE*%
X58254200Y54870000D03*
%TO.P,U6,32*%
%TO.N,ADF4382_RX_CS*%
X58254200Y54370000D03*
%TO.P,U6,33*%
%TO.N,ADF4382_SDIO*%
X58254200Y53870000D03*
%TO.P,U6,34*%
%TO.N,ADF4382_SCLK*%
X58254200Y53370000D03*
%TO.P,U6,35*%
%TO.N,ADF4382_SDO*%
X58254200Y52870000D03*
%TO.P,U6,36*%
%TO.N,+3V3_LO_1*%
X58254200Y52370000D03*
D39*
%TO.P,U6,37*%
%TO.N,N$51*%
X58730000Y51894200D03*
%TO.P,U6,38*%
%TO.N,ADF4382_RX_SYNC_P*%
X59230000Y51894200D03*
%TO.P,U6,39*%
%TO.N,ADF4382_RX_SYNC_N*%
X59730000Y51894200D03*
%TO.P,U6,40*%
%TO.N,+3V3_LO_1*%
X60230000Y51894200D03*
%TO.P,U6,41*%
%TO.N,GND*%
X60730000Y51894200D03*
%TO.P,U6,42*%
%TO.N,N$39*%
X61230000Y51894200D03*
%TO.P,U6,43*%
%TO.N,N$38*%
X61730000Y51894200D03*
%TO.P,U6,44*%
%TO.N,+3V3_LO_1*%
X62230000Y51894200D03*
%TO.P,U6,45*%
X62730000Y51894200D03*
%TO.P,U6,46*%
%TO.N,N$42*%
X63230000Y51894200D03*
%TO.P,U6,47*%
%TO.N,N$49*%
X63730000Y51894200D03*
%TO.P,U6,48*%
%TO.N,GND*%
X64230000Y51894200D03*
D40*
%TO.P,U6,49*%
X62792500Y53807500D03*
%TO.P,U6,50*%
X62792500Y56432500D03*
%TO.P,U6,51*%
X60167500Y56432500D03*
%TO.P,U6,52*%
X60167500Y53807500D03*
%TD*%
D46*
%TO.P,FB4,1*%
%TO.N,N$42*%
X63460000Y49125000D03*
%TO.P,FB4,2*%
%TO.N,+5V0_LO*%
X63460000Y47535000D03*
%TD*%
D15*
%TO.P,C51,1*%
%TO.N,+5V0_LO*%
X87700000Y85900000D03*
%TO.P,C51,2*%
%TO.N,GND*%
X87700000Y88700000D03*
%TD*%
D47*
%TO.P,IC1,1*%
%TO.N,N$3*%
X50797800Y44911800D03*
%TO.P,IC1,2*%
%TO.N,+3V3_CLOCK*%
X50797800Y44429200D03*
%TO.P,IC1,3*%
%TO.N,10MHZ_OUT*%
X50797800Y43921200D03*
%TO.P,IC1,4*%
%TO.N,N$5*%
X50797800Y43413200D03*
%TO.P,IC1,5*%
%TO.N,100MHZ_OUT*%
X50797800Y42930600D03*
%TO.P,IC1,6*%
%TO.N,N$6*%
X50797800Y42422600D03*
%TO.P,IC1,7*%
%TO.N,N$4*%
X50797800Y41914600D03*
%TO.P,IC1,8*%
%TO.N,OSC_CTRL*%
X50797800Y41432000D03*
%TO.P,IC1,9*%
%TO.N,VCXO_OUT*%
X50797800Y40924000D03*
%TO.P,IC1,10*%
%TO.N,N$7*%
X50797800Y40416000D03*
%TO.P,IC1,11*%
%TO.N,N$8*%
X50797800Y39908000D03*
%TO.P,IC1,12*%
%TO.N,N$11*%
X50797800Y39425400D03*
%TO.P,IC1,13*%
%TO.N,+3V3_CLOCK*%
X50797800Y38917400D03*
%TO.P,IC1,14*%
%TO.N,N$10*%
X50797800Y38409400D03*
%TO.P,IC1,15*%
%TO.N,AD9523_PD*%
X50797800Y37926800D03*
%TO.P,IC1,16*%
%TO.N,AD9523_REF_SEL*%
X50797800Y37418800D03*
%TO.P,IC1,17*%
%TO.N,AD9523_SYNC*%
X50797800Y36910800D03*
%TO.P,IC1,18*%
%TO.N,+3V3_CLOCK*%
X50797800Y36428200D03*
D48*
%TO.P,IC1,19*%
%TO.N,AD9523_RESET*%
X51458200Y35767800D03*
%TO.P,IC1,20*%
%TO.N,N$14*%
X51940800Y35767800D03*
%TO.P,IC1,21*%
%TO.N,N$12*%
X52448800Y35767800D03*
%TO.P,IC1,22*%
%TO.N,N$13*%
X52956800Y35767800D03*
%TO.P,IC1,23*%
%TO.N,AD9523_SDO*%
X53439400Y35767800D03*
%TO.P,IC1,24*%
%TO.N,N$29*%
X53947400Y35767800D03*
%TO.P,IC1,25*%
%TO.N,N/C*%
X54455400Y35767800D03*
%TO.P,IC1,26*%
X54938000Y35767800D03*
%TO.P,IC1,27*%
%TO.N,+3V3_CLOCK*%
X55446000Y35767800D03*
%TO.P,IC1,28*%
%TO.N,N/C*%
X55954000Y35767800D03*
%TO.P,IC1,29*%
X56462000Y35767800D03*
%TO.P,IC1,30*%
%TO.N,+1V8_CLOCK*%
X56944600Y35767800D03*
%TO.P,IC1,31*%
%TO.N,N/C*%
X57452600Y35767800D03*
%TO.P,IC1,32*%
%TO.N,AD9523_OUT11+*%
X57960600Y35767800D03*
%TO.P,IC1,33*%
%TO.N,+3V3_CLOCK*%
X58443200Y35767800D03*
%TO.P,IC1,34*%
%TO.N,N/C*%
X58951200Y35767800D03*
%TO.P,IC1,35*%
%TO.N,AD9523_OUT10+*%
X59459200Y35767800D03*
%TO.P,IC1,36*%
%TO.N,+1V8_CLOCK*%
X59941800Y35767800D03*
D47*
%TO.P,IC1,37*%
%TO.N,AD9523_OUT9_N*%
X60602200Y36428200D03*
%TO.P,IC1,38*%
%TO.N,AD9523_OUT9_P*%
X60602200Y36910800D03*
%TO.P,IC1,39*%
%TO.N,+3V3_CLOCK*%
X60602200Y37418800D03*
%TO.P,IC1,40*%
%TO.N,AD9523_OUT8_N*%
X60602200Y37926800D03*
%TO.P,IC1,41*%
%TO.N,AD9523_OUT8_P*%
X60602200Y38409400D03*
%TO.P,IC1,42*%
%TO.N,+1V8_CLOCK*%
X60602200Y38917400D03*
%TO.P,IC1,43*%
%TO.N,N/C*%
X60602200Y39425400D03*
%TO.P,IC1,44*%
%TO.N,AD9523_OUT7+*%
X60602200Y39908000D03*
%TO.P,IC1,45*%
%TO.N,+3V3_CLOCK*%
X60602200Y40416000D03*
%TO.P,IC1,46*%
%TO.N,N/C*%
X60602200Y40924000D03*
%TO.P,IC1,47*%
%TO.N,N$62*%
X60602200Y41432000D03*
%TO.P,IC1,48*%
%TO.N,+1V8_CLOCK*%
X60602200Y41914600D03*
%TO.P,IC1,49*%
%TO.N,AD9523_OUT5_N*%
X60602200Y42422600D03*
%TO.P,IC1,50*%
%TO.N,AD9523_OUT5_P*%
X60602200Y42930600D03*
%TO.P,IC1,51*%
%TO.N,+3V3_CLOCK*%
X60602200Y43413200D03*
%TO.P,IC1,52*%
%TO.N,AD9523_OUT4_N*%
X60602200Y43921200D03*
%TO.P,IC1,53*%
%TO.N,AD9523_OUT4_P*%
X60602200Y44429200D03*
%TO.P,IC1,54*%
%TO.N,+1V8_CLOCK*%
X60602200Y44911800D03*
D48*
%TO.P,IC1,55*%
%TO.N,AD9523_STATUS1*%
X59941800Y45572200D03*
%TO.P,IC1,56*%
%TO.N,AD9523_STATUS0*%
X59459200Y45572200D03*
%TO.P,IC1,57*%
%TO.N,AD9523_EEPROM_SEL*%
X58951200Y45572200D03*
%TO.P,IC1,58*%
%TO.N,AD9523_OUT3-*%
X58443200Y45572200D03*
%TO.P,IC1,59*%
%TO.N,AD9523_OUT3+*%
X57960600Y45572200D03*
%TO.P,IC1,60*%
%TO.N,+3V3_CLOCK*%
X57452600Y45572200D03*
%TO.P,IC1,61*%
%TO.N,AD9523_OUT2-*%
X56944600Y45572200D03*
%TO.P,IC1,62*%
%TO.N,AD9523_OUT2+*%
X56462000Y45572200D03*
%TO.P,IC1,63*%
%TO.N,+1V8_CLOCK*%
X55954000Y45572200D03*
%TO.P,IC1,64*%
%TO.N,AD9523_OUT1_N*%
X55446000Y45572200D03*
%TO.P,IC1,65*%
%TO.N,AD9523_OUT1_P*%
X54938000Y45572200D03*
%TO.P,IC1,66*%
%TO.N,+3V3_CLOCK*%
X54455400Y45572200D03*
%TO.P,IC1,67*%
%TO.N,AD9523_OUT0_N*%
X53947400Y45572200D03*
%TO.P,IC1,68*%
%TO.N,AD9523_OUT0_P*%
X53439400Y45572200D03*
%TO.P,IC1,69*%
%TO.N,+1V8_CLOCK*%
X52956800Y45572200D03*
%TO.P,IC1,70*%
%TO.N,N/C*%
X52448800Y45572200D03*
%TO.P,IC1,71*%
X51940800Y45572200D03*
%TO.P,IC1,72*%
%TO.N,N$60*%
X51458200Y45572200D03*
D49*
%TO.P,IC1,73*%
%TO.N,GND*%
X55700000Y40670000D03*
%TD*%
D12*
%TO.P,C5,1*%
%TO.N,GND*%
X49270000Y42390000D03*
%TO.P,C5,2*%
%TO.N,N$6*%
X49770000Y42390000D03*
%TD*%
D50*
%TO.P,C15,1*%
%TO.N,N$63*%
X86130000Y30160000D03*
%TO.P,C15,2*%
%TO.N,AD9523_OUT6+*%
X87430000Y30160000D03*
%TD*%
D35*
%TO.P,X5,1*%
%TO.N,N/C*%
X31580000Y27721100D03*
%TO.P,X5,2*%
%TO.N,GND*%
X36660000Y27721100D03*
%TO.P,X5,3*%
%TO.N,100MHZ_OUT*%
X36660000Y35518900D03*
%TO.P,X5,4*%
%TO.N,+3V3_XO*%
X31580000Y35518900D03*
%TD*%
D14*
%TO.P,C60,1*%
%TO.N,N$24*%
X52950000Y54350000D03*
%TO.P,C60,2*%
%TO.N,GND*%
X52950000Y54850000D03*
%TD*%
%TO.P,C80,1*%
%TO.N,+3V3_LO_1*%
X62250000Y50910000D03*
%TO.P,C80,2*%
%TO.N,GND*%
X62250000Y50410000D03*
%TD*%
%TO.P,C69,1*%
%TO.N,N$39*%
X61190000Y50580000D03*
%TO.P,C69,2*%
%TO.N,AD9523_OUT1_P*%
X61190000Y50080000D03*
%TD*%
%TO.P,C91,1*%
%TO.N,RX_RFOUT_2_P*%
X61970000Y59660000D03*
%TO.P,C91,2*%
%TO.N,N$56*%
X61970000Y60160000D03*
%TD*%
%TO.P,C57,1*%
%TO.N,+3V3_LO_2*%
X51690000Y57350000D03*
%TO.P,C57,2*%
%TO.N,GND*%
X51690000Y57850000D03*
%TD*%
%TO.P,C66,1*%
%TO.N,TX_RFOUT_2_N*%
X49110000Y59690000D03*
%TO.P,C66,2*%
%TO.N,N$33*%
X49110000Y60190000D03*
%TD*%
D12*
%TO.P,C49,1*%
%TO.N,+3V3_LO_1*%
X47860000Y50060000D03*
%TO.P,C49,2*%
%TO.N,GND*%
X48360000Y50060000D03*
%TD*%
D23*
%TO.P,C47,1*%
%TO.N,+3V3_LO_2*%
X29500000Y86700000D03*
%TO.P,C47,2*%
%TO.N,GND*%
X32300000Y86700000D03*
%TD*%
D12*
%TO.P,C35,1*%
%TO.N,+1V8_CLOCK*%
X56960000Y34540000D03*
%TO.P,C35,2*%
%TO.N,GND*%
X57460000Y34540000D03*
%TD*%
D14*
%TO.P,C81,1*%
%TO.N,+3V3_LO_1*%
X62700000Y50910000D03*
%TO.P,C81,2*%
%TO.N,GND*%
X62700000Y50410000D03*
%TD*%
D51*
%TO.P,X4,1*%
%TO.N,N$1*%
X11320000Y58840000D03*
%TO.P,X4,2*%
%TO.N,N/C*%
X11320000Y49950000D03*
%TO.P,X4,3*%
%TO.N,+3V3_XO*%
X11320000Y41060000D03*
%TO.P,X4,4*%
%TO.N,10MHZ_OUT*%
X34820000Y41060000D03*
%TO.P,X4,5*%
%TO.N,GND*%
X34820000Y58840000D03*
%TD*%
D10*
%TO.P,R17,1*%
%TO.N,N$25*%
X52480000Y52595000D03*
%TO.P,R17,2*%
%TO.N,N$24*%
X52480000Y53105000D03*
%TD*%
D11*
%TO.P,R19,1*%
%TO.N,N$21*%
X51365000Y50890000D03*
%TO.P,R19,2*%
%TO.N,N$25*%
X51875000Y50890000D03*
%TD*%
D44*
%TO.P,J2,1*%
%TO.N,N$51*%
X92860000Y49360000D03*
D25*
%TO.P,J2,2*%
%TO.N,GND*%
X90320000Y46820000D03*
%TO.P,J2,3*%
X95400000Y46820000D03*
%TO.P,J2,4*%
X95400000Y51900000D03*
%TO.P,J2,5*%
X90320000Y51900000D03*
%TD*%
D52*
%TO.N,GND*%
X58630000Y49075000D03*
X49550000Y44950000D03*
D53*
X5340000Y69422000D03*
X47390000Y94472000D03*
X48740000Y48972000D03*
X42790000Y39422000D03*
X70240000Y21622000D03*
X82390000Y34472000D03*
X24890000Y39472000D03*
D54*
X48930000Y11610000D03*
D53*
X6840000Y64522000D03*
D55*
X46400000Y53250000D03*
D53*
X87390000Y24472000D03*
D55*
X45150000Y54500000D03*
D53*
X66450000Y23722000D03*
D52*
X64530000Y35250000D03*
X55950000Y35000000D03*
D53*
X48040000Y30822000D03*
D56*
X60810000Y69500000D03*
D53*
X2390000Y64472000D03*
X47040000Y78872000D03*
X51190000Y84522000D03*
D54*
X55900000Y37850000D03*
D53*
X8590000Y49472000D03*
D56*
X72240700Y69140700D03*
D53*
X47090000Y36672000D03*
X55690000Y62922000D03*
X10790000Y76372000D03*
X35090000Y20472000D03*
X33740000Y44922000D03*
X20990000Y24972000D03*
X43290000Y32772000D03*
X97390000Y4472000D03*
X65180000Y29472000D03*
D54*
X21600000Y27000000D03*
X20900000Y96700000D03*
D52*
X62250000Y50050000D03*
D53*
X55640000Y2422000D03*
X73390000Y17522000D03*
X13090000Y78222000D03*
X72340000Y67022000D03*
X40790000Y13972000D03*
D55*
X48950000Y56950000D03*
D53*
X64240000Y2522000D03*
D56*
X53550000Y80700000D03*
D53*
X47890000Y28372000D03*
D56*
X53550000Y71900000D03*
D53*
X6790000Y66272000D03*
X85040000Y23022000D03*
X15240000Y23722000D03*
D54*
X70900000Y88300000D03*
D53*
X76090000Y66622000D03*
X81140000Y71572000D03*
X61740000Y78872000D03*
X77540000Y62522000D03*
X97390000Y94472000D03*
X97390000Y64472000D03*
X40890000Y72272000D03*
D54*
X87600000Y91000000D03*
D56*
X53550000Y69500000D03*
D54*
X55600000Y43150000D03*
D53*
X50840000Y70022000D03*
X27340000Y43272000D03*
X55290000Y49022000D03*
X16740000Y62922000D03*
D52*
X54450000Y47650000D03*
X41250000Y56950000D03*
D53*
X12390000Y54472000D03*
X75340000Y43372000D03*
X60390000Y79772000D03*
D56*
X53550000Y83900000D03*
D53*
X62640000Y2522000D03*
D52*
X50500000Y63850000D03*
D54*
X53200000Y43200000D03*
D53*
X65240000Y72622000D03*
D56*
X72805700Y69705700D03*
D52*
X56750000Y62600000D03*
D53*
X68290000Y70872000D03*
X9540000Y20522000D03*
D54*
X58100000Y43200000D03*
D56*
X53550000Y82300000D03*
D53*
X42290000Y16372000D03*
X48090000Y92722000D03*
D56*
X52330000Y86300000D03*
D53*
X8840000Y61272000D03*
X27390000Y14472000D03*
X9642840Y77086096D03*
X7838793Y77461734D03*
X57390000Y84472000D03*
X71170000Y9092000D03*
X11590000Y24822000D03*
X2340000Y40522000D03*
X72390000Y94472000D03*
D56*
X59590000Y71100000D03*
D53*
X13940000Y62872000D03*
X42630000Y29672000D03*
X47340000Y16822000D03*
D52*
X43650000Y64500000D03*
D55*
X48850000Y53250000D03*
D53*
X3640000Y78872000D03*
D52*
X62900000Y64500000D03*
D53*
X34890000Y69472000D03*
X55340000Y78772000D03*
X71490000Y60572000D03*
D56*
X72510700Y71110700D03*
X46540000Y73100000D03*
D53*
X54240000Y2472000D03*
X87690000Y50372000D03*
D56*
X60940000Y74390000D03*
D52*
X40650000Y55450000D03*
D53*
X84340000Y39172000D03*
X16640000Y69572000D03*
X77390000Y24472000D03*
D56*
X52330000Y72700000D03*
D52*
X44450000Y67050000D03*
X67950000Y65000000D03*
X55550000Y63850000D03*
X56000000Y55400000D03*
D53*
X12440000Y88472000D03*
X38340000Y20522000D03*
D56*
X45000000Y73920000D03*
D53*
X57890000Y91272000D03*
X89990000Y24222000D03*
D52*
X43200000Y57850000D03*
D56*
X46540000Y69900000D03*
D53*
X84890000Y19472000D03*
D52*
X45850000Y57850000D03*
D53*
X2390000Y44472000D03*
D56*
X53550000Y71100000D03*
D53*
X72115000Y37397000D03*
X65140000Y33822000D03*
X36490000Y74122000D03*
D52*
X69550000Y63200000D03*
D53*
X55090000Y76722000D03*
D52*
X51100000Y57850000D03*
D53*
X64790000Y79022000D03*
X89940000Y39122000D03*
D56*
X52330000Y82300000D03*
D55*
X59550000Y57100000D03*
D56*
X73370700Y70270700D03*
D53*
X72190000Y20672000D03*
D52*
X51550000Y68650000D03*
D53*
X5890000Y44072000D03*
X6240000Y15422000D03*
D55*
X63350000Y57000000D03*
D54*
X53350000Y37900000D03*
D52*
X57400000Y50900000D03*
D55*
X60750000Y53150000D03*
D53*
X77390000Y55222000D03*
D52*
X47400000Y57900000D03*
X58600000Y68000000D03*
D56*
X53550000Y84700000D03*
D53*
X4890000Y49472000D03*
X62340000Y68922000D03*
D52*
X60400000Y49200000D03*
D53*
X49490000Y68922000D03*
X14480484Y84899978D03*
X46790000Y44872000D03*
X22390000Y3672000D03*
D56*
X59590000Y71900000D03*
X52330000Y77500000D03*
D54*
X10500000Y26900000D03*
D52*
X62800000Y37425000D03*
D53*
X42390000Y14472000D03*
D55*
X45250000Y53200000D03*
D53*
X47340000Y14322000D03*
D56*
X53550000Y81500000D03*
D52*
X68100000Y55850000D03*
D53*
X85340000Y45322000D03*
D54*
X36450000Y13450000D03*
D55*
X63300000Y53200000D03*
D52*
X56850000Y46300000D03*
D56*
X53670000Y89520000D03*
D53*
X38590000Y48922000D03*
X47890000Y23022000D03*
X66340000Y13822000D03*
X97390000Y44472000D03*
D52*
X53400000Y54800000D03*
D53*
X14317337Y79596531D03*
D52*
X47650000Y37600000D03*
D53*
X35740000Y37822000D03*
X79040000Y69572000D03*
X17390000Y64472000D03*
X37340000Y79522000D03*
D52*
X52550000Y64050000D03*
D56*
X52330000Y76700000D03*
D53*
X98240000Y29522000D03*
X8490000Y62822000D03*
X34640000Y12722000D03*
D56*
X53550000Y70300000D03*
D53*
X79940000Y23222000D03*
D56*
X53550000Y87100000D03*
D52*
X63300000Y41900000D03*
D53*
X17190000Y26472000D03*
X92990000Y69722000D03*
D56*
X45320000Y69100000D03*
D53*
X58340000Y68922000D03*
X84890000Y69472000D03*
D56*
X46540000Y72300000D03*
D55*
X45150000Y57050000D03*
D53*
X70310000Y10052000D03*
X47990000Y85822000D03*
X44940000Y79022000D03*
X67690000Y1822000D03*
X31890000Y74172000D03*
D52*
X48700000Y42400000D03*
D53*
X81790000Y39322000D03*
D52*
X45550000Y64650000D03*
D53*
X72390000Y34472000D03*
X16990000Y79522000D03*
D56*
X53550000Y87900000D03*
D53*
X32440000Y33772000D03*
X78590000Y74972000D03*
X55040000Y71672000D03*
X13340000Y8522000D03*
D56*
X45320000Y72300000D03*
D53*
X55490000Y68822000D03*
D52*
X64150000Y59300000D03*
X60200000Y62000000D03*
D57*
X16350000Y11400000D03*
D53*
X47890000Y32172000D03*
X64290000Y65872000D03*
X54940000Y94972000D03*
D52*
X67550000Y65450000D03*
D53*
X71180000Y11342000D03*
X74590000Y36472000D03*
D52*
X48350000Y38900000D03*
D53*
X65090000Y15572000D03*
D52*
X48400000Y57850000D03*
D53*
X42390000Y64472000D03*
X4890000Y39472000D03*
D56*
X53550000Y78300000D03*
D53*
X29040000Y40472000D03*
D56*
X46540000Y70700000D03*
X52330000Y88700000D03*
D53*
X57790000Y78972000D03*
D52*
X65650000Y51550000D03*
D53*
X20590000Y20572000D03*
D56*
X46540000Y71500000D03*
X59590000Y72700000D03*
D53*
X42440000Y78872000D03*
D52*
X46900000Y57900000D03*
D55*
X63300000Y54300000D03*
D53*
X42390000Y34472000D03*
D56*
X52330000Y83900000D03*
D53*
X13790000Y27922000D03*
D52*
X60650000Y65350000D03*
D54*
X34300000Y90300000D03*
D53*
X73040000Y53522000D03*
D56*
X45320000Y70700000D03*
D52*
X46400000Y42100000D03*
D53*
X97190000Y59422000D03*
X73490000Y65922000D03*
D54*
X25000000Y86400000D03*
D52*
X70650000Y65800000D03*
D53*
X17390000Y24472000D03*
X48090000Y68972000D03*
X12390000Y64472000D03*
D56*
X73935700Y70835700D03*
D53*
X16740000Y71172000D03*
X79890000Y19472000D03*
D52*
X60700000Y35350000D03*
D54*
X45900000Y1500000D03*
D53*
X68140000Y74522000D03*
X40790000Y70022000D03*
X2390000Y54472000D03*
D56*
X45320000Y69900000D03*
X52330000Y79100000D03*
D55*
X62250000Y53150000D03*
D53*
X26090000Y29322000D03*
X4890000Y9472000D03*
X97390000Y74722000D03*
D56*
X71675700Y68575700D03*
D53*
X40190000Y63072000D03*
X37240000Y48772000D03*
X1390000Y14472000D03*
X70040000Y59772000D03*
X23090000Y20222000D03*
D56*
X53550000Y73500000D03*
D53*
X29890000Y29472000D03*
X18240000Y49422000D03*
D52*
X43200000Y57400000D03*
D56*
X52330000Y71100000D03*
X60810000Y72700000D03*
D53*
X65240000Y13772000D03*
X76690000Y68672000D03*
X36840000Y47622000D03*
D56*
X52330000Y87100000D03*
D53*
X54890000Y79472000D03*
D57*
X14600000Y4050000D03*
D54*
X70400000Y1600000D03*
D52*
X65500000Y52950000D03*
X61750000Y57850000D03*
X51100000Y52850000D03*
D56*
X53550000Y76700000D03*
D53*
X59190000Y2272000D03*
X65290000Y68372000D03*
D56*
X60810000Y73500000D03*
D53*
X34890000Y49472000D03*
D52*
X63530000Y38950000D03*
D53*
X6272018Y78431737D03*
X7540000Y72922000D03*
D52*
X53300000Y64750000D03*
D53*
X41590000Y63172000D03*
D56*
X70250000Y68850000D03*
X52330000Y87900000D03*
D53*
X56790000Y68822000D03*
D52*
X51050000Y53850000D03*
D55*
X47850000Y53300000D03*
D53*
X65470000Y28382000D03*
X54240000Y60822000D03*
D52*
X62700000Y50050000D03*
D53*
X65140000Y74422000D03*
X95390000Y69822000D03*
D52*
X52050000Y46350000D03*
D53*
X43990000Y38622000D03*
X92990000Y59672000D03*
X46050000Y9482000D03*
X49890000Y79472000D03*
D52*
X44550000Y59100000D03*
D53*
X65880000Y27182000D03*
D55*
X60750000Y55800000D03*
D52*
X49900000Y34650000D03*
D53*
X11390000Y62872000D03*
D54*
X34400000Y86700000D03*
D53*
X30390000Y44772000D03*
D52*
X48800000Y45750000D03*
D53*
X65290000Y31572000D03*
D54*
X53200000Y40450000D03*
D52*
X69200000Y68750000D03*
D53*
X5294640Y85182559D03*
D52*
X55850000Y56800000D03*
D55*
X46400000Y54450000D03*
D53*
X92640000Y74622000D03*
X2390000Y34472000D03*
X40090000Y64872000D03*
X67390000Y24472000D03*
D52*
X68500000Y65600000D03*
D53*
X57390000Y1672000D03*
X82390000Y44472000D03*
X33040000Y26022000D03*
D55*
X63400000Y55900000D03*
D53*
X4890000Y59472000D03*
D56*
X60810000Y71100000D03*
X53550000Y85500000D03*
D53*
X79590000Y27072000D03*
X66690000Y48872000D03*
X52390000Y94472000D03*
X93140000Y64472000D03*
D56*
X52330000Y78300000D03*
X45320000Y73100000D03*
D53*
X2390000Y74472000D03*
X65230000Y30492000D03*
D52*
X63100000Y43400000D03*
X56450000Y56950000D03*
D53*
X50280000Y2312000D03*
D52*
X65500000Y57850000D03*
D53*
X7390000Y34472000D03*
D56*
X50980000Y73450000D03*
D53*
X70300000Y24242000D03*
D52*
X61200000Y57850000D03*
D53*
X94040000Y54522000D03*
X49490000Y84672000D03*
D52*
X64200000Y50300000D03*
D56*
X46540000Y69100000D03*
D52*
X47900000Y39400000D03*
D53*
X2390000Y4472000D03*
X77440000Y68172000D03*
D52*
X62000000Y66950000D03*
X58600000Y67100000D03*
D53*
X42940000Y37272000D03*
X92440000Y35272000D03*
D56*
X74670700Y71280700D03*
D53*
X98140000Y34672000D03*
X72390000Y14472000D03*
X17390000Y44472000D03*
X37390000Y14472000D03*
D54*
X35500000Y1400000D03*
X15700000Y86400000D03*
D52*
X45550000Y65350000D03*
D57*
X13850000Y23750000D03*
D53*
X32290000Y48772000D03*
X47390000Y84472000D03*
D55*
X49000000Y55850000D03*
D53*
X4931493Y79929112D03*
D52*
X58000000Y46300000D03*
X47500000Y34600000D03*
D55*
X47800000Y55850000D03*
D56*
X52330000Y75100000D03*
D52*
X48650000Y40400000D03*
X63455000Y37325000D03*
X54300000Y68650000D03*
D53*
X87490000Y53972000D03*
X82390000Y14472000D03*
D52*
X60200000Y57850000D03*
D53*
X77390000Y34472000D03*
X9890000Y9472000D03*
D54*
X58300000Y37800000D03*
D53*
X2390000Y84472000D03*
X5740000Y20122000D03*
D56*
X60810000Y71900000D03*
D53*
X17390000Y54472000D03*
X50940000Y74422000D03*
D54*
X55650000Y40600000D03*
D56*
X52330000Y83100000D03*
D53*
X8140000Y87522000D03*
D56*
X60810000Y70300000D03*
D53*
X6521975Y86557093D03*
D56*
X59420000Y74370000D03*
D53*
X82390000Y74472000D03*
X49040000Y78822000D03*
X52390000Y74472000D03*
D56*
X53550000Y86300000D03*
D53*
X32390000Y84472000D03*
D52*
X41700000Y61950000D03*
D53*
X54690000Y61522000D03*
D56*
X59590000Y68700000D03*
D52*
X50000000Y51300000D03*
X57500000Y35000000D03*
D53*
X69140000Y69922000D03*
D56*
X52230000Y89530000D03*
D52*
X44200000Y46725000D03*
X65450000Y53850000D03*
D53*
X40840000Y80022000D03*
D52*
X48700000Y36300000D03*
D53*
X12390000Y14472000D03*
X97390000Y24472000D03*
D56*
X71380700Y69980700D03*
D52*
X53300000Y64050000D03*
X47300000Y68200000D03*
D56*
X52330000Y85500000D03*
D53*
X41990000Y68822000D03*
X64890000Y89472000D03*
X72920000Y10682000D03*
D52*
X7400000Y60700000D03*
D53*
X15690000Y72772000D03*
D52*
X45875000Y46675000D03*
D53*
X13339959Y86347353D03*
X12590000Y26872000D03*
X74190000Y79022000D03*
X37140000Y63022000D03*
D52*
X51100000Y52350000D03*
D53*
X97390000Y54472000D03*
X62390000Y84472000D03*
X76890000Y28122000D03*
X72440000Y43172000D03*
X65240000Y36122000D03*
X65290000Y40122000D03*
X74890000Y49472000D03*
X62640000Y89422000D03*
X42390000Y84472000D03*
X50890000Y71472000D03*
D55*
X46550000Y55850000D03*
D53*
X55040000Y74372000D03*
D52*
X52550000Y64750000D03*
D53*
X49840000Y94722000D03*
X11773184Y87317356D03*
X19890000Y39472000D03*
X16840000Y65672000D03*
X47890000Y90322000D03*
X7390000Y4472000D03*
X63890000Y64822000D03*
D56*
X46830000Y73920000D03*
D53*
X65240000Y76422000D03*
D56*
X45320000Y71500000D03*
D53*
X68390000Y73322000D03*
D52*
X77800000Y52600000D03*
D53*
X49690000Y64472000D03*
X92390000Y44472000D03*
D52*
X61300000Y40950000D03*
D55*
X59600000Y53200000D03*
D53*
X46880000Y10492000D03*
X17540000Y2722000D03*
X16790000Y77072000D03*
X72390000Y44472000D03*
D52*
X48350000Y51200000D03*
D53*
X23240000Y36722000D03*
D55*
X60800000Y57050000D03*
D52*
X65500000Y52500000D03*
D53*
X82390000Y94472000D03*
X25790000Y25422000D03*
X62390000Y94472000D03*
D52*
X61400000Y35250000D03*
D54*
X81300000Y1400000D03*
D53*
X6045412Y87678956D03*
D56*
X52330000Y80700000D03*
D52*
X50300000Y35150000D03*
D53*
X55890000Y65022000D03*
X57840000Y89672000D03*
D52*
X59850000Y65350000D03*
D53*
X56640000Y64322000D03*
X87390000Y94472000D03*
X14890000Y59472000D03*
D52*
X50300000Y50350000D03*
D56*
X52330000Y71900000D03*
X52330000Y73500000D03*
D52*
X64250000Y56850000D03*
X46350000Y51000000D03*
X58650000Y59100000D03*
D56*
X71110000Y68010000D03*
D52*
X71050000Y67000000D03*
X68700000Y55600000D03*
D56*
X60810000Y68700000D03*
D52*
X48700000Y43400000D03*
D53*
X47340000Y19322000D03*
X77390000Y94472000D03*
D52*
X44500000Y68250000D03*
D53*
X47340000Y21822000D03*
X52540000Y95772000D03*
X57440000Y94972000D03*
X32640000Y25322000D03*
X17390000Y14472000D03*
X82240000Y55172000D03*
X68040000Y13822000D03*
D55*
X62200000Y54350000D03*
D53*
X55140000Y84372000D03*
D56*
X52330000Y79900000D03*
D52*
X60650000Y64600000D03*
D55*
X62100000Y57050000D03*
X60800000Y54450000D03*
D53*
X87390000Y34472000D03*
D52*
X51500000Y66450000D03*
D53*
X98590000Y49372000D03*
D55*
X59550000Y54550000D03*
D53*
X57840000Y87122000D03*
D56*
X73640700Y72240700D03*
D52*
X56250000Y52350000D03*
D53*
X15030000Y28342000D03*
D52*
X63050000Y39100000D03*
D53*
X82540000Y49572000D03*
X94890000Y9472000D03*
D52*
X46250000Y65350000D03*
D53*
X52890000Y2422000D03*
X70440000Y75222000D03*
D52*
X60700000Y51250000D03*
D55*
X48900000Y54450000D03*
D53*
X60040000Y2272000D03*
D52*
X57850000Y64450000D03*
D53*
X22390000Y24472000D03*
X67390000Y94472000D03*
X74040000Y59522000D03*
D52*
X62700000Y57850000D03*
D53*
X7390000Y74472000D03*
D56*
X52330000Y75900000D03*
D52*
X48550000Y64500000D03*
D56*
X52330000Y70300000D03*
D54*
X26500000Y88400000D03*
D53*
X48790000Y63022000D03*
D56*
X53550000Y79900000D03*
D53*
X47790000Y88222000D03*
X31940000Y64522000D03*
X82390000Y24472000D03*
X48840000Y2212000D03*
D57*
X16450000Y23750000D03*
D53*
X2640000Y29722000D03*
D52*
X42550000Y51400000D03*
D56*
X53550000Y79100000D03*
D52*
X61200000Y45400000D03*
D53*
X29890000Y49472000D03*
D52*
X51140000Y59300000D03*
D58*
X34650000Y64900000D03*
D53*
X35440000Y25772000D03*
D52*
X61480000Y39400000D03*
D56*
X59590000Y73500000D03*
D53*
X4611440Y83471150D03*
X65970000Y26032000D03*
D52*
X62750000Y60550000D03*
D53*
X86340000Y50472000D03*
X9969137Y87692993D03*
X71590000Y76822000D03*
D55*
X59600000Y55800000D03*
D53*
X29940000Y20472000D03*
X43190000Y68972000D03*
D52*
X61850000Y68000000D03*
D53*
X6890000Y68872000D03*
D55*
X47800000Y54400000D03*
D53*
X77390000Y14472000D03*
X57990000Y85222000D03*
D56*
X73075700Y71675700D03*
D53*
X75840000Y77622000D03*
X2390000Y24472000D03*
D56*
X71945700Y70545700D03*
D53*
X12540000Y72922000D03*
D56*
X53550000Y72700000D03*
D52*
X67900000Y66100000D03*
D56*
X52330000Y84700000D03*
D52*
X45850000Y61600000D03*
X49650000Y48950000D03*
D53*
X41290000Y38822000D03*
X51040000Y76072000D03*
X65940000Y2472000D03*
D56*
X52330000Y81500000D03*
D53*
X17390000Y74472000D03*
X12390000Y74472000D03*
D56*
X59590000Y70300000D03*
D52*
X48350000Y60500000D03*
D55*
X45200000Y55900000D03*
D53*
X68440000Y59422000D03*
X60540000Y89472000D03*
D52*
X68200000Y68300000D03*
D53*
X23340000Y14522000D03*
X40890000Y74372000D03*
X92390000Y24472000D03*
D52*
X59850000Y64600000D03*
D53*
X79540000Y64772000D03*
X39890000Y29472000D03*
X39940000Y21572000D03*
X2390000Y94472000D03*
X24890000Y49472000D03*
X87390000Y44472000D03*
X62690000Y62972000D03*
X12390000Y44472000D03*
D52*
X62855000Y35325000D03*
D53*
X32040000Y43522000D03*
X99040000Y13722000D03*
X71640000Y59522000D03*
X72390000Y24472000D03*
D52*
X47200000Y66950000D03*
D53*
X8190000Y25022000D03*
D52*
X51100000Y56850000D03*
D53*
X4554781Y81629281D03*
X6240000Y38172000D03*
D56*
X53550000Y83100000D03*
D53*
X31890000Y70172000D03*
X81440000Y57672000D03*
X62390000Y34472000D03*
D56*
X53550000Y77500000D03*
D53*
X47340000Y11822000D03*
X40890000Y76122000D03*
X43140000Y62922000D03*
X9940000Y72822000D03*
X79190000Y57722000D03*
D56*
X59590000Y69500000D03*
D53*
X42140000Y21772000D03*
X71840000Y53072000D03*
D57*
X32000000Y12950000D03*
D53*
X14890000Y49472000D03*
D52*
X53900000Y51550000D03*
D53*
X42540000Y31472000D03*
X12390000Y4472000D03*
X37390000Y84472000D03*
X69890000Y79472000D03*
D56*
X52330000Y69500000D03*
D54*
X38250000Y25750000D03*
D53*
X66390000Y39572000D03*
X94890000Y39122000D03*
D56*
X70815700Y69415700D03*
D53*
X65140000Y70672000D03*
X72240000Y32572000D03*
X71440000Y61872000D03*
X47940000Y29372000D03*
D56*
X53550000Y75900000D03*
X53550000Y75100000D03*
D53*
X29140000Y32972000D03*
D52*
X57550000Y57900000D03*
X65650000Y66950000D03*
D53*
X77890000Y64872000D03*
D56*
X53550000Y88700000D03*
D53*
X22390000Y43422000D03*
X11466565Y77350134D03*
X92390000Y94472000D03*
X50940000Y77822000D03*
X70690000Y64822000D03*
D54*
X69070000Y11730000D03*
X58200000Y40600000D03*
D53*
X7390000Y54472000D03*
X72290000Y49372000D03*
D55*
X47800000Y57000000D03*
D52*
X59000000Y35000000D03*
D56*
X53550000Y74300000D03*
D53*
X6740000Y71022000D03*
X40890000Y78072000D03*
D52*
X65500000Y49150000D03*
X48700000Y41900000D03*
D53*
X43890000Y45072000D03*
D55*
X46400000Y57050000D03*
D53*
X66990000Y53572000D03*
D52*
X46250000Y64650000D03*
D53*
X4890000Y89472000D03*
X27440000Y48572000D03*
D52*
X54200000Y66450000D03*
D53*
X39890000Y69472000D03*
D55*
X62200000Y55850000D03*
D52*
%TO.N,+3V3_LO_2*%
X60200000Y59950000D03*
X48350000Y58950000D03*
X62700000Y58950000D03*
X51050000Y54400000D03*
X57800000Y59150000D03*
X51090000Y57360000D03*
X45850000Y59950000D03*
X43960000Y59060000D03*
X64900000Y59250000D03*
X51020000Y58830000D03*
X65510000Y54400000D03*
X65500000Y57350000D03*
D54*
X27400000Y86600000D03*
D52*
%TO.N,ADF4382_TX_DELSTR*%
X42700000Y55985000D03*
%TO.N,+3V3_LO_1*%
X60200000Y51250000D03*
X57600000Y52500000D03*
X40850000Y54400000D03*
D54*
X22900000Y85800000D03*
D52*
X62200000Y51250000D03*
X62700000Y51250000D03*
X65300000Y53390000D03*
X42900000Y55450000D03*
X56300000Y53900000D03*
X51100000Y53350000D03*
X47850000Y51200000D03*
X43050000Y52300000D03*
X57250000Y55350000D03*
X41800000Y53850000D03*
X45850000Y50950000D03*
%TO.N,+1V8_CLOCK*%
X52850000Y46350000D03*
X56950000Y35000000D03*
X55950000Y46350000D03*
X61450000Y41900000D03*
X61500000Y38950000D03*
D54*
X67410000Y10310000D03*
D52*
X60300000Y35000000D03*
X61400000Y44900000D03*
%TO.N,+3V3_CLOCK*%
X61350000Y40400000D03*
X58450000Y35000000D03*
X54450000Y46250000D03*
X57450000Y46350000D03*
D54*
X48920000Y9500000D03*
D52*
X61350000Y37420000D03*
X55450000Y35000000D03*
X50800000Y35150000D03*
X49800000Y44450000D03*
X61400000Y43400000D03*
X49950000Y38900000D03*
%TO.N,ADF4382_RX_LKDET*%
X57600000Y57200000D03*
%TO.N,AD9523_OUT8_N*%
X59807500Y48950000D03*
X63525000Y37838000D03*
%TO.N,ADF4382_RX_DELSTR*%
X56900000Y55870000D03*
%TO.N,AD9523_OUT9_N*%
X63377000Y35300000D03*
X45323000Y46900000D03*
%TO.N,ADF4382_RX_CE*%
X57050000Y54870000D03*
D53*
%TO.N,+5V0_LO*%
X54975000Y60775000D03*
X69250000Y59700000D03*
D54*
X70900000Y86100000D03*
D52*
%TO.N,ADF4382_TX_CE*%
X42950000Y54870000D03*
%TO.N,AD9523_OUT8_P*%
X59197500Y48950000D03*
X63525000Y38448000D03*
%TO.N,AD9523_OUT9_P*%
X44713000Y46900000D03*
X63987000Y35300000D03*
%TO.N,ADF4382_TX_DELADJ*%
X43200000Y56370000D03*
%TO.N,AD9523_PD*%
X47400000Y31550000D03*
%TO.N,AD9523_REF_SEL*%
X49250000Y36900000D03*
%TO.N,AD9523_SYNC*%
X47775000Y35125000D03*
%TO.N,AD9523_RESET*%
X26750000Y13550000D03*
%TO.N,AD9523_STATUS0*%
X59100000Y46900000D03*
%TO.N,AD9523_STATUS1*%
X59900000Y46300000D03*
X14650000Y4700000D03*
%TO.N,AD9523_EEPROM_SEL*%
X58650000Y46500000D03*
%TO.N,ADF4382_RX_DELADJ*%
X57550000Y56370000D03*
%TO.N,ADF4382_TX_LKDET*%
X43200000Y56870000D03*
%TO.N,ADF4382_TX_CS*%
X43000000Y54345000D03*
%TO.N,ADF4382_SDIO*%
X57500000Y53900000D03*
X43200000Y53850000D03*
%TO.N,ADF4382_SCLK*%
X43200000Y53350000D03*
X57400000Y53250000D03*
%TO.N,ADF4382_SDO*%
X56900000Y52850000D03*
X43100000Y52850000D03*
%TO.N,ADF4382_RX_CS*%
X57350000Y54415000D03*
%TO.N,OSC_CTRL*%
X34200000Y14350000D03*
D53*
X46450000Y41400000D03*
D52*
%TO.N,N$51*%
X77210000Y52040000D03*
X57470000Y50150000D03*
%TD*%
%TO.N,GND*%
D59*
X61410000Y34740000D02*
X61400000Y34750000D01*
X61300000Y45500000D02*
X61200000Y45400000D01*
D60*
X51620000Y52850000D02*
X51640000Y52870000D01*
D59*
X61350000Y40900000D02*
X61300000Y40950000D01*
X54480000Y47150000D02*
X54480000Y47620000D01*
D61*
X7380000Y60680000D02*
X7400000Y60700000D01*
D60*
X56670000Y52330000D02*
X56270000Y52330000D01*
D59*
X55950000Y35000000D02*
X55950000Y34580000D01*
D60*
X59150000Y59100000D02*
X58650000Y59100000D01*
D61*
X7380000Y59975000D02*
X7380000Y60680000D01*
D62*
X36450000Y13450000D02*
X36450000Y16031100D01*
D60*
X69550000Y63261575D02*
X69550000Y63200000D01*
X51050000Y53850000D02*
X50365800Y53850000D01*
X64230000Y51894200D02*
X65305800Y51894200D01*
D63*
X65050000Y49140000D02*
X65060000Y49150000D01*
D64*
X67910000Y65620000D02*
X68480000Y65620000D01*
D59*
X59000000Y34570000D02*
X58960000Y34530000D01*
D60*
X69200000Y68729996D02*
X69200000Y68750000D01*
X43874200Y57850000D02*
X43200000Y57850000D01*
X64725800Y53850000D02*
X64705800Y53870000D01*
X63740000Y50410000D02*
X63850000Y50300000D01*
X48350000Y51200000D02*
X48360000Y51190000D01*
X50365800Y53850000D02*
X50345800Y53870000D01*
D59*
X63090000Y43410000D02*
X63100000Y43400000D01*
D62*
X36450000Y16031100D02*
X36410000Y16071100D01*
D64*
X60210000Y65000000D02*
X60200000Y65000000D01*
D60*
X69292959Y66284537D02*
X69777496Y65800000D01*
X62892000Y64492000D02*
X62900000Y64500000D01*
D64*
X52910000Y64380000D02*
X52580000Y64050000D01*
D61*
X31990000Y13520000D02*
X31990000Y12960000D01*
D64*
X45275000Y55900000D02*
X45200000Y55900000D01*
D60*
X50345800Y57870000D02*
X51080000Y57870000D01*
D62*
X36660000Y27721100D02*
X36660000Y27340000D01*
D60*
X46900000Y58273375D02*
X46900000Y57900000D01*
D59*
X49210000Y45720000D02*
X49180000Y45750000D01*
D60*
X58254200Y57370000D02*
X58254200Y57870000D01*
X68574537Y64237037D02*
X69550000Y63261575D01*
D64*
X45807500Y56432500D02*
X45275000Y55900000D01*
D60*
X64705800Y52370000D02*
X65370000Y52370000D01*
X41945000Y55475000D02*
X41980000Y55440000D01*
X44750000Y68000000D02*
X45287700Y68000000D01*
X50345800Y52870000D02*
X50365800Y52850000D01*
X58650000Y59100000D02*
X58650000Y59310000D01*
X58762200Y64492000D02*
X58720200Y64450000D01*
X44562975Y59087025D02*
X44550000Y59100000D01*
D65*
X21000000Y29100000D02*
X21000000Y27600000D01*
D60*
X52950000Y54850000D02*
X53350000Y54850000D01*
D65*
X32300000Y86700000D02*
X34400000Y86700000D01*
D61*
X62795000Y37420000D02*
X62800000Y37425000D01*
D60*
X53418000Y65827800D02*
X53577800Y65827800D01*
X66000000Y52960000D02*
X65990000Y52950000D01*
D59*
X62450000Y38960000D02*
X62590000Y39100000D01*
D60*
X56830000Y62520000D02*
X56750000Y62600000D01*
D61*
X16420000Y23720000D02*
X16450000Y23750000D01*
D60*
X48370000Y60160000D02*
X48350000Y60180000D01*
X65450000Y53850000D02*
X64725800Y53850000D01*
D62*
X38250000Y25750000D02*
X36660000Y27340000D01*
D60*
X59049800Y67100000D02*
X59702000Y66447800D01*
D59*
X59000000Y35000000D02*
X59000000Y34570000D01*
D60*
X42560000Y51410000D02*
X42550000Y51400000D01*
X60700000Y51250000D02*
X60700000Y51864200D01*
D65*
X10000000Y27400000D02*
X10500000Y26900000D01*
D64*
X60167500Y56432500D02*
X60167500Y56367500D01*
D60*
X50365800Y52850000D02*
X51100000Y52850000D01*
D59*
X48660000Y40390000D02*
X48650000Y40400000D01*
D60*
X64685800Y56850000D02*
X64250000Y56850000D01*
X51120000Y53920000D02*
X51050000Y53850000D01*
X58720200Y64450000D02*
X57850000Y64450000D01*
X61200000Y57850000D02*
X61200000Y58273375D01*
X51500000Y66450000D02*
X52122200Y65827800D01*
X57580000Y57870000D02*
X58254200Y57870000D01*
X56020000Y55380000D02*
X56000000Y55400000D01*
X42560000Y51820000D02*
X42560000Y51410000D01*
D65*
X87700000Y88700000D02*
X87600000Y88800000D01*
X21000000Y27600000D02*
X21600000Y27000000D01*
X35500000Y3400000D02*
X35500000Y1400000D01*
D60*
X51440200Y63850000D02*
X51462200Y63872000D01*
X41340000Y55475000D02*
X41945000Y55475000D01*
D65*
X35400000Y3500000D02*
X35500000Y3400000D01*
D60*
X52287700Y68650000D02*
X51550000Y68650000D01*
X59577700Y68000000D02*
X58600000Y68000000D01*
X48360000Y50540000D02*
X48360000Y50060000D01*
X59230000Y58345800D02*
X59230000Y59020000D01*
X41340000Y55475000D02*
X40675000Y55475000D01*
X48720000Y37600000D02*
X47650000Y37600000D01*
X56370000Y55380000D02*
X56020000Y55380000D01*
X47300000Y68200000D02*
X47100000Y68000000D01*
D59*
X48390000Y38860000D02*
X48350000Y38900000D01*
D61*
X13820000Y23720000D02*
X13850000Y23750000D01*
D65*
X20900000Y96700000D02*
X18300000Y96700000D01*
D60*
X59230000Y59020000D02*
X59150000Y59100000D01*
X48542000Y64492000D02*
X48550000Y64500000D01*
X48350000Y60180000D02*
X48350000Y60500000D01*
D64*
X60167500Y56367500D02*
X59600000Y55800000D01*
D60*
X41775000Y56950000D02*
X41780000Y56945000D01*
X65510000Y53910000D02*
X66100000Y53910000D01*
D59*
X63280000Y41880000D02*
X63300000Y41900000D01*
D65*
X18000000Y85700000D02*
X16400000Y85700000D01*
D64*
X55700000Y40650000D02*
X55650000Y40600000D01*
D60*
X56925000Y56950000D02*
X56450000Y56950000D01*
D65*
X81200000Y3500000D02*
X81300000Y3400000D01*
D60*
X66040000Y57860000D02*
X66030000Y57850000D01*
D66*
X34650000Y59010000D02*
X34650000Y64900000D01*
D59*
X52080000Y46380000D02*
X52050000Y46350000D01*
D60*
X63950000Y58800000D02*
X63730000Y58580000D01*
D59*
X57460000Y34540000D02*
X57460000Y34960000D01*
D60*
X46350000Y51000000D02*
X46350000Y50530000D01*
D59*
X49910000Y34640000D02*
X49900000Y34650000D01*
D65*
X81300000Y3400000D02*
X81300000Y1400000D01*
D60*
X51080000Y52370000D02*
X51100000Y52350000D01*
X53910000Y52040000D02*
X53910000Y51560000D01*
X68200000Y67377496D02*
X68200000Y68300000D01*
X49270000Y42390000D02*
X48710000Y42390000D01*
D59*
X58000000Y46300000D02*
X58000000Y46790000D01*
D64*
X62792500Y56432500D02*
X62792500Y56442500D01*
D60*
X69649965Y68280031D02*
X69200000Y68729996D01*
D65*
X70500000Y3600000D02*
X70500000Y1700000D01*
D60*
X41750000Y60757000D02*
X41700000Y60807000D01*
X45402000Y66447800D02*
X45052200Y66447800D01*
X65450000Y53850000D02*
X65510000Y53910000D01*
X63950000Y59100000D02*
X63950000Y58800000D01*
X46418000Y66447800D02*
X46697800Y66447800D01*
X64705800Y52870000D02*
X64785800Y52950000D01*
D65*
X45900000Y3900000D02*
X45900000Y1500000D01*
D64*
X48850000Y53390000D02*
X48850000Y53250000D01*
D60*
X50000000Y51300000D02*
X49870000Y51430000D01*
X45840000Y61250000D02*
X45840000Y61575859D01*
X47100000Y68000000D02*
X46532300Y68000000D01*
X69777496Y65800000D02*
X70650000Y65800000D01*
X60200000Y58315800D02*
X60230000Y58345800D01*
X53350000Y54850000D02*
X53400000Y54800000D01*
D59*
X61840000Y40900000D02*
X61350000Y40900000D01*
D64*
X68480000Y65620000D02*
X68500000Y65600000D01*
D60*
X70650034Y67399965D02*
X71050000Y67000000D01*
D64*
X48432500Y53807500D02*
X48850000Y53390000D01*
D60*
X60718000Y66447800D02*
X61220200Y66950000D01*
D61*
X16420000Y22955000D02*
X16420000Y23720000D01*
D60*
X65650000Y66950000D02*
X65861575Y66950000D01*
X49250000Y41900000D02*
X48700000Y41900000D01*
X61730000Y57898284D02*
X61730000Y58345800D01*
X51620000Y53920000D02*
X51120000Y53920000D01*
X51100000Y52850000D02*
X51620000Y52850000D01*
X53592300Y68650000D02*
X54300000Y68650000D01*
X43894200Y57870000D02*
X43874200Y57850000D01*
X44454200Y64500000D02*
X44462200Y64492000D01*
X52317700Y68680000D02*
X52287700Y68650000D01*
D59*
X49260000Y40390000D02*
X48660000Y40390000D01*
D60*
X68700000Y55210000D02*
X68700000Y55600000D01*
D65*
X16400000Y85700000D02*
X15700000Y86400000D01*
D60*
X56270000Y52330000D02*
X56250000Y52350000D01*
D59*
X48380000Y39420000D02*
X47920000Y39420000D01*
D60*
X60200000Y57850000D02*
X60200000Y58315800D01*
X56940000Y56965000D02*
X56925000Y56950000D01*
D64*
X48432500Y56432500D02*
X48950000Y56950000D01*
D60*
X50500000Y63850000D02*
X51440200Y63850000D01*
X53577800Y65827800D02*
X54200000Y66450000D01*
X47357800Y64492000D02*
X48542000Y64492000D01*
D65*
X87600000Y88800000D02*
X87600000Y91000000D01*
D59*
X49230000Y43390000D02*
X48710000Y43390000D01*
X48710000Y42390000D02*
X48700000Y42400000D01*
D60*
X64150000Y59510000D02*
X64470000Y59830000D01*
D59*
X49180000Y45750000D02*
X48800000Y45750000D01*
D60*
X70530031Y67399965D02*
X70650034Y67399965D01*
D59*
X48710000Y43390000D02*
X48700000Y43400000D01*
D64*
X45910000Y65000000D02*
X45560000Y64650000D01*
D60*
X64785800Y52950000D02*
X65500000Y52950000D01*
X50000000Y59300000D02*
X51140000Y59300000D01*
X44500000Y68250000D02*
X44750000Y68000000D01*
X49650000Y49320000D02*
X49650000Y48950000D01*
D64*
X52580000Y64050000D02*
X52550000Y64050000D01*
D60*
X51610000Y59440000D02*
X51280000Y59440000D01*
D59*
X56810000Y46730000D02*
X56850000Y46690000D01*
D60*
X55840000Y56415000D02*
X55840000Y56790000D01*
X49370000Y58345800D02*
X49370000Y58670000D01*
D64*
X45807500Y53807500D02*
X45842500Y53807500D01*
D59*
X56850000Y46690000D02*
X56850000Y46300000D01*
D60*
X44460000Y59317278D02*
X44460000Y59600000D01*
X64150000Y59300000D02*
X63950000Y59100000D01*
X47400000Y58273375D02*
X47400000Y57900000D01*
D59*
X49120000Y44950000D02*
X49550000Y44950000D01*
D64*
X45560000Y64650000D02*
X45550000Y64650000D01*
X60200000Y65000000D02*
X59850000Y65350000D01*
D60*
X48400000Y58273375D02*
X48400000Y57850000D01*
X53562300Y68680000D02*
X53592300Y68650000D01*
D59*
X62310000Y43410000D02*
X63090000Y43410000D01*
D60*
X41700000Y60807000D02*
X41700000Y61950000D01*
X64725800Y57850000D02*
X64705800Y57870000D01*
X49370000Y58670000D02*
X50000000Y59300000D01*
D63*
X65060000Y49150000D02*
X65500000Y49150000D01*
D61*
X16370000Y11420000D02*
X16350000Y11400000D01*
D60*
X56830000Y61487000D02*
X56830000Y62520000D01*
X63850000Y50300000D02*
X64200000Y50300000D01*
D61*
X62380000Y37420000D02*
X62795000Y37420000D01*
D65*
X18300000Y96700000D02*
X18100000Y96500000D01*
D59*
X62590000Y39100000D02*
X63050000Y39100000D01*
D60*
X60750000Y53150000D02*
X60167500Y53732500D01*
X61657800Y64492000D02*
X62892000Y64492000D01*
X64705800Y56870000D02*
X64685800Y56850000D01*
X49860000Y50370000D02*
X50280000Y50370000D01*
X57550000Y57900000D02*
X57580000Y57870000D01*
D64*
X62792500Y56442500D02*
X63350000Y57000000D01*
D60*
X46697800Y66447800D02*
X47200000Y66950000D01*
D59*
X47920000Y39420000D02*
X47900000Y39400000D01*
D60*
X60200000Y61250000D02*
X60200000Y62000000D01*
X49870000Y51430000D02*
X49870000Y51894200D01*
D59*
X62510000Y41880000D02*
X63280000Y41880000D01*
D60*
X40675000Y55475000D02*
X40650000Y55450000D01*
D59*
X61400000Y34750000D02*
X61400000Y35250000D01*
D60*
X64150000Y59300000D02*
X64150000Y59510000D01*
X51080000Y57870000D02*
X51100000Y57850000D01*
D65*
X70500000Y1700000D02*
X70400000Y1600000D01*
D60*
X60167500Y53807500D02*
X60167500Y53732500D01*
X50345800Y52370000D02*
X51080000Y52370000D01*
X60720000Y51230000D02*
X60700000Y51250000D01*
X65305800Y51894200D02*
X65650000Y51550000D01*
D59*
X50320000Y34640000D02*
X49910000Y34640000D01*
D65*
X10000000Y29200000D02*
X10000000Y27400000D01*
D60*
X62250000Y50050000D02*
X62250000Y50410000D01*
X63730000Y58580000D02*
X63730000Y58345800D01*
X51080000Y56870000D02*
X51100000Y56850000D01*
X65990000Y52950000D02*
X65500000Y52950000D01*
X41250000Y56950000D02*
X41775000Y56950000D01*
X46350000Y50530000D02*
X46360000Y50520000D01*
D59*
X58000000Y46790000D02*
X57960000Y46830000D01*
D60*
X60822300Y68000000D02*
X61850000Y68000000D01*
X58600000Y67100000D02*
X59049800Y67100000D01*
X48360000Y51190000D02*
X48360000Y50540000D01*
X51280000Y59440000D02*
X51140000Y59300000D01*
X68100000Y55850000D02*
X67630000Y55850000D01*
X46370000Y51894200D02*
X46370000Y51020000D01*
X52122200Y65827800D02*
X52402000Y65827800D01*
X65500000Y57850000D02*
X64725800Y57850000D01*
D59*
X61850000Y45500000D02*
X61300000Y45500000D01*
D60*
X60720000Y50840000D02*
X60720000Y51230000D01*
D59*
X54480000Y47620000D02*
X54450000Y47650000D01*
X57460000Y34960000D02*
X57500000Y35000000D01*
D64*
X45842500Y53807500D02*
X46400000Y53250000D01*
D60*
X62700000Y57850000D02*
X62700000Y58273375D01*
X53910000Y51560000D02*
X53900000Y51550000D01*
X43894200Y57370000D02*
X43230000Y57370000D01*
D59*
X52080000Y46820000D02*
X52080000Y46380000D01*
D60*
X55528000Y63872000D02*
X55550000Y63850000D01*
X50345800Y56870000D02*
X51080000Y56870000D01*
X68574537Y67002959D02*
X68200000Y67377496D01*
D59*
X49070000Y44900000D02*
X49120000Y44950000D01*
D60*
X55840000Y56790000D02*
X55850000Y56800000D01*
D64*
X63285000Y54300000D02*
X63300000Y54300000D01*
D60*
X50280000Y50370000D02*
X50300000Y50350000D01*
X65861575Y66950000D02*
X66527037Y66284537D01*
D61*
X16370000Y12065000D02*
X16370000Y11420000D01*
D60*
X46370000Y51020000D02*
X46350000Y51000000D01*
X67630000Y55850000D02*
X67620000Y55860000D01*
D59*
X48950000Y38860000D02*
X48390000Y38860000D01*
D60*
X62700000Y50050000D02*
X62700000Y50410000D01*
X51690000Y57850000D02*
X51100000Y57850000D01*
X62750000Y60550000D02*
X62750000Y60280709D01*
D59*
X55950000Y34580000D02*
X55910000Y34540000D01*
D60*
X43230000Y57370000D02*
X43200000Y57400000D01*
D64*
X55700000Y40670000D02*
X55700000Y40650000D01*
D60*
X45850000Y57850000D02*
X45850000Y58297515D01*
X66030000Y57850000D02*
X65500000Y57850000D01*
X58650000Y59310000D02*
X58320000Y59640000D01*
X43650000Y64500000D02*
X44454200Y64500000D01*
D65*
X34300000Y92400000D02*
X34300000Y90300000D01*
D60*
X48760000Y37640000D02*
X48720000Y37600000D01*
D61*
X32000000Y12950000D02*
X31990000Y12960000D01*
X13820000Y22945000D02*
X13820000Y23720000D01*
D60*
X54357800Y63872000D02*
X55528000Y63872000D01*
X61220200Y66950000D02*
X62000000Y66950000D01*
X60700000Y51864200D02*
X60730000Y51894200D01*
D64*
X62792500Y53807500D02*
X63285000Y54300000D01*
D59*
X49270000Y41920000D02*
X49250000Y41900000D01*
D65*
X34820000Y58840000D02*
X34650000Y59010000D01*
D60*
X45052200Y66447800D02*
X44450000Y67050000D01*
X48370000Y58345800D02*
G75*
G02*
X48399989Y58273375I-72400J-72400D01*
G01*
X47370000Y58345800D02*
G75*
G02*
X47399989Y58273375I-72400J-72400D01*
G01*
X44550000Y59100000D02*
G75*
G02*
X44459991Y59317278I217300J217300D01*
G01*
X45850000Y58297515D02*
G75*
G02*
X45870005Y58345795I68300J-15D01*
G01*
X45840000Y61575859D02*
G75*
G02*
X45849988Y61600012I34100J41D01*
G01*
X62700000Y58273375D02*
G75*
G02*
X62729992Y58345808I102400J25D01*
G01*
X61750000Y57850000D02*
G75*
G02*
X61729993Y57898284I48300J48300D01*
G01*
X65370000Y52370000D02*
G75*
G03*
X65500000Y52500000I0J130000D01*
G01*
X61200000Y58273375D02*
G75*
G02*
X61229992Y58345808I102400J25D01*
G01*
X46870000Y58345800D02*
G75*
G02*
X46899989Y58273375I-72400J-72400D01*
G01*
X62750000Y60280709D02*
G75*
G02*
X62700003Y60159997I-170700J-9D01*
G01*
X44870000Y58345800D02*
G75*
G03*
X44562964Y59087014I-1048200J0D01*
G01*
%TO.N,N$1*%
D61*
X7395000Y58810000D02*
X7380000Y58825000D01*
X11290000Y58810000D02*
X11320000Y58840000D01*
X7380000Y58825000D02*
X7380000Y59465000D01*
X7395000Y58810000D02*
X11290000Y58810000D01*
%TO.N,ADF4382_TX_SYNC_P*%
D67*
X44820000Y50600000D02*
X44820000Y51035000D01*
X44870000Y51894200D02*
X44870000Y51085000D01*
X44820000Y51035000D02*
G75*
G02*
X44855000Y51070000I35000J0D01*
G01*
X44870000Y51085000D02*
G75*
G02*
X44855000Y51070000I-15000J0D01*
G01*
%TO.N,ADF4382_TX_SYNC_N*%
X45370000Y51894200D02*
X45370000Y51075000D01*
X45370000Y50630000D02*
X45370000Y51075000D01*
X45370000Y51075000D02*
G75*
G02*
X45365000Y51070000I-5000J0D01*
G01*
X45400000Y50600000D02*
G75*
G02*
X45370000Y50630000I0J30000D01*
G01*
%TO.N,N$11*%
D60*
X49298012Y39435000D02*
X49283012Y39420000D01*
X50797800Y39425400D02*
X49831587Y39425400D01*
X49283012Y39420000D02*
X48880000Y39420000D01*
X49831587Y39425400D02*
X49821987Y39435000D01*
X49821987Y39435000D02*
X49298012Y39435000D01*
%TO.N,N$36*%
X41750000Y58205000D02*
X41750000Y59003000D01*
X42530000Y57425000D02*
X41750000Y58205000D01*
%TO.N,N$18*%
D63*
X50345800Y56370000D02*
X51685000Y56370000D01*
D60*
X51685000Y56370000D02*
X51740000Y56425000D01*
%TO.N,N$19*%
X51695000Y55870000D02*
X51740000Y55915000D01*
D63*
X52690000Y55915000D02*
X52785000Y56010000D01*
X51740000Y55915000D02*
X52690000Y55915000D01*
X50345800Y55870000D02*
X51695000Y55870000D01*
%TO.N,N$44*%
D60*
X65205000Y50900000D02*
X64795000Y50900000D01*
%TO.N,N$48*%
X67950000Y54260000D02*
X68215000Y54260000D01*
X66700000Y50900000D02*
X67950000Y52150000D01*
X67635000Y54260000D02*
X67950000Y54260000D01*
X67630000Y54265000D02*
X67635000Y54260000D01*
X67950000Y52150000D02*
X67950000Y54260000D01*
X65715000Y50900000D02*
X66700000Y50900000D01*
%TO.N,+3V3_LO_2*%
X52010000Y58780000D02*
X51070000Y58780000D01*
X48225000Y59320000D02*
X48400000Y59320000D01*
X51620000Y54420000D02*
X51600000Y54400000D01*
X48350000Y59270000D02*
X48400000Y59320000D01*
X64970000Y59320000D02*
X64900000Y59250000D01*
X60045000Y60400000D02*
X60200000Y60400000D01*
X51690000Y57350000D02*
X51670000Y57370000D01*
X50970000Y58780000D02*
X50304200Y58780000D01*
X50355800Y57360000D02*
X50345800Y57370000D01*
X57820000Y59170000D02*
X57800000Y59150000D01*
X65510000Y54400000D02*
X65520000Y54410000D01*
X48350000Y58950000D02*
X48350000Y59270000D01*
X57800000Y59150000D02*
X57925800Y59150000D01*
X62700000Y58950000D02*
X62700000Y59260000D01*
X62750000Y59310000D02*
X62895000Y59310000D01*
X51600000Y54400000D02*
X51050000Y54400000D01*
X51670000Y57370000D02*
X51100000Y57370000D01*
X51100000Y57370000D02*
X51090000Y57360000D01*
X57820000Y59640000D02*
X57820000Y59170000D01*
X48370000Y59660000D02*
X48400000Y59630000D01*
X65480000Y57370000D02*
X65500000Y57350000D01*
X51090000Y57360000D02*
X50355800Y57360000D01*
X65510000Y54400000D02*
X65480000Y54370000D01*
X45715000Y60400000D02*
X45850000Y60400000D01*
X45850000Y60400000D02*
X46015000Y60400000D01*
D65*
X29600000Y86800000D02*
X29500000Y86700000D01*
D60*
X60200000Y60750000D02*
X60200000Y60400000D01*
X52120000Y58890000D02*
X52010000Y58780000D01*
X62700000Y59260000D02*
X62750000Y59310000D01*
X43960000Y59600000D02*
X43960000Y59060000D01*
X65500000Y57350000D02*
X66030000Y57350000D01*
X45850000Y60725859D02*
X45850000Y60400000D01*
X64900000Y59250000D02*
X64900000Y59015800D01*
X51070000Y58780000D02*
X51020000Y58830000D01*
X62545000Y59310000D02*
X62750000Y59310000D01*
X62700000Y59660000D02*
X62750000Y59610000D01*
D65*
X29500000Y86700000D02*
X29400000Y86600000D01*
D60*
X50304200Y58780000D02*
X49870000Y58345800D01*
X57925800Y59150000D02*
X58730000Y58345800D01*
D65*
X29600000Y90200000D02*
X29600000Y86800000D01*
D60*
X65480000Y54370000D02*
X64705800Y54370000D01*
X43960000Y58755800D02*
X44370000Y58345800D01*
X52120000Y58890000D02*
X52120000Y59430000D01*
X65520000Y54410000D02*
X66100000Y54410000D01*
X51020000Y58830000D02*
X50970000Y58780000D01*
X51050000Y54400000D02*
X51020000Y54370000D01*
X43960000Y59060000D02*
X43960000Y58755800D01*
X64705800Y57370000D02*
X65480000Y57370000D01*
X48400000Y59630000D02*
X48400000Y59320000D01*
X66030000Y57350000D02*
X66040000Y57360000D01*
X60200000Y59950000D02*
X60200000Y60400000D01*
X60200000Y60400000D02*
X60395000Y60400000D01*
X45850000Y59950000D02*
X45850000Y60400000D01*
X52120000Y59430000D02*
X52110000Y59440000D01*
X64970000Y59830000D02*
X64970000Y59320000D01*
X48400000Y59320000D02*
X48525000Y59320000D01*
X62750000Y59610000D02*
X62750000Y59310000D01*
X51020000Y54370000D02*
X50345800Y54370000D01*
X64900000Y59015800D02*
X64230000Y58345800D01*
D65*
X29400000Y86600000D02*
X27400000Y86600000D01*
D60*
X45840000Y60750000D02*
G75*
G02*
X45849983Y60725859I-24100J-24100D01*
G01*
%TO.N,ADF4382_TX_DELSTR*%
X43779200Y55985000D02*
X42700000Y55985000D01*
X42700000Y55985000D02*
X41340000Y55985000D01*
X43894200Y55870000D02*
X43779200Y55985000D01*
%TO.N,N$5*%
D59*
X49753200Y43413200D02*
X50797800Y43413200D01*
X49730000Y43390000D02*
X49753200Y43413200D01*
%TO.N,N$71*%
D65*
X33900000Y7800000D02*
X35400000Y6300000D01*
X28130000Y6530000D02*
X29400000Y7800000D01*
X28130000Y3800000D02*
X28130000Y6530000D01*
X29400000Y7800000D02*
X33900000Y7800000D01*
X35400000Y6300000D02*
X38200000Y6300000D01*
X38200000Y6300000D02*
X38300000Y6200000D01*
%TO.N,N$9*%
D60*
X47570000Y39870000D02*
X49260000Y39870000D01*
X47765000Y38160000D02*
X47590000Y38160000D01*
X47590000Y38160000D02*
X47250000Y38500000D01*
X47250000Y38500000D02*
X47250000Y39550000D01*
X47250000Y39550000D02*
X47570000Y39870000D01*
%TO.N,N$8*%
D59*
X50759800Y39870000D02*
X50797800Y39908000D01*
X49760000Y39870000D02*
X50759800Y39870000D01*
%TO.N,N$34*%
D67*
X52940000Y68324400D02*
X52940000Y65857800D01*
X52940000Y65857800D02*
G75*
G02*
X52910000Y65827800I-30000J0D01*
G01*
%TO.N,N$32*%
X48430000Y60960000D02*
X50512000Y60960000D01*
X52402000Y62850000D02*
X52402000Y62932200D01*
X47660000Y60190000D02*
G75*
G02*
X48430000Y60960000I770000J0D01*
G01*
X50512000Y60960000D02*
G75*
G03*
X52402000Y62850000I0J1890000D01*
G01*
%TO.N,N$33*%
X49110000Y60190000D02*
X51428000Y60190000D01*
X53418000Y62180000D02*
X53418000Y62932200D01*
X51428000Y60190000D02*
G75*
G03*
X53418000Y62180000I0J1990000D01*
G01*
%TO.N,RX_RFOUT_2_N*%
X63445000Y59310000D02*
X63445000Y59599643D01*
X63230000Y58790943D02*
X63230000Y58345800D01*
X63445000Y59599643D02*
G75*
G02*
X63470013Y59659987I85400J-43D01*
G01*
X63445000Y59310000D02*
G75*
G03*
X63229982Y58790943I519100J-519100D01*
G01*
%TO.N,N$57*%
X63470000Y60160000D02*
X63470000Y60461578D01*
X63470000Y60461578D02*
X67245459Y64237037D01*
%TO.N,+3V3_LO_1*%
D65*
X20900000Y85800000D02*
X20800000Y85700000D01*
X22900000Y85800000D02*
X20900000Y85800000D01*
D60*
X64705800Y53370000D02*
X64725800Y53390000D01*
X45850000Y50530000D02*
X45860000Y50520000D01*
X62250000Y51200000D02*
X62200000Y51250000D01*
X56900000Y55350000D02*
X56870000Y55380000D01*
X56840000Y53905000D02*
X56305000Y53905000D01*
X47860000Y50540000D02*
X47860000Y51190000D01*
X62200000Y51864200D02*
X62230000Y51894200D01*
X43050000Y52300000D02*
X42580000Y52300000D01*
X42305000Y53850000D02*
X42320000Y53835000D01*
D65*
X22200000Y88500000D02*
X20800000Y87100000D01*
D60*
X62700000Y51864200D02*
X62730000Y51894200D01*
X60200000Y51864200D02*
X60230000Y51894200D01*
X47860000Y50540000D02*
X47860000Y50060000D01*
X56300000Y54295000D02*
X56300000Y53900000D01*
X57340000Y52500000D02*
X57170000Y52330000D01*
X62250000Y50910000D02*
X62250000Y51200000D01*
X65930000Y53390000D02*
X65300000Y53390000D01*
X42900000Y55450000D02*
X43814200Y55450000D01*
X51080000Y53370000D02*
X51100000Y53350000D01*
X66000000Y53460000D02*
X65930000Y53390000D01*
X42580000Y52300000D02*
X42560000Y52320000D01*
X51120000Y53370000D02*
X51640000Y53370000D01*
X41390000Y54385000D02*
X40865000Y54385000D01*
X57250000Y55350000D02*
X56900000Y55350000D01*
X62700000Y51250000D02*
X62700000Y51864200D01*
X47860000Y51190000D02*
X47850000Y51200000D01*
X60200000Y50860000D02*
X60200000Y51250000D01*
D59*
X47850000Y51200000D02*
X47850000Y51874200D01*
D60*
X43050000Y52300000D02*
X43824200Y52300000D01*
D59*
X47850000Y51874200D02*
X47870000Y51894200D01*
D60*
X57270000Y55370000D02*
X58254200Y55370000D01*
X57730000Y52370000D02*
X57600000Y52500000D01*
X56305000Y53905000D02*
X56300000Y53900000D01*
X60220000Y50840000D02*
X60200000Y50860000D01*
X45870000Y51894200D02*
X45870000Y50970000D01*
X62700000Y50910000D02*
X62700000Y51250000D01*
X43814200Y55450000D02*
X43894200Y55370000D01*
X43824200Y52300000D02*
X43894200Y52370000D01*
X42480000Y55440000D02*
X42890000Y55440000D01*
X50345800Y53370000D02*
X51080000Y53370000D01*
X58254200Y52370000D02*
X57730000Y52370000D01*
X64725800Y53390000D02*
X65300000Y53390000D01*
X57600000Y52500000D02*
X57340000Y52500000D01*
X60200000Y51250000D02*
X60200000Y51864200D01*
X51100000Y53350000D02*
X51120000Y53370000D01*
X42890000Y55440000D02*
X42900000Y55450000D01*
X57250000Y55350000D02*
X57270000Y55370000D01*
D65*
X20800000Y87100000D02*
X20800000Y85700000D01*
D60*
X41800000Y53850000D02*
X42305000Y53850000D01*
X45870000Y50970000D02*
X45850000Y50950000D01*
X40865000Y54385000D02*
X40850000Y54400000D01*
D59*
X47870000Y51894200D02*
X48370000Y51894200D01*
D60*
X62200000Y51250000D02*
X62200000Y51864200D01*
X56240000Y54355000D02*
X56300000Y54295000D01*
X45850000Y50950000D02*
X45850000Y50530000D01*
%TO.N,N$75*%
D65*
X13670000Y95200000D02*
X15170000Y93700000D01*
X18100000Y93700000D02*
X22000000Y93700000D01*
X22000000Y93700000D02*
X22200000Y93500000D01*
X15170000Y93700000D02*
X18100000Y93700000D01*
%TO.N,N$58*%
D67*
X68962031Y66712031D02*
X69838550Y67588550D01*
X68933746Y66643746D02*
G75*
G02*
X68962057Y66712005I96554J-46D01*
G01*
%TO.N,N$56*%
X62138590Y60567012D02*
X66527037Y64955459D01*
X61970000Y60160000D02*
G75*
G02*
X62138590Y60567012I575600J0D01*
G01*
%TO.N,N$77*%
D65*
X43370000Y97730000D02*
X42500000Y98600000D01*
X42500000Y98600000D02*
X35600000Y98600000D01*
X43370000Y95300000D02*
X43370000Y97730000D01*
X35600000Y98600000D02*
X34300000Y97300000D01*
X34300000Y97300000D02*
X34300000Y95200000D01*
X34300000Y95200000D02*
X29600000Y95200000D01*
%TO.N,N$10*%
D60*
X50797800Y38409400D02*
X50738400Y38350000D01*
X49821987Y38265000D02*
X48885000Y38265000D01*
X48740000Y38160000D02*
X48760000Y38140000D01*
X48885000Y38265000D02*
X48760000Y38140000D01*
X50738400Y38350000D02*
X49906987Y38350000D01*
X48275000Y38160000D02*
X48740000Y38160000D01*
X49906987Y38350000D02*
X49821987Y38265000D01*
%TO.N,RX_RFOUT_1_N*%
D67*
X60945000Y59479350D02*
X60945000Y60400000D01*
X60945000Y60737928D02*
X60945000Y60400000D01*
X60730000Y58345800D02*
X60730000Y58960293D01*
X60730000Y58960293D02*
G75*
G02*
X60849998Y59250002I409700J7D01*
G01*
X60940000Y60750000D02*
G75*
G02*
X60945012Y60737928I-12100J-12100D01*
G01*
X60850000Y59250000D02*
G75*
G03*
X60945021Y59479350I-229400J229400D01*
G01*
%TO.N,N$53*%
X60718000Y63552200D02*
X60718000Y61785956D01*
X60718000Y61785956D02*
G75*
G03*
X60940013Y61250013I758000J44D01*
G01*
%TO.N,N$3*%
D59*
X50797800Y44911800D02*
X49989600Y45720000D01*
X49989600Y45720000D02*
X49710000Y45720000D01*
%TO.N,N$20*%
D63*
X51095000Y49820000D02*
X49650000Y49820000D01*
X49650000Y49820000D02*
X49430000Y49820000D01*
X48870000Y50380000D02*
X48870000Y51894200D01*
X51265000Y49650000D02*
X51095000Y49820000D01*
X49430000Y49820000D02*
X48870000Y50380000D01*
%TO.N,+1V8_CLOCK*%
D59*
X61400000Y44900000D02*
X60614000Y44900000D01*
X56950000Y35762400D02*
X56944600Y35767800D01*
X61500000Y38950000D02*
X61510000Y38960000D01*
X52850000Y46550000D02*
X52580000Y46820000D01*
D65*
X70500000Y7220000D02*
X67410000Y10310000D01*
D59*
X60300000Y35000000D02*
X59941800Y35358200D01*
X52850000Y46350000D02*
X52956800Y46243200D01*
X61500000Y38950000D02*
X61467400Y38917400D01*
X61990000Y41900000D02*
X62010000Y41880000D01*
X56310000Y46730000D02*
X56310000Y46710000D01*
X61450000Y41900000D02*
X61990000Y41900000D01*
D65*
X70600000Y6300000D02*
X70500000Y6400000D01*
D59*
X56960000Y34990000D02*
X56950000Y35000000D01*
D65*
X73300000Y6300000D02*
X70600000Y6300000D01*
D59*
X52956800Y46243200D02*
X52956800Y45572200D01*
X60614000Y44900000D02*
X60602200Y44911800D01*
X60300000Y35000000D02*
X60560000Y34740000D01*
X55950000Y46350000D02*
X55950000Y45576200D01*
X56310000Y46710000D02*
X55950000Y46350000D01*
X52850000Y46350000D02*
X52850000Y46550000D01*
D65*
X70500000Y6400000D02*
X70500000Y7220000D01*
D59*
X59941800Y35358200D02*
X59941800Y35767800D01*
X56960000Y34540000D02*
X56960000Y34990000D01*
X60560000Y34740000D02*
X60910000Y34740000D01*
X56950000Y35000000D02*
X56950000Y35762400D01*
X60616800Y41900000D02*
X60602200Y41914600D01*
X61450000Y41900000D02*
X60616800Y41900000D01*
X61510000Y38960000D02*
X61950000Y38960000D01*
X55950000Y45576200D02*
X55954000Y45572200D01*
X61467400Y38917400D02*
X60602200Y38917400D01*
X61750000Y44900000D02*
X61400000Y44900000D01*
X61850000Y45000000D02*
X61750000Y44900000D01*
%TO.N,+3V3_CLOCK*%
X54455400Y45572200D02*
X54450000Y45577600D01*
X61390000Y43410000D02*
X61386800Y43413200D01*
D65*
X48920000Y9500000D02*
X48447193Y9500000D01*
D59*
X49750000Y44400000D02*
X49070000Y44400000D01*
X57450000Y45574800D02*
X57452600Y45572200D01*
X54450000Y46250000D02*
X54450000Y46620000D01*
X61810000Y43410000D02*
X61390000Y43410000D01*
X50800000Y35150000D02*
X50820000Y35130000D01*
X58450000Y35761000D02*
X58443200Y35767800D01*
X61840000Y40400000D02*
X61350000Y40400000D01*
X61350000Y40400000D02*
X60618200Y40400000D01*
X57450000Y46350000D02*
X57450000Y45574800D01*
X54450000Y46620000D02*
X54480000Y46650000D01*
X49967400Y38917400D02*
X50797800Y38917400D01*
X50800000Y36426000D02*
X50800000Y35150000D01*
X61350000Y37420000D02*
X61348800Y37418800D01*
X57460000Y46830000D02*
X57460000Y46360000D01*
X57460000Y46360000D02*
X57450000Y46350000D01*
X61348800Y37418800D02*
X60602200Y37418800D01*
X50797800Y36428200D02*
X50800000Y36426000D01*
X49950000Y38900000D02*
X49967400Y38917400D01*
D65*
X48447193Y9500000D02*
X45900000Y6952806D01*
D59*
X55450000Y35000000D02*
X55446000Y35004000D01*
X49800000Y44450000D02*
X50777000Y44450000D01*
X49950000Y38900000D02*
X49910000Y38860000D01*
X49910000Y38860000D02*
X49450000Y38860000D01*
X55410000Y34540000D02*
X55410000Y34960000D01*
D65*
X43800000Y6700000D02*
X45900000Y6700000D01*
D59*
X50777000Y44450000D02*
X50797800Y44429200D01*
X55410000Y34960000D02*
X55450000Y35000000D01*
X49800000Y44450000D02*
X49750000Y44400000D01*
D65*
X43300000Y6200000D02*
X43800000Y6700000D01*
D59*
X60602200Y43413200D02*
X61386800Y43413200D01*
X54450000Y45577600D02*
X54450000Y46250000D01*
X58450000Y35000000D02*
X58450000Y35761000D01*
D65*
X45900000Y6952806D02*
X45900000Y6700000D01*
D59*
X58450000Y35000000D02*
X58460000Y34990000D01*
X61880000Y37420000D02*
X61350000Y37420000D01*
X55446000Y35004000D02*
X55446000Y35767800D01*
X60618200Y40400000D02*
X60602200Y40416000D01*
X50820000Y35130000D02*
X50820000Y34640000D01*
X61390000Y43410000D02*
X61400000Y43400000D01*
X58460000Y34990000D02*
X58460000Y34530000D01*
%TO.N,TX_RFOUT_1_P*%
D67*
X45370000Y58345800D02*
X45370000Y59181006D01*
X45165000Y59675918D02*
X45165000Y60400000D01*
X45150000Y60750000D02*
X45150000Y60436212D01*
X45150000Y60436212D02*
G75*
G03*
X45164996Y60399996I51200J-12D01*
G01*
X45300000Y59350000D02*
G75*
G02*
X45165008Y59675918I325900J325900D01*
G01*
X45370000Y59181006D02*
G75*
G03*
X45299999Y59349999I-239000J-6D01*
G01*
%TO.N,N$28*%
X45402000Y63552200D02*
X45402000Y61858381D01*
X45402000Y61858381D02*
G75*
G02*
X45149995Y61250005I-860400J19D01*
G01*
%TO.N,N$64*%
X64580000Y23620000D02*
X64580000Y18200000D01*
X64580000Y18200000D02*
G75*
G02*
X64560044Y17838050I-190900J-171000D01*
G01*
%TO.N,N$73*%
D65*
X86530000Y4100000D02*
X84330000Y6300000D01*
X84330000Y6300000D02*
X81200000Y6300000D01*
X81200000Y6300000D02*
X78300000Y6300000D01*
%TO.N,AD9523_OUT4_P*%
D67*
X69401150Y45151150D02*
X70740015Y46490015D01*
X60602200Y44429200D02*
X61416600Y44429200D01*
X61438600Y44407200D02*
X67605096Y44407200D01*
X61416600Y44429200D02*
X61438600Y44407200D01*
X72850000Y47364000D02*
X78034681Y47364000D01*
X67605096Y44407200D02*
G75*
G03*
X69401151Y45151149I4J2540000D01*
G01*
X70740015Y46490015D02*
G75*
G02*
X72850000Y47363991I2109985J-2110015D01*
G01*
X78034681Y47364000D02*
G75*
G03*
X78870005Y47709995I19J1181300D01*
G01*
%TO.N,AD9523_OUT4_N*%
X61438600Y43943200D02*
X67605103Y43943200D01*
X61416600Y43921200D02*
X61438600Y43943200D01*
X78870000Y46440000D02*
X78699912Y46610087D01*
X60602200Y43921200D02*
X61416600Y43921200D01*
X69729250Y44823050D02*
X71068121Y46161921D01*
X72850000Y46900000D02*
X78000000Y46900000D01*
X71068121Y46161921D02*
G75*
G02*
X72850000Y46899987I1781879J-1781921D01*
G01*
X78699912Y46610087D02*
G75*
G03*
X78000000Y46900007I-699912J-699887D01*
G01*
X67605103Y43943200D02*
G75*
G03*
X69729249Y44823051I-3J3004000D01*
G01*
%TO.N,N$50*%
D60*
X56820000Y59723000D02*
X56830000Y59733000D01*
X56820000Y58465000D02*
X56820000Y59723000D01*
%TO.N,ADF4382_RX_LKDET*%
X57600000Y57200000D02*
X57400000Y57400000D01*
X57930000Y56870000D02*
X57600000Y57200000D01*
X58254200Y56870000D02*
X57930000Y56870000D01*
X56900000Y57400000D02*
X56820000Y57480000D01*
X56820000Y57480000D02*
X56820000Y57955000D01*
X57400000Y57400000D02*
X56900000Y57400000D01*
%TO.N,N$27*%
D67*
X45910000Y67644400D02*
X45910000Y66447800D01*
%TO.N,N$31*%
X46418000Y63552200D02*
X46418000Y61616959D01*
X46418000Y61616959D02*
G75*
G03*
X46570012Y61250012I519000J41D01*
G01*
%TO.N,N$24*%
D60*
X53035000Y53710000D02*
X53035000Y53135000D01*
X53000000Y53100000D02*
X52485000Y53100000D01*
X53035000Y54265000D02*
X52950000Y54350000D01*
X53035000Y53135000D02*
X53000000Y53100000D01*
X52485000Y53100000D02*
X52480000Y53105000D01*
X53035000Y53710000D02*
X53035000Y54265000D01*
%TO.N,N$23*%
X52215000Y55040000D02*
X52215000Y54020000D01*
X52215000Y54020000D02*
X52525000Y53710000D01*
%TO.N,ADF4382_RX_SYNC_N*%
D67*
X59730000Y51165000D02*
X59730000Y51894200D01*
X59815000Y50275000D02*
X59815000Y51070000D01*
X59725000Y51160000D02*
G75*
G03*
X59730000Y51165000I0J5000D01*
G01*
X59815000Y51070000D02*
G75*
G03*
X59725000Y51160000I-90000J0D01*
G01*
%TO.N,AD9523_OUT8_N*%
X63525000Y37911000D02*
X60618000Y37911000D01*
X59815000Y49775000D02*
X59815000Y49192000D01*
X59734500Y49192000D02*
X59734500Y48950000D01*
X59734500Y48950000D02*
X59807500Y48950000D01*
X59815000Y49192000D02*
X59734500Y49192000D01*
X63525000Y37838000D02*
X63525000Y37911000D01*
X60618000Y37911000D02*
G75*
G02*
X60602200Y37926800I0J15800D01*
G01*
%TO.N,N$62*%
D60*
X60602200Y41432000D02*
X62913000Y41432000D01*
X62913000Y41432000D02*
G75*
G02*
X62965000Y41380000I0J-52000D01*
G01*
%TO.N,N$63*%
D67*
X67900000Y38850000D02*
X67900000Y32710000D01*
X63475000Y41380000D02*
X65370000Y41380000D01*
X70450000Y30160000D02*
X86130000Y30160000D01*
X65370000Y41380000D02*
G75*
G02*
X67900000Y38850000I0J-2530000D01*
G01*
X67900000Y32710000D02*
G75*
G03*
X70450000Y30160000I2550000J0D01*
G01*
%TO.N,ADF4382_RX_DELSTR*%
D68*
X56900000Y55870000D02*
X55875000Y55870000D01*
X58254200Y55870000D02*
X56900000Y55870000D01*
X55875000Y55870000D02*
X55840000Y55905000D01*
%TO.N,ADF4382_RX_SYNC_P*%
D67*
X59215000Y50295000D02*
X59215000Y51160000D01*
X59230000Y51175000D02*
X59230000Y51894200D01*
X59215000Y51160000D02*
G75*
G03*
X59230000Y51175000I0J15000D01*
G01*
X59190000Y50270000D02*
G75*
G03*
X59215000Y50295000I0J25000D01*
G01*
%TO.N,N$43*%
D60*
X68700000Y54285000D02*
X68700000Y54710000D01*
X68725000Y54260000D02*
X68700000Y54285000D01*
%TO.N,N$25*%
X52455000Y52070000D02*
X52455000Y51470000D01*
X52455000Y51470000D02*
X51875000Y50890000D01*
X52480000Y52095000D02*
X52455000Y52070000D01*
X52480000Y52595000D02*
X52480000Y52095000D01*
%TO.N,N$17*%
X53380000Y52070000D02*
X53410000Y52040000D01*
X52965000Y52070000D02*
X53380000Y52070000D01*
%TO.N,+3V3_XO*%
D65*
X18300000Y37100000D02*
X12400000Y37100000D01*
D61*
X11320000Y41060000D02*
X5450000Y46930000D01*
D69*
X23900000Y28700000D02*
X23900000Y31700000D01*
X21000000Y31900000D02*
X24618900Y35518900D01*
X24600000Y28000000D02*
X23900000Y28700000D01*
D65*
X11320000Y38180000D02*
X11320000Y41060000D01*
D69*
X27198900Y28000000D02*
X24600000Y28000000D01*
X23700000Y31900000D02*
X21000000Y31900000D01*
D61*
X5450000Y46930000D02*
X5450000Y58300000D01*
D65*
X17900000Y31900000D02*
X21000000Y31900000D01*
X21000000Y31900000D02*
X21000000Y34400000D01*
D69*
X23900000Y31700000D02*
X23700000Y31900000D01*
X31330000Y23868900D02*
X27198900Y28000000D01*
D65*
X21000000Y34400000D02*
X18300000Y37100000D01*
D61*
X5960000Y58810000D02*
X6885000Y58810000D01*
X5450000Y58300000D02*
X5960000Y58810000D01*
D65*
X12400000Y37100000D02*
X11320000Y38180000D01*
D69*
X24618900Y35518900D02*
X31580000Y35518900D01*
%TO.N,AD9523_OUT9_N*%
D67*
X45353287Y49075000D02*
X45353287Y50053287D01*
X45350000Y48650000D02*
X45350000Y49071712D01*
X61416600Y36428200D02*
X61425900Y36437500D01*
X62837500Y36437500D02*
X61425900Y36437500D01*
X60602200Y36428200D02*
X61416600Y36428200D01*
X63377000Y35300000D02*
X63377000Y35898000D01*
X45323000Y46900000D02*
X45250000Y46973000D01*
X45353287Y50053287D02*
G75*
G02*
X45400000Y50100013I46713J13D01*
G01*
X45250000Y46973000D02*
G75*
G02*
X45350000Y48650000I14111600J0D01*
G01*
X45350000Y49071712D02*
G75*
G02*
X45353287Y49075000I3300J-12D01*
G01*
X63377000Y35898000D02*
G75*
G03*
X62837500Y36437500I-539500J0D01*
G01*
%TO.N,N$68*%
X57970000Y33215000D02*
X57970000Y31040000D01*
X52880000Y26850000D02*
X52880000Y25110000D01*
X56400000Y29470000D02*
X55500000Y29470000D01*
X57970000Y31040000D02*
G75*
G02*
X56400000Y29470000I-1570000J0D01*
G01*
X52880000Y25110000D02*
G75*
G02*
X52860000Y24920000I-105000J-85000D01*
G01*
X55500000Y29470000D02*
G75*
G03*
X52880000Y26850000I0J-2620000D01*
G01*
%TO.N,N$67*%
X52790000Y23720000D02*
X52790000Y18270000D01*
X52860000Y23620000D02*
X52790000Y23720000D01*
%TO.N,N$38*%
D60*
X61740000Y50610000D02*
X61740000Y51095000D01*
X61725000Y51110000D02*
X61725000Y51889200D01*
X61725000Y51889200D02*
G75*
G02*
X61730000Y51894200I5000J0D01*
G01*
X61740000Y51095000D02*
G75*
G03*
X61725000Y51110000I-15000J0D01*
G01*
%TO.N,AD9523_OUT1_N*%
D67*
X58821531Y47787112D02*
X59953037Y47539037D01*
X55424000Y46386600D02*
X55424000Y46799000D01*
X55446000Y46386600D02*
X55424000Y46386600D01*
X56200000Y47575000D02*
X56748518Y47575000D01*
X55446000Y45572200D02*
X55446000Y46386600D01*
X61739000Y49325000D02*
X61739000Y50109000D01*
X55424000Y46799000D02*
G75*
G02*
X56200000Y47575000I776000J0D01*
G01*
X61739000Y50109000D02*
G75*
G02*
X61740000Y50110000I1000J0D01*
G01*
X57778056Y48105975D02*
G75*
G02*
X58224995Y48149994I242644J-172675D01*
G01*
X56748518Y47575000D02*
G75*
G03*
X57778043Y48105984I-18J1263600D01*
G01*
X58225000Y48150000D02*
G75*
G03*
X58821531Y47787113I1151900J1221800D01*
G01*
X59953037Y47539037D02*
G75*
G03*
X61738963Y49325000I-37J1785963D01*
G01*
%TO.N,AD9523_OUT7+*%
X78180000Y16280000D02*
X92710000Y16280000D01*
X70580000Y27450000D02*
X73100000Y27450000D01*
X66480000Y36158000D02*
X66480000Y31550000D01*
X60602200Y39908000D02*
X62730000Y39908000D01*
X75640000Y24910000D02*
X75640000Y18820000D01*
X73100000Y27450000D02*
G75*
G02*
X75640000Y24910000I0J-2540000D01*
G01*
X62730000Y39908000D02*
G75*
G02*
X66480000Y36158000I0J-3750000D01*
G01*
X66480000Y31550000D02*
G75*
G03*
X70580000Y27450000I4100000J0D01*
G01*
X75640000Y18820000D02*
G75*
G03*
X78180000Y16280000I2540000J0D01*
G01*
%TO.N,N$49*%
D60*
X63740000Y50910000D02*
X64275000Y50910000D01*
X64275000Y50910000D02*
X64285000Y50900000D01*
X63740000Y51884200D02*
X63740000Y50910000D01*
X63730000Y51894200D02*
X63740000Y51884200D01*
%TO.N,N$37*%
D67*
X9850000Y82370000D02*
X26280000Y82370000D01*
X38380000Y70270000D02*
X38380000Y52540000D01*
X41220000Y49700000D02*
X42175800Y49700000D01*
X42175800Y49700000D02*
G75*
G03*
X44370000Y51894200I0J2194200D01*
G01*
X26280000Y82370000D02*
G75*
G02*
X38380000Y70270000I0J-12100000D01*
G01*
X38380000Y52540000D02*
G75*
G03*
X41220000Y49700000I2840000J0D01*
G01*
%TO.N,N$26*%
D60*
X49680000Y50870000D02*
X49370000Y51180000D01*
X50355000Y50880000D02*
X50345000Y50870000D01*
X49860000Y50870000D02*
X49680000Y50870000D01*
X49370000Y51180000D02*
X49370000Y51894200D01*
X50345000Y50870000D02*
X49860000Y50870000D01*
%TO.N,N$30*%
D67*
X45910000Y70520000D02*
X45910000Y68355600D01*
X45930000Y74000000D02*
X45910000Y70520000D01*
%TO.N,ADF4382_RX_CE*%
D60*
X57050000Y54870000D02*
X56245000Y54870000D01*
X58254200Y54870000D02*
X57050000Y54870000D01*
X56245000Y54870000D02*
X56240000Y54865000D01*
%TO.N,N$60*%
D67*
X17810000Y67920000D02*
X17180000Y67920000D01*
X20350000Y47390000D02*
X20350000Y65380000D01*
X46750000Y46450000D02*
X50580400Y46450000D01*
X21640000Y46100000D02*
X46400000Y46100000D01*
X46600000Y46300000D02*
G75*
G02*
X46750000Y46450000I150000J0D01*
G01*
X46400000Y46100000D02*
G75*
G03*
X46600000Y46300000I0J200000D01*
G01*
X20350000Y65380000D02*
G75*
G03*
X17810000Y67920000I-2540000J0D01*
G01*
X20350000Y47390000D02*
G75*
G03*
X21640000Y46100000I1290000J0D01*
G01*
X50580400Y46450000D02*
G75*
G02*
X51458200Y45572200I0J-877800D01*
G01*
%TO.N,N$61*%
D60*
X16680000Y67920000D02*
X11680000Y67920000D01*
X11680000Y67920000D02*
G75*
G03*
X11670000Y67910000I0J-10000D01*
G01*
%TO.N,+5V0_LO*%
D62*
X55050000Y60700000D02*
X54975000Y60775000D01*
X55150000Y50800000D02*
X54000000Y49650000D01*
X69250000Y56915000D02*
X69205000Y56870000D01*
D65*
X71100000Y85900000D02*
X70900000Y86100000D01*
D62*
X54375000Y56010000D02*
X54375000Y53925000D01*
X54000000Y49650000D02*
X52855000Y49650000D01*
X55150000Y53150000D02*
X55150000Y50800000D01*
X54375000Y60025000D02*
X55050000Y60700000D01*
X70285000Y56915000D02*
X69250000Y56915000D01*
X54375000Y53925000D02*
X55150000Y53150000D01*
X63460000Y47535000D02*
X67985000Y47535000D01*
X69250000Y59700000D02*
X69250000Y56915000D01*
D65*
X94000000Y83230000D02*
X90370000Y83230000D01*
D62*
X70650000Y50200000D02*
X70650000Y56550000D01*
D65*
X87700000Y85900000D02*
X71100000Y85900000D01*
D62*
X67985000Y47535000D02*
X70650000Y50200000D01*
D65*
X90370000Y83230000D02*
X87700000Y85900000D01*
D62*
X54375000Y56010000D02*
X54375000Y60025000D01*
X70650000Y56550000D02*
X70285000Y56915000D01*
%TO.N,ADF4382_TX_CE*%
D60*
X42950000Y54870000D02*
X43894200Y54870000D01*
X42950000Y54870000D02*
X41415000Y54870000D01*
X41415000Y54870000D02*
X41390000Y54895000D01*
%TO.N,AD9523_SDIO*%
D61*
X13860000Y21245000D02*
X13860000Y18710000D01*
X13860000Y18710000D02*
X13820000Y18670000D01*
%TO.N,N$13*%
D68*
X44000000Y10400000D02*
X16250000Y10400000D01*
D61*
X13860000Y21755000D02*
X13860000Y22395000D01*
D68*
X15050000Y21350000D02*
X14645000Y21755000D01*
X14645000Y21755000D02*
X13860000Y21755000D01*
D61*
X13860000Y22395000D02*
X13820000Y22435000D01*
D68*
X45800000Y12200000D02*
X44000000Y10400000D01*
X16250000Y10400000D02*
X15050000Y11600000D01*
X15050000Y11600000D02*
X15050000Y21350000D01*
X45800000Y23300000D02*
X45800000Y12200000D01*
X52956800Y35767800D02*
X52956800Y30456800D01*
X52956800Y30456800D02*
X45800000Y23300000D01*
%TO.N,AD9523_OUT8_P*%
D67*
X63525000Y38448000D02*
X63525000Y38375000D01*
X59270500Y49187000D02*
X59270500Y48950000D01*
X59190000Y49770000D02*
X59190000Y49187000D01*
X59190000Y49187000D02*
X59270500Y49187000D01*
X59270500Y48950000D02*
X59197500Y48950000D01*
X63525000Y38375000D02*
X60636600Y38375000D01*
X60636600Y38375000D02*
G75*
G02*
X60602200Y38409400I0J34400D01*
G01*
%TO.N,N$41*%
D63*
X64725800Y55850000D02*
X64705800Y55870000D01*
X66125000Y56025000D02*
X65950000Y55850000D01*
X65950000Y55850000D02*
X64725800Y55850000D01*
X66125000Y56550000D02*
X66445000Y56870000D01*
X66125000Y56550000D02*
X66125000Y56025000D01*
X66445000Y56870000D02*
X67615000Y56870000D01*
%TO.N,N$21*%
D60*
X51365000Y50890000D02*
X51355000Y50880000D01*
X51355000Y50880000D02*
X50865000Y50880000D01*
%TO.N,N$2*%
D61*
X31330000Y16071100D02*
X31330000Y14355000D01*
X31525000Y14160000D02*
X31330000Y14355000D01*
X31525000Y14160000D02*
X31525000Y13555000D01*
X31490000Y13520000D02*
X31525000Y13555000D01*
%TO.N,VCXO_OUT*%
D67*
X36410000Y23868900D02*
X40230000Y23868900D01*
X45820000Y29458900D02*
X45820000Y38370000D01*
X48360000Y40910000D02*
X50783800Y40910000D01*
X45820000Y38370000D02*
G75*
G02*
X48360000Y40910000I2540000J0D01*
G01*
X50783800Y40910000D02*
G75*
G03*
X50797800Y40924000I0J14000D01*
G01*
X40230000Y23868900D02*
G75*
G03*
X45820000Y29458900I0J5590000D01*
G01*
%TO.N,AD9523_OUT9_P*%
X44713000Y46900000D02*
X44786000Y46973000D01*
X62825000Y36914000D02*
X62325000Y36914000D01*
X60602200Y36910800D02*
X62321800Y36910800D01*
X44889287Y48705143D02*
X44889287Y49962712D01*
X63987000Y35300000D02*
X63987000Y35752000D01*
X44889287Y49962712D02*
G75*
G03*
X44786000Y50065987I-103287J-12D01*
G01*
X62325000Y36914000D02*
G75*
G03*
X62321800Y36910800I0J-3200D01*
G01*
X44786000Y46973000D02*
G75*
G02*
X44889286Y48705143I14576000J0D01*
G01*
X63987000Y35752000D02*
G75*
G03*
X62825000Y36914000I-1162000J0D01*
G01*
X44786000Y50066000D02*
G75*
G02*
X44820000Y50100000I34000J0D01*
G01*
%TO.N,TX_RFOUT_2_P*%
X47870000Y58849228D02*
X47870000Y58345800D01*
X47675000Y59653787D02*
X47675000Y59320000D01*
X47675000Y59320000D02*
G75*
G02*
X47870012Y58849228I-470800J-470800D01*
G01*
X47660000Y59690000D02*
G75*
G02*
X47674995Y59653787I-36200J-36200D01*
G01*
%TO.N,N$16*%
D60*
X46810000Y50550000D02*
X46810000Y51025000D01*
X46870000Y51894200D02*
X46870000Y51085000D01*
X46870000Y51085000D02*
G75*
G02*
X46855000Y51070000I-15000J0D01*
G01*
X46810000Y51025000D02*
G75*
G02*
X46855000Y51070000I45000J0D01*
G01*
%TO.N,N$15*%
X47370000Y51894200D02*
X47370000Y51075000D01*
X47370000Y51065000D02*
X47370000Y50550000D01*
X47370000Y51075000D02*
G75*
G02*
X47365000Y51070000I-5000J0D01*
G01*
X47365000Y51070000D02*
G75*
G02*
X47370000Y51065000I0J-5000D01*
G01*
%TO.N,RX_RFOUT_2_P*%
D67*
X62230000Y58742659D02*
X62230000Y58345800D01*
X61995000Y59599643D02*
X61995000Y59310000D01*
X61970000Y59660000D02*
G75*
G02*
X61995018Y59599643I-60400J-60400D01*
G01*
X61995000Y59310000D02*
G75*
G02*
X62229983Y58742659I-567300J-567300D01*
G01*
%TO.N,N$55*%
X60200000Y74000000D02*
X60200000Y68355600D01*
%TO.N,ADF4382_TX_DELADJ*%
D60*
X41845000Y56370000D02*
X41780000Y56435000D01*
X43200000Y56370000D02*
X41845000Y56370000D01*
X43894200Y56370000D02*
X43200000Y56370000D01*
%TO.N,N$35*%
D67*
X52940000Y69035600D02*
X52940000Y84860000D01*
X52940000Y90000000D02*
X52940000Y85020000D01*
X52940000Y84860000D02*
X52940000Y85020000D01*
X52940000Y85020000D02*
X52940100Y85019900D01*
%TO.N,TX_RFOUT_2_N*%
X49110000Y59690000D02*
X49110000Y59404496D01*
X48870000Y58825087D02*
X48870000Y58345800D01*
X49075000Y59320000D02*
G75*
G03*
X48870006Y58825087I494900J-494900D01*
G01*
X49110000Y59404496D02*
G75*
G02*
X49074999Y59320001I-119500J4D01*
G01*
%TO.N,AD9523_OUT10+*%
X59459200Y35767800D02*
X59459200Y33734200D01*
D60*
X59459200Y33734200D02*
G75*
G02*
X59450000Y33725000I-9200J0D01*
G01*
%TO.N,N$65*%
D67*
X64580000Y25980000D02*
X64580000Y24920000D01*
X60940000Y29520000D02*
X61040000Y29520000D01*
X59450000Y33215000D02*
X59450000Y31010000D01*
X59450000Y31010000D02*
G75*
G03*
X60940000Y29520000I1490000J0D01*
G01*
X61040000Y29520000D02*
G75*
G02*
X64580000Y25980000I0J-3540000D01*
G01*
%TO.N,AD9523_PD*%
D68*
X46800000Y35000000D02*
X46800000Y32150000D01*
X46800000Y32150000D02*
X47400000Y31550000D01*
X49726800Y37926800D02*
X46800000Y35000000D01*
X50797800Y37926800D02*
X49726800Y37926800D01*
%TO.N,AD9523_REF_SEL*%
X49768800Y37418800D02*
X49250000Y36900000D01*
X50797800Y37418800D02*
X49768800Y37418800D01*
%TO.N,AD9523_SYNC*%
X47775000Y35125000D02*
X47750000Y35100000D01*
X49960800Y36910800D02*
X48175000Y35125000D01*
X48175000Y35125000D02*
X47775000Y35125000D01*
X50797800Y36910800D02*
X49960800Y36910800D01*
%TO.N,AD9523_RESET*%
X27400000Y12000000D02*
X26750000Y12650000D01*
X43700000Y23250000D02*
X43700000Y12700000D01*
X43000000Y12000000D02*
X27400000Y12000000D01*
X51458200Y35767800D02*
X51458200Y31008200D01*
X51458200Y31008200D02*
X43700000Y23250000D01*
X26750000Y12650000D02*
X26750000Y13550000D01*
X43700000Y12700000D02*
X43000000Y12000000D01*
%TO.N,AD9523_CS*%
D61*
X16360000Y21295000D02*
X16360000Y18670000D01*
%TO.N,AD9523_SCLK*%
X16360000Y13645000D02*
X16380000Y13625000D01*
X16360000Y16130000D02*
X16360000Y13645000D01*
%TO.N,AD9523_SDO*%
D68*
X53439400Y30339400D02*
X46300000Y23200000D01*
X46300000Y23200000D02*
X46300000Y11750000D01*
X15950000Y9750000D02*
X13820000Y11880000D01*
X44300000Y9750000D02*
X15950000Y9750000D01*
X46300000Y11750000D02*
X44300000Y9750000D01*
X13820000Y11880000D02*
X13820000Y16130000D01*
X53439400Y35767800D02*
X53439400Y30339400D01*
%TO.N,AD9523_STATUS0*%
X59459200Y46540800D02*
X59100000Y46900000D01*
X59459200Y45572200D02*
X59459200Y46540800D01*
%TO.N,AD9523_STATUS1*%
X59941800Y45572200D02*
X59900000Y45614000D01*
X11280000Y8070000D02*
X11280000Y16130000D01*
X59941800Y46258200D02*
X59900000Y46300000D01*
X59941800Y45572200D02*
X59941800Y46258200D01*
X14650000Y4700000D02*
X11280000Y8070000D01*
%TO.N,AD9523_EEPROM_SEL*%
X58951200Y45572200D02*
X58951200Y46198800D01*
X58951200Y46198800D02*
X58650000Y46500000D01*
%TO.N,RX_RFOUT_1_P*%
D67*
X59495000Y59724203D02*
X59495000Y60400000D01*
X59495000Y60617218D02*
X59495000Y60400000D01*
X59730000Y58345800D02*
X59730000Y59156862D01*
X59440000Y60750000D02*
G75*
G02*
X59495008Y60617218I-132800J-132800D01*
G01*
X59730000Y59156862D02*
G75*
G03*
X59650011Y59350011I-273100J38D01*
G01*
X59650000Y59350000D02*
G75*
G02*
X59495001Y59724203I374200J374200D01*
G01*
%TO.N,N$69*%
D65*
X12800000Y32000000D02*
X12900000Y31900000D01*
X4830000Y32000000D02*
X10000000Y32000000D01*
X4800000Y31970000D02*
X4830000Y32000000D01*
X10000000Y32000000D02*
X12800000Y32000000D01*
%TO.N,N$47*%
D60*
X67630000Y55350000D02*
X67630000Y54775000D01*
X67620000Y55360000D02*
X67630000Y55350000D01*
X67175000Y55360000D02*
X67620000Y55360000D01*
%TO.N,N$42*%
X64535000Y49125000D02*
X64550000Y49140000D01*
D63*
X63460000Y49125000D02*
X64535000Y49125000D01*
X63230000Y49355000D02*
X63230000Y51894200D01*
X63460000Y49125000D02*
X63230000Y49355000D01*
%TO.N,N$54*%
D67*
X60210000Y66447800D02*
X60200000Y66457800D01*
X60200000Y66457800D02*
X60200000Y67644400D01*
%TO.N,AD9523_OUT11+*%
X57960600Y35767800D02*
X57960600Y33734400D01*
D60*
X57960600Y33734400D02*
G75*
G03*
X57970000Y33725000I9400J0D01*
G01*
%TO.N,AD9523_OUT0_N*%
D67*
X53947400Y45572200D02*
X53947400Y46386600D01*
X53947400Y46386600D02*
X53925400Y46386600D01*
X47300000Y49980000D02*
X47370000Y50050000D01*
X47300000Y49300000D02*
X47300000Y49980000D01*
X52811400Y48114000D02*
X48486000Y48114000D01*
X53925400Y46386600D02*
X53925400Y47000000D01*
X53925400Y47000000D02*
G75*
G03*
X52811400Y48114000I-1114000J0D01*
G01*
X48486000Y48114000D02*
G75*
G02*
X47300000Y49300000I0J1186000D01*
G01*
%TO.N,N$52*%
X59702000Y63552200D02*
X59702000Y61882525D01*
X59702000Y61882525D02*
G75*
G02*
X59440007Y61249993I-894500J-25D01*
G01*
%TO.N,N$7*%
D59*
X50771800Y40390000D02*
X49760000Y40390000D01*
X50797800Y40416000D02*
X50771800Y40390000D01*
%TO.N,ADF4382_RX_DELADJ*%
D60*
X57550000Y56370000D02*
X57025000Y56370000D01*
X57025000Y56370000D02*
X56940000Y56455000D01*
X58254200Y56370000D02*
X57550000Y56370000D01*
%TO.N,N$12*%
D68*
X16465000Y13200000D02*
X16380000Y13115000D01*
X17600000Y13200000D02*
X16465000Y13200000D01*
X43550000Y11000000D02*
X19800000Y11000000D01*
X52448800Y30548800D02*
X45150000Y23250000D01*
D61*
X16370000Y12575000D02*
X16370000Y13105000D01*
D68*
X19800000Y11000000D02*
X17600000Y13200000D01*
D61*
X16370000Y13105000D02*
X16380000Y13115000D01*
D68*
X52448800Y35767800D02*
X52448800Y30548800D01*
X45150000Y23250000D02*
X45150000Y12600000D01*
X45150000Y12600000D02*
X43550000Y11000000D01*
%TO.N,N$46*%
D60*
X66655000Y55350000D02*
X66665000Y55360000D01*
X66155000Y55350000D02*
X66655000Y55350000D01*
%TO.N,TX_RFOUT_1_N*%
D67*
X46570000Y60750000D02*
X46570000Y60412071D01*
X46565000Y59506925D02*
X46565000Y60400000D01*
X46370000Y58345800D02*
X46370000Y59036153D01*
X46500000Y59350000D02*
G75*
G03*
X46564990Y59506925I-156900J156900D01*
G01*
X46370000Y59036153D02*
G75*
G02*
X46499986Y59350014I443800J47D01*
G01*
X46570000Y60412071D02*
G75*
G02*
X46564992Y60400008I-17100J29D01*
G01*
%TO.N,N$22*%
D60*
X51375000Y55370000D02*
X51705000Y55040000D01*
X50345800Y55370000D02*
X51375000Y55370000D01*
%TO.N,ADF4382_TX_LKDET*%
X43200000Y56870000D02*
X42575000Y56870000D01*
X43894200Y56870000D02*
X43200000Y56870000D01*
X42575000Y56870000D02*
X42530000Y56915000D01*
%TO.N,ADF4382_TX_CS*%
X43869200Y54345000D02*
X43894200Y54370000D01*
X43000000Y54345000D02*
X43869200Y54345000D01*
X42320000Y54345000D02*
X43000000Y54345000D01*
%TO.N,ADF4382_SDIO*%
D68*
X43874200Y53850000D02*
X43200000Y53850000D01*
X57500000Y53900000D02*
X57530000Y53870000D01*
X57530000Y53870000D02*
X58254200Y53870000D01*
X43894200Y53870000D02*
G75*
G02*
X43874200Y53850000I-20000J0D01*
G01*
%TO.N,ADF4382_SCLK*%
X43220000Y53370000D02*
X43200000Y53350000D01*
X43894200Y53370000D02*
X43220000Y53370000D01*
X57520000Y53370000D02*
X57400000Y53250000D01*
X58254200Y53370000D02*
X57520000Y53370000D01*
%TO.N,ADF4382_SDO*%
X43894200Y52870000D02*
X43120000Y52870000D01*
X58254200Y52870000D02*
X56920000Y52870000D01*
X56920000Y52870000D02*
X56900000Y52850000D01*
X43120000Y52870000D02*
X43100000Y52850000D01*
%TO.N,N$39*%
D60*
X61215000Y51110000D02*
X61215000Y51879200D01*
X61190000Y50580000D02*
X61190000Y51085000D01*
X61215000Y51879200D02*
G75*
G02*
X61230000Y51894200I15000J0D01*
G01*
X61190000Y51085000D02*
G75*
G02*
X61215000Y51110000I25000J0D01*
G01*
%TO.N,N$59*%
D67*
X70341446Y68091446D02*
X74123934Y71873934D01*
X74123934Y71873934D02*
G75*
G02*
X74380000Y71980009I256066J-256034D01*
G01*
%TO.N,N$14*%
D68*
X25750000Y12900000D02*
X25750000Y19400000D01*
D61*
X16360000Y21805000D02*
X16360000Y22385000D01*
D68*
X43200000Y11500000D02*
X27150000Y11500000D01*
X44450000Y12750000D02*
X43200000Y11500000D01*
X22700000Y22450000D02*
X16425000Y22450000D01*
X44450000Y23350000D02*
X44450000Y12750000D01*
X51940800Y30840800D02*
X44450000Y23350000D01*
X16425000Y22450000D02*
X16360000Y22385000D01*
D61*
X16360000Y22385000D02*
X16420000Y22445000D01*
D68*
X27150000Y11500000D02*
X25750000Y12900000D01*
X51940800Y35767800D02*
X51940800Y30840800D01*
X25750000Y19400000D02*
X22700000Y22450000D01*
%TO.N,N$40*%
D63*
X65615000Y56550000D02*
X65435000Y56370000D01*
X65435000Y56370000D02*
X64705800Y56370000D01*
%TO.N,N$4*%
D60*
X49770000Y41920000D02*
X50792400Y41920000D01*
X50792400Y41920000D02*
X50797800Y41914600D01*
%TO.N,AD9523_OUT5_P*%
D67*
X71094431Y42061768D02*
X72562250Y40593950D01*
X60602200Y42930600D02*
X61416600Y42930600D01*
X61416600Y42908600D02*
X69050000Y42908600D01*
X74358303Y39850000D02*
X77904315Y39850000D01*
X61416600Y42930600D02*
X61416600Y42908600D01*
X69050000Y42908600D02*
G75*
G02*
X71094439Y42061776I0J-2891300D01*
G01*
X72562250Y40593950D02*
G75*
G03*
X74358303Y39850002I1796050J1796050D01*
G01*
X77904315Y39850000D02*
G75*
G03*
X78869996Y40250004I-15J1365700D01*
G01*
%TO.N,AD9523_OUT5_N*%
X74358296Y39386000D02*
X77889828Y39386000D01*
X70766325Y41733675D02*
X72234150Y40265850D01*
X60602200Y42422600D02*
X61416600Y42422600D01*
X61416600Y42422600D02*
X61416600Y42444600D01*
X61416600Y42444600D02*
X69050000Y42444600D01*
X77889828Y39386000D02*
G75*
G02*
X78869991Y38979991I-28J-1386200D01*
G01*
X72234150Y40265850D02*
G75*
G03*
X74358296Y39385998I2124150J2124150D01*
G01*
X69050000Y42444600D02*
G75*
G02*
X70766315Y41733665I0J-2427200D01*
G01*
%TO.N,ADF4382_RX_CS*%
D60*
X57350000Y54415000D02*
X58209200Y54415000D01*
X58209200Y54415000D02*
X58254200Y54370000D01*
X56840000Y54415000D02*
X57350000Y54415000D01*
%TO.N,AD9523_OUT0_P*%
D67*
X52811400Y47650000D02*
X48486000Y47650000D01*
X46836000Y49300000D02*
X46836000Y50024000D01*
X46836000Y50024000D02*
X46810000Y50050000D01*
X53461400Y46386600D02*
X53461400Y47000000D01*
X53439400Y46386600D02*
X53461400Y46386600D01*
X53439400Y45572200D02*
X53439400Y46386600D01*
X53461400Y47000000D02*
G75*
G03*
X52811400Y47650000I-650000J0D01*
G01*
X48486000Y47650000D02*
G75*
G02*
X46836000Y49300000I0J1650000D01*
G01*
%TO.N,AD9523_OUT6+*%
D60*
X87430000Y30160000D02*
X92670000Y30160000D01*
X92670000Y30160000D02*
G75*
G03*
X92710000Y30200000I0J40000D01*
G01*
%TO.N,OSC_CTRL*%
D68*
X34010000Y14160000D02*
X32035000Y14160000D01*
X50797800Y41432000D02*
X46482000Y41432000D01*
X34200000Y14350000D02*
X34010000Y14160000D01*
X46482000Y41432000D02*
X46450000Y41400000D01*
%TO.N,N$45*%
D60*
X64705800Y55370000D02*
X65625000Y55370000D01*
X65625000Y55370000D02*
X65645000Y55350000D01*
%TO.N,N$51*%
D67*
X77210000Y52050000D02*
X77210000Y52040000D01*
X92860000Y49360000D02*
X85050000Y49360000D01*
X82360000Y52050000D02*
X77210000Y52050000D01*
X58730000Y51410000D02*
X58730000Y51894200D01*
X85050000Y49360000D02*
G75*
G02*
X83420000Y50990000I0J1630000D01*
G01*
X83420000Y50990000D02*
G75*
G03*
X82360000Y52050000I-1060000J0D01*
G01*
X57470000Y50150000D02*
G75*
G03*
X58730000Y51410000I0J1260000D01*
G01*
%TO.N,10MHZ_OUT*%
X34820000Y41381200D02*
X34820000Y41060000D01*
X50797800Y43921200D02*
X37360000Y43921200D01*
X37360000Y43921200D02*
G75*
G03*
X34820000Y41381200I0J-2540000D01*
G01*
%TO.N,100MHZ_OUT*%
X50797800Y42930600D02*
X42390000Y42930600D01*
X37310000Y35518900D02*
X36660000Y35518900D01*
X39850000Y40390600D02*
X39850000Y38058900D01*
X39850000Y38058900D02*
G75*
G02*
X37310000Y35518900I-2540000J0D01*
G01*
X42390000Y42930600D02*
G75*
G03*
X39850000Y40390600I0J-2540000D01*
G01*
%TO.N,N$6*%
D60*
X49802600Y42422600D02*
X50797800Y42422600D01*
X49770000Y42390000D02*
X49802600Y42422600D01*
%TO.N,AD9523_OUT1_P*%
D67*
X54938000Y46386600D02*
X54960000Y46386600D01*
X54960000Y46386600D02*
X54960000Y46799000D01*
X61275000Y49325000D02*
X61275000Y49995000D01*
X56200000Y48039000D02*
X56748518Y48039000D01*
X54938000Y45572200D02*
X54938000Y46386600D01*
X58909181Y48265040D02*
X59972150Y48022150D01*
X59972150Y48022150D02*
G75*
G03*
X61274950Y49325000I-50J1302850D01*
G01*
X57400000Y48375000D02*
G75*
G02*
X58543295Y48487612I620700J-441700D01*
G01*
X58543300Y48487618D02*
G75*
G03*
X58909183Y48265045I706500J749382D01*
G01*
X56748518Y48039000D02*
G75*
G03*
X57399991Y48375006I-18J799600D01*
G01*
X61275000Y49995000D02*
G75*
G03*
X61190000Y50080000I-85000J0D01*
G01*
X54960000Y46799000D02*
G75*
G02*
X56200000Y48039000I1240000J0D01*
G01*
%TD*%
M02*
