%TF.GenerationSoftware,KiCad,Pcbnew,10.0.6*%
%TF.CreationDate,2026-10-09T01:11:14+03:00*%
%TF.ProjectId,FREQUENCY_SYNTHESIZER,46524551-5545-44e4-9359-5f53594e5448,rev?*%
%TF.SameCoordinates,Original*%
%TF.FileFunction,Copper,L6,Bot*%
%TF.FilePolarity,Positive*%
%FSLAX46Y46*%
G04 Gerber Fmt 4.6, Leading zero omitted, Abs format (unit mm)*
G04 Created by KiCad (PCBNEW 10.0.6) date 2026-10-09 01:11:14*
%MOMM*%
%LPD*%
G01*
G04 APERTURE LIST*
G04 Aperture macros list*
%AMOutline5P*
0 Free polygon, 5 corners , with rotation*
0 The origin of the aperture is its center*
0 number of corners: always 5*
0 $1 to $10 corner X, Y*
0 $11 Rotation angle, in degrees counterclockwise*
0 create outline with 5 corners*
4,1,5,$1,$2,$3,$4,$5,$6,$7,$8,$9,$10,$1,$2,$11*%
%AMOutline6P*
0 Free polygon, 6 corners , with rotation*
0 The origin of the aperture is its center*
0 number of corners: always 6*
0 $1 to $12 corner X, Y*
0 $13 Rotation angle, in degrees counterclockwise*
0 create outline with 6 corners*
4,1,6,$1,$2,$3,$4,$5,$6,$7,$8,$9,$10,$11,$12,$1,$2,$13*%
%AMOutline7P*
0 Free polygon, 7 corners , with rotation*
0 The origin of the aperture is its center*
0 number of corners: always 7*
0 $1 to $14 corner X, Y*
0 $15 Rotation angle, in degrees counterclockwise*
0 create outline with 7 corners*
4,1,7,$1,$2,$3,$4,$5,$6,$7,$8,$9,$10,$11,$12,$13,$14,$1,$2,$15*%
%AMOutline8P*
0 Free polygon, 8 corners , with rotation*
0 The origin of the aperture is its center*
0 number of corners: always 8*
0 $1 to $16 corner X, Y*
0 $17 Rotation angle, in degrees counterclockwise*
0 create outline with 8 corners*
4,1,8,$1,$2,$3,$4,$5,$6,$7,$8,$9,$10,$11,$12,$13,$14,$15,$16,$1,$2,$17*%
G04 Aperture macros list end*
%TA.AperFunction,ComponentPad*%
%ADD10C,1.791000*%
%TD*%
%TA.AperFunction,ComponentPad*%
%ADD11C,1.143000*%
%TD*%
%TA.AperFunction,ComponentPad*%
%ADD12C,1.346200*%
%TD*%
%TA.AperFunction,ComponentPad*%
%ADD13O,1.500000X3.000000*%
%TD*%
%TA.AperFunction,ComponentPad*%
%ADD14O,3.000000X1.500000*%
%TD*%
%TA.AperFunction,ComponentPad*%
%ADD15Outline8P,-0.762000X0.315631X-0.315631X0.762000X0.315631X0.762000X0.762000X0.315631X0.762000X-0.315631X0.315631X-0.762000X-0.315631X-0.762000X-0.762000X-0.315631X180.000000*%
%TD*%
%TA.AperFunction,ComponentPad*%
%ADD16Outline8P,-0.762000X0.315631X-0.315631X0.762000X0.315631X0.762000X0.762000X0.315631X0.762000X-0.315631X0.315631X-0.762000X-0.315631X-0.762000X-0.762000X-0.315631X90.000000*%
%TD*%
%TA.AperFunction,ViaPad*%
%ADD17C,0.350000*%
%TD*%
%TA.AperFunction,ViaPad*%
%ADD18C,0.500000*%
%TD*%
%TA.AperFunction,ViaPad*%
%ADD19C,1.500000*%
%TD*%
%TA.AperFunction,ViaPad*%
%ADD20C,0.750000*%
%TD*%
%TA.AperFunction,ViaPad*%
%ADD21C,0.450000*%
%TD*%
%TA.AperFunction,ViaPad*%
%ADD22C,0.400000*%
%TD*%
%TA.AperFunction,ViaPad*%
%ADD23C,3.000000*%
%TD*%
%TA.AperFunction,Conductor*%
%ADD24C,0.100000*%
%TD*%
%TA.AperFunction,Conductor*%
%ADD25C,0.152400*%
%TD*%
%TA.AperFunction,Conductor*%
%ADD26C,0.204000*%
%TD*%
%TA.AperFunction,Conductor*%
%ADD27C,0.150000*%
%TD*%
G04 APERTURE END LIST*
D10*
%TO.P,J5,2*%
%TO.N,GND*%
X62020000Y20378100D03*
%TO.P,J5,3*%
X62020000Y15298100D03*
%TO.P,J5,4*%
X67100000Y15298100D03*
%TO.P,J5,5*%
X67100000Y20378100D03*
%TD*%
D11*
%TO.P,J3,1*%
%TO.N,AD9523_OUT4_P*%
X78870000Y47710000D03*
%TO.P,J3,2*%
%TO.N,AD9523_OUT4_N*%
X78870000Y46440000D03*
D12*
%TO.P,J3,3*%
%TO.N,N/C*%
X80140000Y48345000D03*
%TO.P,J3,4*%
X80140000Y45805000D03*
%TO.P,J3,5*%
X77600000Y48345000D03*
%TO.P,J3,6*%
X77600000Y45805000D03*
%TD*%
D13*
%TO.P,X12,1*%
%TO.N,N$73*%
X86530000Y4100000D03*
%TO.P,X12,2*%
%TO.N,GND*%
X89070000Y4100000D03*
%TD*%
D10*
%TO.P,J8,2*%
%TO.N,GND*%
X90170000Y18820000D03*
%TO.P,J8,3*%
X90170000Y13740000D03*
%TO.P,J8,4*%
X95250000Y13740000D03*
%TO.P,J8,5*%
X95250000Y18820000D03*
%TD*%
%TO.P,J9,2*%
%TO.N,GND*%
X12390000Y79830000D03*
%TO.P,J9,3*%
X12390000Y84910000D03*
%TO.P,J9,4*%
X7310000Y84910000D03*
%TO.P,J9,5*%
X7310000Y79830000D03*
%TD*%
D14*
%TO.P,X15,1*%
%TO.N,+5V0_LO*%
X94000000Y83230000D03*
%TO.P,X15,2*%
%TO.N,GND*%
X94000000Y85770000D03*
%TD*%
D10*
%TO.P,J10,2*%
%TO.N,GND*%
X43390000Y76540000D03*
%TO.P,J10,3*%
X43390000Y71460000D03*
%TO.P,J10,4*%
X48470000Y71460000D03*
%TO.P,J10,5*%
X48470000Y76540000D03*
%TD*%
%TO.P,J11,2*%
%TO.N,GND*%
X57660000Y76540000D03*
%TO.P,J11,3*%
X57660000Y71460000D03*
%TO.P,J11,4*%
X62740000Y71460000D03*
%TO.P,J11,5*%
X62740000Y76540000D03*
%TD*%
%TO.P,J1,2*%
%TO.N,GND*%
X50400000Y92540000D03*
%TO.P,J1,3*%
X50400000Y87460000D03*
%TO.P,J1,4*%
X55480000Y87460000D03*
%TO.P,J1,5*%
X55480000Y92540000D03*
%TD*%
D15*
%TO.P,JP1,1*%
%TO.N,AD9523_PD*%
X21440000Y18670000D03*
%TO.P,JP1,2*%
%TO.N,AD9523_REF_SEL*%
X21440000Y16130000D03*
%TO.P,JP1,3*%
%TO.N,AD9523_SYNC*%
X18900000Y18670000D03*
%TO.P,JP1,4*%
%TO.N,AD9523_RESET*%
X18900000Y16130000D03*
%TO.P,JP1,5*%
%TO.N,AD9523_CS*%
X16360000Y18670000D03*
%TO.P,JP1,6*%
%TO.N,AD9523_SCLK*%
X16360000Y16130000D03*
%TO.P,JP1,7*%
%TO.N,AD9523_SDIO*%
X13820000Y18670000D03*
%TO.P,JP1,8*%
%TO.N,AD9523_SDO*%
X13820000Y16130000D03*
%TO.P,JP1,9*%
%TO.N,AD9523_STATUS0*%
X11280000Y18670000D03*
%TO.P,JP1,10*%
%TO.N,AD9523_STATUS1*%
X11280000Y16130000D03*
%TO.P,JP1,11*%
%TO.N,AD9523_EEPROM_SEL*%
X8740000Y18670000D03*
%TO.P,JP1,12*%
%TO.N,GND*%
X8740000Y16130000D03*
%TD*%
D13*
%TO.P,X11,1*%
%TO.N,N$71*%
X28130000Y3800000D03*
%TO.P,X11,2*%
%TO.N,GND*%
X30670000Y3800000D03*
%TD*%
D10*
%TO.P,J6,2*%
%TO.N,GND*%
X50250000Y20810000D03*
%TO.P,J6,3*%
X50250000Y15730000D03*
%TO.P,J6,4*%
X55330000Y15730000D03*
%TO.P,J6,5*%
X55330000Y20810000D03*
%TD*%
D13*
%TO.P,X13,1*%
%TO.N,N$75*%
X13670000Y95200000D03*
%TO.P,X13,2*%
%TO.N,GND*%
X11130000Y95200000D03*
%TD*%
D10*
%TO.P,J12,2*%
%TO.N,GND*%
X70787898Y71980000D03*
%TO.P,J12,3*%
X74380000Y68387898D03*
%TO.P,J12,4*%
X77972102Y71980000D03*
%TO.P,J12,5*%
X74380000Y75572102D03*
%TD*%
D14*
%TO.P,X10,1*%
%TO.N,N$69*%
X4800000Y31970000D03*
%TO.P,X10,2*%
%TO.N,GND*%
X4800000Y29430000D03*
%TD*%
D13*
%TO.P,X14,1*%
%TO.N,N$77*%
X43370000Y95300000D03*
%TO.P,X14,2*%
%TO.N,GND*%
X40830000Y95300000D03*
%TD*%
D11*
%TO.P,J4,1*%
%TO.N,AD9523_OUT5_P*%
X78870000Y40250000D03*
%TO.P,J4,2*%
%TO.N,AD9523_OUT5_N*%
X78870000Y38980000D03*
D12*
%TO.P,J4,3*%
%TO.N,N/C*%
X80140000Y40885000D03*
%TO.P,J4,4*%
X80140000Y38345000D03*
%TO.P,J4,5*%
X77600000Y40885000D03*
%TO.P,J4,6*%
X77600000Y38345000D03*
%TD*%
D10*
%TO.P,J13,2*%
%TO.N,GND*%
X9130000Y65370000D03*
%TO.P,J13,3*%
X14210000Y65370000D03*
%TO.P,J13,4*%
X14210000Y70450000D03*
%TO.P,J13,5*%
X9130000Y70450000D03*
%TD*%
D16*
%TO.P,JP2,1*%
%TO.N,ADF4382_SDO*%
X89820000Y58360000D03*
%TO.P,JP2,2*%
%TO.N,ADF4382_SCLK*%
X87280000Y58360000D03*
%TO.P,JP2,3*%
%TO.N,ADF4382_SDIO*%
X89820000Y60900000D03*
%TO.P,JP2,4*%
%TO.N,ADF4382_TX_CS*%
X87280000Y60900000D03*
%TO.P,JP2,5*%
%TO.N,ADF4382_TX_CE*%
X89820000Y63440000D03*
%TO.P,JP2,6*%
%TO.N,ADF4382_TX_DELSTR*%
X87280000Y63440000D03*
%TO.P,JP2,7*%
%TO.N,ADF4382_TX_DELADJ*%
X89820000Y65980000D03*
%TO.P,JP2,8*%
%TO.N,ADF4382_TX_LKDET*%
X87280000Y65980000D03*
%TO.P,JP2,9*%
%TO.N,ADF4382_RX_CS*%
X89820000Y68520000D03*
%TO.P,JP2,10*%
%TO.N,ADF4382_RX_CE*%
X87280000Y68520000D03*
%TO.P,JP2,11*%
%TO.N,ADF4382_RX_DELSTR*%
X89820000Y71060000D03*
%TO.P,JP2,12*%
%TO.N,ADF4382_RX_DELADJ*%
X87280000Y71060000D03*
%TO.P,JP2,13*%
%TO.N,ADF4382_RX_LKDET*%
X89820000Y73600000D03*
%TO.P,JP2,14*%
%TO.N,GND*%
X87280000Y73600000D03*
%TD*%
D10*
%TO.P,J7,2*%
%TO.N,GND*%
X90170000Y27660000D03*
%TO.P,J7,3*%
X95250000Y27660000D03*
%TO.P,J7,4*%
X95250000Y32740000D03*
%TO.P,J7,5*%
X90170000Y32740000D03*
%TD*%
%TO.P,J2,2*%
%TO.N,GND*%
X90320000Y46820000D03*
%TO.P,J2,3*%
X95400000Y46820000D03*
%TO.P,J2,4*%
X95400000Y51900000D03*
%TO.P,J2,5*%
X90320000Y51900000D03*
%TD*%
D17*
%TO.N,GND*%
X58630000Y49075000D03*
X49550000Y44950000D03*
D18*
X5340000Y69422000D03*
X47390000Y94472000D03*
X48740000Y48972000D03*
X42790000Y39422000D03*
X70240000Y21622000D03*
X82390000Y34472000D03*
X24890000Y39472000D03*
D19*
X48930000Y11610000D03*
D18*
X6840000Y64522000D03*
D20*
X46400000Y53250000D03*
D18*
X87390000Y24472000D03*
D20*
X45150000Y54500000D03*
D18*
X66450000Y23722000D03*
D17*
X64530000Y35250000D03*
X55950000Y35000000D03*
D18*
X48040000Y30822000D03*
D21*
X60810000Y69500000D03*
D18*
X2390000Y64472000D03*
X47040000Y78872000D03*
X51190000Y84522000D03*
D19*
X55900000Y37850000D03*
D18*
X8590000Y49472000D03*
D21*
X72240700Y69140700D03*
D18*
X47090000Y36672000D03*
X55690000Y62922000D03*
X10790000Y76372000D03*
X35090000Y20472000D03*
X33740000Y44922000D03*
X20990000Y24972000D03*
X43290000Y32772000D03*
X97390000Y4472000D03*
X65180000Y29472000D03*
D19*
X21600000Y27000000D03*
X20900000Y96700000D03*
D17*
X62250000Y50050000D03*
D18*
X55640000Y2422000D03*
X73390000Y17522000D03*
X13090000Y78222000D03*
X72340000Y67022000D03*
X40790000Y13972000D03*
D20*
X48950000Y56950000D03*
D18*
X64240000Y2522000D03*
D21*
X53550000Y80700000D03*
D18*
X47890000Y28372000D03*
D21*
X53550000Y71900000D03*
D18*
X6790000Y66272000D03*
X85040000Y23022000D03*
X15240000Y23722000D03*
D19*
X70900000Y88300000D03*
D18*
X76090000Y66622000D03*
X81140000Y71572000D03*
X61740000Y78872000D03*
X77540000Y62522000D03*
X97390000Y94472000D03*
X97390000Y64472000D03*
X40890000Y72272000D03*
D19*
X87600000Y91000000D03*
D21*
X53550000Y69500000D03*
D19*
X55600000Y43150000D03*
D18*
X50840000Y70022000D03*
X27340000Y43272000D03*
X55290000Y49022000D03*
X16740000Y62922000D03*
D17*
X54450000Y47650000D03*
X41250000Y56950000D03*
D18*
X12390000Y54472000D03*
X75340000Y43372000D03*
X60390000Y79772000D03*
D21*
X53550000Y83900000D03*
D18*
X62640000Y2522000D03*
D17*
X50500000Y63850000D03*
D19*
X53200000Y43200000D03*
D18*
X65240000Y72622000D03*
D21*
X72805700Y69705700D03*
D17*
X56750000Y62600000D03*
D18*
X68290000Y70872000D03*
X9540000Y20522000D03*
D19*
X58100000Y43200000D03*
D21*
X53550000Y82300000D03*
D18*
X42290000Y16372000D03*
X48090000Y92722000D03*
D21*
X52330000Y86300000D03*
D18*
X8840000Y61272000D03*
X27390000Y14472000D03*
X9642840Y77086096D03*
X7838793Y77461734D03*
X57390000Y84472000D03*
X71170000Y9092000D03*
X11590000Y24822000D03*
X2340000Y40522000D03*
X72390000Y94472000D03*
D21*
X59590000Y71100000D03*
D18*
X13940000Y62872000D03*
X42630000Y29672000D03*
X47340000Y16822000D03*
D17*
X43650000Y64500000D03*
D20*
X48850000Y53250000D03*
D18*
X3640000Y78872000D03*
D17*
X62900000Y64500000D03*
D18*
X34890000Y69472000D03*
X55340000Y78772000D03*
X71490000Y60572000D03*
D21*
X72510700Y71110700D03*
X46540000Y73100000D03*
D18*
X54240000Y2472000D03*
X87690000Y50372000D03*
D21*
X60940000Y74390000D03*
D17*
X40650000Y55450000D03*
D18*
X84340000Y39172000D03*
X16640000Y69572000D03*
X77390000Y24472000D03*
D21*
X52330000Y72700000D03*
D17*
X44450000Y67050000D03*
X67950000Y65000000D03*
X55550000Y63850000D03*
X56000000Y55400000D03*
D18*
X12440000Y88472000D03*
X38340000Y20522000D03*
D21*
X45000000Y73920000D03*
D18*
X57890000Y91272000D03*
X89990000Y24222000D03*
D17*
X43200000Y57850000D03*
D21*
X46540000Y69900000D03*
D18*
X84890000Y19472000D03*
D17*
X45850000Y57850000D03*
D18*
X2390000Y44472000D03*
D21*
X53550000Y71100000D03*
D18*
X72115000Y37397000D03*
X65140000Y33822000D03*
X36490000Y74122000D03*
D17*
X69550000Y63200000D03*
D18*
X55090000Y76722000D03*
D17*
X51100000Y57850000D03*
D18*
X64790000Y79022000D03*
X89940000Y39122000D03*
D21*
X52330000Y82300000D03*
D20*
X59550000Y57100000D03*
D21*
X73370700Y70270700D03*
D18*
X72190000Y20672000D03*
D17*
X51550000Y68650000D03*
D18*
X5890000Y44072000D03*
X6240000Y15422000D03*
D20*
X63350000Y57000000D03*
D19*
X53350000Y37900000D03*
D17*
X57400000Y50900000D03*
D20*
X60750000Y53150000D03*
D18*
X77390000Y55222000D03*
D17*
X47400000Y57900000D03*
X58600000Y68000000D03*
D21*
X53550000Y84700000D03*
D18*
X4890000Y49472000D03*
X62340000Y68922000D03*
D17*
X60400000Y49200000D03*
D18*
X49490000Y68922000D03*
X14480484Y84899978D03*
X46790000Y44872000D03*
X22390000Y3672000D03*
D21*
X59590000Y71900000D03*
X52330000Y77500000D03*
D19*
X10500000Y26900000D03*
D17*
X62800000Y37425000D03*
D18*
X42390000Y14472000D03*
D20*
X45250000Y53200000D03*
D18*
X47340000Y14322000D03*
D21*
X53550000Y81500000D03*
D17*
X68100000Y55850000D03*
D18*
X85340000Y45322000D03*
D19*
X36450000Y13450000D03*
D20*
X63300000Y53200000D03*
D17*
X56850000Y46300000D03*
D21*
X53670000Y89520000D03*
D18*
X38590000Y48922000D03*
X47890000Y23022000D03*
X66340000Y13822000D03*
X97390000Y44472000D03*
D17*
X53400000Y54800000D03*
D18*
X14317337Y79596531D03*
D17*
X47650000Y37600000D03*
D18*
X35740000Y37822000D03*
X79040000Y69572000D03*
X17390000Y64472000D03*
X37340000Y79522000D03*
D17*
X52550000Y64050000D03*
D21*
X52330000Y76700000D03*
D18*
X98240000Y29522000D03*
X8490000Y62822000D03*
X34640000Y12722000D03*
D21*
X53550000Y70300000D03*
D18*
X79940000Y23222000D03*
D21*
X53550000Y87100000D03*
D17*
X63300000Y41900000D03*
D18*
X17190000Y26472000D03*
X92990000Y69722000D03*
D21*
X45320000Y69100000D03*
D18*
X58340000Y68922000D03*
X84890000Y69472000D03*
D21*
X46540000Y72300000D03*
D20*
X45150000Y57050000D03*
D18*
X70310000Y10052000D03*
X47990000Y85822000D03*
X44940000Y79022000D03*
X67690000Y1822000D03*
X31890000Y74172000D03*
D17*
X48700000Y42400000D03*
D18*
X81790000Y39322000D03*
D17*
X45550000Y64650000D03*
D18*
X72390000Y34472000D03*
X16990000Y79522000D03*
D21*
X53550000Y87900000D03*
D18*
X32440000Y33772000D03*
X78590000Y74972000D03*
X55040000Y71672000D03*
X13340000Y8522000D03*
D21*
X45320000Y72300000D03*
D18*
X55490000Y68822000D03*
D17*
X64150000Y59300000D03*
X60200000Y62000000D03*
D22*
X16350000Y11400000D03*
D18*
X47890000Y32172000D03*
X64290000Y65872000D03*
X54940000Y94972000D03*
D17*
X67550000Y65450000D03*
D18*
X71180000Y11342000D03*
X74590000Y36472000D03*
D17*
X48350000Y38900000D03*
D18*
X65090000Y15572000D03*
D17*
X48400000Y57850000D03*
D18*
X42390000Y64472000D03*
X4890000Y39472000D03*
D21*
X53550000Y78300000D03*
D18*
X29040000Y40472000D03*
D21*
X46540000Y70700000D03*
X52330000Y88700000D03*
D18*
X57790000Y78972000D03*
D17*
X65650000Y51550000D03*
D18*
X20590000Y20572000D03*
D21*
X46540000Y71500000D03*
X59590000Y72700000D03*
D18*
X42440000Y78872000D03*
D17*
X46900000Y57900000D03*
D20*
X63300000Y54300000D03*
D18*
X42390000Y34472000D03*
D21*
X52330000Y83900000D03*
D18*
X13790000Y27922000D03*
D17*
X60650000Y65350000D03*
D19*
X34300000Y90300000D03*
D18*
X73040000Y53522000D03*
D21*
X45320000Y70700000D03*
D17*
X46400000Y42100000D03*
D18*
X97190000Y59422000D03*
X73490000Y65922000D03*
D19*
X25000000Y86400000D03*
D17*
X70650000Y65800000D03*
D18*
X17390000Y24472000D03*
X48090000Y68972000D03*
X12390000Y64472000D03*
D21*
X73935700Y70835700D03*
D18*
X16740000Y71172000D03*
X79890000Y19472000D03*
D17*
X60700000Y35350000D03*
D19*
X45900000Y1500000D03*
D18*
X68140000Y74522000D03*
X40790000Y70022000D03*
X2390000Y54472000D03*
D21*
X45320000Y69900000D03*
X52330000Y79100000D03*
D20*
X62250000Y53150000D03*
D18*
X26090000Y29322000D03*
X4890000Y9472000D03*
X97390000Y74722000D03*
D21*
X71675700Y68575700D03*
D18*
X40190000Y63072000D03*
X37240000Y48772000D03*
X1390000Y14472000D03*
X70040000Y59772000D03*
X23090000Y20222000D03*
D21*
X53550000Y73500000D03*
D18*
X29890000Y29472000D03*
X18240000Y49422000D03*
D17*
X43200000Y57400000D03*
D21*
X52330000Y71100000D03*
X60810000Y72700000D03*
D18*
X65240000Y13772000D03*
X76690000Y68672000D03*
X36840000Y47622000D03*
D21*
X52330000Y87100000D03*
D18*
X54890000Y79472000D03*
D22*
X14600000Y4050000D03*
D19*
X70400000Y1600000D03*
D17*
X65500000Y52950000D03*
X61750000Y57850000D03*
X51100000Y52850000D03*
D21*
X53550000Y76700000D03*
D18*
X59190000Y2272000D03*
X65290000Y68372000D03*
D21*
X60810000Y73500000D03*
D18*
X34890000Y49472000D03*
D17*
X63530000Y38950000D03*
D18*
X6272018Y78431737D03*
X7540000Y72922000D03*
D17*
X53300000Y64750000D03*
D18*
X41590000Y63172000D03*
D21*
X70250000Y68850000D03*
X52330000Y87900000D03*
D18*
X56790000Y68822000D03*
D17*
X51050000Y53850000D03*
D20*
X47850000Y53300000D03*
D18*
X65470000Y28382000D03*
X54240000Y60822000D03*
D17*
X62700000Y50050000D03*
D18*
X65140000Y74422000D03*
X95390000Y69822000D03*
D17*
X52050000Y46350000D03*
D18*
X43990000Y38622000D03*
X92990000Y59672000D03*
X46050000Y9482000D03*
X49890000Y79472000D03*
D17*
X44550000Y59100000D03*
D18*
X65880000Y27182000D03*
D20*
X60750000Y55800000D03*
D17*
X49900000Y34650000D03*
D18*
X11390000Y62872000D03*
D19*
X34400000Y86700000D03*
D18*
X30390000Y44772000D03*
D17*
X48800000Y45750000D03*
D18*
X65290000Y31572000D03*
D19*
X53200000Y40450000D03*
D17*
X69200000Y68750000D03*
D18*
X5294640Y85182559D03*
D17*
X55850000Y56800000D03*
D20*
X46400000Y54450000D03*
D18*
X92640000Y74622000D03*
X2390000Y34472000D03*
X40090000Y64872000D03*
X67390000Y24472000D03*
D17*
X68500000Y65600000D03*
D18*
X57390000Y1672000D03*
X82390000Y44472000D03*
X33040000Y26022000D03*
D20*
X63400000Y55900000D03*
D18*
X4890000Y59472000D03*
D21*
X60810000Y71100000D03*
X53550000Y85500000D03*
D18*
X79590000Y27072000D03*
X66690000Y48872000D03*
X52390000Y94472000D03*
X93140000Y64472000D03*
D21*
X52330000Y78300000D03*
X45320000Y73100000D03*
D18*
X2390000Y74472000D03*
X65230000Y30492000D03*
D17*
X63100000Y43400000D03*
X56450000Y56950000D03*
D18*
X50280000Y2312000D03*
D17*
X65500000Y57850000D03*
D18*
X7390000Y34472000D03*
D21*
X50980000Y73450000D03*
D18*
X70300000Y24242000D03*
D17*
X61200000Y57850000D03*
D18*
X94040000Y54522000D03*
X49490000Y84672000D03*
D17*
X64200000Y50300000D03*
D21*
X46540000Y69100000D03*
D17*
X47900000Y39400000D03*
D18*
X2390000Y4472000D03*
X77440000Y68172000D03*
D17*
X62000000Y66950000D03*
X58600000Y67100000D03*
D18*
X42940000Y37272000D03*
X92440000Y35272000D03*
D21*
X74670700Y71280700D03*
D18*
X98140000Y34672000D03*
X72390000Y14472000D03*
X17390000Y44472000D03*
X37390000Y14472000D03*
D19*
X35500000Y1400000D03*
X15700000Y86400000D03*
D17*
X45550000Y65350000D03*
D22*
X13850000Y23750000D03*
D18*
X32290000Y48772000D03*
X47390000Y84472000D03*
D20*
X49000000Y55850000D03*
D18*
X4931493Y79929112D03*
D17*
X58000000Y46300000D03*
X47500000Y34600000D03*
D20*
X47800000Y55850000D03*
D21*
X52330000Y75100000D03*
D17*
X48650000Y40400000D03*
X63455000Y37325000D03*
X54300000Y68650000D03*
D18*
X87490000Y53972000D03*
X82390000Y14472000D03*
D17*
X60200000Y57850000D03*
D18*
X77390000Y34472000D03*
X9890000Y9472000D03*
D19*
X58300000Y37800000D03*
D18*
X2390000Y84472000D03*
X5740000Y20122000D03*
D21*
X60810000Y71900000D03*
D18*
X17390000Y54472000D03*
X50940000Y74422000D03*
D19*
X55650000Y40600000D03*
D21*
X52330000Y83100000D03*
D18*
X8140000Y87522000D03*
D21*
X60810000Y70300000D03*
D18*
X6521975Y86557093D03*
D21*
X59420000Y74370000D03*
D18*
X82390000Y74472000D03*
X49040000Y78822000D03*
X52390000Y74472000D03*
D21*
X53550000Y86300000D03*
D18*
X32390000Y84472000D03*
D17*
X41700000Y61950000D03*
D18*
X54690000Y61522000D03*
D21*
X59590000Y68700000D03*
D17*
X50000000Y51300000D03*
X57500000Y35000000D03*
D18*
X69140000Y69922000D03*
D21*
X52230000Y89530000D03*
D17*
X44200000Y46725000D03*
X65450000Y53850000D03*
D18*
X40840000Y80022000D03*
D17*
X48700000Y36300000D03*
D18*
X12390000Y14472000D03*
X97390000Y24472000D03*
D21*
X71380700Y69980700D03*
D17*
X53300000Y64050000D03*
X47300000Y68200000D03*
D21*
X52330000Y85500000D03*
D18*
X41990000Y68822000D03*
X64890000Y89472000D03*
X72920000Y10682000D03*
D17*
X7400000Y60700000D03*
D18*
X15690000Y72772000D03*
D17*
X45875000Y46675000D03*
D18*
X13339959Y86347353D03*
X12590000Y26872000D03*
X74190000Y79022000D03*
X37140000Y63022000D03*
D17*
X51100000Y52350000D03*
D18*
X97390000Y54472000D03*
X62390000Y84472000D03*
X76890000Y28122000D03*
X72440000Y43172000D03*
X65240000Y36122000D03*
X65290000Y40122000D03*
X74890000Y49472000D03*
X62640000Y89422000D03*
X42390000Y84472000D03*
X50890000Y71472000D03*
D20*
X46550000Y55850000D03*
D18*
X55040000Y74372000D03*
D17*
X52550000Y64750000D03*
D18*
X49840000Y94722000D03*
X11773184Y87317356D03*
X19890000Y39472000D03*
X16840000Y65672000D03*
X47890000Y90322000D03*
X7390000Y4472000D03*
X63890000Y64822000D03*
D21*
X46830000Y73920000D03*
D18*
X65240000Y76422000D03*
D21*
X45320000Y71500000D03*
D18*
X68390000Y73322000D03*
D17*
X77800000Y52600000D03*
D18*
X49690000Y64472000D03*
X92390000Y44472000D03*
D17*
X61300000Y40950000D03*
D20*
X59600000Y53200000D03*
D18*
X46880000Y10492000D03*
X17540000Y2722000D03*
X16790000Y77072000D03*
X72390000Y44472000D03*
D17*
X48350000Y51200000D03*
D18*
X23240000Y36722000D03*
D20*
X60800000Y57050000D03*
D17*
X65500000Y52500000D03*
D18*
X82390000Y94472000D03*
X25790000Y25422000D03*
X62390000Y94472000D03*
D17*
X61400000Y35250000D03*
D19*
X81300000Y1400000D03*
D18*
X6045412Y87678956D03*
D21*
X52330000Y80700000D03*
D17*
X50300000Y35150000D03*
D18*
X55890000Y65022000D03*
X57840000Y89672000D03*
D17*
X59850000Y65350000D03*
D18*
X56640000Y64322000D03*
X87390000Y94472000D03*
X14890000Y59472000D03*
D17*
X50300000Y50350000D03*
D21*
X52330000Y71900000D03*
X52330000Y73500000D03*
D17*
X64250000Y56850000D03*
X46350000Y51000000D03*
X58650000Y59100000D03*
D21*
X71110000Y68010000D03*
D17*
X71050000Y67000000D03*
X68700000Y55600000D03*
D21*
X60810000Y68700000D03*
D17*
X48700000Y43400000D03*
D18*
X47340000Y19322000D03*
X77390000Y94472000D03*
D17*
X44500000Y68250000D03*
D18*
X47340000Y21822000D03*
X52540000Y95772000D03*
X57440000Y94972000D03*
X32640000Y25322000D03*
X17390000Y14472000D03*
X82240000Y55172000D03*
X68040000Y13822000D03*
D20*
X62200000Y54350000D03*
D18*
X55140000Y84372000D03*
D21*
X52330000Y79900000D03*
D17*
X60650000Y64600000D03*
D20*
X62100000Y57050000D03*
X60800000Y54450000D03*
D18*
X87390000Y34472000D03*
D17*
X51500000Y66450000D03*
D18*
X98590000Y49372000D03*
D20*
X59550000Y54550000D03*
D18*
X57840000Y87122000D03*
D21*
X73640700Y72240700D03*
D17*
X56250000Y52350000D03*
D18*
X15030000Y28342000D03*
D17*
X63050000Y39100000D03*
D18*
X82540000Y49572000D03*
X94890000Y9472000D03*
D17*
X46250000Y65350000D03*
D18*
X52890000Y2422000D03*
X70440000Y75222000D03*
D17*
X60700000Y51250000D03*
D20*
X48900000Y54450000D03*
D18*
X60040000Y2272000D03*
D17*
X57850000Y64450000D03*
D18*
X22390000Y24472000D03*
X67390000Y94472000D03*
X74040000Y59522000D03*
D17*
X62700000Y57850000D03*
D18*
X7390000Y74472000D03*
D21*
X52330000Y75900000D03*
D17*
X48550000Y64500000D03*
D21*
X52330000Y70300000D03*
D19*
X26500000Y88400000D03*
D18*
X48790000Y63022000D03*
D21*
X53550000Y79900000D03*
D18*
X47790000Y88222000D03*
X31940000Y64522000D03*
X82390000Y24472000D03*
X48840000Y2212000D03*
D22*
X16450000Y23750000D03*
D18*
X2640000Y29722000D03*
D17*
X42550000Y51400000D03*
D21*
X53550000Y79100000D03*
D17*
X61200000Y45400000D03*
D18*
X29890000Y49472000D03*
D17*
X51140000Y59300000D03*
D23*
X34650000Y64900000D03*
D18*
X35440000Y25772000D03*
D17*
X61480000Y39400000D03*
D21*
X59590000Y73500000D03*
D18*
X4611440Y83471150D03*
X65970000Y26032000D03*
D17*
X62750000Y60550000D03*
D18*
X86340000Y50472000D03*
X9969137Y87692993D03*
X71590000Y76822000D03*
D20*
X59600000Y55800000D03*
D18*
X29940000Y20472000D03*
X43190000Y68972000D03*
D17*
X61850000Y68000000D03*
D18*
X6890000Y68872000D03*
D20*
X47800000Y54400000D03*
D18*
X77390000Y14472000D03*
X57990000Y85222000D03*
D21*
X73075700Y71675700D03*
D18*
X75840000Y77622000D03*
X2390000Y24472000D03*
D21*
X71945700Y70545700D03*
D18*
X12540000Y72922000D03*
D21*
X53550000Y72700000D03*
D17*
X67900000Y66100000D03*
D21*
X52330000Y84700000D03*
D17*
X45850000Y61600000D03*
X49650000Y48950000D03*
D18*
X41290000Y38822000D03*
X51040000Y76072000D03*
X65940000Y2472000D03*
D21*
X52330000Y81500000D03*
D18*
X17390000Y74472000D03*
X12390000Y74472000D03*
D21*
X59590000Y70300000D03*
D17*
X48350000Y60500000D03*
D20*
X45200000Y55900000D03*
D18*
X68440000Y59422000D03*
X60540000Y89472000D03*
D17*
X68200000Y68300000D03*
D18*
X23340000Y14522000D03*
X40890000Y74372000D03*
X92390000Y24472000D03*
D17*
X59850000Y64600000D03*
D18*
X79540000Y64772000D03*
X39890000Y29472000D03*
X39940000Y21572000D03*
X2390000Y94472000D03*
X24890000Y49472000D03*
X87390000Y44472000D03*
X62690000Y62972000D03*
X12390000Y44472000D03*
D17*
X62855000Y35325000D03*
D18*
X32040000Y43522000D03*
X99040000Y13722000D03*
X71640000Y59522000D03*
X72390000Y24472000D03*
D17*
X47200000Y66950000D03*
D18*
X8190000Y25022000D03*
D17*
X51100000Y56850000D03*
D18*
X4554781Y81629281D03*
X6240000Y38172000D03*
D21*
X53550000Y83100000D03*
D18*
X31890000Y70172000D03*
X81440000Y57672000D03*
X62390000Y34472000D03*
D21*
X53550000Y77500000D03*
D18*
X47340000Y11822000D03*
X40890000Y76122000D03*
X43140000Y62922000D03*
X9940000Y72822000D03*
X79190000Y57722000D03*
D21*
X59590000Y69500000D03*
D18*
X42140000Y21772000D03*
X71840000Y53072000D03*
D22*
X32000000Y12950000D03*
D18*
X14890000Y49472000D03*
D17*
X53900000Y51550000D03*
D18*
X42540000Y31472000D03*
X12390000Y4472000D03*
X37390000Y84472000D03*
X69890000Y79472000D03*
D21*
X52330000Y69500000D03*
D19*
X38250000Y25750000D03*
D18*
X66390000Y39572000D03*
X94890000Y39122000D03*
D21*
X70815700Y69415700D03*
D18*
X65140000Y70672000D03*
X72240000Y32572000D03*
X71440000Y61872000D03*
X47940000Y29372000D03*
D21*
X53550000Y75900000D03*
X53550000Y75100000D03*
D18*
X29140000Y32972000D03*
D17*
X57550000Y57900000D03*
X65650000Y66950000D03*
D18*
X77890000Y64872000D03*
D21*
X53550000Y88700000D03*
D18*
X22390000Y43422000D03*
X11466565Y77350134D03*
X92390000Y94472000D03*
X50940000Y77822000D03*
X70690000Y64822000D03*
D19*
X69070000Y11730000D03*
X58200000Y40600000D03*
D18*
X7390000Y54472000D03*
X72290000Y49372000D03*
D20*
X47800000Y57000000D03*
D17*
X59000000Y35000000D03*
D21*
X53550000Y74300000D03*
D18*
X6740000Y71022000D03*
X40890000Y78072000D03*
D17*
X65500000Y49150000D03*
X48700000Y41900000D03*
D18*
X43890000Y45072000D03*
D20*
X46400000Y57050000D03*
D18*
X66990000Y53572000D03*
D17*
X46250000Y64650000D03*
D18*
X4890000Y89472000D03*
X27440000Y48572000D03*
D17*
X54200000Y66450000D03*
D18*
X39890000Y69472000D03*
D20*
X62200000Y55850000D03*
D17*
%TO.N,+3V3_LO_2*%
X60200000Y59950000D03*
X48350000Y58950000D03*
X62700000Y58950000D03*
X51050000Y54400000D03*
X57800000Y59150000D03*
X51090000Y57360000D03*
X45850000Y59950000D03*
X43960000Y59060000D03*
X64900000Y59250000D03*
X51020000Y58830000D03*
X65510000Y54400000D03*
X65500000Y57350000D03*
D19*
X27400000Y86600000D03*
D17*
%TO.N,ADF4382_TX_DELSTR*%
X42700000Y55985000D03*
%TO.N,+3V3_LO_1*%
X60200000Y51250000D03*
X57600000Y52500000D03*
X40850000Y54400000D03*
D19*
X22900000Y85800000D03*
D17*
X62200000Y51250000D03*
X62700000Y51250000D03*
X65300000Y53390000D03*
X42900000Y55450000D03*
X56300000Y53900000D03*
X51100000Y53350000D03*
X47850000Y51200000D03*
X43050000Y52300000D03*
X57250000Y55350000D03*
X41800000Y53850000D03*
X45850000Y50950000D03*
%TO.N,+1V8_CLOCK*%
X52850000Y46350000D03*
X56950000Y35000000D03*
X55950000Y46350000D03*
X61450000Y41900000D03*
X61500000Y38950000D03*
D19*
X67410000Y10310000D03*
D17*
X60300000Y35000000D03*
X61400000Y44900000D03*
%TO.N,+3V3_CLOCK*%
X61350000Y40400000D03*
X58450000Y35000000D03*
X54450000Y46250000D03*
X57450000Y46350000D03*
D19*
X48920000Y9500000D03*
D17*
X61350000Y37420000D03*
X55450000Y35000000D03*
X50800000Y35150000D03*
X49800000Y44450000D03*
X61400000Y43400000D03*
X49950000Y38900000D03*
%TO.N,ADF4382_RX_LKDET*%
X57600000Y57200000D03*
%TO.N,AD9523_OUT8_N*%
X59807500Y48950000D03*
X63525000Y37838000D03*
%TO.N,ADF4382_RX_DELSTR*%
X56900000Y55870000D03*
%TO.N,AD9523_OUT9_N*%
X63377000Y35300000D03*
X45323000Y46900000D03*
%TO.N,ADF4382_RX_CE*%
X57050000Y54870000D03*
D18*
%TO.N,+5V0_LO*%
X54975000Y60775000D03*
X69250000Y59700000D03*
D19*
X70900000Y86100000D03*
D17*
%TO.N,ADF4382_TX_CE*%
X42950000Y54870000D03*
%TO.N,AD9523_OUT8_P*%
X59197500Y48950000D03*
X63525000Y38448000D03*
%TO.N,AD9523_OUT9_P*%
X44713000Y46900000D03*
X63987000Y35300000D03*
%TO.N,ADF4382_TX_DELADJ*%
X43200000Y56370000D03*
%TO.N,AD9523_PD*%
X47400000Y31550000D03*
%TO.N,AD9523_REF_SEL*%
X49250000Y36900000D03*
%TO.N,AD9523_SYNC*%
X47775000Y35125000D03*
%TO.N,AD9523_RESET*%
X26750000Y13550000D03*
%TO.N,AD9523_STATUS0*%
X59100000Y46900000D03*
%TO.N,AD9523_STATUS1*%
X59900000Y46300000D03*
X14650000Y4700000D03*
%TO.N,AD9523_EEPROM_SEL*%
X58650000Y46500000D03*
%TO.N,ADF4382_RX_DELADJ*%
X57550000Y56370000D03*
%TO.N,ADF4382_TX_LKDET*%
X43200000Y56870000D03*
%TO.N,ADF4382_TX_CS*%
X43000000Y54345000D03*
%TO.N,ADF4382_SDIO*%
X57500000Y53900000D03*
X43200000Y53850000D03*
%TO.N,ADF4382_SCLK*%
X43200000Y53350000D03*
X57400000Y53250000D03*
%TO.N,ADF4382_SDO*%
X56900000Y52850000D03*
X43100000Y52850000D03*
%TO.N,ADF4382_RX_CS*%
X57350000Y54415000D03*
%TO.N,OSC_CTRL*%
X34200000Y14350000D03*
D18*
X46450000Y41400000D03*
D17*
%TO.N,N$51*%
X77210000Y52040000D03*
X57470000Y50150000D03*
%TD*%
%TO.N,ADF4382_TX_DELSTR*%
D24*
X42550000Y52300000D02*
X42550000Y55600000D01*
X42550000Y55600000D02*
X42700000Y55750000D01*
X88200000Y62500000D02*
X93050000Y62500000D01*
X96250000Y58400000D02*
X92400000Y54550000D01*
X93050000Y62500000D02*
X96250000Y59300000D01*
X42700000Y55750000D02*
X42700000Y55985000D01*
X92400000Y54550000D02*
X89200000Y54550000D01*
X89200000Y54550000D02*
X85550000Y50900000D01*
X58050000Y49600000D02*
X45250000Y49600000D01*
X87300000Y63400000D02*
X88200000Y62500000D01*
X45250000Y49600000D02*
X42550000Y52300000D01*
X87300000Y63400000D02*
X87280000Y63440000D01*
X59350000Y50900000D02*
X58050000Y49600000D01*
X85550000Y50900000D02*
X59350000Y50900000D01*
X96250000Y59300000D02*
X96250000Y58400000D01*
%TO.N,ADF4382_RX_LKDET*%
D25*
X88550000Y70100000D02*
X88550000Y71350000D01*
X88000000Y69650000D02*
X88050000Y69600000D01*
X86600000Y69650000D02*
X88000000Y69650000D01*
X86150000Y69200000D02*
X86600000Y69650000D01*
D24*
X89800000Y73600000D02*
X89820000Y73600000D01*
D25*
X88050000Y69600000D02*
X88550000Y70100000D01*
D24*
X59450000Y56450000D02*
X73900000Y56450000D01*
D25*
X86150000Y68700000D02*
X86150000Y69200000D01*
D24*
X88550000Y71350000D02*
X88550000Y72350000D01*
D25*
X73900000Y56450000D02*
X86150000Y68700000D01*
D24*
X59450000Y56450000D02*
X58700000Y57200000D01*
X58700000Y57200000D02*
X57600000Y57200000D01*
X89800000Y73600000D02*
X88550000Y72350000D01*
%TO.N,AD9523_OUT8_N*%
D26*
X69516000Y40631584D02*
X70797231Y40631584D01*
X71688231Y41522584D02*
X71688231Y41734056D01*
X60807500Y47575000D02*
X67625000Y47575000D01*
X71688231Y44581528D02*
X71688231Y44793000D01*
X67205384Y43690528D02*
X70797231Y43690528D01*
X70797231Y42625056D02*
X67205384Y42625056D01*
X63525000Y37911000D02*
X63525000Y37838000D01*
X67625000Y37911000D02*
X63525000Y37911000D01*
X70797231Y45684000D02*
X69516000Y45684000D01*
X59807500Y48950000D02*
X59807500Y48575000D01*
X69089000Y39375000D02*
X69089000Y40204584D01*
X66778384Y43052056D02*
X66778384Y43263528D01*
X67205384Y42625056D02*
G75*
G02*
X66778356Y43052056I16J427044D01*
G01*
X71688231Y44793000D02*
G75*
G03*
X70797231Y45684031I-891031J0D01*
G01*
X66778384Y43263528D02*
G75*
G02*
X67205384Y43690516I427016J-28D01*
G01*
X69089000Y39375000D02*
G75*
G02*
X67625000Y37911000I-1464000J0D01*
G01*
X69089000Y40204584D02*
G75*
G02*
X69516000Y40631600I427000J16D01*
G01*
X69516000Y45684000D02*
G75*
G02*
X69089000Y46111000I0J427000D01*
G01*
X70797231Y40631584D02*
G75*
G03*
X71688216Y41522584I-31J891016D01*
G01*
X70797231Y43690528D02*
G75*
G03*
X71688172Y44581528I-31J890972D01*
G01*
X67625000Y47575000D02*
G75*
G02*
X69089000Y46111000I0J-1464000D01*
G01*
X59807500Y48575000D02*
G75*
G03*
X60807500Y47575000I1000000J0D01*
G01*
X71688231Y41734056D02*
G75*
G03*
X70797231Y42625131I-891031J44D01*
G01*
%TO.N,AD9523_OUT9_N*%
X45250000Y46900000D02*
X45323000Y46900000D01*
X63450000Y35300000D02*
X63377000Y35300000D01*
X61575000Y33425000D02*
X47790000Y33425000D01*
X45250000Y35965000D02*
X45250000Y46900000D01*
X61575000Y33425000D02*
G75*
G03*
X63450000Y35300000I0J1875000D01*
G01*
X47790000Y33425000D02*
G75*
G02*
X45250000Y35965000I0J2540000D01*
G01*
%TO.N,ADF4382_RX_CE*%
D24*
X87250000Y68500000D02*
X87280000Y68520000D01*
X59500000Y55250000D02*
X59150000Y54900000D01*
X87250000Y68500000D02*
X74000000Y55250000D01*
X59150000Y54900000D02*
X57050000Y54900000D01*
X57050000Y54900000D02*
X57050000Y54870000D01*
X74000000Y55250000D02*
X59500000Y55250000D01*
%TO.N,ADF4382_TX_CE*%
X89800000Y63450000D02*
X88650000Y64600000D01*
X89400000Y67300000D02*
X90400000Y67300000D01*
X45200000Y55300000D02*
X44800000Y54900000D01*
X76000000Y64150000D02*
X59350000Y64150000D01*
X91500000Y74100000D02*
X90450000Y75150000D01*
X91500000Y68400000D02*
X91500000Y74100000D01*
X88650000Y66550000D02*
X89400000Y67300000D01*
X44800000Y54900000D02*
X42950000Y54900000D01*
X50500000Y55300000D02*
X45200000Y55300000D01*
X90400000Y67300000D02*
X91500000Y68400000D01*
X42950000Y54900000D02*
X42950000Y54870000D01*
X90450000Y75150000D02*
X87000000Y75150000D01*
X59350000Y64150000D02*
X50500000Y55300000D01*
X87000000Y75150000D02*
X76000000Y64150000D01*
X88650000Y64600000D02*
X88650000Y66550000D01*
X89800000Y63450000D02*
X89820000Y63440000D01*
%TO.N,AD9523_OUT8_P*%
D26*
X66916768Y44154528D02*
X70797231Y44154528D01*
X70797231Y42161056D02*
X66916768Y42161056D01*
X69516000Y41095584D02*
X70797231Y41095584D01*
X59197500Y48950000D02*
X59197500Y48575000D01*
X67625000Y38375000D02*
X63525000Y38375000D01*
X66025768Y43052056D02*
X66025768Y43263528D01*
X71224231Y41522584D02*
X71224231Y41734056D01*
X71224231Y44581528D02*
X71224231Y44793000D01*
X70797231Y45220000D02*
X69516000Y45220000D01*
X60661500Y47111000D02*
X67625000Y47111000D01*
X68625000Y39375000D02*
X68625000Y40204584D01*
X63525000Y38375000D02*
X63525000Y38448000D01*
X59197500Y48575000D02*
G75*
G03*
X60661500Y47111000I1464000J0D01*
G01*
X71224231Y44793000D02*
G75*
G03*
X70797231Y45220031I-427031J0D01*
G01*
X67625000Y47111000D02*
G75*
G02*
X68625000Y46111000I0J-1000000D01*
G01*
X70797231Y44154528D02*
G75*
G03*
X71224172Y44581528I-31J426972D01*
G01*
X68625000Y40204584D02*
G75*
G02*
X69516000Y41095600I891000J16D01*
G01*
X71224231Y41734056D02*
G75*
G03*
X70797231Y42161131I-427031J44D01*
G01*
X69516000Y45220000D02*
G75*
G02*
X68625000Y46111000I0J891000D01*
G01*
X66025768Y43263528D02*
G75*
G02*
X66916768Y44154532I891032J-28D01*
G01*
X68625000Y39375000D02*
G75*
G02*
X67625000Y38375000I-1000000J0D01*
G01*
X70797231Y41095584D02*
G75*
G03*
X71224216Y41522584I-31J427016D01*
G01*
X66916768Y42161056D02*
G75*
G02*
X66025756Y43052056I32J891044D01*
G01*
%TO.N,AD9523_OUT9_P*%
X44786000Y35965000D02*
X44786000Y46900000D01*
X61575000Y32961000D02*
X47790000Y32961000D01*
X63914000Y35300000D02*
X63987000Y35300000D01*
X44786000Y46900000D02*
X44713000Y46900000D01*
X61575000Y32961000D02*
G75*
G03*
X63914000Y35300000I0J2339000D01*
G01*
X47790000Y32961000D02*
G75*
G02*
X44786000Y35965000I0J3004000D01*
G01*
%TO.N,ADF4382_TX_DELADJ*%
D27*
X66750000Y70300000D02*
X65900000Y70300000D01*
D24*
X89850000Y66000000D02*
X91900000Y68050000D01*
D27*
X72150000Y64900000D02*
X66750000Y70300000D01*
D24*
X43650000Y56400000D02*
X43200000Y56400000D01*
X91200000Y75600000D02*
X86000000Y75600000D01*
X89850000Y66000000D02*
X89820000Y65980000D01*
D27*
X63115000Y67515000D02*
X54765000Y67515000D01*
X65900000Y70300000D02*
X63115000Y67515000D01*
D24*
X86000000Y75600000D02*
X80800000Y70400000D01*
X91900000Y74900000D02*
X91200000Y75600000D01*
D27*
X80800000Y70400000D02*
X75300000Y64900000D01*
D24*
X91900000Y68050000D02*
X91900000Y74900000D01*
D27*
X75300000Y64900000D02*
X72150000Y64900000D01*
D24*
X43200000Y56400000D02*
X43200000Y56370000D01*
X54765000Y67515000D02*
X43650000Y56400000D01*
%TO.N,AD9523_STATUS0*%
D27*
X58750000Y47250000D02*
X47450000Y47250000D01*
X39750000Y48950000D02*
X19700000Y28900000D01*
X19700000Y28900000D02*
X17300000Y28900000D01*
X17300000Y28900000D02*
X11280000Y22880000D01*
X45750000Y48950000D02*
X39750000Y48950000D01*
X11280000Y22880000D02*
X11280000Y18670000D01*
X59100000Y46900000D02*
X58750000Y47250000D01*
X47450000Y47250000D02*
X45750000Y48950000D01*
%TO.N,AD9523_STATUS1*%
X50100000Y46500000D02*
X46850000Y46500000D01*
X41950000Y47650000D02*
X24850000Y30550000D01*
X46850000Y46500000D02*
X45700000Y47650000D01*
X59150000Y45550000D02*
X51050000Y45550000D01*
X24850000Y8200000D02*
X21350000Y4700000D01*
X24850000Y30550000D02*
X24850000Y8200000D01*
X21350000Y4700000D02*
X14650000Y4700000D01*
X45700000Y47650000D02*
X41950000Y47650000D01*
X59900000Y46300000D02*
X59150000Y45550000D01*
X51050000Y45550000D02*
X50100000Y46500000D01*
%TO.N,AD9523_EEPROM_SEL*%
X47150000Y46900000D02*
X45800000Y48250000D01*
X3900000Y14150000D02*
X3900000Y16350000D01*
X24150000Y11000000D02*
X19250000Y6100000D01*
X58650000Y46500000D02*
X58250000Y46900000D01*
X3900000Y16350000D02*
X6220000Y18670000D01*
X6220000Y18670000D02*
X8740000Y18670000D01*
X58250000Y46900000D02*
X47150000Y46900000D01*
X19250000Y6100000D02*
X11950000Y6100000D01*
X24150000Y31600000D02*
X24150000Y11000000D01*
X11950000Y6100000D02*
X3900000Y14150000D01*
X40800000Y48250000D02*
X24150000Y31600000D01*
X45800000Y48250000D02*
X40800000Y48250000D01*
%TO.N,ADF4382_RX_DELADJ*%
D24*
X59250000Y57550000D02*
X57450000Y57550000D01*
X87250000Y71050000D02*
X87280000Y71060000D01*
X80150000Y63950000D02*
X65650000Y63950000D01*
X57250000Y57350000D02*
X57250000Y57050000D01*
X57250000Y57050000D02*
X57550000Y56750000D01*
X57550000Y56750000D02*
X57550000Y56370000D01*
X65650000Y63950000D02*
X59250000Y57550000D01*
X87250000Y71050000D02*
X80150000Y63950000D01*
X57450000Y57550000D02*
X57250000Y57350000D01*
%TO.N,ADF4382_SDIO*%
D27*
X94450000Y59450000D02*
X93000000Y60900000D01*
X93000000Y60900000D02*
X89820000Y60900000D01*
X57275000Y53675000D02*
X59075000Y53675000D01*
X57275000Y53675000D02*
X57500000Y53900000D01*
X86850000Y55850000D02*
X91850000Y55850000D01*
X91850000Y55850000D02*
X94450000Y58450000D01*
X51750000Y56200000D02*
X54150000Y56200000D01*
X85400000Y54400000D02*
X86850000Y55850000D01*
X64700000Y54800000D02*
X66950000Y54800000D01*
X55450000Y54900000D02*
X55450000Y53900000D01*
X49400000Y53850000D02*
X51750000Y56200000D01*
X57125000Y53525000D02*
X57275000Y53675000D01*
X55725000Y53525000D02*
X57125000Y53525000D01*
X64150000Y53750000D02*
X64150000Y54250000D01*
X55450000Y53900000D02*
X55400000Y53850000D01*
X59075000Y53675000D02*
X59150000Y53750000D01*
X64150000Y54250000D02*
X64700000Y54800000D01*
X67350000Y54400000D02*
X85400000Y54400000D01*
X43200000Y53850000D02*
X49400000Y53850000D01*
X94450000Y58450000D02*
X94450000Y59450000D01*
X55400000Y53850000D02*
X55725000Y53525000D01*
X54150000Y56200000D02*
X55450000Y54900000D01*
X59150000Y53750000D02*
X64150000Y53750000D01*
X66950000Y54800000D02*
X67350000Y54400000D01*
%TO.N,ADF4382_SCLK*%
D24*
X83800000Y51200000D02*
X87650000Y55050000D01*
X88550000Y61400000D02*
X88550000Y60550000D01*
X87300000Y58400000D02*
X87280000Y58360000D01*
X56550000Y52700000D02*
X56100000Y52700000D01*
X57400000Y52850000D02*
X57050000Y52500000D01*
X57600000Y49800000D02*
X59400000Y51600000D01*
X95600000Y59250000D02*
X92750000Y62100000D01*
X56750000Y52500000D02*
X56550000Y52700000D01*
X62850000Y51600000D02*
X63250000Y51200000D01*
X56900000Y49800000D02*
X57600000Y49800000D01*
X91700000Y55050000D02*
X95600000Y58950000D01*
X57050000Y52500000D02*
X56750000Y52500000D01*
X55900000Y52500000D02*
X55900000Y50800000D01*
X95600000Y58950000D02*
X95600000Y59250000D01*
X92750000Y62100000D02*
X89250000Y62100000D01*
X57400000Y53250000D02*
X57400000Y52850000D01*
X63250000Y51200000D02*
X83800000Y51200000D01*
X87300000Y59300000D02*
X87300000Y58400000D01*
X87650000Y55050000D02*
X91700000Y55050000D01*
X88550000Y60550000D02*
X87300000Y59300000D01*
X59400000Y51600000D02*
X62850000Y51600000D01*
X56100000Y52700000D02*
X55900000Y52500000D01*
X89250000Y62100000D02*
X88550000Y61400000D01*
X55900000Y50800000D02*
X56900000Y49800000D01*
%TO.N,ADF4382_SDO*%
X56850000Y52900000D02*
X56000000Y52900000D01*
X45700000Y52000000D02*
X44850000Y52850000D01*
X44850000Y52850000D02*
X43100000Y52850000D01*
X55100000Y52000000D02*
X45700000Y52000000D01*
X56000000Y52900000D02*
X55100000Y52000000D01*
X56900000Y52850000D02*
X56850000Y52900000D01*
%TO.N,ADF4382_RX_CS*%
X87600000Y67600000D02*
X75050000Y55050000D01*
X60250000Y54500000D02*
X59750000Y54000000D01*
X59350000Y54000000D02*
X58950000Y54400000D01*
X60650000Y55050000D02*
X60250000Y54650000D01*
X75050000Y55050000D02*
X60650000Y55050000D01*
X57350000Y54400000D02*
X57350000Y54415000D01*
X89820000Y68520000D02*
X88900000Y67600000D01*
X88900000Y67600000D02*
X87600000Y67600000D01*
X59750000Y54000000D02*
X59350000Y54000000D01*
X58950000Y54400000D02*
X57350000Y54400000D01*
X60250000Y54650000D02*
X60250000Y54500000D01*
%TO.N,N$51*%
D26*
X57400000Y50140000D02*
X57460000Y50140000D01*
X77210000Y52040000D02*
X57160000Y52040000D01*
X57460000Y50140000D02*
G75*
G03*
X57470000Y50150000I0J10000D01*
G01*
X57160000Y52040000D02*
G75*
G03*
X56330000Y51210000I0J-830000D01*
G01*
X56330000Y51210000D02*
G75*
G03*
X57400000Y50140000I1070000J0D01*
G01*
%TD*%
M02*
