M48
; DRILL file KiCad 10.0.6 date 2026-10-09T16:18:47
; FORMAT={-:-/ absolute / metric / decimal}
; #@! TF.CreationDate,2026-10-09T16:18:47+03:00
; #@! TF.GenerationSoftware,Kicad,Pcbnew,10.0.6
; #@! TF.FileFunction,Plated,1,10,PTH
FMAT,2
METRIC
; #@! TA.AperFunction,Plated,PTH,ViaDrill
T1C0.150
; #@! TA.AperFunction,Plated,PTH,ViaDrill
T2C0.200
; #@! TA.AperFunction,Plated,PTH,ComponentDrill
T3C0.254
; #@! TA.AperFunction,Plated,PTH,ViaDrill
T4C0.300
; #@! TA.AperFunction,Plated,PTH,ViaDrill
T5C0.350
; #@! TA.AperFunction,Plated,PTH,ViaDrill
T6C0.500
; #@! TA.AperFunction,Plated,PTH,ComponentDrill
T7C0.500
; #@! TA.AperFunction,Plated,PTH,ViaDrill
T8C0.600
; #@! TA.AperFunction,Plated,PTH,ComponentDrill
T9C0.640
; #@! TA.AperFunction,Plated,PTH,ComponentDrill
T10C0.840
; #@! TA.AperFunction,Plated,PTH,ViaDrill
T11C1.000
; #@! TA.AperFunction,Plated,PTH,ComponentDrill
T12C1.000
; #@! TA.AperFunction,Plated,PTH,ComponentDrill
T13C1.016
; #@! TA.AperFunction,Plated,PTH,ComponentDrill
T14C1.194
; #@! TA.AperFunction,Plated,PTH,ViaDrill
T15C1.200
%
G90
G05
T1
X6.751Y205.207
X9.25Y183.4
X9.45Y180.9
X9.6Y188.25
X9.6Y186.0
X9.655Y208.899
X9.936Y202.5
X10.028Y213.538
X11.27Y105.672
X14.712Y209.844
X17.212Y215.365
X18.275Y182.225
X18.3Y182.8
X18.325Y185.0
X18.35Y183.95
X21.15Y177.275
X21.532Y184.321
X21.547Y182.322
X21.747Y178.989
X21.758Y213.686
X21.758Y201.45
X22.12Y207.577
X22.179Y197.97
X22.525Y182.325
X22.55Y165.25
X22.579Y185.331
X23.533Y184.337
X24.0Y165.3
X24.1Y203.87
X25.189Y203.464
X26.7Y182.85
X26.973Y214.191
X27.266Y180.481
X27.28Y205.441
X28.85Y165.25
X29.4Y182.9
X30.35Y165.3
X30.65Y182.9
X30.963Y209.498
X31.087Y202.149
X31.25Y99.95
X31.26Y203.4
X31.3Y182.6
X31.65Y28.6
X32.35Y26.0
X32.35Y17.9
X32.5Y56.05
X32.55Y47.9
X33.0Y26.0
X33.0Y17.85
X33.2Y57.05
X33.2Y47.25
X33.6Y58.6
X33.65Y26.55
X33.65Y17.85
X33.85Y56.45
X33.85Y47.85
X33.986Y204.946
X35.2Y165.25
X35.85Y56.9
X36.256Y17.285
X36.5Y27.25
X36.55Y45.9
X36.7Y165.3
X37.05Y45.05
X37.35Y16.95
X39.1Y182.85
X39.65Y182.4
X40.2Y188.25
X40.2Y182.65
X40.2Y180.35
X40.6Y180.6
X40.65Y185.65
X40.65Y182.65
X40.65Y177.65
X40.65Y175.25
X41.3Y189.1
X41.35Y182.5
X41.55Y165.25
X41.65Y186.7
X41.65Y177.9
X41.7Y182.2
X42.4Y170.4
X42.675Y187.275
X42.9Y180.35
X43.15Y165.3
X43.35Y174.65
X43.55Y187.3
X44.246Y20.19
X44.5Y188.25
X44.55Y21.15
X44.655Y184.263
X44.675Y190.25
X44.75Y22.7
X44.8Y192.55
X44.8Y191.55
X44.9Y182.3
X44.925Y174.575
X44.95Y51.75
X45.05Y21.7
X45.15Y20.7
X45.45Y49.75
X45.55Y49.2
X45.6Y186.1
X45.6Y182.25
X45.6Y50.8
X45.65Y191.2
X45.675Y188.275
X45.7Y50.25
X45.8Y193.85
X46.45Y159.8
X46.804Y24.66
X47.175Y175.775
X47.2Y191.35
X47.6Y189.1
X47.75Y53.5
X48.55Y25.5
X48.6Y18.2
X48.9Y54.4
X48.9Y47.35
X49.45Y47.35
X49.7Y178.55
X49.7Y177.55
X49.803Y25.143
X49.835Y24.556
X50.35Y213.975
X50.55Y177.4
X50.55Y54.3
X50.55Y53.65
X50.7Y189.1
X50.9Y47.7
X50.953Y18.457
X51.2Y22.2
X51.5Y51.3
X51.55Y177.4
X52.175Y191.475
X52.175Y181.775
X52.175Y180.775
X52.175Y175.775
X52.18Y179.772
X52.5Y82.7
X53.18Y180.78
X53.45Y214.175
X53.97Y195.67
X54.175Y179.775
X54.18Y180.78
X54.4Y173.65
X54.625Y214.15
X54.725Y181.775
X54.9Y19.9
X55.15Y22.55
X55.175Y186.775
X55.203Y20.607
X55.675Y188.275
X55.8Y21.95
X55.925Y145.05
X56.175Y178.775
X56.18Y186.78
X56.18Y181.78
X56.18Y180.78
X56.525Y136.225
X57.175Y175.775
X57.4Y49.75
X57.725Y141.125
X57.95Y183.1
X58.05Y214.325
X58.05Y182.3
X58.35Y188.1
X58.35Y185.2
X58.55Y96.517
X58.575Y147.65
X58.75Y186.2
X58.85Y188.1
X58.9Y196.1
X58.9Y185.2
X58.9Y53.85
X59.45Y94.85
X59.6Y181.95
X59.7Y17.5
X60.05Y28.05
X60.1Y27.35
X60.8Y180.0
X60.86Y182.68
X61.0Y189.35
X61.05Y98.05
X61.05Y97.5
X61.3Y180.0
X61.3Y94.55
X61.845Y186.142
X61.95Y179.75
X62.0Y106.0
X62.0Y105.5
X62.0Y100.5
X62.0Y100.0
X62.0Y94.0
X62.0Y93.5
X62.25Y26.35
X62.25Y18.15
X62.35Y56.5
X62.35Y47.9
X62.68Y99.48
X62.75Y15.45
X62.9Y26.35
X62.9Y18.15
X63.0Y56.15
X63.0Y47.9
X63.55Y26.8
X63.55Y18.1
X63.629Y185.179
X63.65Y56.5
X63.65Y47.85
X63.925Y158.425
X63.925Y157.95
X64.8Y215.125
X65.0Y106.5
X65.0Y100.95
X65.15Y98.0
X65.2Y105.0
X65.2Y97.45
X65.5Y97.1
X65.65Y114.491
X65.68Y116.034
X66.0Y213.95
X66.18Y115.134
X66.475Y214.975
X66.66Y113.96
X66.8Y171.45
X70.0Y214.5
X70.0Y111.15
X70.1Y89.4
X70.65Y114.491
X70.7Y212.9
X71.1Y184.1
X71.121Y89.975
X71.183Y114.483
X71.5Y111.1
X71.65Y89.991
X71.783Y120.633
X71.85Y88.6
X72.55Y111.05
X73.4Y111.0
X73.533Y120.633
X73.75Y105.35
X75.65Y215.025
X75.65Y114.491
X75.683Y120.633
X75.775Y212.4
X75.95Y87.9
X76.121Y89.975
X76.183Y114.483
X76.35Y215.05
X76.45Y212.35
X76.633Y120.633
X76.65Y89.991
X77.4Y88.05
X78.15Y86.95
X78.85Y93.25
X79.15Y89.35
X79.51Y145.567
X79.51Y144.957
X79.7Y93.7
X79.75Y89.35
X80.15Y92.9
X80.223Y146.768
X80.3Y214.75
X81.5Y232.35
X81.55Y215.7
X81.675Y212.45
X81.775Y214.225
X81.775Y142.95
X81.95Y146.275
X82.0Y207.8
X82.025Y144.45
X82.15Y232.7
X82.15Y114.491
X82.229Y105.747
X82.25Y151.15
X82.45Y207.8
X82.65Y89.991
X82.683Y114.483
X82.7Y151.15
X82.8Y233.05
X82.8Y32.3
X82.9Y207.8
X83.15Y151.15
X83.25Y214.025
X83.35Y212.475
X83.45Y29.9
X83.475Y215.6
X83.475Y142.85
X83.65Y114.5
X83.65Y97.95
X83.692Y89.41
X83.7Y146.3
X83.7Y95.5
X83.8Y233.05
X83.9Y45.5
X83.9Y44.85
X83.95Y98.5
X84.436Y184.013
X84.5Y233.25
X84.614Y185.315
X84.675Y214.0
X84.875Y143.525
X85.068Y213.497
X85.2Y233.45
X85.81Y145.105
X85.81Y144.495
X86.5Y108.5
X86.5Y108.0
X86.5Y101.5
X86.5Y101.0
X86.5Y96.0
X86.7Y181.55
X86.8Y187.15
X86.8Y182.5
X86.85Y186.25
X86.85Y185.35
X86.85Y183.45
X86.9Y184.45
X87.2Y207.65
X87.45Y151.3
X87.466Y109.558
X87.5Y98.5
X87.55Y103.95
X87.65Y207.65
X87.65Y101.95
X87.8Y110.25
X87.9Y100.35
X87.95Y151.3
X87.95Y30.55
X87.95Y29.9
X88.092Y96.01
X88.15Y207.65
X88.4Y45.5
X88.45Y151.3
X88.5Y187.15
X88.5Y186.25
X88.5Y185.35
X88.5Y184.45
X88.5Y183.45
X88.5Y182.5
X88.5Y181.6
X88.65Y207.65
X88.65Y129.3
X88.75Y130.0
X88.95Y151.3
X89.05Y43.1
X89.15Y207.65
X89.4Y151.3
X90.35Y130.55
X91.184Y109.033
X92.642Y106.56
X92.742Y102.46
X92.792Y99.16
X92.842Y95.11
X92.85Y32.1
X93.398Y183.729
X93.5Y29.7
X93.8Y45.55
X93.8Y44.9
X94.15Y207.65
X94.4Y151.3
X94.6Y207.65
X94.9Y151.3
X95.05Y109.35
X95.1Y207.65
X95.142Y106.71
X95.4Y151.3
X95.6Y207.65
X95.9Y151.3
X96.1Y207.65
X96.35Y151.3
X97.95Y183.2
X98.0Y30.35
X98.0Y29.7
X98.3Y45.55
X98.95Y43.15
X99.192Y112.96
X99.192Y107.01
X99.5Y242.25
X100.4Y207.8
X100.65Y151.15
X100.85Y207.8
X101.1Y151.15
X101.3Y207.8
X101.55Y151.15
X103.15Y32.0
X103.8Y45.6
X103.8Y44.95
X103.8Y29.6
X108.3Y45.6
X108.3Y30.25
X108.3Y29.6
X108.95Y43.2
X110.18Y185.44
X110.83Y173.89
X112.85Y179.55
X112.95Y32.0
X112.98Y181.24
X112.98Y177.84
X113.4Y29.6
X113.63Y181.24
X113.68Y177.79
X113.9Y45.5
X113.9Y44.85
X114.18Y179.29
X114.83Y177.59
X114.88Y181.54
X115.68Y180.04
X115.68Y179.59
X115.68Y179.09
X116.18Y180.04
X116.18Y179.59
X116.18Y179.09
X116.35Y176.15
X116.68Y180.04
X116.68Y179.59
X116.68Y179.09
X117.28Y177.54
X117.68Y181.59
X117.9Y30.25
X117.9Y29.6
X118.18Y178.54
X118.4Y45.5
X119.05Y43.1
X121.15Y155.65
X121.15Y127.65
X124.0Y140.0
X131.58Y155.958
X132.13Y155.508
X132.68Y230.958
X132.7Y31.95
X132.9Y157.4
X132.9Y154.55
X133.23Y230.508
X133.35Y29.55
X133.5Y156.4
X133.65Y235.15
X133.7Y234.7
X133.7Y233.25
X133.717Y126.38
X134.0Y229.55
X134.05Y45.5
X134.05Y44.85
X134.15Y234.65
X134.15Y153.2
X134.167Y126.855
X134.28Y158.433
X134.5Y155.2
X134.55Y232.1
X134.567Y203.38
X134.6Y231.4
X134.755Y157.983
X134.8Y154.85
X134.9Y127.9
X135.0Y155.7
X135.0Y125.25
X135.017Y203.855
X135.15Y154.5
X135.25Y228.2
X135.35Y234.65
X135.35Y155.35
X135.38Y233.433
X135.6Y230.2
X135.65Y153.05
X135.7Y154.95
X135.75Y204.9
X135.75Y125.6
X135.8Y202.35
X135.8Y157.25
X135.855Y232.983
X135.9Y229.85
X136.1Y230.7
X136.15Y129.35
X136.192Y123.68
X136.25Y229.5
X136.45Y230.35
X136.45Y127.1
X136.6Y202.6
X136.642Y124.23
X136.7Y205.85
X136.75Y228.05
X136.8Y229.95
X136.8Y127.45
X136.9Y232.25
X136.95Y126.6
X137.042Y200.68
X137.1Y154.45
X137.2Y127.8
X137.3Y204.1
X137.3Y126.9
X137.4Y155.5
X137.492Y201.23
X137.5Y206.5
X137.6Y125.0
X137.65Y204.45
X137.65Y127.25
X137.7Y227.95
X137.7Y129.2
X137.75Y151.975
X137.775Y207.925
X137.8Y203.6
X137.8Y131.9
X137.85Y231.3
X137.85Y30.2
X137.85Y29.55
X138.05Y204.8
X138.15Y203.9
X138.2Y229.45
X138.3Y210.825
X138.325Y134.8
X138.45Y202.0
X138.5Y230.5
X138.5Y204.25
X138.55Y206.2
X138.55Y45.5
X138.575Y207.05
X138.6Y131.025
X138.725Y211.325
X138.75Y135.3
X138.95Y126.25
X139.075Y229.45
X139.1Y127.75
X139.125Y224.625
X139.125Y153.475
X139.175Y148.65
X139.2Y43.1
X139.8Y203.25
X139.95Y230.25
X139.95Y204.75
X140.0Y154.275
X140.075Y205.675
X140.1Y129.65
X140.217Y137.355
X140.33Y213.408
X140.4Y231.6
X141.317Y213.08
X141.342Y137.055
X142.7Y231.8
X142.85Y229.725
X142.9Y153.75
X142.95Y31.85
X143.35Y229.3
X143.35Y128.3
X143.375Y131.075
X143.4Y207.1
X143.4Y153.325
X143.6Y29.45
X143.95Y45.55
X143.95Y44.9
X144.975Y228.65
X145.105Y226.708
X145.155Y150.733
X145.23Y227.633
X145.395Y151.592
X146.57Y142.492
X146.595Y140.467
X146.98Y214.508
X147.458Y221.439
X147.505Y214.483
X147.52Y145.517
X147.594Y132.288
X147.7Y111.65
X147.975Y140.025
X148.0Y214.475
X148.1Y30.1
X148.1Y29.45
X148.4Y144.05
X148.45Y243.15
X148.45Y227.9
X148.45Y45.55
X148.475Y140.025
X148.48Y216.033
X148.5Y145.45
X148.525Y214.475
X148.65Y243.7
X148.95Y143.975
X148.975Y140.025
X148.98Y216.033
X149.0Y214.475
X149.025Y219.95
X149.025Y145.45
X149.05Y227.55
X149.1Y112.55
X149.1Y43.15
X149.35Y145.8
X149.47Y143.967
X149.475Y140.0
X149.5Y219.95
X149.505Y216.033
X149.575Y138.525
X149.98Y216.033
X150.055Y219.933
X150.1Y138.55
X150.25Y140.0
X150.395Y133.772
X150.47Y143.967
X150.5Y221.525
X150.505Y216.033
X150.55Y219.925
X150.6Y138.5
X150.75Y140.0
X150.9Y222.35
X151.0Y214.475
X151.025Y145.45
X151.05Y219.9
X151.05Y216.05
X151.051Y225.245
X151.23Y221.358
X151.425Y222.075
X151.495Y143.967
X151.5Y145.45
X151.525Y214.475
X151.55Y219.9
X152.0Y216.028
X152.025Y145.45
X152.05Y219.9
X152.107Y227.151
X152.438Y214.387
X152.95Y31.75
X152.995Y145.567
X153.38Y221.283
X153.38Y219.533
X153.405Y217.508
X153.6Y29.35
X153.95Y45.6
X153.95Y44.95
X154.645Y132.342
X154.655Y208.383
X154.895Y209.242
X154.945Y133.267
X155.55Y112.55
X155.95Y111.65
X156.65Y206.65
X156.65Y152.875
X156.675Y228.9
X156.7Y130.675
X157.15Y206.225
X157.2Y130.25
X158.1Y30.4
X158.1Y29.75
X158.45Y45.6
X158.708Y222.92
X158.733Y146.895
X159.1Y43.2
X159.605Y222.733
X159.72Y146.567
X159.95Y231.2
X159.95Y230.325
X159.975Y154.3
X160.05Y205.7
X160.1Y232.7
X160.1Y129.725
X160.875Y211.325
X160.925Y206.5
X160.925Y135.35
X160.975Y130.525
X161.15Y156.15
X161.3Y224.675
X161.3Y157.65
X161.325Y148.65
X161.35Y229.75
X161.4Y231.7
X161.45Y233.95
X161.45Y228.95
X161.475Y152.925
X161.55Y205.45
X161.725Y225.175
X161.75Y232.05
X161.75Y149.15
X161.8Y128.15
X161.85Y206.5
X161.9Y231.15
X162.1Y232.35
X162.25Y231.5
X162.25Y228.075
X162.275Y152.025
X162.3Y208.0
X162.35Y132.025
X162.4Y229.45
X162.408Y234.72
X162.45Y129.85
X162.55Y154.7
X162.6Y231.85
X162.6Y156.65
X162.65Y158.9
X162.858Y235.27
X162.95Y157.0
X163.05Y156.1
X163.15Y203.7
X163.25Y206.0
X163.3Y233.35
X163.3Y207.9
X163.3Y157.3
X163.45Y156.45
X163.6Y205.6
X163.6Y154.4
X163.608Y159.67
X163.75Y127.05
X163.8Y206.45
X163.8Y156.8
X163.85Y129.35
X163.9Y131.25
X163.9Y32.05
X163.95Y205.25
X164.05Y45.5
X164.05Y44.85
X164.058Y160.22
X164.15Y206.1
X164.195Y202.967
X164.2Y128.95
X164.3Y233.85
X164.4Y129.8
X164.45Y205.75
X164.5Y158.3
X164.55Y231.5
X164.55Y128.6
X164.65Y29.55
X164.67Y202.517
X164.75Y129.45
X164.795Y126.317
X164.8Y207.75
X164.883Y232.095
X165.05Y129.1
X165.27Y125.867
X165.333Y232.57
X165.35Y156.0
X165.4Y131.1
X165.45Y204.55
X165.45Y203.95
X165.45Y158.85
X166.05Y206.4
X166.05Y127.9
X166.083Y157.045
X166.4Y127.2
X166.533Y157.52
X166.65Y129.75
X166.82Y205.442
X166.863Y177.313
X167.37Y204.992
X167.42Y128.792
X167.97Y128.342
X168.55Y45.5
X169.15Y30.2
X169.15Y29.55
X169.3Y43.0
X169.85Y195.4
X170.55Y196.1
X183.25Y56.2
X184.43Y178.69
X184.43Y178.24
X184.48Y181.79
X184.48Y181.29
X184.48Y180.79
X185.63Y183.19
X185.63Y176.79
X188.03Y183.24
X188.03Y176.84
X188.35Y56.05
X190.03Y183.04
X190.28Y176.94
X190.88Y181.74
X190.88Y181.24
X190.88Y180.74
X190.88Y180.24
X190.88Y179.74
X190.88Y179.19
X190.88Y178.69
X190.88Y178.19
X193.65Y55.9
X198.75Y55.5
X199.093Y159.006
X204.35Y55.55
X207.58Y156.108
X208.13Y155.658
X208.2Y218.0
X208.55Y157.55
X208.68Y231.008
X208.9Y154.7
X209.23Y230.558
X209.3Y156.5
X209.45Y55.55
X209.767Y126.28
X210.0Y229.6
X210.15Y153.35
X210.159Y140.671
X210.2Y232.2
X210.217Y126.755
X210.267Y203.13
X210.28Y158.583
X210.5Y155.35
X210.6Y231.45
X210.717Y203.605
X210.755Y158.133
X210.8Y155.0
X210.95Y127.8
X210.95Y125.2
X211.0Y155.85
X211.15Y154.65
X211.25Y228.25
X211.35Y155.5
X211.38Y233.483
X211.45Y204.65
X211.5Y202.05
X211.6Y230.25
X211.65Y153.2
X211.7Y155.1
X211.8Y157.4
X211.8Y125.5
X211.855Y233.033
X211.9Y229.9
X212.1Y230.75
X212.2Y129.2
X212.242Y123.58
X212.25Y229.55
X212.25Y206.35
X212.3Y202.35
X212.4Y205.6
X212.45Y230.4
X212.5Y127.0
X212.692Y124.13
X212.742Y200.43
X212.75Y228.1
X212.8Y230.0
X212.85Y127.35
X212.9Y232.3
X213.0Y203.85
X213.0Y126.5
X213.1Y154.6
X213.192Y200.98
X213.25Y127.7
X213.35Y204.2
X213.35Y126.8
X213.4Y155.65
X213.5Y203.35
X213.65Y124.9
X213.675Y228.0
X213.7Y127.15
X213.725Y207.95
X213.75Y204.55
X213.75Y151.95
X213.75Y129.1
X213.8Y131.875
X213.85Y203.65
X214.15Y201.75
X214.2Y229.5
X214.2Y204.0
X214.25Y205.95
X214.275Y210.875
X214.325Y134.775
X214.5Y230.55
X214.55Y207.1
X214.6Y131.0
X214.65Y55.7
X214.7Y211.375
X214.75Y135.275
X215.0Y126.15
X215.05Y229.5
X215.1Y224.675
X215.125Y153.45
X215.15Y127.65
X215.175Y148.625
X215.5Y203.0
X215.65Y204.5
X215.925Y230.3
X216.0Y154.25
X216.05Y205.725
X216.1Y129.625
X216.192Y137.48
X216.305Y213.458
X217.292Y213.13
X217.342Y137.03
X218.825Y229.775
X218.9Y153.725
X219.325Y229.35
X219.375Y207.15
X219.375Y131.05
X219.4Y153.3
X219.7Y55.7
X221.08Y226.758
X221.128Y129.055
X221.155Y150.708
X221.38Y227.633
X222.57Y142.517
X222.595Y140.492
X222.792Y128.274
X223.2Y239.1
X223.23Y214.533
X223.55Y239.4
X223.975Y214.575
X224.037Y145.862
X224.045Y147.442
X224.05Y140.025
X224.067Y131.136
X224.1Y143.975
X224.45Y238.5
X224.48Y216.033
X224.5Y214.575
X224.55Y140.025
X224.575Y145.45
X224.65Y237.65
X224.9Y128.15
X224.975Y214.575
X224.975Y144.0
X225.0Y219.975
X225.05Y140.025
X225.1Y145.45
X225.17Y136.917
X225.27Y223.158
X225.47Y143.992
X225.505Y216.033
X225.55Y140.0
X225.575Y219.975
X225.6Y138.4
X225.612Y131.851
X225.67Y136.917
X225.75Y225.55
X225.925Y222.15
X225.945Y135.392
X225.98Y216.033
X225.995Y143.992
X226.045Y140.017
X226.1Y225.9
X226.15Y138.425
X226.15Y136.825
X226.345Y223.633
X226.375Y222.275
X226.47Y143.992
X226.505Y216.033
X226.525Y220.025
X226.579Y221.456
X226.625Y138.4
X226.65Y224.65
X226.65Y137.9
X226.662Y140.088
X226.975Y214.575
X227.025Y220.0
X227.025Y216.0
X227.1Y145.45
X227.25Y140.1
X227.395Y223.308
X227.495Y143.992
X227.5Y214.575
X227.505Y221.533
X227.525Y220.0
X227.575Y145.45
X227.945Y223.308
X227.986Y222.012
X228.0Y216.05
X228.0Y214.325
X228.025Y220.0
X228.045Y212.758
X228.1Y145.45
X228.506Y221.999
X228.97Y145.517
X229.005Y221.483
X229.38Y219.533
X229.405Y217.508
X230.63Y208.433
X230.82Y132.317
X230.87Y209.292
X230.945Y133.242
X232.625Y206.7
X232.65Y228.95
X232.65Y152.85
X232.7Y130.65
X233.125Y206.275
X233.2Y130.225
X234.683Y222.97
X234.733Y146.87
X235.58Y222.783
X235.72Y146.542
X235.925Y230.375
X235.975Y154.275
X236.025Y205.75
X236.1Y129.7
X236.5Y231.7
X236.55Y155.7
X236.65Y233.2
X236.7Y157.2
X236.85Y211.375
X236.9Y206.55
X236.925Y135.325
X236.975Y130.5
X237.275Y224.725
X237.325Y148.625
X237.425Y229.0
X237.475Y152.9
X237.7Y225.225
X237.75Y149.125
X237.9Y230.25
X237.95Y232.2
X237.95Y154.25
X237.95Y128.9
X238.0Y234.45
X238.0Y156.2
X238.05Y158.45
X238.15Y205.7
X238.225Y228.125
X238.25Y204.8
X238.25Y129.95
X238.275Y208.05
X238.275Y152.025
X238.3Y232.55
X238.35Y156.55
X238.35Y132.0
X238.4Y231.65
X238.45Y155.65
X238.65Y232.85
X238.7Y156.85
X238.8Y232.0
X238.85Y156.0
X238.95Y229.95
X238.958Y235.22
X239.0Y153.95
X239.008Y159.22
X239.15Y232.35
X239.2Y156.35
X239.408Y235.77
X239.458Y159.77
X239.7Y131.35
X239.7Y129.4
X239.85Y233.85
X239.9Y157.85
X239.95Y205.35
X239.95Y126.95
X240.0Y207.25
X240.0Y202.65
X240.0Y129.05
X240.2Y129.9
X240.3Y204.95
X240.35Y128.7
X240.5Y205.8
X240.55Y129.55
X240.595Y126.417
X240.6Y234.35
X240.65Y204.6
X240.7Y231.55
X240.75Y158.3
X240.85Y205.45
X240.85Y129.2
X240.895Y202.317
X240.95Y155.75
X241.07Y125.967
X241.15Y205.1
X241.2Y131.2
X241.37Y201.867
X241.433Y232.595
X241.483Y156.595
X241.5Y207.1
X241.85Y128.0
X241.883Y233.07
X241.933Y157.07
X242.15Y203.9
X242.3Y127.3
X242.45Y129.85
X242.75Y205.75
X242.9Y202.7
X243.22Y128.892
X243.52Y204.792
X243.77Y128.442
X244.07Y204.342
T2
X5.65Y230.8
X6.391Y209.922
X6.471Y210.524
X6.557Y209.155
X6.575Y208.111
X7.4Y237.0
X9.65Y230.8
X9.751Y210.347
X9.764Y206.799
X10.635Y209.05
X10.879Y208.236
X11.459Y206.403
X12.95Y237.0
X13.539Y209.084
X16.02Y209.298
X18.531Y213.495
X23.188Y202.621
X23.639Y205.97
X25.699Y203.737
X26.956Y203.734
X28.199Y203.71
X28.746Y189.375
X28.907Y203.683
X29.636Y203.733
X31.95Y201.887
X38.982Y181.608
X41.809Y191.151
X41.809Y180.409
X41.809Y179.409
X41.809Y178.409
X41.809Y177.409
X41.809Y176.409
X41.809Y175.409
X42.809Y182.409
X42.809Y179.409
X42.809Y178.409
X42.809Y177.409
X42.809Y176.409
X42.809Y175.409
X43.809Y179.409
X43.809Y178.409
X43.809Y177.409
X43.809Y176.409
X44.809Y187.151
X44.809Y181.409
X44.809Y180.409
X44.809Y179.409
X44.809Y178.409
X44.809Y177.409
X44.809Y176.409
X44.809Y175.409
X45.809Y180.409
X45.809Y179.409
X45.809Y178.409
X45.809Y177.409
X46.471Y173.421
X46.7Y179.3
X46.809Y186.151
X46.809Y185.151
X46.809Y184.151
X46.809Y182.409
X46.809Y181.409
X46.809Y180.409
X46.938Y173.888
X46.95Y178.4
X47.809Y188.151
X47.809Y187.151
X47.809Y186.151
X47.809Y185.151
X47.809Y184.151
X47.809Y182.409
X47.809Y181.409
X47.809Y180.409
X47.809Y179.409
X47.809Y178.409
X47.809Y177.409
X48.809Y190.151
X48.809Y187.151
X48.809Y186.151
X48.809Y185.151
X48.809Y184.151
X48.809Y182.409
X48.809Y181.409
X48.809Y180.409
X48.809Y179.409
X48.809Y178.409
X50.25Y157.85
X50.4Y154.125
X50.551Y187.151
X50.551Y186.151
X50.551Y185.151
X50.551Y184.151
X50.551Y182.409
X50.551Y181.409
X50.551Y180.409
X50.551Y179.409
X50.551Y176.409
X51.551Y189.151
X51.551Y187.151
X51.551Y186.151
X51.551Y185.151
X51.551Y184.151
X51.551Y182.409
X51.551Y181.409
X51.551Y180.409
X51.551Y179.409
X51.551Y178.409
X52.25Y156.475
X52.35Y154.35
X52.375Y152.95
X52.551Y189.151
X52.551Y188.151
X52.551Y186.151
X52.551Y184.151
X52.551Y182.409
X53.551Y188.151
X53.551Y185.151
X53.551Y184.151
X53.551Y182.409
X53.551Y177.409
X53.7Y156.5
X53.825Y158.5
X53.85Y158.0
X54.551Y190.151
X54.551Y186.151
X54.551Y185.151
X54.551Y184.151
X54.551Y182.409
X55.15Y152.15
X55.175Y149.45
X55.551Y186.151
X55.551Y185.151
X55.551Y184.151
X55.551Y182.409
X55.551Y176.409
X55.85Y154.2
X55.875Y152.75
X56.25Y156.15
X56.475Y153.125
X56.551Y191.151
X56.551Y186.151
X56.551Y185.151
X56.551Y184.151
X56.551Y182.409
X56.85Y154.5
X57.372Y154.484
X57.551Y191.151
X57.551Y188.151
X57.551Y186.151
X57.551Y185.151
X57.551Y184.151
X57.551Y182.409
X57.826Y180.784
X57.872Y154.484
X58.325Y162.325
X58.85Y162.325
X59.372Y154.484
X59.872Y154.484
X60.372Y154.484
X60.75Y152.95
X61.322Y154.484
X61.325Y152.975
X61.722Y157.459
X61.872Y154.484
X61.875Y152.975
X63.272Y155.734
X63.825Y154.75
X66.075Y158.4
X83.45Y30.6
X88.4Y44.8
X93.5Y30.4
X98.3Y44.85
X102.667Y211.56
X102.767Y145.95
X103.138Y147.17
X103.333Y212.78
X103.8Y30.3
X103.967Y211.58
X103.987Y145.97
X104.338Y147.17
X104.5Y38.7
X104.533Y212.78
X105.0Y38.15
X105.167Y211.58
X105.187Y145.97
X105.538Y147.17
X105.733Y212.78
X106.367Y211.58
X106.387Y145.97
X106.738Y147.17
X106.933Y212.78
X107.567Y211.58
X107.587Y145.97
X107.938Y147.17
X108.133Y212.78
X108.3Y44.9
X108.767Y211.58
X108.787Y145.97
X109.138Y147.17
X109.333Y212.78
X109.967Y211.58
X109.987Y145.97
X110.338Y147.17
X110.533Y212.78
X111.163Y211.51
X111.187Y145.97
X111.526Y147.314
X111.733Y212.776
X112.311Y211.171
X112.383Y146.043
X112.646Y147.736
X112.915Y212.585
X113.346Y210.568
X113.4Y30.3
X113.53Y146.385
X113.634Y148.413
X114.017Y212.118
X114.207Y209.737
X114.432Y149.305
X114.562Y146.991
X114.847Y208.725
X114.977Y211.402
X114.996Y150.361
X115.227Y207.59
X115.292Y151.521
X115.31Y205.087
X115.31Y200.397
X115.31Y203.887
X115.31Y199.197
X115.31Y202.687
X115.31Y197.997
X115.31Y201.487
X115.31Y196.797
X115.31Y195.597
X115.31Y194.397
X115.31Y193.197
X115.31Y191.997
X115.31Y190.797
X115.31Y189.597
X115.31Y188.397
X115.31Y187.197
X115.31Y185.997
X115.31Y184.797
X115.31Y183.597
X115.33Y206.397
X115.334Y152.719
X115.334Y153.919
X115.334Y155.119
X115.334Y156.319
X115.335Y157.519
X115.335Y158.719
X115.335Y159.919
X115.335Y161.119
X115.335Y162.319
X115.335Y163.519
X115.335Y164.719
X115.335Y165.919
X115.335Y167.119
X115.335Y168.319
X115.335Y169.519
X115.335Y170.719
X115.335Y171.919
X115.335Y173.119
X115.335Y174.319
X115.335Y175.519
X115.421Y147.825
X115.739Y210.479
X116.058Y148.839
X116.26Y209.401
X116.435Y149.975
X116.51Y208.231
X116.51Y205.721
X116.51Y201.031
X116.51Y204.521
X116.51Y199.831
X116.51Y203.321
X116.51Y198.631
X116.51Y202.121
X116.51Y197.431
X116.51Y196.231
X116.51Y195.031
X116.51Y193.831
X116.51Y192.631
X116.51Y191.431
X116.51Y190.231
X116.51Y189.031
X116.51Y187.831
X116.51Y186.631
X116.51Y185.431
X116.51Y184.231
X116.51Y183.031
X116.53Y207.031
X116.534Y151.169
X116.534Y152.369
X116.534Y153.569
X116.534Y154.769
X116.534Y155.969
X116.535Y157.169
X116.535Y158.369
X116.535Y159.569
X116.535Y160.769
X116.535Y161.969
X116.535Y163.169
X116.535Y164.369
X116.535Y165.569
X116.535Y166.769
X116.535Y167.969
X116.535Y169.169
X116.535Y170.369
X116.535Y171.569
X116.535Y172.769
X116.535Y173.969
X116.535Y175.169
X118.18Y180.39
X118.18Y179.19
X118.4Y44.8
X119.38Y180.39
X119.38Y179.19
X120.58Y180.39
X120.58Y179.19
X121.78Y180.39
X121.78Y179.19
X122.98Y180.39
X122.98Y179.19
X124.18Y180.39
X124.18Y179.19
X125.38Y180.39
X125.38Y179.19
X126.58Y180.39
X126.58Y179.19
X127.78Y180.39
X127.78Y179.19
X128.98Y180.39
X128.98Y179.19
X130.18Y180.39
X130.18Y179.19
X131.38Y180.39
X131.38Y179.19
X132.58Y180.39
X132.58Y179.19
X133.6Y30.4
X133.78Y180.39
X133.78Y179.19
X134.98Y180.39
X134.98Y179.19
X136.18Y180.39
X136.18Y179.19
X137.38Y180.39
X137.38Y179.19
X138.075Y225.575
X138.3Y44.65
X138.525Y225.0
X138.575Y149.025
X138.58Y180.39
X138.58Y179.19
X139.05Y137.2
X139.15Y213.025
X139.5Y224.15
X139.78Y180.39
X139.78Y179.19
X139.975Y223.65
X140.025Y147.675
X140.98Y180.39
X140.98Y179.19
X141.804Y147.976
X141.804Y136.174
X141.854Y223.876
X141.854Y212.074
X142.18Y180.39
X142.18Y179.19
X142.329Y147.428
X142.329Y136.722
X142.379Y223.328
X142.379Y212.622
X142.625Y205.9
X142.742Y148.846
X142.742Y135.304
X142.775Y129.775
X142.792Y224.746
X142.792Y211.204
X142.891Y146.859
X142.891Y137.291
X142.941Y222.759
X142.941Y213.191
X143.025Y206.5
X143.05Y130.475
X143.12Y145.362
X143.12Y138.788
X143.17Y221.262
X143.17Y214.688
X143.192Y149.296
X143.192Y134.854
X143.203Y143.905
X143.203Y140.245
X143.242Y225.196
X143.242Y210.754
X143.253Y219.805
X143.253Y216.145
X143.38Y180.39
X143.38Y179.19
X143.48Y148.017
X143.48Y136.133
X143.53Y223.917
X143.53Y212.033
X143.6Y30.3
X143.83Y149.017
X143.83Y135.133
X143.88Y224.917
X143.88Y211.033
X144.031Y143.044
X144.031Y141.106
X144.081Y218.944
X144.081Y217.006
X144.104Y147.16
X144.104Y136.99
X144.154Y223.06
X144.154Y212.89
X144.242Y150.196
X144.242Y133.954
X144.275Y207.1
X144.292Y226.096
X144.292Y209.854
X144.32Y144.909
X144.32Y139.241
X144.32Y146.109
X144.32Y138.041
X144.37Y220.809
X144.37Y215.141
X144.37Y222.009
X144.37Y213.941
X144.375Y207.95
X144.4Y131.925
X144.525Y131.1
X144.58Y180.39
X144.58Y179.19
X144.58Y148.367
X144.58Y135.783
X144.63Y224.267
X144.63Y211.683
X144.911Y143.961
X144.911Y140.189
X144.93Y149.817
X144.93Y146.817
X144.93Y137.333
X144.93Y134.333
X144.961Y219.861
X144.961Y216.089
X144.98Y225.717
X144.98Y222.717
X144.98Y213.233
X144.98Y210.233
X145.03Y147.917
X145.03Y136.233
X145.08Y223.817
X145.08Y212.133
X145.112Y142.548
X145.112Y141.552
X145.162Y218.448
X145.162Y217.502
X145.48Y147.417
X145.48Y136.733
X145.53Y223.317
X145.53Y212.633
X145.63Y149.167
X145.63Y134.983
X145.68Y225.067
X145.68Y210.883
X145.735Y143.7
X145.735Y140.45
X145.75Y142.5
X145.75Y141.55
X145.78Y180.39
X145.78Y179.19
X145.782Y218.436
X145.785Y219.6
X145.785Y216.35
X145.8Y217.55
X145.83Y145.867
X145.83Y138.283
X145.88Y221.767
X145.88Y214.183
X145.93Y145.167
X145.93Y138.983
X145.98Y221.067
X145.98Y214.883
X146.13Y137.758
X146.23Y148.467
X146.23Y135.683
X146.28Y224.367
X146.28Y211.583
X146.43Y146.517
X146.48Y222.417
X146.48Y213.533
X146.68Y147.417
X146.68Y136.733
X146.73Y223.317
X146.73Y212.633
X146.98Y180.39
X146.98Y179.19
X148.0Y216.0
X148.18Y180.39
X148.18Y179.19
X148.42Y131.429
X148.45Y44.7
X148.836Y135.96
X149.32Y164.105
X149.32Y162.905
X149.32Y161.705
X149.32Y160.505
X149.32Y159.305
X149.32Y158.105
X149.32Y156.905
X149.32Y155.705
X149.32Y154.505
X149.32Y153.305
X149.32Y152.105
X149.32Y150.905
X149.32Y149.705
X149.32Y148.505
X149.32Y147.305
X149.38Y180.39
X149.38Y179.19
X149.4Y195.957
X149.4Y197.157
X149.4Y198.357
X149.4Y199.557
X149.4Y200.757
X149.4Y201.957
X149.4Y203.157
X149.4Y204.357
X149.4Y205.557
X149.4Y206.757
X149.4Y207.957
X149.4Y209.157
X149.4Y210.357
X149.4Y211.557
X149.4Y212.757
X149.45Y165.295
X149.53Y194.767
X149.792Y132.182
X149.859Y166.42
X149.939Y193.642
X150.03Y137.058
X150.055Y136.408
X150.27Y223.117
X150.52Y162.416
X150.52Y161.216
X150.52Y160.016
X150.52Y158.816
X150.52Y157.616
X150.52Y156.416
X150.52Y155.216
X150.52Y154.016
X150.52Y152.816
X150.52Y151.616
X150.52Y150.416
X150.52Y149.216
X150.52Y148.016
X150.52Y146.816
X150.524Y167.416
X150.563Y163.614
X150.58Y180.39
X150.58Y179.19
X150.6Y197.646
X150.6Y198.846
X150.6Y200.046
X150.6Y201.246
X150.6Y202.446
X150.6Y203.646
X150.6Y204.846
X150.6Y206.046
X150.6Y207.246
X150.6Y208.446
X150.6Y209.646
X150.6Y210.846
X150.6Y212.046
X150.6Y213.246
X150.604Y192.646
X150.643Y196.448
X150.86Y164.774
X150.94Y195.288
X151.255Y223.667
X151.406Y168.225
X151.424Y165.829
X151.486Y191.837
X151.504Y194.232
X151.78Y180.39
X151.78Y179.19
X151.925Y212.996
X151.962Y225.867
X152.0Y144.0
X152.223Y166.721
X152.303Y193.341
X152.455Y168.801
X152.535Y191.261
X152.98Y180.39
X152.98Y179.19
X153.211Y167.397
X153.22Y136.683
X153.27Y212.583
X153.291Y192.665
X153.32Y147.417
X153.37Y223.317
X153.47Y137.583
X153.52Y213.483
X153.57Y146.517
X153.6Y30.45
X153.612Y169.111
X153.62Y222.417
X153.67Y135.633
X153.691Y190.95
X153.72Y211.533
X153.77Y148.467
X153.82Y224.367
X153.97Y138.933
X154.02Y214.833
X154.07Y145.167
X154.07Y138.233
X154.12Y221.067
X154.12Y214.133
X154.143Y38.768
X154.15Y141.525
X154.165Y140.4
X154.17Y145.867
X154.18Y180.39
X154.18Y179.19
X154.2Y217.5
X154.215Y216.3
X154.22Y221.767
X154.25Y142.425
X154.265Y143.7
X154.27Y134.933
X154.3Y218.475
X154.315Y219.6
X154.32Y210.833
X154.332Y167.818
X154.37Y149.167
X154.411Y192.243
X154.42Y225.067
X154.42Y136.683
X154.452Y38.146
X154.47Y212.583
X154.477Y169.162
X154.52Y147.417
X154.557Y190.9
X154.57Y223.317
X154.788Y141.552
X154.838Y217.452
X154.87Y136.183
X154.92Y212.083
X154.938Y218.448
X154.95Y207.35
X154.97Y147.917
X154.97Y137.283
X154.97Y134.283
X154.988Y142.473
X154.989Y140.139
X155.02Y223.817
X155.02Y213.183
X155.02Y210.183
X155.039Y216.039
X155.07Y149.817
X155.07Y146.817
X155.089Y143.961
X155.12Y225.717
X155.12Y222.717
X155.139Y219.861
X155.32Y135.733
X155.37Y211.633
X155.38Y180.39
X155.38Y179.19
X155.42Y148.367
X155.47Y224.267
X155.52Y167.962
X155.58Y137.991
X155.58Y139.191
X155.6Y192.1
X155.63Y213.891
X155.63Y215.091
X155.65Y228.05
X155.658Y133.904
X155.675Y152.025
X155.677Y169.162
X155.68Y146.109
X155.68Y144.909
X155.708Y209.804
X155.73Y222.009
X155.73Y220.809
X155.757Y190.9
X155.758Y150.196
X155.796Y136.94
X155.808Y226.096
X155.846Y212.84
X155.869Y141.056
X155.896Y147.16
X155.919Y216.956
X155.946Y223.06
X155.969Y143.044
X156.019Y218.944
X156.07Y135.083
X156.12Y210.983
X156.15Y228.496
X156.166Y167.962
X156.17Y149.017
X156.22Y224.917
X156.246Y192.1
X156.42Y136.083
X156.47Y211.983
X156.52Y148.017
X156.57Y223.917
X156.58Y180.39
X156.58Y179.19
X156.697Y140.195
X156.708Y134.804
X156.747Y216.095
X156.758Y210.704
X156.78Y138.738
X156.797Y143.905
X156.808Y149.296
X156.83Y214.638
X156.847Y219.805
X156.858Y225.196
X156.877Y169.162
X156.88Y145.362
X156.93Y221.262
X156.957Y190.9
X157.0Y229.5
X157.009Y137.241
X157.025Y153.475
X157.059Y213.141
X157.109Y146.859
X157.158Y135.254
X157.159Y222.759
X157.208Y211.154
X157.258Y148.846
X157.308Y224.746
X157.366Y167.962
X157.4Y230.1
X157.446Y192.1
X157.571Y136.672
X157.621Y212.572
X157.671Y147.428
X157.721Y223.328
X157.78Y180.39
X157.78Y179.19
X158.077Y169.162
X158.096Y136.124
X158.146Y212.024
X158.157Y190.9
X158.196Y147.976
X158.246Y223.876
X158.45Y44.8
X158.566Y167.962
X158.646Y192.1
X158.98Y180.39
X158.98Y179.19
X159.277Y169.162
X159.357Y190.9
X159.766Y167.962
X159.846Y192.1
X160.025Y212.3
X160.075Y136.325
X160.18Y180.39
X160.18Y179.19
X160.477Y169.162
X160.55Y135.825
X160.557Y190.9
X160.6Y211.95
X160.713Y223.062
X160.966Y167.962
X161.046Y192.1
X161.38Y180.39
X161.38Y179.19
X161.475Y210.95
X161.525Y134.975
X161.677Y169.162
X161.757Y190.9
X162.166Y167.962
X162.246Y192.1
X162.325Y211.1
X162.58Y180.39
X162.58Y179.19
X162.877Y169.162
X162.957Y190.9
X163.366Y167.962
X163.446Y192.1
X163.78Y180.39
X163.78Y179.19
X164.077Y169.162
X164.157Y190.9
X164.566Y167.962
X164.646Y192.1
X164.65Y30.3
X164.98Y180.39
X164.98Y179.19
X165.277Y169.162
X165.357Y190.9
X165.766Y167.962
X165.846Y192.1
X166.18Y180.39
X166.18Y179.19
X166.477Y169.162
X166.557Y190.9
X166.966Y167.962
X167.046Y192.1
X167.38Y180.39
X167.38Y179.19
X167.677Y169.162
X167.757Y190.9
X168.166Y167.962
X168.246Y192.1
X168.55Y44.75
X168.58Y180.39
X168.58Y179.19
X168.877Y169.162
X168.957Y190.9
X169.366Y167.962
X169.446Y192.1
X169.78Y180.39
X169.78Y179.19
X170.077Y169.162
X170.157Y190.9
X170.566Y167.962
X170.646Y192.1
X170.98Y180.39
X170.98Y179.19
X171.277Y169.162
X171.357Y190.9
X171.766Y167.962
X171.846Y192.1
X172.18Y180.39
X172.18Y179.19
X172.477Y169.162
X172.557Y190.9
X172.966Y167.962
X173.046Y192.1
X173.38Y180.39
X173.38Y179.19
X173.677Y169.162
X173.757Y190.9
X174.166Y167.962
X174.246Y192.1
X174.58Y180.39
X174.58Y179.19
X174.877Y169.162
X174.957Y190.9
X175.366Y167.962
X175.446Y192.1
X175.78Y180.39
X175.78Y179.19
X176.077Y169.162
X176.157Y190.9
X176.566Y167.962
X176.646Y192.1
X176.98Y180.39
X176.98Y179.19
X177.277Y169.162
X177.357Y190.9
X177.766Y167.962
X177.846Y192.1
X178.18Y180.39
X178.18Y179.19
X178.477Y169.162
X178.557Y190.9
X178.966Y167.962
X179.046Y192.1
X179.38Y180.39
X179.38Y179.19
X179.677Y169.162
X179.757Y190.9
X180.166Y167.962
X180.246Y192.1
X180.58Y180.39
X180.58Y179.19
X180.877Y169.162
X180.957Y190.9
X181.366Y167.962
X181.446Y192.1
X181.78Y180.39
X181.78Y179.19
X182.383Y169.259
X182.463Y190.803
X182.566Y167.962
X182.646Y192.1
X182.98Y180.39
X182.98Y179.19
X183.518Y169.638
X183.598Y190.424
X184.267Y168.25
X184.347Y191.812
X184.528Y170.281
X184.608Y189.78
X185.336Y168.79
X185.351Y171.15
X185.415Y191.272
X185.431Y188.911
X185.939Y172.193
X186.019Y187.869
X186.241Y169.572
X186.256Y173.347
X186.308Y175.745
X186.308Y174.545
X186.321Y190.49
X186.336Y186.715
X186.388Y184.317
X186.388Y185.517
X186.93Y170.551
X187.01Y189.511
X187.361Y171.668
X187.441Y188.394
X187.508Y172.856
X187.508Y175.256
X187.508Y174.056
X187.588Y187.206
X187.588Y184.806
X187.588Y186.006
X188.429Y174.052
X188.429Y175.252
X188.429Y172.852
X188.459Y185.875
X188.459Y184.675
X188.459Y187.075
X188.576Y171.664
X188.606Y188.263
X189.007Y170.547
X189.037Y189.38
X189.629Y174.541
X189.629Y175.741
X189.659Y185.386
X189.659Y184.186
X189.681Y173.344
X189.696Y169.568
X189.711Y186.583
X189.726Y190.359
X189.998Y172.189
X190.028Y187.738
X190.586Y171.147
X190.602Y168.786
X190.616Y188.78
X190.632Y191.141
X191.41Y170.278
X191.44Y189.649
X191.67Y168.246
X191.7Y191.681
X192.419Y169.634
X192.449Y190.292
X193.371Y167.958
X193.401Y191.969
X193.554Y169.255
X193.585Y190.672
X194.571Y167.958
X194.601Y191.969
X195.06Y169.158
X195.09Y190.769
X195.771Y167.958
X195.801Y191.969
X196.26Y169.158
X196.29Y190.769
X196.971Y167.958
X197.001Y191.969
X197.46Y169.158
X197.49Y190.769
X198.171Y167.958
X198.201Y191.969
X198.66Y169.158
X198.69Y190.769
X199.371Y167.958
X199.401Y191.969
X199.86Y169.158
X199.89Y190.769
X200.571Y167.958
X200.601Y191.969
X201.06Y169.158
X201.09Y190.769
X201.15Y30.5
X201.3Y29.9
X201.771Y167.958
X201.801Y191.969
X202.26Y169.158
X202.29Y190.769
X202.971Y167.958
X203.001Y191.969
X203.46Y169.158
X203.49Y190.769
X204.171Y167.958
X204.201Y191.969
X204.66Y169.158
X204.69Y190.769
X205.371Y167.958
X205.401Y191.969
X205.86Y169.158
X205.89Y190.769
X206.571Y167.958
X206.601Y191.969
X207.06Y169.158
X207.09Y190.769
X207.771Y167.958
X207.801Y191.969
X208.26Y169.158
X208.29Y190.769
X208.971Y167.958
X209.001Y191.969
X209.46Y169.158
X209.49Y190.769
X210.171Y167.958
X210.201Y191.969
X210.66Y169.158
X210.69Y190.769
X211.371Y167.958
X211.401Y191.969
X211.86Y169.158
X211.89Y190.769
X212.571Y167.958
X212.601Y191.969
X213.06Y169.158
X213.09Y190.769
X213.725Y225.5
X213.771Y167.958
X213.801Y191.969
X214.26Y169.158
X214.29Y190.769
X214.5Y225.05
X214.575Y149.0
X214.971Y167.958
X215.001Y191.969
X215.125Y213.3
X215.46Y169.158
X215.475Y224.2
X215.49Y190.769
X215.95Y223.7
X216.025Y147.65
X216.171Y167.958
X216.201Y191.969
X216.66Y169.158
X216.69Y190.769
X217.371Y167.958
X217.401Y191.969
X217.804Y223.926
X217.804Y147.926
X217.804Y136.124
X217.86Y169.158
X217.879Y212.149
X217.89Y190.769
X218.329Y223.378
X218.329Y212.672
X218.329Y147.378
X218.329Y136.672
X218.571Y167.958
X218.601Y191.969
X218.65Y205.85
X218.742Y224.796
X218.742Y211.254
X218.742Y148.796
X218.742Y135.254
X218.891Y222.809
X218.891Y213.241
X218.891Y146.809
X218.891Y137.241
X219.0Y206.55
X219.05Y130.45
X219.06Y169.158
X219.09Y190.769
X219.12Y221.312
X219.12Y214.738
X219.12Y145.312
X219.12Y138.738
X219.192Y225.246
X219.192Y210.804
X219.192Y149.246
X219.192Y134.804
X219.203Y219.855
X219.203Y216.195
X219.203Y143.855
X219.203Y140.195
X219.48Y223.967
X219.48Y212.083
X219.48Y147.967
X219.48Y136.083
X219.771Y167.958
X219.801Y191.969
X219.83Y224.967
X219.83Y211.083
X219.83Y148.967
X219.83Y135.083
X219.975Y207.4
X220.031Y218.994
X220.031Y217.056
X220.031Y142.994
X220.031Y141.056
X220.104Y223.11
X220.104Y212.94
X220.104Y147.11
X220.104Y136.94
X220.242Y226.146
X220.242Y209.904
X220.242Y150.146
X220.242Y133.904
X220.26Y169.158
X220.29Y190.769
X220.32Y220.859
X220.32Y215.191
X220.32Y144.859
X220.32Y139.191
X220.32Y222.059
X220.32Y213.991
X220.32Y146.059
X220.32Y137.991
X220.35Y208.0
X220.4Y131.9
X220.417Y167.958
X220.447Y191.969
X220.58Y224.317
X220.58Y211.733
X220.58Y148.317
X220.58Y135.733
X220.911Y219.911
X220.911Y216.139
X220.911Y143.911
X220.911Y140.139
X220.93Y225.767
X220.93Y222.767
X220.93Y213.283
X220.93Y210.283
X220.93Y149.767
X220.93Y146.767
X220.93Y137.283
X220.93Y134.283
X221.03Y223.867
X221.03Y212.183
X221.03Y147.867
X221.03Y136.183
X221.1Y152.55
X221.112Y218.498
X221.112Y217.552
X221.112Y142.498
X221.112Y141.552
X221.125Y228.7
X221.3Y151.55
X221.46Y169.158
X221.48Y223.367
X221.48Y212.683
X221.48Y147.367
X221.48Y136.683
X221.49Y190.769
X221.606Y167.815
X221.63Y225.117
X221.63Y210.933
X221.63Y149.117
X221.63Y134.933
X221.636Y192.112
X221.735Y219.65
X221.735Y216.4
X221.735Y143.65
X221.735Y140.4
X221.75Y218.45
X221.75Y142.45
X221.775Y141.55
X221.781Y217.545
X221.83Y221.817
X221.83Y214.233
X221.83Y145.817
X221.83Y138.233
X221.93Y221.117
X221.93Y214.933
X221.93Y145.117
X221.93Y138.933
X222.23Y224.417
X222.23Y211.633
X222.23Y148.417
X222.23Y135.633
X222.326Y169.108
X222.356Y190.819
X222.43Y222.467
X222.43Y213.583
X222.43Y146.467
X222.43Y137.583
X222.68Y223.367
X222.68Y212.683
X222.68Y147.367
X222.68Y136.683
X222.705Y138.358
X222.726Y167.393
X222.756Y192.534
X223.482Y168.797
X223.512Y191.13
X223.714Y166.717
X223.744Y193.21
X224.0Y216.0
X224.513Y165.826
X224.531Y168.221
X224.543Y194.101
X224.561Y191.706
X224.98Y138.508
X225.077Y164.77
X225.107Y195.157
X225.374Y163.61
X225.404Y196.317
X225.413Y167.412
X225.417Y146.812
X225.417Y148.012
X225.417Y149.212
X225.417Y150.412
X225.417Y151.612
X225.417Y152.812
X225.417Y154.012
X225.417Y155.212
X225.417Y156.412
X225.417Y157.612
X225.417Y158.812
X225.417Y160.012
X225.417Y161.212
X225.417Y162.412
X225.443Y192.515
X225.447Y213.115
X225.447Y211.915
X225.447Y210.715
X225.447Y209.515
X225.447Y208.315
X225.447Y207.115
X225.447Y205.915
X225.447Y204.715
X225.447Y203.515
X225.447Y202.315
X225.447Y201.115
X225.447Y199.915
X225.447Y198.715
X225.447Y197.515
X226.078Y166.416
X226.108Y193.511
X226.487Y165.291
X226.517Y194.636
X226.617Y147.301
X226.617Y148.501
X226.617Y149.701
X226.617Y150.901
X226.617Y152.101
X226.617Y153.301
X226.617Y154.501
X226.617Y155.701
X226.617Y156.901
X226.617Y158.101
X226.617Y159.301
X226.617Y160.501
X226.617Y161.701
X226.617Y162.901
X226.617Y164.101
X226.647Y212.626
X226.647Y211.426
X226.647Y210.226
X226.647Y209.026
X226.647Y207.826
X226.647Y206.626
X226.647Y205.426
X226.647Y204.226
X226.647Y203.026
X226.647Y201.826
X226.647Y200.626
X226.647Y199.426
X226.647Y198.226
X226.647Y197.026
X226.647Y195.826
X228.0Y143.95
X229.22Y212.633
X229.22Y136.633
X229.32Y223.367
X229.32Y147.367
X229.47Y213.533
X229.47Y137.533
X229.57Y222.467
X229.57Y146.467
X229.67Y211.583
X229.67Y135.583
X229.77Y224.417
X229.77Y148.417
X229.97Y214.883
X229.97Y138.883
X230.07Y221.117
X230.07Y214.183
X230.07Y145.117
X230.07Y138.183
X230.15Y217.55
X230.15Y141.55
X230.165Y216.35
X230.165Y140.35
X230.17Y221.817
X230.17Y145.817
X230.25Y218.45
X230.25Y142.45
X230.265Y219.65
X230.265Y143.65
X230.27Y210.883
X230.27Y134.883
X230.37Y225.117
X230.37Y149.117
X230.42Y212.633
X230.42Y136.633
X230.52Y223.367
X230.52Y147.367
X230.788Y217.502
X230.788Y141.502
X230.87Y212.133
X230.87Y136.133
X230.875Y207.35
X230.888Y218.498
X230.888Y142.498
X230.97Y223.867
X230.97Y213.233
X230.97Y210.233
X230.97Y147.867
X230.97Y137.233
X230.97Y134.233
X230.989Y216.089
X230.989Y140.089
X231.07Y225.767
X231.07Y222.767
X231.07Y149.767
X231.07Y146.767
X231.089Y219.911
X231.089Y143.911
X231.32Y211.683
X231.32Y135.683
X231.42Y224.317
X231.42Y148.317
X231.58Y213.941
X231.58Y137.941
X231.58Y215.141
X231.58Y139.141
X231.625Y228.1
X231.658Y209.854
X231.658Y133.854
X231.675Y152.0
X231.68Y222.059
X231.68Y146.059
X231.68Y220.859
X231.68Y144.859
X231.758Y226.146
X231.758Y150.146
X231.796Y212.89
X231.796Y136.89
X231.869Y217.006
X231.869Y141.006
X231.896Y223.11
X231.896Y147.11
X231.95Y152.675
X231.969Y218.994
X231.969Y142.994
X232.07Y211.033
X232.07Y135.033
X232.17Y224.967
X232.17Y148.967
X232.42Y212.033
X232.42Y136.033
X232.52Y223.967
X232.52Y147.967
X232.697Y216.145
X232.697Y140.145
X232.708Y210.754
X232.708Y134.754
X232.78Y214.688
X232.78Y138.688
X232.797Y219.855
X232.797Y143.855
X232.808Y225.246
X232.808Y149.246
X232.88Y221.312
X232.88Y145.312
X232.975Y229.55
X233.009Y213.191
X233.009Y137.191
X233.025Y153.45
X233.109Y222.809
X233.109Y146.809
X233.158Y211.204
X233.158Y135.204
X233.175Y154.15
X233.258Y224.796
X233.258Y148.796
X233.571Y212.622
X233.571Y136.622
X233.671Y223.378
X233.671Y147.378
X234.096Y212.074
X234.096Y136.074
X234.196Y223.926
X234.196Y147.926
X236.0Y212.35
X236.075Y136.3
X236.55Y135.8
X236.675Y223.05
X236.8Y146.85
X237.45Y211.0
X237.525Y134.95
X238.2Y134.55
T3
X47.563Y22.227
X47.563Y21.44
X47.563Y20.653
X47.873Y51.327
X47.873Y50.54
X47.873Y49.753
X48.35Y22.227
X48.35Y21.44
X48.35Y20.653
X48.66Y51.327
X48.66Y50.54
X48.66Y49.753
X49.137Y22.227
X49.137Y21.44
X49.137Y20.653
X49.447Y51.327
X49.447Y50.54
X49.447Y49.753
T4
X55.35Y146.275
X55.475Y137.275
X56.0Y146.65
X56.125Y137.65
X56.7Y161.1
X56.7Y160.05
X56.75Y158.4
X56.75Y157.4
X56.95Y147.675
X57.25Y214.75
X57.45Y138.65
X57.85Y161.1
X57.85Y160.05
X57.9Y158.45
X57.95Y157.4
X58.2Y145.925
X58.2Y145.025
X58.325Y136.925
X58.325Y136.025
X59.025Y145.9
X59.025Y144.975
X59.15Y136.9
X59.15Y135.975
X59.35Y160.05
X59.4Y161.1
X59.45Y158.5
X59.5Y157.35
X59.925Y147.675
X60.05Y138.675
X60.5Y157.35
X60.55Y161.1
X60.55Y160.05
X60.55Y158.45
X60.925Y146.65
X60.95Y145.65
X61.05Y137.65
X61.075Y136.65
X62.375Y217.025
X63.475Y133.1
X63.55Y217.075
X63.55Y215.025
X67.4Y217.2
X99.0Y217.0
X101.5Y179.0
X104.0Y180.5
X104.2Y37.55
X104.2Y36.9
X104.3Y34.65
X104.6Y40.6
X105.3Y36.25
X105.35Y35.55
X107.4Y40.45
X107.4Y35.55
X109.95Y40.45
X110.0Y36.5
X123.3Y161.6
X123.9Y219.6
X125.7Y119.1
X126.4Y238.5
X128.2Y196.4
X137.35Y149.275
X137.375Y226.15
X137.425Y150.175
X138.625Y147.8
X139.55Y211.825
X139.575Y226.975
X139.575Y135.8
X139.6Y208.925
X139.625Y151.0
X139.625Y132.9
X140.2Y227.75
X140.225Y226.25
X140.25Y151.775
X140.275Y208.175
X140.275Y150.275
X140.3Y132.15
X140.425Y209.725
X140.45Y133.7
X140.95Y228.425
X141.0Y152.45
X141.025Y225.5
X141.05Y207.55
X141.075Y226.9
X141.075Y149.525
X141.075Y131.525
X141.125Y209.05
X141.125Y150.925
X141.15Y210.475
X141.15Y133.025
X141.175Y134.45
X141.75Y227.6
X141.775Y208.2
X141.8Y226.15
X141.8Y151.625
X141.8Y132.175
X141.85Y150.175
X141.875Y209.775
X141.875Y205.35
X141.9Y133.75
X141.9Y129.325
X142.5Y226.875
X142.525Y209.0
X142.55Y150.9
X142.55Y132.975
X143.925Y228.475
X143.925Y152.5
X145.225Y152.85
X145.8Y90.9
X147.4Y112.1
X147.5Y256.0
X148.6Y143.175
X148.6Y142.025
X148.6Y140.975
X148.675Y219.05
X148.675Y218.025
X148.675Y216.9
X149.75Y142.025
X149.95Y143.175
X149.975Y140.95
X150.0Y219.05
X150.025Y216.825
X150.225Y217.975
X151.1Y35.1
X151.3Y143.1
X151.3Y141.975
X151.3Y140.95
X151.375Y219.025
X151.375Y217.975
X151.375Y216.825
X151.7Y256.0
X152.9Y91.9
X154.25Y36.75
X154.3Y40.55
X154.925Y131.3
X155.4Y36.15
X155.45Y35.45
X155.75Y152.85
X156.075Y207.475
X156.075Y131.475
X156.95Y40.5
X157.075Y154.3
X157.15Y35.7
X157.5Y227.0
X157.5Y209.075
X157.525Y150.975
X157.55Y133.1
X158.15Y230.65
X158.15Y226.225
X158.175Y154.625
X158.175Y150.2
X158.2Y209.8
X158.25Y227.8
X158.25Y208.35
X158.25Y133.825
X158.275Y151.775
X158.3Y132.375
X158.875Y225.525
X158.9Y226.95
X158.9Y149.5
X158.925Y209.05
X158.925Y150.925
X158.975Y228.45
X158.975Y210.45
X158.975Y133.075
X159.0Y152.425
X159.025Y134.475
X159.05Y207.525
X159.1Y131.55
X159.6Y226.275
X159.625Y150.25
X159.65Y36.65
X159.7Y40.5
X159.75Y227.825
X159.775Y209.7
X159.775Y151.8
X159.8Y208.2
X159.825Y133.725
X159.85Y132.225
X160.425Y227.075
X160.425Y208.975
X160.45Y151.05
X160.475Y224.175
X160.475Y133.0
X160.5Y148.15
X160.7Y248.1
X160.95Y146.85
X162.25Y134.6
X162.625Y209.8
X162.675Y133.825
X171.2Y239.1
X174.7Y119.2
X174.8Y201.7
X183.9Y122.9
X191.0Y33.0
X191.25Y30.65
X196.3Y30.7
X196.35Y32.95
X197.4Y197.4
X197.6Y162.6
X198.3Y31.05
X199.0Y123.1
X199.0Y29.8
X199.6Y29.8
X200.9Y31.15
X202.95Y29.35
X204.0Y235.7
X204.1Y31.1
X207.9Y243.3
X213.35Y226.2
X213.425Y150.15
X213.475Y149.275
X214.775Y136.075
X214.95Y147.925
X215.075Y137.25
X215.375Y211.925
X215.55Y227.025
X215.575Y208.975
X215.625Y150.975
X215.625Y132.875
X216.175Y227.8
X216.2Y226.3
X216.25Y208.225
X216.25Y151.75
X216.275Y150.25
X216.3Y132.125
X216.4Y209.775
X216.45Y133.675
X216.7Y260.5
X216.925Y228.475
X217.0Y225.55
X217.0Y152.425
X217.025Y207.6
X217.05Y226.95
X217.075Y149.5
X217.075Y131.5
X217.1Y209.1
X217.125Y210.525
X217.125Y150.9
X217.15Y133.0
X217.175Y134.425
X217.725Y227.65
X217.75Y208.25
X217.775Y226.2
X217.8Y151.6
X217.8Y132.15
X217.85Y209.825
X217.85Y205.4
X217.85Y150.15
X217.9Y133.725
X217.9Y129.3
X218.475Y226.925
X218.5Y209.05
X218.55Y150.875
X218.55Y132.95
X218.675Y129.675
X219.9Y228.525
X220.2Y265.3
X220.3Y130.975
X220.4Y153.175
X223.3Y88.9
X224.6Y143.2
X224.6Y142.05
X224.6Y141.0
X224.675Y219.05
X224.675Y218.025
X224.675Y216.9
X225.75Y142.05
X225.8Y105.9
X225.95Y143.2
X225.975Y140.975
X226.0Y219.05
X226.025Y216.825
X226.225Y217.975
X227.3Y143.125
X227.3Y142.0
X227.3Y140.975
X227.375Y219.025
X227.375Y217.975
X227.375Y216.825
X231.025Y131.3
X231.775Y229.075
X232.0Y207.375
X232.025Y131.175
X233.25Y230.325
X233.475Y227.05
X233.475Y209.125
X233.525Y150.95
X233.55Y133.075
X234.125Y230.7
X234.125Y226.275
X234.175Y209.85
X234.175Y154.6
X234.175Y150.175
X234.225Y227.85
X234.225Y208.4
X234.25Y133.8
X234.275Y151.75
X234.3Y132.35
X234.85Y225.575
X234.875Y227.0
X234.9Y209.1
X234.9Y149.475
X234.925Y150.9
X234.95Y228.5
X234.95Y210.5
X234.975Y133.05
X235.0Y152.4
X235.025Y207.575
X235.025Y134.45
X235.1Y131.525
X235.575Y226.325
X235.625Y150.225
X235.725Y227.875
X235.75Y209.75
X235.775Y208.25
X235.775Y151.775
X235.825Y133.7
X235.85Y132.2
X236.4Y227.125
X236.4Y209.025
X236.45Y151.025
X236.475Y132.975
X236.5Y148.125
X236.725Y224.05
X236.775Y212.125
X238.275Y210.875
X238.6Y209.85
X238.675Y133.8
X244.5Y242.9
X252.8Y236.2
X252.8Y133.9
X253.5Y243.3
T5
X9.025Y187.35
X9.075Y184.7
X9.175Y182.2
X9.3Y179.55
X11.75Y152.95
X23.25Y153.85
X25.45Y154.85
X27.2Y154.85
X36.525Y187.525
X37.6Y178.2
X38.725Y178.15
X39.728Y192.536
X40.488Y193.271
X41.3Y185.775
X58.26Y192.585
X59.003Y191.878
X60.925Y184.025
X61.759Y108.48
X61.759Y107.48
X61.759Y103.98
X61.759Y102.98
X61.759Y101.98
X61.759Y98.98
X62.15Y175.575
X62.58Y108.98
X62.58Y107.98
X62.58Y106.98
X62.58Y104.48
X62.58Y103.48
X62.58Y102.48
X62.58Y101.48
X62.58Y98.48
X63.05Y175.6
X65.66Y90.4
X67.16Y114.881
X67.66Y114.06
X67.66Y90.4
X68.16Y114.881
X68.66Y114.06
X69.16Y114.881
X69.16Y90.4
X69.66Y114.06
X69.9Y171.125
X69.9Y170.175
X69.95Y169.175
X70.16Y90.4
X72.16Y114.06
X72.66Y89.579
X73.16Y114.06
X73.16Y90.4
X73.66Y89.579
X74.16Y90.4
X74.66Y89.579
X75.16Y90.4
X77.66Y89.579
X78.16Y90.4
X80.16Y114.06
X80.66Y114.881
X80.66Y89.579
X81.16Y114.06
X81.16Y90.4
X81.5Y229.5
X86.24Y110.48
X86.24Y103.48
X86.24Y102.48
X86.24Y99.48
X86.24Y94.98
X86.24Y93.48
X87.061Y110.98
X87.061Y102.98
X87.061Y99.98
X93.0Y239.5
X124.5Y125.35
X124.8Y156.1
X126.05Y127.2
X126.5Y230.2
X126.55Y202.85
X134.9Y166.05
X135.4Y117.95
X135.45Y239.7
X137.6Y193.35
X149.9Y128.6
X162.15Y240.9
X164.25Y196.4
X164.898Y76.003
X164.95Y165.9
X165.35Y119.3
X166.658Y76.03
X168.905Y75.259
X171.8Y231.8
X173.2Y205.75
X174.25Y128.4
X175.65Y156.1
X182.967Y74.701
X201.0Y156.9
X201.15Y230.05
X203.05Y127.35
X203.119Y75.655
X203.95Y204.2
X205.692Y76.474
X207.603Y76.513
X210.75Y166.35
X211.95Y240.9
X212.1Y195.45
X212.1Y118.0
X238.95Y242.0
X239.25Y166.4
X240.75Y195.45
X241.1Y119.5
X248.7Y232.45
X249.05Y156.2
X249.65Y204.15
X250.6Y129.1
T6
X9.7Y9.2
X11.55Y24.15
X37.45Y34.5
X39.65Y35.35
X42.0Y34.8
X44.15Y35.6
X97.775Y134.375
X97.825Y224.325
X99.15Y134.325
X99.5Y224.325
X101.025Y133.225
X101.525Y223.3
X186.58Y181.19
X186.58Y180.04
X186.58Y178.84
X187.73Y181.14
X187.73Y179.99
X187.78Y178.74
X188.83Y180.04
X188.83Y178.84
X188.88Y181.14
T8
X167.35Y287.95
X169.2Y288.0
X171.45Y286.8
X191.8Y289.85
X204.85Y287.2
X207.3Y288.3
X209.2Y288.4
T9
X75.2Y180.455
X75.2Y179.185
X76.94Y157.396
X76.94Y156.126
T10
X73.93Y181.09
X73.93Y178.55
X75.67Y158.031
X75.67Y155.491
X76.47Y181.09
X76.47Y178.55
X78.21Y158.031
X78.21Y155.491
T11
X86.975Y214.95
X87.0Y244.5
X95.25Y225.975
X112.175Y136.575
T12
X4.52Y88.17
X4.52Y85.63
X4.62Y254.92
X4.62Y252.38
X4.95Y60.25
X4.95Y57.71
X4.95Y18.39
X4.95Y15.85
X4.97Y48.52
X4.97Y45.98
X5.52Y157.44
X5.52Y154.9
X5.52Y142.83
X5.52Y140.29
X5.73Y165.73
X5.73Y163.19
X5.97Y173.61
X5.97Y171.07
X6.02Y222.55
X6.02Y220.01
X24.23Y29.5
X24.23Y14.5
X24.43Y59.45
X24.43Y44.45
X26.77Y29.5
X26.77Y14.5
X26.97Y59.45
X26.97Y44.45
X39.23Y29.5
X39.23Y14.5
X39.43Y59.45
X39.43Y44.45
X41.77Y29.5
X41.77Y14.5
X41.97Y59.45
X41.97Y44.45
X54.13Y29.7
X54.13Y14.7
X54.23Y59.5
X54.23Y44.5
X56.67Y29.7
X56.67Y14.7
X56.77Y59.5
X56.77Y44.5
X69.13Y29.7
X69.13Y14.7
X69.23Y59.5
X69.23Y44.5
X71.67Y29.7
X71.67Y14.7
X71.77Y59.5
X71.77Y44.5
X82.335Y55.083
X82.595Y20.022
X84.875Y55.083
X85.135Y20.022
X87.415Y55.083
X87.675Y20.022
X92.294Y55.074
X92.443Y19.942
X94.834Y55.074
X94.983Y19.942
X97.374Y55.074
X97.523Y19.942
X102.464Y55.102
X102.523Y19.863
X105.004Y55.102
X105.063Y19.863
X107.544Y55.102
X107.603Y19.863
X112.31Y19.924
X112.481Y55.0
X114.85Y19.924
X115.021Y55.0
X117.23Y278.78
X117.39Y19.924
X117.561Y55.0
X119.77Y278.78
X121.78Y91.97
X124.32Y91.97
X132.399Y54.989
X132.503Y20.027
X134.939Y54.989
X135.043Y20.027
X137.479Y54.989
X137.583Y20.027
X142.477Y20.08
X142.49Y54.952
X145.017Y20.08
X145.03Y54.952
X147.557Y20.08
X147.57Y54.952
X152.371Y54.953
X152.468Y19.865
X154.911Y54.953
X155.008Y19.865
X157.451Y54.953
X157.548Y19.865
X162.355Y54.953
X162.376Y19.97
X164.895Y54.953
X164.916Y19.97
X167.435Y54.953
X167.456Y19.97
X179.13Y276.6
X181.67Y276.6
X185.27Y285.63
X185.34Y90.97
X186.25Y78.77
X187.81Y285.63
X187.88Y90.97
X188.79Y78.77
X189.63Y276.6
X192.17Y276.6
X200.79Y277.23
X203.33Y277.23
X241.4Y278.03
X243.94Y278.03
X246.48Y79.05
X246.48Y76.51
X246.53Y62.99
X246.53Y60.45
X246.53Y45.21
X246.53Y42.67
X246.8Y100.77
X246.8Y98.23
X246.88Y108.74
X246.88Y106.2
T13
X3.0Y188.23
X3.0Y185.69
X3.0Y183.15
X3.0Y180.61
X5.54Y188.23
X5.54Y185.69
X5.54Y183.15
X5.54Y180.61
X29.64Y86.5
X32.18Y86.5
X34.63Y94.12
X34.72Y86.5
X37.17Y94.12
X37.26Y86.5
X39.62Y80.87
X39.71Y94.12
X42.16Y80.87
X42.25Y94.12
X44.64Y87.02
X44.7Y80.87
X44.79Y94.12
X47.18Y87.02
X47.24Y80.87
X47.33Y94.12
X48.76Y127.41
X48.76Y124.87
X48.76Y122.33
X48.76Y119.79
X48.76Y117.25
X48.76Y114.71
X48.76Y112.17
X48.76Y109.63
X48.76Y107.09
X48.76Y104.55
X49.72Y87.02
X49.78Y80.87
X49.87Y94.12
X51.3Y127.41
X51.3Y124.87
X51.3Y122.33
X51.3Y119.79
X51.3Y117.25
X51.3Y114.71
X51.3Y112.17
X51.3Y109.63
X51.3Y107.09
X51.3Y104.55
X52.26Y87.02
X52.32Y80.87
X52.41Y94.12
X58.72Y80.99
X58.72Y78.45
X58.72Y75.91
X58.72Y73.37
X63.41Y125.38
X64.92Y80.95
X64.92Y78.41
X64.92Y75.87
X65.95Y125.38
X68.49Y125.38
X70.47Y80.88
X70.47Y78.34
X70.47Y75.8
X75.96Y80.99
X75.96Y78.45
X78.5Y192.77
X78.5Y190.23
X78.5Y80.99
X78.5Y78.45
X81.04Y80.99
X81.04Y78.45
X83.58Y80.99
X83.58Y78.45
X86.12Y80.99
X86.12Y78.45
X88.66Y80.99
X88.66Y78.45
X91.2Y80.99
X91.2Y78.45
X102.35Y105.14
X102.35Y102.6
X102.35Y100.06
X102.35Y97.52
X102.35Y94.98
X102.35Y92.44
X104.89Y105.14
X104.89Y102.6
X104.89Y100.06
X104.89Y97.52
X104.89Y94.98
X104.89Y92.44
X183.32Y52.75
X183.32Y50.21
X183.32Y47.67
X188.52Y52.73
X188.52Y50.19
X188.52Y47.65
X193.82Y52.49
X193.82Y49.95
X193.82Y47.41
X198.87Y52.41
X198.87Y49.87
X198.87Y47.33
X204.37Y52.52
X204.37Y49.98
X204.37Y47.44
X209.72Y52.51
X209.72Y49.97
X209.72Y47.43
X214.92Y52.67
X214.92Y50.13
X214.92Y47.59
X219.87Y52.68
X219.87Y50.14
X219.87Y47.6
T14
X49.46Y225.59
X49.46Y220.51
X54.54Y225.59
X54.54Y220.51
X64.46Y188.44
X64.46Y183.36
X64.47Y197.78
X64.47Y192.7
X69.54Y188.44
X69.54Y183.36
X69.55Y197.78
X69.55Y192.7
X79.96Y224.35
X79.96Y219.27
X80.19Y139.39
X80.19Y134.31
X85.04Y224.35
X85.04Y219.27
X85.27Y139.39
X85.27Y134.31
X125.108Y149.14
X125.599Y223.552
X126.578Y133.59
X127.448Y210.69
X128.7Y152.732
X128.7Y145.548
X129.191Y227.144
X129.191Y219.959
X130.17Y137.182
X130.17Y129.998
X131.04Y214.282
X131.04Y207.098
X132.292Y149.14
X132.783Y223.552
X133.762Y133.59
X134.632Y210.69
X137.828Y161.79
X139.108Y121.17
X139.158Y237.02
X140.848Y197.24
X141.42Y165.382
X141.42Y158.198
X142.7Y124.762
X142.7Y117.578
X142.75Y240.612
X142.75Y233.428
X144.44Y200.832
X144.44Y193.648
X145.012Y161.79
X146.292Y121.17
X146.342Y237.02
X148.032Y197.24
X151.938Y238.64
X153.748Y198.89
X154.658Y122.61
X154.738Y161.94
X155.53Y242.232
X155.53Y235.048
X157.34Y202.482
X157.34Y195.298
X158.25Y126.202
X158.25Y119.018
X158.33Y165.532
X158.33Y158.348
X159.122Y238.64
X160.932Y198.89
X161.842Y122.61
X161.922Y161.94
X165.448Y225.14
X165.998Y150.89
X166.708Y134.66
X167.218Y212.46
X169.04Y228.732
X169.04Y221.548
X169.59Y154.482
X169.59Y147.298
X170.3Y138.252
X170.3Y131.068
X170.81Y216.052
X170.81Y208.868
X172.632Y225.14
X173.182Y150.89
X173.892Y134.66
X174.402Y212.46
X201.458Y149.71
X201.558Y223.41
X202.928Y133.32
X203.158Y210.56
X205.05Y153.302
X205.05Y146.118
X205.15Y227.002
X205.15Y219.818
X206.52Y136.912
X206.52Y129.728
X206.75Y214.152
X206.75Y206.968
X208.642Y149.71
X208.742Y223.41
X210.112Y133.32
X210.342Y210.56
X213.358Y161.51
X215.058Y237.01
X215.248Y198.35
X215.348Y120.93
X216.95Y165.102
X216.95Y157.918
X218.65Y240.602
X218.65Y233.418
X218.84Y201.942
X218.84Y194.758
X218.94Y124.522
X218.94Y117.338
X220.542Y161.51
X222.242Y237.01
X222.432Y198.35
X222.532Y120.93
X228.408Y239.11
X229.538Y162.21
X230.348Y198.22
X230.718Y122.86
X232.0Y242.702
X232.0Y235.518
X233.13Y165.802
X233.13Y158.618
X233.94Y201.812
X233.94Y194.628
X234.31Y126.452
X234.31Y119.268
X235.592Y239.11
X236.722Y162.21
X237.532Y198.22
X237.902Y122.86
X241.858Y134.16
X241.868Y150.02
X241.958Y225.61
X243.708Y211.61
X245.45Y137.752
X245.45Y130.568
X245.46Y153.612
X245.46Y146.428
X245.55Y229.202
X245.55Y222.018
X247.3Y215.202
X247.3Y208.018
X249.042Y134.16
X249.052Y150.02
X249.142Y225.61
X250.892Y211.61
T15
X29.518Y157.351
X107.6Y66.3
X133.5Y65.5
X140.5Y7.0
T7
X1.46Y212.49G85X0.86Y212.49
G05
X1.46Y203.51G85X0.86Y203.51
G05
X7.41Y212.13G85X6.81Y212.13
G05
X7.41Y203.87G85X6.81Y203.87
G05
M30
