999
FreeCAD v1.1 20260928 (Git shallow)
  0
SECTION
  2
HEADER
  9
$ACADVER
  1
AC1014
  9
$ACADMAINTVER
 70
     9
  9
$DWGCODEPAGE
  3
ANSI_1252
  9
$TEXTSTYLE
  7
STANDARD
  9
$DIMSTYLE
  2
STANDARD
  9
$DIMTXSTY
  7
STANDARD
  9
$CMLSTYLE
  2
STANDARD
  9
$LUNITS
 70
2
  9
$INSUNITS
 70
4
  9
$PEXTMAX
 10
50
 20
50
 30
50
  9
$PEXTMIN
 10
0
 20
0
 30
0
  9
$HANDSEED
  5
FFFF
  0
ENDSEC
  0
SECTION
  2
CLASSES
  0
CLASS
  1
ACDBDICTIONARYWDFLT
  2
AcDbDictionaryWithDefault
  3
ObjectDBX Classes
 90
        0
280
     0
281
     0
  0
CLASS
  1
XRECORD
  2
AcDbXrecord
  3
ObjectDBX Classes
 90
        0
280
     0
281
     0
  0
CLASS
  1
LWPOLYLINE
  2
AcDbPolyline
  3
ObjectDBX Classes
 90
        0
280
     0
281
     1
  0
ENDSEC
  0
SECTION
  2
TABLES
  0
TABLE
  2
VPORT
  5
20
330
0
100
AcDbSymbolTable
 70
     1
  0
VPORT
  5
21
330
20
100
AcDbSymbolTableRecord
100
AcDbViewportTableRecord
  2
*ACTIVE
 70
     0
  0
ENDTAB
  0
TABLE
  2
LTYPE
  5
22
330
0
100
AcDbSymbolTable
 70
     1
  0
LTYPE
  5
23
330
21
100
AcDbSymbolTableRecord
100
AcDbLinetypeTableRecord
  2
BYBLOCK
 70
     0
  3

 72
    65
 73
     0
 40
0.0
  0
LTYPE
  5
24
330
21
100
AcDbSymbolTableRecord
100
AcDbLinetypeTableRecord
  2
BYLAYER
 70
     0
  3

 72
    65
 73
     0
 40
0.0
  0
LTYPE
  5
25
330
21
100
AcDbSymbolTableRecord
100
AcDbLinetypeTableRecord
  2
CONTINUOUS
 70
     0
  3
Solid line
 72
    65
 73
     0
 40
0.0
  0
ENDTAB
  0
TABLE
  2
LAYER
  5
B25
330
0
100
AcDbSymbolTable
 70
5
  0
LAYER
  5
B26
330
B25
100
AcDbSymbolTableRecord
100
AcDbLayerTableRecord
  2
0
 70
   0
 62
   7
  6
CONTINUOUS
  0
LAYER
  5
B27
330
B25
100
AcDbSymbolTableRecord
100
AcDbLayerTableRecord
  2
ProjItem
 70
    0
 62
    7
  6
CONTINUOUS
  0
LAYER
  5
B28
330
B25
100
AcDbSymbolTableRecord
100
AcDbLayerTableRecord
  2
ProjItem001
 70
    0
 62
    7
  6
CONTINUOUS
  0
LAYER
  5
B29
330
B25
100
AcDbSymbolTableRecord
100
AcDbLayerTableRecord
  2
ProjItem002
 70
    0
 62
    7
  6
CONTINUOUS
  0
LAYER
  5
B2A
330
B25
100
AcDbSymbolTableRecord
100
AcDbLayerTableRecord
  2
ProjItem003
 70
    0
 62
    7
  6
CONTINUOUS
  0
ENDTAB
  0
TABLE
  2
STYLE
  5
70
330
0
100
AcDbSymbolTable
 70
     2
  0
STYLE
  5
71
330
70
100
AcDbSymbolTableRecord
100
AcDbTextStyleTableRecord
  2
STANDARD
 70
     0
 40
0.0
 41
1.0
 50
0.0
 71
     0
 42
2.5
  3
arial.ttf
  4

  0
STYLE
  5
72
330
70
100
AcDbSymbolTableRecord
100
AcDbTextStyleTableRecord
  2
ANNOTATIVE
 70
     0
 40
0.0
 41
1.0
 50
0.0
 71
     0
 42
2.5
  3
arial.ttf
  4

  0
ENDTAB
  0
TABLE
  2
VIEW
  5
73
330
0
100
AcDbSymbolTable
 70
     0
  0
ENDTAB
  0
TABLE
  2
UCS
  5
74
330
0
100
AcDbSymbolTable
 70
     0
  0
ENDTAB
  0
TABLE
  2
APPID
  5
75
330
0
100
AcDbSymbolTable
 70
     2
  0
APPID
  5
76
330
75
100
AcDbSymbolTableRecord
100
AcDbRegAppTableRecord
  2
ACAD
 70
     0
  0
APPID
  5
77
330
75
100
AcDbSymbolTableRecord
100
AcDbRegAppTableRecord
  2
ACADANNOTATIVE
 70
     0
  0
ENDTAB
  0
TABLE
  2
DIMSTYLE
  5
78
330
0
100
AcDbSymbolTable
 70
     2
  0
DIMSTYLE
105
79
330
78
100
AcDbSymbolTableRecord
100
AcDbDimStyleTableRecord
  2
STANDARD
 70
     0
  3

  4

  5

  6

  7

 40
0.0
 41
2.5
 42
0.625
 43
3.75
 44
1.25
 45
0.0
 46
0.0
 47
0.0
 48
0.0
140
2.5
141
2.5
142
0.0
143
0.03937007874016
144
1.0
145
0.0
146
1.0
147
0.625
 71
     0
 72
     0
 73
     0
 74
     0
 75
     0
 76
     0
 77
     1
 78
     8
170
     0
171
     3
172
     1
173
     0
174
     0
175
     0
176
     0
177
     0
178
     0
270
     2
271
     2
272
     2
273
     2
274
     3
340
71
275
     0
280
     0
281
     0
282
     0
283
     0
284
     8
285
     0
286
     0
287
     3
288
     0
  0
ENDTAB
  0
TABLE
  2
BLOCK_RECORD
  5
A01
330
0
100
AcDbSymbolTable
  70
5
  0
BLOCK_RECORD
  5
A02
330
A01
100
AcDbSymbolTableRecord
100
AcDbBlockTableRecord
  2
*MODEL_SPACE
  0
BLOCK_RECORD
  5
A03
330
A01
100
AcDbSymbolTableRecord
100
AcDbBlockTableRecord
  2
*PAPER_SPACE
  0
ENDTAB
  0
ENDSEC
  0
SECTION
  2
BLOCKS
  0
BLOCK
  5
A04
330
A02
100
AcDbEntity
  8
0
100
AcDbBlockBegin
  2
*MODEL_SPACE
 70
   0
 10
0
 20
0
 30
0
  3
*MODEL_SPACE
  1
 
  0
ENDBLK
  5
A05
330
A02
100
AcDbEntity
  8
0
100
AcDbBlockEnd
  0
BLOCK
  5
A06
330
A03
100
AcDbEntity
 67
1
  8
0
100
AcDbBlockBegin
  2
*PAPER_SPACE
 70
   0
 10
0
 20
0
 30
0
  3
*PAPER_SPACE
  1
 
  0
ENDBLK
  5
A07
330
A03
100
AcDbEntity
 67
    1
  8
0
100
AcDbBlockEnd
  0
ENDSEC
  0
SECTION
  2
ENTITIES
  0
LINE
  5
A08
330
A02
100
AcDbEntity
  8
ProjItem
100
AcDbLine
 10
265.500000000
 20
195.300000000
 30
0.000000000
 11
265.500000000
 21
257.800000000
 31
0.000000000
  0
LINE
  5
A09
330
A02
100
AcDbEntity
  8
ProjItem
100
AcDbLine
 10
328.500000000
 20
195.300000000
 30
0.000000000
 11
328.500000000
 21
257.800000000
 31
0.000000000
  0
LINE
  5
A0A
330
A02
100
AcDbEntity
  8
ProjItem
100
AcDbLine
 10
265.500000000
 20
257.800000000
 30
0.000000000
 11
328.500000000
 21
257.800000000
 31
0.000000000
  0
LINE
  5
A0B
330
A02
100
AcDbEntity
  8
ProjItem
100
AcDbLine
 10
279.500000000
 20
252.600000000
 30
0.000000000
 11
314.500000000
 21
252.600000000
 31
0.000000000
  0
LINE
  5
A0C
330
A02
100
AcDbEntity
  8
ProjItem
100
AcDbLine
 10
314.500000000
 20
252.600000000
 30
0.000000000
 11
314.500000000
 21
201.000000000
 31
0.000000000
  0
LINE
  5
A0D
330
A02
100
AcDbEntity
  8
ProjItem
100
AcDbLine
 10
279.500000000
 20
201.000000000
 30
0.000000000
 11
314.500000000
 21
201.000000000
 31
0.000000000
  0
LINE
  5
A0E
330
A02
100
AcDbEntity
  8
ProjItem
100
AcDbLine
 10
279.500000000
 20
252.600000000
 30
0.000000000
 11
279.500000000
 21
201.000000000
 31
0.000000000
  0
LINE
  5
A0F
330
A02
100
AcDbEntity
  8
ProjItem
100
AcDbLine
 10
265.500000000
 20
257.800000000
 30
0.000000000
 11
265.500000000
 21
258.300000000
 31
0.000000000
  0
LINE
  5
A10
330
A02
100
AcDbEntity
  8
ProjItem
100
AcDbLine
 10
265.500000000
 20
257.800000000
 30
0.000000000
 11
328.500000000
 21
257.800000000
 31
0.000000000
  0
LINE
  5
A11
330
A02
100
AcDbEntity
  8
ProjItem
100
AcDbLine
 10
328.500000000
 20
257.800000000
 30
0.000000000
 11
328.500000000
 21
258.300000000
 31
0.000000000
  0
LINE
  5
A12
330
A02
100
AcDbEntity
  8
ProjItem
100
AcDbLine
 10
265.500000000
 20
258.300000000
 30
0.000000000
 11
328.500000000
 21
258.300000000
 31
0.000000000
  0
LINE
  5
A13
330
A02
100
AcDbEntity
  8
ProjItem
100
AcDbLine
 10
279.500000000
 20
201.000000000
 30
0.000000000
 11
279.500000000
 21
252.600000000
 31
0.000000000
  0
LINE
  5
A14
330
A02
100
AcDbEntity
  8
ProjItem
100
AcDbLine
 10
314.500000000
 20
201.000000000
 30
0.000000000
 11
314.500000000
 21
252.600000000
 31
0.000000000
  0
LINE
  5
A15
330
A02
100
AcDbEntity
  8
ProjItem
100
AcDbLine
 10
279.500000000
 20
201.000000000
 30
0.000000000
 11
314.500000000
 21
201.000000000
 31
0.000000000
  0
LINE
  5
A16
330
A02
100
AcDbEntity
  8
ProjItem
100
AcDbLine
 10
279.500000000
 20
252.600000000
 30
0.000000000
 11
314.500000000
 21
252.600000000
 31
0.000000000
  0
SPLINE
  5
A17
330
A02
100
AcDbEntity
  8
ProjItem
100
AcDbSpline
210
0
220
0
230
1
 70
8
 71
1
 72
17
 73
15
 74
0
 40
3.141592654
 40
3.141592654
 40
3.365992129
 40
3.590391604
 40
3.814791079
 40
4.039190555
 40
4.263590030
 40
4.487989505
 40
4.712388980
 40
4.936788456
 40
5.161187931
 40
5.385587406
 40
5.609986881
 40
5.834386357
 40
6.058785832
 40
6.283185307
 40
6.283185307
 10
263.000000000
 20
195.300000000
 30
0.000000000
 10
263.852450986
 20
195.300000000
 30
0.000000000
 10
266.367058491
 20
195.300000000
 30
0.000000000
 10
270.417729596
 20
195.300000000
 30
0.000000000
 10
275.801346737
 20
195.300000000
 30
0.000000000
 10
282.247952870
 20
195.300000000
 30
0.000000000
 10
289.434288245
 20
195.300000000
 30
0.000000000
 10
297.000000000
 20
195.300000000
 30
0.000000000
 10
304.565711755
 20
195.300000000
 30
0.000000000
 10
311.752047130
 20
195.300000000
 30
0.000000000
 10
318.198653263
 20
195.300000000
 30
0.000000000
 10
323.582270404
 20
195.300000000
 30
0.000000000
 10
327.632941509
 20
195.300000000
 30
0.000000000
 10
330.147549014
 20
195.300000000
 30
0.000000000
 10
331.000000000
 20
195.300000000
 30
0.000000000
  0
LINE
  5
A18
330
A02
100
AcDbEntity
  8
ProjItem
100
AcDbLine
 10
331.000000000
 20
193.700000000
 30
0.000000000
 11
331.000000000
 21
195.300000000
 31
0.000000000
  0
SPLINE
  5
A19
330
A02
100
AcDbEntity
  8
ProjItem
100
AcDbSpline
210
0
220
0
230
1
 70
8
 71
1
 72
17
 73
15
 74
0
 40
3.141592654
 40
3.141592654
 40
3.365992129
 40
3.590391604
 40
3.814791079
 40
4.039190555
 40
4.263590030
 40
4.487989505
 40
4.712388980
 40
4.936788456
 40
5.161187931
 40
5.385587406
 40
5.609986881
 40
5.834386357
 40
6.058785832
 40
6.283185307
 40
6.283185307
 10
263.000000000
 20
193.700000000
 30
0.000000000
 10
263.852450986
 20
193.700000000
 30
0.000000000
 10
266.367058491
 20
193.700000000
 30
0.000000000
 10
270.417729596
 20
193.700000000
 30
0.000000000
 10
275.801346737
 20
193.700000000
 30
0.000000000
 10
282.247952870
 20
193.700000000
 30
0.000000000
 10
289.434288245
 20
193.700000000
 30
0.000000000
 10
297.000000000
 20
193.700000000
 30
0.000000000
 10
304.565711755
 20
193.700000000
 30
0.000000000
 10
311.752047130
 20
193.700000000
 30
0.000000000
 10
318.198653263
 20
193.700000000
 30
0.000000000
 10
323.582270404
 20
193.700000000
 30
0.000000000
 10
327.632941509
 20
193.700000000
 30
0.000000000
 10
330.147549014
 20
193.700000000
 30
0.000000000
 10
331.000000000
 20
193.700000000
 30
0.000000000
  0
LINE
  5
A1A
330
A02
100
AcDbEntity
  8
ProjItem
100
AcDbLine
 10
316.000000000
 20
189.700000000
 30
0.000000000
 11
316.000000000
 21
193.700000000
 31
0.000000000
  0
LINE
  5
A1B
330
A02
100
AcDbEntity
  8
ProjItem
100
AcDbLine
 10
261.000000000
 20
163.700000000
 30
0.000000000
 11
261.000000000
 21
189.700000000
 31
0.000000000
  0
LINE
  5
A1C
330
A02
100
AcDbEntity
  8
ProjItem
100
AcDbLine
 10
261.000000000
 20
163.700000000
 30
0.000000000
 11
333.000000000
 21
163.700000000
 31
0.000000000
  0
LINE
  5
A1D
330
A02
100
AcDbEntity
  8
ProjItem
100
AcDbLine
 10
333.000000000
 20
163.700000000
 30
0.000000000
 11
333.000000000
 21
189.700000000
 31
0.000000000
  0
LINE
  5
A1E
330
A02
100
AcDbEntity
  8
ProjItem
100
AcDbLine
 10
261.000000000
 20
189.700000000
 30
0.000000000
 11
333.000000000
 21
189.700000000
 31
0.000000000
  0
SPLINE
  5
A1F
330
A02
100
AcDbEntity
  8
ProjItem
100
AcDbSpline
210
0
220
0
230
1
 70
8
 71
1
 72
17
 73
15
 74
0
 40
3.141592654
 40
3.141592654
 40
3.365992129
 40
3.590391604
 40
3.814791079
 40
4.039190555
 40
4.263590030
 40
4.487989505
 40
4.712388980
 40
4.936788456
 40
5.161187931
 40
5.385587406
 40
5.609986881
 40
5.834386357
 40
6.058785832
 40
6.283185307
 40
6.283185307
 10
319.200000000
 20
192.900000000
 30
0.000000000
 10
319.343663063
 20
192.900000000
 30
0.000000000
 10
319.767448387
 20
192.900000000
 30
0.000000000
 10
320.450105605
 20
192.900000000
 30
0.000000000
 10
321.357403435
 20
192.900000000
 30
0.000000000
 10
322.443846175
 20
192.900000000
 30
0.000000000
 10
323.654955048
 20
192.900000000
 30
0.000000000
 10
324.930000000
 20
192.900000000
 30
0.000000000
 10
326.205044952
 20
192.900000000
 30
0.000000000
 10
327.416153825
 20
192.900000000
 30
0.000000000
 10
328.502596565
 20
192.900000000
 30
0.000000000
 10
329.409894395
 20
192.900000000
 30
0.000000000
 10
330.092551613
 20
192.900000000
 30
0.000000000
 10
330.516336937
 20
192.900000000
 30
0.000000000
 10
330.660000000
 20
192.900000000
 30
0.000000000
  0
LINE
  5
A20
330
A02
100
AcDbEntity
  8
ProjItem
100
AcDbLine
 10
330.660000000
 20
190.500000000
 30
0.000000000
 11
330.660000000
 21
192.900000000
 31
0.000000000
  0
SPLINE
  5
A21
330
A02
100
AcDbEntity
  8
ProjItem
100
AcDbSpline
210
0
220
0
230
1
 70
8
 71
1
 72
17
 73
15
 74
0
 40
3.141592654
 40
3.141592654
 40
3.365992129
 40
3.590391604
 40
3.814791079
 40
4.039190555
 40
4.263590030
 40
4.487989505
 40
4.712388980
 40
4.936788456
 40
5.161187931
 40
5.385587406
 40
5.609986881
 40
5.834386357
 40
6.058785832
 40
6.283185307
 40
6.283185307
 10
319.200000000
 20
190.500000000
 30
0.000000000
 10
319.343663063
 20
190.500000000
 30
0.000000000
 10
319.767448387
 20
190.500000000
 30
0.000000000
 10
320.450105605
 20
190.500000000
 30
0.000000000
 10
321.357403435
 20
190.500000000
 30
0.000000000
 10
322.443846175
 20
190.500000000
 30
0.000000000
 10
323.654955048
 20
190.500000000
 30
0.000000000
 10
324.930000000
 20
190.500000000
 30
0.000000000
 10
326.205044952
 20
190.500000000
 30
0.000000000
 10
327.416153825
 20
190.500000000
 30
0.000000000
 10
328.502596565
 20
190.500000000
 30
0.000000000
 10
329.409894395
 20
190.500000000
 30
0.000000000
 10
330.092551613
 20
190.500000000
 30
0.000000000
 10
330.516336937
 20
190.500000000
 30
0.000000000
 10
330.660000000
 20
190.500000000
 30
0.000000000
  0
LINE
  5
A22
330
A02
100
AcDbEntity
  8
ProjItem
100
AcDbLine
 10
312.000000000
 20
161.700000000
 30
0.000000000
 11
312.000000000
 21
163.700000000
 31
0.000000000
  0
SPLINE
  5
A23
330
A02
100
AcDbEntity
  8
ProjItem
100
AcDbSpline
210
0
220
0
230
1
 70
8
 71
1
 72
17
 73
15
 74
0
 40
3.141592654
 40
3.141592654
 40
3.365992129
 40
3.590391604
 40
3.814791079
 40
4.039190555
 40
4.263590030
 40
4.487989505
 40
4.712388980
 40
4.936788456
 40
5.161187931
 40
5.385587406
 40
5.609986881
 40
5.834386357
 40
6.058785832
 40
6.283185307
 40
6.283185307
 10
282.000000000
 20
161.700000000
 30
0.000000000
 10
282.376081317
 20
161.700000000
 30
0.000000000
 10
283.485466981
 20
161.700000000
 30
0.000000000
 10
285.272527763
 20
161.700000000
 30
0.000000000
 10
287.647652972
 20
161.700000000
 30
0.000000000
 10
290.491743913
 20
161.700000000
 30
0.000000000
 10
293.662185991
 20
161.700000000
 30
0.000000000
 10
297.000000000
 20
161.700000000
 30
0.000000000
 10
300.337814009
 20
161.700000000
 30
0.000000000
 10
303.508256087
 20
161.700000000
 30
0.000000000
 10
306.352347028
 20
161.700000000
 30
0.000000000
 10
308.727472237
 20
161.700000000
 30
0.000000000
 10
310.514533019
 20
161.700000000
 30
0.000000000
 10
311.623918683
 20
161.700000000
 30
0.000000000
 10
312.000000000
 20
161.700000000
 30
0.000000000
  0
LINE
  5
A24
330
A02
100
AcDbEntity
  8
ProjItem
100
AcDbLine
 10
263.000000000
 20
193.700000000
 30
0.000000000
 11
263.000000000
 21
195.300000000
 31
0.000000000
  0
LINE
  5
A25
330
A02
100
AcDbEntity
  8
ProjItem
100
AcDbLine
 10
278.000000000
 20
189.700000000
 30
0.000000000
 11
278.000000000
 21
193.700000000
 31
0.000000000
  0
LINE
  5
A26
330
A02
100
AcDbEntity
  8
ProjItem
100
AcDbLine
 10
319.200000000
 20
190.500000000
 30
0.000000000
 11
319.200000000
 21
192.900000000
 31
0.000000000
  0
LINE
  5
A27
330
A02
100
AcDbEntity
  8
ProjItem
100
AcDbLine
 10
282.000000000
 20
161.700000000
 30
0.000000000
 11
282.000000000
 21
163.700000000
 31
0.000000000
  0
LINE
  5
A28
330
A02
100
AcDbEntity
  8
ProjItem001
100
AcDbLine
 10
265.500000000
 20
67.452487680
 30
0.000000000
 11
265.500000000
 21
93.972487680
 31
0.000000000
  0
LINE
  5
A29
330
A02
100
AcDbEntity
  8
ProjItem001
100
AcDbLine
 10
265.500000000
 20
67.452487680
 30
0.000000000
 11
328.500000000
 21
67.452487680
 31
0.000000000
  0
LINE
  5
A2A
330
A02
100
AcDbEntity
  8
ProjItem001
100
AcDbLine
 10
265.500000000
 20
93.972487680
 30
0.000000000
 11
328.500000000
 21
93.972487680
 31
0.000000000
  0
LINE
  5
A2B
330
A02
100
AcDbEntity
  8
ProjItem001
100
AcDbLine
 10
328.500000000
 20
67.452487680
 30
0.000000000
 11
328.500000000
 21
93.972487680
 31
0.000000000
  0
LINE
  5
A2C
330
A02
100
AcDbEntity
  8
ProjItem001
100
AcDbLine
 10
277.000000000
 20
72.152487680
 30
0.000000000
 11
268.000000000
 21
72.152487680
 31
0.000000000
  0
LINE
  5
A2D
330
A02
100
AcDbEntity
  8
ProjItem001
100
AcDbLine
 10
277.000000000
 20
72.152487680
 30
0.000000000
 11
277.000000000
 21
77.552487680
 31
0.000000000
  0
LINE
  5
A2E
330
A02
100
AcDbEntity
  8
ProjItem001
100
AcDbLine
 10
268.000000000
 20
72.152487680
 30
0.000000000
 11
268.000000000
 21
77.552487680
 31
0.000000000
  0
LINE
  5
A2F
330
A02
100
AcDbEntity
  8
ProjItem001
100
AcDbLine
 10
277.000000000
 20
77.552487680
 30
0.000000000
 11
268.000000000
 21
77.552487680
 31
0.000000000
  0
LINE
  5
A30
330
A02
100
AcDbEntity
  8
ProjItem001
100
AcDbLine
 10
326.000000000
 20
72.152487680
 30
0.000000000
 11
317.000000000
 21
72.152487680
 31
0.000000000
  0
LINE
  5
A31
330
A02
100
AcDbEntity
  8
ProjItem001
100
AcDbLine
 10
326.000000000
 20
72.152487680
 30
0.000000000
 11
326.000000000
 21
77.552487680
 31
0.000000000
  0
LINE
  5
A32
330
A02
100
AcDbEntity
  8
ProjItem001
100
AcDbLine
 10
326.000000000
 20
77.552487680
 30
0.000000000
 11
317.000000000
 21
77.552487680
 31
0.000000000
  0
LINE
  5
A33
330
A02
100
AcDbEntity
  8
ProjItem001
100
AcDbLine
 10
317.000000000
 20
72.152487680
 30
0.000000000
 11
317.000000000
 21
77.552487680
 31
0.000000000
  0
LINE
  5
A34
330
A02
100
AcDbEntity
  8
ProjItem001
100
AcDbLine
 10
268.000000000
 20
72.152487680
 30
0.000000000
 11
277.000000000
 21
72.152487680
 31
0.000000000
  0
LINE
  5
A35
330
A02
100
AcDbEntity
  8
ProjItem001
100
AcDbLine
 10
317.000000000
 20
72.152487680
 30
0.000000000
 11
326.000000000
 21
72.152487680
 31
0.000000000
  0
LINE
  5
A36
330
A02
100
AcDbEntity
  8
ProjItem001
100
AcDbLine
 10
268.000000000
 20
72.152487680
 30
0.000000000
 11
268.000000000
 21
77.152487680
 31
0.000000000
  0
LINE
  5
A37
330
A02
100
AcDbEntity
  8
ProjItem001
100
AcDbLine
 10
268.000000000
 20
77.152487680
 30
0.000000000
 11
268.400000000
 21
77.152487680
 31
0.000000000
  0
LINE
  5
A38
330
A02
100
AcDbEntity
  8
ProjItem001
100
AcDbLine
 10
268.400000000
 20
72.152487680
 30
0.000000000
 11
268.400000000
 21
77.152487680
 31
0.000000000
  0
LINE
  5
A39
330
A02
100
AcDbEntity
  8
ProjItem001
100
AcDbLine
 10
268.800000000
 20
72.152487680
 30
0.000000000
 11
268.800000000
 21
77.152487680
 31
0.000000000
  0
LINE
  5
A3A
330
A02
100
AcDbEntity
  8
ProjItem001
100
AcDbLine
 10
268.800000000
 20
77.152487680
 30
0.000000000
 11
269.200000000
 21
77.152487680
 31
0.000000000
  0
LINE
  5
A3B
330
A02
100
AcDbEntity
  8
ProjItem001
100
AcDbLine
 10
269.200000000
 20
72.152487680
 30
0.000000000
 11
269.200000000
 21
77.152487680
 31
0.000000000
  0
LINE
  5
A3C
330
A02
100
AcDbEntity
  8
ProjItem001
100
AcDbLine
 10
269.600000000
 20
72.152487680
 30
0.000000000
 11
269.600000000
 21
77.152487680
 31
0.000000000
  0
LINE
  5
A3D
330
A02
100
AcDbEntity
  8
ProjItem001
100
AcDbLine
 10
269.600000000
 20
77.152487680
 30
0.000000000
 11
270.000000000
 21
77.152487680
 31
0.000000000
  0
LINE
  5
A3E
330
A02
100
AcDbEntity
  8
ProjItem001
100
AcDbLine
 10
270.000000000
 20
72.152487680
 30
0.000000000
 11
270.000000000
 21
77.152487680
 31
0.000000000
  0
LINE
  5
A3F
330
A02
100
AcDbEntity
  8
ProjItem001
100
AcDbLine
 10
270.400000000
 20
72.152487680
 30
0.000000000
 11
270.400000000
 21
77.152487680
 31
0.000000000
  0
LINE
  5
A40
330
A02
100
AcDbEntity
  8
ProjItem001
100
AcDbLine
 10
270.400000000
 20
77.152487680
 30
0.000000000
 11
270.800000000
 21
77.152487680
 31
0.000000000
  0
LINE
  5
A41
330
A02
100
AcDbEntity
  8
ProjItem001
100
AcDbLine
 10
270.800000000
 20
72.152487680
 30
0.000000000
 11
270.800000000
 21
77.152487680
 31
0.000000000
  0
LINE
  5
A42
330
A02
100
AcDbEntity
  8
ProjItem001
100
AcDbLine
 10
271.200000000
 20
72.152487680
 30
0.000000000
 11
271.200000000
 21
77.152487680
 31
0.000000000
  0
LINE
  5
A43
330
A02
100
AcDbEntity
  8
ProjItem001
100
AcDbLine
 10
271.200000000
 20
77.152487680
 30
0.000000000
 11
271.600000000
 21
77.152487680
 31
0.000000000
  0
LINE
  5
A44
330
A02
100
AcDbEntity
  8
ProjItem001
100
AcDbLine
 10
271.600000000
 20
72.152487680
 30
0.000000000
 11
271.600000000
 21
77.152487680
 31
0.000000000
  0
LINE
  5
A45
330
A02
100
AcDbEntity
  8
ProjItem001
100
AcDbLine
 10
272.000000000
 20
72.152487680
 30
0.000000000
 11
272.000000000
 21
77.152487680
 31
0.000000000
  0
LINE
  5
A46
330
A02
100
AcDbEntity
  8
ProjItem001
100
AcDbLine
 10
272.000000000
 20
77.152487680
 30
0.000000000
 11
272.400000000
 21
77.152487680
 31
0.000000000
  0
LINE
  5
A47
330
A02
100
AcDbEntity
  8
ProjItem001
100
AcDbLine
 10
272.400000000
 20
72.152487680
 30
0.000000000
 11
272.400000000
 21
77.152487680
 31
0.000000000
  0
LINE
  5
A48
330
A02
100
AcDbEntity
  8
ProjItem001
100
AcDbLine
 10
272.800000000
 20
72.152487680
 30
0.000000000
 11
272.800000000
 21
77.152487680
 31
0.000000000
  0
LINE
  5
A49
330
A02
100
AcDbEntity
  8
ProjItem001
100
AcDbLine
 10
272.800000000
 20
77.152487680
 30
0.000000000
 11
273.200000000
 21
77.152487680
 31
0.000000000
  0
LINE
  5
A4A
330
A02
100
AcDbEntity
  8
ProjItem001
100
AcDbLine
 10
273.200000000
 20
72.152487680
 30
0.000000000
 11
273.200000000
 21
77.152487680
 31
0.000000000
  0
LINE
  5
A4B
330
A02
100
AcDbEntity
  8
ProjItem001
100
AcDbLine
 10
273.600000000
 20
72.152487680
 30
0.000000000
 11
273.600000000
 21
77.152487680
 31
0.000000000
  0
LINE
  5
A4C
330
A02
100
AcDbEntity
  8
ProjItem001
100
AcDbLine
 10
273.600000000
 20
77.152487680
 30
0.000000000
 11
274.000000000
 21
77.152487680
 31
0.000000000
  0
LINE
  5
A4D
330
A02
100
AcDbEntity
  8
ProjItem001
100
AcDbLine
 10
274.000000000
 20
72.152487680
 30
0.000000000
 11
274.000000000
 21
77.152487680
 31
0.000000000
  0
LINE
  5
A4E
330
A02
100
AcDbEntity
  8
ProjItem001
100
AcDbLine
 10
274.400000000
 20
72.152487680
 30
0.000000000
 11
274.400000000
 21
77.152487680
 31
0.000000000
  0
LINE
  5
A4F
330
A02
100
AcDbEntity
  8
ProjItem001
100
AcDbLine
 10
274.400000000
 20
77.152487680
 30
0.000000000
 11
274.800000000
 21
77.152487680
 31
0.000000000
  0
LINE
  5
A50
330
A02
100
AcDbEntity
  8
ProjItem001
100
AcDbLine
 10
274.800000000
 20
72.152487680
 30
0.000000000
 11
274.800000000
 21
77.152487680
 31
0.000000000
  0
LINE
  5
A51
330
A02
100
AcDbEntity
  8
ProjItem001
100
AcDbLine
 10
275.200000000
 20
72.152487680
 30
0.000000000
 11
275.200000000
 21
77.152487680
 31
0.000000000
  0
LINE
  5
A52
330
A02
100
AcDbEntity
  8
ProjItem001
100
AcDbLine
 10
275.200000000
 20
77.152487680
 30
0.000000000
 11
275.600000000
 21
77.152487680
 31
0.000000000
  0
LINE
  5
A53
330
A02
100
AcDbEntity
  8
ProjItem001
100
AcDbLine
 10
275.600000000
 20
72.152487680
 30
0.000000000
 11
275.600000000
 21
77.152487680
 31
0.000000000
  0
LINE
  5
A54
330
A02
100
AcDbEntity
  8
ProjItem001
100
AcDbLine
 10
276.000000000
 20
72.152487680
 30
0.000000000
 11
276.000000000
 21
77.152487680
 31
0.000000000
  0
LINE
  5
A55
330
A02
100
AcDbEntity
  8
ProjItem001
100
AcDbLine
 10
276.000000000
 20
77.152487680
 30
0.000000000
 11
276.400000000
 21
77.152487680
 31
0.000000000
  0
LINE
  5
A56
330
A02
100
AcDbEntity
  8
ProjItem001
100
AcDbLine
 10
276.400000000
 20
72.152487680
 30
0.000000000
 11
276.400000000
 21
77.152487680
 31
0.000000000
  0
LINE
  5
A57
330
A02
100
AcDbEntity
  8
ProjItem001
100
AcDbLine
 10
276.800000000
 20
72.152487680
 30
0.000000000
 11
276.800000000
 21
77.152487680
 31
0.000000000
  0
LINE
  5
A58
330
A02
100
AcDbEntity
  8
ProjItem001
100
AcDbLine
 10
276.800000000
 20
77.152487680
 30
0.000000000
 11
277.000000000
 21
77.152487680
 31
0.000000000
  0
LINE
  5
A59
330
A02
100
AcDbEntity
  8
ProjItem001
100
AcDbLine
 10
317.000000000
 20
72.152487680
 30
0.000000000
 11
317.000000000
 21
77.152487680
 31
0.000000000
  0
LINE
  5
A5A
330
A02
100
AcDbEntity
  8
ProjItem001
100
AcDbLine
 10
317.000000000
 20
77.152487680
 30
0.000000000
 11
317.400000000
 21
77.152487680
 31
0.000000000
  0
LINE
  5
A5B
330
A02
100
AcDbEntity
  8
ProjItem001
100
AcDbLine
 10
317.400000000
 20
72.152487680
 30
0.000000000
 11
317.400000000
 21
77.152487680
 31
0.000000000
  0
LINE
  5
A5C
330
A02
100
AcDbEntity
  8
ProjItem001
100
AcDbLine
 10
317.800000000
 20
72.152487680
 30
0.000000000
 11
317.800000000
 21
77.152487680
 31
0.000000000
  0
LINE
  5
A5D
330
A02
100
AcDbEntity
  8
ProjItem001
100
AcDbLine
 10
317.800000000
 20
77.152487680
 30
0.000000000
 11
318.200000000
 21
77.152487680
 31
0.000000000
  0
LINE
  5
A5E
330
A02
100
AcDbEntity
  8
ProjItem001
100
AcDbLine
 10
318.200000000
 20
72.152487680
 30
0.000000000
 11
318.200000000
 21
77.152487680
 31
0.000000000
  0
LINE
  5
A5F
330
A02
100
AcDbEntity
  8
ProjItem001
100
AcDbLine
 10
318.600000000
 20
72.152487680
 30
0.000000000
 11
318.600000000
 21
77.152487680
 31
0.000000000
  0
LINE
  5
A60
330
A02
100
AcDbEntity
  8
ProjItem001
100
AcDbLine
 10
318.600000000
 20
77.152487680
 30
0.000000000
 11
319.000000000
 21
77.152487680
 31
0.000000000
  0
LINE
  5
A61
330
A02
100
AcDbEntity
  8
ProjItem001
100
AcDbLine
 10
319.000000000
 20
72.152487680
 30
0.000000000
 11
319.000000000
 21
77.152487680
 31
0.000000000
  0
LINE
  5
A62
330
A02
100
AcDbEntity
  8
ProjItem001
100
AcDbLine
 10
319.400000000
 20
72.152487680
 30
0.000000000
 11
319.400000000
 21
77.152487680
 31
0.000000000
  0
LINE
  5
A63
330
A02
100
AcDbEntity
  8
ProjItem001
100
AcDbLine
 10
319.400000000
 20
77.152487680
 30
0.000000000
 11
319.800000000
 21
77.152487680
 31
0.000000000
  0
LINE
  5
A64
330
A02
100
AcDbEntity
  8
ProjItem001
100
AcDbLine
 10
319.800000000
 20
72.152487680
 30
0.000000000
 11
319.800000000
 21
77.152487680
 31
0.000000000
  0
LINE
  5
A65
330
A02
100
AcDbEntity
  8
ProjItem001
100
AcDbLine
 10
320.200000000
 20
72.152487680
 30
0.000000000
 11
320.200000000
 21
77.152487680
 31
0.000000000
  0
LINE
  5
A66
330
A02
100
AcDbEntity
  8
ProjItem001
100
AcDbLine
 10
320.200000000
 20
77.152487680
 30
0.000000000
 11
320.600000000
 21
77.152487680
 31
0.000000000
  0
LINE
  5
A67
330
A02
100
AcDbEntity
  8
ProjItem001
100
AcDbLine
 10
320.600000000
 20
72.152487680
 30
0.000000000
 11
320.600000000
 21
77.152487680
 31
0.000000000
  0
LINE
  5
A68
330
A02
100
AcDbEntity
  8
ProjItem001
100
AcDbLine
 10
321.000000000
 20
72.152487680
 30
0.000000000
 11
321.000000000
 21
77.152487680
 31
0.000000000
  0
LINE
  5
A69
330
A02
100
AcDbEntity
  8
ProjItem001
100
AcDbLine
 10
321.000000000
 20
77.152487680
 30
0.000000000
 11
321.400000000
 21
77.152487680
 31
0.000000000
  0
LINE
  5
A6A
330
A02
100
AcDbEntity
  8
ProjItem001
100
AcDbLine
 10
321.400000000
 20
72.152487680
 30
0.000000000
 11
321.400000000
 21
77.152487680
 31
0.000000000
  0
LINE
  5
A6B
330
A02
100
AcDbEntity
  8
ProjItem001
100
AcDbLine
 10
321.800000000
 20
72.152487680
 30
0.000000000
 11
321.800000000
 21
77.152487680
 31
0.000000000
  0
LINE
  5
A6C
330
A02
100
AcDbEntity
  8
ProjItem001
100
AcDbLine
 10
321.800000000
 20
77.152487680
 30
0.000000000
 11
322.200000000
 21
77.152487680
 31
0.000000000
  0
LINE
  5
A6D
330
A02
100
AcDbEntity
  8
ProjItem001
100
AcDbLine
 10
322.200000000
 20
72.152487680
 30
0.000000000
 11
322.200000000
 21
77.152487680
 31
0.000000000
  0
LINE
  5
A6E
330
A02
100
AcDbEntity
  8
ProjItem001
100
AcDbLine
 10
322.600000000
 20
72.152487680
 30
0.000000000
 11
322.600000000
 21
77.152487680
 31
0.000000000
  0
LINE
  5
A6F
330
A02
100
AcDbEntity
  8
ProjItem001
100
AcDbLine
 10
322.600000000
 20
77.152487680
 30
0.000000000
 11
323.000000000
 21
77.152487680
 31
0.000000000
  0
LINE
  5
A70
330
A02
100
AcDbEntity
  8
ProjItem001
100
AcDbLine
 10
323.000000000
 20
72.152487680
 30
0.000000000
 11
323.000000000
 21
77.152487680
 31
0.000000000
  0
LINE
  5
A71
330
A02
100
AcDbEntity
  8
ProjItem001
100
AcDbLine
 10
323.400000000
 20
72.152487680
 30
0.000000000
 11
323.400000000
 21
77.152487680
 31
0.000000000
  0
LINE
  5
A72
330
A02
100
AcDbEntity
  8
ProjItem001
100
AcDbLine
 10
323.400000000
 20
77.152487680
 30
0.000000000
 11
323.800000000
 21
77.152487680
 31
0.000000000
  0
LINE
  5
A73
330
A02
100
AcDbEntity
  8
ProjItem001
100
AcDbLine
 10
323.800000000
 20
72.152487680
 30
0.000000000
 11
323.800000000
 21
77.152487680
 31
0.000000000
  0
LINE
  5
A74
330
A02
100
AcDbEntity
  8
ProjItem001
100
AcDbLine
 10
324.200000000
 20
72.152487680
 30
0.000000000
 11
324.200000000
 21
77.152487680
 31
0.000000000
  0
LINE
  5
A75
330
A02
100
AcDbEntity
  8
ProjItem001
100
AcDbLine
 10
324.200000000
 20
77.152487680
 30
0.000000000
 11
324.600000000
 21
77.152487680
 31
0.000000000
  0
LINE
  5
A76
330
A02
100
AcDbEntity
  8
ProjItem001
100
AcDbLine
 10
324.600000000
 20
72.152487680
 30
0.000000000
 11
324.600000000
 21
77.152487680
 31
0.000000000
  0
LINE
  5
A77
330
A02
100
AcDbEntity
  8
ProjItem001
100
AcDbLine
 10
325.000000000
 20
72.152487680
 30
0.000000000
 11
325.000000000
 21
77.152487680
 31
0.000000000
  0
LINE
  5
A78
330
A02
100
AcDbEntity
  8
ProjItem001
100
AcDbLine
 10
325.000000000
 20
77.152487680
 30
0.000000000
 11
325.400000000
 21
77.152487680
 31
0.000000000
  0
LINE
  5
A79
330
A02
100
AcDbEntity
  8
ProjItem001
100
AcDbLine
 10
325.400000000
 20
72.152487680
 30
0.000000000
 11
325.400000000
 21
77.152487680
 31
0.000000000
  0
LINE
  5
A7A
330
A02
100
AcDbEntity
  8
ProjItem001
100
AcDbLine
 10
325.800000000
 20
72.152487680
 30
0.000000000
 11
325.800000000
 21
77.152487680
 31
0.000000000
  0
LINE
  5
A7B
330
A02
100
AcDbEntity
  8
ProjItem001
100
AcDbLine
 10
325.800000000
 20
77.152487680
 30
0.000000000
 11
326.000000000
 21
77.152487680
 31
0.000000000
  0
LINE
  5
A7C
330
A02
100
AcDbEntity
  8
ProjItem001
100
AcDbLine
 10
268.000000000
 20
77.552487680
 30
0.000000000
 11
277.000000000
 21
77.552487680
 31
0.000000000
  0
LINE
  5
A7D
330
A02
100
AcDbEntity
  8
ProjItem001
100
AcDbLine
 10
317.000000000
 20
77.552487680
 30
0.000000000
 11
326.000000000
 21
77.552487680
 31
0.000000000
  0
ARC
  5
A7E
330
A02
100
AcDbEntity
  8
ProjItem001
100
AcDbCircle
 10
297.000000000
 20
85.152487680
 30
0.000000000
 40
34.000000000
100
AcDbArc
 50
0.000000000
 51
-157.891162275
  0
ARC
  5
A7F
330
A02
100
AcDbEntity
  8
ProjItem001
100
AcDbCircle
 10
297.000000000
 20
85.152487680
 30
0.000000000
 40
34.000000000
100
AcDbArc
 50
-148.628282567
 51
-31.371717433
  0
ARC
  5
A80
330
A02
100
AcDbEntity
  8
ProjItem001
100
AcDbCircle
 10
297.000000000
 20
85.152487680
 30
0.000000000
 40
34.000000000
100
AcDbArc
 50
-22.108837725
 51
-0.000000000
  0
ARC
  5
A81
330
A02
100
AcDbEntity
  8
ProjItem001
100
AcDbCircle
 10
297.000000000
 20
85.152487680
 30
0.000000000
 40
9.900000000
100
AcDbArc
 50
62.987706041
 51
117.012293959
  0
LINE
  5
A82
330
A02
100
AcDbEntity
  8
ProjItem001
100
AcDbLine
 10
261.000000000
 20
49.152487680
 30
0.000000000
 11
261.000000000
 21
121.152487680
 31
0.000000000
  0
LINE
  5
A83
330
A02
100
AcDbEntity
  8
ProjItem001
100
AcDbLine
 10
261.000000000
 20
49.152487680
 30
0.000000000
 11
333.000000000
 21
49.152487680
 31
0.000000000
  0
LINE
  5
A84
330
A02
100
AcDbEntity
  8
ProjItem001
100
AcDbLine
 10
261.000000000
 20
121.152487680
 30
0.000000000
 11
333.000000000
 21
121.152487680
 31
0.000000000
  0
LINE
  5
A85
330
A02
100
AcDbEntity
  8
ProjItem001
100
AcDbLine
 10
333.000000000
 20
49.152487680
 30
0.000000000
 11
333.000000000
 21
121.152487680
 31
0.000000000
  0
LINE
  5
A86
330
A02
100
AcDbEntity
  8
ProjItem002
100
AcDbLine
 10
177.388311755
 20
195.300000000
 30
0.000000000
 11
177.388311755
 21
257.800000000
 31
0.000000000
  0
LINE
  5
A87
330
A02
100
AcDbEntity
  8
ProjItem002
100
AcDbLine
 10
177.388311755
 20
257.800000000
 30
0.000000000
 11
203.908311755
 21
257.800000000
 31
0.000000000
  0
LINE
  5
A88
330
A02
100
AcDbEntity
  8
ProjItem002
100
AcDbLine
 10
203.908311755
 20
195.300000000
 30
0.000000000
 11
203.908311755
 21
257.800000000
 31
0.000000000
  0
LINE
  5
A89
330
A02
100
AcDbEntity
  8
ProjItem002
100
AcDbLine
 10
177.388311755
 20
257.800000000
 30
0.000000000
 11
177.388311755
 21
258.300000000
 31
0.000000000
  0
LINE
  5
A8A
330
A02
100
AcDbEntity
  8
ProjItem002
100
AcDbLine
 10
177.388311755
 20
258.300000000
 30
0.000000000
 11
203.908311755
 21
258.300000000
 31
0.000000000
  0
LINE
  5
A8B
330
A02
100
AcDbEntity
  8
ProjItem002
100
AcDbLine
 10
203.908311755
 20
257.800000000
 30
0.000000000
 11
203.908311755
 21
258.300000000
 31
0.000000000
  0
LINE
  5
A8C
330
A02
100
AcDbEntity
  8
ProjItem002
100
AcDbLine
 10
177.388311755
 20
257.800000000
 30
0.000000000
 11
203.908311755
 21
257.800000000
 31
0.000000000
  0
SPLINE
  5
A8D
330
A02
100
AcDbEntity
  8
ProjItem002
100
AcDbSpline
210
0
220
0
230
1
 70
8
 71
1
 72
17
 73
15
 74
0
 40
0.000000000
 40
0.000000000
 40
0.112199738
 40
0.224399475
 40
0.336599213
 40
0.448798951
 40
0.560998688
 40
0.673198426
 40
0.785398163
 40
0.897597901
 40
1.009797639
 40
1.121997376
 40
1.234197114
 40
1.346396852
 40
1.458596589
 40
1.570796327
 40
1.570796327
 10
195.088311755
 20
195.300000000
 30
0.000000000
 10
198.895103942
 20
195.300000000
 30
0.000000000
 10
202.654023509
 20
195.300000000
 30
0.000000000
 10
206.317799861
 20
195.300000000
 30
0.000000000
 10
209.840358885
 20
195.300000000
 30
0.000000000
 10
213.177402356
 20
195.300000000
 30
0.000000000
 10
216.286965018
 20
195.300000000
 30
0.000000000
 10
219.129942315
 20
195.300000000
 30
0.000000000
 10
221.670582158
 20
195.300000000
 30
0.000000000
 10
223.876934528
 20
195.300000000
 30
0.000000000
 10
225.721253263
 20
195.300000000
 30
0.000000000
 10
227.180344985
 20
195.300000000
 30
0.000000000
 10
228.235860769
 20
195.300000000
 30
0.000000000
 10
228.874526891
 20
195.300000000
 30
0.000000000
 10
229.088311755
 20
195.300000000
 30
0.000000000
  0
SPLINE
  5
A8E
330
A02
100
AcDbEntity
  8
ProjItem002
100
AcDbSpline
210
0
220
0
230
1
 70
8
 71
1
 72
17
 73
15
 74
0
 40
4.712388980
 40
4.712388980
 40
4.824588718
 40
4.936788456
 40
5.048988193
 40
5.161187931
 40
5.273387669
 40
5.385587406
 40
5.497787144
 40
5.609986881
 40
5.722186619
 40
5.834386357
 40
5.946586094
 40
6.058785832
 40
6.170985570
 40
6.283185307
 40
6.283185307
 10
161.088311755
 20
195.300000000
 30
0.000000000
 10
161.302096618
 20
195.300000000
 30
0.000000000
 10
161.940762740
 20
195.300000000
 30
0.000000000
 10
162.996278524
 20
195.300000000
 30
0.000000000
 10
164.455370246
 20
195.300000000
 30
0.000000000
 10
166.299688981
 20
195.300000000
 30
0.000000000
 10
168.506041351
 20
195.300000000
 30
0.000000000
 10
171.046681194
 20
195.300000000
 30
0.000000000
 10
173.889658491
 20
195.300000000
 30
0.000000000
 10
176.999221153
 20
195.300000000
 30
0.000000000
 10
180.336264625
 20
195.300000000
 30
0.000000000
 10
183.858823648
 20
195.300000000
 30
0.000000000
 10
187.522600000
 20
195.300000000
 30
0.000000000
 10
191.281519567
 20
195.300000000
 30
0.000000000
 10
195.088311755
 20
195.300000000
 30
0.000000000
  0
SPLINE
  5
A8F
330
A02
100
AcDbEntity
  8
ProjItem002
100
AcDbSpline
210
0
220
0
230
1
 70
8
 71
1
 72
17
 73
15
 74
0
 40
0.000000000
 40
0.000000000
 40
0.112199738
 40
0.224399475
 40
0.336599213
 40
0.448798951
 40
0.560998688
 40
0.673198426
 40
0.785398163
 40
0.897597901
 40
1.009797639
 40
1.121997376
 40
1.234197114
 40
1.346396852
 40
1.458596589
 40
1.570796327
 40
1.570796327
 10
195.088311755
 20
193.700000000
 30
0.000000000
 10
198.895103942
 20
193.700000000
 30
0.000000000
 10
202.654023509
 20
193.700000000
 30
0.000000000
 10
206.317799861
 20
193.700000000
 30
0.000000000
 10
209.840358885
 20
193.700000000
 30
0.000000000
 10
213.177402356
 20
193.700000000
 30
0.000000000
 10
216.286965018
 20
193.700000000
 30
0.000000000
 10
219.129942315
 20
193.700000000
 30
0.000000000
 10
221.670582158
 20
193.700000000
 30
0.000000000
 10
223.876934528
 20
193.700000000
 30
0.000000000
 10
225.721253263
 20
193.700000000
 30
0.000000000
 10
227.180344985
 20
193.700000000
 30
0.000000000
 10
228.235860769
 20
193.700000000
 30
0.000000000
 10
228.874526891
 20
193.700000000
 30
0.000000000
 10
229.088311755
 20
193.700000000
 30
0.000000000
  0
SPLINE
  5
A90
330
A02
100
AcDbEntity
  8
ProjItem002
100
AcDbSpline
210
0
220
0
230
1
 70
8
 71
1
 72
17
 73
15
 74
0
 40
4.712388980
 40
4.712388980
 40
4.824588718
 40
4.936788456
 40
5.048988193
 40
5.161187931
 40
5.273387669
 40
5.385587406
 40
5.497787144
 40
5.609986881
 40
5.722186619
 40
5.834386357
 40
5.946586094
 40
6.058785832
 40
6.170985570
 40
6.283185307
 40
6.283185307
 10
161.088311755
 20
193.700000000
 30
0.000000000
 10
161.302096618
 20
193.700000000
 30
0.000000000
 10
161.940762740
 20
193.700000000
 30
0.000000000
 10
162.996278524
 20
193.700000000
 30
0.000000000
 10
164.455370246
 20
193.700000000
 30
0.000000000
 10
166.299688981
 20
193.700000000
 30
0.000000000
 10
168.506041351
 20
193.700000000
 30
0.000000000
 10
171.046681194
 20
193.700000000
 30
0.000000000
 10
173.889658491
 20
193.700000000
 30
0.000000000
 10
176.999221153
 20
193.700000000
 30
0.000000000
 10
180.336264625
 20
193.700000000
 30
0.000000000
 10
183.858823648
 20
193.700000000
 30
0.000000000
 10
187.522600000
 20
193.700000000
 30
0.000000000
 10
191.281519567
 20
193.700000000
 30
0.000000000
 10
195.088311755
 20
193.700000000
 30
0.000000000
  0
SPLINE
  5
A91
330
A02
100
AcDbEntity
  8
ProjItem002
100
AcDbSpline
210
0
220
0
230
1
 70
8
 71
1
 72
17
 73
15
 74
0
 40
1.099342859
 40
1.099342859
 40
1.133018106
 40
1.166693354
 40
1.200368602
 40
1.234043850
 40
1.267719097
 40
1.301394345
 40
1.335069593
 40
1.368744840
 40
1.402420088
 40
1.436095336
 40
1.469770584
 40
1.503445831
 40
1.537121079
 40
1.570796327
 40
1.570796327
 10
203.908311755
 20
195.700000000
 30
0.000000000
 10
204.054699907
 20
195.700000000
 30
0.000000000
 10
204.190920937
 20
195.700000000
 30
0.000000000
 10
204.316820380
 20
195.700000000
 30
0.000000000
 10
204.432255477
 20
195.700000000
 30
0.000000000
 10
204.537095335
 20
195.700000000
 30
0.000000000
 10
204.631221074
 20
195.700000000
 30
0.000000000
 10
204.714525964
 20
195.700000000
 30
0.000000000
 10
204.786915543
 20
195.700000000
 30
0.000000000
 10
204.848307729
 20
195.700000000
 30
0.000000000
 10
204.898632908
 20
195.700000000
 30
0.000000000
 10
204.937834015
 20
195.700000000
 30
0.000000000
 10
204.965866599
 20
195.700000000
 30
0.000000000
 10
204.982698875
 20
195.700000000
 30
0.000000000
 10
204.988311755
 20
195.700000000
 30
0.000000000
  0
LINE
  5
A92
330
A02
100
AcDbEntity
  8
ProjItem002
100
AcDbLine
 10
159.088311755
 20
163.700000000
 30
0.000000000
 11
159.088311755
 21
189.700000000
 31
0.000000000
  0
LINE
  5
A93
330
A02
100
AcDbEntity
  8
ProjItem002
100
AcDbLine
 10
159.088311755
 20
189.700000000
 30
0.000000000
 11
231.088311755
 21
189.700000000
 31
0.000000000
  0
LINE
  5
A94
330
A02
100
AcDbEntity
  8
ProjItem002
100
AcDbLine
 10
231.088311755
 20
163.700000000
 30
0.000000000
 11
231.088311755
 21
189.700000000
 31
0.000000000
  0
LINE
  5
A95
330
A02
100
AcDbEntity
  8
ProjItem002
100
AcDbLine
 10
159.088311755
 20
163.700000000
 30
0.000000000
 11
231.088311755
 21
163.700000000
 31
0.000000000
  0
SPLINE
  5
A96
330
A02
100
AcDbEntity
  8
ProjItem002
100
AcDbSpline
210
0
220
0
230
1
 70
8
 71
1
 72
17
 73
15
 74
0
 40
0.000000000
 40
0.000000000
 40
0.112199738
 40
0.224399475
 40
0.336599213
 40
0.448798951
 40
0.560998688
 40
0.673198426
 40
0.785398163
 40
0.897597901
 40
1.009797639
 40
1.121997376
 40
1.234197114
 40
1.346396852
 40
1.458596589
 40
1.570796327
 40
1.570796327
 10
195.088311755
 20
192.900000000
 30
0.000000000
 10
195.729868203
 20
192.900000000
 30
0.000000000
 10
196.363356706
 20
192.900000000
 30
0.000000000
 10
196.980810780
 20
192.900000000
 30
0.000000000
 10
197.574465580
 20
192.900000000
 30
0.000000000
 10
198.136855553
 20
192.900000000
 30
0.000000000
 10
198.660908319
 20
192.900000000
 30
0.000000000
 10
199.140033611
 20
192.900000000
 30
0.000000000
 10
199.568206149
 20
192.900000000
 30
0.000000000
 10
199.940041416
 20
192.900000000
 30
0.000000000
 10
200.250863368
 20
192.900000000
 30
0.000000000
 10
200.496763237
 20
192.900000000
 30
0.000000000
 10
200.674648691
 20
192.900000000
 30
0.000000000
 10
200.782282717
 20
192.900000000
 30
0.000000000
 10
200.818311755
 20
192.900000000
 30
0.000000000
  0
SPLINE
  5
A97
330
A02
100
AcDbEntity
  8
ProjItem002
100
AcDbSpline
210
0
220
0
230
1
 70
8
 71
1
 72
17
 73
15
 74
0
 40
4.712388980
 40
4.712388980
 40
4.824588718
 40
4.936788456
 40
5.048988193
 40
5.161187931
 40
5.273387669
 40
5.385587406
 40
5.497787144
 40
5.609986881
 40
5.722186619
 40
5.834386357
 40
5.946586094
 40
6.058785832
 40
6.170985570
 40
6.283185307
 40
6.283185307
 10
189.358311755
 20
192.900000000
 30
0.000000000
 10
189.394340792
 20
192.900000000
 30
0.000000000
 10
189.501974818
 20
192.900000000
 30
0.000000000
 10
189.679860272
 20
192.900000000
 30
0.000000000
 10
189.925760141
 20
192.900000000
 30
0.000000000
 10
190.236582093
 20
192.900000000
 30
0.000000000
 10
190.608417360
 20
192.900000000
 30
0.000000000
 10
191.036589898
 20
192.900000000
 30
0.000000000
 10
191.515715190
 20
192.900000000
 30
0.000000000
 10
192.039767956
 20
192.900000000
 30
0.000000000
 10
192.602157929
 20
192.900000000
 30
0.000000000
 10
193.195812730
 20
192.900000000
 30
0.000000000
 10
193.813266803
 20
192.900000000
 30
0.000000000
 10
194.446755306
 20
192.900000000
 30
0.000000000
 10
195.088311755
 20
192.900000000
 30
0.000000000
  0
SPLINE
  5
A98
330
A02
100
AcDbEntity
  8
ProjItem002
100
AcDbSpline
210
0
220
0
230
1
 70
8
 71
1
 72
17
 73
15
 74
0
 40
0.000000000
 40
0.000000000
 40
0.112199738
 40
0.224399475
 40
0.336599213
 40
0.448798951
 40
0.560998688
 40
0.673198426
 40
0.785398163
 40
0.897597901
 40
1.009797639
 40
1.121997376
 40
1.234197114
 40
1.346396852
 40
1.458596589
 40
1.570796327
 40
1.570796327
 10
195.088311755
 20
190.500000000
 30
0.000000000
 10
195.729868203
 20
190.500000000
 30
0.000000000
 10
196.363356706
 20
190.500000000
 30
0.000000000
 10
196.980810780
 20
190.500000000
 30
0.000000000
 10
197.574465580
 20
190.500000000
 30
0.000000000
 10
198.136855553
 20
190.500000000
 30
0.000000000
 10
198.660908319
 20
190.500000000
 30
0.000000000
 10
199.140033611
 20
190.500000000
 30
0.000000000
 10
199.568206149
 20
190.500000000
 30
0.000000000
 10
199.940041416
 20
190.500000000
 30
0.000000000
 10
200.250863368
 20
190.500000000
 30
0.000000000
 10
200.496763237
 20
190.500000000
 30
0.000000000
 10
200.674648691
 20
190.500000000
 30
0.000000000
 10
200.782282717
 20
190.500000000
 30
0.000000000
 10
200.818311755
 20
190.500000000
 30
0.000000000
  0
SPLINE
  5
A99
330
A02
100
AcDbEntity
  8
ProjItem002
100
AcDbSpline
210
0
220
0
230
1
 70
8
 71
1
 72
17
 73
15
 74
0
 40
4.712388980
 40
4.712388980
 40
4.824588718
 40
4.936788456
 40
5.048988193
 40
5.161187931
 40
5.273387669
 40
5.385587406
 40
5.497787144
 40
5.609986881
 40
5.722186619
 40
5.834386357
 40
5.946586094
 40
6.058785832
 40
6.170985570
 40
6.283185307
 40
6.283185307
 10
189.358311755
 20
190.500000000
 30
0.000000000
 10
189.394340792
 20
190.500000000
 30
0.000000000
 10
189.501974818
 20
190.500000000
 30
0.000000000
 10
189.679860272
 20
190.500000000
 30
0.000000000
 10
189.925760141
 20
190.500000000
 30
0.000000000
 10
190.236582093
 20
190.500000000
 30
0.000000000
 10
190.608417360
 20
190.500000000
 30
0.000000000
 10
191.036589898
 20
190.500000000
 30
0.000000000
 10
191.515715190
 20
190.500000000
 30
0.000000000
 10
192.039767956
 20
190.500000000
 30
0.000000000
 10
192.602157929
 20
190.500000000
 30
0.000000000
 10
193.195812730
 20
190.500000000
 30
0.000000000
 10
193.813266803
 20
190.500000000
 30
0.000000000
 10
194.446755306
 20
190.500000000
 30
0.000000000
 10
195.088311755
 20
190.500000000
 30
0.000000000
  0
SPLINE
  5
A9A
330
A02
100
AcDbEntity
  8
ProjItem002
100
AcDbSpline
210
0
220
0
230
1
 70
8
 71
1
 72
17
 73
15
 74
0
 40
0.000000000
 40
0.000000000
 40
0.112199738
 40
0.224399475
 40
0.336599213
 40
0.448798951
 40
0.560998688
 40
0.673198426
 40
0.785398163
 40
0.897597901
 40
1.009797639
 40
1.121997376
 40
1.234197114
 40
1.346396852
 40
1.458596589
 40
1.570796327
 40
1.570796327
 10
195.088311755
 20
161.700000000
 30
0.000000000
 10
196.767778896
 20
161.700000000
 30
0.000000000
 10
198.426125764
 20
161.700000000
 30
0.000000000
 10
200.042497684
 20
161.700000000
 30
0.000000000
 10
201.596567841
 20
161.700000000
 30
0.000000000
 10
203.068792902
 20
161.700000000
 30
0.000000000
 10
204.440658782
 20
161.700000000
 30
0.000000000
 10
205.694913472
 20
161.700000000
 30
0.000000000
 10
206.815783992
 20
161.700000000
 30
0.000000000
 10
207.789174743
 20
161.700000000
 30
0.000000000
 10
208.602844773
 20
161.700000000
 30
0.000000000
 10
209.246561709
 20
161.700000000
 30
0.000000000
 10
209.712230437
 20
161.700000000
 30
0.000000000
 10
209.993994903
 20
161.700000000
 30
0.000000000
 10
210.088311755
 20
161.700000000
 30
0.000000000
  0
SPLINE
  5
A9B
330
A02
100
AcDbEntity
  8
ProjItem002
100
AcDbSpline
210
0
220
0
230
1
 70
8
 71
1
 72
17
 73
15
 74
0
 40
4.712388980
 40
4.712388980
 40
4.824588718
 40
4.936788456
 40
5.048988193
 40
5.161187931
 40
5.273387669
 40
5.385587406
 40
5.497787144
 40
5.609986881
 40
5.722186619
 40
5.834386357
 40
5.946586094
 40
6.058785832
 40
6.170985570
 40
6.283185307
 40
6.283185307
 10
180.088311755
 20
161.700000000
 30
0.000000000
 10
180.182628606
 20
161.700000000
 30
0.000000000
 10
180.464393072
 20
161.700000000
 30
0.000000000
 10
180.930061800
 20
161.700000000
 30
0.000000000
 10
181.573778736
 20
161.700000000
 30
0.000000000
 10
182.387448766
 20
161.700000000
 30
0.000000000
 10
183.360839518
 20
161.700000000
 30
0.000000000
 10
184.481710037
 20
161.700000000
 30
0.000000000
 10
185.735964727
 20
161.700000000
 30
0.000000000
 10
187.107830607
 20
161.700000000
 30
0.000000000
 10
188.580055668
 20
161.700000000
 30
0.000000000
 10
190.134125825
 20
161.700000000
 30
0.000000000
 10
191.750497745
 20
161.700000000
 30
0.000000000
 10
193.408844613
 20
161.700000000
 30
0.000000000
 10
195.088311755
 20
161.700000000
 30
0.000000000
  0
LINE
  5
A9C
330
A02
100
AcDbEntity
  8
ProjItem002
100
AcDbLine
 10
229.088311755
 20
193.700000000
 30
0.000000000
 11
229.088311755
 21
195.300000000
 31
0.000000000
  0
LINE
  5
A9D
330
A02
100
AcDbEntity
  8
ProjItem002
100
AcDbLine
 10
161.088311755
 20
193.700000000
 30
0.000000000
 11
161.088311755
 21
195.300000000
 31
0.000000000
  0
LINE
  5
A9E
330
A02
100
AcDbEntity
  8
ProjItem002
100
AcDbLine
 10
214.088311755
 20
189.700000000
 30
0.000000000
 11
214.088311755
 21
193.700000000
 31
0.000000000
  0
LINE
  5
A9F
330
A02
100
AcDbEntity
  8
ProjItem002
100
AcDbLine
 10
176.088311755
 20
189.700000000
 30
0.000000000
 11
176.088311755
 21
193.700000000
 31
0.000000000
  0
LINE
  5
AA0
330
A02
100
AcDbEntity
  8
ProjItem002
100
AcDbLine
 10
204.988311755
 20
195.300000000
 30
0.000000000
 11
204.988311755
 21
195.700000000
 31
0.000000000
  0
LINE
  5
AA1
330
A02
100
AcDbEntity
  8
ProjItem002
100
AcDbLine
 10
200.818311755
 20
190.500000000
 30
0.000000000
 11
200.818311755
 21
192.900000000
 31
0.000000000
  0
LINE
  5
AA2
330
A02
100
AcDbEntity
  8
ProjItem002
100
AcDbLine
 10
189.358311755
 20
190.500000000
 30
0.000000000
 11
189.358311755
 21
192.900000000
 31
0.000000000
  0
LINE
  5
AA3
330
A02
100
AcDbEntity
  8
ProjItem002
100
AcDbLine
 10
210.088311755
 20
161.700000000
 30
0.000000000
 11
210.088311755
 21
163.700000000
 31
0.000000000
  0
LINE
  5
AA4
330
A02
100
AcDbEntity
  8
ProjItem002
100
AcDbLine
 10
180.088311755
 20
161.700000000
 30
0.000000000
 11
180.088311755
 21
163.700000000
 31
0.000000000
  0
LINE
  5
AA5
330
A02
100
AcDbEntity
  8
ProjItem003
100
AcDbLine
 10
160.298658120
 20
84.433970688
 30
0.000000000
 11
160.298658120
 21
135.465006996
 31
0.000000000
  0
LINE
  5
AA6
330
A02
100
AcDbEntity
  8
ProjItem003
100
AcDbLine
 10
160.298658120
 20
84.433970688
 30
0.000000000
 11
204.846385335
 21
58.714328389
 31
0.000000000
  0
LINE
  5
AA7
330
A02
100
AcDbEntity
  8
ProjItem003
100
AcDbLine
 10
204.846385335
 20
58.714328389
 30
0.000000000
 11
204.846385335
 21
109.745364697
 31
0.000000000
  0
LINE
  5
AA8
330
A02
100
AcDbEntity
  8
ProjItem003
100
AcDbLine
 10
160.298658120
 20
135.465006996
 30
0.000000000
 11
204.846385335
 21
109.745364697
 31
0.000000000
  0
LINE
  5
AA9
330
A02
100
AcDbEntity
  8
ProjItem003
100
AcDbLine
 10
170.198153057
 20
125.503748709
 30
0.000000000
 11
194.946890398
 21
111.215058543
 31
0.000000000
  0
LINE
  5
AAA
330
A02
100
AcDbEntity
  8
ProjItem003
100
AcDbLine
 10
194.946890398
 20
111.215058543
 30
0.000000000
 11
194.946890398
 21
69.083834967
 31
0.000000000
  0
LINE
  5
AAB
330
A02
100
AcDbEntity
  8
ProjItem003
100
AcDbLine
 10
170.198153057
 20
83.372525133
 30
0.000000000
 11
194.946890398
 21
69.083834967
 31
0.000000000
  0
LINE
  5
AAC
330
A02
100
AcDbEntity
  8
ProjItem003
100
AcDbLine
 10
170.198153057
 20
125.503748709
 30
0.000000000
 11
170.198153057
 21
83.372525133
 31
0.000000000
  0
LINE
  5
AAD
330
A02
100
AcDbEntity
  8
ProjItem003
100
AcDbLine
 10
204.846385335
 20
109.745364697
 30
0.000000000
 11
223.598857172
 21
120.572109360
 31
0.000000000
  0
LINE
  5
AAE
330
A02
100
AcDbEntity
  8
ProjItem003
100
AcDbLine
 10
223.598857172
 20
69.541073052
 30
0.000000000
 11
223.598857172
 21
120.572109360
 31
0.000000000
  0
LINE
  5
AAF
330
A02
100
AcDbEntity
  8
ProjItem003
100
AcDbLine
 10
204.846385335
 20
58.714328389
 30
0.000000000
 11
223.598857172
 21
69.541073052
 31
0.000000000
  0
LINE
  5
AB0
330
A02
100
AcDbEntity
  8
ProjItem003
100
AcDbLine
 10
160.298658120
 20
135.465006996
 30
0.000000000
 11
160.298658120
 21
135.873255287
 31
0.000000000
  0
LINE
  5
AB1
330
A02
100
AcDbEntity
  8
ProjItem003
100
AcDbLine
 10
160.298658120
 20
135.873255287
 30
0.000000000
 11
179.051129957
 21
146.699999950
 31
0.000000000
  0
LINE
  5
AB2
330
A02
100
AcDbEntity
  8
ProjItem003
100
AcDbLine
 10
160.298658120
 20
135.465006996
 30
0.000000000
 11
204.846385335
 21
109.745364697
 31
0.000000000
  0
LINE
  5
AB3
330
A02
100
AcDbEntity
  8
ProjItem003
100
AcDbLine
 10
204.846385335
 20
109.745364697
 30
0.000000000
 11
204.846385335
 21
110.153612988
 31
0.000000000
  0
LINE
  5
AB4
330
A02
100
AcDbEntity
  8
ProjItem003
100
AcDbLine
 10
160.298658120
 20
135.873255287
 30
0.000000000
 11
204.846385335
 21
110.153612988
 31
0.000000000
  0
LINE
  5
AB5
330
A02
100
AcDbEntity
  8
ProjItem003
100
AcDbLine
 10
179.051129957
 20
146.699999950
 30
0.000000000
 11
223.598857172
 21
120.980357651
 31
0.000000000
  0
LINE
  5
AB6
330
A02
100
AcDbEntity
  8
ProjItem003
100
AcDbLine
 10
204.846385335
 20
110.153612988
 30
0.000000000
 11
223.598857172
 21
120.980357651
 31
0.000000000
  0
LINE
  5
AB7
330
A02
100
AcDbEntity
  8
ProjItem003
100
AcDbLine
 10
171.753787975
 20
133.097166912
 30
0.000000000
 11
165.389826945
 21
136.771401526
 31
0.000000000
  0
LINE
  5
AB8
330
A02
100
AcDbEntity
  8
ProjItem003
100
AcDbLine
 10
171.753787975
 20
133.097166912
 30
0.000000000
 11
175.572164594
 21
135.301707680
 31
0.000000000
  0
LINE
  5
AB9
330
A02
100
AcDbEntity
  8
ProjItem003
100
AcDbLine
 10
165.389826945
 20
136.771401526
 30
0.000000000
 11
169.208203563
 21
138.975942294
 31
0.000000000
  0
LINE
  5
ABA
330
A02
100
AcDbEntity
  8
ProjItem003
100
AcDbLine
 10
175.572164594
 20
135.301707680
 30
0.000000000
 11
169.208203563
 21
138.975942294
 31
0.000000000
  0
LINE
  5
ABB
330
A02
100
AcDbEntity
  8
ProjItem003
100
AcDbLine
 10
206.402020254
 20
113.093000679
 30
0.000000000
 11
200.038059223
 21
116.767235293
 31
0.000000000
  0
LINE
  5
ABC
330
A02
100
AcDbEntity
  8
ProjItem003
100
AcDbLine
 10
206.402020254
 20
113.093000679
 30
0.000000000
 11
210.220396872
 21
115.297541448
 31
0.000000000
  0
LINE
  5
ABD
330
A02
100
AcDbEntity
  8
ProjItem003
100
AcDbLine
 10
210.220396872
 20
115.297541448
 30
0.000000000
 11
203.856435841
 21
118.971776062
 31
0.000000000
  0
LINE
  5
ABE
330
A02
100
AcDbEntity
  8
ProjItem003
100
AcDbLine
 10
200.038059223
 20
116.767235293
 30
0.000000000
 11
203.856435841
 21
118.971776062
 31
0.000000000
  0
LINE
  5
ABF
330
A02
100
AcDbEntity
  8
ProjItem003
100
AcDbLine
 10
223.598857172
 20
120.572109360
 30
0.000000000
 11
223.598857172
 21
120.980357651
 31
0.000000000
  0
LINE
  5
AC0
330
A02
100
AcDbEntity
  8
ProjItem003
100
AcDbLine
 10
204.846385335
 20
109.745364697
 30
0.000000000
 11
223.598857172
 21
120.572109360
 31
0.000000000
  0
LINE
  5
AC1
330
A02
100
AcDbEntity
  8
ProjItem003
100
AcDbLine
 10
165.743380335
 20
136.567277381
 30
0.000000000
 11
169.208203563
 21
138.567694004
 31
0.000000000
  0
LINE
  5
AC2
330
A02
100
AcDbEntity
  8
ProjItem003
100
AcDbLine
 10
175.218611203
 20
135.097583535
 30
0.000000000
 11
169.208203563
 21
138.567694004
 31
0.000000000
  0
LINE
  5
AC3
330
A02
100
AcDbEntity
  8
ProjItem003
100
AcDbLine
 10
209.866843481
 20
115.093417302
 30
0.000000000
 11
203.856435841
 21
118.563527771
 31
0.000000000
  0
LINE
  5
AC4
330
A02
100
AcDbEntity
  8
ProjItem003
100
AcDbLine
 10
200.391612613
 20
116.563111148
 30
0.000000000
 11
203.856435841
 21
118.563527771
 31
0.000000000
  0
LINE
  5
AC5
330
A02
100
AcDbEntity
  8
ProjItem003
100
AcDbLine
 10
169.208203563
 20
138.567694004
 30
0.000000000
 11
169.208203563
 21
138.975942294
 31
0.000000000
  0
LINE
  5
AC6
330
A02
100
AcDbEntity
  8
ProjItem003
100
AcDbLine
 10
203.856435841
 20
118.563527771
 30
0.000000000
 11
203.856435841
 21
118.971776062
 31
0.000000000
  0
LINE
  5
AC7
330
A02
100
AcDbEntity
  8
ProjItem003
100
AcDbLine
 10
170.198153057
 20
83.372525133
 30
0.000000000
 11
170.198153057
 21
125.503748709
 31
0.000000000
  0
LINE
  5
AC8
330
A02
100
AcDbEntity
  8
ProjItem003
100
AcDbLine
 10
194.946890398
 20
69.083834967
 30
0.000000000
 11
194.946890398
 21
111.215058543
 31
0.000000000
  0
LINE
  5
AC9
330
A02
100
AcDbEntity
  8
ProjItem003
100
AcDbLine
 10
170.198153057
 20
83.372525133
 30
0.000000000
 11
194.946890398
 21
69.083834967
 31
0.000000000
  0
LINE
  5
ACA
330
A02
100
AcDbEntity
  8
ProjItem003
100
AcDbLine
 10
170.198153057
 20
125.503748709
 30
0.000000000
 11
194.946890398
 21
111.215058543
 31
0.000000000
  0
LINE
  5
ACB
330
A02
100
AcDbEntity
  8
ProjItem003
100
AcDbLine
 10
167.299015254
 20
135.669131142
 30
0.000000000
 11
168.359675426
 21
136.281503577
 31
0.000000000
  0
LINE
  5
ACC
330
A02
100
AcDbEntity
  8
ProjItem003
100
AcDbLine
 10
168.359675426
 20
136.281503577
 30
0.000000000
 11
168.642518138
 21
136.118204261
 31
0.000000000
  0
LINE
  5
ACD
330
A02
100
AcDbEntity
  8
ProjItem003
100
AcDbLine
 10
167.581857966
 20
135.505831825
 30
0.000000000
 11
168.642518138
 21
136.118204261
 31
0.000000000
  0
LINE
  5
ACE
330
A02
100
AcDbEntity
  8
ProjItem003
100
AcDbLine
 10
168.642518138
 20
135.791605629
 30
0.000000000
 11
168.642518138
 21
136.118204261
 31
0.000000000
  0
LINE
  5
ACF
330
A02
100
AcDbEntity
  8
ProjItem003
100
AcDbLine
 10
167.864700679
 20
135.342532509
 30
0.000000000
 11
168.925360851
 21
135.954904945
 31
0.000000000
  0
LINE
  5
AD0
330
A02
100
AcDbEntity
  8
ProjItem003
100
AcDbLine
 10
168.925360851
 20
135.954904945
 30
0.000000000
 11
169.208203563
 21
135.791605629
 31
0.000000000
  0
LINE
  5
AD1
330
A02
100
AcDbEntity
  8
ProjItem003
100
AcDbLine
 10
168.147543391
 20
135.179233193
 30
0.000000000
 11
169.208203563
 21
135.791605629
 31
0.000000000
  0
LINE
  5
AD2
330
A02
100
AcDbEntity
  8
ProjItem003
100
AcDbLine
 10
169.208203563
 20
135.465006996
 30
0.000000000
 11
169.208203563
 21
135.791605629
 31
0.000000000
  0
LINE
  5
AD3
330
A02
100
AcDbEntity
  8
ProjItem003
100
AcDbLine
 10
168.430386104
 20
135.015933877
 30
0.000000000
 11
169.491046276
 21
135.628306313
 31
0.000000000
  0
LINE
  5
AD4
330
A02
100
AcDbEntity
  8
ProjItem003
100
AcDbLine
 10
169.491046276
 20
135.628306313
 30
0.000000000
 11
169.773888988
 21
135.465006996
 31
0.000000000
  0
LINE
  5
AD5
330
A02
100
AcDbEntity
  8
ProjItem003
100
AcDbLine
 10
168.713228816
 20
134.852634561
 30
0.000000000
 11
169.773888988
 21
135.465006996
 31
0.000000000
  0
LINE
  5
AD6
330
A02
100
AcDbEntity
  8
ProjItem003
100
AcDbLine
 10
169.773888988
 20
135.138408364
 30
0.000000000
 11
169.773888988
 21
135.465006996
 31
0.000000000
  0
LINE
  5
AD7
330
A02
100
AcDbEntity
  8
ProjItem003
100
AcDbLine
 10
168.996071529
 20
134.689335245
 30
0.000000000
 11
170.056731701
 21
135.301707680
 31
0.000000000
  0
LINE
  5
AD8
330
A02
100
AcDbEntity
  8
ProjItem003
100
AcDbLine
 10
170.056731701
 20
135.301707680
 30
0.000000000
 11
170.339574413
 21
135.138408364
 31
0.000000000
  0
LINE
  5
AD9
330
A02
100
AcDbEntity
  8
ProjItem003
100
AcDbLine
 10
169.278914241
 20
134.526035928
 30
0.000000000
 11
170.339574413
 21
135.138408364
 31
0.000000000
  0
LINE
  5
ADA
330
A02
100
AcDbEntity
  8
ProjItem003
100
AcDbLine
 10
170.339574413
 20
134.811809732
 30
0.000000000
 11
170.339574413
 21
135.138408364
 31
0.000000000
  0
LINE
  5
ADB
330
A02
100
AcDbEntity
  8
ProjItem003
100
AcDbLine
 10
169.561756954
 20
134.362736612
 30
0.000000000
 11
170.622417126
 21
134.975109048
 31
0.000000000
  0
LINE
  5
ADC
330
A02
100
AcDbEntity
  8
ProjItem003
100
AcDbLine
 10
170.622417126
 20
134.975109048
 30
0.000000000
 11
170.905259838
 21
134.811809732
 31
0.000000000
  0
LINE
  5
ADD
330
A02
100
AcDbEntity
  8
ProjItem003
100
AcDbLine
 10
169.844599666
 20
134.199437296
 30
0.000000000
 11
170.905259838
 21
134.811809732
 31
0.000000000
  0
LINE
  5
ADE
330
A02
100
AcDbEntity
  8
ProjItem003
100
AcDbLine
 10
170.905259838
 20
134.485211099
 30
0.000000000
 11
170.905259838
 21
134.811809732
 31
0.000000000
  0
LINE
  5
ADF
330
A02
100
AcDbEntity
  8
ProjItem003
100
AcDbLine
 10
170.127442379
 20
134.036137980
 30
0.000000000
 11
171.188102550
 21
134.648510416
 31
0.000000000
  0
LINE
  5
AE0
330
A02
100
AcDbEntity
  8
ProjItem003
100
AcDbLine
 10
171.188102550
 20
134.648510416
 30
0.000000000
 11
171.470945263
 21
134.485211099
 31
0.000000000
  0
LINE
  5
AE1
330
A02
100
AcDbEntity
  8
ProjItem003
100
AcDbLine
 10
170.410285091
 20
133.872838664
 30
0.000000000
 11
171.470945263
 21
134.485211099
 31
0.000000000
  0
LINE
  5
AE2
330
A02
100
AcDbEntity
  8
ProjItem003
100
AcDbLine
 10
171.470945263
 20
134.158612467
 30
0.000000000
 11
171.470945263
 21
134.485211099
 31
0.000000000
  0
LINE
  5
AE3
330
A02
100
AcDbEntity
  8
ProjItem003
100
AcDbLine
 10
170.693127804
 20
133.709539347
 30
0.000000000
 11
171.753787975
 21
134.321911783
 31
0.000000000
  0
LINE
  5
AE4
330
A02
100
AcDbEntity
  8
ProjItem003
100
AcDbLine
 10
171.753787975
 20
134.321911783
 30
0.000000000
 11
172.036630688
 21
134.158612467
 31
0.000000000
  0
LINE
  5
AE5
330
A02
100
AcDbEntity
  8
ProjItem003
100
AcDbLine
 10
170.975970516
 20
133.546240031
 30
0.000000000
 11
172.036630688
 21
134.158612467
 31
0.000000000
  0
LINE
  5
AE6
330
A02
100
AcDbEntity
  8
ProjItem003
100
AcDbLine
 10
172.036630688
 20
133.832013835
 30
0.000000000
 11
172.036630688
 21
134.158612467
 31
0.000000000
  0
LINE
  5
AE7
330
A02
100
AcDbEntity
  8
ProjItem003
100
AcDbLine
 10
171.258813229
 20
133.382940715
 30
0.000000000
 11
172.319473400
 21
133.995313151
 31
0.000000000
  0
LINE
  5
AE8
330
A02
100
AcDbEntity
  8
ProjItem003
100
AcDbLine
 10
172.319473400
 20
133.995313151
 30
0.000000000
 11
172.602316113
 21
133.832013835
 31
0.000000000
  0
LINE
  5
AE9
330
A02
100
AcDbEntity
  8
ProjItem003
100
AcDbLine
 10
171.541655941
 20
133.219641399
 30
0.000000000
 11
172.602316113
 21
133.832013835
 31
0.000000000
  0
LINE
  5
AEA
330
A02
100
AcDbEntity
  8
ProjItem003
100
AcDbLine
 10
172.602316113
 20
133.587064860
 30
0.000000000
 11
172.602316113
 21
133.832013835
 31
0.000000000
  0
LINE
  5
AEB
330
A02
100
AcDbEntity
  8
ProjItem003
100
AcDbLine
 10
201.947247532
 20
115.664964909
 30
0.000000000
 11
203.007907704
 21
116.277337345
 31
0.000000000
  0
LINE
  5
AEC
330
A02
100
AcDbEntity
  8
ProjItem003
100
AcDbLine
 10
203.007907704
 20
116.277337345
 30
0.000000000
 11
203.290750416
 21
116.114038028
 31
0.000000000
  0
LINE
  5
AED
330
A02
100
AcDbEntity
  8
ProjItem003
100
AcDbLine
 10
202.230090245
 20
115.501665593
 30
0.000000000
 11
203.290750416
 21
116.114038028
 31
0.000000000
  0
LINE
  5
AEE
330
A02
100
AcDbEntity
  8
ProjItem003
100
AcDbLine
 10
203.290750416
 20
115.787439396
 30
0.000000000
 11
203.290750416
 21
116.114038028
 31
0.000000000
  0
LINE
  5
AEF
330
A02
100
AcDbEntity
  8
ProjItem003
100
AcDbLine
 10
202.512932957
 20
115.338366277
 30
0.000000000
 11
203.573593129
 21
115.950738712
 31
0.000000000
  0
LINE
  5
AF0
330
A02
100
AcDbEntity
  8
ProjItem003
100
AcDbLine
 10
203.573593129
 20
115.950738712
 30
0.000000000
 11
203.856435841
 21
115.787439396
 31
0.000000000
  0
LINE
  5
AF1
330
A02
100
AcDbEntity
  8
ProjItem003
100
AcDbLine
 10
202.795775670
 20
115.175066960
 30
0.000000000
 11
203.856435841
 21
115.787439396
 31
0.000000000
  0
LINE
  5
AF2
330
A02
100
AcDbEntity
  8
ProjItem003
100
AcDbLine
 10
203.856435841
 20
115.460840764
 30
0.000000000
 11
203.856435841
 21
115.787439396
 31
0.000000000
  0
LINE
  5
AF3
330
A02
100
AcDbEntity
  8
ProjItem003
100
AcDbLine
 10
203.078618382
 20
115.011767644
 30
0.000000000
 11
204.139278554
 21
115.624140080
 31
0.000000000
  0
LINE
  5
AF4
330
A02
100
AcDbEntity
  8
ProjItem003
100
AcDbLine
 10
204.139278554
 20
115.624140080
 30
0.000000000
 11
204.422121266
 21
115.460840764
 31
0.000000000
  0
LINE
  5
AF5
330
A02
100
AcDbEntity
  8
ProjItem003
100
AcDbLine
 10
203.361461094
 20
114.848468328
 30
0.000000000
 11
204.422121266
 21
115.460840764
 31
0.000000000
  0
LINE
  5
AF6
330
A02
100
AcDbEntity
  8
ProjItem003
100
AcDbLine
 10
204.422121266
 20
115.134242131
 30
0.000000000
 11
204.422121266
 21
115.460840764
 31
0.000000000
  0
LINE
  5
AF7
330
A02
100
AcDbEntity
  8
ProjItem003
100
AcDbLine
 10
203.644303807
 20
114.685169012
 30
0.000000000
 11
204.704963979
 21
115.297541448
 31
0.000000000
  0
LINE
  5
AF8
330
A02
100
AcDbEntity
  8
ProjItem003
100
AcDbLine
 10
204.704963979
 20
115.297541448
 30
0.000000000
 11
204.987806691
 21
115.134242131
 31
0.000000000
  0
LINE
  5
AF9
330
A02
100
AcDbEntity
  8
ProjItem003
100
AcDbLine
 10
203.927146519
 20
114.521869696
 30
0.000000000
 11
204.987806691
 21
115.134242131
 31
0.000000000
  0
LINE
  5
AFA
330
A02
100
AcDbEntity
  8
ProjItem003
100
AcDbLine
 10
204.987806691
 20
114.807643499
 30
0.000000000
 11
204.987806691
 21
115.134242131
 31
0.000000000
  0
LINE
  5
AFB
330
A02
100
AcDbEntity
  8
ProjItem003
100
AcDbLine
 10
204.209989232
 20
114.358570379
 30
0.000000000
 11
205.270649404
 21
114.970942815
 31
0.000000000
  0
LINE
  5
AFC
330
A02
100
AcDbEntity
  8
ProjItem003
100
AcDbLine
 10
205.270649404
 20
114.970942815
 30
0.000000000
 11
205.553492116
 21
114.807643499
 31
0.000000000
  0
LINE
  5
AFD
330
A02
100
AcDbEntity
  8
ProjItem003
100
AcDbLine
 10
204.492831944
 20
114.195271063
 30
0.000000000
 11
205.553492116
 21
114.807643499
 31
0.000000000
  0
LINE
  5
AFE
330
A02
100
AcDbEntity
  8
ProjItem003
100
AcDbLine
 10
205.553492116
 20
114.481044867
 30
0.000000000
 11
205.553492116
 21
114.807643499
 31
0.000000000
  0
LINE
  5
AFF
330
A02
100
AcDbEntity
  8
ProjItem003
100
AcDbLine
 10
204.775674657
 20
114.031971747
 30
0.000000000
 11
205.836334829
 21
114.644344183
 31
0.000000000
  0
LINE
  5
B00
330
A02
100
AcDbEntity
  8
ProjItem003
100
AcDbLine
 10
205.836334829
 20
114.644344183
 30
0.000000000
 11
206.119177541
 21
114.481044867
 31
0.000000000
  0
LINE
  5
B01
330
A02
100
AcDbEntity
  8
ProjItem003
100
AcDbLine
 10
205.058517369
 20
113.868672431
 30
0.000000000
 11
206.119177541
 21
114.481044867
 31
0.000000000
  0
LINE
  5
B02
330
A02
100
AcDbEntity
  8
ProjItem003
100
AcDbLine
 10
206.119177541
 20
114.154446234
 30
0.000000000
 11
206.119177541
 21
114.481044867
 31
0.000000000
  0
LINE
  5
B03
330
A02
100
AcDbEntity
  8
ProjItem003
100
AcDbLine
 10
205.341360082
 20
113.705373115
 30
0.000000000
 11
206.402020254
 21
114.317745550
 31
0.000000000
  0
LINE
  5
B04
330
A02
100
AcDbEntity
  8
ProjItem003
100
AcDbLine
 10
206.402020254
 20
114.317745550
 30
0.000000000
 11
206.684862966
 21
114.154446234
 31
0.000000000
  0
LINE
  5
B05
330
A02
100
AcDbEntity
  8
ProjItem003
100
AcDbLine
 10
205.624202794
 20
113.542073799
 30
0.000000000
 11
206.684862966
 21
114.154446234
 31
0.000000000
  0
LINE
  5
B06
330
A02
100
AcDbEntity
  8
ProjItem003
100
AcDbLine
 10
206.684862966
 20
113.827847602
 30
0.000000000
 11
206.684862966
 21
114.154446234
 31
0.000000000
  0
LINE
  5
B07
330
A02
100
AcDbEntity
  8
ProjItem003
100
AcDbLine
 10
205.907045507
 20
113.378774482
 30
0.000000000
 11
206.967705679
 21
113.991146918
 31
0.000000000
  0
LINE
  5
B08
330
A02
100
AcDbEntity
  8
ProjItem003
100
AcDbLine
 10
206.967705679
 20
113.991146918
 30
0.000000000
 11
207.250548391
 21
113.827847602
 31
0.000000000
  0
LINE
  5
B09
330
A02
100
AcDbEntity
  8
ProjItem003
100
AcDbLine
 10
206.189888219
 20
113.215475166
 30
0.000000000
 11
207.250548391
 21
113.827847602
 31
0.000000000
  0
LINE
  5
B0A
330
A02
100
AcDbEntity
  8
ProjItem003
100
AcDbLine
 10
207.250548391
 20
113.582898628
 30
0.000000000
 11
207.250548391
 21
113.827847602
 31
0.000000000
  0
LINE
  5
B0B
330
A02
100
AcDbEntity
  8
ProjItem003
100
AcDbLine
 10
172.460894757
 20
133.913663493
 30
0.000000000
 11
172.460894757
 21
136.689751868
 31
0.000000000
  0
LINE
  5
B0C
330
A02
100
AcDbEntity
  8
ProjItem003
100
AcDbLine
 10
209.230447378
 20
114.725993841
 30
0.000000000
 11
209.230447378
 21
115.460840764
 31
0.000000000
  0
LINE
  5
B0D
330
A02
100
AcDbEntity
  8
ProjItem003
100
AcDbLine
 10
209.456721548
 20
114.856633294
 30
0.000000000
 11
209.456721548
 21
115.330201311
 31
0.000000000
  0
ELLIPSE
  5
B0E
330
A02
100
AcDbEntity
  8
ProjItem003
100
AcDbEllipse
 10
195.088311755
 20
78.800144280
 30
0.000000000
 11
34.000000000
 21
0.000000000
 31
0.000000000
 40
0.577350269
 41
5.497787144
 42
0.000000000
  0
ELLIPSE
  5
B0F
330
A02
100
AcDbEntity
  8
ProjItem003
100
AcDbEllipse
 10
195.088311755
 20
78.800144280
 30
0.000000000
 11
34.000000000
 21
0.000000000
 31
0.000000000
 40
0.577350269
 41
0.000000000
 42
0.576188333
  0
ELLIPSE
  5
B10
330
A02
100
AcDbEntity
  8
ProjItem003
100
AcDbEllipse
 10
195.088311755
 20
78.800144280
 30
0.000000000
 11
34.000000000
 21
0.000000000
 31
0.000000000
 40
0.577350269
 41
2.903734251
 42
3.141592654
  0
ELLIPSE
  5
B11
330
A02
100
AcDbEntity
  8
ProjItem003
100
AcDbEllipse
 10
195.088311755
 20
78.800144280
 30
0.000000000
 11
34.000000000
 21
0.000000000
 31
0.000000000
 40
0.577350269
 41
3.141592654
 42
4.950247383
  0
ELLIPSE
  5
B12
330
A02
100
AcDbEntity
  8
ProjItem003
100
AcDbEllipse
 10
195.088311755
 20
78.800144280
 30
0.000000000
 11
34.000000000
 21
0.000000000
 31
0.000000000
 40
0.577350269
 41
5.111915132
 42
5.497787144
  0
ELLIPSE
  5
B13
330
A02
100
AcDbEntity
  8
ProjItem003
100
AcDbEllipse
 10
195.088311755
 20
77.493749751
 30
0.000000000
 11
34.000000000
 21
0.000000000
 31
0.000000000
 40
0.577350269
 41
5.497787144
 42
0.000000000
  0
ELLIPSE
  5
B14
330
A02
100
AcDbEntity
  8
ProjItem003
100
AcDbEllipse
 10
195.088311755
 20
77.493749751
 30
0.000000000
 11
34.000000000
 21
0.000000000
 31
0.000000000
 40
0.577350269
 41
3.141592654
 42
5.497787144
  0
LINE
  5
B15
330
A02
100
AcDbEntity
  8
ProjItem003
100
AcDbLine
 10
144.176623509
 20
52.998852323
 30
0.000000000
 11
144.176623509
 21
74.227763427
 31
0.000000000
  0
LINE
  5
B16
330
A02
100
AcDbEntity
  8
ProjItem003
100
AcDbLine
 10
144.176623509
 20
74.227763427
 30
0.000000000
 11
161.076475579
 21
83.984897569
 31
0.000000000
  0
LINE
  5
B17
330
A02
100
AcDbEntity
  8
ProjItem003
100
AcDbLine
 10
144.176623509
 20
52.998852323
 30
0.000000000
 11
195.088311755
 21
23.604975409
 31
0.000000000
  0
LINE
  5
B18
330
A02
100
AcDbEntity
  8
ProjItem003
100
AcDbLine
 10
195.088311755
 20
23.604975409
 30
0.000000000
 11
195.088311755
 21
44.833886513
 31
0.000000000
  0
LINE
  5
B19
330
A02
100
AcDbEntity
  8
ProjItem003
100
AcDbLine
 10
144.176623509
 20
74.227763427
 30
0.000000000
 11
195.088311755
 21
44.833886513
 31
0.000000000
  0
LINE
  5
B1A
330
A02
100
AcDbEntity
  8
ProjItem003
100
AcDbLine
 10
227.350972970
 20
84.994784203
 30
0.000000000
 11
246.000000000
 21
74.227763427
 31
0.000000000
  0
LINE
  5
B1B
330
A02
100
AcDbEntity
  8
ProjItem003
100
AcDbLine
 10
195.088311755
 20
44.833886513
 30
0.000000000
 11
246.000000000
 21
74.227763427
 31
0.000000000
  0
LINE
  5
B1C
330
A02
100
AcDbEntity
  8
ProjItem003
100
AcDbLine
 10
246.000000000
 20
52.998852323
 30
0.000000000
 11
246.000000000
 21
74.227763427
 31
0.000000000
  0
LINE
  5
B1D
330
A02
100
AcDbEntity
  8
ProjItem003
100
AcDbLine
 10
195.088311755
 20
23.604975409
 30
0.000000000
 11
246.000000000
 21
52.998852323
 31
0.000000000
  0
ELLIPSE
  5
B1E
330
A02
100
AcDbEntity
  8
ProjItem003
100
AcDbEllipse
 10
214.837804153
 20
65.438177733
 30
0.000000000
 11
5.730000000
 21
0.000000000
 31
0.000000000
 40
0.577350269
 41
5.497787144
 42
5.916229140
  0
ELLIPSE
  5
B1F
330
A02
100
AcDbEntity
  8
ProjItem003
100
AcDbEllipse
 10
214.837804153
 20
65.438177733
 30
0.000000000
 11
5.730000000
 21
0.000000000
 31
0.000000000
 40
0.577350269
 41
5.023668619
 42
5.497787144
  0
ELLIPSE
  5
B20
330
A02
100
AcDbEntity
  8
ProjItem003
100
AcDbEllipse
 10
214.837804153
 20
63.478585939
 30
0.000000000
 11
5.730000000
 21
0.000000000
 31
0.000000000
 40
0.577350269
 41
5.497787144
 42
0.000000000
  0
ELLIPSE
  5
B21
330
A02
100
AcDbEntity
  8
ProjItem003
100
AcDbEllipse
 10
214.837804153
 20
63.478585939
 30
0.000000000
 11
5.730000000
 21
0.000000000
 31
0.000000000
 40
0.577350269
 41
4.237284896
 42
5.497787144
  0
LINE
  5
B22
330
A02
100
AcDbEntity
  8
ProjItem003
100
AcDbLine
 10
229.088311755
 20
77.493749751
 30
0.000000000
 11
229.088311755
 21
78.800144280
 31
0.000000000
  0
LINE
  5
B23
330
A02
100
AcDbEntity
  8
ProjItem003
100
AcDbLine
 10
161.088311755
 20
77.493749751
 30
0.000000000
 11
161.088311755
 21
78.800144280
 31
0.000000000
  0
LINE
  5
B24
330
A02
100
AcDbEntity
  8
ProjItem003
100
AcDbLine
 10
220.567804153
 20
63.478585939
 30
0.000000000
 11
220.567804153
 21
64.496372232
 31
0.000000000
  0
ENDSEC
  0
SECTION
  2
OBJECTS
  0
DICTIONARY
  5
F000
330
0
100
AcDbDictionary
  3
ACAD_GROUP
350
F001
  0
DICTIONARY
  5
F001
330
F000
100
AcDbDictionary
  0
ENDSEC
  0
EOF