M48
; DRILL file KiCad 10.0.6 date 2026-10-09T01:10:44
; FORMAT={-:-/ absolute / metric / decimal}
; #@! TF.CreationDate,2026-10-09T01:10:44+03:00
; #@! TF.GenerationSoftware,Kicad,Pcbnew,10.0.6
; #@! TF.FileFunction,Plated,1,4,PTH
FMAT,2
METRIC
; #@! TA.AperFunction,Plated,PTH,ViaDrill
T1C0.150
; #@! TA.AperFunction,Plated,PTH,ViaDrill
T2C0.200
; #@! TA.AperFunction,Plated,PTH,ViaDrill
T3C0.350
; #@! TA.AperFunction,Plated,PTH,ComponentDrill
T4C1.000
; #@! TA.AperFunction,Plated,PTH,ComponentDrill
T5C1.194
; #@! TA.AperFunction,Plated,PTH,ComponentDrill
T6C1.321
%
G90
G05
T1
X6.45Y13.25
X6.45Y12.75
X6.45Y12.2
X6.45Y11.65
X6.45Y11.1
X6.45Y10.55
X6.95Y10.15
X7.5Y10.15
X8.15Y10.15
X8.75Y10.15
X9.05Y14.8
X9.4Y10.15
X9.5Y15.65
X10.35Y15.9
X11.2Y15.85
X12.0Y15.35
X12.85Y15.35
X13.45Y15.35
X14.0Y14.85
X14.0Y14.25
X14.0Y13.65
X14.0Y13.1
X14.0Y12.55
X14.2Y11.2
X14.2Y10.65
X14.2Y10.1
X14.2Y9.6
X14.2Y9.1
X14.2Y8.6
X14.7Y11.2
X14.7Y10.65
X14.7Y10.1
X14.7Y9.6
X14.7Y9.1
X14.7Y8.6
X15.2Y11.2
X15.2Y10.65
X15.2Y10.1
X15.2Y9.6
X15.2Y9.1
X15.2Y8.6
X15.7Y11.2
X15.7Y10.65
X15.7Y10.1
X15.7Y9.6
X15.7Y9.1
X15.7Y8.6
X15.9Y20.85
X15.95Y20.0
X15.95Y19.05
X15.95Y18.3
X15.95Y17.65
X15.95Y17.0
X15.95Y16.4
X16.1Y21.65
X16.2Y11.2
X16.2Y10.65
X16.2Y10.1
X16.2Y9.6
X16.2Y9.1
X16.2Y8.6
X16.6Y20.8
X16.6Y20.0
X16.65Y22.3
X16.65Y19.05
X16.65Y18.3
X16.65Y17.65
X16.65Y17.0
X16.65Y16.4
X16.7Y11.2
X16.7Y10.65
X16.7Y10.1
X16.7Y9.6
X16.7Y9.1
X16.7Y8.6
X16.85Y21.5
X17.2Y11.2
X17.2Y10.65
X17.2Y10.1
X17.2Y9.6
X17.2Y9.1
X17.2Y8.6
X17.3Y20.7
X17.5Y22.2
X17.7Y11.2
X17.7Y10.65
X17.7Y10.1
X17.7Y9.6
X17.7Y9.1
X17.7Y8.6
X17.8Y21.4
X18.2Y11.2
X18.2Y10.65
X18.2Y10.1
X18.2Y9.6
X18.2Y9.1
X18.2Y8.6
X18.45Y14.9
X18.45Y14.3
X18.45Y13.7
X18.45Y13.1
X18.45Y12.55
X18.55Y22.15
T2
X8.45Y12.65
X8.45Y11.146
X9.45Y12.65
X9.45Y11.146
X10.45Y12.65
X10.45Y11.146
X11.45Y12.65
X11.45Y11.146
X12.45Y12.65
X12.45Y11.146
X13.45Y12.65
X13.45Y11.146
X19.0Y12.7
X19.0Y11.196
X20.0Y12.7
X20.0Y11.196
X21.0Y12.7
X21.0Y11.196
X22.0Y12.7
X22.0Y11.196
X23.0Y12.7
X23.0Y11.196
X24.0Y12.7
X24.0Y11.046
T3
X1.7Y16.8
X1.7Y8.4
X1.75Y15.5
X1.75Y13.15
X1.75Y11.9
X1.8Y14.4
X1.85Y10.95
X1.85Y7.0
X1.9Y9.8
X2.0Y24.0
X2.75Y14.35
X2.75Y13.15
X2.75Y11.95
X2.85Y10.9
X2.9Y16.9
X2.9Y15.55
X2.9Y6.8
X3.0Y53.0
X3.0Y50.0
X3.0Y44.0
X3.0Y32.0
X3.0Y21.0
X3.0Y18.0
X3.0Y8.45
X3.05Y9.6
X3.95Y14.4
X4.0Y47.0
X4.0Y41.0
X4.0Y35.0
X4.0Y26.0
X4.1Y13.0
X4.15Y11.9
X4.15Y10.75
X4.2Y8.05
X4.35Y15.75
X4.45Y6.25
X4.45Y5.35
X5.0Y16.95
X5.5Y16.15
X5.65Y6.8
X6.0Y53.0
X6.0Y50.0
X6.0Y44.0
X6.0Y38.0
X6.0Y20.0
X6.0Y18.0
X6.45Y16.95
X6.45Y15.65
X7.0Y47.0
X7.0Y41.0
X7.0Y35.0
X7.0Y6.75
X7.15Y7.95
X7.45Y15.6
X7.5Y13.45
X7.55Y16.8
X8.0Y57.0
X8.45Y6.7
X8.5Y13.85
X8.6Y15.6
X8.9Y9.05
X8.95Y41.0
X9.0Y53.0
X9.0Y50.0
X9.0Y44.0
X9.0Y38.0
X9.05Y8.0
X10.0Y47.0
X10.0Y35.0
X10.0Y6.05
X10.6Y7.75
X10.75Y7.0
X11.0Y57.0
X12.0Y53.0
X12.0Y50.0
X12.35Y8.3
X12.5Y9.7
X12.5Y6.5
X13.0Y47.0
X13.75Y36.35
X13.85Y7.1
X14.0Y57.0
X14.85Y6.15
X15.0Y50.0
X15.95Y7.4
X16.0Y47.0
X16.05Y36.4
X16.1Y35.0
X16.65Y6.0
X16.8Y33.55
X17.5Y7.35
X17.75Y34.9
X17.85Y23.3
X18.2Y6.3
X18.65Y36.35
X18.9Y24.15
X19.0Y7.4
X19.35Y23.35
X19.4Y27.65
X19.65Y5.9
X19.7Y9.4
X20.15Y24.75
X20.2Y10.2
X20.25Y8.15
X20.6Y6.8
X20.65Y26.8
X21.2Y5.95
X21.35Y32.4
X21.35Y28.25
X21.35Y7.6
X21.45Y33.45
X21.5Y16.85
X21.65Y16.0
X22.85Y16.85
X22.95Y7.75
X23.05Y6.6
X23.3Y33.6
X23.3Y32.4
X23.45Y18.05
X23.45Y14.4
X23.55Y9.65
X24.35Y7.0
X24.45Y16.95
X24.65Y32.6
X24.65Y18.05
X24.9Y6.0
X25.0Y7.8
X25.1Y9.65
X25.15Y14.35
X25.4Y33.65
X25.7Y18.9
X25.75Y29.75
X25.8Y30.9
X26.15Y6.45
X26.25Y32.45
X26.25Y7.7
X26.4Y17.85
X26.65Y11.0
X26.7Y20.1
X26.75Y16.1
X26.85Y12.5
X26.95Y31.55
X27.15Y21.15
X27.45Y18.8
X27.55Y17.05
X27.65Y6.05
X27.75Y7.9
X27.8Y7.15
X28.1Y44.25
X28.2Y11.5
X28.4Y25.25
X28.4Y9.3
X28.55Y19.95
X28.55Y14.45
X28.65Y36.35
X28.7Y21.2
X28.75Y40.95
X28.75Y12.8
X29.05Y38.65
X29.05Y18.3
X29.1Y46.35
X29.35Y51.15
X29.4Y28.65
X29.55Y8.45
X29.55Y6.05
X29.6Y11.35
X29.7Y34.0
X29.8Y16.35
X30.0Y14.8
X30.05Y24.1
X30.15Y53.6
X30.3Y22.8
X30.35Y25.4
X30.45Y35.55
X30.45Y21.3
X30.45Y19.95
X30.45Y9.7
X30.55Y18.4
X30.6Y12.85
X30.6Y7.2
X30.7Y48.4
X30.85Y31.2
X30.95Y44.25
X31.5Y11.35
X31.5Y8.45
X31.5Y6.0
X31.65Y27.85
X31.8Y51.05
X31.8Y41.0
X31.85Y14.75
X31.95Y34.0
X31.95Y16.65
X32.0Y46.3
X32.0Y21.1
X32.1Y24.1
X32.1Y22.75
X32.1Y19.75
X32.4Y9.75
X32.4Y7.15
X32.5Y18.05
X32.5Y12.8
X33.05Y26.3
X33.15Y53.65
X33.15Y31.5
X33.3Y8.5
X33.35Y11.3
X33.4Y48.25
X33.4Y44.1
X33.45Y6.1
X33.75Y14.65
X33.9Y16.65
X34.0Y34.85
X34.05Y7.15
X34.1Y12.75
X34.2Y9.7
T4
X8.8Y30.85
X8.8Y28.31
X15.8Y43.64
X15.8Y41.1
X15.8Y38.56
T5
X5.51Y14.41
X5.51Y9.33
X10.59Y14.41
X10.59Y9.33
X21.73Y14.41
X21.73Y9.33
X26.81Y14.41
X26.81Y9.33
T6
X19.861Y52.6
X24.865Y52.6
M30
