M48
; DRILL file KiCad 10.0.6 date 2026-10-09T01:11:14
; FORMAT={-:-/ absolute / metric / decimal}
; #@! TF.CreationDate,2026-10-09T01:11:14+03:00
; #@! TF.GenerationSoftware,Kicad,Pcbnew,10.0.6
; #@! TF.FileFunction,Plated,1,6,PTH
FMAT,2
METRIC
; #@! TA.AperFunction,Plated,PTH,ViaDrill
T1C0.150
; #@! TA.AperFunction,Plated,PTH,ViaDrill
T2C0.200
; #@! TA.AperFunction,Plated,PTH,ViaDrill
T3C0.300
; #@! TA.AperFunction,Plated,PTH,ViaDrill
T4C0.500
; #@! TA.AperFunction,Plated,PTH,ComponentDrill
T5C0.635
; #@! TA.AperFunction,Plated,PTH,ComponentDrill
T6C0.838
; #@! TA.AperFunction,Plated,PTH,ViaDrill
T7C1.000
; #@! TA.AperFunction,Plated,PTH,ComponentDrill
T8C1.000
; #@! TA.AperFunction,Plated,PTH,ComponentDrill
T9C1.016
; #@! TA.AperFunction,Plated,PTH,ComponentDrill
T10C1.194
; #@! TA.AperFunction,Plated,PTH,ViaDrill
T11C2.000
%
G90
G05
T1
X7.4Y60.7
X14.65Y4.7
X26.75Y13.55
X34.2Y14.35
X40.65Y55.45
X40.85Y54.4
X41.25Y56.95
X41.7Y61.95
X41.8Y53.85
X42.55Y51.4
X42.7Y55.985
X42.9Y55.45
X42.95Y54.87
X43.0Y54.345
X43.05Y52.3
X43.1Y52.85
X43.2Y57.85
X43.2Y57.4
X43.2Y56.87
X43.2Y56.37
X43.2Y53.85
X43.2Y53.35
X43.65Y64.5
X43.96Y59.06
X44.2Y46.725
X44.45Y67.05
X44.5Y68.25
X44.55Y59.1
X44.713Y46.9
X45.323Y46.9
X45.55Y65.35
X45.55Y64.65
X45.85Y61.6
X45.85Y59.95
X45.85Y57.85
X45.85Y50.95
X45.875Y46.675
X46.25Y65.35
X46.25Y64.65
X46.35Y51.0
X46.4Y42.1
X46.9Y57.9
X47.2Y66.95
X47.3Y68.2
X47.4Y57.9
X47.4Y31.55
X47.5Y34.6
X47.65Y37.6
X47.775Y35.125
X47.85Y51.2
X47.9Y39.4
X48.35Y60.5
X48.35Y58.95
X48.35Y51.2
X48.35Y38.9
X48.4Y57.85
X48.55Y64.5
X48.65Y40.4
X48.7Y43.4
X48.7Y42.4
X48.7Y41.9
X48.7Y36.3
X48.8Y45.75
X49.25Y36.9
X49.55Y44.95
X49.65Y48.95
X49.8Y44.45
X49.9Y34.65
X49.95Y38.9
X50.0Y51.3
X50.3Y50.35
X50.3Y35.15
X50.5Y63.85
X50.8Y35.15
X51.02Y58.83
X51.05Y54.4
X51.05Y53.85
X51.09Y57.36
X51.1Y57.85
X51.1Y56.85
X51.1Y53.35
X51.1Y52.85
X51.1Y52.35
X51.14Y59.3
X51.5Y66.45
X51.55Y68.65
X52.05Y46.35
X52.55Y64.75
X52.55Y64.05
X52.85Y46.35
X53.3Y64.75
X53.3Y64.05
X53.4Y54.8
X53.9Y51.55
X54.2Y66.45
X54.3Y68.65
X54.45Y47.65
X54.45Y46.25
X55.45Y35.0
X55.55Y63.85
X55.85Y56.8
X55.95Y46.35
X55.95Y35.0
X56.0Y55.4
X56.25Y52.35
X56.3Y53.9
X56.45Y56.95
X56.75Y62.6
X56.85Y46.3
X56.9Y55.87
X56.9Y52.85
X56.95Y35.0
X57.05Y54.87
X57.25Y55.35
X57.35Y54.415
X57.4Y53.25
X57.4Y50.9
X57.45Y46.35
X57.47Y50.15
X57.5Y53.9
X57.5Y35.0
X57.55Y57.9
X57.55Y56.37
X57.6Y57.2
X57.6Y52.5
X57.8Y59.15
X57.85Y64.45
X58.0Y46.3
X58.45Y35.0
X58.6Y68.0
X58.6Y67.1
X58.63Y49.075
X58.65Y59.1
X58.65Y46.5
X59.0Y35.0
X59.1Y46.9
X59.197Y48.95
X59.807Y48.95
X59.85Y65.35
X59.85Y64.6
X59.9Y46.3
X60.2Y62.0
X60.2Y59.95
X60.2Y57.85
X60.2Y51.25
X60.3Y35.0
X60.4Y49.2
X60.65Y65.35
X60.65Y64.6
X60.7Y51.25
X60.7Y35.35
X61.2Y57.85
X61.2Y45.4
X61.3Y40.95
X61.35Y40.4
X61.35Y37.42
X61.4Y44.9
X61.4Y43.4
X61.4Y35.25
X61.45Y41.9
X61.48Y39.4
X61.5Y38.95
X61.75Y57.85
X61.85Y68.0
X62.0Y66.95
X62.2Y51.25
X62.25Y50.05
X62.7Y58.95
X62.7Y57.85
X62.7Y51.25
X62.7Y50.05
X62.75Y60.55
X62.8Y37.425
X62.855Y35.325
X62.9Y64.5
X63.05Y39.1
X63.1Y43.4
X63.3Y41.9
X63.377Y35.3
X63.455Y37.325
X63.525Y38.448
X63.525Y37.838
X63.53Y38.95
X63.987Y35.3
X64.15Y59.3
X64.2Y50.3
X64.25Y56.85
X64.53Y35.25
X64.9Y59.25
X65.3Y53.39
X65.45Y53.85
X65.5Y57.85
X65.5Y57.35
X65.5Y52.95
X65.5Y52.5
X65.5Y49.15
X65.51Y54.4
X65.65Y66.95
X65.65Y51.55
X67.55Y65.45
X67.9Y66.1
X67.95Y65.0
X68.1Y55.85
X68.2Y68.3
X68.5Y65.6
X68.7Y55.6
X69.2Y68.75
X69.55Y63.2
X70.65Y65.8
X71.05Y67.0
X77.21Y52.04
X77.8Y52.6
T2
X13.85Y23.75
X14.6Y4.05
X16.35Y11.4
X16.45Y23.75
X32.0Y12.95
X45.0Y73.92
X45.32Y73.1
X45.32Y72.3
X45.32Y71.5
X45.32Y70.7
X45.32Y69.9
X45.32Y69.1
X46.54Y73.1
X46.54Y72.3
X46.54Y71.5
X46.54Y70.7
X46.54Y69.9
X46.54Y69.1
X46.83Y73.92
X50.98Y73.45
X52.23Y89.53
X52.33Y88.7
X52.33Y87.9
X52.33Y87.1
X52.33Y86.3
X52.33Y85.5
X52.33Y84.7
X52.33Y83.9
X52.33Y83.1
X52.33Y82.3
X52.33Y81.5
X52.33Y80.7
X52.33Y79.9
X52.33Y79.1
X52.33Y78.3
X52.33Y77.5
X52.33Y76.7
X52.33Y75.9
X52.33Y75.1
X52.33Y73.5
X52.33Y72.7
X52.33Y71.9
X52.33Y71.1
X52.33Y70.3
X52.33Y69.5
X53.55Y88.7
X53.55Y87.9
X53.55Y87.1
X53.55Y86.3
X53.55Y85.5
X53.55Y84.7
X53.55Y83.9
X53.55Y83.1
X53.55Y82.3
X53.55Y81.5
X53.55Y80.7
X53.55Y79.9
X53.55Y79.1
X53.55Y78.3
X53.55Y77.5
X53.55Y76.7
X53.55Y75.9
X53.55Y75.1
X53.55Y74.3
X53.55Y73.5
X53.55Y72.7
X53.55Y71.9
X53.55Y71.1
X53.55Y70.3
X53.55Y69.5
X53.67Y89.52
X59.42Y74.37
X59.59Y73.5
X59.59Y72.7
X59.59Y71.9
X59.59Y71.1
X59.59Y70.3
X59.59Y69.5
X59.59Y68.7
X60.81Y73.5
X60.81Y72.7
X60.81Y71.9
X60.81Y71.1
X60.81Y70.3
X60.81Y69.5
X60.81Y68.7
X60.94Y74.39
X70.25Y68.85
X70.816Y69.416
X71.11Y68.01
X71.381Y69.981
X71.676Y68.576
X71.946Y70.546
X72.241Y69.141
X72.511Y71.111
X72.806Y69.706
X73.076Y71.676
X73.371Y70.271
X73.641Y72.241
X73.936Y70.836
X74.671Y71.281
T3
X1.39Y14.472
X2.34Y40.522
X2.39Y94.472
X2.39Y84.472
X2.39Y74.472
X2.39Y64.472
X2.39Y54.472
X2.39Y44.472
X2.39Y34.472
X2.39Y24.472
X2.39Y4.472
X2.64Y29.722
X3.64Y78.872
X4.555Y81.629
X4.611Y83.471
X4.89Y89.472
X4.89Y59.472
X4.89Y49.472
X4.89Y39.472
X4.89Y9.472
X4.931Y79.929
X5.295Y85.183
X5.34Y69.422
X5.74Y20.122
X5.89Y44.072
X6.045Y87.679
X6.24Y38.172
X6.24Y15.422
X6.272Y78.432
X6.522Y86.557
X6.74Y71.022
X6.79Y66.272
X6.84Y64.522
X6.89Y68.872
X7.39Y74.472
X7.39Y54.472
X7.39Y34.472
X7.39Y4.472
X7.54Y72.922
X7.839Y77.462
X8.14Y87.522
X8.19Y25.022
X8.49Y62.822
X8.59Y49.472
X8.84Y61.272
X9.54Y20.522
X9.643Y77.086
X9.89Y9.472
X9.94Y72.822
X9.969Y87.693
X10.79Y76.372
X11.39Y62.872
X11.467Y77.35
X11.59Y24.822
X11.773Y87.317
X12.39Y74.472
X12.39Y64.472
X12.39Y54.472
X12.39Y44.472
X12.39Y14.472
X12.39Y4.472
X12.44Y88.472
X12.54Y72.922
X12.59Y26.872
X13.09Y78.222
X13.34Y86.347
X13.34Y8.522
X13.79Y27.922
X13.94Y62.872
X14.317Y79.597
X14.48Y84.9
X14.89Y59.472
X14.89Y49.472
X15.03Y28.342
X15.24Y23.722
X15.69Y72.772
X16.64Y69.572
X16.74Y71.172
X16.74Y62.922
X16.79Y77.072
X16.84Y65.672
X16.99Y79.522
X17.19Y26.472
X17.39Y74.472
X17.39Y64.472
X17.39Y54.472
X17.39Y44.472
X17.39Y24.472
X17.39Y14.472
X17.54Y2.722
X18.24Y49.422
X19.89Y39.472
X20.59Y20.572
X20.99Y24.972
X22.39Y43.422
X22.39Y24.472
X22.39Y3.672
X23.09Y20.222
X23.24Y36.722
X23.34Y14.522
X24.89Y49.472
X24.89Y39.472
X25.79Y25.422
X26.09Y29.322
X27.34Y43.272
X27.39Y14.472
X27.44Y48.572
X29.04Y40.472
X29.14Y32.972
X29.89Y49.472
X29.89Y29.472
X29.94Y20.472
X30.39Y44.772
X31.89Y74.172
X31.89Y70.172
X31.94Y64.522
X32.04Y43.522
X32.29Y48.772
X32.39Y84.472
X32.44Y33.772
X32.64Y25.322
X33.04Y26.022
X33.74Y44.922
X34.64Y12.722
X34.89Y69.472
X34.89Y49.472
X35.09Y20.472
X35.44Y25.772
X35.74Y37.822
X36.49Y74.122
X36.84Y47.622
X37.14Y63.022
X37.24Y48.772
X37.34Y79.522
X37.39Y84.472
X37.39Y14.472
X38.34Y20.522
X38.59Y48.922
X39.89Y69.472
X39.89Y29.472
X39.94Y21.572
X40.09Y64.872
X40.19Y63.072
X40.79Y70.022
X40.79Y13.972
X40.84Y80.022
X40.89Y78.072
X40.89Y76.122
X40.89Y74.372
X40.89Y72.272
X41.29Y38.822
X41.59Y63.172
X41.99Y68.822
X42.14Y21.772
X42.29Y16.372
X42.39Y84.472
X42.39Y64.472
X42.39Y34.472
X42.39Y14.472
X42.44Y78.872
X42.54Y31.472
X42.63Y29.672
X42.79Y39.422
X42.94Y37.272
X43.14Y62.922
X43.19Y68.972
X43.29Y32.772
X43.89Y45.072
X43.99Y38.622
X44.94Y79.022
X46.05Y9.482
X46.45Y41.4
X46.79Y44.872
X46.88Y10.492
X47.04Y78.872
X47.09Y36.672
X47.34Y21.822
X47.34Y19.322
X47.34Y16.822
X47.34Y14.322
X47.34Y11.822
X47.39Y94.472
X47.39Y84.472
X47.79Y88.222
X47.89Y90.322
X47.89Y32.172
X47.89Y28.372
X47.89Y23.022
X47.94Y29.372
X47.99Y85.822
X48.04Y30.822
X48.09Y92.722
X48.09Y68.972
X48.74Y48.972
X48.79Y63.022
X48.84Y2.212
X49.04Y78.822
X49.49Y84.672
X49.49Y68.922
X49.69Y64.472
X49.84Y94.722
X49.89Y79.472
X50.28Y2.312
X50.84Y70.022
X50.89Y71.472
X50.94Y77.822
X50.94Y74.422
X51.04Y76.072
X51.19Y84.522
X52.39Y94.472
X52.39Y74.472
X52.54Y95.772
X52.89Y2.422
X54.24Y60.822
X54.24Y2.472
X54.69Y61.522
X54.89Y79.472
X54.94Y94.972
X54.975Y60.775
X55.04Y74.372
X55.04Y71.672
X55.09Y76.722
X55.14Y84.372
X55.29Y49.022
X55.34Y78.772
X55.49Y68.822
X55.64Y2.422
X55.69Y62.922
X55.89Y65.022
X56.64Y64.322
X56.79Y68.822
X57.39Y84.472
X57.39Y1.672
X57.44Y94.972
X57.79Y78.972
X57.84Y89.672
X57.84Y87.122
X57.89Y91.272
X57.99Y85.222
X58.34Y68.922
X59.19Y2.272
X60.04Y2.272
X60.39Y79.772
X60.54Y89.472
X61.74Y78.872
X62.34Y68.922
X62.39Y94.472
X62.39Y84.472
X62.39Y34.472
X62.64Y89.422
X62.64Y2.522
X62.69Y62.972
X63.89Y64.822
X64.24Y2.522
X64.29Y65.872
X64.79Y79.022
X64.89Y89.472
X65.09Y15.572
X65.14Y74.422
X65.14Y70.672
X65.14Y33.822
X65.18Y29.472
X65.23Y30.492
X65.24Y76.422
X65.24Y72.622
X65.24Y36.122
X65.24Y13.772
X65.29Y68.372
X65.29Y40.122
X65.29Y31.572
X65.47Y28.382
X65.88Y27.182
X65.94Y2.472
X65.97Y26.032
X66.34Y13.822
X66.39Y39.572
X66.45Y23.722
X66.69Y48.872
X66.99Y53.572
X67.39Y94.472
X67.39Y24.472
X67.69Y1.822
X68.04Y13.822
X68.14Y74.522
X68.29Y70.872
X68.39Y73.322
X68.44Y59.422
X69.14Y69.922
X69.25Y59.7
X69.89Y79.472
X70.04Y59.772
X70.24Y21.622
X70.3Y24.242
X70.31Y10.052
X70.44Y75.222
X70.69Y64.822
X71.17Y9.092
X71.18Y11.342
X71.44Y61.872
X71.49Y60.572
X71.59Y76.822
X71.64Y59.522
X71.84Y53.072
X72.115Y37.397
X72.19Y20.672
X72.24Y32.572
X72.29Y49.372
X72.34Y67.022
X72.39Y94.472
X72.39Y44.472
X72.39Y34.472
X72.39Y24.472
X72.39Y14.472
X72.44Y43.172
X72.92Y10.682
X73.04Y53.522
X73.39Y17.522
X73.49Y65.922
X74.04Y59.522
X74.19Y79.022
X74.59Y36.472
X74.89Y49.472
X75.34Y43.372
X75.84Y77.622
X76.09Y66.622
X76.69Y68.672
X76.89Y28.122
X77.39Y94.472
X77.39Y55.222
X77.39Y34.472
X77.39Y24.472
X77.39Y14.472
X77.44Y68.172
X77.54Y62.522
X77.89Y64.872
X78.59Y74.972
X79.04Y69.572
X79.19Y57.722
X79.54Y64.772
X79.59Y27.072
X79.89Y19.472
X79.94Y23.222
X81.14Y71.572
X81.44Y57.672
X81.79Y39.322
X82.24Y55.172
X82.39Y94.472
X82.39Y74.472
X82.39Y44.472
X82.39Y34.472
X82.39Y24.472
X82.39Y14.472
X82.54Y49.572
X84.34Y39.172
X84.89Y69.472
X84.89Y19.472
X85.04Y23.022
X85.34Y45.322
X86.34Y50.472
X87.39Y94.472
X87.39Y44.472
X87.39Y34.472
X87.39Y24.472
X87.49Y53.972
X87.69Y50.372
X89.94Y39.122
X89.99Y24.222
X92.39Y94.472
X92.39Y44.472
X92.39Y24.472
X92.44Y35.272
X92.64Y74.622
X92.99Y69.722
X92.99Y59.672
X93.14Y64.472
X94.04Y54.522
X94.89Y39.122
X94.89Y9.472
X95.39Y69.822
X97.19Y59.422
X97.39Y94.472
X97.39Y74.722
X97.39Y64.472
X97.39Y54.472
X97.39Y44.472
X97.39Y24.472
X97.39Y4.472
X98.14Y34.672
X98.24Y29.522
X98.59Y49.372
X99.04Y13.722
T4
X45.15Y57.05
X45.15Y54.5
X45.2Y55.9
X45.25Y53.2
X46.4Y57.05
X46.4Y54.45
X46.4Y53.25
X46.55Y55.85
X47.8Y57.0
X47.8Y55.85
X47.8Y54.4
X47.85Y53.3
X48.85Y53.25
X48.9Y54.45
X48.95Y56.95
X49.0Y55.85
X59.55Y57.1
X59.55Y54.55
X59.6Y55.8
X59.6Y53.2
X60.75Y55.8
X60.75Y53.15
X60.8Y57.05
X60.8Y54.45
X62.1Y57.05
X62.2Y55.85
X62.2Y54.35
X62.25Y53.15
X63.3Y54.3
X63.3Y53.2
X63.35Y57.0
X63.4Y55.9
T5
X78.87Y47.71
X78.87Y46.44
X78.87Y40.25
X78.87Y38.98
T6
X77.6Y48.345
X77.6Y45.805
X77.6Y40.885
X77.6Y38.345
X80.14Y48.345
X80.14Y45.805
X80.14Y40.885
X80.14Y38.345
T7
X10.5Y26.9
X15.7Y86.4
X20.9Y96.7
X21.6Y27.0
X22.9Y85.8
X25.0Y86.4
X26.5Y88.4
X27.4Y86.6
X34.3Y90.3
X34.4Y86.7
X35.5Y1.4
X36.45Y13.45
X38.25Y25.75
X45.9Y1.5
X48.92Y9.5
X48.93Y11.61
X53.2Y43.2
X53.2Y40.45
X53.35Y37.9
X55.6Y43.15
X55.65Y40.6
X55.9Y37.85
X58.1Y43.2
X58.2Y40.6
X58.3Y37.8
X67.41Y10.31
X69.07Y11.73
X70.4Y1.6
X70.9Y88.3
X70.9Y86.1
X81.3Y1.4
X87.6Y91.0
T8
X4.8Y31.97
X4.8Y29.43
X11.13Y95.2
X13.67Y95.2
X28.13Y3.8
X30.67Y3.8
X40.83Y95.3
X43.37Y95.3
X86.53Y4.1
X89.07Y4.1
X94.0Y85.77
X94.0Y83.23
T9
X8.74Y18.67
X8.74Y16.13
X11.28Y18.67
X11.28Y16.13
X13.82Y18.67
X13.82Y16.13
X16.36Y18.67
X16.36Y16.13
X18.9Y18.67
X18.9Y16.13
X21.44Y18.67
X21.44Y16.13
X87.28Y73.6
X87.28Y71.06
X87.28Y68.52
X87.28Y65.98
X87.28Y63.44
X87.28Y60.9
X87.28Y58.36
X89.82Y73.6
X89.82Y71.06
X89.82Y68.52
X89.82Y65.98
X89.82Y63.44
X89.82Y60.9
X89.82Y58.36
T10
X7.31Y84.91
X7.31Y79.83
X9.13Y70.45
X9.13Y65.37
X12.39Y84.91
X12.39Y79.83
X14.21Y70.45
X14.21Y65.37
X43.39Y76.54
X43.39Y71.46
X48.47Y76.54
X48.47Y71.46
X50.25Y20.81
X50.25Y15.73
X50.4Y92.54
X50.4Y87.46
X55.33Y20.81
X55.33Y15.73
X55.48Y92.54
X55.48Y87.46
X57.66Y76.54
X57.66Y71.46
X62.02Y20.378
X62.02Y15.298
X62.74Y76.54
X62.74Y71.46
X67.1Y20.378
X67.1Y15.298
X70.788Y71.98
X74.38Y75.572
X74.38Y68.388
X77.972Y71.98
X90.17Y32.74
X90.17Y27.66
X90.17Y18.82
X90.17Y13.74
X90.32Y51.9
X90.32Y46.82
X95.25Y32.74
X95.25Y27.66
X95.25Y18.82
X95.25Y13.74
X95.4Y51.9
X95.4Y46.82
T11
X34.65Y64.9
M30
