%TF.GenerationSoftware,KiCad,Pcbnew,10.0.6*%
%TF.CreationDate,2026-10-09T01:10:44+03:00*%
%TF.ProjectId,RF_PA,52465f50-412e-46b6-9963-61645f706362,rev?*%
%TF.SameCoordinates,Original*%
%TF.FileFunction,AssemblyDrawing,Top*%
%FSLAX46Y46*%
G04 Gerber Fmt 4.6, Leading zero omitted, Abs format (unit mm)*
G04 Created by KiCad (PCBNEW 10.0.6) date 2026-10-09 01:10:44*
%MOMM*%
%LPD*%
G01*
G04 APERTURE LIST*
%ADD10C,0.071628*%
%ADD11C,0.093472*%
%ADD12C,0.091440*%
%ADD13C,0.152400*%
%ADD14C,0.000000*%
%ADD15C,0.101600*%
%ADD16C,0.100000*%
%ADD17C,0.001000*%
G04 APERTURE END LIST*
D10*
X25484617Y36330633D02*
X24913964Y35931176D01*
X25484617Y35645849D02*
X24286245Y35645849D01*
X24286245Y35645849D02*
X24286245Y36102372D01*
X24286245Y36102372D02*
X24343310Y36216503D01*
X24343310Y36216503D02*
X24400376Y36273568D01*
X24400376Y36273568D02*
X24514506Y36330633D01*
X24514506Y36330633D02*
X24685702Y36330633D01*
X24685702Y36330633D02*
X24799833Y36273568D01*
X24799833Y36273568D02*
X24856898Y36216503D01*
X24856898Y36216503D02*
X24913964Y36102372D01*
X24913964Y36102372D02*
X24913964Y35645849D01*
X25484617Y37471940D02*
X25484617Y36787156D01*
X25484617Y37129548D02*
X24286245Y37129548D01*
X24286245Y37129548D02*
X24457441Y37015417D01*
X24457441Y37015417D02*
X24571572Y36901287D01*
X24571572Y36901287D02*
X24628637Y36787156D01*
X24286245Y38213790D02*
X24286245Y38327920D01*
X24286245Y38327920D02*
X24343310Y38442051D01*
X24343310Y38442051D02*
X24400376Y38499116D01*
X24400376Y38499116D02*
X24514506Y38556182D01*
X24514506Y38556182D02*
X24742768Y38613247D01*
X24742768Y38613247D02*
X25028094Y38613247D01*
X25028094Y38613247D02*
X25256356Y38556182D01*
X25256356Y38556182D02*
X25370486Y38499116D01*
X25370486Y38499116D02*
X25427552Y38442051D01*
X25427552Y38442051D02*
X25484617Y38327920D01*
X25484617Y38327920D02*
X25484617Y38213790D01*
X25484617Y38213790D02*
X25427552Y38099659D01*
X25427552Y38099659D02*
X25370486Y38042594D01*
X25370486Y38042594D02*
X25256356Y37985528D01*
X25256356Y37985528D02*
X25028094Y37928463D01*
X25028094Y37928463D02*
X24742768Y37928463D01*
X24742768Y37928463D02*
X24514506Y37985528D01*
X24514506Y37985528D02*
X24400376Y38042594D01*
X24400376Y38042594D02*
X24343310Y38099659D01*
X24343310Y38099659D02*
X24286245Y38213790D01*
X24286245Y37765903D02*
X24286245Y37195249D01*
X24286245Y37195249D02*
X24856898Y37138184D01*
X24856898Y37138184D02*
X24799833Y37195249D01*
X24799833Y37195249D02*
X24742768Y37309380D01*
X24742768Y37309380D02*
X24742768Y37594707D01*
X24742768Y37594707D02*
X24799833Y37708837D01*
X24799833Y37708837D02*
X24856898Y37765903D01*
X24856898Y37765903D02*
X24971029Y37822968D01*
X24971029Y37822968D02*
X25256356Y37822968D01*
X25256356Y37822968D02*
X25370486Y37765903D01*
X25370486Y37765903D02*
X25427552Y37708837D01*
X25427552Y37708837D02*
X25484617Y37594707D01*
X25484617Y37594707D02*
X25484617Y37309380D01*
X25484617Y37309380D02*
X25427552Y37195249D01*
X25427552Y37195249D02*
X25370486Y37138184D01*
X25484617Y38336556D02*
X24685702Y38336556D01*
X24799833Y38336556D02*
X24742768Y38393622D01*
X24742768Y38393622D02*
X24685702Y38507752D01*
X24685702Y38507752D02*
X24685702Y38678948D01*
X24685702Y38678948D02*
X24742768Y38793079D01*
X24742768Y38793079D02*
X24856898Y38850144D01*
X24856898Y38850144D02*
X25484617Y38850144D01*
X24856898Y38850144D02*
X24742768Y38907210D01*
X24742768Y38907210D02*
X24685702Y39021340D01*
X24685702Y39021340D02*
X24685702Y39192536D01*
X24685702Y39192536D02*
X24742768Y39306667D01*
X24742768Y39306667D02*
X24856898Y39363732D01*
X24856898Y39363732D02*
X25484617Y39363732D01*
X25484617Y40619169D02*
X24913964Y40219712D01*
X25484617Y39934385D02*
X24286245Y39934385D01*
X24286245Y39934385D02*
X24286245Y40390908D01*
X24286245Y40390908D02*
X24343310Y40505039D01*
X24343310Y40505039D02*
X24400376Y40562104D01*
X24400376Y40562104D02*
X24514506Y40619169D01*
X24514506Y40619169D02*
X24685702Y40619169D01*
X24685702Y40619169D02*
X24799833Y40562104D01*
X24799833Y40562104D02*
X24856898Y40505039D01*
X24856898Y40505039D02*
X24913964Y40390908D01*
X24913964Y40390908D02*
X24913964Y39934385D01*
D11*
X21230720Y19520372D02*
X21342770Y19520372D01*
X21342770Y19520372D02*
X21454820Y19464347D01*
X21454820Y19464347D02*
X21510846Y19408322D01*
X21510846Y19408322D02*
X21566871Y19296272D01*
X21566871Y19296272D02*
X21622896Y19072171D01*
X21622896Y19072171D02*
X21622896Y18792046D01*
X21622896Y18792046D02*
X21566871Y18567945D01*
X21566871Y18567945D02*
X21510846Y18455895D01*
X21510846Y18455895D02*
X21454820Y18399870D01*
X21454820Y18399870D02*
X21342770Y18343844D01*
X21342770Y18343844D02*
X21230720Y18343844D01*
X21230720Y18343844D02*
X21118670Y18399870D01*
X21118670Y18399870D02*
X21062644Y18455895D01*
X21062644Y18455895D02*
X21006619Y18567945D01*
X21006619Y18567945D02*
X20950594Y18792046D01*
X20950594Y18792046D02*
X20950594Y19072171D01*
X20950594Y19072171D02*
X21006619Y19296272D01*
X21006619Y19296272D02*
X21062644Y19408322D01*
X21062644Y19408322D02*
X21118670Y19464347D01*
X21118670Y19464347D02*
X21230720Y19520372D01*
X22799424Y18343844D02*
X22407248Y18904096D01*
X22127122Y18343844D02*
X22127122Y19520372D01*
X22127122Y19520372D02*
X22575323Y19520372D01*
X22575323Y19520372D02*
X22687374Y19464347D01*
X22687374Y19464347D02*
X22743399Y19408322D01*
X22743399Y19408322D02*
X22799424Y19296272D01*
X22799424Y19296272D02*
X22799424Y19128196D01*
X22799424Y19128196D02*
X22743399Y19016146D01*
X22743399Y19016146D02*
X22687374Y18960121D01*
X22687374Y18960121D02*
X22575323Y18904096D01*
X22575323Y18904096D02*
X22127122Y18904096D01*
X12080720Y19420372D02*
X12192770Y19420372D01*
X12192770Y19420372D02*
X12304820Y19364347D01*
X12304820Y19364347D02*
X12360846Y19308322D01*
X12360846Y19308322D02*
X12416871Y19196272D01*
X12416871Y19196272D02*
X12472896Y18972171D01*
X12472896Y18972171D02*
X12472896Y18692046D01*
X12472896Y18692046D02*
X12416871Y18467945D01*
X12416871Y18467945D02*
X12360846Y18355895D01*
X12360846Y18355895D02*
X12304820Y18299870D01*
X12304820Y18299870D02*
X12192770Y18243844D01*
X12192770Y18243844D02*
X12080720Y18243844D01*
X12080720Y18243844D02*
X11968670Y18299870D01*
X11968670Y18299870D02*
X11912644Y18355895D01*
X11912644Y18355895D02*
X11856619Y18467945D01*
X11856619Y18467945D02*
X11800594Y18692046D01*
X11800594Y18692046D02*
X11800594Y18972171D01*
X11800594Y18972171D02*
X11856619Y19196272D01*
X11856619Y19196272D02*
X11912644Y19308322D01*
X11912644Y19308322D02*
X11968670Y19364347D01*
X11968670Y19364347D02*
X12080720Y19420372D01*
X13649424Y18243844D02*
X13257248Y18804096D01*
X12977122Y18243844D02*
X12977122Y19420372D01*
X12977122Y19420372D02*
X13425323Y19420372D01*
X13425323Y19420372D02*
X13537374Y19364347D01*
X13537374Y19364347D02*
X13593399Y19308322D01*
X13593399Y19308322D02*
X13649424Y19196272D01*
X13649424Y19196272D02*
X13649424Y19028196D01*
X13649424Y19028196D02*
X13593399Y18916146D01*
X13593399Y18916146D02*
X13537374Y18860121D01*
X13537374Y18860121D02*
X13425323Y18804096D01*
X13425323Y18804096D02*
X12977122Y18804096D01*
X11382896Y21043844D02*
X10710594Y21043844D01*
X11046745Y21043844D02*
X11046745Y22220372D01*
X11046745Y22220372D02*
X10934695Y22052297D01*
X10934695Y22052297D02*
X10822644Y21940247D01*
X10822644Y21940247D02*
X10710594Y21884222D01*
X12111223Y22220372D02*
X12223273Y22220372D01*
X12223273Y22220372D02*
X12335323Y22164347D01*
X12335323Y22164347D02*
X12391349Y22108322D01*
X12391349Y22108322D02*
X12447374Y21996272D01*
X12447374Y21996272D02*
X12503399Y21772171D01*
X12503399Y21772171D02*
X12503399Y21492046D01*
X12503399Y21492046D02*
X12447374Y21267945D01*
X12447374Y21267945D02*
X12391349Y21155895D01*
X12391349Y21155895D02*
X12335323Y21099870D01*
X12335323Y21099870D02*
X12223273Y21043844D01*
X12223273Y21043844D02*
X12111223Y21043844D01*
X12111223Y21043844D02*
X11999173Y21099870D01*
X11999173Y21099870D02*
X11943147Y21155895D01*
X11943147Y21155895D02*
X11887122Y21267945D01*
X11887122Y21267945D02*
X11831097Y21492046D01*
X11831097Y21492046D02*
X11831097Y21772171D01*
X11831097Y21772171D02*
X11887122Y21996272D01*
X11887122Y21996272D02*
X11943147Y22108322D01*
X11943147Y22108322D02*
X11999173Y22164347D01*
X11999173Y22164347D02*
X12111223Y22220372D01*
X13679927Y21043844D02*
X13287751Y21604096D01*
X13007625Y21043844D02*
X13007625Y22220372D01*
X13007625Y22220372D02*
X13455826Y22220372D01*
X13455826Y22220372D02*
X13567877Y22164347D01*
X13567877Y22164347D02*
X13623902Y22108322D01*
X13623902Y22108322D02*
X13679927Y21996272D01*
X13679927Y21996272D02*
X13679927Y21828196D01*
X13679927Y21828196D02*
X13623902Y21716146D01*
X13623902Y21716146D02*
X13567877Y21660121D01*
X13567877Y21660121D02*
X13455826Y21604096D01*
X13455826Y21604096D02*
X13007625Y21604096D01*
X6667896Y20638844D02*
X5995594Y20638844D01*
X6331745Y20638844D02*
X6331745Y21815372D01*
X6331745Y21815372D02*
X6219695Y21647297D01*
X6219695Y21647297D02*
X6107644Y21535247D01*
X6107644Y21535247D02*
X5995594Y21479222D01*
X7396223Y21815372D02*
X7508273Y21815372D01*
X7508273Y21815372D02*
X7620323Y21759347D01*
X7620323Y21759347D02*
X7676349Y21703322D01*
X7676349Y21703322D02*
X7732374Y21591272D01*
X7732374Y21591272D02*
X7788399Y21367171D01*
X7788399Y21367171D02*
X7788399Y21087046D01*
X7788399Y21087046D02*
X7732374Y20862945D01*
X7732374Y20862945D02*
X7676349Y20750895D01*
X7676349Y20750895D02*
X7620323Y20694870D01*
X7620323Y20694870D02*
X7508273Y20638844D01*
X7508273Y20638844D02*
X7396223Y20638844D01*
X7396223Y20638844D02*
X7284173Y20694870D01*
X7284173Y20694870D02*
X7228147Y20750895D01*
X7228147Y20750895D02*
X7172122Y20862945D01*
X7172122Y20862945D02*
X7116097Y21087046D01*
X7116097Y21087046D02*
X7116097Y21367171D01*
X7116097Y21367171D02*
X7172122Y21591272D01*
X7172122Y21591272D02*
X7228147Y21703322D01*
X7228147Y21703322D02*
X7284173Y21759347D01*
X7284173Y21759347D02*
X7396223Y21815372D01*
X8292625Y21423196D02*
X8292625Y20246668D01*
X8852877Y20806920D02*
X8908902Y20694870D01*
X8908902Y20694870D02*
X9020952Y20638844D01*
X8292625Y20806920D02*
X8348650Y20694870D01*
X8348650Y20694870D02*
X8460701Y20638844D01*
X8460701Y20638844D02*
X8684801Y20638844D01*
X8684801Y20638844D02*
X8796852Y20694870D01*
X8796852Y20694870D02*
X8852877Y20806920D01*
X8852877Y20806920D02*
X8852877Y21423196D01*
X9917354Y21255121D02*
X9525178Y21255121D01*
X9525178Y20638844D02*
X9525178Y21815372D01*
X9525178Y21815372D02*
X10085430Y21815372D01*
X1887233Y11330575D02*
X1214931Y11330575D01*
X1551082Y11330575D02*
X1551082Y12507103D01*
X1551082Y12507103D02*
X1439032Y12339028D01*
X1439032Y12339028D02*
X1326981Y12226978D01*
X1326981Y12226978D02*
X1214931Y12170953D01*
X2895686Y12114927D02*
X2895686Y11330575D01*
X2615560Y12563129D02*
X2335434Y11722751D01*
X2335434Y11722751D02*
X3063761Y11722751D01*
X3455937Y12395053D02*
X3511962Y12451078D01*
X3511962Y12451078D02*
X3624013Y12507103D01*
X3624013Y12507103D02*
X3904138Y12507103D01*
X3904138Y12507103D02*
X4016189Y12451078D01*
X4016189Y12451078D02*
X4072214Y12395053D01*
X4072214Y12395053D02*
X4128239Y12283003D01*
X4128239Y12283003D02*
X4128239Y12170953D01*
X4128239Y12170953D02*
X4072214Y12002877D01*
X4072214Y12002877D02*
X3399912Y11330575D01*
X3399912Y11330575D02*
X4128239Y11330575D01*
X4632465Y11778777D02*
X5528868Y11778777D01*
X6313220Y12507103D02*
X6425270Y12507103D01*
X6425270Y12507103D02*
X6537320Y12451078D01*
X6537320Y12451078D02*
X6593346Y12395053D01*
X6593346Y12395053D02*
X6649371Y12283003D01*
X6649371Y12283003D02*
X6705396Y12058902D01*
X6705396Y12058902D02*
X6705396Y11778777D01*
X6705396Y11778777D02*
X6649371Y11554676D01*
X6649371Y11554676D02*
X6593346Y11442626D01*
X6593346Y11442626D02*
X6537320Y11386601D01*
X6537320Y11386601D02*
X6425270Y11330575D01*
X6425270Y11330575D02*
X6313220Y11330575D01*
X6313220Y11330575D02*
X6201170Y11386601D01*
X6201170Y11386601D02*
X6145144Y11442626D01*
X6145144Y11442626D02*
X6089119Y11554676D01*
X6089119Y11554676D02*
X6033094Y11778777D01*
X6033094Y11778777D02*
X6033094Y12058902D01*
X6033094Y12058902D02*
X6089119Y12283003D01*
X6089119Y12283003D02*
X6145144Y12395053D01*
X6145144Y12395053D02*
X6201170Y12451078D01*
X6201170Y12451078D02*
X6313220Y12507103D01*
X7097572Y12507103D02*
X7881924Y12507103D01*
X7881924Y12507103D02*
X7377698Y11330575D01*
X8218075Y12507103D02*
X8946402Y12507103D01*
X8946402Y12507103D02*
X8554226Y12058902D01*
X8554226Y12058902D02*
X8722301Y12058902D01*
X8722301Y12058902D02*
X8834352Y12002877D01*
X8834352Y12002877D02*
X8890377Y11946852D01*
X8890377Y11946852D02*
X8946402Y11834802D01*
X8946402Y11834802D02*
X8946402Y11554676D01*
X8946402Y11554676D02*
X8890377Y11442626D01*
X8890377Y11442626D02*
X8834352Y11386601D01*
X8834352Y11386601D02*
X8722301Y11330575D01*
X8722301Y11330575D02*
X8386150Y11330575D01*
X8386150Y11330575D02*
X8274100Y11386601D01*
X8274100Y11386601D02*
X8218075Y11442626D01*
X10066905Y11330575D02*
X9394603Y11330575D01*
X9730754Y11330575D02*
X9730754Y12507103D01*
X9730754Y12507103D02*
X9618704Y12339028D01*
X9618704Y12339028D02*
X9506653Y12226978D01*
X9506653Y12226978D02*
X9394603Y12170953D01*
X10571131Y11778777D02*
X11467534Y11778777D01*
X11971760Y12395053D02*
X12027785Y12451078D01*
X12027785Y12451078D02*
X12139836Y12507103D01*
X12139836Y12507103D02*
X12419961Y12507103D01*
X12419961Y12507103D02*
X12532012Y12451078D01*
X12532012Y12451078D02*
X12588037Y12395053D01*
X12588037Y12395053D02*
X12644062Y12283003D01*
X12644062Y12283003D02*
X12644062Y12170953D01*
X12644062Y12170953D02*
X12588037Y12002877D01*
X12588037Y12002877D02*
X11915735Y11330575D01*
X11915735Y11330575D02*
X12644062Y11330575D01*
X13764565Y11330575D02*
X13092263Y11330575D01*
X13428414Y11330575D02*
X13428414Y12507103D01*
X13428414Y12507103D02*
X13316364Y12339028D01*
X13316364Y12339028D02*
X13204313Y12226978D01*
X13204313Y12226978D02*
X13092263Y12170953D01*
X14885068Y11330575D02*
X14212766Y11330575D01*
X14548917Y11330575D02*
X14548917Y12507103D01*
X14548917Y12507103D02*
X14436867Y12339028D01*
X14436867Y12339028D02*
X14324816Y12226978D01*
X14324816Y12226978D02*
X14212766Y12170953D01*
X9320720Y17140372D02*
X9432770Y17140372D01*
X9432770Y17140372D02*
X9544820Y17084347D01*
X9544820Y17084347D02*
X9600846Y17028322D01*
X9600846Y17028322D02*
X9656871Y16916272D01*
X9656871Y16916272D02*
X9712896Y16692171D01*
X9712896Y16692171D02*
X9712896Y16412046D01*
X9712896Y16412046D02*
X9656871Y16187945D01*
X9656871Y16187945D02*
X9600846Y16075895D01*
X9600846Y16075895D02*
X9544820Y16019870D01*
X9544820Y16019870D02*
X9432770Y15963844D01*
X9432770Y15963844D02*
X9320720Y15963844D01*
X9320720Y15963844D02*
X9208670Y16019870D01*
X9208670Y16019870D02*
X9152644Y16075895D01*
X9152644Y16075895D02*
X9096619Y16187945D01*
X9096619Y16187945D02*
X9040594Y16412046D01*
X9040594Y16412046D02*
X9040594Y16692171D01*
X9040594Y16692171D02*
X9096619Y16916272D01*
X9096619Y16916272D02*
X9152644Y17028322D01*
X9152644Y17028322D02*
X9208670Y17084347D01*
X9208670Y17084347D02*
X9320720Y17140372D01*
X10217122Y16075895D02*
X10273147Y16019870D01*
X10273147Y16019870D02*
X10217122Y15963844D01*
X10217122Y15963844D02*
X10161097Y16019870D01*
X10161097Y16019870D02*
X10217122Y16075895D01*
X10217122Y16075895D02*
X10217122Y15963844D01*
X11393650Y15963844D02*
X10721348Y15963844D01*
X11057499Y15963844D02*
X11057499Y17140372D01*
X11057499Y17140372D02*
X10945449Y16972297D01*
X10945449Y16972297D02*
X10833398Y16860247D01*
X10833398Y16860247D02*
X10721348Y16804222D01*
X11897876Y16748196D02*
X11897876Y15571668D01*
X12458128Y16131920D02*
X12514153Y16019870D01*
X12514153Y16019870D02*
X12626203Y15963844D01*
X11897876Y16131920D02*
X11953901Y16019870D01*
X11953901Y16019870D02*
X12065952Y15963844D01*
X12065952Y15963844D02*
X12290052Y15963844D01*
X12290052Y15963844D02*
X12402103Y16019870D01*
X12402103Y16019870D02*
X12458128Y16131920D01*
X12458128Y16131920D02*
X12458128Y16748196D01*
X13522605Y16580121D02*
X13130429Y16580121D01*
X13130429Y15963844D02*
X13130429Y17140372D01*
X13130429Y17140372D02*
X13690681Y17140372D01*
X18520720Y17520372D02*
X18632770Y17520372D01*
X18632770Y17520372D02*
X18744820Y17464347D01*
X18744820Y17464347D02*
X18800846Y17408322D01*
X18800846Y17408322D02*
X18856871Y17296272D01*
X18856871Y17296272D02*
X18912896Y17072171D01*
X18912896Y17072171D02*
X18912896Y16792046D01*
X18912896Y16792046D02*
X18856871Y16567945D01*
X18856871Y16567945D02*
X18800846Y16455895D01*
X18800846Y16455895D02*
X18744820Y16399870D01*
X18744820Y16399870D02*
X18632770Y16343844D01*
X18632770Y16343844D02*
X18520720Y16343844D01*
X18520720Y16343844D02*
X18408670Y16399870D01*
X18408670Y16399870D02*
X18352644Y16455895D01*
X18352644Y16455895D02*
X18296619Y16567945D01*
X18296619Y16567945D02*
X18240594Y16792046D01*
X18240594Y16792046D02*
X18240594Y17072171D01*
X18240594Y17072171D02*
X18296619Y17296272D01*
X18296619Y17296272D02*
X18352644Y17408322D01*
X18352644Y17408322D02*
X18408670Y17464347D01*
X18408670Y17464347D02*
X18520720Y17520372D01*
X20089424Y16343844D02*
X19697248Y16904096D01*
X19417122Y16343844D02*
X19417122Y17520372D01*
X19417122Y17520372D02*
X19865323Y17520372D01*
X19865323Y17520372D02*
X19977374Y17464347D01*
X19977374Y17464347D02*
X20033399Y17408322D01*
X20033399Y17408322D02*
X20089424Y17296272D01*
X20089424Y17296272D02*
X20089424Y17128196D01*
X20089424Y17128196D02*
X20033399Y17016146D01*
X20033399Y17016146D02*
X19977374Y16960121D01*
X19977374Y16960121D02*
X19865323Y16904096D01*
X19865323Y16904096D02*
X19417122Y16904096D01*
D12*
X3847325Y22902299D02*
X3803298Y22946326D01*
X3803298Y22946326D02*
X3759271Y23034379D01*
X3759271Y23034379D02*
X3759271Y23254513D01*
X3759271Y23254513D02*
X3803298Y23342566D01*
X3803298Y23342566D02*
X3847325Y23386593D01*
X3847325Y23386593D02*
X3935378Y23430619D01*
X3935378Y23430619D02*
X4023431Y23430619D01*
X4023431Y23430619D02*
X4155511Y23386593D01*
X4155511Y23386593D02*
X4683831Y22858273D01*
X4683831Y22858273D02*
X4683831Y23430619D01*
X3847325Y23782832D02*
X3803298Y23826859D01*
X3803298Y23826859D02*
X3759271Y23914912D01*
X3759271Y23914912D02*
X3759271Y24135046D01*
X3759271Y24135046D02*
X3803298Y24223099D01*
X3803298Y24223099D02*
X3847325Y24267126D01*
X3847325Y24267126D02*
X3935378Y24311152D01*
X3935378Y24311152D02*
X4023431Y24311152D01*
X4023431Y24311152D02*
X4155511Y24267126D01*
X4155511Y24267126D02*
X4683831Y23738806D01*
X4683831Y23738806D02*
X4683831Y24311152D01*
X4331618Y24707392D02*
X4331618Y25411819D01*
X3847325Y25808058D02*
X3803298Y25852085D01*
X3803298Y25852085D02*
X3759271Y25940138D01*
X3759271Y25940138D02*
X3759271Y26160272D01*
X3759271Y26160272D02*
X3803298Y26248325D01*
X3803298Y26248325D02*
X3847325Y26292352D01*
X3847325Y26292352D02*
X3935378Y26336378D01*
X3935378Y26336378D02*
X4023431Y26336378D01*
X4023431Y26336378D02*
X4155511Y26292352D01*
X4155511Y26292352D02*
X4683831Y25764032D01*
X4683831Y25764032D02*
X4683831Y26336378D01*
X3759271Y26644565D02*
X3759271Y27216911D01*
X3759271Y27216911D02*
X4111485Y26908725D01*
X4111485Y26908725D02*
X4111485Y27040805D01*
X4111485Y27040805D02*
X4155511Y27128858D01*
X4155511Y27128858D02*
X4199538Y27172885D01*
X4199538Y27172885D02*
X4287591Y27216911D01*
X4287591Y27216911D02*
X4507725Y27216911D01*
X4507725Y27216911D02*
X4595778Y27172885D01*
X4595778Y27172885D02*
X4639805Y27128858D01*
X4639805Y27128858D02*
X4683831Y27040805D01*
X4683831Y27040805D02*
X4683831Y26776645D01*
X4683831Y26776645D02*
X4639805Y26688591D01*
X4639805Y26688591D02*
X4595778Y26644565D01*
X4331618Y27613151D02*
X4331618Y28317578D01*
X3847325Y28713817D02*
X3803298Y28757844D01*
X3803298Y28757844D02*
X3759271Y28845897D01*
X3759271Y28845897D02*
X3759271Y29066031D01*
X3759271Y29066031D02*
X3803298Y29154084D01*
X3803298Y29154084D02*
X3847325Y29198111D01*
X3847325Y29198111D02*
X3935378Y29242137D01*
X3935378Y29242137D02*
X4023431Y29242137D01*
X4023431Y29242137D02*
X4155511Y29198111D01*
X4155511Y29198111D02*
X4683831Y28669791D01*
X4683831Y28669791D02*
X4683831Y29242137D01*
X3759271Y29814484D02*
X3759271Y29902537D01*
X3759271Y29902537D02*
X3803298Y29990590D01*
X3803298Y29990590D02*
X3847325Y30034617D01*
X3847325Y30034617D02*
X3935378Y30078644D01*
X3935378Y30078644D02*
X4111485Y30122670D01*
X4111485Y30122670D02*
X4331618Y30122670D01*
X4331618Y30122670D02*
X4507725Y30078644D01*
X4507725Y30078644D02*
X4595778Y30034617D01*
X4595778Y30034617D02*
X4639805Y29990590D01*
X4639805Y29990590D02*
X4683831Y29902537D01*
X4683831Y29902537D02*
X4683831Y29814484D01*
X4683831Y29814484D02*
X4639805Y29726430D01*
X4639805Y29726430D02*
X4595778Y29682404D01*
X4595778Y29682404D02*
X4507725Y29638377D01*
X4507725Y29638377D02*
X4331618Y29594350D01*
X4331618Y29594350D02*
X4111485Y29594350D01*
X4111485Y29594350D02*
X3935378Y29638377D01*
X3935378Y29638377D02*
X3847325Y29682404D01*
X3847325Y29682404D02*
X3803298Y29726430D01*
X3803298Y29726430D02*
X3759271Y29814484D01*
X3847325Y30474883D02*
X3803298Y30518910D01*
X3803298Y30518910D02*
X3759271Y30606963D01*
X3759271Y30606963D02*
X3759271Y30827097D01*
X3759271Y30827097D02*
X3803298Y30915150D01*
X3803298Y30915150D02*
X3847325Y30959177D01*
X3847325Y30959177D02*
X3935378Y31003203D01*
X3935378Y31003203D02*
X4023431Y31003203D01*
X4023431Y31003203D02*
X4155511Y30959177D01*
X4155511Y30959177D02*
X4683831Y30430857D01*
X4683831Y30430857D02*
X4683831Y31003203D01*
X4683831Y31883736D02*
X4683831Y31355416D01*
X4683831Y31619576D02*
X3759271Y31619576D01*
X3759271Y31619576D02*
X3891351Y31531523D01*
X3891351Y31531523D02*
X3979405Y31443470D01*
X3979405Y31443470D02*
X4023431Y31355416D01*
D11*
X13940701Y27933835D02*
X14052751Y27933835D01*
X14052751Y27933835D02*
X14164801Y27877810D01*
X14164801Y27877810D02*
X14220827Y27821785D01*
X14220827Y27821785D02*
X14276852Y27709735D01*
X14276852Y27709735D02*
X14332877Y27485634D01*
X14332877Y27485634D02*
X14332877Y27205509D01*
X14332877Y27205509D02*
X14276852Y26981408D01*
X14276852Y26981408D02*
X14220827Y26869358D01*
X14220827Y26869358D02*
X14164801Y26813333D01*
X14164801Y26813333D02*
X14052751Y26757307D01*
X14052751Y26757307D02*
X13940701Y26757307D01*
X13940701Y26757307D02*
X13828651Y26813333D01*
X13828651Y26813333D02*
X13772625Y26869358D01*
X13772625Y26869358D02*
X13716600Y26981408D01*
X13716600Y26981408D02*
X13660575Y27205509D01*
X13660575Y27205509D02*
X13660575Y27485634D01*
X13660575Y27485634D02*
X13716600Y27709735D01*
X13716600Y27709735D02*
X13772625Y27821785D01*
X13772625Y27821785D02*
X13828651Y27877810D01*
X13828651Y27877810D02*
X13940701Y27933835D01*
X15509405Y26757307D02*
X15117229Y27317559D01*
X14837103Y26757307D02*
X14837103Y27933835D01*
X14837103Y27933835D02*
X15285304Y27933835D01*
X15285304Y27933835D02*
X15397355Y27877810D01*
X15397355Y27877810D02*
X15453380Y27821785D01*
X15453380Y27821785D02*
X15509405Y27709735D01*
X15509405Y27709735D02*
X15509405Y27541659D01*
X15509405Y27541659D02*
X15453380Y27429609D01*
X15453380Y27429609D02*
X15397355Y27373584D01*
X15397355Y27373584D02*
X15285304Y27317559D01*
X15285304Y27317559D02*
X14837103Y27317559D01*
X22640720Y22920372D02*
X22752770Y22920372D01*
X22752770Y22920372D02*
X22864820Y22864347D01*
X22864820Y22864347D02*
X22920846Y22808322D01*
X22920846Y22808322D02*
X22976871Y22696272D01*
X22976871Y22696272D02*
X23032896Y22472171D01*
X23032896Y22472171D02*
X23032896Y22192046D01*
X23032896Y22192046D02*
X22976871Y21967945D01*
X22976871Y21967945D02*
X22920846Y21855895D01*
X22920846Y21855895D02*
X22864820Y21799870D01*
X22864820Y21799870D02*
X22752770Y21743844D01*
X22752770Y21743844D02*
X22640720Y21743844D01*
X22640720Y21743844D02*
X22528670Y21799870D01*
X22528670Y21799870D02*
X22472644Y21855895D01*
X22472644Y21855895D02*
X22416619Y21967945D01*
X22416619Y21967945D02*
X22360594Y22192046D01*
X22360594Y22192046D02*
X22360594Y22472171D01*
X22360594Y22472171D02*
X22416619Y22696272D01*
X22416619Y22696272D02*
X22472644Y22808322D01*
X22472644Y22808322D02*
X22528670Y22864347D01*
X22528670Y22864347D02*
X22640720Y22920372D01*
X24209424Y21743844D02*
X23817248Y22304096D01*
X23537122Y21743844D02*
X23537122Y22920372D01*
X23537122Y22920372D02*
X23985323Y22920372D01*
X23985323Y22920372D02*
X24097374Y22864347D01*
X24097374Y22864347D02*
X24153399Y22808322D01*
X24153399Y22808322D02*
X24209424Y22696272D01*
X24209424Y22696272D02*
X24209424Y22528196D01*
X24209424Y22528196D02*
X24153399Y22416146D01*
X24153399Y22416146D02*
X24097374Y22360121D01*
X24097374Y22360121D02*
X23985323Y22304096D01*
X23985323Y22304096D02*
X23537122Y22304096D01*
X20162896Y31592307D02*
X19490594Y31592307D01*
X19826745Y31592307D02*
X19826745Y32768835D01*
X19826745Y32768835D02*
X19714695Y32600760D01*
X19714695Y32600760D02*
X19602644Y32488710D01*
X19602644Y32488710D02*
X19490594Y32432685D01*
X20891223Y32768835D02*
X21003273Y32768835D01*
X21003273Y32768835D02*
X21115323Y32712810D01*
X21115323Y32712810D02*
X21171349Y32656785D01*
X21171349Y32656785D02*
X21227374Y32544735D01*
X21227374Y32544735D02*
X21283399Y32320634D01*
X21283399Y32320634D02*
X21283399Y32040509D01*
X21283399Y32040509D02*
X21227374Y31816408D01*
X21227374Y31816408D02*
X21171349Y31704358D01*
X21171349Y31704358D02*
X21115323Y31648333D01*
X21115323Y31648333D02*
X21003273Y31592307D01*
X21003273Y31592307D02*
X20891223Y31592307D01*
X20891223Y31592307D02*
X20779173Y31648333D01*
X20779173Y31648333D02*
X20723147Y31704358D01*
X20723147Y31704358D02*
X20667122Y31816408D01*
X20667122Y31816408D02*
X20611097Y32040509D01*
X20611097Y32040509D02*
X20611097Y32320634D01*
X20611097Y32320634D02*
X20667122Y32544735D01*
X20667122Y32544735D02*
X20723147Y32656785D01*
X20723147Y32656785D02*
X20779173Y32712810D01*
X20779173Y32712810D02*
X20891223Y32768835D01*
X21787625Y32376659D02*
X21787625Y31200131D01*
X22347877Y31760383D02*
X22403902Y31648333D01*
X22403902Y31648333D02*
X22515952Y31592307D01*
X21787625Y31760383D02*
X21843650Y31648333D01*
X21843650Y31648333D02*
X21955701Y31592307D01*
X21955701Y31592307D02*
X22179801Y31592307D01*
X22179801Y31592307D02*
X22291852Y31648333D01*
X22291852Y31648333D02*
X22347877Y31760383D01*
X22347877Y31760383D02*
X22347877Y32376659D01*
X23412354Y32208584D02*
X23020178Y32208584D01*
X23020178Y31592307D02*
X23020178Y32768835D01*
X23020178Y32768835D02*
X23580430Y32768835D01*
X12070720Y17120372D02*
X12182770Y17120372D01*
X12182770Y17120372D02*
X12294820Y17064347D01*
X12294820Y17064347D02*
X12350846Y17008322D01*
X12350846Y17008322D02*
X12406871Y16896272D01*
X12406871Y16896272D02*
X12462896Y16672171D01*
X12462896Y16672171D02*
X12462896Y16392046D01*
X12462896Y16392046D02*
X12406871Y16167945D01*
X12406871Y16167945D02*
X12350846Y16055895D01*
X12350846Y16055895D02*
X12294820Y15999870D01*
X12294820Y15999870D02*
X12182770Y15943844D01*
X12182770Y15943844D02*
X12070720Y15943844D01*
X12070720Y15943844D02*
X11958670Y15999870D01*
X11958670Y15999870D02*
X11902644Y16055895D01*
X11902644Y16055895D02*
X11846619Y16167945D01*
X11846619Y16167945D02*
X11790594Y16392046D01*
X11790594Y16392046D02*
X11790594Y16672171D01*
X11790594Y16672171D02*
X11846619Y16896272D01*
X11846619Y16896272D02*
X11902644Y17008322D01*
X11902644Y17008322D02*
X11958670Y17064347D01*
X11958670Y17064347D02*
X12070720Y17120372D01*
X13639424Y15943844D02*
X13247248Y16504096D01*
X12967122Y15943844D02*
X12967122Y17120372D01*
X12967122Y17120372D02*
X13415323Y17120372D01*
X13415323Y17120372D02*
X13527374Y17064347D01*
X13527374Y17064347D02*
X13583399Y17008322D01*
X13583399Y17008322D02*
X13639424Y16896272D01*
X13639424Y16896272D02*
X13639424Y16728196D01*
X13639424Y16728196D02*
X13583399Y16616146D01*
X13583399Y16616146D02*
X13527374Y16560121D01*
X13527374Y16560121D02*
X13415323Y16504096D01*
X13415323Y16504096D02*
X12967122Y16504096D01*
X9230720Y19440372D02*
X9342770Y19440372D01*
X9342770Y19440372D02*
X9454820Y19384347D01*
X9454820Y19384347D02*
X9510846Y19328322D01*
X9510846Y19328322D02*
X9566871Y19216272D01*
X9566871Y19216272D02*
X9622896Y18992171D01*
X9622896Y18992171D02*
X9622896Y18712046D01*
X9622896Y18712046D02*
X9566871Y18487945D01*
X9566871Y18487945D02*
X9510846Y18375895D01*
X9510846Y18375895D02*
X9454820Y18319870D01*
X9454820Y18319870D02*
X9342770Y18263844D01*
X9342770Y18263844D02*
X9230720Y18263844D01*
X9230720Y18263844D02*
X9118670Y18319870D01*
X9118670Y18319870D02*
X9062644Y18375895D01*
X9062644Y18375895D02*
X9006619Y18487945D01*
X9006619Y18487945D02*
X8950594Y18712046D01*
X8950594Y18712046D02*
X8950594Y18992171D01*
X8950594Y18992171D02*
X9006619Y19216272D01*
X9006619Y19216272D02*
X9062644Y19328322D01*
X9062644Y19328322D02*
X9118670Y19384347D01*
X9118670Y19384347D02*
X9230720Y19440372D01*
X10127122Y18375895D02*
X10183147Y18319870D01*
X10183147Y18319870D02*
X10127122Y18263844D01*
X10127122Y18263844D02*
X10071097Y18319870D01*
X10071097Y18319870D02*
X10127122Y18375895D01*
X10127122Y18375895D02*
X10127122Y18263844D01*
X11303650Y18263844D02*
X10631348Y18263844D01*
X10967499Y18263844D02*
X10967499Y19440372D01*
X10967499Y19440372D02*
X10855449Y19272297D01*
X10855449Y19272297D02*
X10743398Y19160247D01*
X10743398Y19160247D02*
X10631348Y19104222D01*
X11807876Y19048196D02*
X11807876Y17871668D01*
X12368128Y18431920D02*
X12424153Y18319870D01*
X12424153Y18319870D02*
X12536203Y18263844D01*
X11807876Y18431920D02*
X11863901Y18319870D01*
X11863901Y18319870D02*
X11975952Y18263844D01*
X11975952Y18263844D02*
X12200052Y18263844D01*
X12200052Y18263844D02*
X12312103Y18319870D01*
X12312103Y18319870D02*
X12368128Y18431920D01*
X12368128Y18431920D02*
X12368128Y19048196D01*
X13432605Y18880121D02*
X13040429Y18880121D01*
X13040429Y18263844D02*
X13040429Y19440372D01*
X13040429Y19440372D02*
X13600681Y19440372D01*
X26367896Y21028844D02*
X25695594Y21028844D01*
X26031745Y21028844D02*
X26031745Y22205372D01*
X26031745Y22205372D02*
X25919695Y22037297D01*
X25919695Y22037297D02*
X25807644Y21925247D01*
X25807644Y21925247D02*
X25695594Y21869222D01*
X27096223Y22205372D02*
X27208273Y22205372D01*
X27208273Y22205372D02*
X27320323Y22149347D01*
X27320323Y22149347D02*
X27376349Y22093322D01*
X27376349Y22093322D02*
X27432374Y21981272D01*
X27432374Y21981272D02*
X27488399Y21757171D01*
X27488399Y21757171D02*
X27488399Y21477046D01*
X27488399Y21477046D02*
X27432374Y21252945D01*
X27432374Y21252945D02*
X27376349Y21140895D01*
X27376349Y21140895D02*
X27320323Y21084870D01*
X27320323Y21084870D02*
X27208273Y21028844D01*
X27208273Y21028844D02*
X27096223Y21028844D01*
X27096223Y21028844D02*
X26984173Y21084870D01*
X26984173Y21084870D02*
X26928147Y21140895D01*
X26928147Y21140895D02*
X26872122Y21252945D01*
X26872122Y21252945D02*
X26816097Y21477046D01*
X26816097Y21477046D02*
X26816097Y21757171D01*
X26816097Y21757171D02*
X26872122Y21981272D01*
X26872122Y21981272D02*
X26928147Y22093322D01*
X26928147Y22093322D02*
X26984173Y22149347D01*
X26984173Y22149347D02*
X27096223Y22205372D01*
X27992625Y21813196D02*
X27992625Y20636668D01*
X28552877Y21196920D02*
X28608902Y21084870D01*
X28608902Y21084870D02*
X28720952Y21028844D01*
X27992625Y21196920D02*
X28048650Y21084870D01*
X28048650Y21084870D02*
X28160701Y21028844D01*
X28160701Y21028844D02*
X28384801Y21028844D01*
X28384801Y21028844D02*
X28496852Y21084870D01*
X28496852Y21084870D02*
X28552877Y21196920D01*
X28552877Y21196920D02*
X28552877Y21813196D01*
X29617354Y21645121D02*
X29225178Y21645121D01*
X29225178Y21028844D02*
X29225178Y22205372D01*
X29225178Y22205372D02*
X29785430Y22205372D01*
X24809424Y5707233D02*
X24809424Y5034931D01*
X24809424Y5371082D02*
X23632896Y5371082D01*
X23632896Y5371082D02*
X23800971Y5259032D01*
X23800971Y5259032D02*
X23913021Y5146981D01*
X23913021Y5146981D02*
X23969047Y5034931D01*
X24025072Y6715686D02*
X24809424Y6715686D01*
X23576871Y6435560D02*
X24417248Y6155434D01*
X24417248Y6155434D02*
X24417248Y6883761D01*
X23744946Y7275937D02*
X23688921Y7331962D01*
X23688921Y7331962D02*
X23632896Y7444013D01*
X23632896Y7444013D02*
X23632896Y7724138D01*
X23632896Y7724138D02*
X23688921Y7836189D01*
X23688921Y7836189D02*
X23744946Y7892214D01*
X23744946Y7892214D02*
X23856996Y7948239D01*
X23856996Y7948239D02*
X23969047Y7948239D01*
X23969047Y7948239D02*
X24137122Y7892214D01*
X24137122Y7892214D02*
X24809424Y7219912D01*
X24809424Y7219912D02*
X24809424Y7948239D01*
X24361223Y8452465D02*
X24361223Y9348868D01*
X23632896Y10133220D02*
X23632896Y10245270D01*
X23632896Y10245270D02*
X23688921Y10357320D01*
X23688921Y10357320D02*
X23744946Y10413346D01*
X23744946Y10413346D02*
X23856996Y10469371D01*
X23856996Y10469371D02*
X24081097Y10525396D01*
X24081097Y10525396D02*
X24361223Y10525396D01*
X24361223Y10525396D02*
X24585323Y10469371D01*
X24585323Y10469371D02*
X24697373Y10413346D01*
X24697373Y10413346D02*
X24753399Y10357320D01*
X24753399Y10357320D02*
X24809424Y10245270D01*
X24809424Y10245270D02*
X24809424Y10133220D01*
X24809424Y10133220D02*
X24753399Y10021170D01*
X24753399Y10021170D02*
X24697373Y9965144D01*
X24697373Y9965144D02*
X24585323Y9909119D01*
X24585323Y9909119D02*
X24361223Y9853094D01*
X24361223Y9853094D02*
X24081097Y9853094D01*
X24081097Y9853094D02*
X23856996Y9909119D01*
X23856996Y9909119D02*
X23744946Y9965144D01*
X23744946Y9965144D02*
X23688921Y10021170D01*
X23688921Y10021170D02*
X23632896Y10133220D01*
X23632896Y10917572D02*
X23632896Y11701924D01*
X23632896Y11701924D02*
X24809424Y11197698D01*
X23632896Y12038075D02*
X23632896Y12766402D01*
X23632896Y12766402D02*
X24081097Y12374226D01*
X24081097Y12374226D02*
X24081097Y12542301D01*
X24081097Y12542301D02*
X24137122Y12654352D01*
X24137122Y12654352D02*
X24193147Y12710377D01*
X24193147Y12710377D02*
X24305197Y12766402D01*
X24305197Y12766402D02*
X24585323Y12766402D01*
X24585323Y12766402D02*
X24697373Y12710377D01*
X24697373Y12710377D02*
X24753399Y12654352D01*
X24753399Y12654352D02*
X24809424Y12542301D01*
X24809424Y12542301D02*
X24809424Y12206150D01*
X24809424Y12206150D02*
X24753399Y12094100D01*
X24753399Y12094100D02*
X24697373Y12038075D01*
X24809424Y13886905D02*
X24809424Y13214603D01*
X24809424Y13550754D02*
X23632896Y13550754D01*
X23632896Y13550754D02*
X23800971Y13438704D01*
X23800971Y13438704D02*
X23913021Y13326653D01*
X23913021Y13326653D02*
X23969047Y13214603D01*
X24361223Y14391131D02*
X24361223Y15287534D01*
X23744946Y15791760D02*
X23688921Y15847785D01*
X23688921Y15847785D02*
X23632896Y15959836D01*
X23632896Y15959836D02*
X23632896Y16239961D01*
X23632896Y16239961D02*
X23688921Y16352012D01*
X23688921Y16352012D02*
X23744946Y16408037D01*
X23744946Y16408037D02*
X23856996Y16464062D01*
X23856996Y16464062D02*
X23969047Y16464062D01*
X23969047Y16464062D02*
X24137122Y16408037D01*
X24137122Y16408037D02*
X24809424Y15735735D01*
X24809424Y15735735D02*
X24809424Y16464062D01*
X24809424Y17584565D02*
X24809424Y16912263D01*
X24809424Y17248414D02*
X23632896Y17248414D01*
X23632896Y17248414D02*
X23800971Y17136364D01*
X23800971Y17136364D02*
X23913021Y17024313D01*
X23913021Y17024313D02*
X23969047Y16912263D01*
X24809424Y18705068D02*
X24809424Y18032766D01*
X24809424Y18368917D02*
X23632896Y18368917D01*
X23632896Y18368917D02*
X23800971Y18256867D01*
X23800971Y18256867D02*
X23913021Y18144816D01*
X23913021Y18144816D02*
X23969047Y18032766D01*
X14655469Y27933835D02*
X14767519Y27933835D01*
X14767519Y27933835D02*
X14879569Y27877810D01*
X14879569Y27877810D02*
X14935595Y27821785D01*
X14935595Y27821785D02*
X14991620Y27709735D01*
X14991620Y27709735D02*
X15047645Y27485634D01*
X15047645Y27485634D02*
X15047645Y27205509D01*
X15047645Y27205509D02*
X14991620Y26981408D01*
X14991620Y26981408D02*
X14935595Y26869358D01*
X14935595Y26869358D02*
X14879569Y26813333D01*
X14879569Y26813333D02*
X14767519Y26757307D01*
X14767519Y26757307D02*
X14655469Y26757307D01*
X14655469Y26757307D02*
X14543419Y26813333D01*
X14543419Y26813333D02*
X14487393Y26869358D01*
X14487393Y26869358D02*
X14431368Y26981408D01*
X14431368Y26981408D02*
X14375343Y27205509D01*
X14375343Y27205509D02*
X14375343Y27485634D01*
X14375343Y27485634D02*
X14431368Y27709735D01*
X14431368Y27709735D02*
X14487393Y27821785D01*
X14487393Y27821785D02*
X14543419Y27877810D01*
X14543419Y27877810D02*
X14655469Y27933835D01*
X15551871Y26869358D02*
X15607896Y26813333D01*
X15607896Y26813333D02*
X15551871Y26757307D01*
X15551871Y26757307D02*
X15495846Y26813333D01*
X15495846Y26813333D02*
X15551871Y26869358D01*
X15551871Y26869358D02*
X15551871Y26757307D01*
X16728399Y26757307D02*
X16056097Y26757307D01*
X16392248Y26757307D02*
X16392248Y27933835D01*
X16392248Y27933835D02*
X16280198Y27765760D01*
X16280198Y27765760D02*
X16168147Y27653710D01*
X16168147Y27653710D02*
X16056097Y27597685D01*
X17232625Y27541659D02*
X17232625Y26365131D01*
X17792877Y26925383D02*
X17848902Y26813333D01*
X17848902Y26813333D02*
X17960952Y26757307D01*
X17232625Y26925383D02*
X17288650Y26813333D01*
X17288650Y26813333D02*
X17400701Y26757307D01*
X17400701Y26757307D02*
X17624801Y26757307D01*
X17624801Y26757307D02*
X17736852Y26813333D01*
X17736852Y26813333D02*
X17792877Y26925383D01*
X17792877Y26925383D02*
X17792877Y27541659D01*
X18857354Y27373584D02*
X18465178Y27373584D01*
X18465178Y26757307D02*
X18465178Y27933835D01*
X18465178Y27933835D02*
X19025430Y27933835D01*
X16422374Y30977307D02*
X15750072Y30977307D01*
X16086223Y30977307D02*
X16086223Y32153835D01*
X16086223Y32153835D02*
X15974173Y31985760D01*
X15974173Y31985760D02*
X15862122Y31873710D01*
X15862122Y31873710D02*
X15750072Y31817685D01*
X17150701Y32153835D02*
X17262751Y32153835D01*
X17262751Y32153835D02*
X17374801Y32097810D01*
X17374801Y32097810D02*
X17430827Y32041785D01*
X17430827Y32041785D02*
X17486852Y31929735D01*
X17486852Y31929735D02*
X17542877Y31705634D01*
X17542877Y31705634D02*
X17542877Y31425509D01*
X17542877Y31425509D02*
X17486852Y31201408D01*
X17486852Y31201408D02*
X17430827Y31089358D01*
X17430827Y31089358D02*
X17374801Y31033333D01*
X17374801Y31033333D02*
X17262751Y30977307D01*
X17262751Y30977307D02*
X17150701Y30977307D01*
X17150701Y30977307D02*
X17038651Y31033333D01*
X17038651Y31033333D02*
X16982625Y31089358D01*
X16982625Y31089358D02*
X16926600Y31201408D01*
X16926600Y31201408D02*
X16870575Y31425509D01*
X16870575Y31425509D02*
X16870575Y31705634D01*
X16870575Y31705634D02*
X16926600Y31929735D01*
X16926600Y31929735D02*
X16982625Y32041785D01*
X16982625Y32041785D02*
X17038651Y32097810D01*
X17038651Y32097810D02*
X17150701Y32153835D01*
X18719405Y30977307D02*
X18327229Y31537559D01*
X18047103Y30977307D02*
X18047103Y32153835D01*
X18047103Y32153835D02*
X18495304Y32153835D01*
X18495304Y32153835D02*
X18607355Y32097810D01*
X18607355Y32097810D02*
X18663380Y32041785D01*
X18663380Y32041785D02*
X18719405Y31929735D01*
X18719405Y31929735D02*
X18719405Y31761659D01*
X18719405Y31761659D02*
X18663380Y31649609D01*
X18663380Y31649609D02*
X18607355Y31593584D01*
X18607355Y31593584D02*
X18495304Y31537559D01*
X18495304Y31537559D02*
X18047103Y31537559D01*
X24190720Y19540372D02*
X24302770Y19540372D01*
X24302770Y19540372D02*
X24414820Y19484347D01*
X24414820Y19484347D02*
X24470846Y19428322D01*
X24470846Y19428322D02*
X24526871Y19316272D01*
X24526871Y19316272D02*
X24582896Y19092171D01*
X24582896Y19092171D02*
X24582896Y18812046D01*
X24582896Y18812046D02*
X24526871Y18587945D01*
X24526871Y18587945D02*
X24470846Y18475895D01*
X24470846Y18475895D02*
X24414820Y18419870D01*
X24414820Y18419870D02*
X24302770Y18363844D01*
X24302770Y18363844D02*
X24190720Y18363844D01*
X24190720Y18363844D02*
X24078670Y18419870D01*
X24078670Y18419870D02*
X24022644Y18475895D01*
X24022644Y18475895D02*
X23966619Y18587945D01*
X23966619Y18587945D02*
X23910594Y18812046D01*
X23910594Y18812046D02*
X23910594Y19092171D01*
X23910594Y19092171D02*
X23966619Y19316272D01*
X23966619Y19316272D02*
X24022644Y19428322D01*
X24022644Y19428322D02*
X24078670Y19484347D01*
X24078670Y19484347D02*
X24190720Y19540372D01*
X25087122Y18475895D02*
X25143147Y18419870D01*
X25143147Y18419870D02*
X25087122Y18363844D01*
X25087122Y18363844D02*
X25031097Y18419870D01*
X25031097Y18419870D02*
X25087122Y18475895D01*
X25087122Y18475895D02*
X25087122Y18363844D01*
X26263650Y18363844D02*
X25591348Y18363844D01*
X25927499Y18363844D02*
X25927499Y19540372D01*
X25927499Y19540372D02*
X25815449Y19372297D01*
X25815449Y19372297D02*
X25703398Y19260247D01*
X25703398Y19260247D02*
X25591348Y19204222D01*
X26767876Y19148196D02*
X26767876Y17971668D01*
X27328128Y18531920D02*
X27384153Y18419870D01*
X27384153Y18419870D02*
X27496203Y18363844D01*
X26767876Y18531920D02*
X26823901Y18419870D01*
X26823901Y18419870D02*
X26935952Y18363844D01*
X26935952Y18363844D02*
X27160052Y18363844D01*
X27160052Y18363844D02*
X27272103Y18419870D01*
X27272103Y18419870D02*
X27328128Y18531920D01*
X27328128Y18531920D02*
X27328128Y19148196D01*
X28392605Y18980121D02*
X28000429Y18980121D01*
X28000429Y18363844D02*
X28000429Y19540372D01*
X28000429Y19540372D02*
X28560681Y19540372D01*
D12*
X10847325Y35692299D02*
X10803298Y35736326D01*
X10803298Y35736326D02*
X10759271Y35824379D01*
X10759271Y35824379D02*
X10759271Y36044513D01*
X10759271Y36044513D02*
X10803298Y36132566D01*
X10803298Y36132566D02*
X10847325Y36176593D01*
X10847325Y36176593D02*
X10935378Y36220619D01*
X10935378Y36220619D02*
X11023431Y36220619D01*
X11023431Y36220619D02*
X11155511Y36176593D01*
X11155511Y36176593D02*
X11683831Y35648273D01*
X11683831Y35648273D02*
X11683831Y36220619D01*
X10847325Y36572832D02*
X10803298Y36616859D01*
X10803298Y36616859D02*
X10759271Y36704912D01*
X10759271Y36704912D02*
X10759271Y36925046D01*
X10759271Y36925046D02*
X10803298Y37013099D01*
X10803298Y37013099D02*
X10847325Y37057126D01*
X10847325Y37057126D02*
X10935378Y37101152D01*
X10935378Y37101152D02*
X11023431Y37101152D01*
X11023431Y37101152D02*
X11155511Y37057126D01*
X11155511Y37057126D02*
X11683831Y36528806D01*
X11683831Y36528806D02*
X11683831Y37101152D01*
X11331618Y37497392D02*
X11331618Y38201819D01*
X10847325Y38598058D02*
X10803298Y38642085D01*
X10803298Y38642085D02*
X10759271Y38730138D01*
X10759271Y38730138D02*
X10759271Y38950272D01*
X10759271Y38950272D02*
X10803298Y39038325D01*
X10803298Y39038325D02*
X10847325Y39082352D01*
X10847325Y39082352D02*
X10935378Y39126378D01*
X10935378Y39126378D02*
X11023431Y39126378D01*
X11023431Y39126378D02*
X11155511Y39082352D01*
X11155511Y39082352D02*
X11683831Y38554032D01*
X11683831Y38554032D02*
X11683831Y39126378D01*
X10759271Y39434565D02*
X10759271Y40006911D01*
X10759271Y40006911D02*
X11111485Y39698725D01*
X11111485Y39698725D02*
X11111485Y39830805D01*
X11111485Y39830805D02*
X11155511Y39918858D01*
X11155511Y39918858D02*
X11199538Y39962885D01*
X11199538Y39962885D02*
X11287591Y40006911D01*
X11287591Y40006911D02*
X11507725Y40006911D01*
X11507725Y40006911D02*
X11595778Y39962885D01*
X11595778Y39962885D02*
X11639805Y39918858D01*
X11639805Y39918858D02*
X11683831Y39830805D01*
X11683831Y39830805D02*
X11683831Y39566645D01*
X11683831Y39566645D02*
X11639805Y39478591D01*
X11639805Y39478591D02*
X11595778Y39434565D01*
X11331618Y40403151D02*
X11331618Y41107578D01*
X10847325Y41503817D02*
X10803298Y41547844D01*
X10803298Y41547844D02*
X10759271Y41635897D01*
X10759271Y41635897D02*
X10759271Y41856031D01*
X10759271Y41856031D02*
X10803298Y41944084D01*
X10803298Y41944084D02*
X10847325Y41988111D01*
X10847325Y41988111D02*
X10935378Y42032137D01*
X10935378Y42032137D02*
X11023431Y42032137D01*
X11023431Y42032137D02*
X11155511Y41988111D01*
X11155511Y41988111D02*
X11683831Y41459791D01*
X11683831Y41459791D02*
X11683831Y42032137D01*
X10759271Y42604484D02*
X10759271Y42692537D01*
X10759271Y42692537D02*
X10803298Y42780590D01*
X10803298Y42780590D02*
X10847325Y42824617D01*
X10847325Y42824617D02*
X10935378Y42868644D01*
X10935378Y42868644D02*
X11111485Y42912670D01*
X11111485Y42912670D02*
X11331618Y42912670D01*
X11331618Y42912670D02*
X11507725Y42868644D01*
X11507725Y42868644D02*
X11595778Y42824617D01*
X11595778Y42824617D02*
X11639805Y42780590D01*
X11639805Y42780590D02*
X11683831Y42692537D01*
X11683831Y42692537D02*
X11683831Y42604484D01*
X11683831Y42604484D02*
X11639805Y42516430D01*
X11639805Y42516430D02*
X11595778Y42472404D01*
X11595778Y42472404D02*
X11507725Y42428377D01*
X11507725Y42428377D02*
X11331618Y42384350D01*
X11331618Y42384350D02*
X11111485Y42384350D01*
X11111485Y42384350D02*
X10935378Y42428377D01*
X10935378Y42428377D02*
X10847325Y42472404D01*
X10847325Y42472404D02*
X10803298Y42516430D01*
X10803298Y42516430D02*
X10759271Y42604484D01*
X10759271Y43220857D02*
X10759271Y43793203D01*
X10759271Y43793203D02*
X11111485Y43485017D01*
X11111485Y43485017D02*
X11111485Y43617097D01*
X11111485Y43617097D02*
X11155511Y43705150D01*
X11155511Y43705150D02*
X11199538Y43749177D01*
X11199538Y43749177D02*
X11287591Y43793203D01*
X11287591Y43793203D02*
X11507725Y43793203D01*
X11507725Y43793203D02*
X11595778Y43749177D01*
X11595778Y43749177D02*
X11639805Y43705150D01*
X11639805Y43705150D02*
X11683831Y43617097D01*
X11683831Y43617097D02*
X11683831Y43352937D01*
X11683831Y43352937D02*
X11639805Y43264883D01*
X11639805Y43264883D02*
X11595778Y43220857D01*
X11683831Y44673736D02*
X11683831Y44145416D01*
X11683831Y44409576D02*
X10759271Y44409576D01*
X10759271Y44409576D02*
X10891351Y44321523D01*
X10891351Y44321523D02*
X10979405Y44233470D01*
X10979405Y44233470D02*
X11023431Y44145416D01*
D11*
X21180720Y17540372D02*
X21292770Y17540372D01*
X21292770Y17540372D02*
X21404820Y17484347D01*
X21404820Y17484347D02*
X21460846Y17428322D01*
X21460846Y17428322D02*
X21516871Y17316272D01*
X21516871Y17316272D02*
X21572896Y17092171D01*
X21572896Y17092171D02*
X21572896Y16812046D01*
X21572896Y16812046D02*
X21516871Y16587945D01*
X21516871Y16587945D02*
X21460846Y16475895D01*
X21460846Y16475895D02*
X21404820Y16419870D01*
X21404820Y16419870D02*
X21292770Y16363844D01*
X21292770Y16363844D02*
X21180720Y16363844D01*
X21180720Y16363844D02*
X21068670Y16419870D01*
X21068670Y16419870D02*
X21012644Y16475895D01*
X21012644Y16475895D02*
X20956619Y16587945D01*
X20956619Y16587945D02*
X20900594Y16812046D01*
X20900594Y16812046D02*
X20900594Y17092171D01*
X20900594Y17092171D02*
X20956619Y17316272D01*
X20956619Y17316272D02*
X21012644Y17428322D01*
X21012644Y17428322D02*
X21068670Y17484347D01*
X21068670Y17484347D02*
X21180720Y17540372D01*
X22077122Y16475895D02*
X22133147Y16419870D01*
X22133147Y16419870D02*
X22077122Y16363844D01*
X22077122Y16363844D02*
X22021097Y16419870D01*
X22021097Y16419870D02*
X22077122Y16475895D01*
X22077122Y16475895D02*
X22077122Y16363844D01*
X23253650Y16363844D02*
X22581348Y16363844D01*
X22917499Y16363844D02*
X22917499Y17540372D01*
X22917499Y17540372D02*
X22805449Y17372297D01*
X22805449Y17372297D02*
X22693398Y17260247D01*
X22693398Y17260247D02*
X22581348Y17204222D01*
X23757876Y17148196D02*
X23757876Y15971668D01*
X24318128Y16531920D02*
X24374153Y16419870D01*
X24374153Y16419870D02*
X24486203Y16363844D01*
X23757876Y16531920D02*
X23813901Y16419870D01*
X23813901Y16419870D02*
X23925952Y16363844D01*
X23925952Y16363844D02*
X24150052Y16363844D01*
X24150052Y16363844D02*
X24262103Y16419870D01*
X24262103Y16419870D02*
X24318128Y16531920D01*
X24318128Y16531920D02*
X24318128Y17148196D01*
X25382605Y16980121D02*
X24990429Y16980121D01*
X24990429Y16363844D02*
X24990429Y17540372D01*
X24990429Y17540372D02*
X25550681Y17540372D01*
X13146164Y20160701D02*
X13146164Y20272751D01*
X13146164Y20272751D02*
X13202189Y20384801D01*
X13202189Y20384801D02*
X13258214Y20440827D01*
X13258214Y20440827D02*
X13370264Y20496852D01*
X13370264Y20496852D02*
X13594365Y20552877D01*
X13594365Y20552877D02*
X13874491Y20552877D01*
X13874491Y20552877D02*
X14098591Y20496852D01*
X14098591Y20496852D02*
X14210641Y20440827D01*
X14210641Y20440827D02*
X14266667Y20384801D01*
X14266667Y20384801D02*
X14322692Y20272751D01*
X14322692Y20272751D02*
X14322692Y20160701D01*
X14322692Y20160701D02*
X14266667Y20048651D01*
X14266667Y20048651D02*
X14210641Y19992625D01*
X14210641Y19992625D02*
X14098591Y19936600D01*
X14098591Y19936600D02*
X13874491Y19880575D01*
X13874491Y19880575D02*
X13594365Y19880575D01*
X13594365Y19880575D02*
X13370264Y19936600D01*
X13370264Y19936600D02*
X13258214Y19992625D01*
X13258214Y19992625D02*
X13202189Y20048651D01*
X13202189Y20048651D02*
X13146164Y20160701D01*
X14322692Y21729405D02*
X13762440Y21337229D01*
X14322692Y21057103D02*
X13146164Y21057103D01*
X13146164Y21057103D02*
X13146164Y21505304D01*
X13146164Y21505304D02*
X13202189Y21617355D01*
X13202189Y21617355D02*
X13258214Y21673380D01*
X13258214Y21673380D02*
X13370264Y21729405D01*
X13370264Y21729405D02*
X13538340Y21729405D01*
X13538340Y21729405D02*
X13650390Y21673380D01*
X13650390Y21673380D02*
X13706415Y21617355D01*
X13706415Y21617355D02*
X13762440Y21505304D01*
X13762440Y21505304D02*
X13762440Y21057103D01*
X11665469Y25233835D02*
X11777519Y25233835D01*
X11777519Y25233835D02*
X11889569Y25177810D01*
X11889569Y25177810D02*
X11945595Y25121785D01*
X11945595Y25121785D02*
X12001620Y25009735D01*
X12001620Y25009735D02*
X12057645Y24785634D01*
X12057645Y24785634D02*
X12057645Y24505509D01*
X12057645Y24505509D02*
X12001620Y24281408D01*
X12001620Y24281408D02*
X11945595Y24169358D01*
X11945595Y24169358D02*
X11889569Y24113333D01*
X11889569Y24113333D02*
X11777519Y24057307D01*
X11777519Y24057307D02*
X11665469Y24057307D01*
X11665469Y24057307D02*
X11553419Y24113333D01*
X11553419Y24113333D02*
X11497393Y24169358D01*
X11497393Y24169358D02*
X11441368Y24281408D01*
X11441368Y24281408D02*
X11385343Y24505509D01*
X11385343Y24505509D02*
X11385343Y24785634D01*
X11385343Y24785634D02*
X11441368Y25009735D01*
X11441368Y25009735D02*
X11497393Y25121785D01*
X11497393Y25121785D02*
X11553419Y25177810D01*
X11553419Y25177810D02*
X11665469Y25233835D01*
X12561871Y24169358D02*
X12617896Y24113333D01*
X12617896Y24113333D02*
X12561871Y24057307D01*
X12561871Y24057307D02*
X12505846Y24113333D01*
X12505846Y24113333D02*
X12561871Y24169358D01*
X12561871Y24169358D02*
X12561871Y24057307D01*
X13738399Y24057307D02*
X13066097Y24057307D01*
X13402248Y24057307D02*
X13402248Y25233835D01*
X13402248Y25233835D02*
X13290198Y25065760D01*
X13290198Y25065760D02*
X13178147Y24953710D01*
X13178147Y24953710D02*
X13066097Y24897685D01*
X14242625Y24841659D02*
X14242625Y23665131D01*
X14802877Y24225383D02*
X14858902Y24113333D01*
X14858902Y24113333D02*
X14970952Y24057307D01*
X14242625Y24225383D02*
X14298650Y24113333D01*
X14298650Y24113333D02*
X14410701Y24057307D01*
X14410701Y24057307D02*
X14634801Y24057307D01*
X14634801Y24057307D02*
X14746852Y24113333D01*
X14746852Y24113333D02*
X14802877Y24225383D01*
X14802877Y24225383D02*
X14802877Y24841659D01*
X15867354Y24673584D02*
X15475178Y24673584D01*
X15475178Y24057307D02*
X15475178Y25233835D01*
X15475178Y25233835D02*
X16035430Y25233835D01*
%TO.C,R10*%
D13*
X22764800Y42273000D02*
X22764800Y39529800D01*
X22764800Y39529800D02*
X22764800Y37650200D01*
X22764800Y39529800D02*
X27209800Y39529800D01*
X22764800Y37650200D02*
X22764800Y34907000D01*
X22764800Y34907000D02*
X27235200Y34907000D01*
X27209800Y42273000D02*
X22764800Y42273000D01*
X27209800Y39529800D02*
X27209800Y42273000D01*
X27235200Y42273000D02*
X27209800Y42273000D01*
X27235200Y37650200D02*
X22764800Y37650200D01*
X27235200Y37650200D02*
X27235200Y42273000D01*
X27235200Y34907000D02*
X27235200Y37650200D01*
%TO.C,R8*%
X21055000Y20324000D02*
X21545000Y20324000D01*
X21545000Y19876000D02*
X21055000Y19876000D01*
D14*
G36*
X21046000Y19795200D02*
G01*
X20746000Y19795200D01*
X20746000Y20395100D01*
X21046000Y20395100D01*
X21046000Y19795200D01*
G37*
G36*
X21858800Y19795200D02*
G01*
X21558800Y19795200D01*
X21558800Y20395100D01*
X21858800Y20395100D01*
X21858800Y19795200D01*
G37*
%TO.C,UNK22V0*%
D13*
X18209800Y53108000D02*
X18590800Y53108000D01*
X18209800Y51965000D02*
X21511800Y51965000D01*
X21511800Y53108000D02*
X21130800Y53108000D01*
X21511800Y52346000D02*
X18209800Y52346000D01*
X23213600Y53108000D02*
X23594600Y53108000D01*
X23213600Y52346000D02*
X26515600Y52346000D01*
X26515600Y53108000D02*
X26134600Y53108000D01*
X26515600Y51965000D02*
X23213600Y51965000D01*
D14*
G36*
X21130800Y52346000D02*
G01*
X18590800Y52346000D01*
X18590800Y55140000D01*
X21130800Y55140000D01*
X21130800Y52346000D01*
G37*
G36*
X26134600Y52346000D02*
G01*
X23594600Y52346000D01*
X23594600Y55140000D01*
X26134600Y55140000D01*
X26134600Y52346000D01*
G37*
%TO.C,R2*%
D13*
X11905000Y20224000D02*
X12395000Y20224000D01*
X12395000Y19776000D02*
X11905000Y19776000D01*
D14*
G36*
X11896000Y19695200D02*
G01*
X11596000Y19695200D01*
X11596000Y20295100D01*
X11896000Y20295100D01*
X11896000Y19695200D01*
G37*
G36*
X12708800Y19695200D02*
G01*
X12408800Y19695200D01*
X12408800Y20295100D01*
X12708800Y20295100D01*
X12708800Y19695200D01*
G37*
%TO.C,R1*%
D13*
X10815000Y23024000D02*
X11305000Y23024000D01*
X11305000Y22576000D02*
X10815000Y22576000D01*
D14*
G36*
X10806000Y22495200D02*
G01*
X10506000Y22495200D01*
X10506000Y23095100D01*
X10806000Y23095100D01*
X10806000Y22495200D01*
G37*
G36*
X11618800Y22495200D02*
G01*
X11318800Y22495200D01*
X11318800Y23095100D01*
X11618800Y23095100D01*
X11618800Y22495200D01*
G37*
%TO.C,C1*%
D15*
X6015000Y23817000D02*
X7945000Y23817000D01*
X6015000Y22243000D02*
X7945000Y22243000D01*
D14*
G36*
X6028300Y22179100D02*
G01*
X5278200Y22179100D01*
X5278200Y23879100D01*
X6028300Y23879100D01*
X6028300Y22179100D01*
G37*
G36*
X8681800Y22180900D02*
G01*
X7931700Y22180900D01*
X7931700Y23880900D01*
X8681800Y23880900D01*
X8681800Y22180900D01*
G37*
%TO.C,J1*%
D16*
X3615000Y16305000D02*
X12485000Y16305000D01*
X3615000Y7435000D02*
X3615000Y16305000D01*
X5053000Y14867000D02*
X11047000Y14867000D01*
X5053000Y8873000D02*
X5053000Y14867000D01*
X11047000Y14867000D02*
X11047000Y8873000D01*
X11047000Y8873000D02*
X5053000Y8873000D01*
X12485000Y16305000D02*
X12485000Y7435000D01*
X12485000Y7435000D02*
X3615000Y7435000D01*
%TO.C,C3*%
D13*
X9145000Y17944000D02*
X9635000Y17944000D01*
X9635000Y17496000D02*
X9145000Y17496000D01*
D14*
G36*
X9136000Y17415200D02*
G01*
X8836000Y17415200D01*
X8836000Y18015100D01*
X9136000Y18015100D01*
X9136000Y17415200D01*
G37*
G36*
X9948800Y17415200D02*
G01*
X9648800Y17415200D01*
X9648800Y18015100D01*
X9948800Y18015100D01*
X9948800Y17415200D01*
G37*
%TO.C,R9*%
D13*
X18345000Y18324000D02*
X18835000Y18324000D01*
X18835000Y17876000D02*
X18345000Y17876000D01*
D14*
G36*
X18336000Y17795200D02*
G01*
X18036000Y17795200D01*
X18036000Y18395100D01*
X18336000Y18395100D01*
X18336000Y17795200D01*
G37*
G36*
X19148800Y17795200D02*
G01*
X18848800Y17795200D01*
X18848800Y18395100D01*
X19148800Y18395100D01*
X19148800Y17795200D01*
G37*
%TO.C,R6*%
D13*
X14728000Y25724000D02*
X15592000Y25724000D01*
X15592000Y26436000D02*
X14728000Y26436000D01*
D14*
G36*
X14728200Y25648200D02*
G01*
X14321800Y25648200D01*
X14321800Y26511800D01*
X14728200Y26511800D01*
X14728200Y25648200D01*
G37*
G36*
X15998200Y25648200D02*
G01*
X15591800Y25648200D01*
X15591800Y26511800D01*
X15998200Y26511800D01*
X15998200Y25648200D01*
G37*
%TO.C,R7*%
D13*
X22465000Y23724000D02*
X22955000Y23724000D01*
X22955000Y23276000D02*
X22465000Y23276000D01*
D14*
G36*
X22456000Y23195200D02*
G01*
X22156000Y23195200D01*
X22156000Y23795100D01*
X22456000Y23795100D01*
X22456000Y23195200D01*
G37*
G36*
X23268800Y23195200D02*
G01*
X22968800Y23195200D01*
X22968800Y23795100D01*
X23268800Y23795100D01*
X23268800Y23195200D01*
G37*
%TO.C,C4*%
D15*
X23505000Y31067000D02*
X21575000Y31067000D01*
X23505000Y29493000D02*
X21575000Y29493000D01*
D14*
G36*
X21588300Y29429100D02*
G01*
X20838200Y29429100D01*
X20838200Y31129100D01*
X21588300Y31129100D01*
X21588300Y29429100D01*
G37*
G36*
X24241800Y29430900D02*
G01*
X23491700Y29430900D01*
X23491700Y31130900D01*
X24241800Y31130900D01*
X24241800Y29430900D01*
G37*
%TO.C,R3*%
D13*
X11895000Y17924000D02*
X12385000Y17924000D01*
X12385000Y17476000D02*
X11895000Y17476000D01*
D14*
G36*
X11886000Y17395200D02*
G01*
X11586000Y17395200D01*
X11586000Y17995100D01*
X11886000Y17995100D01*
X11886000Y17395200D01*
G37*
G36*
X12698800Y17395200D02*
G01*
X12398800Y17395200D01*
X12398800Y17995100D01*
X12698800Y17995100D01*
X12698800Y17395200D01*
G37*
%TO.C,C2*%
D13*
X9055000Y20244000D02*
X9545000Y20244000D01*
X9545000Y19796000D02*
X9055000Y19796000D01*
D14*
G36*
X9046000Y19715200D02*
G01*
X8746000Y19715200D01*
X8746000Y20315100D01*
X9046000Y20315100D01*
X9046000Y19715200D01*
G37*
G36*
X9858800Y19715200D02*
G01*
X9558800Y19715200D01*
X9558800Y20315100D01*
X9858800Y20315100D01*
X9858800Y19715200D01*
G37*
%TO.C,U$1*%
D17*
X13700000Y15900000D02*
X18700000Y15900000D01*
X13700000Y10900000D02*
X13700000Y15900000D01*
X18700000Y15900000D02*
X18700000Y10900000D01*
X18700000Y10900000D02*
X13700000Y10900000D01*
%TO.C,C5*%
D15*
X25715000Y24207000D02*
X27645000Y24207000D01*
X25715000Y22633000D02*
X27645000Y22633000D01*
D14*
G36*
X25728300Y22569100D02*
G01*
X24978200Y22569100D01*
X24978200Y24269100D01*
X25728300Y24269100D01*
X25728300Y22569100D01*
G37*
G36*
X28381800Y22570900D02*
G01*
X27631700Y22570900D01*
X27631700Y24270900D01*
X28381800Y24270900D01*
X28381800Y22570900D01*
G37*
%TO.C,J2*%
D16*
X19835000Y16305000D02*
X28705000Y16305000D01*
X19835000Y7435000D02*
X19835000Y16305000D01*
X21273000Y14867000D02*
X27267000Y14867000D01*
X21273000Y8873000D02*
X21273000Y14867000D01*
X27267000Y14867000D02*
X27267000Y8873000D01*
X27267000Y8873000D02*
X21273000Y8873000D01*
X28705000Y16305000D02*
X28705000Y7435000D01*
X28705000Y7435000D02*
X19835000Y7435000D01*
%TO.C,C6*%
D13*
X18375000Y26304000D02*
X18865000Y26304000D01*
X18865000Y25856000D02*
X18375000Y25856000D01*
D14*
G36*
X18361200Y25784900D02*
G01*
X18061200Y25784900D01*
X18061200Y26384800D01*
X18361200Y26384800D01*
X18361200Y25784900D01*
G37*
G36*
X19174000Y25784900D02*
G01*
X18874000Y25784900D01*
X18874000Y26384800D01*
X19174000Y26384800D01*
X19174000Y25784900D01*
G37*
%TO.C,R4*%
D13*
X18125000Y30524000D02*
X18615000Y30524000D01*
X18615000Y30076000D02*
X18125000Y30076000D01*
D14*
G36*
X18111200Y30004900D02*
G01*
X17811200Y30004900D01*
X17811200Y30604800D01*
X18111200Y30604800D01*
X18111200Y30004900D01*
G37*
G36*
X18924000Y30004900D02*
G01*
X18624000Y30004900D01*
X18624000Y30604800D01*
X18924000Y30604800D01*
X18924000Y30004900D01*
G37*
%TO.C,C8*%
D13*
X24015000Y20344000D02*
X24505000Y20344000D01*
X24505000Y19896000D02*
X24015000Y19896000D01*
D14*
G36*
X24006000Y19815200D02*
G01*
X23706000Y19815200D01*
X23706000Y20415100D01*
X24006000Y20415100D01*
X24006000Y19815200D01*
G37*
G36*
X24818800Y19815200D02*
G01*
X24518800Y19815200D01*
X24518800Y20415100D01*
X24818800Y20415100D01*
X24818800Y19815200D01*
G37*
%TO.C,C9*%
D13*
X21005000Y18344000D02*
X21495000Y18344000D01*
X21495000Y17896000D02*
X21005000Y17896000D01*
D14*
G36*
X20996000Y17815200D02*
G01*
X20696000Y17815200D01*
X20696000Y18415100D01*
X20996000Y18415100D01*
X20996000Y17815200D01*
G37*
G36*
X21808800Y17815200D02*
G01*
X21508800Y17815200D01*
X21508800Y18415100D01*
X21808800Y18415100D01*
X21808800Y17815200D01*
G37*
%TO.C,R5*%
D13*
X14776000Y21135000D02*
X14776000Y21625000D01*
X15224000Y21625000D02*
X15224000Y21135000D01*
D14*
G36*
X15295100Y21634000D02*
G01*
X14695200Y21634000D01*
X14695200Y21934000D01*
X15295100Y21934000D01*
X15295100Y21634000D01*
G37*
G36*
X15295100Y20821200D02*
G01*
X14695200Y20821200D01*
X14695200Y21121200D01*
X15295100Y21121200D01*
X15295100Y20821200D01*
G37*
%TO.C,C7*%
D13*
X15385000Y23604000D02*
X15875000Y23604000D01*
X15875000Y23156000D02*
X15385000Y23156000D01*
D14*
G36*
X15371200Y23084900D02*
G01*
X15071200Y23084900D01*
X15071200Y23684800D01*
X15371200Y23684800D01*
X15371200Y23084900D01*
G37*
G36*
X16184000Y23084900D02*
G01*
X15884000Y23084900D01*
X15884000Y23684800D01*
X16184000Y23684800D01*
X16184000Y23084900D01*
G37*
%TD*%
M02*
