%TF.GenerationSoftware,KiCad,Pcbnew,10.0.6*%
%TF.CreationDate,2026-10-09T01:10:44+03:00*%
%TF.ProjectId,RF_PA,52465f50-412e-46b6-9963-61645f706362,rev?*%
%TF.SameCoordinates,Original*%
%TF.FileFunction,Paste,Top*%
%TF.FilePolarity,Positive*%
%FSLAX46Y46*%
G04 Gerber Fmt 4.6, Leading zero omitted, Abs format (unit mm)*
G04 Created by KiCad (PCBNEW 10.0.6) date 2026-10-09 01:10:44*
%MOMM*%
%LPD*%
G01*
G04 APERTURE LIST*
G04 Aperture macros list*
%AMRoundRect*
0 Rectangle with rounded corners*
0 $1 Rounding radius*
0 $2 $3 $4 $5 $6 $7 $8 $9 X,Y pos of 4 corners*
0 Add a 4 corners polygon primitive as box body*
4,1,4,$2,$3,$4,$5,$6,$7,$8,$9,$2,$3,0*
0 Add four circle primitives for the rounded corners*
1,1,$1+$1,$2,$3*
1,1,$1+$1,$4,$5*
1,1,$1+$1,$6,$7*
1,1,$1+$1,$8,$9*
0 Add four rect primitives between the rounded corners*
20,1,$1+$1,$2,$3,$4,$5,0*
20,1,$1+$1,$4,$5,$6,$7,0*
20,1,$1+$1,$6,$7,$8,$9,0*
20,1,$1+$1,$8,$9,$2,$3,0*%
G04 Aperture macros list end*
%ADD10C,0.000000*%
%ADD11R,4.445000X2.946400*%
%ADD12R,0.600000X0.700000*%
%ADD13R,1.600000X1.800000*%
%ADD14RoundRect,0.279500X-0.000010X-0.000010X0.000010X-0.000010X0.000010X0.000010X-0.000010X0.000010X0*%
%ADD15R,0.700000X0.900000*%
%ADD16R,1.000000X1.100000*%
%ADD17R,0.345000X0.320000*%
%ADD18R,0.320000X0.345000*%
%ADD19R,0.590000X0.345000*%
%ADD20RoundRect,0.279500X-0.000010X0.000010X-0.000010X-0.000010X0.000010X-0.000010X0.000010X0.000010X0*%
%ADD21R,0.700000X0.600000*%
G04 APERTURE END LIST*
D10*
%TO.C,U$1*%
G36*
X14150500Y13494500D02*
G01*
X13799500Y13494500D01*
X13799500Y13895500D01*
X14150500Y13895500D01*
X14150500Y13494500D01*
G37*
G36*
X14150500Y12904500D02*
G01*
X13799500Y12904500D01*
X13799500Y13305500D01*
X14150500Y13305500D01*
X14150500Y12904500D01*
G37*
G36*
X14150500Y12347000D02*
G01*
X13799500Y12347000D01*
X13799500Y12715500D01*
X14150500Y12715500D01*
X14150500Y12347000D01*
G37*
G36*
X14150500Y10999500D02*
G01*
X13799500Y10999500D01*
X13799500Y11525500D01*
X14150500Y11525500D01*
X14150500Y10999500D01*
G37*
G36*
X14338000Y15449500D02*
G01*
X13799500Y15449500D01*
X13799500Y15800500D01*
X14338000Y15800500D01*
X14338000Y15449500D01*
G37*
G36*
X14720500Y10999500D02*
G01*
X14319500Y10999500D01*
X14319500Y11400500D01*
X14720500Y11400500D01*
X14720500Y10999500D01*
G37*
G36*
X15093500Y14506500D02*
G01*
X14522500Y14506500D01*
X14522500Y15077500D01*
X15093500Y15077500D01*
X15093500Y14506500D01*
G37*
G36*
X15093500Y13810500D02*
G01*
X14522500Y13810500D01*
X14522500Y14381500D01*
X15093500Y14381500D01*
X15093500Y13810500D01*
G37*
G36*
X15093500Y13114500D02*
G01*
X14522500Y13114500D01*
X14522500Y13685500D01*
X15093500Y13685500D01*
X15093500Y13114500D01*
G37*
G36*
X15093500Y12418500D02*
G01*
X14522500Y12418500D01*
X14522500Y12989500D01*
X15093500Y12989500D01*
X15093500Y12418500D01*
G37*
G36*
X15093500Y11722500D02*
G01*
X14522500Y11722500D01*
X14522500Y12293500D01*
X15093500Y12293500D01*
X15093500Y11722500D01*
G37*
G36*
X15280500Y10999500D02*
G01*
X14879500Y10999500D01*
X14879500Y11400500D01*
X15280500Y11400500D01*
X15280500Y10999500D01*
G37*
G36*
X15789500Y14506500D02*
G01*
X15218500Y14506500D01*
X15218500Y15077500D01*
X15789500Y15077500D01*
X15789500Y14506500D01*
G37*
G36*
X15789500Y13810500D02*
G01*
X15218500Y13810500D01*
X15218500Y14381500D01*
X15789500Y14381500D01*
X15789500Y13810500D01*
G37*
G36*
X15789500Y13114500D02*
G01*
X15218500Y13114500D01*
X15218500Y13685500D01*
X15789500Y13685500D01*
X15789500Y13114500D01*
G37*
G36*
X15789500Y12418500D02*
G01*
X15218500Y12418500D01*
X15218500Y12989500D01*
X15789500Y12989500D01*
X15789500Y12418500D01*
G37*
G36*
X15789500Y11722500D02*
G01*
X15218500Y11722500D01*
X15218500Y12293500D01*
X15789500Y12293500D01*
X15789500Y11722500D01*
G37*
G36*
X15840500Y10999500D02*
G01*
X15439500Y10999500D01*
X15439500Y11400500D01*
X15840500Y11400500D01*
X15840500Y10999500D01*
G37*
G36*
X15950500Y15449500D02*
G01*
X15599500Y15449500D01*
X15599500Y15800500D01*
X15950500Y15800500D01*
X15950500Y15449500D01*
G37*
G36*
X16400500Y15449500D02*
G01*
X16049500Y15449500D01*
X16049500Y15800500D01*
X16400500Y15800500D01*
X16400500Y15449500D01*
G37*
G36*
X16400500Y10999500D02*
G01*
X15999500Y10999500D01*
X15999500Y11400500D01*
X16400500Y11400500D01*
X16400500Y10999500D01*
G37*
G36*
X16485500Y14506500D02*
G01*
X15914500Y14506500D01*
X15914500Y15077500D01*
X16485500Y15077500D01*
X16485500Y14506500D01*
G37*
G36*
X16485500Y13810500D02*
G01*
X15914500Y13810500D01*
X15914500Y14381500D01*
X16485500Y14381500D01*
X16485500Y13810500D01*
G37*
G36*
X16485500Y13114500D02*
G01*
X15914500Y13114500D01*
X15914500Y13685500D01*
X16485500Y13685500D01*
X16485500Y13114500D01*
G37*
G36*
X16485500Y12418500D02*
G01*
X15914500Y12418500D01*
X15914500Y12989500D01*
X16485500Y12989500D01*
X16485500Y12418500D01*
G37*
G36*
X16485500Y11722500D02*
G01*
X15914500Y11722500D01*
X15914500Y12293500D01*
X16485500Y12293500D01*
X16485500Y11722500D01*
G37*
G36*
X16960500Y15449500D02*
G01*
X16599500Y15449500D01*
X16599500Y15800500D01*
X16960500Y15800500D01*
X16960500Y15449500D01*
G37*
G36*
X16960500Y10999500D02*
G01*
X16559500Y10999500D01*
X16559500Y11400500D01*
X16960500Y11400500D01*
X16960500Y10999500D01*
G37*
G36*
X17181500Y14506500D02*
G01*
X16610500Y14506500D01*
X16610500Y15077500D01*
X17181500Y15077500D01*
X17181500Y14506500D01*
G37*
G36*
X17181500Y13810500D02*
G01*
X16610500Y13810500D01*
X16610500Y14381500D01*
X17181500Y14381500D01*
X17181500Y13810500D01*
G37*
G36*
X17181500Y13114500D02*
G01*
X16610500Y13114500D01*
X16610500Y13685500D01*
X17181500Y13685500D01*
X17181500Y13114500D01*
G37*
G36*
X17181500Y12418500D02*
G01*
X16610500Y12418500D01*
X16610500Y12989500D01*
X17181500Y12989500D01*
X17181500Y12418500D01*
G37*
G36*
X17181500Y11722500D02*
G01*
X16610500Y11722500D01*
X16610500Y12293500D01*
X17181500Y12293500D01*
X17181500Y11722500D01*
G37*
G36*
X17520500Y10999500D02*
G01*
X17119500Y10999500D01*
X17119500Y11400500D01*
X17520500Y11400500D01*
X17520500Y10999500D01*
G37*
G36*
X17877500Y14506500D02*
G01*
X17306500Y14506500D01*
X17306500Y15077500D01*
X17877500Y15077500D01*
X17877500Y14506500D01*
G37*
G36*
X17877500Y13810500D02*
G01*
X17306500Y13810500D01*
X17306500Y14381500D01*
X17877500Y14381500D01*
X17877500Y13810500D01*
G37*
G36*
X17877500Y13114500D02*
G01*
X17306500Y13114500D01*
X17306500Y13685500D01*
X17877500Y13685500D01*
X17877500Y13114500D01*
G37*
G36*
X17877500Y12418500D02*
G01*
X17306500Y12418500D01*
X17306500Y12989500D01*
X17877500Y12989500D01*
X17877500Y12418500D01*
G37*
G36*
X17877500Y11722500D02*
G01*
X17306500Y11722500D01*
X17306500Y12293500D01*
X17877500Y12293500D01*
X17877500Y11722500D01*
G37*
G36*
X18080500Y10999500D02*
G01*
X17679500Y10999500D01*
X17679500Y11400500D01*
X18080500Y11400500D01*
X18080500Y10999500D01*
G37*
G36*
X18600500Y15449500D02*
G01*
X17949500Y15449500D01*
X17949500Y15800500D01*
X18600500Y15800500D01*
X18600500Y15449500D01*
G37*
G36*
X18600500Y14674500D02*
G01*
X18249500Y14674500D01*
X18249500Y15075500D01*
X18600500Y15075500D01*
X18600500Y14674500D01*
G37*
G36*
X18600500Y14084500D02*
G01*
X18249500Y14084500D01*
X18249500Y14485500D01*
X18600500Y14485500D01*
X18600500Y14084500D01*
G37*
G36*
X18600500Y13494500D02*
G01*
X18249500Y13494500D01*
X18249500Y13895500D01*
X18600500Y13895500D01*
X18600500Y13494500D01*
G37*
G36*
X18600500Y12904500D02*
G01*
X18249500Y12904500D01*
X18249500Y13305500D01*
X18600500Y13305500D01*
X18600500Y12904500D01*
G37*
G36*
X18600500Y12347000D02*
G01*
X18249500Y12347000D01*
X18249500Y12715500D01*
X18600500Y12715500D01*
X18600500Y12347000D01*
G37*
G36*
X18600500Y10999500D02*
G01*
X18299500Y10999500D01*
X18299500Y11525500D01*
X18600500Y11525500D01*
X18600500Y10999500D01*
G37*
G36*
X14050500Y14099500D02*
G01*
X13799500Y14099500D01*
X13799500Y14450500D01*
X13804934Y14450500D01*
X13867240Y14467194D01*
X13912806Y14512760D01*
X13929483Y14575000D01*
X13912806Y14637239D01*
X13867240Y14682805D01*
X13804934Y14699500D01*
X13799500Y14699500D01*
X13799500Y15050500D01*
X14050500Y15050500D01*
X14050500Y14099500D01*
G37*
%TD*%
D11*
%TO.C,R10*%
X25000000Y36177000D03*
X25000000Y41003000D03*
%TD*%
D12*
%TO.C,R8*%
X20800000Y20100000D03*
X21800000Y20100000D03*
%TD*%
%TO.C,R2*%
X11650000Y20000000D03*
X12650000Y20000000D03*
%TD*%
%TO.C,R1*%
X10560000Y22800000D03*
X11560000Y22800000D03*
%TD*%
D13*
%TO.C,C1*%
X5580000Y23030000D03*
X8380000Y23030000D03*
%TD*%
D14*
%TO.C,J1*%
X8050000Y11870000D03*
%TD*%
D15*
%TO.C,C3*%
X8740000Y17720000D03*
X10040000Y17720000D03*
%TD*%
D12*
%TO.C,R9*%
X18090000Y18100000D03*
X19090000Y18100000D03*
%TD*%
D16*
%TO.C,R6*%
X16010000Y26080000D03*
X14310000Y26080000D03*
%TD*%
D12*
%TO.C,R7*%
X22210000Y23500000D03*
X23210000Y23500000D03*
%TD*%
D13*
%TO.C,C4*%
X23940000Y30280000D03*
X21140000Y30280000D03*
%TD*%
D12*
%TO.C,R3*%
X11640000Y17700000D03*
X12640000Y17700000D03*
%TD*%
D15*
%TO.C,C2*%
X8650000Y20020000D03*
X9950000Y20020000D03*
%TD*%
D17*
%TO.C,U$1*%
X13972500Y11935000D03*
X18427500Y11935000D03*
D18*
X15240000Y15627500D03*
D19*
X17455000Y15627500D03*
D18*
X14720000Y15627500D03*
%TD*%
D13*
%TO.C,C5*%
X25280000Y23420000D03*
X28080000Y23420000D03*
%TD*%
D20*
%TO.C,J2*%
X24270000Y11870000D03*
%TD*%
D15*
%TO.C,C6*%
X19270000Y26080000D03*
X17970000Y26080000D03*
%TD*%
D12*
%TO.C,R4*%
X18870000Y30300000D03*
X17870000Y30300000D03*
%TD*%
D15*
%TO.C,C8*%
X23610000Y20120000D03*
X24910000Y20120000D03*
%TD*%
%TO.C,C9*%
X20600000Y18120000D03*
X21900000Y18120000D03*
%TD*%
D21*
%TO.C,R5*%
X15000000Y21880000D03*
X15000000Y20880000D03*
%TD*%
D15*
%TO.C,C7*%
X16280000Y23380000D03*
X14980000Y23380000D03*
%TD*%
M02*
