%TF.GenerationSoftware,KiCad,Pcbnew,10.0.6*%
%TF.CreationDate,2026-10-09T01:10:44+03:00*%
%TF.ProjectId,RF_PA,52465f50-412e-46b6-9963-61645f706362,rev?*%
%TF.SameCoordinates,Original*%
%TF.FileFunction,Copper,L3,Inr*%
%TF.FilePolarity,Positive*%
%FSLAX46Y46*%
G04 Gerber Fmt 4.6, Leading zero omitted, Abs format (unit mm)*
G04 Created by KiCad (PCBNEW 10.0.6) date 2026-10-09 01:10:44*
%MOMM*%
%LPD*%
G01*
G04 APERTURE LIST*
%TA.AperFunction,ComponentPad*%
%ADD10O,1.981200X3.962400*%
%TD*%
%TA.AperFunction,ComponentPad*%
%ADD11C,1.791000*%
%TD*%
%TA.AperFunction,ComponentPad*%
%ADD12O,3.000000X1.500000*%
%TD*%
%TA.AperFunction,ViaPad*%
%ADD13C,0.550000*%
%TD*%
%TA.AperFunction,ViaPad*%
%ADD14C,0.350000*%
%TD*%
%TA.AperFunction,ViaPad*%
%ADD15C,0.450000*%
%TD*%
G04 APERTURE END LIST*
D10*
%TO.N,VD*%
%TO.C,UNK22V0*%
X24864600Y52600000D03*
%TO.N,GND*%
X19860800Y52600000D03*
%TD*%
D11*
%TO.N,GND*%
%TO.C,J1*%
X5510000Y14410000D03*
X5510000Y9330000D03*
X10590000Y9330000D03*
X10590000Y14410000D03*
%TD*%
D12*
%TO.N,VG*%
%TO.C,X2*%
X8800000Y30850000D03*
%TO.N,GND*%
X8800000Y28310000D03*
%TD*%
D11*
%TO.N,GND*%
%TO.C,J2*%
X26810000Y14410000D03*
X21730000Y14410000D03*
X21730000Y9330000D03*
X26810000Y9330000D03*
%TD*%
D12*
%TO.N,VD*%
%TO.C,X3*%
X15800000Y43640000D03*
%TO.N,VIN_M*%
X15800000Y41100000D03*
%TO.N,GND*%
X15800000Y38560000D03*
%TD*%
D13*
%TO.N,GND*%
X33400000Y44100000D03*
D14*
X17200000Y11200000D03*
D13*
X33300000Y8500000D03*
X6000000Y53000000D03*
D15*
X19000000Y11196000D03*
D14*
X18450000Y14900000D03*
D13*
X6000000Y44000000D03*
X19700000Y9400000D03*
D14*
X18450000Y14300000D03*
D15*
X10450000Y11146000D03*
D13*
X31650000Y27850000D03*
D15*
X22000000Y12700000D03*
X13450000Y12650000D03*
D14*
X15950000Y17650000D03*
D13*
X29550000Y6050000D03*
X3000000Y53000000D03*
D14*
X15700000Y9600000D03*
D13*
X22950000Y7750000D03*
X33150000Y31500000D03*
X2900000Y16900000D03*
X33350000Y11300000D03*
X10000000Y47000000D03*
D14*
X16650000Y22300000D03*
D13*
X32000000Y21100000D03*
X27550000Y17050000D03*
X15950000Y7400000D03*
X23300000Y33600000D03*
D14*
X6950000Y10150000D03*
D13*
X14850000Y6150000D03*
X20150000Y24750000D03*
X16800000Y33550000D03*
X8950000Y41000000D03*
X32400000Y7150000D03*
X23450000Y14400000D03*
D14*
X17700000Y9100000D03*
D13*
X27750000Y7900000D03*
D14*
X16700000Y9600000D03*
D13*
X7000000Y41000000D03*
D14*
X16200000Y9600000D03*
D13*
X21500000Y16850000D03*
X13850000Y7100000D03*
D14*
X16100000Y21650000D03*
X15950000Y20000000D03*
X14200000Y8600000D03*
D13*
X1750000Y15500000D03*
D15*
X10450000Y12650000D03*
D13*
X31500000Y11350000D03*
X33750000Y14650000D03*
X30350000Y25400000D03*
D15*
X12450000Y11146000D03*
D13*
X24650000Y18050000D03*
X34100000Y12750000D03*
X3000000Y50000000D03*
X34000000Y34850000D03*
D15*
X24000000Y12700000D03*
D14*
X14000000Y13650000D03*
X8750000Y10150000D03*
X14200000Y11200000D03*
X15950000Y16400000D03*
X11200000Y15850000D03*
X15200000Y9600000D03*
D13*
X2750000Y11950000D03*
X6450000Y16950000D03*
X19400000Y27650000D03*
X31500000Y6000000D03*
X27450000Y18800000D03*
X2750000Y14350000D03*
D14*
X7500000Y10150000D03*
X14700000Y8600000D03*
X18200000Y10100000D03*
D13*
X1750000Y11900000D03*
X4100000Y13000000D03*
X29100000Y46350000D03*
X26700000Y20100000D03*
X3950000Y14400000D03*
D14*
X8150000Y10150000D03*
D13*
X30450000Y21300000D03*
D14*
X18550000Y22150000D03*
X6450000Y13250000D03*
D13*
X4000000Y47000000D03*
X28200000Y11500000D03*
X28100000Y44250000D03*
D15*
X20000000Y12700000D03*
D14*
X17700000Y10650000D03*
X16700000Y10100000D03*
D13*
X4000000Y41000000D03*
X3000000Y21000000D03*
D15*
X8450000Y12650000D03*
D13*
X30000000Y14800000D03*
D15*
X23000000Y11196000D03*
D14*
X14000000Y14250000D03*
D13*
X21450000Y33450000D03*
D14*
X16700000Y9100000D03*
D13*
X29700000Y34000000D03*
D14*
X14700000Y10650000D03*
D13*
X28550000Y19950000D03*
X30450000Y19950000D03*
X29350000Y51150000D03*
X20200000Y10200000D03*
X5000000Y16950000D03*
X23050000Y6600000D03*
D14*
X9500000Y15650000D03*
D13*
X34050000Y7150000D03*
X31950000Y34000000D03*
D15*
X21000000Y12700000D03*
D13*
X30050000Y24100000D03*
D14*
X15200000Y11200000D03*
D13*
X7150000Y7950000D03*
D14*
X15700000Y10650000D03*
X14700000Y11200000D03*
D13*
X32100000Y22750000D03*
D14*
X12000000Y15350000D03*
D13*
X19000000Y7400000D03*
X25700000Y18900000D03*
X4150000Y10750000D03*
X32100000Y19750000D03*
X9000000Y50000000D03*
X10000000Y35000000D03*
X4200000Y8050000D03*
D14*
X9050000Y14800000D03*
D15*
X24000000Y11046000D03*
D14*
X16700000Y8600000D03*
D13*
X3000000Y8450000D03*
X3000000Y18000000D03*
D14*
X17200000Y10650000D03*
D13*
X21350000Y28250000D03*
X20600000Y6800000D03*
D14*
X6450000Y10550000D03*
X15700000Y8600000D03*
D13*
X26850000Y12500000D03*
X19350000Y23350000D03*
X27150000Y21150000D03*
X26400000Y17850000D03*
X7550000Y16800000D03*
X8500000Y13850000D03*
X13000000Y47000000D03*
X17500000Y7350000D03*
X30550000Y18400000D03*
X15000000Y50000000D03*
X16050000Y36400000D03*
D14*
X15950000Y19050000D03*
D13*
X5650000Y6800000D03*
X4000000Y35000000D03*
X7000000Y35000000D03*
X33900000Y16650000D03*
X18900000Y24150000D03*
X27800000Y7150000D03*
D14*
X14200000Y10100000D03*
X14000000Y12550000D03*
D13*
X28750000Y12800000D03*
X31800000Y41000000D03*
X7500000Y13450000D03*
D14*
X14700000Y10100000D03*
X18450000Y13700000D03*
X16850000Y21500000D03*
X17700000Y10100000D03*
D13*
X30150000Y53600000D03*
X26250000Y32450000D03*
D14*
X16200000Y8600000D03*
X16600000Y20000000D03*
X15950000Y18300000D03*
X14700000Y9600000D03*
D13*
X30600000Y7200000D03*
D14*
X9400000Y10150000D03*
X16700000Y10650000D03*
X15200000Y9100000D03*
X13450000Y15350000D03*
D15*
X9450000Y12650000D03*
D13*
X8000000Y57000000D03*
D14*
X16600000Y20800000D03*
D13*
X32500000Y18050000D03*
X21200000Y5950000D03*
X29800000Y16350000D03*
X2900000Y6800000D03*
X28650000Y36350000D03*
X9050000Y8000000D03*
X30950000Y44250000D03*
D14*
X14000000Y13100000D03*
X16650000Y17000000D03*
D13*
X23450000Y18050000D03*
D14*
X17700000Y9600000D03*
X18450000Y12550000D03*
X16200000Y11200000D03*
D13*
X12350000Y8300000D03*
X6000000Y50000000D03*
X18200000Y6300000D03*
X3000000Y32000000D03*
D14*
X18200000Y8600000D03*
X16650000Y16400000D03*
D13*
X10000000Y6050000D03*
D14*
X10350000Y15900000D03*
D13*
X17850000Y23300000D03*
X24350000Y7000000D03*
X23300000Y32400000D03*
X29400000Y28650000D03*
X4450000Y6250000D03*
X3050000Y9600000D03*
D15*
X12450000Y12650000D03*
X8450000Y11146000D03*
D13*
X10750000Y7000000D03*
X9000000Y44000000D03*
D14*
X17200000Y10100000D03*
D15*
X22000000Y11196000D03*
D14*
X18200000Y9600000D03*
X14000000Y14850000D03*
D13*
X27650000Y6050000D03*
X26950000Y31550000D03*
X1900000Y9800000D03*
X29050000Y38650000D03*
X16000000Y47000000D03*
X6000000Y20000000D03*
X13750000Y36350000D03*
X1700000Y16800000D03*
X4350000Y15750000D03*
D14*
X14200000Y9600000D03*
X12850000Y15350000D03*
D13*
X25800000Y30900000D03*
D15*
X13450000Y11146000D03*
D13*
X26750000Y16100000D03*
X30450000Y35550000D03*
X26150000Y6450000D03*
D14*
X15700000Y9100000D03*
D13*
X12000000Y50000000D03*
X24900000Y6000000D03*
X31950000Y16650000D03*
X29050000Y18300000D03*
D14*
X6450000Y12200000D03*
D13*
X8450000Y6700000D03*
X16650000Y6000000D03*
X6000000Y38000000D03*
X32000000Y46300000D03*
X2750000Y13150000D03*
X12500000Y9700000D03*
D14*
X16200000Y9100000D03*
D15*
X11450000Y11146000D03*
D13*
X12500000Y6500000D03*
X2900000Y15550000D03*
X21650000Y16000000D03*
X11000000Y57000000D03*
X17750000Y34900000D03*
D14*
X18200000Y9100000D03*
D13*
X4150000Y11900000D03*
X25000000Y7800000D03*
D14*
X17700000Y11200000D03*
D13*
X7000000Y6750000D03*
X20250000Y8150000D03*
X3000000Y44000000D03*
X28550000Y14450000D03*
X31850000Y14750000D03*
X31500000Y8450000D03*
X10600000Y7750000D03*
X6450000Y15650000D03*
X32100000Y24100000D03*
X2850000Y10900000D03*
D14*
X18450000Y13100000D03*
D13*
X26650000Y11000000D03*
X21350000Y32400000D03*
X21350000Y7600000D03*
D14*
X18200000Y10650000D03*
D13*
X30300000Y22800000D03*
X9000000Y53000000D03*
D14*
X18200000Y11200000D03*
X6450000Y11100000D03*
D13*
X28700000Y21200000D03*
X25100000Y9650000D03*
D15*
X21000000Y11196000D03*
D14*
X6450000Y11650000D03*
X15700000Y10100000D03*
D13*
X16100000Y35000000D03*
X2000000Y24000000D03*
X28400000Y9300000D03*
D14*
X15200000Y10100000D03*
X17800000Y21400000D03*
X14200000Y9100000D03*
D13*
X29600000Y11350000D03*
X33050000Y26300000D03*
X19650000Y5900000D03*
X34200000Y9700000D03*
X23550000Y9650000D03*
D14*
X14700000Y9100000D03*
X15900000Y20850000D03*
D13*
X24650000Y32600000D03*
X20650000Y26800000D03*
D14*
X16200000Y10650000D03*
D13*
X32400000Y9750000D03*
X4450000Y5350000D03*
X7450000Y15600000D03*
X30850000Y31200000D03*
D14*
X15200000Y8600000D03*
X16700000Y11200000D03*
D13*
X22850000Y16850000D03*
X1850000Y7000000D03*
D15*
X20000000Y11196000D03*
D13*
X18650000Y36350000D03*
D14*
X16200000Y10100000D03*
X15700000Y11200000D03*
D13*
X30450000Y9700000D03*
X25400000Y33650000D03*
X33450000Y6100000D03*
D14*
X15200000Y10650000D03*
X16650000Y17650000D03*
D15*
X23000000Y12700000D03*
D13*
X1850000Y10950000D03*
D14*
X16650000Y18300000D03*
D13*
X25150000Y14350000D03*
D15*
X9450000Y11146000D03*
D13*
X5500000Y16150000D03*
X28750000Y40950000D03*
D14*
X15950000Y17000000D03*
D13*
X12000000Y53000000D03*
X9000000Y38000000D03*
X8900000Y9050000D03*
D14*
X17500000Y22200000D03*
D13*
X8600000Y15600000D03*
X1700000Y8400000D03*
X33150000Y53650000D03*
X32500000Y12800000D03*
X4000000Y26000000D03*
X30700000Y48400000D03*
D14*
X16650000Y19050000D03*
D13*
X24450000Y16950000D03*
D14*
X17200000Y8600000D03*
D13*
X14000000Y57000000D03*
D14*
X17200000Y9600000D03*
D13*
X33400000Y48250000D03*
D14*
X17300000Y20700000D03*
X17700000Y8600000D03*
D15*
X19000000Y12700000D03*
X11450000Y12650000D03*
D13*
X25750000Y29750000D03*
D14*
X17200000Y9100000D03*
D13*
X6000000Y18000000D03*
X30600000Y12850000D03*
D14*
X6450000Y12750000D03*
D13*
X7000000Y47000000D03*
D14*
X14200000Y10650000D03*
D13*
X31800000Y51050000D03*
X29550000Y8450000D03*
X26250000Y7700000D03*
X1750000Y13150000D03*
X1800000Y14400000D03*
X28400000Y25250000D03*
%TD*%
%TA.AperFunction,Conductor*%
%TO.N,GND*%
G36*
X34692471Y59692471D02*
G01*
X34699500Y59675500D01*
X34699500Y324500D01*
X34692471Y307529D01*
X34675500Y300500D01*
X324500Y300500D01*
X307529Y307529D01*
X300500Y324500D01*
X300500Y2725959D01*
X999500Y2725959D01*
X999500Y2474040D01*
X1038911Y2225210D01*
X1038912Y2225204D01*
X1116756Y1985628D01*
X1116760Y1985618D01*
X1231129Y1761155D01*
X1231133Y1761148D01*
X1379203Y1557348D01*
X1557348Y1379203D01*
X1761148Y1231133D01*
X1761155Y1231129D01*
X1985618Y1116760D01*
X1985628Y1116756D01*
X2225204Y1038912D01*
X2225210Y1038911D01*
X2225213Y1038910D01*
X2225215Y1038910D01*
X2474038Y999500D01*
X2474041Y999500D01*
X2725959Y999500D01*
X2725962Y999500D01*
X2974785Y1038910D01*
X2974787Y1038910D01*
X2974789Y1038911D01*
X2974795Y1038912D01*
X3214371Y1116756D01*
X3214381Y1116760D01*
X3438844Y1231129D01*
X3438851Y1231133D01*
X3642651Y1379203D01*
X3642652Y1379204D01*
X3642656Y1379207D01*
X3820793Y1557344D01*
X3820796Y1557348D01*
X3968866Y1761148D01*
X3968870Y1761155D01*
X4083239Y1985618D01*
X4083241Y1985621D01*
X4108419Y2063111D01*
X4161087Y2225204D01*
X4161088Y2225210D01*
X4161090Y2225215D01*
X4200500Y2474038D01*
X4200500Y2725959D01*
X15899500Y2725959D01*
X15899500Y2474040D01*
X15938911Y2225210D01*
X15938912Y2225204D01*
X16016756Y1985628D01*
X16016760Y1985618D01*
X16131129Y1761155D01*
X16131133Y1761148D01*
X16279203Y1557348D01*
X16457348Y1379203D01*
X16661148Y1231133D01*
X16661155Y1231129D01*
X16885618Y1116760D01*
X16885628Y1116756D01*
X17125204Y1038912D01*
X17125210Y1038911D01*
X17125213Y1038910D01*
X17125215Y1038910D01*
X17374038Y999500D01*
X17374041Y999500D01*
X17625959Y999500D01*
X17625962Y999500D01*
X17874785Y1038910D01*
X17874787Y1038910D01*
X17874789Y1038911D01*
X17874795Y1038912D01*
X18114371Y1116756D01*
X18114381Y1116760D01*
X18338844Y1231129D01*
X18338851Y1231133D01*
X18542651Y1379203D01*
X18542652Y1379204D01*
X18542656Y1379207D01*
X18720793Y1557344D01*
X18720796Y1557348D01*
X18868866Y1761148D01*
X18868870Y1761155D01*
X18983239Y1985618D01*
X18983241Y1985621D01*
X19008419Y2063111D01*
X19061087Y2225204D01*
X19061088Y2225210D01*
X19061090Y2225215D01*
X19100500Y2474038D01*
X19100500Y2725959D01*
X30799500Y2725959D01*
X30799500Y2474040D01*
X30838911Y2225210D01*
X30838912Y2225204D01*
X30916756Y1985628D01*
X30916760Y1985618D01*
X31031129Y1761155D01*
X31031133Y1761148D01*
X31179203Y1557348D01*
X31357348Y1379203D01*
X31561148Y1231133D01*
X31561155Y1231129D01*
X31785618Y1116760D01*
X31785628Y1116756D01*
X32025204Y1038912D01*
X32025210Y1038911D01*
X32025213Y1038910D01*
X32025215Y1038910D01*
X32274038Y999500D01*
X32274041Y999500D01*
X32525959Y999500D01*
X32525962Y999500D01*
X32774785Y1038910D01*
X32774787Y1038910D01*
X32774789Y1038911D01*
X32774795Y1038912D01*
X33014371Y1116756D01*
X33014381Y1116760D01*
X33238844Y1231129D01*
X33238851Y1231133D01*
X33442651Y1379203D01*
X33442652Y1379204D01*
X33442656Y1379207D01*
X33620793Y1557344D01*
X33620796Y1557348D01*
X33768866Y1761148D01*
X33768870Y1761155D01*
X33883239Y1985618D01*
X33883241Y1985621D01*
X33908419Y2063111D01*
X33961087Y2225204D01*
X33961088Y2225210D01*
X33961090Y2225215D01*
X34000500Y2474038D01*
X34000500Y2725962D01*
X33961090Y2974785D01*
X33883241Y3214379D01*
X33768870Y3438845D01*
X33620793Y3642656D01*
X33442656Y3820793D01*
X33238845Y3968870D01*
X33014379Y4083241D01*
X32845152Y4138226D01*
X32774795Y4161087D01*
X32774793Y4161087D01*
X32774785Y4161090D01*
X32525962Y4200500D01*
X32274038Y4200500D01*
X32025215Y4161090D01*
X32025207Y4161087D01*
X32025204Y4161087D01*
X31863111Y4108419D01*
X31785621Y4083241D01*
X31561155Y3968870D01*
X31561148Y3968866D01*
X31357348Y3820796D01*
X31357344Y3820793D01*
X31179207Y3642656D01*
X31179204Y3642652D01*
X31179203Y3642651D01*
X31031133Y3438851D01*
X31031129Y3438844D01*
X30916760Y3214381D01*
X30916756Y3214371D01*
X30838912Y2974795D01*
X30838911Y2974789D01*
X30799500Y2725959D01*
X19100500Y2725959D01*
X19100500Y2725962D01*
X19061090Y2974785D01*
X18983241Y3214379D01*
X18868870Y3438845D01*
X18720793Y3642656D01*
X18542656Y3820793D01*
X18338845Y3968870D01*
X18114379Y4083241D01*
X17945152Y4138226D01*
X17874795Y4161087D01*
X17874793Y4161087D01*
X17874785Y4161090D01*
X17625962Y4200500D01*
X17374038Y4200500D01*
X17125215Y4161090D01*
X17125207Y4161087D01*
X17125204Y4161087D01*
X16963111Y4108419D01*
X16885621Y4083241D01*
X16661155Y3968870D01*
X16661148Y3968866D01*
X16457348Y3820796D01*
X16457344Y3820793D01*
X16279207Y3642656D01*
X16279204Y3642652D01*
X16279203Y3642651D01*
X16131133Y3438851D01*
X16131129Y3438844D01*
X16016760Y3214381D01*
X16016756Y3214371D01*
X15938912Y2974795D01*
X15938911Y2974789D01*
X15899500Y2725959D01*
X4200500Y2725959D01*
X4200500Y2725962D01*
X4161090Y2974785D01*
X4083241Y3214379D01*
X3968870Y3438845D01*
X3820793Y3642656D01*
X3642656Y3820793D01*
X3438845Y3968870D01*
X3214379Y4083241D01*
X3045152Y4138226D01*
X2974795Y4161087D01*
X2974793Y4161087D01*
X2974785Y4161090D01*
X2725962Y4200500D01*
X2474038Y4200500D01*
X2225215Y4161090D01*
X2225207Y4161087D01*
X2225204Y4161087D01*
X2063111Y4108419D01*
X1985621Y4083241D01*
X1761155Y3968870D01*
X1761148Y3968866D01*
X1557348Y3820796D01*
X1557344Y3820793D01*
X1379207Y3642656D01*
X1379204Y3642652D01*
X1379203Y3642651D01*
X1231133Y3438851D01*
X1231129Y3438844D01*
X1116760Y3214381D01*
X1116756Y3214371D01*
X1038912Y2974795D01*
X1038911Y2974789D01*
X999500Y2725959D01*
X300500Y2725959D01*
X300500Y9432977D01*
X4464500Y9432977D01*
X4464500Y9405001D01*
X4464501Y9405000D01*
X4913100Y9405000D01*
X4913100Y9255000D01*
X4464501Y9255000D01*
X4464500Y9254999D01*
X4464500Y9227022D01*
X4504676Y9025043D01*
X4504678Y9025036D01*
X4583487Y8834773D01*
X4697905Y8663534D01*
X4843534Y8517905D01*
X5014773Y8403487D01*
X5205036Y8324678D01*
X5205043Y8324676D01*
X5407022Y8284500D01*
X5434999Y8284500D01*
X5435000Y8284501D01*
X5435000Y8733100D01*
X5585000Y8733100D01*
X5585000Y8284501D01*
X5585001Y8284500D01*
X5612977Y8284500D01*
X5814956Y8324676D01*
X5814963Y8324678D01*
X6005226Y8403487D01*
X6176465Y8517905D01*
X6322094Y8663534D01*
X6436512Y8834773D01*
X6515321Y9025036D01*
X6515323Y9025043D01*
X6555499Y9227022D01*
X6555500Y9227030D01*
X6555500Y9254999D01*
X6555499Y9255000D01*
X6106900Y9255000D01*
X6106900Y9405000D01*
X6555499Y9405000D01*
X6555500Y9405001D01*
X6555500Y9432969D01*
X6555499Y9432977D01*
X9544500Y9432977D01*
X9544500Y9405001D01*
X9544501Y9405000D01*
X9993100Y9405000D01*
X9993100Y9255000D01*
X9544501Y9255000D01*
X9544500Y9254999D01*
X9544500Y9227022D01*
X9584676Y9025043D01*
X9584678Y9025036D01*
X9663487Y8834773D01*
X9777905Y8663534D01*
X9923534Y8517905D01*
X10094773Y8403487D01*
X10285036Y8324678D01*
X10285043Y8324676D01*
X10487022Y8284500D01*
X10514999Y8284500D01*
X10515000Y8284501D01*
X10515000Y8733100D01*
X10665000Y8733100D01*
X10665000Y8284501D01*
X10665001Y8284500D01*
X10692977Y8284500D01*
X10894956Y8324676D01*
X10894963Y8324678D01*
X11085226Y8403487D01*
X11256465Y8517905D01*
X11402094Y8663534D01*
X11516512Y8834773D01*
X11595321Y9025036D01*
X11595323Y9025043D01*
X11635499Y9227022D01*
X11635500Y9227030D01*
X11635500Y9254999D01*
X11635499Y9255000D01*
X11186900Y9255000D01*
X11186900Y9405000D01*
X11635499Y9405000D01*
X11635500Y9405001D01*
X11635500Y9432969D01*
X11635499Y9432977D01*
X20684500Y9432977D01*
X20684500Y9405001D01*
X20684501Y9405000D01*
X21133100Y9405000D01*
X21133100Y9255000D01*
X20684501Y9255000D01*
X20684500Y9254999D01*
X20684500Y9227022D01*
X20724676Y9025043D01*
X20724678Y9025036D01*
X20803487Y8834773D01*
X20917905Y8663534D01*
X21063534Y8517905D01*
X21234773Y8403487D01*
X21425036Y8324678D01*
X21425043Y8324676D01*
X21627022Y8284500D01*
X21654999Y8284500D01*
X21655000Y8284501D01*
X21655000Y8733100D01*
X21805000Y8733100D01*
X21805000Y8284501D01*
X21805001Y8284500D01*
X21832977Y8284500D01*
X22034956Y8324676D01*
X22034963Y8324678D01*
X22225226Y8403487D01*
X22396465Y8517905D01*
X22542094Y8663534D01*
X22656512Y8834773D01*
X22735321Y9025036D01*
X22735323Y9025043D01*
X22775499Y9227022D01*
X22775500Y9227030D01*
X22775500Y9254999D01*
X22775499Y9255000D01*
X22326900Y9255000D01*
X22326900Y9405000D01*
X22775499Y9405000D01*
X22775500Y9405001D01*
X22775500Y9432969D01*
X22775499Y9432977D01*
X25764500Y9432977D01*
X25764500Y9405001D01*
X25764501Y9405000D01*
X26213100Y9405000D01*
X26213100Y9255000D01*
X25764501Y9255000D01*
X25764500Y9254999D01*
X25764500Y9227022D01*
X25804676Y9025043D01*
X25804678Y9025036D01*
X25883487Y8834773D01*
X25997905Y8663534D01*
X26143534Y8517905D01*
X26314773Y8403487D01*
X26505036Y8324678D01*
X26505043Y8324676D01*
X26707022Y8284500D01*
X26734999Y8284500D01*
X26735000Y8284501D01*
X26735000Y8733100D01*
X26885000Y8733100D01*
X26885000Y8284501D01*
X26885001Y8284500D01*
X26912977Y8284500D01*
X27114956Y8324676D01*
X27114963Y8324678D01*
X27305226Y8403487D01*
X27476465Y8517905D01*
X27622094Y8663534D01*
X27736512Y8834773D01*
X27815321Y9025036D01*
X27815323Y9025043D01*
X27855499Y9227022D01*
X27855500Y9227030D01*
X27855500Y9254999D01*
X27855499Y9255000D01*
X27406900Y9255000D01*
X27406900Y9405000D01*
X27855499Y9405000D01*
X27855500Y9405001D01*
X27855500Y9432969D01*
X27855499Y9432977D01*
X27815323Y9634956D01*
X27815321Y9634963D01*
X27736512Y9825226D01*
X27622094Y9996465D01*
X27476465Y10142094D01*
X27305226Y10256512D01*
X27114963Y10335321D01*
X27114956Y10335323D01*
X26912977Y10375499D01*
X26912969Y10375500D01*
X26885001Y10375500D01*
X26885000Y10375499D01*
X26885000Y9926900D01*
X26735000Y9926900D01*
X26735000Y10375499D01*
X26734999Y10375500D01*
X26707031Y10375500D01*
X26707022Y10375499D01*
X26505043Y10335323D01*
X26505036Y10335321D01*
X26314773Y10256512D01*
X26143534Y10142094D01*
X25997905Y9996465D01*
X25883487Y9825226D01*
X25804678Y9634963D01*
X25804676Y9634956D01*
X25764500Y9432977D01*
X22775499Y9432977D01*
X22735323Y9634956D01*
X22735321Y9634963D01*
X22656512Y9825226D01*
X22542094Y9996465D01*
X22396465Y10142094D01*
X22225226Y10256512D01*
X22034963Y10335321D01*
X22034956Y10335323D01*
X21832977Y10375499D01*
X21832969Y10375500D01*
X21805001Y10375500D01*
X21805000Y10375499D01*
X21805000Y9926900D01*
X21655000Y9926900D01*
X21655000Y10375499D01*
X21654999Y10375500D01*
X21627031Y10375500D01*
X21627022Y10375499D01*
X21425043Y10335323D01*
X21425036Y10335321D01*
X21234773Y10256512D01*
X21063534Y10142094D01*
X20917905Y9996465D01*
X20803487Y9825226D01*
X20724678Y9634963D01*
X20724676Y9634956D01*
X20684500Y9432977D01*
X11635499Y9432977D01*
X11595323Y9634956D01*
X11595321Y9634963D01*
X11516512Y9825226D01*
X11402094Y9996465D01*
X11256465Y10142094D01*
X11085226Y10256512D01*
X10894963Y10335321D01*
X10894956Y10335323D01*
X10692977Y10375499D01*
X10692969Y10375500D01*
X10665001Y10375500D01*
X10665000Y10375499D01*
X10665000Y9926900D01*
X10515000Y9926900D01*
X10515000Y10375499D01*
X10514999Y10375500D01*
X10487031Y10375500D01*
X10487022Y10375499D01*
X10285043Y10335323D01*
X10285036Y10335321D01*
X10094773Y10256512D01*
X9923534Y10142094D01*
X9777905Y9996465D01*
X9663487Y9825226D01*
X9584678Y9634963D01*
X9584676Y9634956D01*
X9544500Y9432977D01*
X6555499Y9432977D01*
X6515323Y9634956D01*
X6515321Y9634963D01*
X6436512Y9825226D01*
X6322094Y9996465D01*
X6176465Y10142094D01*
X6005226Y10256512D01*
X5814963Y10335321D01*
X5814956Y10335323D01*
X5612977Y10375499D01*
X5612969Y10375500D01*
X5585001Y10375500D01*
X5585000Y10375499D01*
X5585000Y9926900D01*
X5435000Y9926900D01*
X5435000Y10375499D01*
X5434999Y10375500D01*
X5407031Y10375500D01*
X5407022Y10375499D01*
X5205043Y10335323D01*
X5205036Y10335321D01*
X5014773Y10256512D01*
X4843534Y10142094D01*
X4697905Y9996465D01*
X4583487Y9825226D01*
X4504678Y9634963D01*
X4504676Y9634956D01*
X4464500Y9432977D01*
X300500Y9432977D01*
X300500Y14512977D01*
X4464500Y14512977D01*
X4464500Y14485001D01*
X4464501Y14485000D01*
X4913100Y14485000D01*
X4913100Y14335000D01*
X4464501Y14335000D01*
X4464500Y14334999D01*
X4464500Y14307022D01*
X4504676Y14105043D01*
X4504678Y14105036D01*
X4583487Y13914773D01*
X4697905Y13743534D01*
X4843534Y13597905D01*
X5014773Y13483487D01*
X5205036Y13404678D01*
X5205043Y13404676D01*
X5407022Y13364500D01*
X5434999Y13364500D01*
X5435000Y13364501D01*
X5435000Y13813100D01*
X5585000Y13813100D01*
X5585000Y13364501D01*
X5585001Y13364500D01*
X5612977Y13364500D01*
X5814956Y13404676D01*
X5814963Y13404678D01*
X6005226Y13483487D01*
X6176465Y13597905D01*
X6322094Y13743534D01*
X6436512Y13914773D01*
X6515321Y14105036D01*
X6515323Y14105043D01*
X6555499Y14307022D01*
X6555500Y14307030D01*
X6555500Y14334999D01*
X6555499Y14335000D01*
X6106900Y14335000D01*
X6106900Y14485000D01*
X6555499Y14485000D01*
X6555500Y14485001D01*
X6555500Y14512969D01*
X6555499Y14512977D01*
X9544500Y14512977D01*
X9544500Y14485001D01*
X9544501Y14485000D01*
X9993100Y14485000D01*
X9993100Y14335000D01*
X9544501Y14335000D01*
X9544500Y14334999D01*
X9544500Y14307022D01*
X9584676Y14105043D01*
X9584678Y14105036D01*
X9663487Y13914773D01*
X9777905Y13743534D01*
X9923534Y13597905D01*
X10094773Y13483487D01*
X10285036Y13404678D01*
X10285043Y13404676D01*
X10487022Y13364500D01*
X10514999Y13364500D01*
X10515000Y13364501D01*
X10515000Y13813100D01*
X10665000Y13813100D01*
X10665000Y13364501D01*
X10665001Y13364500D01*
X10692977Y13364500D01*
X10894956Y13404676D01*
X10894963Y13404678D01*
X11085226Y13483487D01*
X11256465Y13597905D01*
X11402094Y13743534D01*
X11516512Y13914773D01*
X11595321Y14105036D01*
X11595323Y14105043D01*
X11635499Y14307022D01*
X11635500Y14307030D01*
X11635500Y14334999D01*
X11635499Y14335000D01*
X11186900Y14335000D01*
X11186900Y14485000D01*
X11635499Y14485000D01*
X11635500Y14485001D01*
X11635500Y14512969D01*
X11635499Y14512977D01*
X20684500Y14512977D01*
X20684500Y14485001D01*
X20684501Y14485000D01*
X21133100Y14485000D01*
X21133100Y14335000D01*
X20684501Y14335000D01*
X20684500Y14334999D01*
X20684500Y14307022D01*
X20724676Y14105043D01*
X20724678Y14105036D01*
X20803487Y13914773D01*
X20917905Y13743534D01*
X21063534Y13597905D01*
X21234773Y13483487D01*
X21425036Y13404678D01*
X21425043Y13404676D01*
X21627022Y13364500D01*
X21654999Y13364500D01*
X21655000Y13364501D01*
X21655000Y13813100D01*
X21805000Y13813100D01*
X21805000Y13364501D01*
X21805001Y13364500D01*
X21832977Y13364500D01*
X22034956Y13404676D01*
X22034963Y13404678D01*
X22225226Y13483487D01*
X22396465Y13597905D01*
X22542094Y13743534D01*
X22656512Y13914773D01*
X22735321Y14105036D01*
X22735323Y14105043D01*
X22775499Y14307022D01*
X22775500Y14307030D01*
X22775500Y14334999D01*
X22775499Y14335000D01*
X22326900Y14335000D01*
X22326900Y14485000D01*
X22775499Y14485000D01*
X22775500Y14485001D01*
X22775500Y14512969D01*
X22775499Y14512977D01*
X25764500Y14512977D01*
X25764500Y14485001D01*
X25764501Y14485000D01*
X26213100Y14485000D01*
X26213100Y14335000D01*
X25764501Y14335000D01*
X25764500Y14334999D01*
X25764500Y14307022D01*
X25804676Y14105043D01*
X25804678Y14105036D01*
X25883487Y13914773D01*
X25997905Y13743534D01*
X26143534Y13597905D01*
X26314773Y13483487D01*
X26505036Y13404678D01*
X26505043Y13404676D01*
X26707022Y13364500D01*
X26734999Y13364500D01*
X26735000Y13364501D01*
X26735000Y13813100D01*
X26885000Y13813100D01*
X26885000Y13364501D01*
X26885001Y13364500D01*
X26912977Y13364500D01*
X27114956Y13404676D01*
X27114963Y13404678D01*
X27305226Y13483487D01*
X27476465Y13597905D01*
X27622094Y13743534D01*
X27736512Y13914773D01*
X27815321Y14105036D01*
X27815323Y14105043D01*
X27855499Y14307022D01*
X27855500Y14307030D01*
X27855500Y14334999D01*
X27855499Y14335000D01*
X27406900Y14335000D01*
X27406900Y14485000D01*
X27855499Y14485000D01*
X27855500Y14485001D01*
X27855500Y14512969D01*
X27855499Y14512977D01*
X27815323Y14714956D01*
X27815321Y14714963D01*
X27736512Y14905226D01*
X27622094Y15076465D01*
X27476465Y15222094D01*
X27305226Y15336512D01*
X27114963Y15415321D01*
X27114956Y15415323D01*
X26912977Y15455499D01*
X26912969Y15455500D01*
X26885001Y15455500D01*
X26885000Y15455499D01*
X26885000Y15006900D01*
X26735000Y15006900D01*
X26735000Y15455499D01*
X26734999Y15455500D01*
X26707031Y15455500D01*
X26707022Y15455499D01*
X26505043Y15415323D01*
X26505036Y15415321D01*
X26314773Y15336512D01*
X26143534Y15222094D01*
X25997905Y15076465D01*
X25883487Y14905226D01*
X25804678Y14714963D01*
X25804676Y14714956D01*
X25764500Y14512977D01*
X22775499Y14512977D01*
X22735323Y14714956D01*
X22735321Y14714963D01*
X22656512Y14905226D01*
X22542094Y15076465D01*
X22396465Y15222094D01*
X22225226Y15336512D01*
X22034963Y15415321D01*
X22034956Y15415323D01*
X21832977Y15455499D01*
X21832969Y15455500D01*
X21805001Y15455500D01*
X21805000Y15455499D01*
X21805000Y15006900D01*
X21655000Y15006900D01*
X21655000Y15455499D01*
X21654999Y15455500D01*
X21627031Y15455500D01*
X21627022Y15455499D01*
X21425043Y15415323D01*
X21425036Y15415321D01*
X21234773Y15336512D01*
X21063534Y15222094D01*
X20917905Y15076465D01*
X20803487Y14905226D01*
X20724678Y14714963D01*
X20724676Y14714956D01*
X20684500Y14512977D01*
X11635499Y14512977D01*
X11595323Y14714956D01*
X11595321Y14714963D01*
X11516512Y14905226D01*
X11402094Y15076465D01*
X11256465Y15222094D01*
X11085226Y15336512D01*
X10894963Y15415321D01*
X10894956Y15415323D01*
X10692977Y15455499D01*
X10692969Y15455500D01*
X10665001Y15455500D01*
X10665000Y15455499D01*
X10665000Y15006900D01*
X10515000Y15006900D01*
X10515000Y15455499D01*
X10514999Y15455500D01*
X10487031Y15455500D01*
X10487022Y15455499D01*
X10285043Y15415323D01*
X10285036Y15415321D01*
X10094773Y15336512D01*
X9923534Y15222094D01*
X9777905Y15076465D01*
X9663487Y14905226D01*
X9584678Y14714963D01*
X9584676Y14714956D01*
X9544500Y14512977D01*
X6555499Y14512977D01*
X6515323Y14714956D01*
X6515321Y14714963D01*
X6436512Y14905226D01*
X6322094Y15076465D01*
X6176465Y15222094D01*
X6005226Y15336512D01*
X5814963Y15415321D01*
X5814956Y15415323D01*
X5612977Y15455499D01*
X5612969Y15455500D01*
X5585001Y15455500D01*
X5585000Y15455499D01*
X5585000Y15006900D01*
X5435000Y15006900D01*
X5435000Y15455499D01*
X5434999Y15455500D01*
X5407031Y15455500D01*
X5407022Y15455499D01*
X5205043Y15415323D01*
X5205036Y15415321D01*
X5014773Y15336512D01*
X4843534Y15222094D01*
X4697905Y15076465D01*
X4583487Y14905226D01*
X4504678Y14714963D01*
X4504676Y14714956D01*
X4464500Y14512977D01*
X300500Y14512977D01*
X300500Y28398646D01*
X7150000Y28398646D01*
X7150000Y28385001D01*
X7150001Y28385000D01*
X8302458Y28385000D01*
X8300000Y28375826D01*
X8300000Y28244174D01*
X8302458Y28235000D01*
X7150001Y28235000D01*
X7150000Y28234999D01*
X7150000Y28221353D01*
X7184584Y28047484D01*
X7184587Y28047477D01*
X7252427Y27883693D01*
X7350922Y27736285D01*
X7476285Y27610922D01*
X7623693Y27512427D01*
X7787477Y27444587D01*
X7787484Y27444584D01*
X7961353Y27410000D01*
X8724999Y27410000D01*
X8725000Y27410001D01*
X8725000Y27812458D01*
X8734174Y27810000D01*
X8865826Y27810000D01*
X8875000Y27812458D01*
X8875000Y27410001D01*
X8875001Y27410000D01*
X9638646Y27410000D01*
X9812515Y27444584D01*
X9812522Y27444587D01*
X9976306Y27512427D01*
X10123714Y27610922D01*
X10249077Y27736285D01*
X10347572Y27883693D01*
X10415412Y28047477D01*
X10415415Y28047484D01*
X10449999Y28221353D01*
X10450000Y28221361D01*
X10450000Y28234999D01*
X10449999Y28235000D01*
X9297542Y28235000D01*
X9300000Y28244174D01*
X9300000Y28375826D01*
X9297542Y28385000D01*
X10449999Y28385000D01*
X10450000Y28385001D01*
X10450000Y28398638D01*
X10449999Y28398646D01*
X10415415Y28572515D01*
X10415412Y28572522D01*
X10347572Y28736306D01*
X10249077Y28883714D01*
X10123714Y29009077D01*
X9976306Y29107572D01*
X9812522Y29175412D01*
X9812515Y29175415D01*
X9638646Y29209999D01*
X9638638Y29210000D01*
X8875001Y29210000D01*
X8875000Y29209999D01*
X8875000Y28807541D01*
X8865826Y28810000D01*
X8734174Y28810000D01*
X8725000Y28807541D01*
X8725000Y29209999D01*
X8724999Y29210000D01*
X7961362Y29210000D01*
X7961353Y29209999D01*
X7787484Y29175415D01*
X7787477Y29175412D01*
X7623693Y29107572D01*
X7476285Y29009077D01*
X7350922Y28883714D01*
X7252427Y28736306D01*
X7184587Y28572522D01*
X7184584Y28572515D01*
X7150000Y28398646D01*
X300500Y28398646D01*
X300500Y30938695D01*
X7149500Y30938695D01*
X7149500Y30761304D01*
X7184104Y30587338D01*
X7184107Y30587331D01*
X7251984Y30423456D01*
X7350534Y30275967D01*
X7475967Y30150534D01*
X7623456Y30051984D01*
X7787331Y29984107D01*
X7787338Y29984104D01*
X7961304Y29949500D01*
X7961309Y29949500D01*
X9638695Y29949500D01*
X9812661Y29984104D01*
X9812668Y29984107D01*
X9976543Y30051984D01*
X10124032Y30150534D01*
X10124035Y30150536D01*
X10249464Y30275965D01*
X10348013Y30423453D01*
X10348015Y30423456D01*
X10381953Y30505393D01*
X10415894Y30587334D01*
X10450500Y30761309D01*
X10450500Y30938691D01*
X10415894Y31112666D01*
X10348013Y31276547D01*
X10249464Y31424035D01*
X10124035Y31549464D01*
X9976547Y31648013D01*
X9976544Y31648014D01*
X9976543Y31648015D01*
X9939417Y31663392D01*
X9812666Y31715894D01*
X9638691Y31750500D01*
X7961309Y31750500D01*
X7961304Y31750499D01*
X7787338Y31715895D01*
X7787337Y31715894D01*
X7787334Y31715894D01*
X7705393Y31681953D01*
X7623456Y31648015D01*
X7623453Y31648013D01*
X7475965Y31549464D01*
X7350536Y31424035D01*
X7350534Y31424032D01*
X7251984Y31276543D01*
X7184107Y31112668D01*
X7184104Y31112661D01*
X7149500Y30938695D01*
X300500Y30938695D01*
X300500Y38125962D01*
X999500Y38125962D01*
X999500Y37874038D01*
X1033401Y37660000D01*
X1038911Y37625210D01*
X1038912Y37625204D01*
X1116756Y37385628D01*
X1116760Y37385618D01*
X1231129Y37161155D01*
X1231133Y37161148D01*
X1379203Y36957348D01*
X1557348Y36779203D01*
X1761148Y36631133D01*
X1761155Y36631129D01*
X1985618Y36516760D01*
X1985628Y36516756D01*
X2225204Y36438912D01*
X2225210Y36438911D01*
X2225213Y36438910D01*
X2225215Y36438910D01*
X2474038Y36399500D01*
X2474041Y36399500D01*
X2725959Y36399500D01*
X2725962Y36399500D01*
X2974785Y36438910D01*
X2974787Y36438910D01*
X2974789Y36438911D01*
X2974795Y36438912D01*
X3214371Y36516756D01*
X3214381Y36516760D01*
X3438844Y36631129D01*
X3438851Y36631133D01*
X3642651Y36779203D01*
X3642652Y36779204D01*
X3642656Y36779207D01*
X3820793Y36957344D01*
X3820796Y36957348D01*
X3968866Y37161148D01*
X3968870Y37161155D01*
X4083239Y37385618D01*
X4083241Y37385621D01*
X4108419Y37463111D01*
X4161087Y37625204D01*
X4161088Y37625210D01*
X4161090Y37625215D01*
X4200500Y37874038D01*
X4200500Y38125962D01*
X4161090Y38374785D01*
X4161087Y38374795D01*
X4124459Y38487525D01*
X4104999Y38547414D01*
X4083241Y38614379D01*
X4065781Y38648646D01*
X14150000Y38648646D01*
X14150000Y38635001D01*
X14150001Y38635000D01*
X15302458Y38635000D01*
X15300000Y38625826D01*
X15300000Y38494174D01*
X15302458Y38485000D01*
X14150001Y38485000D01*
X14150000Y38484999D01*
X14150000Y38471353D01*
X14184584Y38297484D01*
X14184587Y38297477D01*
X14252427Y38133693D01*
X14350922Y37986285D01*
X14476285Y37860922D01*
X14623693Y37762427D01*
X14787477Y37694587D01*
X14787484Y37694584D01*
X14961353Y37660000D01*
X15724999Y37660000D01*
X15725000Y37660001D01*
X15725000Y38062458D01*
X15734174Y38060000D01*
X15865826Y38060000D01*
X15875000Y38062458D01*
X15875000Y37660001D01*
X15875001Y37660000D01*
X16638646Y37660000D01*
X16812515Y37694584D01*
X16812522Y37694587D01*
X16976306Y37762427D01*
X17123714Y37860922D01*
X17249077Y37986285D01*
X17342406Y38125962D01*
X30799500Y38125962D01*
X30799500Y37874038D01*
X30833401Y37660000D01*
X30838911Y37625210D01*
X30838912Y37625204D01*
X30916756Y37385628D01*
X30916760Y37385618D01*
X31031129Y37161155D01*
X31031133Y37161148D01*
X31179203Y36957348D01*
X31357348Y36779203D01*
X31561148Y36631133D01*
X31561155Y36631129D01*
X31785618Y36516760D01*
X31785628Y36516756D01*
X32025204Y36438912D01*
X32025210Y36438911D01*
X32025213Y36438910D01*
X32025215Y36438910D01*
X32274038Y36399500D01*
X32274041Y36399500D01*
X32525959Y36399500D01*
X32525962Y36399500D01*
X32774785Y36438910D01*
X32774787Y36438910D01*
X32774789Y36438911D01*
X32774795Y36438912D01*
X33014371Y36516756D01*
X33014381Y36516760D01*
X33238844Y36631129D01*
X33238851Y36631133D01*
X33442651Y36779203D01*
X33442652Y36779204D01*
X33442656Y36779207D01*
X33620793Y36957344D01*
X33620796Y36957348D01*
X33768866Y37161148D01*
X33768870Y37161155D01*
X33883239Y37385618D01*
X33883241Y37385621D01*
X33908419Y37463111D01*
X33961087Y37625204D01*
X33961088Y37625210D01*
X33961090Y37625215D01*
X34000500Y37874038D01*
X34000500Y38125962D01*
X33961090Y38374785D01*
X33883241Y38614379D01*
X33768870Y38838845D01*
X33620793Y39042656D01*
X33442656Y39220793D01*
X33312659Y39315240D01*
X33238851Y39368866D01*
X33238848Y39368867D01*
X33238845Y39368870D01*
X33014379Y39483241D01*
X32845152Y39538226D01*
X32774795Y39561087D01*
X32774793Y39561087D01*
X32774785Y39561090D01*
X32525962Y39600500D01*
X32274038Y39600500D01*
X32025215Y39561090D01*
X32025207Y39561087D01*
X32025204Y39561087D01*
X31863111Y39508419D01*
X31785621Y39483241D01*
X31561155Y39368870D01*
X31561148Y39368866D01*
X31357348Y39220796D01*
X31357344Y39220793D01*
X31179207Y39042656D01*
X31179204Y39042652D01*
X31179203Y39042651D01*
X31031133Y38838851D01*
X31031129Y38838844D01*
X30916760Y38614381D01*
X30916756Y38614371D01*
X30838912Y38374795D01*
X30838911Y38374789D01*
X30838910Y38374785D01*
X30799500Y38125962D01*
X17342406Y38125962D01*
X17347570Y38133691D01*
X17348563Y38136088D01*
X17348564Y38136089D01*
X17415413Y38297477D01*
X17415415Y38297484D01*
X17449999Y38471353D01*
X17450000Y38471361D01*
X17450000Y38484999D01*
X17449999Y38485000D01*
X16297542Y38485000D01*
X16300000Y38494174D01*
X16300000Y38625826D01*
X16297542Y38635000D01*
X17449999Y38635000D01*
X17450000Y38635001D01*
X17450000Y38648638D01*
X17449999Y38648646D01*
X17415415Y38822515D01*
X17415412Y38822522D01*
X17347572Y38986306D01*
X17249077Y39133714D01*
X17123714Y39259077D01*
X16976306Y39357572D01*
X16812522Y39425412D01*
X16812515Y39425415D01*
X16638646Y39459999D01*
X16638638Y39460000D01*
X15875001Y39460000D01*
X15875000Y39459999D01*
X15875000Y39057541D01*
X15865826Y39060000D01*
X15734174Y39060000D01*
X15725000Y39057541D01*
X15725000Y39459999D01*
X15724999Y39460000D01*
X14961362Y39460000D01*
X14961353Y39459999D01*
X14787484Y39425415D01*
X14787477Y39425412D01*
X14623693Y39357572D01*
X14476285Y39259077D01*
X14350922Y39133714D01*
X14252427Y38986306D01*
X14184587Y38822522D01*
X14184584Y38822515D01*
X14150000Y38648646D01*
X4065781Y38648646D01*
X3968870Y38838845D01*
X3820793Y39042656D01*
X3642656Y39220793D01*
X3512659Y39315240D01*
X3438851Y39368866D01*
X3438848Y39368867D01*
X3438845Y39368870D01*
X3214379Y39483241D01*
X3045152Y39538226D01*
X2974795Y39561087D01*
X2974793Y39561087D01*
X2974785Y39561090D01*
X2725962Y39600500D01*
X2474038Y39600500D01*
X2225215Y39561090D01*
X2225207Y39561087D01*
X2225204Y39561087D01*
X2063111Y39508419D01*
X1985621Y39483241D01*
X1761155Y39368870D01*
X1761148Y39368866D01*
X1557348Y39220796D01*
X1557344Y39220793D01*
X1379207Y39042656D01*
X1379204Y39042652D01*
X1379203Y39042651D01*
X1231133Y38838851D01*
X1231129Y38838844D01*
X1116760Y38614381D01*
X1116756Y38614371D01*
X1038912Y38374795D01*
X1038911Y38374789D01*
X1038910Y38374785D01*
X999500Y38125962D01*
X300500Y38125962D01*
X300500Y41188695D01*
X14149500Y41188695D01*
X14149500Y41011304D01*
X14184104Y40837338D01*
X14184107Y40837331D01*
X14251984Y40673456D01*
X14350534Y40525967D01*
X14475967Y40400534D01*
X14623456Y40301984D01*
X14787331Y40234107D01*
X14787338Y40234104D01*
X14961304Y40199500D01*
X14961309Y40199500D01*
X16638695Y40199500D01*
X16812661Y40234104D01*
X16812668Y40234107D01*
X16976543Y40301984D01*
X17124032Y40400534D01*
X17124035Y40400536D01*
X17249464Y40525965D01*
X17348013Y40673453D01*
X17348015Y40673456D01*
X17381953Y40755393D01*
X17415894Y40837334D01*
X17450500Y41011309D01*
X17450500Y41188691D01*
X17415894Y41362666D01*
X17348013Y41526547D01*
X17249464Y41674035D01*
X17124035Y41799464D01*
X16976547Y41898013D01*
X16976544Y41898014D01*
X16976543Y41898015D01*
X16939417Y41913392D01*
X16812666Y41965894D01*
X16638691Y42000500D01*
X14961309Y42000500D01*
X14961304Y42000499D01*
X14787338Y41965895D01*
X14787337Y41965894D01*
X14787334Y41965894D01*
X14705393Y41931953D01*
X14623456Y41898015D01*
X14623453Y41898013D01*
X14475965Y41799464D01*
X14350536Y41674035D01*
X14350534Y41674032D01*
X14251984Y41526543D01*
X14184107Y41362668D01*
X14184104Y41362661D01*
X14149500Y41188695D01*
X300500Y41188695D01*
X300500Y43728695D01*
X14149500Y43728695D01*
X14149500Y43551304D01*
X14184104Y43377338D01*
X14184107Y43377331D01*
X14251984Y43213456D01*
X14350534Y43065967D01*
X14475967Y42940534D01*
X14623456Y42841984D01*
X14787331Y42774107D01*
X14787338Y42774104D01*
X14961304Y42739500D01*
X14961309Y42739500D01*
X16638695Y42739500D01*
X16812661Y42774104D01*
X16812668Y42774107D01*
X16976543Y42841984D01*
X17124032Y42940534D01*
X17124035Y42940536D01*
X17249464Y43065965D01*
X17348013Y43213453D01*
X17348015Y43213456D01*
X17381953Y43295393D01*
X17415894Y43377334D01*
X17450500Y43551309D01*
X17450500Y43728691D01*
X17415894Y43902666D01*
X17348013Y44066547D01*
X17249464Y44214035D01*
X17124035Y44339464D01*
X16976547Y44438013D01*
X16976544Y44438014D01*
X16976543Y44438015D01*
X16939417Y44453392D01*
X16812666Y44505894D01*
X16638691Y44540500D01*
X14961309Y44540500D01*
X14961304Y44540499D01*
X14787338Y44505895D01*
X14787337Y44505894D01*
X14787334Y44505894D01*
X14705393Y44471953D01*
X14623456Y44438015D01*
X14623453Y44438013D01*
X14475965Y44339464D01*
X14350536Y44214035D01*
X14350534Y44214032D01*
X14251984Y44066543D01*
X14184107Y43902668D01*
X14184104Y43902661D01*
X14149500Y43728695D01*
X300500Y43728695D01*
X300500Y53680364D01*
X18720200Y53680364D01*
X18720200Y52675001D01*
X18720201Y52675000D01*
X19202380Y52675000D01*
X19200400Y52665044D01*
X19200400Y52534956D01*
X19202380Y52525000D01*
X18720201Y52525000D01*
X18720200Y52524999D01*
X18720200Y51519635D01*
X18748286Y51342304D01*
X18748287Y51342298D01*
X18803761Y51171569D01*
X18803765Y51171559D01*
X18885270Y51011595D01*
X18885274Y51011588D01*
X18990795Y50866353D01*
X19117753Y50739395D01*
X19262988Y50633874D01*
X19262995Y50633871D01*
X19422959Y50552365D01*
X19422969Y50552361D01*
X19593698Y50496887D01*
X19593704Y50496886D01*
X19771036Y50468800D01*
X19785799Y50468800D01*
X19785800Y50468801D01*
X19785800Y51941580D01*
X19795756Y51939600D01*
X19925844Y51939600D01*
X19935800Y51941580D01*
X19935800Y50468801D01*
X19935801Y50468800D01*
X19950564Y50468800D01*
X20127895Y50496886D01*
X20127901Y50496887D01*
X20298630Y50552361D01*
X20298640Y50552365D01*
X20458605Y50633871D01*
X20458611Y50633874D01*
X20603846Y50739395D01*
X20730804Y50866353D01*
X20836325Y51011588D01*
X20836329Y51011595D01*
X20917834Y51171559D01*
X20917838Y51171569D01*
X20973312Y51342298D01*
X20973313Y51342304D01*
X21001400Y51519635D01*
X21001400Y52524999D01*
X21001399Y52525000D01*
X20519220Y52525000D01*
X20521200Y52534956D01*
X20521200Y52665044D01*
X20519220Y52675000D01*
X21001399Y52675000D01*
X21001400Y52675001D01*
X21001400Y53680364D01*
X21001394Y53680404D01*
X23723500Y53680404D01*
X23723500Y51519595D01*
X23751598Y51342187D01*
X23751599Y51342181D01*
X23807098Y51171376D01*
X23807102Y51171366D01*
X23888642Y51011333D01*
X23888646Y51011326D01*
X23994213Y50866027D01*
X24121227Y50739013D01*
X24266526Y50633446D01*
X24266533Y50633442D01*
X24426566Y50551902D01*
X24426576Y50551898D01*
X24597381Y50496399D01*
X24597387Y50496398D01*
X24597390Y50496397D01*
X24597392Y50496397D01*
X24774793Y50468300D01*
X24774796Y50468300D01*
X24954404Y50468300D01*
X24954407Y50468300D01*
X25131808Y50496397D01*
X25131810Y50496397D01*
X25131812Y50496398D01*
X25131818Y50496399D01*
X25302623Y50551898D01*
X25302633Y50551902D01*
X25462666Y50633442D01*
X25462673Y50633446D01*
X25607972Y50739013D01*
X25607973Y50739014D01*
X25607977Y50739017D01*
X25734983Y50866023D01*
X25735223Y50866353D01*
X25840553Y51011326D01*
X25840557Y51011333D01*
X25922097Y51171366D01*
X25922099Y51171369D01*
X25940050Y51226617D01*
X25977600Y51342181D01*
X25977601Y51342187D01*
X25977603Y51342192D01*
X26005700Y51519593D01*
X26005700Y53680407D01*
X25977603Y53857808D01*
X25922099Y54028631D01*
X25840557Y54188667D01*
X25734983Y54333977D01*
X25607977Y54460983D01*
X25463262Y54566125D01*
X25462673Y54566553D01*
X25462670Y54566554D01*
X25462667Y54566557D01*
X25302631Y54648099D01*
X25181980Y54687301D01*
X25131818Y54703600D01*
X25131816Y54703600D01*
X25131808Y54703603D01*
X24954407Y54731700D01*
X24774793Y54731700D01*
X24597392Y54703603D01*
X24597384Y54703600D01*
X24597381Y54703600D01*
X24481817Y54666050D01*
X24426569Y54648099D01*
X24266533Y54566557D01*
X24266526Y54566553D01*
X24121227Y54460986D01*
X24121223Y54460983D01*
X23994217Y54333977D01*
X23994214Y54333973D01*
X23994213Y54333972D01*
X23888646Y54188673D01*
X23888642Y54188666D01*
X23807102Y54028633D01*
X23807098Y54028623D01*
X23751599Y53857818D01*
X23751598Y53857812D01*
X23723500Y53680404D01*
X21001394Y53680404D01*
X20973313Y53857695D01*
X20973312Y53857701D01*
X20917838Y54028430D01*
X20917834Y54028440D01*
X20836329Y54188404D01*
X20836325Y54188411D01*
X20730804Y54333646D01*
X20603846Y54460604D01*
X20458611Y54566125D01*
X20458604Y54566129D01*
X20298640Y54647634D01*
X20298630Y54647638D01*
X20127901Y54703112D01*
X20127895Y54703113D01*
X19950564Y54731200D01*
X19935801Y54731200D01*
X19935800Y54731199D01*
X19935800Y53258419D01*
X19925844Y53260400D01*
X19795756Y53260400D01*
X19785800Y53258419D01*
X19785800Y54731199D01*
X19785799Y54731200D01*
X19771036Y54731200D01*
X19593704Y54703113D01*
X19593698Y54703112D01*
X19422969Y54647638D01*
X19422959Y54647634D01*
X19262995Y54566129D01*
X19262988Y54566125D01*
X19117753Y54460604D01*
X18990795Y54333646D01*
X18885274Y54188411D01*
X18885270Y54188404D01*
X18803765Y54028440D01*
X18803761Y54028430D01*
X18748287Y53857701D01*
X18748286Y53857695D01*
X18720200Y53680364D01*
X300500Y53680364D01*
X300500Y57525959D01*
X999500Y57525959D01*
X999500Y57274040D01*
X1038911Y57025210D01*
X1038912Y57025204D01*
X1116756Y56785628D01*
X1116760Y56785618D01*
X1231129Y56561155D01*
X1231133Y56561148D01*
X1379203Y56357348D01*
X1557348Y56179203D01*
X1761148Y56031133D01*
X1761155Y56031129D01*
X1985618Y55916760D01*
X1985628Y55916756D01*
X2225204Y55838912D01*
X2225210Y55838911D01*
X2225213Y55838910D01*
X2225215Y55838910D01*
X2474038Y55799500D01*
X2474041Y55799500D01*
X2725959Y55799500D01*
X2725962Y55799500D01*
X2974785Y55838910D01*
X2974787Y55838910D01*
X2974789Y55838911D01*
X2974795Y55838912D01*
X3214371Y55916756D01*
X3214381Y55916760D01*
X3438844Y56031129D01*
X3438851Y56031133D01*
X3642651Y56179203D01*
X3642652Y56179204D01*
X3642656Y56179207D01*
X3820793Y56357344D01*
X3820796Y56357348D01*
X3968866Y56561148D01*
X3968870Y56561155D01*
X4083239Y56785618D01*
X4083241Y56785621D01*
X4108419Y56863111D01*
X4161087Y57025204D01*
X4161088Y57025210D01*
X4161090Y57025215D01*
X4200500Y57274038D01*
X4200500Y57525959D01*
X30799500Y57525959D01*
X30799500Y57274040D01*
X30838911Y57025210D01*
X30838912Y57025204D01*
X30916756Y56785628D01*
X30916760Y56785618D01*
X31031129Y56561155D01*
X31031133Y56561148D01*
X31179203Y56357348D01*
X31357348Y56179203D01*
X31561148Y56031133D01*
X31561155Y56031129D01*
X31785618Y55916760D01*
X31785628Y55916756D01*
X32025204Y55838912D01*
X32025210Y55838911D01*
X32025213Y55838910D01*
X32025215Y55838910D01*
X32274038Y55799500D01*
X32274041Y55799500D01*
X32525959Y55799500D01*
X32525962Y55799500D01*
X32774785Y55838910D01*
X32774787Y55838910D01*
X32774789Y55838911D01*
X32774795Y55838912D01*
X33014371Y55916756D01*
X33014381Y55916760D01*
X33238844Y56031129D01*
X33238851Y56031133D01*
X33442651Y56179203D01*
X33442652Y56179204D01*
X33442656Y56179207D01*
X33620793Y56357344D01*
X33620796Y56357348D01*
X33768866Y56561148D01*
X33768870Y56561155D01*
X33883239Y56785618D01*
X33883241Y56785621D01*
X33908419Y56863111D01*
X33961087Y57025204D01*
X33961088Y57025210D01*
X33961090Y57025215D01*
X34000500Y57274038D01*
X34000500Y57525962D01*
X33961090Y57774785D01*
X33883241Y58014379D01*
X33768870Y58238845D01*
X33620793Y58442656D01*
X33442656Y58620793D01*
X33238845Y58768870D01*
X33014379Y58883241D01*
X32845152Y58938226D01*
X32774795Y58961087D01*
X32774793Y58961087D01*
X32774785Y58961090D01*
X32525962Y59000500D01*
X32274038Y59000500D01*
X32025215Y58961090D01*
X32025207Y58961087D01*
X32025204Y58961087D01*
X31863111Y58908419D01*
X31785621Y58883241D01*
X31561155Y58768870D01*
X31561148Y58768866D01*
X31357348Y58620796D01*
X31357344Y58620793D01*
X31179207Y58442656D01*
X31179204Y58442652D01*
X31179203Y58442651D01*
X31031133Y58238851D01*
X31031129Y58238844D01*
X30916760Y58014381D01*
X30916756Y58014371D01*
X30838912Y57774795D01*
X30838911Y57774789D01*
X30799500Y57525959D01*
X4200500Y57525959D01*
X4200500Y57525962D01*
X4161090Y57774785D01*
X4083241Y58014379D01*
X3968870Y58238845D01*
X3820793Y58442656D01*
X3642656Y58620793D01*
X3438845Y58768870D01*
X3214379Y58883241D01*
X3045152Y58938226D01*
X2974795Y58961087D01*
X2974793Y58961087D01*
X2974785Y58961090D01*
X2725962Y59000500D01*
X2474038Y59000500D01*
X2225215Y58961090D01*
X2225207Y58961087D01*
X2225204Y58961087D01*
X2063111Y58908419D01*
X1985621Y58883241D01*
X1761155Y58768870D01*
X1761148Y58768866D01*
X1557348Y58620796D01*
X1557344Y58620793D01*
X1379207Y58442656D01*
X1379204Y58442652D01*
X1379203Y58442651D01*
X1231133Y58238851D01*
X1231129Y58238844D01*
X1116760Y58014381D01*
X1116756Y58014371D01*
X1038912Y57774795D01*
X1038911Y57774789D01*
X999500Y57525959D01*
X300500Y57525959D01*
X300500Y59675500D01*
X307529Y59692471D01*
X324500Y59699500D01*
X34675500Y59699500D01*
X34692471Y59692471D01*
G37*
%TD.AperFunction*%
%TD*%
M02*
