<?xml version="1.0" encoding="UTF-8" standalone="no"?>
<!DOCTYPE svg PUBLIC "-//W3C//DTD SVG 1.1//EN"
 "http://www.w3.org/Graphics/SVG/1.1/DTD/svg11.dtd">
<!-- Generated by graphviz version 16.1.0 (20260904.0139)
 -->
<!-- Title: aeris10_power_distribution Pages: 1 -->
<svg width="2265pt" height="2290pt"
 viewBox="0.00 0.00 2265.00 2290.00" xmlns="http://www.w3.org/2000/svg" xmlns:xlink="http://www.w3.org/1999/xlink">
<g id="graph0" class="graph" transform="scale(1 1) rotate(0) translate(4 2286)">
<title>aeris10_power_distribution</title>
<polygon fill="white" stroke="none" points="-4,4 -4,-2286 2260.75,-2286 2260.75,4 -4,4"/>
<text xml:space="preserve" text-anchor="start" x="8" y="-2267.55" font-family="Helvetica,sans-Serif" font-size="11.00">AERIS&#45;10 &#45; Power distribution (rails, regulators, connectors, consumers, enables)</text>
<text xml:space="preserve" text-anchor="start" x="8" y="-2255.55" font-family="Helvetica,sans-Serif" font-size="11.00">Drawing ID: SYS&#45;04 (ELEC&#45;PWR&#45;01) &#160;&#160;Revision: A &#160;&#160;Date: 2026&#45;10&#45;09 &#160;&#160;Status: SOURCE&#45;DERIVED; voltages are net&#45;name nominals (feedback divider values listed, not recomputed); currents UNKNOWN unless from the xlsx budget</text>
<text xml:space="preserve" text-anchor="start" x="8" y="-2243.55" font-family="Helvetica,sans-Serif" font-size="11.00">Source: PowerBoard.sch (U1..U34 pins, R1..R56 dividers, X1..X35, SV1); RADAR_Main_Board.sch (rail connectors, consumer pins); Clocks_Freq_Synth_board.sch (X10..X15, L9..L13); RF_PA.sch (&#39;22V&#39;, X2, X3); main.h:94&#45;123 (EN_P_* pins); main.cpp:1241&#45;1276, 1485&#45;1488, 1601 and ADAR1000_Manager.cpp:51&#45;54 (enable order/delays); 3_Power Management/Power Management V6.xlsx (budget, column K/L)</text>
<text xml:space="preserve" text-anchor="start" x="8" y="-2231.55" font-family="Helvetica,sans-Serif" font-size="11.00">Legend: solid = in schematic | dashed = documented only | red = conflict / enable never asserted in firmware | edge label = connector pair (Power &#45;&gt; destination) | &#39;ALWAYS ON&#39; = EN pin tied to VIN or own input</text>
<g id="clust1" class="cluster">
<title>cluster_pwr</title>
<path fill="#fbfcfc" stroke="#2c3e50" d="M289.25,-319C289.25,-319 1062.62,-319 1062.62,-319 1068.62,-319 1074.62,-325 1074.62,-331 1074.62,-331 1074.62,-1833 1074.62,-1833 1074.62,-1839 1068.62,-1845 1062.62,-1845 1062.62,-1845 289.25,-1845 289.25,-1845 283.25,-1845 277.25,-1839 277.25,-1833 277.25,-1833 277.25,-331 277.25,-331 277.25,-325 283.25,-319 289.25,-319"/>
<text xml:space="preserve" text-anchor="middle" x="370.38" y="-1831.5" font-family="Helvetica,sans-Serif" font-size="10.00">Power Supply Board (PowerBoard.sch)</text>
</g>
<g id="clust2" class="cluster">
<title>cluster_buck_en</title>
<path fill="#fbfcfc" stroke="#5d6d7e" stroke-dasharray="5,2" d="M453.5,-1169C453.5,-1169 672.75,-1169 672.75,-1169 678.75,-1169 684.75,-1175 684.75,-1181 684.75,-1181 684.75,-1766 684.75,-1766 684.75,-1772 678.75,-1778 672.75,-1778 672.75,-1778 453.5,-1778 453.5,-1778 447.5,-1778 441.5,-1772 441.5,-1766 441.5,-1766 441.5,-1181 441.5,-1181 441.5,-1175 447.5,-1169 453.5,-1169"/>
<text xml:space="preserve" text-anchor="middle" x="563.12" y="-1765.45" font-family="Helvetica,sans-Serif" font-size="9.00">TPS562208DDCT bucks with STM32 enable (VIN input)</text>
</g>
<g id="clust3" class="cluster">
<title>cluster_buck_on</title>
<path fill="#fbfcfc" stroke="#5d6d7e" stroke-dasharray="5,2" d="M467,-327C467,-327 659.25,-327 659.25,-327 665.25,-327 671.25,-333 671.25,-339 671.25,-339 671.25,-777 671.25,-777 671.25,-783 665.25,-789 659.25,-789 659.25,-789 467,-789 467,-789 461,-789 455,-783 455,-777 455,-777 455,-339 455,-339 455,-333 461,-327 467,-327"/>
<text xml:space="preserve" text-anchor="middle" x="563.12" y="-776.45" font-family="Helvetica,sans-Serif" font-size="9.00">TPS562208DDCT bucks ALWAYS ON (EN = VIN)</text>
</g>
<g id="clust4" class="cluster">
<title>cluster_ldo</title>
<path fill="#fbfcfc" stroke="#5d6d7e" stroke-dasharray="5,2" d="M452.5,-797C452.5,-797 1025.88,-797 1025.88,-797 1031.88,-797 1037.88,-803 1037.88,-809 1037.88,-809 1037.88,-1149 1037.88,-1149 1037.88,-1155 1031.88,-1161 1025.88,-1161 1025.88,-1161 452.5,-1161 452.5,-1161 446.5,-1161 440.5,-1155 440.5,-1149 440.5,-1149 440.5,-809 440.5,-809 440.5,-803 446.5,-797 452.5,-797"/>
<text xml:space="preserve" text-anchor="middle" x="460.12" y="-1148.45" font-family="Helvetica,sans-Serif" font-size="9.00">LDOs</text>
</g>
<g id="clust5" class="cluster">
<title>cluster_inv</title>
<path fill="#fbfcfc" stroke="#5d6d7e" stroke-dasharray="5,2" d="M859.12,-1485C859.12,-1485 1026.62,-1485 1026.62,-1485 1032.62,-1485 1038.62,-1491 1038.62,-1497 1038.62,-1497 1038.62,-1739 1038.62,-1739 1038.62,-1745 1032.62,-1751 1026.62,-1751 1026.62,-1751 859.12,-1751 859.12,-1751 853.12,-1751 847.12,-1745 847.12,-1739 847.12,-1739 847.12,-1497 847.12,-1497 847.12,-1491 853.12,-1485 859.12,-1485"/>
<text xml:space="preserve" text-anchor="middle" x="942.88" y="-1738.45" font-family="Helvetica,sans-Serif" font-size="9.00">LM2662MX charge&#45;pump inverters (no EN)</text>
</g>
<g id="clust6" class="cluster">
<title>cluster_main</title>
<path fill="#fbfcfc" stroke="#2c3e50" d="M20,-1853C20,-1853 1648.75,-1853 1648.75,-1853 1654.75,-1853 1660.75,-1859 1660.75,-1865 1660.75,-1865 1660.75,-2206 1660.75,-2206 1660.75,-2212 1654.75,-2218 1648.75,-2218 1648.75,-2218 20,-2218 20,-2218 14,-2218 8,-2212 8,-2206 8,-2206 8,-1865 8,-1865 8,-1859 14,-1853 20,-1853"/>
<text xml:space="preserve" text-anchor="middle" x="126.62" y="-2204.5" font-family="Helvetica,sans-Serif" font-size="10.00">Main Board consumers (RADAR_Main_Board.sch)</text>
</g>
<g id="clust7" class="cluster">
<title>cluster_syn</title>
<path fill="#fbfcfc" stroke="#2c3e50" d="M793.25,-44C793.25,-44 1639.75,-44 1639.75,-44 1645.75,-44 1651.75,-50 1651.75,-56 1651.75,-56 1651.75,-299 1651.75,-299 1651.75,-305 1645.75,-311 1639.75,-311 1639.75,-311 793.25,-311 793.25,-311 787.25,-311 781.25,-305 781.25,-299 781.25,-299 781.25,-56 781.25,-56 781.25,-50 787.25,-44 793.25,-44"/>
<text xml:space="preserve" text-anchor="middle" x="950.88" y="-297.5" font-family="Helvetica,sans-Serif" font-size="10.00">Frequency Synthesizer Board consumers (Clocks_Freq_Synth_board.sch)</text>
</g>
<g id="clust8" class="cluster">
<title>cluster_pa</title>
<path fill="#fbfcfc" stroke="#2c3e50" d="M1970,-1902C1970,-1902 2236.75,-1902 2236.75,-1902 2242.75,-1902 2248.75,-1908 2248.75,-1914 2248.75,-1914 2248.75,-2010 2248.75,-2010 2248.75,-2016 2242.75,-2022 2236.75,-2022 2236.75,-2022 1970,-2022 1970,-2022 1964,-2022 1958,-2016 1958,-2010 1958,-2010 1958,-1914 1958,-1914 1958,-1908 1964,-1902 1970,-1902"/>
<text xml:space="preserve" text-anchor="middle" x="2032" y="-2008.5" font-family="Helvetica,sans-Serif" font-size="10.00">RF PA board x16 (RF_PA.sch)</text>
</g>
<!-- vin_src -->
<g id="node1" class="node">
<title>vin_src</title>
<path fill="#f4f6f8" stroke="#2c3e50" stroke-dasharray="5,2" d="M115.25,-1235C115.25,-1235 26.5,-1235 26.5,-1235 20.5,-1235 14.5,-1229 14.5,-1223 14.5,-1223 14.5,-1211 14.5,-1211 14.5,-1205 20.5,-1199 26.5,-1199 26.5,-1199 115.25,-1199 115.25,-1199 121.25,-1199 127.25,-1205 127.25,-1211 127.25,-1211 127.25,-1223 127.25,-1223 127.25,-1229 121.25,-1235 115.25,-1235"/>
<text xml:space="preserve" text-anchor="middle" x="70.88" y="-1222.9" font-family="Helvetica,sans-Serif" font-size="8.00">External DC source</text>
<text xml:space="preserve" text-anchor="middle" x="70.88" y="-1213.9" font-family="Helvetica,sans-Serif" font-size="8.00">12&#45;17 V (silk &#39;Vin [12&#45;17]V&#39;)</text>
<text xml:space="preserve" text-anchor="middle" x="70.88" y="-1204.9" font-family="Helvetica,sans-Serif" font-size="8.00">source: NOT SPECIFIED</text>
</g>
<!-- X1 -->
<g id="node3" class="node">
<title>X1</title>
<path fill="#f4f6f8" stroke="#2c3e50" d="M355.25,-1235C355.25,-1235 320.5,-1235 320.5,-1235 314.5,-1235 308.5,-1229 308.5,-1223 308.5,-1223 308.5,-1211 308.5,-1211 308.5,-1205 314.5,-1199 320.5,-1199 320.5,-1199 355.25,-1199 355.25,-1199 361.25,-1199 367.25,-1205 367.25,-1211 367.25,-1211 367.25,-1223 367.25,-1223 367.25,-1229 361.25,-1235 355.25,-1235"/>
<text xml:space="preserve" text-anchor="middle" x="337.88" y="-1218.4" font-family="Helvetica,sans-Serif" font-size="8.00">X1 AK300/2</text>
<text xml:space="preserve" text-anchor="middle" x="337.88" y="-1209.4" font-family="Helvetica,sans-Serif" font-size="8.00">VIN / GND</text>
</g>
<!-- vin_src&#45;&gt;X1 -->
<g id="edge1" class="edge">
<title>vin_src&#45;&gt;X1</title>
<path fill="none" stroke="#7f8c8d" stroke-dasharray="5,2" d="M127.43,-1217C178.14,-1217 251.87,-1217 296.97,-1217"/>
<polygon fill="#7f8c8d" stroke="#7f8c8d" points="296.82,-1220.5 306.82,-1217 296.82,-1213.5 296.82,-1220.5"/>
</g>
<!-- v22_src -->
<g id="node2" class="node">
<title>v22_src</title>
<path fill="#f4f6f8" stroke="#c0392b" stroke-dasharray="5,2" d="M1543.25,-36C1543.25,-36 1440.25,-36 1440.25,-36 1434.25,-36 1428.25,-30 1428.25,-24 1428.25,-24 1428.25,-12 1428.25,-12 1428.25,-6 1434.25,0 1440.25,0 1440.25,0 1543.25,0 1543.25,0 1549.25,0 1555.25,-6 1555.25,-12 1555.25,-12 1555.25,-24 1555.25,-24 1555.25,-30 1549.25,-36 1543.25,-36"/>
<text xml:space="preserve" text-anchor="middle" x="1491.75" y="-23.9" font-family="Helvetica,sans-Serif" font-size="8.00" fill="#c0392b">External +22 V PA drain source</text>
<text xml:space="preserve" text-anchor="middle" x="1491.75" y="-14.9" font-family="Helvetica,sans-Serif" font-size="8.00" fill="#c0392b">xlsx row 59 (22 V, 2 A x16)</text>
<text xml:space="preserve" text-anchor="middle" x="1491.75" y="-5.9" font-family="Helvetica,sans-Serif" font-size="8.00" fill="#c0392b">NOT IN ANY CAD (K4)</text>
</g>
<!-- p_vd -->
<g id="node60" class="node">
<title>p_vd</title>
<path fill="#f4f6f8" stroke="#2c3e50" d="M2228.75,-1946C2228.75,-1946 1978,-1946 1978,-1946 1972,-1946 1966,-1940 1966,-1934 1966,-1934 1966,-1922 1966,-1922 1966,-1916 1972,-1910 1978,-1910 1978,-1910 2228.75,-1910 2228.75,-1910 2234.75,-1910 2240.75,-1916 2240.75,-1922 2240.75,-1922 2240.75,-1934 2240.75,-1934 2240.75,-1940 2234.75,-1946 2228.75,-1946"/>
<text xml:space="preserve" text-anchor="middle" x="2103.38" y="-1929.4" font-family="Helvetica,sans-Serif" font-size="8.00">&#39;22V&#39; AK300/2 &#45;&gt; VD &#45;&gt; R10 5 mR &#45;&gt; VIN_M &#45;&gt; U$1 QPA2962 VD1/VD2</text>
<text xml:space="preserve" text-anchor="middle" x="2103.38" y="-1920.4" font-family="Helvetica,sans-Serif" font-size="8.00">X3: VD / VIN_M / GND sense to Main INA241</text>
</g>
<!-- v22_src&#45;&gt;p_vd -->
<g id="edge87" class="edge">
<title>v22_src&#45;&gt;p_vd</title>
<path fill="none" stroke="#c0392b" stroke-dasharray="5,2" d="M1555.44,-10.48C1590.56,-9.84 1632.78,-15.54 1660.75,-41 1953.63,-307.61 2081.32,-1679.71 2099.95,-1898.56"/>
<polygon fill="#c0392b" stroke="#c0392b" points="2096.44,-1898.54 2100.76,-1908.21 2103.41,-1897.95 2096.44,-1898.54"/>
<text xml:space="preserve" text-anchor="middle" x="1809.38" y="-728.43" font-family="Helvetica,sans-Serif" font-size="7.00" fill="#c0392b">&#39;22V&#39; terminal, switched by EN/DIS_RFPA_VDD (PD6, JP10) &#45; switch NOT IN CAD</text>
</g>
<!-- U1 -->
<g id="node4" class="node">
<title>U1</title>
<path fill="#f4f6f8" stroke="#2c3e50" d="M614.5,-1752C614.5,-1752 510.75,-1752 510.75,-1752 504.75,-1752 498.75,-1746 498.75,-1740 498.75,-1740 498.75,-1728 498.75,-1728 498.75,-1722 504.75,-1716 510.75,-1716 510.75,-1716 614.5,-1716 614.5,-1716 620.5,-1716 626.5,-1722 626.5,-1728 626.5,-1728 626.5,-1740 626.5,-1740 626.5,-1746 620.5,-1752 614.5,-1752"/>
<text xml:space="preserve" text-anchor="middle" x="562.62" y="-1739.9" font-family="Helvetica,sans-Serif" font-size="8.00">U1 TPS562208 &#45;&gt; +1V0_FPGA</text>
<text xml:space="preserve" text-anchor="middle" x="562.62" y="-1730.9" font-family="Helvetica,sans-Serif" font-size="8.00">R1 3.09k / R2 10k</text>
<text xml:space="preserve" text-anchor="middle" x="562.62" y="-1721.9" font-family="Helvetica,sans-Serif" font-size="8.00">EN_+1V0_FPGA (PE7) seq F3</text>
</g>
<!-- X1&#45;&gt;U1 -->
<g id="edge2" class="edge">
<title>X1&#45;&gt;U1</title>
<path fill="none" stroke="#7f8c8d" d="M341.42,-1235.44C353.39,-1320.94 404.97,-1676.03 440.5,-1710 453.15,-1722.09 470.04,-1728.91 487.19,-1732.6"/>
<polygon fill="#7f8c8d" stroke="#7f8c8d" points="486.51,-1736.03 496.96,-1734.32 487.73,-1729.14 486.51,-1736.03"/>
</g>
<!-- U2 -->
<g id="node5" class="node">
<title>U2</title>
<path fill="#f4f6f8" stroke="#2c3e50" d="M614.5,-1409C614.5,-1409 510.75,-1409 510.75,-1409 504.75,-1409 498.75,-1403 498.75,-1397 498.75,-1397 498.75,-1385 498.75,-1385 498.75,-1379 504.75,-1373 510.75,-1373 510.75,-1373 614.5,-1373 614.5,-1373 620.5,-1373 626.5,-1379 626.5,-1385 626.5,-1385 626.5,-1397 626.5,-1397 626.5,-1403 620.5,-1409 614.5,-1409"/>
<text xml:space="preserve" text-anchor="middle" x="562.62" y="-1396.9" font-family="Helvetica,sans-Serif" font-size="8.00">U2 TPS562208 &#45;&gt; +1V8_FPGA</text>
<text xml:space="preserve" text-anchor="middle" x="562.62" y="-1387.9" font-family="Helvetica,sans-Serif" font-size="8.00">R3 13.7k / R4 10k</text>
<text xml:space="preserve" text-anchor="middle" x="562.62" y="-1378.9" font-family="Helvetica,sans-Serif" font-size="8.00">EN_+1V8_FPGA (PE8) seq F4</text>
</g>
<!-- X1&#45;&gt;U2 -->
<g id="edge3" class="edge">
<title>X1&#45;&gt;U2</title>
<path fill="none" stroke="#7f8c8d" d="M345.83,-1235.44C359,-1267.7 390.82,-1334.06 440.5,-1367 454.29,-1376.14 470.78,-1381.96 487.08,-1385.61"/>
<polygon fill="#7f8c8d" stroke="#7f8c8d" points="486.33,-1389.03 496.82,-1387.52 487.68,-1382.16 486.33,-1389.03"/>
</g>
<!-- U4 -->
<g id="node6" class="node">
<title>U4</title>
<path fill="#f4f6f8" stroke="#2c3e50" d="M614.5,-1556C614.5,-1556 510.75,-1556 510.75,-1556 504.75,-1556 498.75,-1550 498.75,-1544 498.75,-1544 498.75,-1532 498.75,-1532 498.75,-1526 504.75,-1520 510.75,-1520 510.75,-1520 614.5,-1520 614.5,-1520 620.5,-1520 626.5,-1526 626.5,-1532 626.5,-1532 626.5,-1544 626.5,-1544 626.5,-1550 620.5,-1556 614.5,-1556"/>
<text xml:space="preserve" text-anchor="middle" x="562.62" y="-1543.9" font-family="Helvetica,sans-Serif" font-size="8.00">U4 TPS562208 &#45;&gt; +3V3_FPGA</text>
<text xml:space="preserve" text-anchor="middle" x="562.62" y="-1534.9" font-family="Helvetica,sans-Serif" font-size="8.00">R7 32.2k / R8 10k</text>
<text xml:space="preserve" text-anchor="middle" x="562.62" y="-1525.9" font-family="Helvetica,sans-Serif" font-size="8.00">EN_+3V3_FPGA (PE9) seq F5</text>
</g>
<!-- X1&#45;&gt;U4 -->
<g id="edge5" class="edge">
<title>X1&#45;&gt;U4</title>
<path fill="none" stroke="#7f8c8d" d="M339.14,-1235.48C340.97,-1288.08 353.87,-1439.63 440.5,-1514 453.58,-1525.23 470.38,-1531.77 487.29,-1535.46"/>
<polygon fill="#7f8c8d" stroke="#7f8c8d" points="486.42,-1538.86 496.89,-1537.22 487.69,-1531.97 486.42,-1538.86"/>
</g>
<!-- U6 -->
<g id="node7" class="node">
<title>U6</title>
<path fill="#f4f6f8" stroke="#2c3e50" d="M621.62,-1507C621.62,-1507 503.62,-1507 503.62,-1507 497.62,-1507 491.62,-1501 491.62,-1495 491.62,-1495 491.62,-1483 491.62,-1483 491.62,-1477 497.62,-1471 503.62,-1471 503.62,-1471 621.62,-1471 621.62,-1471 627.62,-1471 633.62,-1477 633.62,-1483 633.62,-1483 633.62,-1495 633.62,-1495 633.62,-1501 627.62,-1507 621.62,-1507"/>
<text xml:space="preserve" text-anchor="middle" x="562.62" y="-1494.9" font-family="Helvetica,sans-Serif" font-size="8.00">U6 TPS562208 &#45;&gt; +3V3_ADAR_12</text>
<text xml:space="preserve" text-anchor="middle" x="562.62" y="-1485.9" font-family="Helvetica,sans-Serif" font-size="8.00">R11 32.2k / R12 10k</text>
<text xml:space="preserve" text-anchor="middle" x="562.62" y="-1476.9" font-family="Helvetica,sans-Serif" font-size="8.00">EN_+3V3_ADAR12 (PE11) seq F6</text>
</g>
<!-- X1&#45;&gt;U6 -->
<g id="edge6" class="edge">
<title>X1&#45;&gt;U6</title>
<path fill="none" stroke="#7f8c8d" d="M340.6,-1235.39C345.99,-1281.81 366.86,-1404.37 440.5,-1465 451.84,-1474.34 465.79,-1480.4 480.14,-1484.26"/>
<polygon fill="#7f8c8d" stroke="#7f8c8d" points="479.15,-1487.62 489.68,-1486.47 480.73,-1480.8 479.15,-1487.62"/>
</g>
<!-- U7 -->
<g id="node8" class="node">
<title>U7</title>
<path fill="#f4f6f8" stroke="#2c3e50" d="M621.62,-1458C621.62,-1458 503.62,-1458 503.62,-1458 497.62,-1458 491.62,-1452 491.62,-1446 491.62,-1446 491.62,-1434 491.62,-1434 491.62,-1428 497.62,-1422 503.62,-1422 503.62,-1422 621.62,-1422 621.62,-1422 627.62,-1422 633.62,-1428 633.62,-1434 633.62,-1434 633.62,-1446 633.62,-1446 633.62,-1452 627.62,-1458 621.62,-1458"/>
<text xml:space="preserve" text-anchor="middle" x="562.62" y="-1445.9" font-family="Helvetica,sans-Serif" font-size="8.00">U7 TPS562208 &#45;&gt; +3V3_ADAR_34</text>
<text xml:space="preserve" text-anchor="middle" x="562.62" y="-1436.9" font-family="Helvetica,sans-Serif" font-size="8.00">R13 32.2k / R14 10k</text>
<text xml:space="preserve" text-anchor="middle" x="562.62" y="-1427.9" font-family="Helvetica,sans-Serif" font-size="8.00">EN_+3V3_ADAR34 (PE12) seq F6</text>
</g>
<!-- X1&#45;&gt;U7 -->
<g id="edge7" class="edge">
<title>X1&#45;&gt;U7</title>
<path fill="none" stroke="#7f8c8d" d="M342.59,-1235.28C351.66,-1275.03 378.91,-1369.46 440.5,-1416 452.08,-1424.75 466.02,-1430.56 480.25,-1434.36"/>
<polygon fill="#7f8c8d" stroke="#7f8c8d" points="479.15,-1437.69 489.68,-1436.54 480.73,-1430.87 479.15,-1437.69"/>
</g>
<!-- U8 -->
<g id="node9" class="node">
<title>U8</title>
<path fill="#f4f6f8" stroke="#2c3e50" d="M622.75,-1311C622.75,-1311 502.5,-1311 502.5,-1311 496.5,-1311 490.5,-1305 490.5,-1299 490.5,-1299 490.5,-1287 490.5,-1287 490.5,-1281 496.5,-1275 502.5,-1275 502.5,-1275 622.75,-1275 622.75,-1275 628.75,-1275 634.75,-1281 634.75,-1287 634.75,-1287 634.75,-1299 634.75,-1299 634.75,-1305 628.75,-1311 622.75,-1311"/>
<text xml:space="preserve" text-anchor="middle" x="562.62" y="-1298.9" font-family="Helvetica,sans-Serif" font-size="8.00">U8 TPS562208 &#45;&gt; +3V3_VDD_SW</text>
<text xml:space="preserve" text-anchor="middle" x="562.62" y="-1289.9" font-family="Helvetica,sans-Serif" font-size="8.00">R15 32.2k / R16 10k</text>
<text xml:space="preserve" text-anchor="middle" x="562.62" y="-1280.9" font-family="Helvetica,sans-Serif" font-size="8.00">EN_+3V3_VDD_SW (PE15) seq F8</text>
</g>
<!-- X1&#45;&gt;U8 -->
<g id="edge8" class="edge">
<title>X1&#45;&gt;U8</title>
<path fill="none" stroke="#7f8c8d" d="M367.71,-1234.49C387.55,-1245.83 414.85,-1260.09 440.5,-1269 452.84,-1273.29 466.17,-1276.89 479.32,-1279.9"/>
<polygon fill="#7f8c8d" stroke="#7f8c8d" points="478.3,-1283.26 488.81,-1281.96 479.78,-1276.42 478.3,-1283.26"/>
</g>
<!-- U10 -->
<g id="node10" class="node">
<title>U10</title>
<path fill="#f4f6f8" stroke="#2c3e50" d="M612.25,-1213C612.25,-1213 513,-1213 513,-1213 507,-1213 501,-1207 501,-1201 501,-1201 501,-1189 501,-1189 501,-1183 507,-1177 513,-1177 513,-1177 612.25,-1177 612.25,-1177 618.25,-1177 624.25,-1183 624.25,-1189 624.25,-1189 624.25,-1201 624.25,-1201 624.25,-1207 618.25,-1213 612.25,-1213"/>
<text xml:space="preserve" text-anchor="middle" x="562.62" y="-1200.9" font-family="Helvetica,sans-Serif" font-size="8.00">U10 TPS562208 &#45;&gt; +3V3_SW</text>
<text xml:space="preserve" text-anchor="middle" x="562.62" y="-1191.9" font-family="Helvetica,sans-Serif" font-size="8.00">R19 32.2k / R20 10k</text>
<text xml:space="preserve" text-anchor="middle" x="562.62" y="-1182.9" font-family="Helvetica,sans-Serif" font-size="8.00">EN_+3V3_SW (PE14) seq F9</text>
</g>
<!-- X1&#45;&gt;U10 -->
<g id="edge10" class="edge">
<title>X1&#45;&gt;U10</title>
<path fill="none" stroke="#7f8c8d" d="M367.58,-1212.92C381.95,-1210.97 399.62,-1208.69 415.5,-1207 439.54,-1204.45 465.85,-1202.14 489.44,-1200.24"/>
<polygon fill="#7f8c8d" stroke="#7f8c8d" points="489.58,-1203.74 499.27,-1199.46 489.02,-1196.76 489.58,-1203.74"/>
</g>
<!-- U13 -->
<g id="node11" class="node">
<title>U13</title>
<path fill="#f4f6f8" stroke="#2c3e50" d="M617.12,-1262C617.12,-1262 508.12,-1262 508.12,-1262 502.12,-1262 496.12,-1256 496.12,-1250 496.12,-1250 496.12,-1238 496.12,-1238 496.12,-1232 502.12,-1226 508.12,-1226 508.12,-1226 617.12,-1226 617.12,-1226 623.12,-1226 629.12,-1232 629.12,-1238 629.12,-1238 629.12,-1250 629.12,-1250 629.12,-1256 623.12,-1262 617.12,-1262"/>
<text xml:space="preserve" text-anchor="middle" x="562.62" y="-1249.9" font-family="Helvetica,sans-Serif" font-size="8.00">U13 TPS562208 &#45;&gt; +5V0_ADAR</text>
<text xml:space="preserve" text-anchor="middle" x="562.62" y="-1240.9" font-family="Helvetica,sans-Serif" font-size="8.00">R25 56.2k / R26 10k</text>
<text xml:space="preserve" text-anchor="middle" x="562.62" y="-1231.9" font-family="Helvetica,sans-Serif" font-size="8.00">EN_+5V0_ADAR (PE10) seq F7</text>
</g>
<!-- X1&#45;&gt;U13 -->
<g id="edge13" class="edge">
<title>X1&#45;&gt;U13</title>
<path fill="none" stroke="#7f8c8d" d="M367.54,-1220.47C396.97,-1224.04 444.05,-1229.75 484.47,-1234.65"/>
<polygon fill="#7f8c8d" stroke="#7f8c8d" points="483.82,-1238.09 494.17,-1235.82 484.66,-1231.15 483.82,-1238.09"/>
</g>
<!-- U14 -->
<g id="node12" class="node">
<title>U14</title>
<path fill="#f4f6f8" stroke="#c0392b" d="M632.5,-1703C632.5,-1703 492.75,-1703 492.75,-1703 486.75,-1703 480.75,-1697 480.75,-1691 480.75,-1691 480.75,-1679 480.75,-1679 480.75,-1673 486.75,-1667 492.75,-1667 492.75,-1667 632.5,-1667 632.5,-1667 638.5,-1667 644.5,-1673 644.5,-1679 644.5,-1679 644.5,-1691 644.5,-1691 644.5,-1697 638.5,-1703 632.5,-1703"/>
<text xml:space="preserve" text-anchor="middle" x="562.62" y="-1690.9" font-family="Helvetica,sans-Serif" font-size="8.00" fill="#c0392b">U14 TPS562208 &#45;&gt; +5V0_PA_1</text>
<text xml:space="preserve" text-anchor="middle" x="562.62" y="-1681.9" font-family="Helvetica,sans-Serif" font-size="8.00" fill="#c0392b">R27 56.2k / R28 10k</text>
<text xml:space="preserve" text-anchor="middle" x="562.62" y="-1672.9" font-family="Helvetica,sans-Serif" font-size="8.00" fill="#c0392b">EN_+5V0_PA1 (PG0) NEVER SET HIGH</text>
</g>
<!-- X1&#45;&gt;U14 -->
<g id="edge14" class="edge">
<title>X1&#45;&gt;U14</title>
<path fill="none" stroke="#7f8c8d" d="M341.83,-1235.49C354.83,-1315.78 407.72,-1631.45 440.5,-1661 448.86,-1668.53 458.89,-1673.99 469.54,-1677.9"/>
<polygon fill="#7f8c8d" stroke="#7f8c8d" points="468.34,-1681.19 478.93,-1680.86 470.44,-1674.51 468.34,-1681.19"/>
</g>
<!-- U15 -->
<g id="node13" class="node">
<title>U15</title>
<path fill="#f4f6f8" stroke="#c0392b" d="M632.5,-1654C632.5,-1654 492.75,-1654 492.75,-1654 486.75,-1654 480.75,-1648 480.75,-1642 480.75,-1642 480.75,-1630 480.75,-1630 480.75,-1624 486.75,-1618 492.75,-1618 492.75,-1618 632.5,-1618 632.5,-1618 638.5,-1618 644.5,-1624 644.5,-1630 644.5,-1630 644.5,-1642 644.5,-1642 644.5,-1648 638.5,-1654 632.5,-1654"/>
<text xml:space="preserve" text-anchor="middle" x="562.62" y="-1641.9" font-family="Helvetica,sans-Serif" font-size="8.00" fill="#c0392b">U15 TPS562208 &#45;&gt; +5V0_PA_2</text>
<text xml:space="preserve" text-anchor="middle" x="562.62" y="-1632.9" font-family="Helvetica,sans-Serif" font-size="8.00" fill="#c0392b">R29 56.2k / R30 10k</text>
<text xml:space="preserve" text-anchor="middle" x="562.62" y="-1623.9" font-family="Helvetica,sans-Serif" font-size="8.00" fill="#c0392b">EN_+5V0_PA2 (PG1) NEVER SET HIGH</text>
</g>
<!-- X1&#45;&gt;U15 -->
<g id="edge15" class="edge">
<title>X1&#45;&gt;U15</title>
<path fill="none" stroke="#7f8c8d" d="M340.9,-1235.15C349.15,-1305.64 382.55,-1559.96 440.5,-1612 448.87,-1619.52 458.91,-1624.97 469.57,-1628.87"/>
<polygon fill="#7f8c8d" stroke="#7f8c8d" points="468.36,-1632.16 478.95,-1631.83 470.47,-1625.48 468.36,-1632.16"/>
</g>
<!-- U16 -->
<g id="node14" class="node">
<title>U16</title>
<path fill="#f4f6f8" stroke="#c0392b" d="M632.5,-1605C632.5,-1605 492.75,-1605 492.75,-1605 486.75,-1605 480.75,-1599 480.75,-1593 480.75,-1593 480.75,-1581 480.75,-1581 480.75,-1575 486.75,-1569 492.75,-1569 492.75,-1569 632.5,-1569 632.5,-1569 638.5,-1569 644.5,-1575 644.5,-1581 644.5,-1581 644.5,-1593 644.5,-1593 644.5,-1599 638.5,-1605 632.5,-1605"/>
<text xml:space="preserve" text-anchor="middle" x="562.62" y="-1592.9" font-family="Helvetica,sans-Serif" font-size="8.00" fill="#c0392b">U16 TPS562208 &#45;&gt; +5V0_PA_3</text>
<text xml:space="preserve" text-anchor="middle" x="562.62" y="-1583.9" font-family="Helvetica,sans-Serif" font-size="8.00" fill="#c0392b">R31 56.2k / R32 10k</text>
<text xml:space="preserve" text-anchor="middle" x="562.62" y="-1574.9" font-family="Helvetica,sans-Serif" font-size="8.00" fill="#c0392b">EN_+5V0_PA3 (PG2) NEVER SET HIGH</text>
</g>
<!-- X1&#45;&gt;U16 -->
<g id="edge16" class="edge">
<title>X1&#45;&gt;U16</title>
<path fill="none" stroke="#7f8c8d" d="M341.58,-1235.11C351.64,-1299.87 388.94,-1518.53 440.5,-1563 448.96,-1570.3 459,-1575.62 469.62,-1579.47"/>
<polygon fill="#7f8c8d" stroke="#7f8c8d" points="468.37,-1582.74 478.95,-1582.39 470.46,-1576.06 468.37,-1582.74"/>
</g>
<!-- U17 -->
<g id="node15" class="node">
<title>U17</title>
<path fill="#f4f6f8" stroke="#c0392b" d="M629.88,-1360C629.88,-1360 495.38,-1360 495.38,-1360 489.38,-1360 483.38,-1354 483.38,-1348 483.38,-1348 483.38,-1336 483.38,-1336 483.38,-1330 489.38,-1324 495.38,-1324 495.38,-1324 629.88,-1324 629.88,-1324 635.88,-1324 641.88,-1330 641.88,-1336 641.88,-1336 641.88,-1348 641.88,-1348 641.88,-1354 635.88,-1360 629.88,-1360"/>
<text xml:space="preserve" text-anchor="middle" x="562.62" y="-1347.9" font-family="Helvetica,sans-Serif" font-size="8.00" fill="#c0392b">U17 TPS562208 &#45;&gt; +5V5_PA</text>
<text xml:space="preserve" text-anchor="middle" x="562.62" y="-1338.9" font-family="Helvetica,sans-Serif" font-size="8.00" fill="#c0392b">R33 61.9k / R34 10k</text>
<text xml:space="preserve" text-anchor="middle" x="562.62" y="-1329.9" font-family="Helvetica,sans-Serif" font-size="8.00" fill="#c0392b">EN_+5V5_PA (PG3) NEVER SET HIGH</text>
</g>
<!-- X1&#45;&gt;U17 -->
<g id="edge17" class="edge">
<title>X1&#45;&gt;U17</title>
<path fill="none" stroke="#7f8c8d" d="M351.71,-1235.19C369.07,-1258.32 402.29,-1297.67 440.5,-1318 450.29,-1323.21 461.08,-1327.3 472.05,-1330.5"/>
<polygon fill="#7f8c8d" stroke="#7f8c8d" points="471.03,-1333.85 481.6,-1333.02 472.82,-1327.08 471.03,-1333.85"/>
</g>
<!-- U3 -->
<g id="node16" class="node">
<title>U3</title>
<path fill="#f4f6f8" stroke="#2c3e50" d="M590.88,-763C590.88,-763 534.38,-763 534.38,-763 528.38,-763 522.38,-757 522.38,-751 522.38,-751 522.38,-739 522.38,-739 522.38,-733 528.38,-727 534.38,-727 534.38,-727 590.88,-727 590.88,-727 596.88,-727 602.88,-733 602.88,-739 602.88,-739 602.88,-751 602.88,-751 602.88,-757 596.88,-763 590.88,-763"/>
<text xml:space="preserve" text-anchor="middle" x="562.62" y="-746.4" font-family="Helvetica,sans-Serif" font-size="8.00">U3 &#45;&gt; +3V3</text>
<text xml:space="preserve" text-anchor="middle" x="562.62" y="-737.4" font-family="Helvetica,sans-Serif" font-size="8.00">R5 32.2k / R6 10k</text>
</g>
<!-- X1&#45;&gt;U3 -->
<g id="edge4" class="edge">
<title>X1&#45;&gt;U3</title>
<path fill="none" stroke="#7f8c8d" d="M343.14,-1198.74C362,-1118.14 437.05,-798 440.5,-794 458.41,-773.21 486.44,-761.13 511.03,-754.16"/>
<polygon fill="#7f8c8d" stroke="#7f8c8d" points="511.77,-757.59 520.57,-751.69 510.01,-750.81 511.77,-757.59"/>
</g>
<!-- U9 -->
<g id="node17" class="node">
<title>U9</title>
<path fill="#f4f6f8" stroke="#2c3e50" d="M595.38,-469C595.38,-469 529.88,-469 529.88,-469 523.88,-469 517.88,-463 517.88,-457 517.88,-457 517.88,-445 517.88,-445 517.88,-439 523.88,-433 529.88,-433 529.88,-433 595.38,-433 595.38,-433 601.38,-433 607.38,-439 607.38,-445 607.38,-445 607.38,-457 607.38,-457 607.38,-463 601.38,-469 595.38,-469"/>
<text xml:space="preserve" text-anchor="middle" x="562.62" y="-452.4" font-family="Helvetica,sans-Serif" font-size="8.00">U9 &#45;&gt; +5V0_1</text>
<text xml:space="preserve" text-anchor="middle" x="562.62" y="-443.4" font-family="Helvetica,sans-Serif" font-size="8.00">R17 56.2k / R18 10k</text>
</g>
<!-- X1&#45;&gt;U9 -->
<g id="edge9" class="edge">
<title>X1&#45;&gt;U9</title>
<path fill="none" stroke="#7f8c8d" d="M340.75,-1198.66C352.25,-1086.98 413.64,-502.28 440.5,-476 457.7,-459.17 483.05,-452.29 506.12,-449.86"/>
<polygon fill="#7f8c8d" stroke="#7f8c8d" points="506.36,-453.36 516.06,-449.11 505.83,-446.38 506.36,-453.36"/>
</g>
<!-- U11 -->
<g id="node18" class="node">
<title>U11</title>
<path fill="#f4f6f8" stroke="#2c3e50" d="M595.38,-714C595.38,-714 529.88,-714 529.88,-714 523.88,-714 517.88,-708 517.88,-702 517.88,-702 517.88,-690 517.88,-690 517.88,-684 523.88,-678 529.88,-678 529.88,-678 595.38,-678 595.38,-678 601.38,-678 607.38,-684 607.38,-690 607.38,-690 607.38,-702 607.38,-702 607.38,-708 601.38,-714 595.38,-714"/>
<text xml:space="preserve" text-anchor="middle" x="562.62" y="-697.4" font-family="Helvetica,sans-Serif" font-size="8.00">U11 &#45;&gt; +3V4</text>
<text xml:space="preserve" text-anchor="middle" x="562.62" y="-688.4" font-family="Helvetica,sans-Serif" font-size="8.00">R21 34.8k / R22 10k</text>
</g>
<!-- X1&#45;&gt;U11 -->
<g id="edge11" class="edge">
<title>X1&#45;&gt;U11</title>
<path fill="none" stroke="#7f8c8d" d="M343.27,-1198.86C355.71,-1147.18 391.86,-994.73 416.5,-867 422.73,-834.72 417.73,-744.72 440.5,-721 457.31,-703.5 482.88,-696.58 506.2,-694.3"/>
<polygon fill="#7f8c8d" stroke="#7f8c8d" points="506.17,-697.81 515.91,-693.64 505.7,-690.83 506.17,-697.81"/>
</g>
<!-- U12 -->
<g id="node19" class="node">
<title>U12</title>
<path fill="#f4f6f8" stroke="#2c3e50" d="M595.38,-665C595.38,-665 529.88,-665 529.88,-665 523.88,-665 517.88,-659 517.88,-653 517.88,-653 517.88,-641 517.88,-641 517.88,-635 523.88,-629 529.88,-629 529.88,-629 595.38,-629 595.38,-629 601.38,-629 607.38,-635 607.38,-641 607.38,-641 607.38,-653 607.38,-653 607.38,-659 601.38,-665 595.38,-665"/>
<text xml:space="preserve" text-anchor="middle" x="562.62" y="-648.4" font-family="Helvetica,sans-Serif" font-size="8.00">U12 &#45;&gt; +5V0_0</text>
<text xml:space="preserve" text-anchor="middle" x="562.62" y="-639.4" font-family="Helvetica,sans-Serif" font-size="8.00">R23 56.2k / R24 10k</text>
</g>
<!-- X1&#45;&gt;U12 -->
<g id="edge12" class="edge">
<title>X1&#45;&gt;U12</title>
<path fill="none" stroke="#7f8c8d" d="M343.06,-1198.59C355.4,-1143.96 392.27,-977.93 416.5,-839 422.94,-802.06 414.81,-699.3 440.5,-672 457.19,-654.26 482.87,-647.33 506.3,-645.12"/>
<polygon fill="#7f8c8d" stroke="#7f8c8d" points="506.31,-648.63 516.06,-644.48 505.85,-641.64 506.31,-648.63"/>
</g>
<!-- U24 -->
<g id="node20" class="node">
<title>U24</title>
<path fill="#f4f6f8" stroke="#2c3e50" d="M595.38,-567C595.38,-567 529.88,-567 529.88,-567 523.88,-567 517.88,-561 517.88,-555 517.88,-555 517.88,-543 517.88,-543 517.88,-537 523.88,-531 529.88,-531 529.88,-531 595.38,-531 595.38,-531 601.38,-531 607.38,-537 607.38,-543 607.38,-543 607.38,-555 607.38,-555 607.38,-561 601.38,-567 595.38,-567"/>
<text xml:space="preserve" text-anchor="middle" x="562.62" y="-550.4" font-family="Helvetica,sans-Serif" font-size="8.00">U24 &#45;&gt; +5V0_2</text>
<text xml:space="preserve" text-anchor="middle" x="562.62" y="-541.4" font-family="Helvetica,sans-Serif" font-size="8.00">R37 56.2k / R38 10k</text>
</g>
<!-- X1&#45;&gt;U24 -->
<g id="edge18" class="edge">
<title>X1&#45;&gt;U24</title>
<path fill="none" stroke="#7f8c8d" d="M341.63,-1198.63C357.33,-1094.22 434.89,-579.88 440.5,-574 457.25,-556.45 482.82,-549.52 506.15,-547.26"/>
<polygon fill="#7f8c8d" stroke="#7f8c8d" points="506.13,-550.77 515.87,-546.6 505.65,-543.78 506.13,-550.77"/>
</g>
<!-- U26 -->
<g id="node21" class="node">
<title>U26</title>
<path fill="#f4f6f8" stroke="#2c3e50" d="M595.38,-518C595.38,-518 529.88,-518 529.88,-518 523.88,-518 517.88,-512 517.88,-506 517.88,-506 517.88,-494 517.88,-494 517.88,-488 523.88,-482 529.88,-482 529.88,-482 595.38,-482 595.38,-482 601.38,-482 607.38,-488 607.38,-494 607.38,-494 607.38,-506 607.38,-506 607.38,-512 601.38,-518 595.38,-518"/>
<text xml:space="preserve" text-anchor="middle" x="562.62" y="-501.4" font-family="Helvetica,sans-Serif" font-size="8.00">U26 &#45;&gt; +5V0_3</text>
<text xml:space="preserve" text-anchor="middle" x="562.62" y="-492.4" font-family="Helvetica,sans-Serif" font-size="8.00">R41 56.2k / R42 10k</text>
</g>
<!-- X1&#45;&gt;U26 -->
<g id="edge19" class="edge">
<title>X1&#45;&gt;U26</title>
<path fill="none" stroke="#7f8c8d" d="M340.32,-1198.61C348.73,-1093.89 392.57,-575.77 440.5,-525 457.22,-507.29 482.9,-500.36 506.33,-498.14"/>
<polygon fill="#7f8c8d" stroke="#7f8c8d" points="506.33,-501.65 516.08,-497.51 505.88,-494.67 506.33,-501.65"/>
</g>
<!-- U28 -->
<g id="node22" class="node">
<title>U28</title>
<path fill="#f4f6f8" stroke="#2c3e50" d="M595.38,-420C595.38,-420 529.88,-420 529.88,-420 523.88,-420 517.88,-414 517.88,-408 517.88,-408 517.88,-396 517.88,-396 517.88,-390 523.88,-384 529.88,-384 529.88,-384 595.38,-384 595.38,-384 601.38,-384 607.38,-390 607.38,-396 607.38,-396 607.38,-408 607.38,-408 607.38,-414 601.38,-420 595.38,-420"/>
<text xml:space="preserve" text-anchor="middle" x="562.62" y="-403.4" font-family="Helvetica,sans-Serif" font-size="8.00">U28 &#45;&gt; +5V0_4</text>
<text xml:space="preserve" text-anchor="middle" x="562.62" y="-394.4" font-family="Helvetica,sans-Serif" font-size="8.00">R45 56.2k / R46 10k</text>
</g>
<!-- X1&#45;&gt;U28 -->
<g id="edge20" class="edge">
<title>X1&#45;&gt;U28</title>
<path fill="none" stroke="#7f8c8d" d="M340.62,-1198.61C351.69,-1082.58 412.65,-455.91 440.5,-427 457.33,-409.53 482.91,-402.61 506.23,-400.33"/>
<polygon fill="#7f8c8d" stroke="#7f8c8d" points="506.2,-403.84 515.94,-399.66 505.72,-396.86 506.2,-403.84"/>
</g>
<!-- U31 -->
<g id="node23" class="node">
<title>U31</title>
<path fill="#f4f6f8" stroke="#2c3e50" d="M595.38,-616C595.38,-616 529.88,-616 529.88,-616 523.88,-616 517.88,-610 517.88,-604 517.88,-604 517.88,-592 517.88,-592 517.88,-586 523.88,-580 529.88,-580 529.88,-580 595.38,-580 595.38,-580 601.38,-580 607.38,-586 607.38,-592 607.38,-592 607.38,-604 607.38,-604 607.38,-610 601.38,-616 595.38,-616"/>
<text xml:space="preserve" text-anchor="middle" x="562.62" y="-599.4" font-family="Helvetica,sans-Serif" font-size="8.00">U31 &#45;&gt; +5V0_ADTR</text>
<text xml:space="preserve" text-anchor="middle" x="562.62" y="-590.4" font-family="Helvetica,sans-Serif" font-size="8.00">R51 56.2k / R52 10k</text>
</g>
<!-- X1&#45;&gt;U31 -->
<g id="edge21" class="edge">
<title>X1&#45;&gt;U31</title>
<path fill="none" stroke="#7f8c8d" d="M342.45,-1198.73C353.93,-1139.71 390.67,-948.78 416.5,-790 422.52,-752.99 414.81,-650.3 440.5,-623 457.19,-605.26 482.87,-598.33 506.3,-596.12"/>
<polygon fill="#7f8c8d" stroke="#7f8c8d" points="506.31,-599.63 516.06,-595.48 505.85,-592.64 506.31,-599.63"/>
</g>
<!-- U33 -->
<g id="node24" class="node">
<title>U33</title>
<path fill="#f4f6f8" stroke="#2c3e50" d="M595.38,-371C595.38,-371 529.88,-371 529.88,-371 523.88,-371 517.88,-365 517.88,-359 517.88,-359 517.88,-347 517.88,-347 517.88,-341 523.88,-335 529.88,-335 529.88,-335 595.38,-335 595.38,-335 601.38,-335 607.38,-341 607.38,-347 607.38,-347 607.38,-359 607.38,-359 607.38,-365 601.38,-371 595.38,-371"/>
<text xml:space="preserve" text-anchor="middle" x="562.62" y="-354.4" font-family="Helvetica,sans-Serif" font-size="8.00">U33 &#45;&gt; +5V0_5</text>
<text xml:space="preserve" text-anchor="middle" x="562.62" y="-345.4" font-family="Helvetica,sans-Serif" font-size="8.00">R55 56.2k / R56 10k</text>
</g>
<!-- X1&#45;&gt;U33 -->
<g id="edge22" class="edge">
<title>X1&#45;&gt;U33</title>
<path fill="none" stroke="#7f8c8d" d="M339.8,-1198.65C345.86,-1081.36 381.59,-439.66 440.5,-378 457.26,-360.46 482.83,-353.53 506.16,-351.26"/>
<polygon fill="#7f8c8d" stroke="#7f8c8d" points="506.14,-354.77 515.88,-350.6 505.66,-347.79 506.14,-354.77"/>
</g>
<!-- U30 -->
<g id="node30" class="node">
<title>U30</title>
<path fill="#f4f6f8" stroke="#c0392b" d="M664.75,-988C664.75,-988 460.5,-988 460.5,-988 454.5,-988 448.5,-982 448.5,-976 448.5,-976 448.5,-964 448.5,-964 448.5,-958 454.5,-952 460.5,-952 460.5,-952 664.75,-952 664.75,-952 670.75,-952 676.75,-958 676.75,-964 676.75,-964 676.75,-976 676.75,-976 676.75,-982 670.75,-988 664.75,-988"/>
<text xml:space="preserve" text-anchor="middle" x="562.62" y="-975.9" font-family="Helvetica,sans-Serif" font-size="8.00" fill="#c0392b">U30 ADM7151 &#45;&gt; +5V0_LO</text>
<text xml:space="preserve" text-anchor="middle" x="562.62" y="-966.9" font-family="Helvetica,sans-Serif" font-size="8.00" fill="#c0392b">IN = VIN (12&#45;17 V) directly, EN = VIN</text>
<text xml:space="preserve" text-anchor="middle" x="562.62" y="-957.9" font-family="Helvetica,sans-Serif" font-size="8.00" fill="#c0392b">REQUIRES DESIGN REVIEW vs ADM7151.pdf input rating</text>
</g>
<!-- X1&#45;&gt;U30 -->
<g id="edge23" class="edge">
<title>X1&#45;&gt;U30</title>
<path fill="none" stroke="#c0392b" d="M355.25,-1198.84C394.11,-1155.75 492.03,-1047.17 537.6,-996.64"/>
<polygon fill="#c0392b" stroke="#c0392b" points="540.11,-999.08 544.21,-989.31 534.91,-994.4 540.11,-999.08"/>
</g>
<!-- m_fpga_core -->
<g id="node40" class="node">
<title>m_fpga_core</title>
<path fill="#f4f6f8" stroke="#2c3e50" d="M1035.88,-2191C1035.88,-2191 848.88,-2191 848.88,-2191 842.88,-2191 836.88,-2185 836.88,-2179 836.88,-2179 836.88,-2167 836.88,-2167 836.88,-2161 842.88,-2155 848.88,-2155 848.88,-2155 1035.88,-2155 1035.88,-2155 1041.88,-2155 1047.88,-2161 1047.88,-2167 1047.88,-2167 1047.88,-2179 1047.88,-2179 1047.88,-2185 1041.88,-2191 1035.88,-2191"/>
<text xml:space="preserve" text-anchor="middle" x="942.38" y="-2169.9" font-family="Helvetica,sans-Serif" font-size="8.00">U42 XC7A50T VCCINT/VCCBRAM (+1V0_FPGA, X8)</text>
</g>
<!-- U1&#45;&gt;m_fpga_core -->
<g id="edge60" class="edge">
<title>U1&#45;&gt;m_fpga_core</title>
<path fill="none" stroke="#7f8c8d" d="M568.29,-1752.33C583.07,-1807.91 632.95,-1977.88 717.75,-2094 739.77,-2124.15 747.33,-2133.39 781.25,-2149 795.02,-2155.34 810.09,-2160.07 825.3,-2163.59"/>
<polygon fill="#7f8c8d" stroke="#7f8c8d" points="824.4,-2166.98 834.91,-2165.63 825.86,-2160.13 824.4,-2166.98"/>
<text xml:space="preserve" text-anchor="middle" x="737.25" y="-2137.54" font-family="Helvetica,sans-Serif" font-size="7.00" fill="#2c3e50">X4 &#45;&gt; X8</text>
</g>
<!-- m_fpga_aux -->
<g id="node41" class="node">
<title>m_fpga_aux</title>
<path fill="#f4f6f8" stroke="#2c3e50" d="M1062.88,-1995C1062.88,-1995 821.88,-1995 821.88,-1995 815.88,-1995 809.88,-1989 809.88,-1983 809.88,-1983 809.88,-1971 809.88,-1971 809.88,-1965 815.88,-1959 821.88,-1959 821.88,-1959 1062.88,-1959 1062.88,-1959 1068.88,-1959 1074.88,-1965 1074.88,-1971 1074.88,-1971 1074.88,-1983 1074.88,-1983 1074.88,-1989 1068.88,-1995 1062.88,-1995"/>
<text xml:space="preserve" text-anchor="middle" x="942.38" y="-1978.4" font-family="Helvetica,sans-Serif" font-size="8.00">U42 VCCAUX/VCCADC/VCCBATT/VCCO_34 + U1 AD9484 DRVDD</text>
<text xml:space="preserve" text-anchor="middle" x="942.38" y="-1969.4" font-family="Helvetica,sans-Serif" font-size="8.00">(+1V8_FPGA, X10); pull&#45;ups R154..R157 for ADAR CS 1.8 V</text>
</g>
<!-- U2&#45;&gt;m_fpga_aux -->
<g id="edge61" class="edge">
<title>U2&#45;&gt;m_fpga_aux</title>
<path fill="none" stroke="#7f8c8d" d="M626.72,-1389.37C648.16,-1392.21 670.32,-1399.52 684.75,-1416 752.84,-1493.77 678.12,-1784.53 717.75,-1880 734.24,-1919.72 743.55,-1932.31 781.25,-1953 786.93,-1956.12 792.89,-1958.87 799.03,-1961.29"/>
<polygon fill="#7f8c8d" stroke="#7f8c8d" points="797.5,-1964.46 808.09,-1964.56 799.87,-1957.88 797.5,-1964.46"/>
<text xml:space="preserve" text-anchor="middle" x="737.25" y="-1938.35" font-family="Helvetica,sans-Serif" font-size="7.00" fill="#2c3e50">X5 &#45;&gt; X10</text>
</g>
<!-- m_fpga_io -->
<g id="node42" class="node">
<title>m_fpga_io</title>
<path fill="#f4f6f8" stroke="#2c3e50" d="M1048.62,-2093C1048.62,-2093 836.12,-2093 836.12,-2093 830.12,-2093 824.12,-2087 824.12,-2081 824.12,-2081 824.12,-2069 824.12,-2069 824.12,-2063 830.12,-2057 836.12,-2057 836.12,-2057 1048.62,-2057 1048.62,-2057 1054.62,-2057 1060.62,-2063 1060.62,-2069 1060.62,-2069 1060.62,-2081 1060.62,-2081 1060.62,-2087 1054.62,-2093 1048.62,-2093"/>
<text xml:space="preserve" text-anchor="middle" x="942.38" y="-2076.4" font-family="Helvetica,sans-Serif" font-size="8.00">U42 VCCO banks 14/15 + config pull&#45;ups, U3 AD9708 DVDD,</text>
<text xml:space="preserve" text-anchor="middle" x="942.38" y="-2067.4" font-family="Helvetica,sans-Serif" font-size="8.00">U9 flash, +3V3_FT (FT601, unrouted) (+3V3_FPGA, X16)</text>
</g>
<!-- U4&#45;&gt;m_fpga_io -->
<g id="edge62" class="edge">
<title>U4&#45;&gt;m_fpga_io</title>
<path fill="none" stroke="#7f8c8d" d="M626.98,-1536.46C648.31,-1539.34 670.34,-1546.65 684.75,-1563 747.1,-1633.73 678.81,-1900.13 717.75,-1986 721.92,-1995.2 772.26,-2046.4 781.25,-2051 791.2,-2056.09 801.92,-2060.18 812.93,-2063.45"/>
<polygon fill="#7f8c8d" stroke="#7f8c8d" points="811.99,-2066.82 822.56,-2066.06 813.82,-2060.07 811.99,-2066.82"/>
<text xml:space="preserve" text-anchor="middle" x="737.25" y="-2030.38" font-family="Helvetica,sans-Serif" font-size="7.00" fill="#2c3e50">X27 &#45;&gt; X16</text>
</g>
<!-- m_adar3v3 -->
<g id="node46" class="node">
<title>m_adar3v3</title>
<path fill="#f4f6f8" stroke="#2c3e50" d="M1091,-2044C1091,-2044 793.75,-2044 793.75,-2044 787.75,-2044 781.75,-2038 781.75,-2032 781.75,-2032 781.75,-2020 781.75,-2020 781.75,-2014 787.75,-2008 793.75,-2008 793.75,-2008 1091,-2008 1091,-2008 1097,-2008 1103,-2014 1103,-2020 1103,-2020 1103,-2032 1103,-2032 1103,-2038 1097,-2044 1091,-2044"/>
<text xml:space="preserve" text-anchor="middle" x="942.38" y="-2027.4" font-family="Helvetica,sans-Serif" font-size="8.00">+3V3_ADAR12 (X20) &#45;&gt; L11/L12 &#45;&gt; +3V3_ADAR1_F/2_F: ADAR1_/ADAR2_ AVDD3</text>
<text xml:space="preserve" text-anchor="middle" x="942.38" y="-2018.4" font-family="Helvetica,sans-Serif" font-size="8.00">+3V3_ADAR34 (X21) &#45;&gt; ADAR3_/ADAR4_ AVDD3</text>
</g>
<!-- U6&#45;&gt;m_adar3v3 -->
<g id="edge66" class="edge">
<title>U6&#45;&gt;m_adar3v3</title>
<path fill="none" stroke="#7f8c8d" d="M633.96,-1488.53C653.03,-1492 671.92,-1499.4 684.75,-1514 749.76,-1587.99 669.74,-1870 717.75,-1956 729.87,-1977.72 748.96,-1993.05 770.99,-2003.82"/>
<polygon fill="#7f8c8d" stroke="#7f8c8d" points="769.37,-2006.93 779.93,-2007.83 772.24,-2000.54 769.37,-2006.93"/>
<text xml:space="preserve" text-anchor="middle" x="737.25" y="-1996.6" font-family="Helvetica,sans-Serif" font-size="7.00" fill="#2c3e50">X14 &#45;&gt; X20</text>
</g>
<!-- U7&#45;&gt;m_adar3v3 -->
<g id="edge67" class="edge">
<title>U7&#45;&gt;m_adar3v3</title>
<path fill="none" stroke="#7f8c8d" d="M633.98,-1439.51C653.05,-1442.98 671.94,-1450.39 684.75,-1465 751.86,-1541.57 680.79,-1827.13 717.75,-1922 719.81,-1927.29 776.34,-1999.16 781.25,-2002 781.58,-2002.19 781.91,-2002.38 782.25,-2002.57"/>
<polygon fill="#7f8c8d" stroke="#7f8c8d" points="780.31,-2005.51 790.81,-2006.98 783.52,-1999.29 780.31,-2005.51"/>
<text xml:space="preserve" text-anchor="middle" x="737.25" y="-1973.54" font-family="Helvetica,sans-Serif" font-size="7.00" fill="#2c3e50">X15 &#45;&gt; X21</text>
</g>
<!-- m_adtr -->
<g id="node48" class="node">
<title>m_adtr</title>
<path fill="#f4f6f8" stroke="#2c3e50" d="M1620.5,-1995C1620.5,-1995 1363,-1995 1363,-1995 1357,-1995 1351,-1989 1351,-1983 1351,-1983 1351,-1971 1351,-1971 1351,-1965 1357,-1959 1363,-1959 1363,-1959 1620.5,-1959 1620.5,-1959 1626.5,-1959 1632.5,-1965 1632.5,-1971 1632.5,-1971 1632.5,-1983 1632.5,-1983 1632.5,-1989 1626.5,-1995 1620.5,-1995"/>
<text xml:space="preserve" text-anchor="middle" x="1491.75" y="-1978.4" font-family="Helvetica,sans-Serif" font-size="8.00">+3V3_ADTR (X4): 16x ADTR1107 VDD_LNA</text>
<text xml:space="preserve" text-anchor="middle" x="1491.75" y="-1969.4" font-family="Helvetica,sans-Serif" font-size="8.00">+3V3_VDD_SW (X12): ADTR VDD_SW; &#160;&#45;3V3_SW (X6): ADTR VSS_SW</text>
</g>
<!-- U8&#45;&gt;m_adtr -->
<g id="edge71" class="edge">
<title>U8&#45;&gt;m_adtr</title>
<path fill="none" stroke="#7f8c8d" d="M634.98,-1292.65C653.72,-1296.19 672.19,-1303.6 684.75,-1318 756.77,-1400.59 638.28,-1734.56 717.75,-1810 725.51,-1817.37 1092.31,-1815.29 1103,-1815.75 1193.25,-1819.59 1237.85,-1770.42 1305.75,-1830 1347.68,-1866.79 1290.3,-1914.59 1330.75,-1953 1334.04,-1956.12 1337.54,-1958.94 1341.23,-1961.49"/>
<polygon fill="#7f8c8d" stroke="#7f8c8d" points="1339.09,-1964.29 1349.45,-1966.5 1342.73,-1958.31 1339.09,-1964.29"/>
<text xml:space="preserve" text-anchor="middle" x="942.38" y="-1817.35" font-family="Helvetica,sans-Serif" font-size="7.00" fill="#2c3e50">X30 &#45;&gt; X12</text>
</g>
<!-- U18 -->
<g id="node33" class="node">
<title>U18</title>
<path fill="#f4f6f8" stroke="#2c3e50" d="M988.25,-1529C988.25,-1529 896.5,-1529 896.5,-1529 890.5,-1529 884.5,-1523 884.5,-1517 884.5,-1517 884.5,-1505 884.5,-1505 884.5,-1499 890.5,-1493 896.5,-1493 896.5,-1493 988.25,-1493 988.25,-1493 994.25,-1493 1000.25,-1499 1000.25,-1505 1000.25,-1505 1000.25,-1517 1000.25,-1517 1000.25,-1523 994.25,-1529 988.25,-1529"/>
<text xml:space="preserve" text-anchor="middle" x="942.38" y="-1507.9" font-family="Helvetica,sans-Serif" font-size="8.00">U18 +3V3_SW &#45;&gt; &#45;3V3_SW</text>
</g>
<!-- U10&#45;&gt;U18 -->
<g id="edge31" class="edge">
<title>U10&#45;&gt;U18</title>
<path fill="none" stroke="#7f8c8d" d="M624.62,-1193.32C646.61,-1196 669.7,-1203.22 684.75,-1220 736.32,-1277.5 660.6,-1514.04 717.75,-1566 730.58,-1577.66 741.09,-1573.43 756.75,-1566 772.3,-1558.62 766.31,-1544.56 781.25,-1536 808.85,-1520.18 843.3,-1513.46 873.17,-1510.88"/>
<polygon fill="#7f8c8d" stroke="#7f8c8d" points="873.13,-1514.4 882.86,-1510.2 872.64,-1507.41 873.13,-1514.4"/>
<text xml:space="preserve" text-anchor="middle" x="737.25" y="-1574.84" font-family="Helvetica,sans-Serif" font-size="7.00" fill="#2c3e50">+3V3_SW</text>
</g>
<!-- spare -->
<g id="node39" class="node">
<title>spare</title>
<path fill="#f4f6f8" stroke="#2c3e50" stroke-dasharray="5,2" d="M1054.62,-533C1054.62,-533 830.12,-533 830.12,-533 824.12,-533 818.12,-527 818.12,-521 818.12,-521 818.12,-501 818.12,-501 818.12,-495 824.12,-489 830.12,-489 830.12,-489 1054.62,-489 1054.62,-489 1060.62,-489 1066.62,-495 1066.62,-501 1066.62,-501 1066.62,-521 1066.62,-521 1066.62,-527 1060.62,-533 1054.62,-533"/>
<text xml:space="preserve" text-anchor="middle" x="942.38" y="-521.4" font-family="Helvetica,sans-Serif" font-size="8.00">Outputs without a consumer in CAD:</text>
<text xml:space="preserve" text-anchor="middle" x="942.38" y="-512.4" font-family="Helvetica,sans-Serif" font-size="8.00">X2 +5V0_1, X9 +5V0_2, X17 +5V0_3, X25 +5V0_4, X28 +5V0_5,</text>
<text xml:space="preserve" text-anchor="middle" x="942.38" y="-503.4" font-family="Helvetica,sans-Serif" font-size="8.00">X13 +5V0_ADAR, X26 +5V0_ADTR, X29 +3V3_SW</text>
<text xml:space="preserve" text-anchor="middle" x="942.38" y="-494.4" font-family="Helvetica,sans-Serif" font-size="8.00">(intermediate rails, also used on&#45;board)</text>
</g>
<!-- U10&#45;&gt;spare -->
<g id="edge43" class="edge">
<title>U10&#45;&gt;spare</title>
<path fill="none" stroke="#7f8c8d" stroke-dasharray="5,2" d="M624.55,-1208.24C667.59,-1213.69 723.36,-1212.2 756.75,-1178 786.62,-1147.41 769.05,-834.98 781.25,-794 810.83,-694.63 880.38,-592.18 917.33,-542.22"/>
<polygon fill="#7f8c8d" stroke="#7f8c8d" points="919.96,-544.54 923.14,-534.44 914.35,-540.35 919.96,-544.54"/>
</g>
<!-- U20 -->
<g id="node35" class="node">
<title>U20</title>
<path fill="#f4f6f8" stroke="#2c3e50" d="M1002.5,-1676C1002.5,-1676 882.25,-1676 882.25,-1676 876.25,-1676 870.25,-1670 870.25,-1664 870.25,-1664 870.25,-1652 870.25,-1652 870.25,-1646 876.25,-1640 882.25,-1640 882.25,-1640 1002.5,-1640 1002.5,-1640 1008.5,-1640 1014.5,-1646 1014.5,-1652 1014.5,-1652 1014.5,-1664 1014.5,-1664 1014.5,-1670 1008.5,-1676 1002.5,-1676"/>
<text xml:space="preserve" text-anchor="middle" x="942.38" y="-1654.9" font-family="Helvetica,sans-Serif" font-size="8.00">U20 +5V0_ADAR &#45;&gt; &#45;5V0_ADAR12</text>
</g>
<!-- U13&#45;&gt;U20 -->
<g id="edge33" class="edge">
<title>U13&#45;&gt;U20</title>
<path fill="none" stroke="#7f8c8d" d="M629.38,-1242.93C649.91,-1246.04 670.8,-1253.39 684.75,-1269 738.28,-1328.9 662.02,-1571.14 717.75,-1629 753.26,-1665.87 810.84,-1672.64 858.68,-1670.44"/>
<polygon fill="#7f8c8d" stroke="#7f8c8d" points="858.71,-1673.95 868.47,-1669.84 858.28,-1666.96 858.71,-1673.95"/>
<text xml:space="preserve" text-anchor="middle" x="737.25" y="-1657.04" font-family="Helvetica,sans-Serif" font-size="7.00" fill="#2c3e50">+5V0_ADAR</text>
</g>
<!-- U21 -->
<g id="node36" class="node">
<title>U21</title>
<path fill="#f4f6f8" stroke="#2c3e50" d="M1002.5,-1627C1002.5,-1627 882.25,-1627 882.25,-1627 876.25,-1627 870.25,-1621 870.25,-1615 870.25,-1615 870.25,-1603 870.25,-1603 870.25,-1597 876.25,-1591 882.25,-1591 882.25,-1591 1002.5,-1591 1002.5,-1591 1008.5,-1591 1014.5,-1597 1014.5,-1603 1014.5,-1603 1014.5,-1615 1014.5,-1615 1014.5,-1621 1008.5,-1627 1002.5,-1627"/>
<text xml:space="preserve" text-anchor="middle" x="942.38" y="-1605.9" font-family="Helvetica,sans-Serif" font-size="8.00">U21 +5V0_ADAR &#45;&gt; &#45;5V0_ADAR34</text>
</g>
<!-- U13&#45;&gt;U21 -->
<g id="edge34" class="edge">
<title>U13&#45;&gt;U21</title>
<path fill="none" stroke="#7f8c8d" d="M629.6,-1243.06C650.02,-1246.21 670.79,-1253.54 684.75,-1269 733.11,-1322.55 666.07,-1541.65 717.75,-1592 754.02,-1627.34 811.17,-1631.16 858.61,-1626.36"/>
<polygon fill="#7f8c8d" stroke="#7f8c8d" points="858.79,-1629.87 868.31,-1625.23 857.97,-1622.91 858.79,-1629.87"/>
<text xml:space="preserve" text-anchor="middle" x="737.25" y="-1616.11" font-family="Helvetica,sans-Serif" font-size="7.00" fill="#2c3e50">+5V0_ADAR</text>
</g>
<!-- U13&#45;&gt;spare -->
<g id="edge41" class="edge">
<title>U13&#45;&gt;spare</title>
<path fill="none" stroke="#7f8c8d" stroke-dasharray="5,2" d="M629.6,-1254.41C672.15,-1257.05 725.25,-1252 756.75,-1218 788.82,-1183.39 767.92,-839.27 781.25,-794 810.53,-694.54 880.22,-592.13 917.26,-542.19"/>
<polygon fill="#7f8c8d" stroke="#7f8c8d" points="919.89,-544.52 923.09,-534.42 914.29,-540.32 919.89,-544.52"/>
</g>
<!-- m_pa5 -->
<g id="node49" class="node">
<title>m_pa5</title>
<path fill="#f4f6f8" stroke="#2c3e50" d="M1018.62,-2142C1018.62,-2142 866.12,-2142 866.12,-2142 860.12,-2142 854.12,-2136 854.12,-2130 854.12,-2130 854.12,-2118 854.12,-2118 854.12,-2112 860.12,-2106 866.12,-2106 866.12,-2106 1018.62,-2106 1018.62,-2106 1024.62,-2106 1030.62,-2112 1030.62,-2118 1030.62,-2118 1030.62,-2130 1030.62,-2130 1030.62,-2136 1024.62,-2142 1018.62,-2142"/>
<text xml:space="preserve" text-anchor="middle" x="942.38" y="-2129.9" font-family="Helvetica,sans-Serif" font-size="8.00">+5V0_PA_1 (X14): ADTR 1,2,3,4,7 VDD_PA</text>
<text xml:space="preserve" text-anchor="middle" x="942.38" y="-2120.9" font-family="Helvetica,sans-Serif" font-size="8.00">+5V0_PA_2 (X5): ADTR 5,6,8,10,12</text>
<text xml:space="preserve" text-anchor="middle" x="942.38" y="-2111.9" font-family="Helvetica,sans-Serif" font-size="8.00">+5V0_PA_3 (X7): ADTR 9,11,13,14,15,16</text>
</g>
<!-- U14&#45;&gt;m_pa5 -->
<g id="edge73" class="edge">
<title>U14&#45;&gt;m_pa5</title>
<path fill="none" stroke="#7f8c8d" d="M644.8,-1687.15C659.96,-1691.26 674.3,-1698.32 684.75,-1710 738,-1769.56 672.77,-2001.97 717.75,-2068 744.86,-2107.8 795.89,-2122.56 842.37,-2127.02"/>
<polygon fill="#7f8c8d" stroke="#7f8c8d" points="842,-2130.5 852.24,-2127.81 842.55,-2123.53 842,-2130.5"/>
<text xml:space="preserve" text-anchor="middle" x="737.25" y="-2102.12" font-family="Helvetica,sans-Serif" font-size="7.00" fill="#2c3e50">X31 &#45;&gt; X14</text>
</g>
<!-- U15&#45;&gt;m_pa5 -->
<g id="edge74" class="edge">
<title>U15&#45;&gt;m_pa5</title>
<path fill="none" stroke="#7f8c8d" d="M644.85,-1638.11C660.01,-1642.22 674.33,-1649.29 684.75,-1661 741.08,-1724.34 680.55,-1964.84 717.75,-2041 721.98,-2049.65 772.57,-2095.82 781.25,-2100 800.14,-2109.1 821.62,-2114.93 842.57,-2118.63"/>
<polygon fill="#7f8c8d" stroke="#7f8c8d" points="841.88,-2122.06 852.31,-2120.18 842.98,-2115.15 841.88,-2122.06"/>
<text xml:space="preserve" text-anchor="middle" x="737.25" y="-2081.52" font-family="Helvetica,sans-Serif" font-size="7.00" fill="#2c3e50">X32 &#45;&gt; X5</text>
</g>
<!-- U16&#45;&gt;m_pa5 -->
<g id="edge75" class="edge">
<title>U16&#45;&gt;m_pa5</title>
<path fill="none" stroke="#7f8c8d" d="M644.89,-1589.07C660.05,-1593.19 674.36,-1600.26 684.75,-1612 744.16,-1679.12 681.96,-1931.82 717.75,-2014 728.02,-2037.58 741.65,-2035.93 756.75,-2056.75 769.72,-2074.63 763.04,-2087.49 781.25,-2100 799.2,-2112.34 820.96,-2119.4 842.57,-2123.26"/>
<polygon fill="#7f8c8d" stroke="#7f8c8d" points="841.93,-2126.7 852.34,-2124.77 842.99,-2119.79 841.93,-2126.7"/>
<text xml:space="preserve" text-anchor="middle" x="737.25" y="-2058.35" font-family="Helvetica,sans-Serif" font-size="7.00" fill="#2c3e50">X33 &#45;&gt; X7</text>
</g>
<!-- U22 -->
<g id="node37" class="node">
<title>U22</title>
<path fill="#f4f6f8" stroke="#2c3e50" d="M985.62,-1725C985.62,-1725 899.12,-1725 899.12,-1725 893.12,-1725 887.12,-1719 887.12,-1713 887.12,-1713 887.12,-1701 887.12,-1701 887.12,-1695 893.12,-1689 899.12,-1689 899.12,-1689 985.62,-1689 985.62,-1689 991.62,-1689 997.62,-1695 997.62,-1701 997.62,-1701 997.62,-1713 997.62,-1713 997.62,-1719 991.62,-1725 985.62,-1725"/>
<text xml:space="preserve" text-anchor="middle" x="942.38" y="-1703.9" font-family="Helvetica,sans-Serif" font-size="8.00">U22 +5V5_PA &#45;&gt; &#45;5V5_PA</text>
</g>
<!-- U17&#45;&gt;U22 -->
<g id="edge35" class="edge">
<title>U17&#45;&gt;U22</title>
<path fill="none" stroke="#7f8c8d" d="M642.16,-1343.63C658.24,-1347.63 673.63,-1354.76 684.75,-1367 776.44,-1467.92 624.46,-1572.56 717.75,-1672 757.24,-1714.1 825.04,-1719.41 875.66,-1716.29"/>
<polygon fill="#7f8c8d" stroke="#7f8c8d" points="875.61,-1719.8 885.32,-1715.56 875.08,-1712.82 875.61,-1719.8"/>
<text xml:space="preserve" text-anchor="middle" x="737.25" y="-1700.85" font-family="Helvetica,sans-Serif" font-size="7.00" fill="#2c3e50">+5V5_PA</text>
</g>
<!-- m_opa -->
<g id="node51" class="node">
<title>m_opa</title>
<path fill="#f4f6f8" stroke="#2c3e50" d="M1593.5,-2142C1593.5,-2142 1390,-2142 1390,-2142 1384,-2142 1378,-2136 1378,-2130 1378,-2130 1378,-2118 1378,-2118 1378,-2112 1384,-2106 1390,-2106 1390,-2106 1593.5,-2106 1593.5,-2106 1599.5,-2106 1605.5,-2112 1605.5,-2118 1605.5,-2118 1605.5,-2130 1605.5,-2130 1605.5,-2136 1599.5,-2142 1593.5,-2142"/>
<text xml:space="preserve" text-anchor="middle" x="1491.75" y="-2120.9" font-family="Helvetica,sans-Serif" font-size="8.00">+5V5_PA (X55) / &#45;5V5_PA (X19): 4x OPA4703 (VG drivers)</text>
</g>
<!-- U17&#45;&gt;m_opa -->
<g id="edge78" class="edge">
<title>U17&#45;&gt;m_opa</title>
<path fill="none" stroke="#7f8c8d" d="M642.18,-1343.25C658.36,-1347.25 673.79,-1354.48 684.75,-1367 752.56,-1444.43 644.06,-1757.14 717.75,-1829 748.43,-1858.92 1064.27,-1828.41 1103,-1846.75 1239.82,-1911.53 1197.45,-2028.27 1330.75,-2100 1341.94,-2106.02 1354.18,-2110.66 1366.73,-2114.23"/>
<polygon fill="#7f8c8d" stroke="#7f8c8d" points="1365.81,-2117.6 1376.37,-2116.71 1367.56,-2110.83 1365.81,-2117.6"/>
<text xml:space="preserve" text-anchor="middle" x="942.38" y="-1848.35" font-family="Helvetica,sans-Serif" font-size="7.00" fill="#2c3e50">X3 &#45;&gt; X55</text>
</g>
<!-- m_stm -->
<g id="node43" class="node">
<title>m_stm</title>
<path fill="#f4f6f8" stroke="#2c3e50" d="M1056.5,-1946C1056.5,-1946 828.25,-1946 828.25,-1946 822.25,-1946 816.25,-1940 816.25,-1934 816.25,-1934 816.25,-1922 816.25,-1922 816.25,-1916 822.25,-1910 828.25,-1910 828.25,-1910 1056.5,-1910 1056.5,-1910 1062.5,-1910 1068.5,-1916 1068.5,-1922 1068.5,-1922 1068.5,-1934 1068.5,-1934 1068.5,-1940 1062.5,-1946 1056.5,-1946"/>
<text xml:space="preserve" text-anchor="middle" x="942.38" y="-1929.4" font-family="Helvetica,sans-Serif" font-size="8.00">U2 STM32F746 VDD/VDDUSB, JP2/JP7/JP8/JP18 module supply</text>
<text xml:space="preserve" text-anchor="middle" x="942.38" y="-1920.4" font-family="Helvetica,sans-Serif" font-size="8.00">(+3V3, X24)</text>
</g>
<!-- U3&#45;&gt;m_stm -->
<g id="edge63" class="edge">
<title>U3&#45;&gt;m_stm</title>
<path fill="none" stroke="#7f8c8d" d="M603.32,-749.79C631.05,-755.41 666.3,-767.6 684.75,-794 747.79,-884.22 689.45,-1677.64 717.75,-1784 721.63,-1798.58 768.94,-1895.28 781.25,-1904 788.67,-1909.26 796.77,-1913.57 805.26,-1917.09"/>
<polygon fill="#7f8c8d" stroke="#7f8c8d" points="803.78,-1920.27 814.38,-1920.48 806.22,-1913.71 803.78,-1920.27"/>
<text xml:space="preserve" text-anchor="middle" x="737.25" y="-1866.88" font-family="Helvetica,sans-Serif" font-size="7.00" fill="#2c3e50">X16 &#45;&gt; X24</text>
</g>
<!-- U23 -->
<g id="node26" class="node">
<title>U23</title>
<path fill="#f4f6f8" stroke="#2c3e50" d="M997.25,-988C997.25,-988 887.5,-988 887.5,-988 881.5,-988 875.5,-982 875.5,-976 875.5,-976 875.5,-964 875.5,-964 875.5,-958 881.5,-952 887.5,-952 887.5,-952 997.25,-952 997.25,-952 1003.25,-952 1009.25,-958 1009.25,-964 1009.25,-964 1009.25,-976 1009.25,-976 1009.25,-982 1003.25,-988 997.25,-988"/>
<text xml:space="preserve" text-anchor="middle" x="942.38" y="-975.9" font-family="Helvetica,sans-Serif" font-size="8.00">U23 ADM7151 &#45;&gt; +3V3_CLOCK</text>
<text xml:space="preserve" text-anchor="middle" x="942.38" y="-966.9" font-family="Helvetica,sans-Serif" font-size="8.00">IN +5V0_1</text>
<text xml:space="preserve" text-anchor="middle" x="942.38" y="-957.9" font-family="Helvetica,sans-Serif" font-size="8.00">EN_+3V3_CLOCK (PG5) seq F2</text>
</g>
<!-- U9&#45;&gt;U23 -->
<g id="edge25" class="edge">
<title>U9&#45;&gt;U23</title>
<path fill="none" stroke="#7f8c8d" d="M607.6,-451.26C632.35,-453.43 662.64,-459.68 684.75,-476 709.24,-494.07 700.97,-510.61 717.75,-536 733.24,-559.44 746.69,-559.52 756.75,-585.75 785.5,-660.66 726.85,-887.01 781.25,-946 801.95,-968.45 833.91,-976.16 863.85,-977.61"/>
<polygon fill="#7f8c8d" stroke="#7f8c8d" points="863.61,-981.11 873.69,-977.84 863.77,-974.11 863.61,-981.11"/>
<text xml:space="preserve" text-anchor="middle" x="737.25" y="-587.35" font-family="Helvetica,sans-Serif" font-size="7.00" fill="#2c3e50">+5V0_1</text>
</g>
<!-- U9&#45;&gt;spare -->
<g id="edge36" class="edge">
<title>U9&#45;&gt;spare</title>
<path fill="none" stroke="#7f8c8d" stroke-dasharray="5,2" d="M607.65,-448.16C646.99,-446.45 706.08,-445.95 756.75,-454 796.06,-460.24 838.6,-472.94 872.92,-484.78"/>
<polygon fill="#7f8c8d" stroke="#7f8c8d" points="871.74,-488.07 882.33,-488.08 874.05,-481.46 871.74,-488.07"/>
</g>
<!-- U19 -->
<g id="node34" class="node">
<title>U19</title>
<path fill="#f4f6f8" stroke="#2c3e50" d="M971,-1578C971,-1578 913.75,-1578 913.75,-1578 907.75,-1578 901.75,-1572 901.75,-1566 901.75,-1566 901.75,-1554 901.75,-1554 901.75,-1548 907.75,-1542 913.75,-1542 913.75,-1542 971,-1542 971,-1542 977,-1542 983,-1548 983,-1554 983,-1554 983,-1566 983,-1566 983,-1572 977,-1578 971,-1578"/>
<text xml:space="preserve" text-anchor="middle" x="942.38" y="-1556.9" font-family="Helvetica,sans-Serif" font-size="8.00">U19 +3V4 &#45;&gt; &#45;3V4</text>
</g>
<!-- U11&#45;&gt;U19 -->
<g id="edge32" class="edge">
<title>U11&#45;&gt;U19</title>
<path fill="none" stroke="#7f8c8d" d="M607.86,-693.22C633.98,-694.12 665.59,-700.12 684.75,-721 931.39,-989.73 527.35,-1274.12 781.25,-1536 808.88,-1564.5 854.75,-1568.86 890.33,-1567.04"/>
<polygon fill="#7f8c8d" stroke="#7f8c8d" points="890.25,-1570.56 899.98,-1566.36 889.76,-1563.57 890.25,-1570.56"/>
<text xml:space="preserve" text-anchor="middle" x="737.25" y="-1506.07" font-family="Helvetica,sans-Serif" font-size="7.00" fill="#2c3e50">+3V4</text>
</g>
<!-- m_sw -->
<g id="node50" class="node">
<title>m_sw</title>
<path fill="#f4f6f8" stroke="#2c3e50" d="M1551.5,-2093C1551.5,-2093 1432,-2093 1432,-2093 1426,-2093 1420,-2087 1420,-2081 1420,-2081 1420,-2069 1420,-2069 1420,-2063 1426,-2057 1432,-2057 1432,-2057 1551.5,-2057 1551.5,-2057 1557.5,-2057 1563.5,-2063 1563.5,-2069 1563.5,-2069 1563.5,-2081 1563.5,-2081 1563.5,-2087 1557.5,-2093 1551.5,-2093"/>
<text xml:space="preserve" text-anchor="middle" x="1491.75" y="-2076.4" font-family="Helvetica,sans-Serif" font-size="8.00">+3V4 (X1/X54): 17x M3SWA2 VDD</text>
<text xml:space="preserve" text-anchor="middle" x="1491.75" y="-2067.4" font-family="Helvetica,sans-Serif" font-size="8.00">&#45;3V4 (X11/X22): 17x M3SWA2 VEE</text>
</g>
<!-- U11&#45;&gt;m_sw -->
<g id="edge76" class="edge">
<title>U11&#45;&gt;m_sw</title>
<path fill="none" stroke="#7f8c8d" d="M607.6,-692.63C634.14,-693.22 666.29,-699.07 684.75,-721 757.64,-807.57 646.1,-1651.4 717.75,-1739 827.63,-1873.33 949.82,-1721.16 1103,-1802.75 1235.15,-1873.14 1198.54,-1980.71 1330.75,-2051 1354.3,-2063.52 1382.39,-2070.05 1408.41,-2073.32"/>
<polygon fill="#7f8c8d" stroke="#7f8c8d" points="1407.98,-2076.79 1418.3,-2074.4 1408.74,-2069.84 1407.98,-2076.79"/>
<text xml:space="preserve" text-anchor="middle" x="942.38" y="-1804.35" font-family="Helvetica,sans-Serif" font-size="7.00" fill="#2c3e50">X23 &#45;&gt; X1 (X54)</text>
</g>
<!-- U5 -->
<g id="node25" class="node">
<title>U5</title>
<path fill="#f4f6f8" stroke="#2c3e50" d="M999.88,-1086C999.88,-1086 884.88,-1086 884.88,-1086 878.88,-1086 872.88,-1080 872.88,-1074 872.88,-1074 872.88,-1062 872.88,-1062 872.88,-1056 878.88,-1050 884.88,-1050 884.88,-1050 999.88,-1050 999.88,-1050 1005.88,-1050 1011.88,-1056 1011.88,-1062 1011.88,-1062 1011.88,-1074 1011.88,-1074 1011.88,-1080 1005.88,-1086 999.88,-1086"/>
<text xml:space="preserve" text-anchor="middle" x="942.38" y="-1069.4" font-family="Helvetica,sans-Serif" font-size="8.00">U5 ADM7151 &#45;&gt; +3V3_AN</text>
<text xml:space="preserve" text-anchor="middle" x="942.38" y="-1060.4" font-family="Helvetica,sans-Serif" font-size="8.00">IN +5V0_0, EN = +5V0_0 (follows)</text>
</g>
<!-- U12&#45;&gt;U5 -->
<g id="edge24" class="edge">
<title>U12&#45;&gt;U5</title>
<path fill="none" stroke="#7f8c8d" d="M607.81,-644.79C653.55,-645.22 722.95,-654.07 756.75,-699.75 802.37,-761.4 729.17,-987.7 781.25,-1044 801.3,-1065.68 831.86,-1073.6 860.93,-1075.42"/>
<polygon fill="#7f8c8d" stroke="#7f8c8d" points="860.77,-1078.91 870.89,-1075.78 861.02,-1071.92 860.77,-1078.91"/>
<text xml:space="preserve" text-anchor="middle" x="737.25" y="-701.35" font-family="Helvetica,sans-Serif" font-size="7.00" fill="#2c3e50">+5V0_0</text>
</g>
<!-- m_if -->
<g id="node52" class="node">
<title>m_if</title>
<path fill="#f4f6f8" stroke="#2c3e50" d="M1004,-1897C1004,-1897 880.75,-1897 880.75,-1897 874.75,-1897 868.75,-1891 868.75,-1885 868.75,-1885 868.75,-1873 868.75,-1873 868.75,-1867 874.75,-1861 880.75,-1861 880.75,-1861 1004,-1861 1004,-1861 1010,-1861 1016,-1867 1016,-1873 1016,-1873 1016,-1885 1016,-1885 1016,-1891 1010,-1897 1004,-1897"/>
<text xml:space="preserve" text-anchor="middle" x="942.38" y="-1875.9" font-family="Helvetica,sans-Serif" font-size="8.00">+5V0_0 (X18): U4, U8 AD8352 VCC</text>
</g>
<!-- U12&#45;&gt;m_if -->
<g id="edge80" class="edge">
<title>U12&#45;&gt;m_if</title>
<path fill="none" stroke="#7f8c8d" d="M607.62,-643.62C634.16,-644.2 666.31,-650.05 684.75,-672 723.58,-718.21 699.06,-1700.6 717.75,-1758 733.24,-1805.59 739.18,-1823.89 781.25,-1851 803.57,-1865.38 831.11,-1872.97 857.02,-1876.83"/>
<polygon fill="#7f8c8d" stroke="#7f8c8d" points="856.52,-1880.29 866.89,-1878.1 857.42,-1873.35 856.52,-1880.29"/>
<text xml:space="preserve" text-anchor="middle" x="737.25" y="-1834.08" font-family="Helvetica,sans-Serif" font-size="7.00" fill="#2c3e50">X22 &#45;&gt; X18</text>
</g>
<!-- U25 -->
<g id="node27" class="node">
<title>U25</title>
<path fill="#f4f6f8" stroke="#2c3e50" d="M997.25,-1037C997.25,-1037 887.5,-1037 887.5,-1037 881.5,-1037 875.5,-1031 875.5,-1025 875.5,-1025 875.5,-1013 875.5,-1013 875.5,-1007 881.5,-1001 887.5,-1001 887.5,-1001 997.25,-1001 997.25,-1001 1003.25,-1001 1009.25,-1007 1009.25,-1013 1009.25,-1013 1009.25,-1025 1009.25,-1025 1009.25,-1031 1003.25,-1037 997.25,-1037"/>
<text xml:space="preserve" text-anchor="middle" x="942.38" y="-1024.9" font-family="Helvetica,sans-Serif" font-size="8.00">U25 ADM7151 &#45;&gt; +1V8_CLOCK</text>
<text xml:space="preserve" text-anchor="middle" x="942.38" y="-1015.9" font-family="Helvetica,sans-Serif" font-size="8.00">IN +5V0_2</text>
<text xml:space="preserve" text-anchor="middle" x="942.38" y="-1006.9" font-family="Helvetica,sans-Serif" font-size="8.00">EN_+1V8_CLOCK (PG4) seq F1</text>
</g>
<!-- U24&#45;&gt;U25 -->
<g id="edge26" class="edge">
<title>U24&#45;&gt;U25</title>
<path fill="none" stroke="#7f8c8d" d="M607.86,-551.21C631.97,-554.05 661.53,-560.33 684.75,-574 727.05,-598.9 738.03,-612.37 756.75,-657.75 785.41,-727.21 730.18,-939.88 781.25,-995 802,-1017.4 833.97,-1025.11 863.9,-1026.57"/>
<polygon fill="#7f8c8d" stroke="#7f8c8d" points="863.66,-1030.06 873.74,-1026.8 863.82,-1023.06 863.66,-1030.06"/>
<text xml:space="preserve" text-anchor="middle" x="737.25" y="-659.35" font-family="Helvetica,sans-Serif" font-size="7.00" fill="#2c3e50">+5V0_2</text>
</g>
<!-- U24&#45;&gt;spare -->
<g id="edge37" class="edge">
<title>U24&#45;&gt;spare</title>
<path fill="none" stroke="#7f8c8d" stroke-dasharray="5,2" d="M607.74,-553.71C638.53,-556.76 680.59,-560.44 717.75,-562 735.07,-562.73 739.57,-564.33 756.75,-562 793.31,-557.04 832.86,-546.8 865.94,-536.79"/>
<polygon fill="#7f8c8d" stroke="#7f8c8d" points="866.93,-540.15 875.46,-533.86 864.87,-533.46 866.93,-540.15"/>
</g>
<!-- U27 -->
<g id="node28" class="node">
<title>U27</title>
<path fill="#f4f6f8" stroke="#2c3e50" d="M992.38,-939C992.38,-939 892.38,-939 892.38,-939 886.38,-939 880.38,-933 880.38,-927 880.38,-927 880.38,-915 880.38,-915 880.38,-909 886.38,-903 892.38,-903 892.38,-903 992.38,-903 992.38,-903 998.38,-903 1004.38,-909 1004.38,-915 1004.38,-915 1004.38,-927 1004.38,-927 1004.38,-933 998.38,-939 992.38,-939"/>
<text xml:space="preserve" text-anchor="middle" x="942.38" y="-922.4" font-family="Helvetica,sans-Serif" font-size="8.00">U27 ADM7151 &#45;&gt; +3V3_LO_1</text>
<text xml:space="preserve" text-anchor="middle" x="942.38" y="-913.4" font-family="Helvetica,sans-Serif" font-size="8.00">IN +5V0_3, EN = +5V0_3</text>
</g>
<!-- U26&#45;&gt;U27 -->
<g id="edge27" class="edge">
<title>U26&#45;&gt;U27</title>
<path fill="none" stroke="#7f8c8d" d="M607.75,-500.38C658.46,-501.84 737.22,-507.56 756.75,-528.75 812.34,-589.05 725.69,-836.67 781.25,-897 803.04,-920.67 837.35,-927.97 868.63,-928.81"/>
<polygon fill="#7f8c8d" stroke="#7f8c8d" points="868.47,-932.31 878.48,-928.84 868.49,-925.31 868.47,-932.31"/>
<text xml:space="preserve" text-anchor="middle" x="737.25" y="-530.35" font-family="Helvetica,sans-Serif" font-size="7.00" fill="#2c3e50">+5V0_3</text>
</g>
<!-- U26&#45;&gt;spare -->
<g id="edge38" class="edge">
<title>U26&#45;&gt;spare</title>
<path fill="none" stroke="#7f8c8d" stroke-dasharray="5,2" d="M607.69,-493.79C630.94,-489.88 659.75,-484.04 684.75,-476 700.09,-471.07 702,-464.41 717.75,-461 774.44,-448.72 839.1,-466.65 884.26,-484.36"/>
<polygon fill="#7f8c8d" stroke="#7f8c8d" points="882.74,-487.52 893.33,-488.03 885.37,-481.03 882.74,-487.52"/>
</g>
<!-- U29 -->
<g id="node29" class="node">
<title>U29</title>
<path fill="#f4f6f8" stroke="#2c3e50" d="M992.38,-890C992.38,-890 892.38,-890 892.38,-890 886.38,-890 880.38,-884 880.38,-878 880.38,-878 880.38,-866 880.38,-866 880.38,-860 886.38,-854 892.38,-854 892.38,-854 992.38,-854 992.38,-854 998.38,-854 1004.38,-860 1004.38,-866 1004.38,-866 1004.38,-878 1004.38,-878 1004.38,-884 998.38,-890 992.38,-890"/>
<text xml:space="preserve" text-anchor="middle" x="942.38" y="-873.4" font-family="Helvetica,sans-Serif" font-size="8.00">U29 ADM7151 &#45;&gt; +3V3_LO_2</text>
<text xml:space="preserve" text-anchor="middle" x="942.38" y="-864.4" font-family="Helvetica,sans-Serif" font-size="8.00">IN +5V0_4, EN = +5V0_4</text>
</g>
<!-- U28&#45;&gt;U29 -->
<g id="edge28" class="edge">
<title>U28&#45;&gt;U29</title>
<path fill="none" stroke="#7f8c8d" d="M607.76,-402.47C632.41,-404.72 662.54,-410.99 684.75,-427 708.49,-444.12 696.27,-464.11 717.75,-484 731.86,-497.07 745.94,-486.84 756.75,-502.75 799.97,-566.37 729.02,-791.54 781.25,-848 803.09,-871.62 837.41,-878.91 868.68,-879.76"/>
<polygon fill="#7f8c8d" stroke="#7f8c8d" points="868.51,-883.26 878.52,-879.8 868.53,-876.26 868.51,-883.26"/>
<text xml:space="preserve" text-anchor="middle" x="737.25" y="-504.35" font-family="Helvetica,sans-Serif" font-size="7.00" fill="#2c3e50">+5V0_4</text>
</g>
<!-- U28&#45;&gt;spare -->
<g id="edge39" class="edge">
<title>U28&#45;&gt;spare</title>
<path fill="none" stroke="#7f8c8d" stroke-dasharray="5,2" d="M607.8,-410.37C630.82,-414.93 659.39,-420.87 684.75,-427 748.88,-442.51 820.06,-466.35 871.15,-484.68"/>
<polygon fill="#7f8c8d" stroke="#7f8c8d" points="869.72,-487.88 880.32,-487.99 872.1,-481.3 869.72,-487.88"/>
</g>
<!-- U32 -->
<g id="node31" class="node">
<title>U32</title>
<path fill="#f4f6f8" stroke="#c0392b" d="M1017.88,-1135C1017.88,-1135 866.88,-1135 866.88,-1135 860.88,-1135 854.88,-1129 854.88,-1123 854.88,-1123 854.88,-1111 854.88,-1111 854.88,-1105 860.88,-1099 866.88,-1099 866.88,-1099 1017.88,-1099 1017.88,-1099 1023.88,-1099 1029.88,-1105 1029.88,-1111 1029.88,-1111 1029.88,-1123 1029.88,-1123 1029.88,-1129 1023.88,-1135 1017.88,-1135"/>
<text xml:space="preserve" text-anchor="middle" x="942.38" y="-1122.9" font-family="Helvetica,sans-Serif" font-size="8.00" fill="#c0392b">U32 TPS7A8300 &#45;&gt; +3V3_ADTR</text>
<text xml:space="preserve" text-anchor="middle" x="942.38" y="-1113.9" font-family="Helvetica,sans-Serif" font-size="8.00" fill="#c0392b">IN +5V0_ADTR</text>
<text xml:space="preserve" text-anchor="middle" x="942.38" y="-1104.9" font-family="Helvetica,sans-Serif" font-size="8.00" fill="#c0392b">EN_+3V3_ADTR (PE13) NEVER SET HIGH</text>
</g>
<!-- U31&#45;&gt;U32 -->
<g id="edge30" class="edge">
<title>U31&#45;&gt;U32</title>
<path fill="none" stroke="#7f8c8d" d="M607.84,-597.18C632.97,-598.95 663.56,-605.16 684.75,-623 715.43,-648.84 695.72,-673.48 717.75,-707 731.17,-727.42 746.57,-723.53 756.75,-745.75 788.97,-816.08 728.73,-1036.2 781.25,-1093 797.31,-1110.37 820.12,-1118.92 843.51,-1122.56"/>
<polygon fill="#7f8c8d" stroke="#7f8c8d" points="842.78,-1125.99 853.13,-1123.75 843.64,-1119.05 842.78,-1125.99"/>
<text xml:space="preserve" text-anchor="middle" x="737.25" y="-747.35" font-family="Helvetica,sans-Serif" font-size="7.00" fill="#2c3e50">+5V0_ADTR</text>
</g>
<!-- U31&#45;&gt;spare -->
<g id="edge42" class="edge">
<title>U31&#45;&gt;spare</title>
<path fill="none" stroke="#7f8c8d" stroke-dasharray="5,2" d="M607.56,-602.38C647.1,-605.12 706.53,-606.3 756.75,-595 806.21,-583.87 858.43,-558.7 894.66,-538.79"/>
<polygon fill="#7f8c8d" stroke="#7f8c8d" points="896.09,-542 903.12,-534.07 892.68,-535.89 896.09,-542"/>
</g>
<!-- U34 -->
<g id="node32" class="node">
<title>U34</title>
<path fill="#f4f6f8" stroke="#2c3e50" d="M991.62,-841C991.62,-841 893.12,-841 893.12,-841 887.12,-841 881.12,-835 881.12,-829 881.12,-829 881.12,-817 881.12,-817 881.12,-811 887.12,-805 893.12,-805 893.12,-805 991.62,-805 991.62,-805 997.62,-805 1003.62,-811 1003.62,-817 1003.62,-817 1003.62,-829 1003.62,-829 1003.62,-835 997.62,-841 991.62,-841"/>
<text xml:space="preserve" text-anchor="middle" x="942.38" y="-824.4" font-family="Helvetica,sans-Serif" font-size="8.00">U34 TPS7A8300 &#45;&gt; +3V3_XO</text>
<text xml:space="preserve" text-anchor="middle" x="942.38" y="-815.4" font-family="Helvetica,sans-Serif" font-size="8.00">IN +5V0_5, EN = +5V0_5</text>
</g>
<!-- U33&#45;&gt;U34 -->
<g id="edge29" class="edge">
<title>U33&#45;&gt;U34</title>
<path fill="none" stroke="#7f8c8d" d="M607.73,-352.31C632.83,-354.13 663.41,-360.34 684.75,-378 714.38,-402.53 691.34,-430.04 717.75,-458 730.96,-471.98 745.91,-460.87 756.75,-476.75 797.49,-536.43 731.74,-748.37 781.25,-801 803.42,-824.57 838.12,-831.37 869.55,-831.72"/>
<polygon fill="#7f8c8d" stroke="#7f8c8d" points="869.49,-835.23 879.44,-831.6 869.4,-828.23 869.49,-835.23"/>
<text xml:space="preserve" text-anchor="middle" x="737.25" y="-478.35" font-family="Helvetica,sans-Serif" font-size="7.00" fill="#2c3e50">+5V0_5</text>
</g>
<!-- U33&#45;&gt;spare -->
<g id="edge40" class="edge">
<title>U33&#45;&gt;spare</title>
<path fill="none" stroke="#7f8c8d" stroke-dasharray="5,2" d="M607.86,-359.13C631.16,-363.11 659.96,-369.21 684.75,-378 762.4,-405.54 846.01,-452.46 895.99,-482.58"/>
<polygon fill="#7f8c8d" stroke="#7f8c8d" points="894.17,-485.57 904.54,-487.77 897.8,-479.58 894.17,-485.57"/>
</g>
<!-- m_an -->
<g id="node44" class="node">
<title>m_an</title>
<path fill="#f4f6f8" stroke="#2c3e50" d="M1640.75,-1946C1640.75,-1946 1342.75,-1946 1342.75,-1946 1336.75,-1946 1330.75,-1940 1330.75,-1934 1330.75,-1934 1330.75,-1922 1330.75,-1922 1330.75,-1916 1336.75,-1910 1342.75,-1910 1342.75,-1910 1640.75,-1910 1640.75,-1910 1646.75,-1910 1652.75,-1916 1652.75,-1922 1652.75,-1922 1652.75,-1934 1652.75,-1934 1652.75,-1940 1646.75,-1946 1640.75,-1946"/>
<text xml:space="preserve" text-anchor="middle" x="1491.75" y="-1933.9" font-family="Helvetica,sans-Serif" font-size="8.00">+3V3_AN (X9/X56) &#45;&gt; L15 +3V3_AN1_F U5 mixer, L16 +3V3_AN2_F U13 mixer,</text>
<text xml:space="preserve" text-anchor="middle" x="1491.75" y="-1924.9" font-family="Helvetica,sans-Serif" font-size="8.00">L17 +3V3_AN3_F DAC5578 U7/U69, L18 +3V3_AN4_F TMP37 headers + ADS7830,</text>
<text xml:space="preserve" text-anchor="middle" x="1491.75" y="-1915.9" font-family="Helvetica,sans-Serif" font-size="8.00">L21/L23 +3V3_AN5_F/+3V3_AN6_F INA241 U11,U73..U87, L6 DAC_AVDD (U3)</text>
</g>
<!-- U5&#45;&gt;m_an -->
<g id="edge64" class="edge">
<title>U5&#45;&gt;m_an</title>
<path fill="none" stroke="#7f8c8d" d="M1012.27,-1061.41C1044.04,-1062.27 1079.77,-1069.42 1103,-1093 1158.75,-1149.6 1099.45,-1195.86 1128,-1270 1178.66,-1401.57 1259.93,-1399.41 1305.75,-1532.75 1318.35,-1569.41 1304.67,-1836.9 1330.68,-1899.83"/>
<polygon fill="#7f8c8d" stroke="#7f8c8d" points="1327.55,-1901.42 1335.65,-1908.25 1333.58,-1897.86 1327.55,-1901.42"/>
<text xml:space="preserve" text-anchor="middle" x="1216.88" y="-1534.35" font-family="Helvetica,sans-Serif" font-size="7.00" fill="#2c3e50">X12 &#45;&gt; X9 (X56)</text>
</g>
<!-- s_clk3 -->
<g id="node55" class="node">
<title>s_clk3</title>
<path fill="#f4f6f8" stroke="#2c3e50" d="M1579.25,-235C1579.25,-235 1404.25,-235 1404.25,-235 1398.25,-235 1392.25,-229 1392.25,-223 1392.25,-223 1392.25,-211 1392.25,-211 1392.25,-205 1398.25,-199 1404.25,-199 1404.25,-199 1579.25,-199 1579.25,-199 1585.25,-199 1591.25,-205 1591.25,-211 1591.25,-211 1591.25,-223 1591.25,-223 1591.25,-229 1585.25,-235 1579.25,-235"/>
<text xml:space="preserve" text-anchor="middle" x="1491.75" y="-213.9" font-family="Helvetica,sans-Serif" font-size="8.00">X11 &#45;&gt; L10 &#45;&gt; +3V3_CLOCK: IC1 AD9523 VDD3_*</text>
</g>
<!-- U23&#45;&gt;s_clk3 -->
<g id="edge82" class="edge">
<title>U23&#45;&gt;s_clk3</title>
<path fill="none" stroke="#7f8c8d" d="M1009.72,-973.12C1040.52,-971.47 1076.17,-964.84 1103,-946 1258.06,-837.12 1252.34,-752.78 1305.75,-571 1326.42,-500.65 1281,-295.86 1330.75,-242 1343.99,-227.67 1361.8,-219.27 1380.74,-214.64"/>
<polygon fill="#7f8c8d" stroke="#7f8c8d" points="1381.42,-218.08 1390.51,-212.64 1380.01,-211.22 1381.42,-218.08"/>
<text xml:space="preserve" text-anchor="middle" x="1216.88" y="-928.24" font-family="Helvetica,sans-Serif" font-size="7.00" fill="#2c3e50">X11 &#45;&gt; X11</text>
</g>
<!-- m_adcav -->
<g id="node45" class="node">
<title>m_adcav</title>
<path fill="#f4f6f8" stroke="#2c3e50" d="M1617.12,-1897C1617.12,-1897 1366.38,-1897 1366.38,-1897 1360.38,-1897 1354.38,-1891 1354.38,-1885 1354.38,-1885 1354.38,-1873 1354.38,-1873 1354.38,-1867 1360.38,-1861 1366.38,-1861 1366.38,-1861 1617.12,-1861 1617.12,-1861 1623.12,-1861 1629.12,-1867 1629.12,-1873 1629.12,-1873 1629.12,-1885 1629.12,-1885 1629.12,-1891 1623.12,-1897 1617.12,-1897"/>
<text xml:space="preserve" text-anchor="middle" x="1491.75" y="-1875.9" font-family="Helvetica,sans-Serif" font-size="8.00">+1V8_CLOCK (X17) &#45;&gt; L1 &#45;&gt; +1V8_CLOCK_F: U1 AD9484 AVDD, CSB</text>
</g>
<!-- U25&#45;&gt;m_adcav -->
<g id="edge65" class="edge">
<title>U25&#45;&gt;m_adcav</title>
<path fill="none" stroke="#c0392b" d="M1009.44,-1014.11C1041.11,-1015.26 1077.58,-1022.15 1103,-1044 1130.93,-1068 1108.83,-1091.55 1128,-1123 1185.98,-1218.13 1247.64,-1204.69 1305.75,-1299.75 1421.97,-1489.87 1472.31,-1760.26 1486.39,-1849.31"/>
<polygon fill="#c0392b" stroke="#c0392b" points="1482.93,-1849.8 1487.91,-1859.15 1489.85,-1848.73 1482.93,-1849.8"/>
<text xml:space="preserve" text-anchor="middle" x="1216.88" y="-1301.35" font-family="Helvetica,sans-Serif" font-size="7.00" fill="#c0392b">X10 &#45;&gt; X17</text>
</g>
<!-- s_clk1 -->
<g id="node56" class="node">
<title>s_clk1</title>
<path fill="#f4f6f8" stroke="#2c3e50" d="M1582.62,-284C1582.62,-284 1400.88,-284 1400.88,-284 1394.88,-284 1388.88,-278 1388.88,-272 1388.88,-272 1388.88,-260 1388.88,-260 1388.88,-254 1394.88,-248 1400.88,-248 1400.88,-248 1582.62,-248 1582.62,-248 1588.62,-248 1594.62,-254 1594.62,-260 1594.62,-260 1594.62,-272 1594.62,-272 1594.62,-278 1588.62,-284 1582.62,-284"/>
<text xml:space="preserve" text-anchor="middle" x="1491.75" y="-262.9" font-family="Helvetica,sans-Serif" font-size="8.00">X12 &#45;&gt; L11 &#45;&gt; +1V8_CLOCK: IC1 AD9523 VDD1.8_*</text>
</g>
<!-- U25&#45;&gt;s_clk1 -->
<g id="edge83" class="edge">
<title>U25&#45;&gt;s_clk1</title>
<path fill="none" stroke="#c0392b" d="M1009.38,-1022.22C1040.28,-1020.63 1076.12,-1014.01 1103,-995 1359.62,-813.5 1461.1,-408.13 1484.94,-295.52"/>
<polygon fill="#c0392b" stroke="#c0392b" points="1488.33,-296.38 1486.93,-285.88 1481.48,-294.97 1488.33,-296.38"/>
<text xml:space="preserve" text-anchor="middle" x="1216.88" y="-969.76" font-family="Helvetica,sans-Serif" font-size="7.00" fill="#c0392b">X10 &#45;&gt; X12 (same PB X10 as Main X17: UNRESOLVED)</text>
</g>
<!-- s_lo1 -->
<g id="node57" class="node">
<title>s_lo1</title>
<path fill="#f4f6f8" stroke="#2c3e50" d="M1631.75,-186C1631.75,-186 1351.75,-186 1351.75,-186 1345.75,-186 1339.75,-180 1339.75,-174 1339.75,-174 1339.75,-162 1339.75,-162 1339.75,-156 1345.75,-150 1351.75,-150 1351.75,-150 1631.75,-150 1631.75,-150 1637.75,-150 1643.75,-156 1643.75,-162 1643.75,-162 1643.75,-174 1643.75,-174 1643.75,-180 1637.75,-186 1631.75,-186"/>
<text xml:space="preserve" text-anchor="middle" x="1491.75" y="-169.4" font-family="Helvetica,sans-Serif" font-size="8.00">X13 &#45;&gt; L12 &#45;&gt; +3V3_LO_1: U1/U6 ADF4382 V3_LDO/LS/NDIV/PFD/REF/SYNC</text>
<text xml:space="preserve" text-anchor="middle" x="1491.75" y="-160.4" font-family="Helvetica,sans-Serif" font-size="8.00">+ 200k pull&#45;ups R24/R25/R37/R38 (CS, CE)</text>
</g>
<!-- U27&#45;&gt;s_lo1 -->
<g id="edge84" class="edge">
<title>U27&#45;&gt;s_lo1</title>
<path fill="none" stroke="#7f8c8d" d="M1004.51,-927.58C1037.77,-927.68 1077.26,-921.58 1103,-897 1144.37,-857.5 1104.42,-822.86 1128,-770.75 1181.51,-652.48 1259.63,-660.34 1305.75,-539 1333.14,-466.94 1278.54,-249.72 1330.75,-193 1330.83,-192.91 1330.92,-192.82 1331,-192.73"/>
<polygon fill="#7f8c8d" stroke="#7f8c8d" points="1333.24,-195.43 1338.17,-186.05 1328.47,-190.3 1333.24,-195.43"/>
<text xml:space="preserve" text-anchor="middle" x="1216.88" y="-772.35" font-family="Helvetica,sans-Serif" font-size="7.00" fill="#2c3e50">X8 &#45;&gt; X13</text>
</g>
<!-- s_lo2 -->
<g id="node58" class="node">
<title>s_lo2</title>
<path fill="#f4f6f8" stroke="#2c3e50" d="M1620.12,-137C1620.12,-137 1363.38,-137 1363.38,-137 1357.38,-137 1351.38,-131 1351.38,-125 1351.38,-125 1351.38,-113 1351.38,-113 1351.38,-107 1357.38,-101 1363.38,-101 1363.38,-101 1620.12,-101 1620.12,-101 1626.12,-101 1632.12,-107 1632.12,-113 1632.12,-113 1632.12,-125 1632.12,-125 1632.12,-131 1626.12,-137 1620.12,-137"/>
<text xml:space="preserve" text-anchor="middle" x="1491.75" y="-120.4" font-family="Helvetica,sans-Serif" font-size="8.00">X14 &#45;&gt; L13 &#45;&gt; +3V3_LO_2: U1/U6 V3_OUTDIV/RFOUT1/RFOUT2/VCOB</text>
<text xml:space="preserve" text-anchor="middle" x="1491.75" y="-111.4" font-family="Helvetica,sans-Serif" font-size="8.00">(RFOUT bias chokes L1..L8 1.3 nH)</text>
</g>
<!-- U29&#45;&gt;s_lo2 -->
<g id="edge85" class="edge">
<title>U29&#45;&gt;s_lo2</title>
<path fill="none" stroke="#7f8c8d" d="M1004.77,-879.61C1038.54,-880.15 1078.44,-874.15 1103,-848 1147.02,-801.13 1087.99,-610.08 1128,-559.75 1179.69,-494.72 1254.61,-567.46 1305.75,-502 1354.85,-439.15 1276.81,-202.74 1330.75,-144 1334.07,-140.39 1337.67,-137.15 1341.51,-134.26"/>
<polygon fill="#7f8c8d" stroke="#7f8c8d" points="1343.18,-137.36 1349.62,-128.94 1339.33,-131.5 1343.18,-137.36"/>
<text xml:space="preserve" text-anchor="middle" x="1216.88" y="-561.35" font-family="Helvetica,sans-Serif" font-size="7.00" fill="#2c3e50">X7 &#45;&gt; X14</text>
</g>
<!-- s_lo5 -->
<g id="node59" class="node">
<title>s_lo5</title>
<path fill="#f4f6f8" stroke="#2c3e50" d="M1083.5,-284C1083.5,-284 801.25,-284 801.25,-284 795.25,-284 789.25,-278 789.25,-272 789.25,-272 789.25,-260 789.25,-260 789.25,-254 795.25,-248 801.25,-248 801.25,-248 1083.5,-248 1083.5,-248 1089.5,-248 1095.5,-254 1095.5,-260 1095.5,-260 1095.5,-272 1095.5,-272 1095.5,-278 1089.5,-284 1083.5,-284"/>
<text xml:space="preserve" text-anchor="middle" x="942.38" y="-262.9" font-family="Helvetica,sans-Serif" font-size="8.00">X15 +5V0_LO &#45;&gt; FB1..FB4 &#45;&gt; ADF4382 5 V domains (V5_VCO/CAL/CP per xlsx)</text>
</g>
<!-- U30&#45;&gt;s_lo5 -->
<g id="edge86" class="edge">
<title>U30&#45;&gt;s_lo5</title>
<path fill="none" stroke="#7f8c8d" d="M580.99,-951.53C608.47,-921.04 661.27,-857.04 684.75,-792 758.04,-588.96 617.65,-456.81 781.25,-316 794.87,-304.28 811.22,-295.3 828.2,-288.43"/>
<polygon fill="#7f8c8d" stroke="#7f8c8d" points="829.3,-291.76 837.42,-284.95 826.83,-285.21 829.3,-291.76"/>
<text xml:space="preserve" text-anchor="middle" x="737.25" y="-393.26" font-family="Helvetica,sans-Serif" font-size="7.00" fill="#2c3e50">X6 &#45;&gt; X15</text>
</g>
<!-- U32&#45;&gt;m_adtr -->
<g id="edge70" class="edge">
<title>U32&#45;&gt;m_adtr</title>
<path fill="none" stroke="#7f8c8d" d="M963.08,-1135.36C1026.7,-1196.06 1227.03,-1398.62 1305.75,-1612.75 1331.91,-1683.91 1279.2,-1897.4 1330.75,-1953 1333.94,-1956.44 1337.38,-1959.53 1341.05,-1962.3"/>
<polygon fill="#7f8c8d" stroke="#7f8c8d" points="1339.04,-1965.16 1349.32,-1967.73 1342.88,-1959.32 1339.04,-1965.16"/>
<text xml:space="preserve" text-anchor="middle" x="1216.88" y="-1614.35" font-family="Helvetica,sans-Serif" font-size="7.00" fill="#2c3e50">X34 &#45;&gt; X4</text>
</g>
<!-- s_xo -->
<g id="node54" class="node">
<title>s_xo</title>
<path fill="#f4f6f8" stroke="#2c3e50" d="M1583.75,-88C1583.75,-88 1399.75,-88 1399.75,-88 1393.75,-88 1387.75,-82 1387.75,-76 1387.75,-76 1387.75,-64 1387.75,-64 1387.75,-58 1393.75,-52 1399.75,-52 1399.75,-52 1583.75,-52 1583.75,-52 1589.75,-52 1595.75,-58 1595.75,-64 1595.75,-64 1595.75,-76 1595.75,-76 1595.75,-82 1589.75,-88 1583.75,-88"/>
<text xml:space="preserve" text-anchor="middle" x="1491.75" y="-66.9" font-family="Helvetica,sans-Serif" font-size="8.00">X10 &#45;&gt; L9 &#45;&gt; +3V3_XO: X4 OCXO, X5/X6 VCXO VDD</text>
</g>
<!-- U34&#45;&gt;s_xo -->
<g id="edge81" class="edge">
<title>U34&#45;&gt;s_xo</title>
<path fill="none" stroke="#7f8c8d" d="M1003.83,-831.38C1037.72,-832.46 1078.05,-827.08 1103,-801 1144.54,-757.58 1092.82,-580.46 1128,-531.75 1178.49,-461.85 1256.07,-524.48 1305.75,-454 1351.82,-388.64 1276.67,-153.91 1330.75,-95 1342.95,-81.71 1359.09,-73.51 1376.43,-68.68"/>
<polygon fill="#7f8c8d" stroke="#7f8c8d" points="1376.95,-72.16 1385.88,-66.45 1375.34,-65.35 1376.95,-72.16"/>
<text xml:space="preserve" text-anchor="middle" x="1216.88" y="-533.35" font-family="Helvetica,sans-Serif" font-size="7.00" fill="#2c3e50">X35 &#45;&gt; X10</text>
</g>
<!-- U18&#45;&gt;m_adtr -->
<g id="edge72" class="edge">
<title>U18&#45;&gt;m_adtr</title>
<path fill="none" stroke="#7f8c8d" d="M1000.58,-1515.41C1031.48,-1518.92 1069.96,-1525.12 1103,-1536 1199.53,-1567.78 1249.62,-1557.02 1305.75,-1641.75 1344.07,-1699.6 1283.4,-1902.28 1330.75,-1953 1333.95,-1956.42 1337.41,-1959.51 1341.08,-1962.27"/>
<polygon fill="#7f8c8d" stroke="#7f8c8d" points="1339.08,-1965.14 1349.36,-1967.69 1342.91,-1959.29 1339.08,-1965.14"/>
<text xml:space="preserve" text-anchor="middle" x="1216.88" y="-1643.35" font-family="Helvetica,sans-Serif" font-size="7.00" fill="#2c3e50">X18 &#45;&gt; X6</text>
</g>
<!-- U19&#45;&gt;m_sw -->
<g id="edge77" class="edge">
<title>U19&#45;&gt;m_sw</title>
<path fill="none" stroke="#7f8c8d" d="M983.17,-1555.86C1018.4,-1554.39 1069.33,-1557.94 1103,-1585 1126.81,-1604.13 1107.31,-1626.54 1128,-1649 1187.57,-1713.64 1256.26,-1663.1 1305.75,-1735.75 1345.31,-1793.83 1282.82,-1999.61 1330.75,-2051 1350.45,-2072.13 1380.15,-2080.15 1408.63,-2082.19"/>
<polygon fill="#7f8c8d" stroke="#7f8c8d" points="1408.22,-2085.68 1418.37,-2082.64 1408.54,-2078.68 1408.22,-2085.68"/>
<text xml:space="preserve" text-anchor="middle" x="1216.88" y="-1737.35" font-family="Helvetica,sans-Serif" font-size="7.00" fill="#2c3e50">X24 &#45;&gt; X11 (X22)</text>
</g>
<!-- m_adarneg -->
<g id="node47" class="node">
<title>m_adarneg</title>
<path fill="#f4f6f8" stroke="#2c3e50" d="M1572.5,-2044C1572.5,-2044 1411,-2044 1411,-2044 1405,-2044 1399,-2038 1399,-2032 1399,-2032 1399,-2020 1399,-2020 1399,-2014 1405,-2008 1411,-2008 1411,-2008 1572.5,-2008 1572.5,-2008 1578.5,-2008 1584.5,-2014 1584.5,-2020 1584.5,-2020 1584.5,-2032 1584.5,-2032 1584.5,-2038 1578.5,-2044 1572.5,-2044"/>
<text xml:space="preserve" text-anchor="middle" x="1491.75" y="-2027.4" font-family="Helvetica,sans-Serif" font-size="8.00">&#45;5V0_ADAR12 (X13): ADAR1_/ADAR2_ AVDD</text>
<text xml:space="preserve" text-anchor="middle" x="1491.75" y="-2018.4" font-family="Helvetica,sans-Serif" font-size="8.00">&#45;5V0_ADAR34 (X15): ADAR3_/ADAR4_ AVDD</text>
</g>
<!-- U20&#45;&gt;m_adarneg -->
<g id="edge68" class="edge">
<title>U20&#45;&gt;m_adarneg</title>
<path fill="none" stroke="#7f8c8d" d="M1014.91,-1663.16C1101.02,-1673.68 1241.98,-1705.63 1305.75,-1802.75 1354.74,-1877.35 1268.4,-1938.14 1330.75,-2002 1345.87,-2017.49 1366.39,-2025.83 1387.68,-2029.92"/>
<polygon fill="#7f8c8d" stroke="#7f8c8d" points="1386.95,-2033.34 1397.37,-2031.45 1388.04,-2026.43 1386.95,-2033.34"/>
<text xml:space="preserve" text-anchor="middle" x="1216.88" y="-1804.35" font-family="Helvetica,sans-Serif" font-size="7.00" fill="#2c3e50">X21 &#45;&gt; X13</text>
</g>
<!-- U21&#45;&gt;m_adarneg -->
<g id="edge69" class="edge">
<title>U21&#45;&gt;m_adarneg</title>
<path fill="none" stroke="#7f8c8d" d="M1014.96,-1612.4C1109.52,-1618.53 1268.48,-1635.06 1305.75,-1677.75 1353.27,-1732.2 1281.52,-1949.09 1330.75,-2002 1345.58,-2017.93 1366.09,-2026.42 1387.49,-2030.51"/>
<polygon fill="#7f8c8d" stroke="#7f8c8d" points="1386.81,-2033.95 1397.23,-2032.03 1387.89,-2027.03 1386.81,-2033.95"/>
<text xml:space="preserve" text-anchor="middle" x="1216.88" y="-1679.35" font-family="Helvetica,sans-Serif" font-size="7.00" fill="#2c3e50">X20 &#45;&gt; X15</text>
</g>
<!-- U22&#45;&gt;m_opa -->
<g id="edge79" class="edge">
<title>U22&#45;&gt;m_opa</title>
<path fill="none" stroke="#7f8c8d" d="M997.94,-1716.65C1089.29,-1734 1267.01,-1773.2 1305.75,-1821.75 1344.47,-1870.28 1288.17,-2054.82 1330.75,-2100 1340.81,-2110.67 1353.41,-2117.99 1367.11,-2122.87"/>
<polygon fill="#7f8c8d" stroke="#7f8c8d" points="1365.74,-2126.11 1376.33,-2125.71 1367.8,-2119.42 1365.74,-2126.11"/>
<text xml:space="preserve" text-anchor="middle" x="1216.88" y="-1823.35" font-family="Helvetica,sans-Serif" font-size="7.00" fill="#2c3e50">X19 &#45;&gt; X19</text>
</g>
<!-- SV1P -->
<g id="node38" class="node">
<title>SV1P</title>
<path fill="#f4f6f8" stroke="#2c3e50" d="M378.5,-1580C378.5,-1580 297.25,-1580 297.25,-1580 291.25,-1580 285.25,-1574 285.25,-1568 285.25,-1568 285.25,-1556 285.25,-1556 285.25,-1550 291.25,-1544 297.25,-1544 297.25,-1544 378.5,-1544 378.5,-1544 384.5,-1544 390.5,-1550 390.5,-1556 390.5,-1556 390.5,-1568 390.5,-1568 390.5,-1574 384.5,-1580 378.5,-1580"/>
<text xml:space="preserve" text-anchor="middle" x="337.88" y="-1563.4" font-family="Helvetica,sans-Serif" font-size="8.00">SV1 MA10&#45;2 (EN bus in)</text>
<text xml:space="preserve" text-anchor="middle" x="337.88" y="-1554.4" font-family="Helvetica,sans-Serif" font-size="8.00">15x EN_* from Main SV1</text>
</g>
<!-- SV1P&#45;&gt;U1 -->
<g id="edge45" class="edge">
<title>SV1P&#45;&gt;U1</title>
<path fill="none" stroke="#1f4e79" d="M342.66,-1580.4C350.31,-1612.58 370.83,-1678.71 415.5,-1711 436.07,-1725.87 462.55,-1732.69 487.3,-1735.45"/>
<polygon fill="#1f4e79" stroke="#1f4e79" points="486.74,-1738.92 497.02,-1736.32 487.37,-1731.95 486.74,-1738.92"/>
</g>
<!-- SV1P&#45;&gt;U2 -->
<g id="edge46" class="edge">
<title>SV1P&#45;&gt;U2</title>
<path fill="none" stroke="#1f4e79" d="M346.1,-1543.84C359.6,-1512.4 391.78,-1448.14 440.5,-1416 454.33,-1406.87 470.84,-1400.98 487.14,-1397.19"/>
<polygon fill="#1f4e79" stroke="#1f4e79" points="487.79,-1400.64 496.88,-1395.2 486.38,-1393.78 487.79,-1400.64"/>
</g>
<!-- SV1P&#45;&gt;U4 -->
<g id="edge47" class="edge">
<title>SV1P&#45;&gt;U4</title>
<path fill="none" stroke="#1f4e79" d="M390.82,-1556.4C419.44,-1553.32 455.47,-1549.44 487.06,-1546.03"/>
<polygon fill="#1f4e79" stroke="#1f4e79" points="487.4,-1549.52 496.96,-1544.97 486.65,-1542.56 487.4,-1549.52"/>
</g>
<!-- SV1P&#45;&gt;U6 -->
<g id="edge48" class="edge">
<title>SV1P&#45;&gt;U6</title>
<path fill="none" stroke="#1f4e79" d="M372.38,-1543.7C391.8,-1533.73 417,-1521.85 440.5,-1514 453.15,-1509.77 466.79,-1506.13 480.2,-1503.03"/>
<polygon fill="#1f4e79" stroke="#1f4e79" points="480.89,-1506.46 489.9,-1500.88 479.38,-1499.62 480.89,-1506.46"/>
</g>
<!-- SV1P&#45;&gt;U7 -->
<g id="edge49" class="edge">
<title>SV1P&#45;&gt;U7</title>
<path fill="none" stroke="#1f4e79" d="M352.52,-1543.81C370.24,-1521.57 403.34,-1484.48 440.5,-1465 452.8,-1458.55 466.63,-1453.76 480.41,-1450.21"/>
<polygon fill="#1f4e79" stroke="#1f4e79" points="481.03,-1453.66 489.96,-1447.97 479.42,-1446.85 481.03,-1453.66"/>
</g>
<!-- SV1P&#45;&gt;U8 -->
<g id="edge50" class="edge">
<title>SV1P&#45;&gt;U8</title>
<path fill="none" stroke="#1f4e79" d="M340.77,-1543.6C346.53,-1497.73 368.12,-1377.72 440.5,-1318 451.65,-1308.8 465.32,-1302.71 479.4,-1298.73"/>
<polygon fill="#1f4e79" stroke="#1f4e79" points="479.87,-1302.22 488.75,-1296.44 478.21,-1295.42 479.87,-1302.22"/>
</g>
<!-- SV1P&#45;&gt;U10 -->
<g id="edge51" class="edge">
<title>SV1P&#45;&gt;U10</title>
<path fill="none" stroke="#1f4e79" d="M338.1,-1543.64C336.76,-1485.91 341.13,-1306.79 440.5,-1220 454.1,-1208.13 471.83,-1201.35 489.51,-1197.61"/>
<polygon fill="#1f4e79" stroke="#1f4e79" points="490.05,-1201.07 499.28,-1195.88 488.82,-1194.18 490.05,-1201.07"/>
</g>
<!-- SV1P&#45;&gt;U13 -->
<g id="edge52" class="edge">
<title>SV1P&#45;&gt;U13</title>
<path fill="none" stroke="#1f4e79" d="M339.31,-1543.85C341.58,-1492.18 355.54,-1343.2 440.5,-1269 452.85,-1258.21 468.61,-1251.64 484.65,-1247.72"/>
<polygon fill="#1f4e79" stroke="#1f4e79" points="485.2,-1251.18 494.28,-1245.72 483.78,-1244.33 485.2,-1251.18"/>
</g>
<!-- SV1P&#45;&gt;U14 -->
<g id="edge53" class="edge">
<title>SV1P&#45;&gt;U14</title>
<path fill="none" stroke="#c0392b" d="M347.29,-1580.43C359,-1603.82 382.57,-1643.45 415.5,-1663 431.65,-1672.59 450.52,-1678.49 469.23,-1682.03"/>
<polygon fill="#c0392b" stroke="#c0392b" points="468.58,-1685.47 479.02,-1683.65 469.73,-1678.57 468.58,-1685.47"/>
</g>
<!-- SV1P&#45;&gt;U15 -->
<g id="edge54" class="edge">
<title>SV1P&#45;&gt;U15</title>
<path fill="none" stroke="#c0392b" d="M359.78,-1580.46C374.38,-1592.3 394.87,-1606.91 415.5,-1615 432.29,-1621.59 450.9,-1626.14 469.05,-1629.28"/>
<polygon fill="#c0392b" stroke="#c0392b" points="468.36,-1632.72 478.78,-1630.82 469.45,-1625.8 468.36,-1632.72"/>
</g>
<!-- SV1P&#45;&gt;U16 -->
<g id="edge55" class="edge">
<title>SV1P&#45;&gt;U16</title>
<path fill="none" stroke="#c0392b" d="M390.82,-1567.83C414.1,-1570.44 442.29,-1573.61 469,-1576.6"/>
<polygon fill="#c0392b" stroke="#c0392b" points="468.5,-1580.07 478.83,-1577.71 469.28,-1573.11 468.5,-1580.07"/>
</g>
<!-- SV1P&#45;&gt;U17 -->
<g id="edge56" class="edge">
<title>SV1P&#45;&gt;U17</title>
<path fill="none" stroke="#c0392b" d="M342.87,-1543.52C352.38,-1504.3 380.19,-1412.56 440.5,-1367 449.85,-1359.94 460.71,-1354.75 472.03,-1350.96"/>
<polygon fill="#c0392b" stroke="#c0392b" points="472.92,-1354.35 481.52,-1348.17 470.94,-1347.63 472.92,-1354.35"/>
</g>
<!-- SV1P&#45;&gt;U23 -->
<g id="edge57" class="edge">
<title>SV1P&#45;&gt;U23</title>
<path fill="none" stroke="#1f4e79" d="M340.92,-1580.39C346.9,-1624.34 368.78,-1735.22 440.5,-1781 451.94,-1788.3 674.37,-1789.74 684.75,-1781 750.96,-1725.2 673.04,-1663.15 717.75,-1589 729.04,-1570.27 746.67,-1578.4 756.75,-1559 785.67,-1503.34 739.44,-1041.76 781.25,-995 801.71,-972.13 833.8,-964.2 863.9,-962.65"/>
<polygon fill="#1f4e79" stroke="#1f4e79" points="863.89,-966.15 873.79,-962.38 863.7,-959.15 863.89,-966.15"/>
</g>
<!-- SV1P&#45;&gt;U25 -->
<g id="edge58" class="edge">
<title>SV1P&#45;&gt;U25</title>
<path fill="none" stroke="#1f4e79" d="M338.48,-1580.32C338.64,-1625.28 346.09,-1741.03 415.5,-1791 439.78,-1808.48 657.37,-1803.05 684.75,-1791 704.62,-1782.26 701.75,-1769.67 717.75,-1755 733.87,-1740.22 746.74,-1744.44 756.75,-1725 791.41,-1657.69 730.99,-1100.63 781.25,-1044 801.62,-1021.05 833.7,-1013.12 863.81,-1011.57"/>
<polygon fill="#1f4e79" stroke="#1f4e79" points="863.81,-1015.07 873.71,-1011.31 863.63,-1008.08 863.81,-1015.07"/>
</g>
<!-- SV1P&#45;&gt;U32 -->
<g id="edge59" class="edge">
<title>SV1P&#45;&gt;U32</title>
<path fill="none" stroke="#c0392b" d="M338.06,-1580.44C337.11,-1627.47 341.95,-1752 415.5,-1806 511.96,-1876.82 579.63,-1863.19 684.75,-1806 708.47,-1793.1 698.27,-1773.69 717.75,-1755 732.27,-1741.07 745.93,-1748.97 756.75,-1732 786.77,-1684.94 767.14,-1536.01 781.25,-1482 815.74,-1350 892.08,-1204.82 925.35,-1145.06"/>
<polygon fill="#c0392b" stroke="#c0392b" points="928.28,-1147 930.12,-1136.56 922.18,-1143.57 928.28,-1147"/>
</g>
<!-- m_an&#45;&gt;p_vd -->
<g id="edge89" class="edge">
<title>m_an&#45;&gt;p_vd</title>
<path fill="none" stroke="#1f4e79" stroke-dasharray="5,2" d="M1664.14,-1928C1759.51,-1928 1876.59,-1928 1965.74,-1928"/>
<polygon fill="#1f4e79" stroke="#1f4e79" points="1664.44,-1924.5 1654.44,-1928 1664.44,-1931.5 1664.44,-1924.5"/>
<text xml:space="preserve" text-anchor="middle" x="1809.38" y="-1929.6" font-family="Helvetica,sans-Serif" font-size="7.00" fill="#1f4e79">X3/X38..X52 &lt;&#45; X3 shunt sense (INA241)</text>
</g>
<!-- p_vg -->
<g id="node61" class="node">
<title>p_vg</title>
<path fill="#f4f6f8" stroke="#2c3e50" d="M2194.25,-1995C2194.25,-1995 2012.5,-1995 2012.5,-1995 2006.5,-1995 2000.5,-1989 2000.5,-1983 2000.5,-1983 2000.5,-1971 2000.5,-1971 2000.5,-1965 2006.5,-1959 2012.5,-1959 2012.5,-1959 2194.25,-1959 2194.25,-1959 2200.25,-1959 2206.25,-1965 2206.25,-1971 2206.25,-1971 2206.25,-1983 2206.25,-1983 2206.25,-1989 2200.25,-1995 2194.25,-1995"/>
<text xml:space="preserve" text-anchor="middle" x="2103.38" y="-1978.4" font-family="Helvetica,sans-Serif" font-size="8.00">X2 VG &lt;&#45; Main X_n (OPA4703 output, DAC5578&#45;set)</text>
<text xml:space="preserve" text-anchor="middle" x="2103.38" y="-1969.4" font-family="Helvetica,sans-Serif" font-size="8.00">xlsx: VG &#45;4 ... &#45;1.2 V</text>
</g>
<!-- m_opa&#45;&gt;p_vg -->
<g id="edge88" class="edge">
<title>m_opa&#45;&gt;p_vg</title>
<path fill="none" stroke="#1f4e79" d="M1605.61,-2109.93C1624.11,-2107.04 1643.02,-2103.72 1660.75,-2100 1794.88,-2071.86 1948.39,-2025.93 2034.51,-1998.87"/>
<polygon fill="#1f4e79" stroke="#1f4e79" points="2035.51,-2002.22 2044,-1995.87 2033.41,-1995.54 2035.51,-2002.22"/>
<text xml:space="preserve" text-anchor="middle" x="1809.38" y="-2096.4" font-family="Helvetica,sans-Serif" font-size="7.00" fill="#1f4e79">X_1..X_16 &#45;&gt; X2 (VG_n)</text>
</g>
<!-- m_sv1 -->
<g id="node53" class="node">
<title>m_sv1</title>
<path fill="#f4f6f8" stroke="#2c3e50" d="M113.75,-1897C113.75,-1897 28,-1897 28,-1897 22,-1897 16,-1891 16,-1885 16,-1885 16,-1873 16,-1873 16,-1867 22,-1861 28,-1861 28,-1861 113.75,-1861 113.75,-1861 119.75,-1861 125.75,-1867 125.75,-1873 125.75,-1873 125.75,-1885 125.75,-1885 125.75,-1891 119.75,-1897 113.75,-1897"/>
<text xml:space="preserve" text-anchor="middle" x="70.88" y="-1880.4" font-family="Helvetica,sans-Serif" font-size="8.00">SV1 MA10&#45;2 (EN bus out)</text>
<text xml:space="preserve" text-anchor="middle" x="70.88" y="-1871.4" font-family="Helvetica,sans-Serif" font-size="8.00">U2 PE7..PE15, PG0..PG5</text>
</g>
<!-- m_sv1&#45;&gt;SV1P -->
<g id="edge44" class="edge">
<title>m_sv1&#45;&gt;SV1P</title>
<path fill="none" stroke="#1f4e79" d="M87.27,-1860.59C131.91,-1807.19 261.59,-1652.06 314.25,-1589.07"/>
<polygon fill="#1f4e79" stroke="#1f4e79" points="316.74,-1591.54 320.47,-1581.63 311.37,-1587.05 316.74,-1591.54"/>
<text xml:space="preserve" text-anchor="middle" x="206.25" y="-1778.06" font-family="Helvetica,sans-Serif" font-size="7.00" fill="#1f4e79">20&#45;way ribbon, 15x EN_* (CBL&#45;21)</text>
</g>
</g>
</svg>
