M48
; DRILL file KiCad 10.0.6 date 2026-10-09T04:17:02
; FORMAT={-:-/ absolute / metric / decimal}
; #@! TF.CreationDate,2026-10-09T04:17:02+03:00
; #@! TF.GenerationSoftware,Kicad,Pcbnew,10.0.6
; #@! TF.FileFunction,Plated,1,2,PTH
FMAT,2
METRIC
; #@! TA.AperFunction,Plated,PTH,ComponentDrill
T1C0.300
%
G90
G05
T1
X2.0Y234.176
X2.0Y228.176
X2.0Y219.876
X2.0Y213.876
X2.0Y205.576
X2.0Y199.576
X2.0Y191.276
X2.0Y185.276
X2.0Y176.976
X2.0Y170.976
X2.0Y162.676
X2.0Y156.676
X2.0Y148.376
X2.0Y142.376
X2.0Y134.076
X2.0Y128.076
X2.0Y119.776
X2.0Y113.776
X2.0Y105.476
X2.0Y99.476
X2.0Y91.176
X2.0Y85.176
X2.0Y76.876
X2.0Y70.876
X2.0Y62.576
X2.0Y56.576
X2.0Y48.276
X2.0Y42.276
X2.0Y33.976
X2.0Y27.976
X2.0Y19.676
X2.0Y13.676
M30
