%TF.GenerationSoftware,KiCad,Pcbnew,10.0.6*%
%TF.CreationDate,2026-10-09T14:16:52+03:00*%
%TF.ProjectId,MAIN_BOARD,4d41494e-5f42-44f4-9152-442e6b696361,rev?*%
%TF.SameCoordinates,Original*%
%TF.FileFunction,Soldermask,Top*%
%TF.FilePolarity,Negative*%
%FSLAX46Y46*%
G04 Gerber Fmt 4.6, Leading zero omitted, Abs format (unit mm)*
G04 Created by KiCad (PCBNEW 10.0.6) date 2026-10-09 14:16:52*
%MOMM*%
%LPD*%
G01*
G04 APERTURE LIST*
G04 Aperture macros list*
%AMRoundRect*
0 Rectangle with rounded corners*
0 $1 Rounding radius*
0 $2 $3 $4 $5 $6 $7 $8 $9 X,Y pos of 4 corners*
0 Add a 4 corners polygon primitive as box body*
4,1,4,$2,$3,$4,$5,$6,$7,$8,$9,$2,$3,0*
0 Add four circle primitives for the rounded corners*
1,1,$1+$1,$2,$3*
1,1,$1+$1,$4,$5*
1,1,$1+$1,$6,$7*
1,1,$1+$1,$8,$9*
0 Add four rect primitives between the rounded corners*
20,1,$1+$1,$2,$3,$4,$5,0*
20,1,$1+$1,$4,$5,$6,$7,0*
20,1,$1+$1,$6,$7,$8,$9,0*
20,1,$1+$1,$8,$9,$2,$3,0*%
%AMFreePoly0*
4,1,17,0.351552,0.797921,0.797921,0.351552,0.812800,0.315631,0.812800,-0.315631,0.797921,-0.351552,0.351552,-0.797921,0.315631,-0.812800,-0.315631,-0.812800,-0.351552,-0.797921,-0.797921,-0.351552,-0.812800,-0.315631,-0.812800,0.315631,-0.797921,0.351552,-0.351552,0.797921,-0.315631,0.812800,0.315631,0.812800,0.351552,0.797921,0.351552,0.797921,$1*%
G04 Aperture macros list end*
%ADD10C,2.540000*%
%ADD11C,0.000000*%
%ADD12RoundRect,0.050800X0.500000X-0.450000X0.500000X0.450000X-0.500000X0.450000X-0.500000X-0.450000X0*%
%ADD13RoundRect,0.050800X0.175000X-0.125000X0.175000X0.125000X-0.175000X0.125000X-0.175000X-0.125000X0*%
%ADD14RoundRect,0.050800X0.215000X-0.140000X0.215000X0.140000X-0.215000X0.140000X-0.215000X-0.140000X0*%
%ADD15RoundRect,0.050800X-0.254558X0.098995X0.098995X-0.254558X0.254558X-0.098995X-0.098995X0.254558X0*%
%ADD16RoundRect,0.050800X-0.098995X-0.254558X0.254558X0.098995X0.098995X0.254558X-0.254558X-0.098995X0*%
%ADD17RoundRect,0.050800X-1.088944X0.000000X0.000000X-1.088944X1.088944X0.000000X0.000000X1.088944X0*%
%ADD18O,3.149600X1.625600*%
%ADD19RoundRect,0.050800X-0.406400X0.101600X-0.406400X-0.101600X0.406400X-0.101600X0.406400X0.101600X0*%
%ADD20RoundRect,0.050800X0.101600X0.406400X-0.101600X0.406400X-0.101600X-0.406400X0.101600X-0.406400X0*%
%ADD21RoundRect,0.050800X-3.035300X-3.276600X3.035300X-3.276600X3.035300X3.276600X-3.035300X3.276600X0*%
%ADD22RoundRect,0.050800X-0.450000X0.350000X-0.450000X-0.350000X0.450000X-0.350000X0.450000X0.350000X0*%
%ADD23C,1.101600*%
%ADD24C,1.466600*%
%ADD25RoundRect,0.050800X0.140000X0.215000X-0.140000X0.215000X-0.140000X-0.215000X0.140000X-0.215000X0*%
%ADD26RoundRect,0.050800X-0.035355X0.212132X-0.212132X0.035355X0.035355X-0.212132X0.212132X-0.035355X0*%
%ADD27RoundRect,0.330300X-0.000010X-0.000010X0.000010X-0.000010X0.000010X0.000010X-0.000010X0.000010X0*%
%ADD28C,1.892600*%
%ADD29RoundRect,0.330300X0.000000X-0.000014X0.000014X0.000000X0.000000X0.000014X-0.000014X0.000000X0*%
%ADD30RoundRect,0.050800X-0.215000X0.140000X-0.215000X-0.140000X0.215000X-0.140000X0.215000X0.140000X0*%
%ADD31RoundRect,0.050800X-0.212132X-0.035355X-0.035355X-0.212132X0.212132X0.035355X0.035355X0.212132X0*%
%ADD32RoundRect,0.050800X0.450000X-0.350000X0.450000X0.350000X-0.450000X0.350000X-0.450000X-0.350000X0*%
%ADD33RoundRect,0.050800X-0.140000X-0.215000X0.140000X-0.215000X0.140000X0.215000X-0.140000X0.215000X0*%
%ADD34RoundRect,0.050800X-0.175000X0.125000X-0.175000X-0.125000X0.175000X-0.125000X0.175000X0.125000X0*%
%ADD35FreePoly0,270.000000*%
%ADD36RoundRect,0.050800X0.212132X0.035355X0.035355X0.212132X-0.212132X-0.035355X-0.035355X-0.212132X0*%
%ADD37RoundRect,0.050800X-0.125000X-0.175000X0.125000X-0.175000X0.125000X0.175000X-0.125000X0.175000X0*%
%ADD38O,3.101600X1.601600*%
%ADD39RoundRect,0.050800X0.700460X-0.161645X-0.161645X0.700460X-0.700460X0.161645X0.161645X-0.700460X0*%
%ADD40C,3.200000*%
%ADD41RoundRect,0.050800X0.098995X0.254558X-0.254558X-0.098995X-0.098995X-0.254558X0.254558X0.098995X0*%
%ADD42RoundRect,0.050800X0.000000X1.088944X-1.088944X0.000000X0.000000X-1.088944X1.088944X0.000000X0*%
%ADD43RoundRect,0.050800X0.125000X0.175000X-0.125000X0.175000X-0.125000X-0.175000X0.125000X-0.175000X0*%
%ADD44O,1.601600X3.101600*%
%ADD45RoundRect,0.050800X-0.161645X-0.700460X0.700460X0.161645X0.161645X0.700460X-0.700460X-0.161645X0*%
%ADD46RoundRect,0.050800X0.254558X-0.098995X-0.098995X0.254558X-0.254558X0.098995X0.098995X-0.254558X0*%
%ADD47RoundRect,0.050800X0.000000X-1.088944X1.088944X0.000000X0.000000X1.088944X-1.088944X0.000000X0*%
%ADD48RoundRect,0.050800X-0.800000X-0.900000X0.800000X-0.900000X0.800000X0.900000X-0.800000X0.900000X0*%
%ADD49C,1.200000*%
%ADD50RoundRect,0.050800X-1.550000X-0.250000X1.550000X-0.250000X1.550000X0.250000X-1.550000X0.250000X0*%
%ADD51RoundRect,0.050800X-1.250000X-1.000000X1.250000X-1.000000X1.250000X1.000000X-1.250000X1.000000X0*%
%ADD52RoundRect,0.050800X-1.650000X-1.000000X1.650000X-1.000000X1.650000X1.000000X-1.650000X1.000000X0*%
%ADD53RoundRect,0.050800X0.161645X0.700460X-0.700460X-0.161645X-0.161645X-0.700460X0.700460X0.161645X0*%
%ADD54RoundRect,0.050800X-0.300000X-0.350000X0.300000X-0.350000X0.300000X0.350000X-0.300000X0.350000X0*%
%ADD55RoundRect,0.050800X-1.193800X0.647700X-1.193800X-0.647700X1.193800X-0.647700X1.193800X0.647700X0*%
%ADD56RoundRect,0.050800X-0.700000X-0.225000X0.700000X-0.225000X0.700000X0.225000X-0.700000X0.225000X0*%
%ADD57RoundRect,0.050800X0.035355X-0.212132X0.212132X-0.035355X-0.035355X0.212132X-0.212132X0.035355X0*%
%ADD58RoundRect,0.050800X-0.084650X-0.084650X0.084650X-0.084650X0.084650X0.084650X-0.084650X0.084650X0*%
%ADD59RoundRect,0.330300X0.000014X0.000000X0.000000X0.000014X-0.000014X0.000000X0.000000X-0.000014X0*%
%ADD60RoundRect,0.050800X-0.750000X0.650000X-0.750000X-0.650000X0.750000X-0.650000X0.750000X0.650000X0*%
%ADD61RoundRect,0.050800X0.177800X-0.838200X0.177800X0.838200X-0.177800X0.838200X-0.177800X-0.838200X0*%
%ADD62RoundRect,0.275800X-0.000010X-0.000010X0.000010X-0.000010X0.000010X0.000010X-0.000010X0.000010X0*%
%ADD63RoundRect,0.050800X-0.053882X0.305329X-0.305329X0.053882X0.053882X-0.305329X0.305329X-0.053882X0*%
%ADD64RoundRect,0.050800X0.305329X0.053882X0.053882X0.305329X-0.305329X-0.053882X-0.053882X-0.305329X0*%
%ADD65RoundRect,0.050800X-2.334867X0.000000X0.000000X-2.334867X2.334867X0.000000X0.000000X2.334867X0*%
%ADD66RoundRect,0.050800X-0.838200X-0.177800X0.838200X-0.177800X0.838200X0.177800X-0.838200X0.177800X0*%
%ADD67O,1.625600X3.149600*%
%ADD68RoundRect,0.050800X0.900000X2.000000X-0.900000X2.000000X-0.900000X-2.000000X0.900000X-2.000000X0*%
%ADD69RoundRect,0.050800X0.350000X0.450000X-0.350000X0.450000X-0.350000X-0.450000X0.350000X-0.450000X0*%
%ADD70RoundRect,0.050800X2.120900X1.625600X-2.120900X1.625600X-2.120900X-1.625600X2.120900X-1.625600X0*%
%ADD71RoundRect,0.050800X0.127000X0.127000X-0.127000X0.127000X-0.127000X-0.127000X0.127000X-0.127000X0*%
%ADD72RoundRect,0.050800X0.800100X-0.584200X0.800100X0.584200X-0.800100X0.584200X-0.800100X-0.584200X0*%
%ADD73RoundRect,0.050800X0.355600X-0.088900X0.355600X0.088900X-0.355600X0.088900X-0.355600X-0.088900X0*%
%ADD74RoundRect,0.050800X-0.088900X-0.355600X0.088900X-0.355600X0.088900X0.355600X-0.088900X0.355600X0*%
%ADD75RoundRect,0.050800X1.803400X1.803400X-1.803400X1.803400X-1.803400X-1.803400X1.803400X-1.803400X0*%
%ADD76RoundRect,0.330300X0.000000X0.000014X-0.000014X0.000000X0.000000X-0.000014X0.000014X0.000000X0*%
%ADD77RoundRect,0.050800X0.053882X-0.305329X0.305329X-0.053882X-0.053882X0.305329X-0.305329X0.053882X0*%
%ADD78RoundRect,0.050800X-0.305329X-0.053882X-0.053882X-0.305329X0.305329X0.053882X0.053882X0.305329X0*%
%ADD79RoundRect,0.050800X2.334867X0.000000X0.000000X2.334867X-2.334867X0.000000X0.000000X-2.334867X0*%
%ADD80RoundRect,0.050800X1.088944X0.000000X0.000000X1.088944X-1.088944X0.000000X0.000000X-1.088944X0*%
%ADD81RoundRect,0.050800X-0.900000X-2.000000X0.900000X-2.000000X0.900000X2.000000X-0.900000X2.000000X0*%
%ADD82RoundRect,0.050800X0.000000X2.334867X-2.334867X0.000000X0.000000X-2.334867X2.334867X0.000000X0*%
%ADD83RoundRect,0.050800X-0.700460X0.161645X0.161645X-0.700460X0.700460X-0.161645X-0.161645X0.700460X0*%
%ADD84RoundRect,0.215900X0.000010X0.000010X-0.000010X0.000010X-0.000010X-0.000010X0.000010X-0.000010X0*%
%ADD85RoundRect,0.050800X0.700000X0.225000X-0.700000X0.225000X-0.700000X-0.225000X0.700000X-0.225000X0*%
%ADD86RoundRect,0.050800X0.300000X0.350000X-0.300000X0.350000X-0.300000X-0.350000X0.300000X-0.350000X0*%
%ADD87RoundRect,0.050800X-0.350000X-0.450000X0.350000X-0.450000X0.350000X0.450000X-0.350000X0.450000X0*%
%ADD88RoundRect,0.050800X0.000000X-2.334867X2.334867X0.000000X0.000000X2.334867X-2.334867X0.000000X0*%
%ADD89RoundRect,0.050800X-0.900000X0.800000X-0.900000X-0.800000X0.900000X-0.800000X0.900000X0.800000X0*%
%ADD90RoundRect,0.050800X-0.350000X0.300000X-0.350000X-0.300000X0.350000X-0.300000X0.350000X0.300000X0*%
%ADD91FreePoly0,90.000000*%
%ADD92RoundRect,0.200800X-0.350000X-0.350000X0.350000X-0.350000X0.350000X0.350000X-0.350000X0.350000X0*%
%ADD93FreePoly0,180.000000*%
%ADD94RoundRect,0.050800X0.084650X0.084650X-0.084650X0.084650X-0.084650X-0.084650X0.084650X-0.084650X0*%
%ADD95RoundRect,0.050800X-0.381000X0.609600X-0.381000X-0.609600X0.381000X-0.609600X0.381000X0.609600X0*%
%ADD96RoundRect,0.050800X-0.650000X-0.750000X0.650000X-0.750000X0.650000X0.750000X-0.650000X0.750000X0*%
%ADD97RoundRect,0.050800X-0.425000X0.140000X-0.425000X-0.140000X0.425000X-0.140000X0.425000X0.140000X0*%
%ADD98RoundRect,0.050800X0.140000X0.425000X-0.140000X0.425000X-0.140000X-0.425000X0.140000X-0.425000X0*%
%ADD99RoundRect,0.050800X-1.350000X-1.350000X1.350000X-1.350000X1.350000X1.350000X-1.350000X1.350000X0*%
%ADD100C,0.655600*%
%ADD101RoundRect,0.177800X0.279400X0.000010X-0.279400X0.000010X-0.279400X-0.000010X0.279400X-0.000010X0*%
%ADD102RoundRect,0.177800X0.000010X-0.279400X0.000010X0.279400X-0.000010X0.279400X-0.000010X-0.279400X0*%
%ADD103RoundRect,0.050800X0.124600X0.402400X-0.124600X0.402400X-0.124600X-0.402400X0.124600X-0.402400X0*%
%ADD104RoundRect,0.050800X0.402400X-0.124600X0.402400X0.124600X-0.402400X0.124600X-0.402400X-0.124600X0*%
%ADD105RoundRect,0.050800X-2.500000X2.500000X-2.500000X-2.500000X2.500000X-2.500000X2.500000X2.500000X0*%
%ADD106RoundRect,0.050800X0.650000X0.750000X-0.650000X0.750000X-0.650000X-0.750000X0.650000X-0.750000X0*%
%ADD107RoundRect,0.050800X-2.120900X-1.625600X2.120900X-1.625600X2.120900X1.625600X-2.120900X1.625600X0*%
%ADD108RoundRect,0.050800X-0.127000X-0.127000X0.127000X-0.127000X0.127000X0.127000X-0.127000X0.127000X0*%
%ADD109RoundRect,0.050800X-0.177800X0.838200X-0.177800X-0.838200X0.177800X-0.838200X0.177800X0.838200X0*%
%ADD110RoundRect,0.050800X0.350000X-0.300000X0.350000X0.300000X-0.350000X0.300000X-0.350000X-0.300000X0*%
%ADD111RoundRect,0.050800X-0.127000X-0.406400X0.127000X-0.406400X0.127000X0.406400X-0.127000X0.406400X0*%
%ADD112RoundRect,0.050800X-0.406400X0.127000X-0.406400X-0.127000X0.406400X-0.127000X0.406400X0.127000X0*%
%ADD113RoundRect,0.050800X0.825500X-0.825500X0.825500X0.825500X-0.825500X0.825500X-0.825500X-0.825500X0*%
%ADD114RoundRect,0.177800X-0.279400X-0.000010X0.279400X-0.000010X0.279400X0.000010X-0.279400X0.000010X0*%
%ADD115RoundRect,0.177800X-0.000010X0.279400X-0.000010X-0.279400X0.000010X-0.279400X0.000010X0.279400X0*%
%ADD116RoundRect,0.050800X0.900000X-0.800000X0.900000X0.800000X-0.900000X0.800000X-0.900000X-0.800000X0*%
%ADD117RoundRect,0.050800X-0.110000X0.250000X-0.110000X-0.250000X0.110000X-0.250000X0.110000X0.250000X0*%
%ADD118RoundRect,0.050800X-0.250000X-0.110000X0.250000X-0.110000X0.250000X0.110000X-0.250000X0.110000X0*%
%ADD119RoundRect,0.050800X-0.770000X0.770000X-0.770000X-0.770000X0.770000X-0.770000X0.770000X0.770000X0*%
%ADD120RoundRect,0.050800X0.279400X-0.990600X0.279400X0.990600X-0.279400X0.990600X-0.279400X-0.990600X0*%
%ADD121RoundRect,0.050800X0.736600X-0.139700X0.736600X0.139700X-0.736600X0.139700X-0.736600X-0.139700X0*%
%ADD122RoundRect,0.050800X-0.139700X-0.736600X0.139700X-0.736600X0.139700X0.736600X-0.139700X0.736600X0*%
G04 APERTURE END LIST*
D10*
X101135000Y146670000D02*
X110934450Y146670000D01*
X101645118Y212195128D02*
X111595393Y212195128D01*
X111019521Y212237553D02*
G75*
G02*
X116019453Y207237553I-21J-4999953D01*
G01*
X115934450Y182170000D02*
X115934450Y207366143D01*
X115934450Y151670000D02*
G75*
G02*
X110934450Y146670050I-4999950J0D01*
G01*
X115934450Y151670000D02*
X115934450Y176866143D01*
X117580000Y179890000D02*
X183580000Y179890000D01*
X141818231Y211297093D02*
X143234012Y212712875D01*
X141818231Y135277093D02*
X143234012Y136692875D01*
X141828231Y224892906D02*
X143244012Y223477125D01*
X141828231Y148872906D02*
X143244012Y147457125D01*
X143167090Y209918234D02*
X143784428Y210535571D01*
X143167090Y133898234D02*
X143784428Y134515571D01*
X143207090Y226271765D02*
X143824428Y225654428D01*
X143207090Y150251765D02*
X143824428Y149634428D01*
X143244012Y223477125D02*
G75*
G02*
X143769995Y222207278I-1269812J-1269825D01*
G01*
X143244012Y147457125D02*
G75*
G02*
X143769995Y146187278I-1269812J-1269825D01*
G01*
X143760000Y215343240D02*
G75*
G02*
X144222068Y216458690I1577500J-40D01*
G01*
X143759999Y213982721D02*
G75*
G02*
X143234015Y212712872I-1795799J-21D01*
G01*
X143760000Y213982721D02*
X143760000Y215343240D01*
X143760000Y139323240D02*
G75*
G02*
X144222068Y140438690I1577500J-40D01*
G01*
X143759999Y137962721D02*
G75*
G02*
X143234015Y136692872I-1795799J-21D01*
G01*
X143760000Y137962721D02*
X143760000Y139323240D01*
X143770000Y222207278D02*
X143770000Y220846759D01*
X143770000Y146187278D02*
X143770000Y144826759D01*
X143824428Y225654428D02*
G75*
G02*
X144577495Y225342482I-28J-1065028D01*
G01*
X143824428Y149634428D02*
G75*
G02*
X144577495Y149322482I-28J-1065028D01*
G01*
X144222043Y216458715D02*
G75*
G02*
X145746103Y217089983I1524057J-1524115D01*
G01*
X144222043Y140438715D02*
G75*
G02*
X145746103Y141069983I1524057J-1524115D01*
G01*
X144232043Y219731284D02*
G75*
G02*
X143769964Y220846759I1115457J1115516D01*
G01*
X144232043Y143711284D02*
G75*
G02*
X143769964Y144826759I1115457J1115516D01*
G01*
X144537506Y210847506D02*
G75*
G02*
X143784428Y210535556I-753106J753094D01*
G01*
X144537506Y134827506D02*
G75*
G02*
X143784428Y134515556I-753106J753094D01*
G01*
X145180000Y214581593D02*
X145180000Y214220000D01*
X145180000Y214581593D02*
G75*
G02*
X145489998Y215330002I1058400J7D01*
G01*
X145180000Y138561593D02*
X145180000Y138200000D01*
X145180000Y138561593D02*
G75*
G02*
X145489998Y139310002I1058400J7D01*
G01*
X145220000Y221970000D02*
G75*
G02*
X145375568Y222345556I531100J0D01*
G01*
X145220000Y221608406D02*
X145220000Y221970000D01*
X145220000Y145950000D02*
G75*
G02*
X145375568Y146325556I531100J0D01*
G01*
X145220000Y145588406D02*
X145220000Y145950000D01*
X145335561Y213844437D02*
G75*
G02*
X145179991Y214220000I375539J375563D01*
G01*
X145335562Y213844437D02*
X145980000Y213200000D01*
X145335561Y137824437D02*
G75*
G02*
X145179991Y138200000I375539J375563D01*
G01*
X145335562Y137824437D02*
X145980000Y137180000D01*
X145375562Y222345562D02*
X146020000Y222990000D01*
X145375562Y146325562D02*
X146020000Y146970000D01*
X145530000Y220860000D02*
G75*
G02*
X145220003Y221608405I748400J748400D01*
G01*
X145530000Y144840000D02*
G75*
G02*
X145220003Y145588405I748400J748400D01*
G01*
X145747953Y215587953D02*
X145490000Y215330000D01*
X145747953Y215587953D02*
G75*
G02*
X146960000Y216089998I1212047J-1212053D01*
G01*
X145747953Y139567953D02*
X145490000Y139310000D01*
X145747953Y139567953D02*
G75*
G02*
X146960000Y140069998I1212047J-1212053D01*
G01*
X145756103Y219100000D02*
G75*
G02*
X144232052Y219731293I-3J2155300D01*
G01*
X145756103Y143080000D02*
G75*
G02*
X144232052Y143711293I-3J2155300D01*
G01*
X145787953Y220602046D02*
X145530000Y220860000D01*
X145787953Y144582046D02*
X145530000Y144840000D01*
X145874437Y212184437D02*
X144537506Y210847506D01*
X145874437Y136164437D02*
X144537506Y134827506D01*
X145914437Y224005562D02*
X144577506Y225342493D01*
X145914437Y224005562D02*
G75*
G02*
X146177508Y223370356I-635237J-635162D01*
G01*
X145914437Y147985562D02*
X144577506Y149322493D01*
X145914437Y147985562D02*
G75*
G02*
X146177508Y147350356I-635237J-635162D01*
G01*
X145980000Y213200000D02*
G75*
G02*
X146137567Y212819643I-380400J-380400D01*
G01*
X145980000Y137180000D02*
G75*
G02*
X146137567Y136799643I-380400J-380400D01*
G01*
X146137546Y212819643D02*
G75*
G02*
X145874464Y212184410I-898346J-43D01*
G01*
X146137546Y136799643D02*
G75*
G02*
X145874464Y136164410I-898346J-43D01*
G01*
X146177545Y223370356D02*
G75*
G02*
X146019985Y222990015I-537945J44D01*
G01*
X146177545Y147350356D02*
G75*
G02*
X146019985Y146970015I-537945J44D01*
G01*
X146990000Y217090000D02*
X145746103Y217090000D01*
X146990000Y141070000D02*
X145746103Y141070000D01*
X147000000Y220100000D02*
G75*
G02*
X145787952Y220602045I0J1714100D01*
G01*
X147000000Y219100000D02*
X145756103Y219100000D01*
X147000000Y144080000D02*
G75*
G02*
X145787952Y144582045I0J1714100D01*
G01*
X147000000Y143080000D02*
X145756103Y143080000D01*
X150000000Y196600000D02*
X150000000Y215100000D01*
X150000000Y163540000D02*
X150000000Y145040000D01*
X150000000Y163540000D02*
G75*
G02*
X155000000Y168540000I5000000J0D01*
G01*
X153000000Y217080000D02*
X154243896Y217080000D01*
X153000000Y216080000D02*
G75*
G02*
X154212048Y215577956I0J-1714100D01*
G01*
X153000000Y141060000D02*
X154243896Y141060000D01*
X153000000Y140060000D02*
G75*
G02*
X154212048Y139557956I0J-1714100D01*
G01*
X153010000Y219090000D02*
X154253896Y219090000D01*
X153010000Y143070000D02*
X154253896Y143070000D01*
X153822453Y212809643D02*
G75*
G02*
X153980014Y213189986I537947J-43D01*
G01*
X153822453Y136789643D02*
G75*
G02*
X153980014Y137169986I537947J-43D01*
G01*
X153862453Y223360356D02*
G75*
G02*
X154125535Y223995589I898347J44D01*
G01*
X153862453Y147340356D02*
G75*
G02*
X154125535Y147975589I898347J44D01*
G01*
X154020000Y222980000D02*
G75*
G02*
X153862433Y223360356I380400J380400D01*
G01*
X154020000Y146960000D02*
G75*
G02*
X153862433Y147340356I380400J380400D01*
G01*
X154085562Y212174437D02*
G75*
G02*
X153822491Y212809643I635238J635163D01*
G01*
X154085562Y212174437D02*
X155422493Y210837506D01*
X154085562Y136154437D02*
G75*
G02*
X153822491Y136789643I635238J635163D01*
G01*
X154085562Y136154437D02*
X155422493Y134817506D01*
X154125562Y223995562D02*
X155462493Y225332493D01*
X154125562Y147975562D02*
X155462493Y149312493D01*
X154212046Y215577953D02*
X154470000Y215320000D01*
X154212046Y139557953D02*
X154470000Y139300000D01*
X154243896Y217080000D02*
G75*
G02*
X155767948Y216448707I4J-2155300D01*
G01*
X154243896Y141060000D02*
G75*
G02*
X155767948Y140428707I4J-2155300D01*
G01*
X154252045Y220592046D02*
G75*
G02*
X153040000Y220090003I-1212045J1212054D01*
G01*
X154252046Y220592046D02*
X154510000Y220850000D01*
X154252045Y144572046D02*
G75*
G02*
X153040000Y144070003I-1212045J1212054D01*
G01*
X154252046Y144572046D02*
X154510000Y144830000D01*
X154470000Y215320000D02*
G75*
G02*
X154779997Y214571592I-748400J-748400D01*
G01*
X154470000Y139300000D02*
G75*
G02*
X154779997Y138551592I-748400J-748400D01*
G01*
X154624437Y213834437D02*
X153980000Y213190000D01*
X154624437Y137814437D02*
X153980000Y137170000D01*
X154664437Y222335562D02*
X154020000Y222980000D01*
X154664436Y222335562D02*
G75*
G02*
X154820006Y221960000I-375536J-375562D01*
G01*
X154664437Y146315562D02*
X154020000Y146960000D01*
X154664436Y146315562D02*
G75*
G02*
X154820006Y145940000I-375536J-375562D01*
G01*
X154780000Y214571593D02*
X154780000Y214210000D01*
X154780000Y214210000D02*
G75*
G02*
X154624431Y213834443I-531100J0D01*
G01*
X154780000Y138551593D02*
X154780000Y138190000D01*
X154780000Y138190000D02*
G75*
G02*
X154624431Y137814443I-531100J0D01*
G01*
X154820000Y221598406D02*
G75*
G02*
X154510002Y220849998I-1058400J-6D01*
G01*
X154820000Y221598406D02*
X154820000Y221960000D01*
X154820000Y145578406D02*
G75*
G02*
X154510002Y144829998I-1058400J-6D01*
G01*
X154820000Y145578406D02*
X154820000Y145940000D01*
X155000000Y191600000D02*
G75*
G02*
X150000000Y196600000I0J5000000D01*
G01*
X155000000Y191600000D02*
X182091000Y191600000D01*
X155462493Y225332493D02*
G75*
G02*
X156215571Y225644444I753107J-753093D01*
G01*
X155462493Y149312493D02*
G75*
G02*
X156215571Y149624444I753107J-753093D01*
G01*
X155767956Y216448715D02*
G75*
G02*
X156230035Y215333240I-1115456J-1115515D01*
G01*
X155767956Y140428715D02*
G75*
G02*
X156230035Y139313240I-1115456J-1115515D01*
G01*
X155777956Y219721284D02*
G75*
G02*
X154253896Y219090017I-1524056J1524116D01*
G01*
X155777956Y143701284D02*
G75*
G02*
X154253896Y143070017I-1524056J1524116D01*
G01*
X156175571Y210525572D02*
G75*
G02*
X155422505Y210837518I29J1065028D01*
G01*
X156175571Y134505572D02*
G75*
G02*
X155422505Y134817518I29J1065028D01*
G01*
X156230000Y213972721D02*
X156230000Y215333240D01*
X156230000Y137952721D02*
X156230000Y139313240D01*
X156240000Y222197278D02*
X156240000Y220836759D01*
X156240000Y222197278D02*
G75*
G02*
X156765984Y223467128I1795800J22D01*
G01*
X156240000Y220836759D02*
G75*
G02*
X155777931Y219721309I-1577500J41D01*
G01*
X156240000Y146177278D02*
X156240000Y144816759D01*
X156240000Y146177278D02*
G75*
G02*
X156765984Y147447128I1795800J22D01*
G01*
X156240000Y144816759D02*
G75*
G02*
X155777931Y143701309I-1577500J41D01*
G01*
X156755987Y212702875D02*
G75*
G02*
X156230005Y213972721I1269813J1269825D01*
G01*
X156755987Y136682875D02*
G75*
G02*
X156230005Y137952721I1269813J1269825D01*
G01*
X156792909Y209908234D02*
X156175571Y210525571D01*
X156792909Y133888234D02*
X156175571Y134505571D01*
X156832909Y226261765D02*
X156215571Y225644428D01*
X156832909Y150241765D02*
X156215571Y149624428D01*
X158171768Y211287093D02*
X156755987Y212702875D01*
X158171768Y135267093D02*
X156755987Y136682875D01*
X158181768Y224882906D02*
X156765987Y223467125D01*
X158181768Y148862906D02*
X156765987Y147447125D01*
X181191000Y168540000D02*
X155000000Y168540000D01*
X182091000Y191600000D02*
G75*
G02*
X186988000Y186703000I0J-4897000D01*
G01*
X183580000Y179890000D02*
X183580000Y179860000D01*
X186988000Y182551100D02*
X186988000Y186703000D01*
X186988000Y177588900D02*
X186988000Y174337000D01*
X186988000Y174337000D02*
G75*
G02*
X181191000Y168540000I-5797000J0D01*
G01*
X189012000Y177618900D02*
X189012000Y173467000D01*
X189032000Y185743000D02*
G75*
G02*
X194829000Y191540000I5797000J0D01*
G01*
X189032000Y182491100D02*
X189032000Y185743000D01*
X193909000Y168570000D02*
G75*
G02*
X189012000Y173467000I0J4897000D01*
G01*
X194829000Y191540000D02*
X221020000Y191540000D01*
X217828231Y211277093D02*
X219244012Y212692875D01*
X217838231Y224872906D02*
X219254012Y223457125D01*
X217888231Y135297093D02*
X219304012Y136712875D01*
X217898231Y148892906D02*
X219314012Y147477125D01*
X219177090Y209898234D02*
X219794428Y210515571D01*
X219217090Y226251765D02*
X219834428Y225634428D01*
X219237090Y133918234D02*
X219854428Y134535571D01*
X219254012Y223457125D02*
G75*
G02*
X219779995Y222187278I-1269812J-1269825D01*
G01*
X219277090Y150271765D02*
X219894428Y149654428D01*
X219314012Y147477125D02*
G75*
G02*
X219839995Y146207278I-1269812J-1269825D01*
G01*
X219770000Y215323240D02*
G75*
G02*
X220232068Y216438690I1577500J-40D01*
G01*
X219769999Y213962721D02*
G75*
G02*
X219244015Y212692872I-1795799J-21D01*
G01*
X219770000Y213962721D02*
X219770000Y215323240D01*
X219780000Y222187278D02*
X219780000Y220826759D01*
X219830000Y139343240D02*
G75*
G02*
X220292068Y140458690I1577500J-40D01*
G01*
X219829999Y137982721D02*
G75*
G02*
X219304015Y136712872I-1795799J-21D01*
G01*
X219830000Y137982721D02*
X219830000Y139343240D01*
X219834428Y225634428D02*
G75*
G02*
X220587495Y225322482I-28J-1065028D01*
G01*
X219840000Y146207278D02*
X219840000Y144846759D01*
X219894428Y149654428D02*
G75*
G02*
X220647495Y149342482I-28J-1065028D01*
G01*
X220232043Y216438715D02*
G75*
G02*
X221756103Y217069983I1524057J-1524115D01*
G01*
X220242043Y219711284D02*
G75*
G02*
X219779964Y220826759I1115457J1115516D01*
G01*
X220292043Y140458715D02*
G75*
G02*
X221816103Y141089983I1524057J-1524115D01*
G01*
X220302043Y143731284D02*
G75*
G02*
X219839964Y144846759I1115457J1115516D01*
G01*
X220547506Y210827506D02*
G75*
G02*
X219794428Y210515556I-753106J753094D01*
G01*
X220607506Y134847506D02*
G75*
G02*
X219854428Y134535556I-753106J753094D01*
G01*
X221000000Y168570000D02*
X193909000Y168570000D01*
X221000000Y168570000D02*
G75*
G02*
X226000000Y163570000I0J-5000000D01*
G01*
X221190000Y214561593D02*
X221190000Y214200000D01*
X221190000Y214561593D02*
G75*
G02*
X221499998Y215310002I1058400J7D01*
G01*
X221230000Y221950000D02*
G75*
G02*
X221385568Y222325556I531100J0D01*
G01*
X221230000Y221588406D02*
X221230000Y221950000D01*
X221250000Y138581593D02*
X221250000Y138220000D01*
X221250000Y138581593D02*
G75*
G02*
X221559998Y139330002I1058400J7D01*
G01*
X221290000Y145970000D02*
G75*
G02*
X221445568Y146345556I531100J0D01*
G01*
X221290000Y145608406D02*
X221290000Y145970000D01*
X221345561Y213824437D02*
G75*
G02*
X221189991Y214200000I375539J375563D01*
G01*
X221345562Y213824437D02*
X221990000Y213180000D01*
X221385562Y222325562D02*
X222030000Y222970000D01*
X221405561Y137844437D02*
G75*
G02*
X221249991Y138220000I375539J375563D01*
G01*
X221405562Y137844437D02*
X222050000Y137200000D01*
X221445562Y146345562D02*
X222090000Y146990000D01*
X221540000Y220840000D02*
G75*
G02*
X221230003Y221588405I748400J748400D01*
G01*
X221600000Y144860000D02*
G75*
G02*
X221290003Y145608405I748400J748400D01*
G01*
X221757953Y215567953D02*
X221500000Y215310000D01*
X221757953Y215567953D02*
G75*
G02*
X222970000Y216069998I1212047J-1212053D01*
G01*
X221766103Y219080000D02*
G75*
G02*
X220242052Y219711293I-3J2155300D01*
G01*
X221797953Y220582046D02*
X221540000Y220840000D01*
X221817953Y139587953D02*
X221560000Y139330000D01*
X221817953Y139587953D02*
G75*
G02*
X223030000Y140089998I1212047J-1212053D01*
G01*
X221826103Y143100000D02*
G75*
G02*
X220302052Y143731293I-3J2155300D01*
G01*
X221857953Y144602046D02*
X221600000Y144860000D01*
X221884437Y212164437D02*
X220547506Y210827506D01*
X221924437Y223985562D02*
X220587506Y225322493D01*
X221924437Y223985562D02*
G75*
G02*
X222187508Y223350356I-635237J-635162D01*
G01*
X221944437Y136184437D02*
X220607506Y134847506D01*
X221984437Y148005562D02*
X220647506Y149342493D01*
X221984437Y148005562D02*
G75*
G02*
X222247508Y147370356I-635237J-635162D01*
G01*
X221990000Y213180000D02*
G75*
G02*
X222147567Y212799643I-380400J-380400D01*
G01*
X222050000Y137200000D02*
G75*
G02*
X222207567Y136819643I-380400J-380400D01*
G01*
X222147546Y212799643D02*
G75*
G02*
X221884464Y212164410I-898346J-43D01*
G01*
X222187545Y223350356D02*
G75*
G02*
X222029985Y222970015I-537945J44D01*
G01*
X222207546Y136819643D02*
G75*
G02*
X221944464Y136184410I-898346J-43D01*
G01*
X222247545Y147370356D02*
G75*
G02*
X222089985Y146990015I-537945J44D01*
G01*
X223000000Y217070000D02*
X221756103Y217070000D01*
X223010000Y220080000D02*
G75*
G02*
X221797952Y220582045I0J1714100D01*
G01*
X223010000Y219080000D02*
X221766103Y219080000D01*
X223060000Y141090000D02*
X221816103Y141090000D01*
X223070000Y144100000D02*
G75*
G02*
X221857952Y144602045I0J1714100D01*
G01*
X223070000Y143100000D02*
X221826103Y143100000D01*
X226000000Y163570000D02*
X226000000Y145070000D01*
X226020000Y196540000D02*
G75*
G02*
X221020000Y191540000I-5000000J0D01*
G01*
X226020000Y196540000D02*
X226020000Y215040000D01*
X229010000Y217060000D02*
X230253896Y217060000D01*
X229010000Y216060000D02*
G75*
G02*
X230222048Y215557956I0J-1714100D01*
G01*
X229020000Y219070000D02*
X230263896Y219070000D01*
X229070000Y141080000D02*
X230313896Y141080000D01*
X229070000Y140080000D02*
G75*
G02*
X230282048Y139577956I0J-1714100D01*
G01*
X229080000Y143090000D02*
X230323896Y143090000D01*
X229832453Y212789643D02*
G75*
G02*
X229990014Y213169986I537947J-43D01*
G01*
X229872453Y223340356D02*
G75*
G02*
X230135535Y223975589I898347J44D01*
G01*
X229892453Y136809643D02*
G75*
G02*
X230050014Y137189986I537947J-43D01*
G01*
X229932453Y147360356D02*
G75*
G02*
X230195535Y147995589I898347J44D01*
G01*
X230030000Y222960000D02*
G75*
G02*
X229872433Y223340356I380400J380400D01*
G01*
X230090000Y146980000D02*
G75*
G02*
X229932433Y147360356I380400J380400D01*
G01*
X230095562Y212154437D02*
G75*
G02*
X229832491Y212789643I635238J635163D01*
G01*
X230095562Y212154437D02*
X231432493Y210817506D01*
X230135562Y223975562D02*
X231472493Y225312493D01*
X230155562Y136174437D02*
G75*
G02*
X229892491Y136809643I635238J635163D01*
G01*
X230155562Y136174437D02*
X231492493Y134837506D01*
X230195562Y147995562D02*
X231532493Y149332493D01*
X230222046Y215557953D02*
X230480000Y215300000D01*
X230253896Y217060000D02*
G75*
G02*
X231777948Y216428707I4J-2155300D01*
G01*
X230262045Y220572046D02*
G75*
G02*
X229050000Y220070003I-1212045J1212054D01*
G01*
X230262046Y220572046D02*
X230520000Y220830000D01*
X230282046Y139577953D02*
X230540000Y139320000D01*
X230313896Y141080000D02*
G75*
G02*
X231837948Y140448707I4J-2155300D01*
G01*
X230322045Y144592046D02*
G75*
G02*
X229110000Y144090003I-1212045J1212054D01*
G01*
X230322046Y144592046D02*
X230580000Y144850000D01*
X230480000Y215300000D02*
G75*
G02*
X230789997Y214551592I-748400J-748400D01*
G01*
X230540000Y139320000D02*
G75*
G02*
X230849997Y138571592I-748400J-748400D01*
G01*
X230634437Y213814437D02*
X229990000Y213170000D01*
X230674437Y222315562D02*
X230030000Y222960000D01*
X230674436Y222315562D02*
G75*
G02*
X230830006Y221940000I-375536J-375562D01*
G01*
X230694437Y137834437D02*
X230050000Y137190000D01*
X230734437Y146335562D02*
X230090000Y146980000D01*
X230734436Y146335562D02*
G75*
G02*
X230890006Y145960000I-375536J-375562D01*
G01*
X230790000Y214551593D02*
X230790000Y214190000D01*
X230790000Y214190000D02*
G75*
G02*
X230634431Y213814443I-531100J0D01*
G01*
X230830000Y221578406D02*
G75*
G02*
X230520002Y220829998I-1058400J-6D01*
G01*
X230830000Y221578406D02*
X230830000Y221940000D01*
X230850000Y138571593D02*
X230850000Y138210000D01*
X230850000Y138210000D02*
G75*
G02*
X230694431Y137834443I-531100J0D01*
G01*
X230890000Y145598406D02*
G75*
G02*
X230580002Y144849998I-1058400J-6D01*
G01*
X230890000Y145598406D02*
X230890000Y145960000D01*
X231472493Y225312493D02*
G75*
G02*
X232225571Y225624444I753107J-753093D01*
G01*
X231532493Y149332493D02*
G75*
G02*
X232285571Y149644444I753107J-753093D01*
G01*
X231777956Y216428715D02*
G75*
G02*
X232240035Y215313240I-1115456J-1115515D01*
G01*
X231787956Y219701284D02*
G75*
G02*
X230263896Y219070017I-1524056J1524116D01*
G01*
X231837956Y140448715D02*
G75*
G02*
X232300035Y139333240I-1115456J-1115515D01*
G01*
X231847956Y143721284D02*
G75*
G02*
X230323896Y143090017I-1524056J1524116D01*
G01*
X232185571Y210505572D02*
G75*
G02*
X231432505Y210817518I29J1065028D01*
G01*
X232240000Y213952721D02*
X232240000Y215313240D01*
X232245571Y134525572D02*
G75*
G02*
X231492505Y134837518I29J1065028D01*
G01*
X232250000Y222177278D02*
X232250000Y220816759D01*
X232250000Y222177278D02*
G75*
G02*
X232775984Y223447128I1795800J22D01*
G01*
X232250000Y220816759D02*
G75*
G02*
X231787931Y219701309I-1577500J41D01*
G01*
X232300000Y137972721D02*
X232300000Y139333240D01*
X232310000Y146197278D02*
X232310000Y144836759D01*
X232310000Y146197278D02*
G75*
G02*
X232835984Y147467128I1795800J22D01*
G01*
X232310000Y144836759D02*
G75*
G02*
X231847931Y143721309I-1577500J41D01*
G01*
X232765987Y212682875D02*
G75*
G02*
X232240005Y213952721I1269813J1269825D01*
G01*
X232802909Y209888234D02*
X232185571Y210505571D01*
X232825987Y136702875D02*
G75*
G02*
X232300005Y137972721I1269813J1269825D01*
G01*
X232842909Y226241765D02*
X232225571Y225624428D01*
X232862909Y133908234D02*
X232245571Y134525571D01*
X232902909Y150261765D02*
X232285571Y149644428D01*
X234181768Y211267093D02*
X232765987Y212682875D01*
X234191768Y224862906D02*
X232775987Y223447125D01*
X234241768Y135287093D02*
X232825987Y136702875D01*
X234251768Y148882906D02*
X232835987Y147467125D01*
D11*
%TO.C,U7*%
G36*
X47192297Y51567703D02*
G01*
X46177704Y51567703D01*
X46177704Y52012296D01*
X47192297Y52012296D01*
X47192297Y51567703D01*
G37*
G36*
X47192297Y51067706D02*
G01*
X46177704Y51067706D01*
X46177704Y51512296D01*
X47192297Y51512296D01*
X47192297Y51067706D01*
G37*
G36*
X47192297Y50567703D02*
G01*
X46177704Y50567703D01*
X46177704Y51012293D01*
X47192297Y51012293D01*
X47192297Y50567703D01*
G37*
G36*
X47192297Y50067707D02*
G01*
X46177704Y50067707D01*
X46177704Y50512297D01*
X47192297Y50512297D01*
X47192297Y50067707D01*
G37*
G36*
X47192297Y49567704D02*
G01*
X46177704Y49567704D01*
X46177704Y50012297D01*
X47192297Y50012297D01*
X47192297Y49567704D01*
G37*
G36*
X47192297Y49067704D02*
G01*
X46177704Y49067704D01*
X46177704Y49512297D01*
X47192297Y49512297D01*
X47192297Y49067704D01*
G37*
G36*
X47631982Y52007703D02*
G01*
X47187391Y52007703D01*
X47187391Y53022296D01*
X47631982Y53022296D01*
X47631982Y52007703D01*
G37*
G36*
X47631982Y48057704D02*
G01*
X47187391Y48057704D01*
X47187391Y49072297D01*
X47631982Y49072297D01*
X47631982Y48057704D01*
G37*
G36*
X47685300Y49113800D02*
G01*
X47233800Y49113800D01*
X47233800Y51966200D01*
X47685300Y51966200D01*
X47685300Y49113800D01*
G37*
G36*
X48132107Y52007703D02*
G01*
X47687516Y52007703D01*
X47687516Y53022296D01*
X48132107Y53022296D01*
X48132107Y52007703D01*
G37*
G36*
X48132107Y48057704D02*
G01*
X47687516Y48057704D01*
X47687516Y49072297D01*
X48132107Y49072297D01*
X48132107Y48057704D01*
G37*
G36*
X48472700Y49113800D02*
G01*
X48059900Y49113800D01*
X48059900Y51966200D01*
X48472700Y51966200D01*
X48472700Y49113800D01*
G37*
G36*
X48632232Y52007703D02*
G01*
X48187641Y52007703D01*
X48187641Y53022296D01*
X48632232Y53022296D01*
X48632232Y52007703D01*
G37*
G36*
X48632232Y48057704D02*
G01*
X48187641Y48057704D01*
X48187641Y49072297D01*
X48632232Y49072297D01*
X48632232Y48057704D01*
G37*
G36*
X49132359Y52007703D02*
G01*
X48687768Y52007703D01*
X48687768Y53022296D01*
X49132359Y53022296D01*
X49132359Y52007703D01*
G37*
G36*
X49132359Y48057704D02*
G01*
X48687768Y48057704D01*
X48687768Y49072297D01*
X49132359Y49072297D01*
X49132359Y48057704D01*
G37*
G36*
X49260100Y49113800D02*
G01*
X48847300Y49113800D01*
X48847300Y51966200D01*
X49260100Y51966200D01*
X49260100Y49113800D01*
G37*
G36*
X49632484Y52007703D02*
G01*
X49187893Y52007703D01*
X49187893Y53022296D01*
X49632484Y53022296D01*
X49632484Y52007703D01*
G37*
G36*
X49632484Y48057704D02*
G01*
X49187893Y48057704D01*
X49187893Y49072297D01*
X49632484Y49072297D01*
X49632484Y48057704D01*
G37*
G36*
X50086200Y51514700D02*
G01*
X47233800Y51514700D01*
X47233800Y51966200D01*
X50086200Y51966200D01*
X50086200Y51514700D01*
G37*
G36*
X50086200Y50727300D02*
G01*
X47233800Y50727300D01*
X47233800Y51140100D01*
X50086200Y51140100D01*
X50086200Y50727300D01*
G37*
G36*
X50086200Y49939900D02*
G01*
X47233800Y49939900D01*
X47233800Y50352700D01*
X50086200Y50352700D01*
X50086200Y49939900D01*
G37*
G36*
X50086200Y49113800D02*
G01*
X47233800Y49113800D01*
X47233800Y49565300D01*
X50086200Y49565300D01*
X50086200Y49113800D01*
G37*
G36*
X50086200Y49113800D02*
G01*
X49634700Y49113800D01*
X49634700Y51966200D01*
X50086200Y51966200D01*
X50086200Y49113800D01*
G37*
G36*
X50132609Y52007703D02*
G01*
X49688018Y52007703D01*
X49688018Y53022296D01*
X50132609Y53022296D01*
X50132609Y52007703D01*
G37*
G36*
X50132609Y48057704D02*
G01*
X49688018Y48057704D01*
X49688018Y49072297D01*
X50132609Y49072297D01*
X50132609Y48057704D01*
G37*
G36*
X51142296Y51567703D02*
G01*
X50127703Y51567703D01*
X50127703Y52012296D01*
X51142296Y52012296D01*
X51142296Y51567703D01*
G37*
G36*
X51142296Y51067703D02*
G01*
X50127703Y51067703D01*
X50127703Y51512296D01*
X51142296Y51512296D01*
X51142296Y51067703D01*
G37*
G36*
X51142296Y50567703D02*
G01*
X50127703Y50567703D01*
X50127703Y51012293D01*
X51142296Y51012293D01*
X51142296Y50567703D01*
G37*
G36*
X51142296Y50067707D02*
G01*
X50127703Y50067707D01*
X50127703Y50512297D01*
X51142296Y50512297D01*
X51142296Y50067707D01*
G37*
G36*
X51142296Y49567704D02*
G01*
X50127703Y49567704D01*
X50127703Y50012294D01*
X51142296Y50012294D01*
X51142296Y49567704D01*
G37*
G36*
X51142296Y49067704D02*
G01*
X50127703Y49067704D01*
X50127703Y49512297D01*
X51142296Y49512297D01*
X51142296Y49067704D01*
G37*
%TO.C,U13*%
G36*
X83153700Y144310700D02*
G01*
X82366300Y144310700D01*
X82366300Y144539300D01*
X83153700Y144539300D01*
X83153700Y144310700D01*
G37*
%TO.C,U69*%
G36*
X46882297Y22467703D02*
G01*
X45867704Y22467703D01*
X45867704Y22912296D01*
X46882297Y22912296D01*
X46882297Y22467703D01*
G37*
G36*
X46882297Y21967706D02*
G01*
X45867704Y21967706D01*
X45867704Y22412296D01*
X46882297Y22412296D01*
X46882297Y21967706D01*
G37*
G36*
X46882297Y21467703D02*
G01*
X45867704Y21467703D01*
X45867704Y21912293D01*
X46882297Y21912293D01*
X46882297Y21467703D01*
G37*
G36*
X46882297Y20967707D02*
G01*
X45867704Y20967707D01*
X45867704Y21412297D01*
X46882297Y21412297D01*
X46882297Y20967707D01*
G37*
G36*
X46882297Y20467704D02*
G01*
X45867704Y20467704D01*
X45867704Y20912297D01*
X46882297Y20912297D01*
X46882297Y20467704D01*
G37*
G36*
X46882297Y19967704D02*
G01*
X45867704Y19967704D01*
X45867704Y20412297D01*
X46882297Y20412297D01*
X46882297Y19967704D01*
G37*
G36*
X47321982Y22907703D02*
G01*
X46877391Y22907703D01*
X46877391Y23922296D01*
X47321982Y23922296D01*
X47321982Y22907703D01*
G37*
G36*
X47321982Y18957704D02*
G01*
X46877391Y18957704D01*
X46877391Y19972297D01*
X47321982Y19972297D01*
X47321982Y18957704D01*
G37*
G36*
X47375300Y20013800D02*
G01*
X46923800Y20013800D01*
X46923800Y22866200D01*
X47375300Y22866200D01*
X47375300Y20013800D01*
G37*
G36*
X47822107Y22907703D02*
G01*
X47377516Y22907703D01*
X47377516Y23922296D01*
X47822107Y23922296D01*
X47822107Y22907703D01*
G37*
G36*
X47822107Y18957704D02*
G01*
X47377516Y18957704D01*
X47377516Y19972297D01*
X47822107Y19972297D01*
X47822107Y18957704D01*
G37*
G36*
X48162700Y20013800D02*
G01*
X47749900Y20013800D01*
X47749900Y22866200D01*
X48162700Y22866200D01*
X48162700Y20013800D01*
G37*
G36*
X48322232Y22907703D02*
G01*
X47877641Y22907703D01*
X47877641Y23922296D01*
X48322232Y23922296D01*
X48322232Y22907703D01*
G37*
G36*
X48322232Y18957704D02*
G01*
X47877641Y18957704D01*
X47877641Y19972297D01*
X48322232Y19972297D01*
X48322232Y18957704D01*
G37*
G36*
X48822359Y22907703D02*
G01*
X48377768Y22907703D01*
X48377768Y23922296D01*
X48822359Y23922296D01*
X48822359Y22907703D01*
G37*
G36*
X48822359Y18957704D02*
G01*
X48377768Y18957704D01*
X48377768Y19972297D01*
X48822359Y19972297D01*
X48822359Y18957704D01*
G37*
G36*
X48950100Y20013800D02*
G01*
X48537300Y20013800D01*
X48537300Y22866200D01*
X48950100Y22866200D01*
X48950100Y20013800D01*
G37*
G36*
X49322484Y22907703D02*
G01*
X48877893Y22907703D01*
X48877893Y23922296D01*
X49322484Y23922296D01*
X49322484Y22907703D01*
G37*
G36*
X49322484Y18957704D02*
G01*
X48877893Y18957704D01*
X48877893Y19972297D01*
X49322484Y19972297D01*
X49322484Y18957704D01*
G37*
G36*
X49776200Y22414700D02*
G01*
X46923800Y22414700D01*
X46923800Y22866200D01*
X49776200Y22866200D01*
X49776200Y22414700D01*
G37*
G36*
X49776200Y21627300D02*
G01*
X46923800Y21627300D01*
X46923800Y22040100D01*
X49776200Y22040100D01*
X49776200Y21627300D01*
G37*
G36*
X49776200Y20839900D02*
G01*
X46923800Y20839900D01*
X46923800Y21252700D01*
X49776200Y21252700D01*
X49776200Y20839900D01*
G37*
G36*
X49776200Y20013800D02*
G01*
X46923800Y20013800D01*
X46923800Y20465300D01*
X49776200Y20465300D01*
X49776200Y20013800D01*
G37*
G36*
X49776200Y20013800D02*
G01*
X49324700Y20013800D01*
X49324700Y22866200D01*
X49776200Y22866200D01*
X49776200Y20013800D01*
G37*
G36*
X49822609Y22907703D02*
G01*
X49378018Y22907703D01*
X49378018Y23922296D01*
X49822609Y23922296D01*
X49822609Y22907703D01*
G37*
G36*
X49822609Y18957704D02*
G01*
X49378018Y18957704D01*
X49378018Y19972297D01*
X49822609Y19972297D01*
X49822609Y18957704D01*
G37*
G36*
X50832296Y22467703D02*
G01*
X49817703Y22467703D01*
X49817703Y22912296D01*
X50832296Y22912296D01*
X50832296Y22467703D01*
G37*
G36*
X50832296Y21967703D02*
G01*
X49817703Y21967703D01*
X49817703Y22412296D01*
X50832296Y22412296D01*
X50832296Y21967703D01*
G37*
G36*
X50832296Y21467703D02*
G01*
X49817703Y21467703D01*
X49817703Y21912293D01*
X50832296Y21912293D01*
X50832296Y21467703D01*
G37*
G36*
X50832296Y20967707D02*
G01*
X49817703Y20967707D01*
X49817703Y21412297D01*
X50832296Y21412297D01*
X50832296Y20967707D01*
G37*
G36*
X50832296Y20467704D02*
G01*
X49817703Y20467704D01*
X49817703Y20912294D01*
X50832296Y20912294D01*
X50832296Y20467704D01*
G37*
G36*
X50832296Y19967704D02*
G01*
X49817703Y19967704D01*
X49817703Y20412297D01*
X50832296Y20412297D01*
X50832296Y19967704D01*
G37*
%TO.C,U5*%
G36*
X82883700Y214020700D02*
G01*
X82096300Y214020700D01*
X82096300Y214249300D01*
X82883700Y214249300D01*
X82883700Y214020700D01*
G37*
%TD*%
D12*
%TO.C,S1*%
X99210000Y107900000D03*
X99210000Y112000000D03*
X97610000Y112000000D03*
X97610000Y107900000D03*
%TD*%
D13*
%TO.C,C7*%
X57620000Y153570000D03*
X57620000Y154070000D03*
%TD*%
D14*
%TO.C,R81*%
X148950000Y137415000D03*
X148950000Y137925000D03*
%TD*%
D15*
%TO.C,RF_SW_1*%
X137433310Y205663209D03*
X137079756Y205309655D03*
X136726203Y204956102D03*
X136372649Y204602548D03*
D16*
X136386791Y203683310D03*
X136740345Y203329756D03*
X137093898Y202976203D03*
X137447452Y202622649D03*
D15*
X138352548Y202622649D03*
X138706102Y202976203D03*
X139059655Y203329756D03*
X139413209Y203683310D03*
D16*
X139427351Y204602548D03*
X139073797Y204956102D03*
X138720244Y205309655D03*
X138366690Y205663209D03*
D17*
X137900000Y204150000D03*
%TD*%
D18*
%TO.C,JP4*%
X70470000Y80880000D03*
X70470000Y78340000D03*
X70470000Y75800000D03*
%TD*%
D19*
%TO.C,U6*%
X22855000Y212600000D03*
X22855000Y212200000D03*
X22855000Y211800000D03*
X22855000Y211400000D03*
X22855000Y211000000D03*
X22855000Y210600000D03*
X22855000Y210200000D03*
X22855000Y209800000D03*
X22855000Y209400000D03*
X22855000Y209000000D03*
X22855000Y208600000D03*
X22855000Y208200000D03*
X22855000Y207800000D03*
X22855000Y207400000D03*
X22855000Y207000000D03*
X22855000Y206600000D03*
X22855000Y206200000D03*
X22855000Y205800000D03*
X22855000Y205400000D03*
D20*
X23700000Y204555000D03*
X24100000Y204555000D03*
X24500000Y204555000D03*
X24900000Y204555000D03*
X25300000Y204555000D03*
X25700000Y204555000D03*
X26100000Y204555000D03*
X26500000Y204555000D03*
X26900000Y204555000D03*
X27300000Y204555000D03*
X27700000Y204555000D03*
X28100000Y204555000D03*
X28500000Y204555000D03*
X28900000Y204555000D03*
X29300000Y204555000D03*
X29700000Y204555000D03*
X30100000Y204555000D03*
X30500000Y204555000D03*
X30900000Y204555000D03*
D19*
X31745000Y205400000D03*
X31745000Y205800000D03*
X31745000Y206200000D03*
X31745000Y206600000D03*
X31745000Y207000000D03*
X31745000Y207400000D03*
X31745000Y207800000D03*
X31745000Y208200000D03*
X31745000Y208600000D03*
X31745000Y209000000D03*
X31745000Y209400000D03*
X31745000Y209800000D03*
X31745000Y210200000D03*
X31745000Y210600000D03*
X31745000Y211000000D03*
X31745000Y211400000D03*
X31745000Y211800000D03*
X31745000Y212200000D03*
X31745000Y212600000D03*
D20*
X30900000Y213445000D03*
X30500000Y213445000D03*
X30100000Y213445000D03*
X29700000Y213445000D03*
X29300000Y213445000D03*
X28900000Y213445000D03*
X28500000Y213445000D03*
X28100000Y213445000D03*
X27700000Y213445000D03*
X27300000Y213445000D03*
X26900000Y213445000D03*
X26500000Y213445000D03*
X26100000Y213445000D03*
X25700000Y213445000D03*
X25300000Y213445000D03*
X24900000Y213445000D03*
X24500000Y213445000D03*
X24100000Y213445000D03*
X23700000Y213445000D03*
D21*
X27300000Y209000000D03*
%TD*%
D22*
%TO.C,C342*%
X92218653Y30785675D03*
X92218653Y29485675D03*
%TD*%
D23*
%TO.C,J21*%
X76940000Y156126231D03*
X76940000Y157396231D03*
D24*
X75670000Y155491231D03*
X75670000Y158031231D03*
X78210000Y155491231D03*
X78210000Y158031231D03*
%TD*%
D25*
%TO.C,R95*%
X31765000Y47780000D03*
X31255000Y47780000D03*
%TD*%
D18*
%TO.C,JP15*%
X209720000Y52510000D03*
X209720000Y49970000D03*
X209720000Y47430000D03*
%TD*%
D26*
%TO.C,C70*%
X137755902Y232075727D03*
X137402348Y231722173D03*
%TD*%
D22*
%TO.C,C320*%
X207240000Y290770000D03*
X207240000Y289470000D03*
%TD*%
D27*
%TO.C,J22*%
X82730000Y136850000D03*
D28*
X80190000Y139390000D03*
X80190000Y134310000D03*
X85270000Y134310000D03*
X85270000Y139390000D03*
%TD*%
D29*
%TO.C,J54*%
X142700000Y121170000D03*
D28*
X139107898Y121170000D03*
X142700000Y117577898D03*
X146292102Y121170000D03*
X142700000Y124762102D03*
%TD*%
D30*
%TO.C,R129*%
X94600000Y32135000D03*
X94600000Y31625000D03*
%TD*%
D13*
%TO.C,C303*%
X209450000Y54520000D03*
X209450000Y55020000D03*
%TD*%
D31*
%TO.C,C248*%
X137303223Y153256777D03*
X137656777Y152903223D03*
%TD*%
D32*
%TO.C,C260*%
X99600987Y44701156D03*
X99600987Y46001156D03*
%TD*%
D33*
%TO.C,R151*%
X154215000Y37430000D03*
X154725000Y37430000D03*
%TD*%
D34*
%TO.C,C18*%
X92830000Y96130000D03*
X92830000Y95630000D03*
%TD*%
D35*
%TO.C,SV1*%
X48760000Y127410000D03*
X51300000Y127410000D03*
X48760000Y124870000D03*
X51300000Y124870000D03*
X48760000Y122330000D03*
X51300000Y122330000D03*
X48760000Y119790000D03*
X51300000Y119790000D03*
X48760000Y117250000D03*
X51300000Y117250000D03*
X48760000Y114710000D03*
X51300000Y114710000D03*
X48760000Y112170000D03*
X51300000Y112170000D03*
X48760000Y109630000D03*
X51300000Y109630000D03*
X48760000Y107090000D03*
X51300000Y107090000D03*
X48760000Y104550000D03*
X51300000Y104550000D03*
%TD*%
D13*
%TO.C,C39*%
X63545000Y213920000D03*
X63545000Y214420000D03*
%TD*%
D36*
%TO.C,C175*%
X134776902Y126079094D03*
X134423348Y126432648D03*
%TD*%
%TO.C,C212*%
X237416705Y157862819D03*
X237063151Y158216373D03*
%TD*%
D31*
%TO.C,C128*%
X139091804Y202590664D03*
X139445358Y202237110D03*
%TD*%
D37*
%TO.C,C41*%
X65995000Y214480000D03*
X66495000Y214480000D03*
%TD*%
D38*
%TO.C,X54*%
X246800000Y98230000D03*
X246800000Y100770000D03*
%TD*%
D14*
%TO.C,R54*%
X17465000Y185040000D03*
X17465000Y185550000D03*
%TD*%
D39*
%TO.C,U38*%
X165485394Y237658037D03*
X163114606Y240028825D03*
%TD*%
D38*
%TO.C,X17*%
X5520000Y157440000D03*
X5520000Y154900000D03*
%TD*%
D22*
%TO.C,C318*%
X167380000Y290380000D03*
X167380000Y289080000D03*
%TD*%
D40*
%TO.C,UNK_HOLE_6*%
X116000000Y114000000D03*
%TD*%
D30*
%TO.C,R108*%
X34400000Y17385000D03*
X34400000Y16875000D03*
%TD*%
D14*
%TO.C,R127*%
X87500000Y43115000D03*
X87500000Y43625000D03*
%TD*%
D33*
%TO.C,R160*%
X87365000Y183440000D03*
X87875000Y183440000D03*
%TD*%
D41*
%TO.C,RF_SW_3*%
X137673209Y230626690D03*
X137319655Y230980244D03*
X136966102Y231333797D03*
X136612548Y231687351D03*
D15*
X135693310Y231673209D03*
X135339756Y231319655D03*
X134986203Y230966102D03*
X134632649Y230612548D03*
D41*
X134632649Y229707452D03*
X134986203Y229353898D03*
X135339756Y229000345D03*
X135693310Y228646791D03*
D15*
X136612548Y228632649D03*
X136966102Y228986203D03*
X137319655Y229339756D03*
X137673209Y229693310D03*
D42*
X136160000Y230160000D03*
%TD*%
D22*
%TO.C,C58*%
X55100000Y135620000D03*
X55100000Y134320000D03*
%TD*%
D43*
%TO.C,C40*%
X65725000Y215620000D03*
X65225000Y215620000D03*
%TD*%
D33*
%TO.C,R90*%
X64395000Y47820000D03*
X64905000Y47820000D03*
%TD*%
D30*
%TO.C,R44*%
X47960000Y24945000D03*
X47960000Y24435000D03*
%TD*%
D37*
%TO.C,C64*%
X72360000Y144890000D03*
X72860000Y144890000D03*
%TD*%
D22*
%TO.C,C266*%
X162790000Y30560000D03*
X162790000Y29260000D03*
%TD*%
D14*
%TO.C,R173*%
X63500000Y156495000D03*
X63500000Y157005000D03*
%TD*%
D29*
%TO.C,J41*%
X234310000Y122860000D03*
D28*
X230717898Y122860000D03*
X234310000Y119267898D03*
X237902102Y122860000D03*
X234310000Y126452102D03*
%TD*%
D44*
%TO.C,X3*%
X112481303Y55000128D03*
X115021303Y55000128D03*
X117561303Y55000128D03*
%TD*%
D43*
%TO.C,C22*%
X62330000Y94570000D03*
X61830000Y94570000D03*
%TD*%
D45*
%TO.C,U63*%
X246401121Y200772334D03*
X248771909Y203143122D03*
%TD*%
D16*
%TO.C,RF_SW_2*%
X162336791Y205383310D03*
X162690345Y205029756D03*
X163043898Y204676203D03*
X163397452Y204322649D03*
D46*
X164316690Y204336791D03*
X164670244Y204690345D03*
X165023797Y205043898D03*
X165377351Y205397452D03*
D16*
X165377351Y206302548D03*
X165023797Y206656102D03*
X164670244Y207009655D03*
X164316690Y207363209D03*
D46*
X163397452Y207377351D03*
X163043898Y207023797D03*
X162690345Y206670244D03*
X162336791Y206316690D03*
D47*
X163850000Y205850000D03*
%TD*%
D26*
%TO.C,C121*%
X160501289Y147307452D03*
X160147735Y146953898D03*
%TD*%
D30*
%TO.C,R85*%
X61590000Y47395000D03*
X61590000Y46885000D03*
%TD*%
D33*
%TO.C,R104*%
X64285000Y18070000D03*
X64795000Y18070000D03*
%TD*%
D43*
%TO.C,C286*%
X138630000Y43060000D03*
X138130000Y43060000D03*
%TD*%
D36*
%TO.C,C125*%
X163590920Y234365648D03*
X163237366Y234719202D03*
%TD*%
D13*
%TO.C,C302*%
X204350000Y54470000D03*
X204350000Y54970000D03*
%TD*%
D48*
%TO.C,C159*%
X4600000Y235000000D03*
X7400000Y235000000D03*
%TD*%
D22*
%TO.C,C335*%
X97930000Y137230000D03*
X97930000Y135930000D03*
%TD*%
D38*
%TO.C,X10*%
X5730000Y165730000D03*
X5730000Y163190000D03*
%TD*%
D37*
%TO.C,C297*%
X154370000Y36180000D03*
X154870000Y36180000D03*
%TD*%
D29*
%TO.C,J33*%
X218650000Y237010000D03*
D28*
X215057898Y237010000D03*
X218650000Y233417898D03*
X222242102Y237010000D03*
X218650000Y240602102D03*
%TD*%
D22*
%TO.C,C314*%
X27149218Y157577443D03*
X27149218Y156277443D03*
%TD*%
D37*
%TO.C,C2*%
X64270000Y157080000D03*
X64770000Y157080000D03*
%TD*%
%TO.C,C61*%
X75310000Y144930000D03*
X75810000Y144930000D03*
%TD*%
D33*
%TO.C,R31*%
X50925000Y213990000D03*
X51435000Y213990000D03*
%TD*%
D25*
%TO.C,R11*%
X47030000Y172525000D03*
X46520000Y172525000D03*
%TD*%
D13*
%TO.C,C4*%
X55870000Y153220000D03*
X55870000Y153720000D03*
%TD*%
D29*
%TO.C,J29*%
X157340000Y198890000D03*
D28*
X153747898Y198890000D03*
X157340000Y195297898D03*
X160932102Y198890000D03*
X157340000Y202482102D03*
%TD*%
D13*
%TO.C,C19*%
X92820000Y98170000D03*
X92820000Y98670000D03*
%TD*%
D43*
%TO.C,C282*%
X158430000Y43160000D03*
X157930000Y43160000D03*
%TD*%
D13*
%TO.C,C27*%
X87097712Y107987440D03*
X87097712Y108487440D03*
%TD*%
D36*
%TO.C,C236*%
X210955283Y202513101D03*
X210601729Y202866655D03*
%TD*%
D26*
%TO.C,C71*%
X134566483Y228935517D03*
X134212929Y228581963D03*
%TD*%
D49*
%TO.C,X53*%
X5330000Y109760000D03*
X5330000Y105360000D03*
D50*
X8330000Y109160000D03*
X8330000Y108360000D03*
X8330000Y107560000D03*
X8330000Y106760000D03*
X8330000Y105960000D03*
D51*
X2330000Y103110000D03*
X2330000Y112010000D03*
D52*
X8230000Y112010000D03*
X8230000Y103110000D03*
%TD*%
D26*
%TO.C,C228*%
X242039620Y202576414D03*
X241686066Y202222860D03*
%TD*%
D33*
%TO.C,R84*%
X-155000Y-46550000D03*
X355000Y-46550000D03*
%TD*%
D37*
%TO.C,C271*%
X93520000Y32090000D03*
X94020000Y32090000D03*
%TD*%
D36*
%TO.C,C161*%
X164409183Y158915219D03*
X164055629Y159268773D03*
%TD*%
D29*
%TO.C,J39*%
X245550000Y225610000D03*
D28*
X241957898Y225610000D03*
X245550000Y222017898D03*
X249142102Y225610000D03*
X245550000Y229202102D03*
%TD*%
D43*
%TO.C,C42*%
X65730000Y216070000D03*
X65230000Y216070000D03*
%TD*%
D26*
%TO.C,C160*%
X166070264Y126626261D03*
X165716710Y126272707D03*
%TD*%
D13*
%TO.C,C33*%
X61408978Y99994234D03*
X61408978Y100494234D03*
%TD*%
D22*
%TO.C,C259*%
X102485265Y30822834D03*
X102485265Y29522834D03*
%TD*%
D34*
%TO.C,C141*%
X78670000Y213970000D03*
X78670000Y213470000D03*
%TD*%
D53*
%TO.C,U47*%
X204190834Y160148003D03*
X201820046Y157777215D03*
%TD*%
D25*
%TO.C,R140*%
X69285000Y169845000D03*
X68775000Y169845000D03*
%TD*%
D32*
%TO.C,C344*%
X119957131Y44585746D03*
X119957131Y45885746D03*
%TD*%
D14*
%TO.C,R26*%
X55940000Y200885000D03*
X55940000Y201395000D03*
%TD*%
D33*
%TO.C,R155*%
X35665000Y165290000D03*
X36175000Y165290000D03*
%TD*%
D25*
%TO.C,R20*%
X58475000Y140450000D03*
X57965000Y140450000D03*
%TD*%
D37*
%TO.C,C180*%
X62370000Y172240000D03*
X62870000Y172240000D03*
%TD*%
%TO.C,C30*%
X70659368Y115034618D03*
X71159368Y115034618D03*
%TD*%
D31*
%TO.C,C126*%
X136011082Y205677742D03*
X136364636Y205324188D03*
%TD*%
D30*
%TO.C,R57*%
X147865000Y137920000D03*
X147865000Y137410000D03*
%TD*%
D26*
%TO.C,C147*%
X210004523Y231128927D03*
X209650969Y230775373D03*
%TD*%
D14*
%TO.C,R124*%
X117450000Y43015000D03*
X117450000Y43525000D03*
%TD*%
D13*
%TO.C,C256*%
X45255221Y22173984D03*
X45255221Y22673984D03*
%TD*%
D54*
%TO.C,R37*%
X53310000Y152990000D03*
X54310000Y152990000D03*
%TD*%
D14*
%TO.C,R30*%
X61060000Y200955000D03*
X61060000Y201465000D03*
%TD*%
D55*
%TO.C,XTAL1*%
X90580000Y105702500D03*
X90580000Y103797500D03*
%TD*%
D31*
%TO.C,C253*%
X135131910Y128751123D03*
X135485464Y128397569D03*
%TD*%
D56*
%TO.C,U73*%
X102802603Y46219359D03*
X102802603Y45569359D03*
X102802603Y44919359D03*
X102802603Y44269359D03*
X107202603Y44269359D03*
X107202603Y44919359D03*
X107202603Y45569359D03*
X107202603Y46219359D03*
%TD*%
D36*
%TO.C,C229*%
X211475027Y202993357D03*
X211121473Y203346911D03*
%TD*%
D14*
%TO.C,R135*%
X147320000Y43115000D03*
X147320000Y43625000D03*
%TD*%
D44*
%TO.C,X_14*%
X69130000Y29700000D03*
X71670000Y29700000D03*
%TD*%
D13*
%TO.C,C9*%
X59870000Y153520000D03*
X59870000Y154020000D03*
%TD*%
D15*
%TO.C,RF_SW_13*%
X136583310Y128713209D03*
X136229756Y128359655D03*
X135876203Y128006102D03*
X135522649Y127652548D03*
D16*
X135536791Y126733310D03*
X135890345Y126379756D03*
X136243898Y126026203D03*
X136597452Y125672649D03*
D15*
X137502548Y125672649D03*
X137856102Y126026203D03*
X138209655Y126379756D03*
X138563209Y126733310D03*
D16*
X138577351Y127652548D03*
X138223797Y128006102D03*
X137870244Y128359655D03*
X137516690Y128713209D03*
D17*
X137050000Y127200000D03*
%TD*%
D57*
%TO.C,C166*%
X214993223Y205643223D03*
X215346777Y205996777D03*
%TD*%
D58*
%TO.C,U$3*%
X82720000Y147070000D03*
X101135000Y147070000D03*
%TD*%
D44*
%TO.C,X_9*%
X54130000Y14700000D03*
X56670000Y14700000D03*
%TD*%
D59*
%TO.C,J42*%
X233130000Y162210000D03*
D28*
X233130000Y158617898D03*
X236722102Y162210000D03*
X233130000Y165802102D03*
X229537898Y162210000D03*
%TD*%
D37*
%TO.C,C295*%
X154370000Y35480000D03*
X154870000Y35480000D03*
%TD*%
D34*
%TO.C,C36*%
X64530000Y158505000D03*
X64530000Y158005000D03*
%TD*%
D36*
%TO.C,C198*%
X237299136Y233821010D03*
X236945582Y234174564D03*
%TD*%
D31*
%TO.C,C165*%
X214761360Y202424664D03*
X215114914Y202071110D03*
%TD*%
D37*
%TO.C,C15*%
X58345000Y163855000D03*
X58845000Y163855000D03*
%TD*%
D57*
%TO.C,C67*%
X134730294Y232773723D03*
X135083848Y233127277D03*
%TD*%
D60*
%TO.C,C77*%
X107380000Y39040000D03*
X107380000Y37140000D03*
%TD*%
D25*
%TO.C,R22*%
X59010000Y134175000D03*
X58500000Y134175000D03*
%TD*%
D31*
%TO.C,C217*%
X211703476Y124462873D03*
X212057030Y124109319D03*
%TD*%
D30*
%TO.C,R65*%
X8335000Y187840000D03*
X8335000Y187330000D03*
%TD*%
D25*
%TO.C,R105*%
X64785000Y26330000D03*
X64275000Y26330000D03*
%TD*%
D22*
%TO.C,C331*%
X99504909Y227298375D03*
X99504909Y225998375D03*
%TD*%
D31*
%TO.C,C249*%
X240682819Y233280389D03*
X241036373Y232926835D03*
%TD*%
D14*
%TO.C,R136*%
X137520000Y43065000D03*
X137520000Y43575000D03*
%TD*%
D53*
%TO.C,U48*%
X209141475Y164898644D03*
X206770687Y162527856D03*
%TD*%
D34*
%TO.C,L8*%
X73310000Y145495000D03*
X73310000Y144945000D03*
%TD*%
D37*
%TO.C,C268*%
X78150000Y144950000D03*
X78650000Y144950000D03*
%TD*%
D38*
%TO.C,X4*%
X246530000Y60450000D03*
X246530000Y62990000D03*
%TD*%
%TO.C,X55*%
X4950000Y60250000D03*
X4950000Y57710000D03*
%TD*%
D44*
%TO.C,X_8*%
X39430000Y59450000D03*
X41970000Y59450000D03*
%TD*%
D56*
%TO.C,U81*%
X152644096Y46189700D03*
X152644096Y45539700D03*
X152644096Y44889700D03*
X152644096Y44239700D03*
X157044096Y44239700D03*
X157044096Y44889700D03*
X157044096Y45539700D03*
X157044096Y46189700D03*
%TD*%
D29*
%TO.C,J43*%
X245460000Y150020000D03*
D28*
X241867898Y150020000D03*
X245460000Y146427898D03*
X249052102Y150020000D03*
X245460000Y153612102D03*
%TD*%
D13*
%TO.C,C10*%
X60395000Y153520000D03*
X60395000Y154020000D03*
%TD*%
D37*
%TO.C,C1*%
X64270000Y156430000D03*
X64770000Y156430000D03*
%TD*%
D36*
%TO.C,C197*%
X240425677Y230709254D03*
X240072123Y231062808D03*
%TD*%
D61*
%TO.C,OPA_3*%
X60950000Y19380600D03*
X61600000Y19380600D03*
X62250000Y19380600D03*
X62900000Y19380600D03*
X63550000Y19380600D03*
X64200000Y19380600D03*
X64850000Y19380600D03*
X64850000Y25019400D03*
X64200000Y25019400D03*
X63550000Y25019400D03*
X62900000Y25019400D03*
X62250000Y25019400D03*
X61600000Y25019400D03*
X60950000Y25019400D03*
%TD*%
D57*
%TO.C,C250*%
X133996504Y157412326D03*
X134350058Y157765880D03*
%TD*%
D14*
%TO.C,R33*%
X64835000Y214195000D03*
X64835000Y214705000D03*
%TD*%
D31*
%TO.C,C163*%
X211692951Y205521155D03*
X212046505Y205167601D03*
%TD*%
D44*
%TO.C,X22*%
X181670000Y276600000D03*
X179130000Y276600000D03*
%TD*%
D37*
%TO.C,L26*%
X79125000Y214040000D03*
X79675000Y214040000D03*
%TD*%
D62*
%TO.C,U42*%
X42180000Y190780000D03*
X43180000Y190780000D03*
X44180000Y190780000D03*
X45180000Y190780000D03*
X46180000Y190780000D03*
X47180000Y190780000D03*
X48180000Y190780000D03*
X49180000Y190780000D03*
X50180000Y190780000D03*
X51180000Y190780000D03*
X52180000Y190780000D03*
X53180000Y190780000D03*
X54180000Y190780000D03*
X55180000Y190780000D03*
X56180000Y190780000D03*
X57180000Y190780000D03*
X42180000Y189780000D03*
X43180000Y189780000D03*
X44180000Y189780000D03*
X45180000Y189780000D03*
X46180000Y189780000D03*
X47180000Y189780000D03*
X48180000Y189780000D03*
X49180000Y189780000D03*
X50180000Y189780000D03*
X51180000Y189780000D03*
X52180000Y189780000D03*
X53180000Y189780000D03*
X54180000Y189780000D03*
X55180000Y189780000D03*
X56180000Y189780000D03*
X57180000Y189780000D03*
X42180000Y188780000D03*
X43180000Y188780000D03*
X44180000Y188780000D03*
X45180000Y188780000D03*
X46180000Y188780000D03*
X47180000Y188780000D03*
X48180000Y188780000D03*
X49180000Y188780000D03*
X50180000Y188780000D03*
X51180000Y188780000D03*
X52180000Y188780000D03*
X53180000Y188780000D03*
X54180000Y188780000D03*
X55180000Y188780000D03*
X56180000Y188780000D03*
X57180000Y188780000D03*
X42180000Y187780000D03*
X43180000Y187780000D03*
X44180000Y187780000D03*
X45180000Y187780000D03*
X46180000Y187780000D03*
X47180000Y187780000D03*
X48180000Y187780000D03*
X49180000Y187780000D03*
X50180000Y187780000D03*
X51180000Y187780000D03*
X52180000Y187780000D03*
X53180000Y187780000D03*
X54180000Y187780000D03*
X55180000Y187780000D03*
X56180000Y187780000D03*
X57180000Y187780000D03*
X42180000Y186780000D03*
X43180000Y186780000D03*
X44180000Y186780000D03*
X45180000Y186780000D03*
X46180000Y186780000D03*
X47180000Y186780000D03*
X48180000Y186780000D03*
X49180000Y186780000D03*
X50180000Y186780000D03*
X51180000Y186780000D03*
X52180000Y186780000D03*
X53180000Y186780000D03*
X54180000Y186780000D03*
X55180000Y186780000D03*
X56180000Y186780000D03*
X57180000Y186780000D03*
X42180000Y185780000D03*
X43180000Y185780000D03*
X44180000Y185780000D03*
X45180000Y185780000D03*
X46180000Y185780000D03*
X47180000Y185780000D03*
X48180000Y185780000D03*
X49180000Y185780000D03*
X50180000Y185780000D03*
X51180000Y185780000D03*
X52180000Y185780000D03*
X53180000Y185780000D03*
X54180000Y185780000D03*
X55180000Y185780000D03*
X56180000Y185780000D03*
X57180000Y185780000D03*
X42180000Y184780000D03*
X43180000Y184780000D03*
X44180000Y184780000D03*
X45180000Y184780000D03*
X46180000Y184780000D03*
X47180000Y184780000D03*
X48180000Y184780000D03*
X49180000Y184780000D03*
X50180000Y184780000D03*
X51180000Y184780000D03*
X52180000Y184780000D03*
X53180000Y184780000D03*
X54180000Y184780000D03*
X55180000Y184780000D03*
X56180000Y184780000D03*
X57180000Y184780000D03*
X42180000Y183780000D03*
X43180000Y183780000D03*
X44180000Y183780000D03*
X45180000Y183780000D03*
X46180000Y183780000D03*
X47180000Y183780000D03*
X48180000Y183780000D03*
X49180000Y183780000D03*
X50180000Y183780000D03*
X51180000Y183780000D03*
X52180000Y183780000D03*
X53180000Y183780000D03*
X54180000Y183780000D03*
X55180000Y183780000D03*
X56180000Y183780000D03*
X57180000Y183780000D03*
X42180000Y182780000D03*
X43180000Y182780000D03*
X44180000Y182780000D03*
X45180000Y182780000D03*
X46180000Y182780000D03*
X47180000Y182780000D03*
X48180000Y182780000D03*
X49180000Y182780000D03*
X50180000Y182780000D03*
X51180000Y182780000D03*
X52180000Y182780000D03*
X53180000Y182780000D03*
X54180000Y182780000D03*
X55180000Y182780000D03*
X56180000Y182780000D03*
X57180000Y182780000D03*
X42180000Y181780000D03*
X43180000Y181780000D03*
X44180000Y181780000D03*
X45180000Y181780000D03*
X46180000Y181780000D03*
X47180000Y181780000D03*
X48180000Y181780000D03*
X49180000Y181780000D03*
X50180000Y181780000D03*
X51180000Y181780000D03*
X52180000Y181780000D03*
X53180000Y181780000D03*
X54180000Y181780000D03*
X55180000Y181780000D03*
X56180000Y181780000D03*
X57180000Y181780000D03*
X42180000Y180780000D03*
X43180000Y180780000D03*
X44180000Y180780000D03*
X45180000Y180780000D03*
X46180000Y180780000D03*
X47180000Y180780000D03*
X48180000Y180780000D03*
X49180000Y180780000D03*
X50180000Y180780000D03*
X51180000Y180780000D03*
X52180000Y180780000D03*
X53180000Y180780000D03*
X54180000Y180780000D03*
X55180000Y180780000D03*
X56180000Y180780000D03*
X57180000Y180780000D03*
X42180000Y179780000D03*
X43180000Y179780000D03*
X44180000Y179780000D03*
X45180000Y179780000D03*
X46180000Y179780000D03*
X47180000Y179780000D03*
X48180000Y179780000D03*
X49180000Y179780000D03*
X50180000Y179780000D03*
X51180000Y179780000D03*
X52180000Y179780000D03*
X53180000Y179780000D03*
X54180000Y179780000D03*
X55180000Y179780000D03*
X56180000Y179780000D03*
X57180000Y179780000D03*
X42180000Y178780000D03*
X43180000Y178780000D03*
X44180000Y178780000D03*
X45180000Y178780000D03*
X46180000Y178780000D03*
X47180000Y178780000D03*
X48180000Y178780000D03*
X49180000Y178780000D03*
X50180000Y178780000D03*
X51180000Y178780000D03*
X52180000Y178780000D03*
X53180000Y178780000D03*
X54180000Y178780000D03*
X55180000Y178780000D03*
X56180000Y178780000D03*
X57180000Y178780000D03*
X42180000Y177780000D03*
X43180000Y177780000D03*
X44180000Y177780000D03*
X45180000Y177780000D03*
X46180000Y177780000D03*
X47180000Y177780000D03*
X48180000Y177780000D03*
X49180000Y177780000D03*
X50180000Y177780000D03*
X51180000Y177780000D03*
X52180000Y177780000D03*
X53180000Y177780000D03*
X54180000Y177780000D03*
X55180000Y177780000D03*
X56180000Y177780000D03*
X57180000Y177780000D03*
X42180000Y176780000D03*
X43180000Y176780000D03*
X44180000Y176780000D03*
X45180000Y176780000D03*
X46180000Y176780000D03*
X47180000Y176780000D03*
X48180000Y176780000D03*
X49180000Y176780000D03*
X50180000Y176780000D03*
X51180000Y176780000D03*
X52180000Y176780000D03*
X53180000Y176780000D03*
X54180000Y176780000D03*
X55180000Y176780000D03*
X56180000Y176780000D03*
X57180000Y176780000D03*
X42180000Y175780000D03*
X43180000Y175780000D03*
X44180000Y175780000D03*
X45180000Y175780000D03*
X46180000Y175780000D03*
X47180000Y175780000D03*
X48180000Y175780000D03*
X49180000Y175780000D03*
X50180000Y175780000D03*
X51180000Y175780000D03*
X52180000Y175780000D03*
X53180000Y175780000D03*
X54180000Y175780000D03*
X55180000Y175780000D03*
X56180000Y175780000D03*
X57180000Y175780000D03*
%TD*%
D63*
%TO.C,ADTR1107_10*%
X234631385Y135666712D03*
X234171766Y135207092D03*
X233712146Y134747473D03*
X233252527Y134287854D03*
X232792908Y133828234D03*
X232333288Y133368615D03*
D64*
X232333288Y132631385D03*
X232792908Y132171766D03*
X233252527Y131712146D03*
X233712146Y131252527D03*
X234171766Y130792908D03*
X234631385Y130333288D03*
D63*
X235368615Y130333288D03*
X235828234Y130792908D03*
X236287854Y131252527D03*
X236747473Y131712146D03*
X237207092Y132171766D03*
X237666712Y132631385D03*
D64*
X237666712Y133368615D03*
X237207092Y133828234D03*
X236747473Y134287854D03*
X236287854Y134747473D03*
X235828234Y135207092D03*
X235368615Y135666712D03*
D65*
X235000000Y133000000D03*
%TD*%
D38*
%TO.C,X12*%
X246480000Y76510000D03*
X246480000Y79050000D03*
%TD*%
D36*
%TO.C,C138*%
X135195364Y202560632D03*
X134841810Y202914186D03*
%TD*%
D25*
%TO.C,R64*%
X8325000Y188360000D03*
X7815000Y188360000D03*
%TD*%
D66*
%TO.C,U10*%
X97225509Y39528025D03*
X97225509Y38878025D03*
X97225509Y38228025D03*
X97225509Y37578025D03*
X97225509Y36928029D03*
X97225509Y36278025D03*
X97225509Y35628029D03*
X97225509Y34978025D03*
X102864309Y34978025D03*
X102864309Y35628025D03*
X102864309Y36278025D03*
X102864309Y36928025D03*
X102864309Y37578021D03*
X102864309Y38228025D03*
X102864309Y38878021D03*
X102864309Y39528025D03*
%TD*%
D57*
%TO.C,C133*%
X166650760Y204194763D03*
X167004314Y204548317D03*
%TD*%
D26*
%TO.C,C202*%
X208835339Y156237398D03*
X208481785Y155883844D03*
%TD*%
D36*
%TO.C,C222*%
X210486652Y125646998D03*
X210133098Y126000552D03*
%TD*%
D18*
%TO.C,JP16*%
X183320000Y52750000D03*
X183320000Y50210000D03*
X183320000Y47670000D03*
%TD*%
D25*
%TO.C,R119*%
X31625000Y17930000D03*
X31115000Y17930000D03*
%TD*%
%TO.C,R121*%
X34865000Y26180000D03*
X34355000Y26180000D03*
%TD*%
D48*
%TO.C,C283*%
X6700000Y24200000D03*
X9500000Y24200000D03*
%TD*%
D14*
%TO.C,R80*%
X148400000Y137415000D03*
X148400000Y137925000D03*
%TD*%
D67*
%TO.C,JP7*%
X34630000Y94120000D03*
X37170000Y94120000D03*
X39710000Y94120000D03*
X42250000Y94120000D03*
X44790000Y94120000D03*
X47330000Y94120000D03*
X49870000Y94120000D03*
X52410000Y94120000D03*
%TD*%
D60*
%TO.C,C338*%
X157080000Y39090000D03*
X157080000Y37190000D03*
%TD*%
D33*
%TO.C,R69*%
X59815000Y182710000D03*
X60325000Y182710000D03*
%TD*%
D34*
%TO.C,C81*%
X112969978Y178765056D03*
X112969978Y178265056D03*
%TD*%
D36*
%TO.C,C168*%
X134296645Y125659351D03*
X133943091Y126012905D03*
%TD*%
D68*
%TO.C,L14*%
X178020000Y79820000D03*
X173020000Y79820000D03*
%TD*%
D25*
%TO.C,R14*%
X58860000Y143275000D03*
X58350000Y143275000D03*
%TD*%
D63*
%TO.C,ADTR1107_2*%
X158631385Y211666712D03*
X158171766Y211207092D03*
X157712146Y210747473D03*
X157252527Y210287854D03*
X156792908Y209828234D03*
X156333288Y209368615D03*
D64*
X156333288Y208631385D03*
X156792908Y208171766D03*
X157252527Y207712146D03*
X157712146Y207252527D03*
X158171766Y206792908D03*
X158631385Y206333288D03*
D63*
X159368615Y206333288D03*
X159828234Y206792908D03*
X160287854Y207252527D03*
X160747473Y207712146D03*
X161207092Y208171766D03*
X161666712Y208631385D03*
D64*
X161666712Y209368615D03*
X161207092Y209828234D03*
X160747473Y210287854D03*
X160287854Y210747473D03*
X159828234Y211207092D03*
X159368615Y211666712D03*
D65*
X159000000Y209000000D03*
%TD*%
D69*
%TO.C,C341*%
X194875768Y30728271D03*
X193575768Y30728271D03*
%TD*%
D70*
%TO.C,ADAR2_0*%
X226000000Y218000000D03*
D71*
X229000000Y215000000D03*
X228500000Y215000000D03*
X228000000Y215000000D03*
X227500000Y215000000D03*
X227000000Y215000000D03*
X226500000Y215000000D03*
X226000000Y215000000D03*
X225500000Y215000000D03*
X225000000Y215000000D03*
X224500000Y215000000D03*
X224000000Y215000000D03*
X223500000Y215000000D03*
X223000000Y215000000D03*
X229000000Y215500000D03*
X228500000Y215500000D03*
X228000000Y215500000D03*
X227500000Y215500000D03*
X227000000Y215500000D03*
X226500000Y215500000D03*
X226000000Y215500000D03*
X225500000Y215500000D03*
X225000000Y215500000D03*
X224500000Y215500000D03*
X224000000Y215500000D03*
X223500000Y215500000D03*
X223000000Y215500000D03*
X229000000Y216000000D03*
X228500000Y216000000D03*
X223500000Y216000000D03*
X223000000Y216000000D03*
X229000000Y216500000D03*
X228500000Y216500000D03*
X223500000Y216500000D03*
X223000000Y216500000D03*
X229000000Y217000000D03*
X228500000Y217000000D03*
X223500000Y217000000D03*
X223000000Y217000000D03*
X229000000Y217500000D03*
X228500000Y217500000D03*
X223500000Y217500000D03*
X223000000Y217500000D03*
X229000000Y218000000D03*
X228500000Y218000000D03*
X223500000Y218000000D03*
X223000000Y218000000D03*
X229000000Y218500000D03*
X228500000Y218500000D03*
X223500000Y218500000D03*
X223000000Y218500000D03*
X229000000Y219000000D03*
X228500000Y219000000D03*
X223500000Y219000000D03*
X223000000Y219000000D03*
X229000000Y219500000D03*
X228500000Y219500000D03*
X223500000Y219500000D03*
X223000000Y219500000D03*
X229000000Y220000000D03*
X228500000Y220000000D03*
X223500000Y220000000D03*
X223000000Y220000000D03*
X229000000Y220500000D03*
X228500000Y220500000D03*
X228000000Y220500000D03*
X227500000Y220500000D03*
X227000000Y220500000D03*
X226500000Y220500000D03*
X226000000Y220500000D03*
X225500000Y220500000D03*
X225000000Y220500000D03*
X224500000Y220500000D03*
X224000000Y220500000D03*
X223500000Y220500000D03*
X223000000Y220500000D03*
X229000000Y221000000D03*
X228500000Y221000000D03*
X228000000Y221000000D03*
X227500000Y221000000D03*
X227000000Y221000000D03*
X226500000Y221000000D03*
X226000000Y221000000D03*
X225500000Y221000000D03*
X225000000Y221000000D03*
X224500000Y221000000D03*
X224000000Y221000000D03*
X223500000Y221000000D03*
X223000000Y221000000D03*
%TD*%
D44*
%TO.C,X_2*%
X41770000Y14500000D03*
X39230000Y14500000D03*
%TD*%
D57*
%TO.C,C123*%
X139518454Y136737291D03*
X139872008Y137090845D03*
%TD*%
D27*
%TO.C,J23*%
X82500000Y221810000D03*
D28*
X79960000Y224350000D03*
X79960000Y219270000D03*
X85040000Y219270000D03*
X85040000Y224350000D03*
%TD*%
D43*
%TO.C,C293*%
X66100000Y157900000D03*
X65600000Y157900000D03*
%TD*%
D22*
%TO.C,C325*%
X207630000Y79330000D03*
X207630000Y78030000D03*
%TD*%
D57*
%TO.C,C146*%
X210480376Y232824379D03*
X210833930Y233177933D03*
%TD*%
D44*
%TO.C,X15*%
X185340000Y90970000D03*
X187880000Y90970000D03*
%TD*%
D30*
%TO.C,R148*%
X154680000Y32085000D03*
X154680000Y31575000D03*
%TD*%
D72*
%TO.C,SJ1*%
X47680000Y154286000D03*
X47680000Y155810000D03*
X47680000Y157334000D03*
%TD*%
D73*
%TO.C,U16*%
X190201100Y178222000D03*
X190201100Y178730000D03*
X190201100Y179238000D03*
X190201100Y179746000D03*
X190201100Y180254000D03*
X190201100Y180762000D03*
X190201100Y181270000D03*
X190201100Y181778000D03*
D74*
X189528000Y182451100D03*
X189020000Y182451100D03*
X188512000Y182451100D03*
X188004000Y182451100D03*
X187496000Y182451100D03*
X186988000Y182451100D03*
X186480000Y182451100D03*
X185972000Y182451100D03*
D73*
X185298900Y181778000D03*
X185298900Y181270000D03*
X185298900Y180762000D03*
X185298900Y180254000D03*
X185298900Y179746000D03*
X185298900Y179238000D03*
X185298900Y178730000D03*
X185298900Y178222000D03*
D74*
X185972000Y177548900D03*
X186480000Y177548900D03*
X186988000Y177548900D03*
X187496000Y177548900D03*
X188004000Y177548900D03*
X188512000Y177548900D03*
X189020000Y177548900D03*
X189528000Y177548900D03*
D75*
X187750000Y180000000D03*
%TD*%
D31*
%TO.C,C152*%
X165480944Y157794652D03*
X165834498Y157441098D03*
%TD*%
D38*
%TO.C,X11*%
X246880000Y106200000D03*
X246880000Y108740000D03*
%TD*%
D34*
%TO.C,C299*%
X198980000Y30880000D03*
X198980000Y30380000D03*
%TD*%
D13*
%TO.C,C11*%
X61345000Y153520000D03*
X61345000Y154020000D03*
%TD*%
D76*
%TO.C,J27*%
X131040000Y210690000D03*
D28*
X134632102Y210690000D03*
X131040000Y214282102D03*
X127447898Y210690000D03*
X131040000Y207097898D03*
%TD*%
D41*
%TO.C,RF_SW_7*%
X213663209Y230566690D03*
X213309655Y230920244D03*
X212956102Y231273797D03*
X212602548Y231627351D03*
D15*
X211683310Y231613209D03*
X211329756Y231259655D03*
X210976203Y230906102D03*
X210622649Y230552548D03*
D41*
X210622649Y229647452D03*
X210976203Y229293898D03*
X211329756Y228940345D03*
X211683310Y228586791D03*
D15*
X212602548Y228572649D03*
X212956102Y228926203D03*
X213309655Y229279756D03*
X213663209Y229633310D03*
D42*
X212150000Y230100000D03*
%TD*%
D14*
%TO.C,R23*%
X52140000Y200875000D03*
X52140000Y201385000D03*
%TD*%
D22*
%TO.C,C49*%
X54620000Y144040000D03*
X54620000Y142740000D03*
%TD*%
D15*
%TO.C,RF_SW_9*%
X212633310Y128613209D03*
X212279756Y128259655D03*
X211926203Y127906102D03*
X211572649Y127552548D03*
D16*
X211586791Y126633310D03*
X211940345Y126279756D03*
X212293898Y125926203D03*
X212647452Y125572649D03*
D15*
X213552548Y125572649D03*
X213906102Y125926203D03*
X214259655Y126279756D03*
X214613209Y126633310D03*
D16*
X214627351Y127552548D03*
X214273797Y127906102D03*
X213920244Y128259655D03*
X213566690Y128613209D03*
D17*
X213100000Y127100000D03*
%TD*%
D36*
%TO.C,C17*%
X59288889Y192609491D03*
X58935335Y192963045D03*
%TD*%
D45*
%TO.C,U54*%
X166644890Y120910071D03*
X169015678Y123280859D03*
%TD*%
D33*
%TO.C,R34*%
X55975000Y135690000D03*
X56485000Y135690000D03*
%TD*%
D29*
%TO.C,J32*%
X205150000Y223410000D03*
D28*
X201557898Y223410000D03*
X205150000Y219817898D03*
X208742102Y223410000D03*
X205150000Y227002102D03*
%TD*%
D30*
%TO.C,R110*%
X76700000Y116135000D03*
X76700000Y115625000D03*
%TD*%
D60*
%TO.C,C316*%
X171430000Y290140000D03*
X171430000Y288240000D03*
%TD*%
D29*
%TO.C,J40*%
X245450000Y134160000D03*
D28*
X241857898Y134160000D03*
X245450000Y130567898D03*
X249042102Y134160000D03*
X245450000Y137752102D03*
%TD*%
D33*
%TO.C,R60*%
X-155000Y-32300000D03*
X355000Y-32300000D03*
%TD*%
D27*
%TO.C,J20*%
X52000000Y223050000D03*
D28*
X49460000Y225590000D03*
X49460000Y220510000D03*
X54540000Y220510000D03*
X54540000Y225590000D03*
%TD*%
D39*
%TO.C,U55*%
X168214425Y162679627D03*
X165843637Y165050415D03*
%TD*%
D30*
%TO.C,R118*%
X31580000Y27235000D03*
X31580000Y26725000D03*
%TD*%
D40*
%TO.C,UNK_HOLE_4*%
X256000000Y250000000D03*
%TD*%
D44*
%TO.C,X44*%
X117390165Y19924350D03*
X114850165Y19924350D03*
X112310165Y19924350D03*
%TD*%
D57*
%TO.C,C172*%
X242060635Y206332326D03*
X242414189Y206685880D03*
%TD*%
D44*
%TO.C,X1*%
X192170000Y276600000D03*
X189630000Y276600000D03*
%TD*%
D57*
%TO.C,C102*%
X139654607Y212748441D03*
X140008161Y213101995D03*
%TD*%
D13*
%TO.C,C13*%
X63820000Y155220000D03*
X63820000Y155720000D03*
%TD*%
%TO.C,C307*%
X219750000Y54570000D03*
X219750000Y55070000D03*
%TD*%
D30*
%TO.C,R50*%
X21135000Y178245000D03*
X21135000Y177735000D03*
%TD*%
D77*
%TO.C,ADTR1107_15*%
X141368615Y148333288D03*
X141828234Y148792908D03*
X142287854Y149252527D03*
X142747473Y149712146D03*
X143207092Y150171766D03*
X143666712Y150631385D03*
D78*
X143666712Y151368615D03*
X143207092Y151828234D03*
X142747473Y152287854D03*
X142287854Y152747473D03*
X141828234Y153207092D03*
X141368615Y153666712D03*
D77*
X140631385Y153666712D03*
X140171766Y153207092D03*
X139712146Y152747473D03*
X139252527Y152287854D03*
X138792908Y151828234D03*
X138333288Y151368615D03*
D78*
X138333288Y150631385D03*
X138792908Y150171766D03*
X139252527Y149712146D03*
X139712146Y149252527D03*
X140171766Y148792908D03*
X140631385Y148333288D03*
D79*
X141000000Y151000000D03*
%TD*%
D46*
%TO.C,RF_SW_8*%
X238966690Y230736791D03*
X239320244Y231090345D03*
X239673797Y231443898D03*
X240027351Y231797452D03*
D41*
X240013209Y232716690D03*
X239659655Y233070244D03*
X239306102Y233423797D03*
X238952548Y233777351D03*
D46*
X238047452Y233777351D03*
X237693898Y233423797D03*
X237340345Y233070244D03*
X236986791Y232716690D03*
D41*
X236972649Y231797452D03*
X237326203Y231443898D03*
X237679756Y231090345D03*
X238033310Y230736791D03*
D80*
X238500000Y232250000D03*
%TD*%
D25*
%TO.C,R17*%
X59325000Y148920000D03*
X58815000Y148920000D03*
%TD*%
D81*
%TO.C,L18*%
X117620000Y6480000D03*
X122620000Y6480000D03*
%TD*%
D25*
%TO.C,R91*%
X64875000Y56230000D03*
X64365000Y56230000D03*
%TD*%
D64*
%TO.C,ADTR1107_13*%
X143666712Y133368615D03*
X143207092Y133828234D03*
X142747473Y134287854D03*
X142287854Y134747473D03*
X141828234Y135207092D03*
X141368615Y135666712D03*
D77*
X140631385Y135666712D03*
X140171766Y135207092D03*
X139712146Y134747473D03*
X139252527Y134287854D03*
X138792908Y133828234D03*
X138333288Y133368615D03*
D64*
X138333288Y132631385D03*
X138792908Y132171766D03*
X139252527Y131712146D03*
X139712146Y131252527D03*
X140171766Y130792908D03*
X140631385Y130333288D03*
D77*
X141368615Y130333288D03*
X141828234Y130792908D03*
X142287854Y131252527D03*
X142747473Y131712146D03*
X143207092Y132171766D03*
X143666712Y132631385D03*
D82*
X141000000Y133000000D03*
%TD*%
D83*
%TO.C,U44*%
X127877768Y202424294D03*
X130248556Y200053506D03*
%TD*%
D57*
%TO.C,C66*%
X135187869Y232316151D03*
X135541423Y232669705D03*
%TD*%
D30*
%TO.C,R82*%
X34590000Y47155000D03*
X34590000Y46645000D03*
%TD*%
D33*
%TO.C,R18*%
X55675000Y144160000D03*
X56185000Y144160000D03*
%TD*%
D14*
%TO.C,R74*%
X222776221Y128767809D03*
X222776221Y129277809D03*
%TD*%
D57*
%TO.C,C134*%
X162321669Y203942513D03*
X162675223Y204296067D03*
%TD*%
D29*
%TO.C,J45*%
X216950000Y161510000D03*
D28*
X213357898Y161510000D03*
X216950000Y157917898D03*
X220542102Y161510000D03*
X216950000Y165102102D03*
%TD*%
D81*
%TO.C,L1*%
X15190000Y157730000D03*
X20190000Y157730000D03*
%TD*%
D25*
%TO.C,R141*%
X69285000Y169170000D03*
X68775000Y169170000D03*
%TD*%
D36*
%TO.C,C240*%
X162051295Y158262260D03*
X161697741Y158615814D03*
%TD*%
D44*
%TO.C,X_3*%
X26970000Y44450000D03*
X24430000Y44450000D03*
%TD*%
D56*
%TO.C,U74*%
X92774390Y46197562D03*
X92774390Y45547562D03*
X92774390Y44897562D03*
X92774390Y44247562D03*
X97174390Y44247562D03*
X97174390Y44897562D03*
X97174390Y45547562D03*
X97174390Y46197562D03*
%TD*%
D33*
%TO.C,R145*%
X-155000Y-51300000D03*
X355000Y-51300000D03*
%TD*%
D37*
%TO.C,C281*%
X82656728Y89408215D03*
X83156728Y89408215D03*
%TD*%
D31*
%TO.C,C73*%
X164216154Y232812130D03*
X164569708Y232458576D03*
%TD*%
D26*
%TO.C,C174*%
X165555164Y127079567D03*
X165201610Y126726013D03*
%TD*%
D38*
%TO.C,X6*%
X246530000Y42670000D03*
X246530000Y45210000D03*
%TD*%
D13*
%TO.C,C79*%
X112949396Y180306018D03*
X112949396Y180806018D03*
%TD*%
D30*
%TO.C,R166*%
X54050000Y134285000D03*
X54050000Y133775000D03*
%TD*%
D57*
%TO.C,C129*%
X139293223Y205913223D03*
X139646777Y206266777D03*
%TD*%
D29*
%TO.C,J51*%
X169590000Y150890000D03*
D28*
X165997898Y150890000D03*
X169590000Y147297898D03*
X173182102Y150890000D03*
X169590000Y154482102D03*
%TD*%
D26*
%TO.C,C149*%
X213714720Y232034995D03*
X213361166Y231681441D03*
%TD*%
D45*
%TO.C,U52*%
X242255962Y120998793D03*
X244626750Y123369581D03*
%TD*%
D84*
%TO.C,U9*%
X23040000Y181820004D03*
X22040000Y181820004D03*
X21040000Y181820004D03*
X20040000Y181820004D03*
X24040000Y182820004D03*
X23040000Y182820004D03*
X22040000Y182820004D03*
X21040000Y182820004D03*
X20040000Y182820004D03*
X24040000Y183820000D03*
X23040000Y183820000D03*
X22040000Y183820000D03*
X21040000Y183820000D03*
X20040000Y183820000D03*
X24040000Y184819996D03*
X23040000Y184819996D03*
X22040000Y184819996D03*
X21040000Y184819996D03*
X20040000Y184819996D03*
X24040000Y185819996D03*
X23040000Y185819996D03*
X22040000Y185819996D03*
X21040000Y185819996D03*
X20040000Y185819996D03*
%TD*%
D14*
%TO.C,R29*%
X59760000Y200935000D03*
X59760000Y201445000D03*
%TD*%
D56*
%TO.C,U11*%
X112802034Y46117431D03*
X112802034Y45467431D03*
X112802034Y44817431D03*
X112802034Y44167431D03*
X117202034Y44167431D03*
X117202034Y44817431D03*
X117202034Y45467431D03*
X117202034Y46117431D03*
%TD*%
D63*
%TO.C,ADTR1107_14*%
X158631385Y135666712D03*
X158171766Y135207092D03*
X157712146Y134747473D03*
X157252527Y134287854D03*
X156792908Y133828234D03*
X156333288Y133368615D03*
D64*
X156333288Y132631385D03*
X156792908Y132171766D03*
X157252527Y131712146D03*
X157712146Y131252527D03*
X158171766Y130792908D03*
X158631385Y130333288D03*
D63*
X159368615Y130333288D03*
X159828234Y130792908D03*
X160287854Y131252527D03*
X160747473Y131712146D03*
X161207092Y132171766D03*
X161666712Y132631385D03*
D64*
X161666712Y133368615D03*
X161207092Y133828234D03*
X160747473Y134287854D03*
X160287854Y134747473D03*
X159828234Y135207092D03*
X159368615Y135666712D03*
D65*
X159000000Y133000000D03*
%TD*%
D81*
%TO.C,L12*%
X195860000Y289230000D03*
X200860000Y289230000D03*
%TD*%
D13*
%TO.C,C44*%
X57810000Y147850000D03*
X57810000Y148350000D03*
%TD*%
D45*
%TO.C,U41*%
X165476987Y197879049D03*
X167847775Y200249837D03*
%TD*%
D44*
%TO.C,X_16*%
X69230000Y59500000D03*
X71770000Y59500000D03*
%TD*%
D30*
%TO.C,R70*%
X227960000Y222865000D03*
X227960000Y222355000D03*
%TD*%
%TO.C,R114*%
X72300000Y116185000D03*
X72300000Y115675000D03*
%TD*%
D29*
%TO.C,J36*%
X247300000Y211610000D03*
D28*
X243707898Y211610000D03*
X247300000Y208017898D03*
X250892102Y211610000D03*
X247300000Y215202102D03*
%TD*%
D85*
%TO.C,U78*%
X109420321Y29037700D03*
X109420321Y29687700D03*
X109420321Y30337700D03*
X109420321Y30987700D03*
X105020321Y30987700D03*
X105020321Y30337700D03*
X105020321Y29687700D03*
X105020321Y29037700D03*
%TD*%
D37*
%TO.C,C85*%
X183580000Y179760000D03*
X184080000Y179760000D03*
%TD*%
D85*
%TO.C,U85*%
X149221353Y29079259D03*
X149221353Y29729259D03*
X149221353Y30379259D03*
X149221353Y31029259D03*
X144821353Y31029259D03*
X144821353Y30379259D03*
X144821353Y29729259D03*
X144821353Y29079259D03*
%TD*%
D34*
%TO.C,C98*%
X149985000Y137965000D03*
X149985000Y137465000D03*
%TD*%
D37*
%TO.C,C176*%
X62395000Y174870000D03*
X62895000Y174870000D03*
%TD*%
D13*
%TO.C,C93*%
X225465000Y222235000D03*
X225465000Y222735000D03*
%TD*%
D25*
%TO.C,R132*%
X105784090Y39526981D03*
X105274090Y39526981D03*
%TD*%
D31*
%TO.C,C221*%
X241311960Y157885980D03*
X241665514Y157532426D03*
%TD*%
D33*
%TO.C,R159*%
X87365000Y182490000D03*
X87875000Y182490000D03*
%TD*%
D43*
%TO.C,C263*%
X108380000Y43210000D03*
X107880000Y43210000D03*
%TD*%
D32*
%TO.C,C348*%
X149657903Y44365562D03*
X149657903Y45665562D03*
%TD*%
D23*
%TO.C,J19*%
X75200000Y180455000D03*
X75200000Y179185000D03*
D24*
X76470000Y181090000D03*
X76470000Y178550000D03*
X73930000Y181090000D03*
X73930000Y178550000D03*
%TD*%
D57*
%TO.C,C233*%
X166021935Y130389532D03*
X166375489Y130743086D03*
%TD*%
D26*
%TO.C,C245*%
X132313367Y156697545D03*
X131959813Y156343991D03*
%TD*%
%TO.C,C154*%
X39367586Y194049280D03*
X39014032Y193695726D03*
%TD*%
D56*
%TO.C,U82*%
X142630503Y46077421D03*
X142630503Y45427421D03*
X142630503Y44777421D03*
X142630503Y44127421D03*
X147030503Y44127421D03*
X147030503Y44777421D03*
X147030503Y45427421D03*
X147030503Y46077421D03*
%TD*%
D44*
%TO.C,X52*%
X167456093Y19969943D03*
X164916093Y19969943D03*
X162376093Y19969943D03*
%TD*%
D30*
%TO.C,R48*%
X228035000Y213765000D03*
X228035000Y213255000D03*
%TD*%
D83*
%TO.C,U43*%
X134428409Y196573653D03*
X136799197Y194202865D03*
%TD*%
D44*
%TO.C,X43*%
X107603256Y19863450D03*
X105063256Y19863450D03*
X102523256Y19863450D03*
%TD*%
D37*
%TO.C,C277*%
X104270000Y35600000D03*
X104770000Y35600000D03*
%TD*%
D25*
%TO.C,R171*%
X86835000Y98070000D03*
X86325000Y98070000D03*
%TD*%
D22*
%TO.C,C350*%
X131858040Y30710328D03*
X131858040Y29410328D03*
%TD*%
D31*
%TO.C,C74*%
X164773726Y233269705D03*
X165127280Y232916151D03*
%TD*%
D53*
%TO.C,U57*%
X128021653Y159415706D03*
X125650865Y157044918D03*
%TD*%
D36*
%TO.C,C120*%
X155317323Y131688838D03*
X154963769Y132042392D03*
%TD*%
D13*
%TO.C,C309*%
X75690000Y214010000D03*
X75690000Y214510000D03*
%TD*%
D44*
%TO.C,X_4*%
X41970000Y44450000D03*
X39430000Y44450000D03*
%TD*%
D86*
%TO.C,R36*%
X54330000Y154350000D03*
X53330000Y154350000D03*
%TD*%
D64*
%TO.C,ADTR1107_1*%
X143666712Y209368615D03*
X143207092Y209828234D03*
X142747473Y210287854D03*
X142287854Y210747473D03*
X141828234Y211207092D03*
X141368615Y211666712D03*
D77*
X140631385Y211666712D03*
X140171766Y211207092D03*
X139712146Y210747473D03*
X139252527Y210287854D03*
X138792908Y209828234D03*
X138333288Y209368615D03*
D64*
X138333288Y208631385D03*
X138792908Y208171766D03*
X139252527Y207712146D03*
X139712146Y207252527D03*
X140171766Y206792908D03*
X140631385Y206333288D03*
D77*
X141368615Y206333288D03*
X141828234Y206792908D03*
X142287854Y207252527D03*
X142747473Y207712146D03*
X143207092Y208171766D03*
X143666712Y208631385D03*
D82*
X141000000Y209000000D03*
%TD*%
D34*
%TO.C,C83*%
X115910275Y182418484D03*
X115910275Y181918484D03*
%TD*%
D87*
%TO.C,C185*%
X4350000Y232000000D03*
X5650000Y232000000D03*
%TD*%
D32*
%TO.C,C48*%
X62550000Y142690000D03*
X62550000Y143990000D03*
%TD*%
D78*
%TO.C,ADTR1107_12*%
X232333288Y150631385D03*
X232792908Y150171766D03*
X233252527Y149712146D03*
X233712146Y149252527D03*
X234171766Y148792908D03*
X234631385Y148333288D03*
D63*
X235368615Y148333288D03*
X235828234Y148792908D03*
X236287854Y149252527D03*
X236747473Y149712146D03*
X237207092Y150171766D03*
X237666712Y150631385D03*
D78*
X237666712Y151368615D03*
X237207092Y151828234D03*
X236747473Y152287854D03*
X236287854Y152747473D03*
X235828234Y153207092D03*
X235368615Y153666712D03*
D63*
X234631385Y153666712D03*
X234171766Y153207092D03*
X233712146Y152747473D03*
X233252527Y152287854D03*
X232792908Y151828234D03*
X232333288Y151368615D03*
D88*
X235000000Y151000000D03*
%TD*%
D30*
%TO.C,R46*%
X151951653Y225279787D03*
X151951653Y224769787D03*
%TD*%
D36*
%TO.C,C173*%
X238256777Y207103223D03*
X237903223Y207456777D03*
%TD*%
D89*
%TO.C,C329*%
X9780000Y14040000D03*
X9780000Y11240000D03*
%TD*%
D39*
%TO.C,U65*%
X242702800Y163085221D03*
X240332012Y165456009D03*
%TD*%
D26*
%TO.C,C247*%
X133537536Y153903377D03*
X133183982Y153549823D03*
%TD*%
D32*
%TO.C,C347*%
X169977712Y44561865D03*
X169977712Y45861865D03*
%TD*%
D30*
%TO.C,R39*%
X50140000Y18455000D03*
X50140000Y17945000D03*
%TD*%
D57*
%TO.C,C203*%
X242497638Y128363988D03*
X242851192Y128717542D03*
%TD*%
D13*
%TO.C,C92*%
X225015000Y222240000D03*
X225015000Y222740000D03*
%TD*%
D30*
%TO.C,R41*%
X48940000Y53915000D03*
X48940000Y53405000D03*
%TD*%
D37*
%TO.C,L10*%
X71385000Y145550000D03*
X71935000Y145550000D03*
%TD*%
D26*
%TO.C,C235*%
X241519877Y203056670D03*
X241166323Y202703116D03*
%TD*%
D13*
%TO.C,C23*%
X66170000Y114170000D03*
X66170000Y114670000D03*
%TD*%
D31*
%TO.C,C151*%
X213743223Y228906777D03*
X214096777Y228553223D03*
%TD*%
D25*
%TO.C,R21*%
X59415000Y140450000D03*
X58905000Y140450000D03*
%TD*%
D13*
%TO.C,C60*%
X76720000Y145010000D03*
X76720000Y145510000D03*
%TD*%
D85*
%TO.C,U77*%
X99055771Y29059496D03*
X99055771Y29709496D03*
X99055771Y30359496D03*
X99055771Y31009496D03*
X94655771Y31009496D03*
X94655771Y30359496D03*
X94655771Y29709496D03*
X94655771Y29059496D03*
%TD*%
D39*
%TO.C,U67*%
X242304081Y238683940D03*
X239933293Y241054728D03*
%TD*%
D14*
%TO.C,R133*%
X167670000Y43015000D03*
X167670000Y43525000D03*
%TD*%
D22*
%TO.C,C349*%
X152620000Y30570000D03*
X152620000Y29270000D03*
%TD*%
D29*
%TO.C,J38*%
X232000000Y239110000D03*
D28*
X228407898Y239110000D03*
X232000000Y235517898D03*
X235592102Y239110000D03*
X232000000Y242702102D03*
%TD*%
D13*
%TO.C,C298*%
X198750000Y54520000D03*
X198750000Y55020000D03*
%TD*%
D30*
%TO.C,R100*%
X64300000Y17535000D03*
X64300000Y17025000D03*
%TD*%
D33*
%TO.C,R163*%
X87365000Y186240000D03*
X87875000Y186240000D03*
%TD*%
D26*
%TO.C,C131*%
X165459111Y203215108D03*
X165105557Y202861554D03*
%TD*%
D13*
%TO.C,C310*%
X183300000Y55020000D03*
X183300000Y55520000D03*
%TD*%
D33*
%TO.C,R167*%
X61565000Y97480000D03*
X62075000Y97480000D03*
%TD*%
D34*
%TO.C,C127*%
X77230000Y213970000D03*
X77230000Y213470000D03*
%TD*%
D26*
%TO.C,C104*%
X160300648Y223431814D03*
X159947094Y223078260D03*
%TD*%
D14*
%TO.C,R152*%
X202920000Y29965000D03*
X202920000Y30475000D03*
%TD*%
D30*
%TO.C,R59*%
X31740000Y47205000D03*
X31740000Y46695000D03*
%TD*%
D14*
%TO.C,R72*%
X224065000Y146325000D03*
X224065000Y146835000D03*
%TD*%
D40*
%TO.C,UNK_HOLE_7*%
X116000000Y250000000D03*
%TD*%
D33*
%TO.C,R146*%
X-155000Y-56050000D03*
X355000Y-56050000D03*
%TD*%
D26*
%TO.C,C55*%
X39805992Y193610873D03*
X39452438Y193257319D03*
%TD*%
%TO.C,C69*%
X133334352Y231590917D03*
X132980798Y231237363D03*
%TD*%
D37*
%TO.C,C53*%
X58150000Y141130000D03*
X58650000Y141130000D03*
%TD*%
D69*
%TO.C,C3*%
X59260000Y152590000D03*
X57960000Y152590000D03*
%TD*%
D44*
%TO.C,X39*%
X92294228Y55073850D03*
X94834228Y55073850D03*
X97374228Y55073850D03*
%TD*%
D33*
%TO.C,R144*%
X59815000Y184080000D03*
X60325000Y184080000D03*
%TD*%
D90*
%TO.C,R13*%
X57790000Y151200000D03*
X57790000Y150200000D03*
%TD*%
D36*
%TO.C,C112*%
X61586986Y194928804D03*
X61233432Y195282358D03*
%TD*%
D15*
%TO.C,RF_SW_5*%
X213133310Y205463209D03*
X212779756Y205109655D03*
X212426203Y204756102D03*
X212072649Y204402548D03*
D16*
X212086791Y203483310D03*
X212440345Y203129756D03*
X212793898Y202776203D03*
X213147452Y202422649D03*
D15*
X214052548Y202422649D03*
X214406102Y202776203D03*
X214759655Y203129756D03*
X215113209Y203483310D03*
D16*
X215127351Y204402548D03*
X214773797Y204756102D03*
X214420244Y205109655D03*
X214066690Y205463209D03*
D17*
X213600000Y203950000D03*
%TD*%
D44*
%TO.C,X41*%
X87674834Y20022253D03*
X85134834Y20022253D03*
X82594834Y20022253D03*
%TD*%
D29*
%TO.C,J48*%
X170300000Y134660000D03*
D28*
X166707898Y134660000D03*
X170300000Y131067898D03*
X173892102Y134660000D03*
X170300000Y138252102D03*
%TD*%
D38*
%TO.C,X24*%
X4520000Y88170000D03*
X4520000Y85630000D03*
%TD*%
D30*
%TO.C,R68*%
X8585000Y180030000D03*
X8585000Y179520000D03*
%TD*%
D29*
%TO.C,J37*%
X233940000Y198220000D03*
D28*
X230347898Y198220000D03*
X233940000Y194627898D03*
X237532102Y198220000D03*
X233940000Y201812102D03*
%TD*%
D83*
%TO.C,U49*%
X208850715Y121292115D03*
X211221503Y118921327D03*
%TD*%
D46*
%TO.C,RF_SW_12*%
X239066690Y154786791D03*
X239420244Y155140345D03*
X239773797Y155493898D03*
X240127351Y155847452D03*
D41*
X240113209Y156766690D03*
X239759655Y157120244D03*
X239406102Y157473797D03*
X239052548Y157827351D03*
D46*
X238147452Y157827351D03*
X237793898Y157473797D03*
X237440345Y157120244D03*
X237086791Y156766690D03*
D41*
X237072649Y155847452D03*
X237426203Y155493898D03*
X237779756Y155140345D03*
X238133310Y154786791D03*
D80*
X238600000Y156300000D03*
%TD*%
D43*
%TO.C,C284*%
X148430000Y43060000D03*
X147930000Y43060000D03*
%TD*%
D33*
%TO.C,R156*%
X29315000Y165290000D03*
X29825000Y165290000D03*
%TD*%
D45*
%TO.C,U51*%
X247106602Y125549434D03*
X249477390Y127920222D03*
%TD*%
D44*
%TO.C,X_13*%
X54130000Y29700000D03*
X56670000Y29700000D03*
%TD*%
D25*
%TO.C,R62*%
X8465000Y183260000D03*
X7955000Y183260000D03*
%TD*%
D30*
%TO.C,R131*%
X114430000Y32035000D03*
X114430000Y31525000D03*
%TD*%
D36*
%TO.C,C143*%
X160908323Y233319757D03*
X160554769Y233673311D03*
%TD*%
D63*
%TO.C,ADTR1107_6*%
X234631385Y211666712D03*
X234171766Y211207092D03*
X233712146Y210747473D03*
X233252527Y210287854D03*
X232792908Y209828234D03*
X232333288Y209368615D03*
D64*
X232333288Y208631385D03*
X232792908Y208171766D03*
X233252527Y207712146D03*
X233712146Y207252527D03*
X234171766Y206792908D03*
X234631385Y206333288D03*
D63*
X235368615Y206333288D03*
X235828234Y206792908D03*
X236287854Y207252527D03*
X236747473Y207712146D03*
X237207092Y208171766D03*
X237666712Y208631385D03*
D64*
X237666712Y209368615D03*
X237207092Y209828234D03*
X236747473Y210287854D03*
X236287854Y210747473D03*
X235828234Y211207092D03*
X235368615Y211666712D03*
D65*
X235000000Y209000000D03*
%TD*%
D77*
%TO.C,ADTR1107_7*%
X217368615Y224333288D03*
X217828234Y224792908D03*
X218287854Y225252527D03*
X218747473Y225712146D03*
X219207092Y226171766D03*
X219666712Y226631385D03*
D78*
X219666712Y227368615D03*
X219207092Y227828234D03*
X218747473Y228287854D03*
X218287854Y228747473D03*
X217828234Y229207092D03*
X217368615Y229666712D03*
D77*
X216631385Y229666712D03*
X216171766Y229207092D03*
X215712146Y228747473D03*
X215252527Y228287854D03*
X214792908Y227828234D03*
X214333288Y227368615D03*
D78*
X214333288Y226631385D03*
X214792908Y226171766D03*
X215252527Y225712146D03*
X215712146Y225252527D03*
X216171766Y224792908D03*
X216631385Y224333288D03*
D79*
X217000000Y227000000D03*
%TD*%
D32*
%TO.C,C351*%
X159824709Y44461865D03*
X159824709Y45761865D03*
%TD*%
D13*
%TO.C,C257*%
X45457950Y51248587D03*
X45457950Y51748587D03*
%TD*%
D43*
%TO.C,C54*%
X59000000Y133075000D03*
X58500000Y133075000D03*
%TD*%
D22*
%TO.C,C343*%
X82024996Y30909993D03*
X82024996Y29609993D03*
%TD*%
D91*
%TO.C,JP1*%
X104890000Y92440000D03*
X102350000Y92440000D03*
X104890000Y94980000D03*
X102350000Y94980000D03*
X104890000Y97520000D03*
X102350000Y97520000D03*
X104890000Y100060000D03*
X102350000Y100060000D03*
X104890000Y102600000D03*
X102350000Y102600000D03*
X104890000Y105140000D03*
X102350000Y105140000D03*
%TD*%
D14*
%TO.C,R4*%
X59810000Y180485000D03*
X59810000Y180995000D03*
%TD*%
D30*
%TO.C,R58*%
X149490000Y137950000D03*
X149490000Y137440000D03*
%TD*%
D53*
%TO.C,U46*%
X210540194Y239297362D03*
X208169406Y236926574D03*
%TD*%
D25*
%TO.C,R150*%
X155582331Y39489759D03*
X155072331Y39489759D03*
%TD*%
D37*
%TO.C,L3*%
X74415000Y144920000D03*
X74965000Y144920000D03*
%TD*%
D44*
%TO.C,X13*%
X203330000Y277230000D03*
X200790000Y277230000D03*
%TD*%
D83*
%TO.C,U61*%
X208973615Y198697597D03*
X211344403Y196326809D03*
%TD*%
D13*
%TO.C,C52*%
X59060000Y139040000D03*
X59060000Y139540000D03*
%TD*%
D38*
%TO.C,X19*%
X4970000Y48520000D03*
X4970000Y45980000D03*
%TD*%
D22*
%TO.C,C313*%
X25440000Y157580000D03*
X25440000Y156280000D03*
%TD*%
D37*
%TO.C,C290*%
X143470000Y31990000D03*
X143970000Y31990000D03*
%TD*%
D68*
%TO.C,L15*%
X110035000Y226145000D03*
X105035000Y226145000D03*
%TD*%
D44*
%TO.C,X7*%
X121780000Y91970000D03*
X124320000Y91970000D03*
%TD*%
D40*
%TO.C,UNK_HOLE_0*%
X4000000Y4000000D03*
%TD*%
%TO.C,UNK_HOLE_3*%
X4000000Y296000000D03*
%TD*%
D44*
%TO.C,X46*%
X152371006Y54952618D03*
X154911006Y54952618D03*
X157451006Y54952618D03*
%TD*%
D38*
%TO.C,X16*%
X6020000Y222550000D03*
X6020000Y220010000D03*
%TD*%
D13*
%TO.C,C8*%
X59395000Y153520000D03*
X59395000Y154020000D03*
%TD*%
D29*
%TO.C,J53*%
X141420000Y161790000D03*
D28*
X137827898Y161790000D03*
X141420000Y158197898D03*
X145012102Y161790000D03*
X141420000Y165382102D03*
%TD*%
D92*
%TO.C,D4*%
X75130000Y117583000D03*
X75130000Y119337000D03*
%TD*%
D37*
%TO.C,C270*%
X78140000Y145570000D03*
X78640000Y145570000D03*
%TD*%
D93*
%TO.C,JP13*%
X91200000Y80990000D03*
X91200000Y78450000D03*
X88660000Y80990000D03*
X88660000Y78450000D03*
X86120000Y80990000D03*
X86120000Y78450000D03*
X83580000Y80990000D03*
X83580000Y78450000D03*
X81040000Y80990000D03*
X81040000Y78450000D03*
X78500000Y80990000D03*
X78500000Y78450000D03*
X75960000Y80990000D03*
X75960000Y78450000D03*
%TD*%
D30*
%TO.C,R112*%
X75150000Y116185000D03*
X75150000Y115675000D03*
%TD*%
D22*
%TO.C,C339*%
X159675465Y39215900D03*
X159675465Y37915900D03*
%TD*%
D26*
%TO.C,C241*%
X161256777Y154496777D03*
X160903223Y154143223D03*
%TD*%
D57*
%TO.C,C207*%
X209474532Y157772473D03*
X209828086Y158126027D03*
%TD*%
D37*
%TO.C,C37*%
X53730000Y214805000D03*
X54230000Y214805000D03*
%TD*%
D14*
%TO.C,R115*%
X76360000Y212925000D03*
X76360000Y213435000D03*
%TD*%
D37*
%TO.C,C56*%
X56095000Y136705000D03*
X56595000Y136705000D03*
%TD*%
D30*
%TO.C,R71*%
X228510000Y222870000D03*
X228510000Y222360000D03*
%TD*%
D34*
%TO.C,C101*%
X150590000Y136555000D03*
X150590000Y136055000D03*
%TD*%
D57*
%TO.C,C132*%
X166146116Y204621710D03*
X166499670Y204975264D03*
%TD*%
D22*
%TO.C,C328*%
X164930000Y78730000D03*
X164930000Y77430000D03*
%TD*%
D57*
%TO.C,C232*%
X162901104Y127292966D03*
X163254658Y127646520D03*
%TD*%
D22*
%TO.C,C327*%
X166690000Y78760000D03*
X166690000Y77460000D03*
%TD*%
D43*
%TO.C,C265*%
X98330000Y43160000D03*
X97830000Y43160000D03*
%TD*%
D78*
%TO.C,ADTR1107_16*%
X156333288Y150631385D03*
X156792908Y150171766D03*
X157252527Y149712146D03*
X157712146Y149252527D03*
X158171766Y148792908D03*
X158631385Y148333288D03*
D63*
X159368615Y148333288D03*
X159828234Y148792908D03*
X160287854Y149252527D03*
X160747473Y149712146D03*
X161207092Y150171766D03*
X161666712Y150631385D03*
D78*
X161666712Y151368615D03*
X161207092Y151828234D03*
X160747473Y152287854D03*
X160287854Y152747473D03*
X159828234Y153207092D03*
X159368615Y153666712D03*
D63*
X158631385Y153666712D03*
X158171766Y153207092D03*
X157712146Y152747473D03*
X157252527Y152287854D03*
X156792908Y151828234D03*
X156333288Y151368615D03*
D88*
X159000000Y151000000D03*
%TD*%
D68*
%TO.C,L21*%
X117270000Y65020000D03*
X112270000Y65020000D03*
%TD*%
D33*
%TO.C,R157*%
X22965000Y165290000D03*
X23475000Y165290000D03*
%TD*%
D13*
%TO.C,C276*%
X104580000Y39570000D03*
X104580000Y40070000D03*
%TD*%
D36*
%TO.C,C234*%
X162506777Y130853223D03*
X162153223Y131206777D03*
%TD*%
D26*
%TO.C,C219*%
X209460070Y154043805D03*
X209106516Y153690251D03*
%TD*%
D67*
%TO.C,JP8*%
X44640000Y87020000D03*
X47180000Y87020000D03*
X49720000Y87020000D03*
X52260000Y87020000D03*
%TD*%
D13*
%TO.C,C304*%
X214650000Y54570000D03*
X214650000Y55070000D03*
%TD*%
D39*
%TO.C,U39*%
X170350040Y233193390D03*
X167979252Y235564178D03*
%TD*%
D26*
%TO.C,C153*%
X38907967Y194508898D03*
X38554413Y194155344D03*
%TD*%
D94*
%TO.C,U$2*%
X100860000Y211910000D03*
X82445000Y211910000D03*
%TD*%
D16*
%TO.C,RF_SW_10*%
X238836791Y128833310D03*
X239190345Y128479756D03*
X239543898Y128126203D03*
X239897452Y127772649D03*
D46*
X240816690Y127786791D03*
X241170244Y128140345D03*
X241523797Y128493898D03*
X241877351Y128847452D03*
D16*
X241877351Y129752548D03*
X241523797Y130106102D03*
X241170244Y130459655D03*
X240816690Y130813209D03*
D46*
X239897452Y130827351D03*
X239543898Y130473797D03*
X239190345Y130120244D03*
X238836791Y129766690D03*
D47*
X240350000Y129300000D03*
%TD*%
D59*
%TO.C,J34*%
X218840000Y198350000D03*
D28*
X218840000Y194757898D03*
X222432102Y198350000D03*
X218840000Y201942102D03*
X215247898Y198350000D03*
%TD*%
D31*
%TO.C,C225*%
X211213410Y128632358D03*
X211566964Y128278804D03*
%TD*%
D37*
%TO.C,C273*%
X103720000Y32040000D03*
X104220000Y32040000D03*
%TD*%
%TO.C,C177*%
X62395000Y173585000D03*
X62895000Y173585000D03*
%TD*%
D25*
%TO.C,R5*%
X53415000Y172940000D03*
X52905000Y172940000D03*
%TD*%
D44*
%TO.C,X45*%
X162354712Y54953493D03*
X164894712Y54953493D03*
X167434712Y54953493D03*
%TD*%
D14*
%TO.C,R24*%
X53440000Y200845000D03*
X53440000Y201355000D03*
%TD*%
D13*
%TO.C,C296*%
X154300000Y39470000D03*
X154300000Y39970000D03*
%TD*%
D33*
%TO.C,R106*%
X61045000Y26370000D03*
X61555000Y26370000D03*
%TD*%
%TO.C,R162*%
X87365000Y185340000D03*
X87875000Y185340000D03*
%TD*%
%TO.C,R161*%
X87365000Y184440000D03*
X87875000Y184440000D03*
%TD*%
D44*
%TO.C,X_6*%
X39230000Y29500000D03*
X41770000Y29500000D03*
%TD*%
D36*
%TO.C,C110*%
X60657142Y193984816D03*
X60303588Y194338370D03*
%TD*%
D77*
%TO.C,ADTR1107_3*%
X141368615Y224333288D03*
X141828234Y224792908D03*
X142287854Y225252527D03*
X142747473Y225712146D03*
X143207092Y226171766D03*
X143666712Y226631385D03*
D78*
X143666712Y227368615D03*
X143207092Y227828234D03*
X142747473Y228287854D03*
X142287854Y228747473D03*
X141828234Y229207092D03*
X141368615Y229666712D03*
D77*
X140631385Y229666712D03*
X140171766Y229207092D03*
X139712146Y228747473D03*
X139252527Y228287854D03*
X138792908Y227828234D03*
X138333288Y227368615D03*
D78*
X138333288Y226631385D03*
X138792908Y226171766D03*
X139252527Y225712146D03*
X139712146Y225252527D03*
X140171766Y224792908D03*
X140631385Y224333288D03*
D79*
X141000000Y227000000D03*
%TD*%
D22*
%TO.C,C332*%
X97786478Y227298375D03*
X97786478Y225998375D03*
%TD*%
D29*
%TO.C,J52*%
X128700000Y149140000D03*
D28*
X125107898Y149140000D03*
X128700000Y145547898D03*
X132292102Y149140000D03*
X128700000Y152732102D03*
%TD*%
D37*
%TO.C,C28*%
X82163500Y115042812D03*
X82663500Y115042812D03*
%TD*%
D36*
%TO.C,C137*%
X135668417Y203055988D03*
X135314863Y203409542D03*
%TD*%
D26*
%TO.C,C199*%
X236996777Y230346777D03*
X236643223Y229993223D03*
%TD*%
D38*
%TO.C,X9*%
X4620000Y254920000D03*
X4620000Y252380000D03*
%TD*%
D59*
%TO.C,J50*%
X158330000Y161940000D03*
D28*
X158330000Y158347898D03*
X161922102Y161940000D03*
X158330000Y165532102D03*
X154737898Y161940000D03*
%TD*%
D67*
%TO.C,JP18*%
X37260000Y86500000D03*
X34720000Y86500000D03*
X32180000Y86500000D03*
X29640000Y86500000D03*
%TD*%
D92*
%TO.C,D5*%
X76680000Y117573000D03*
X76680000Y119327000D03*
%TD*%
D34*
%TO.C,C94*%
X225685000Y137920000D03*
X225685000Y137420000D03*
%TD*%
D85*
%TO.C,U79*%
X119074793Y28998600D03*
X119074793Y29648600D03*
X119074793Y30298600D03*
X119074793Y30948600D03*
X114674793Y30948600D03*
X114674793Y30298600D03*
X114674793Y29648600D03*
X114674793Y28998600D03*
%TD*%
D25*
%TO.C,R6*%
X56055000Y173040000D03*
X55545000Y173040000D03*
%TD*%
D59*
%TO.C,J26*%
X144440000Y197240000D03*
D28*
X144440000Y193647898D03*
X148032102Y197240000D03*
X144440000Y200832102D03*
X140847898Y197240000D03*
%TD*%
D27*
%TO.C,J1*%
X67000000Y185900000D03*
D28*
X64460000Y188440000D03*
X64460000Y183360000D03*
X69540000Y183360000D03*
X69540000Y188440000D03*
%TD*%
D25*
%TO.C,R63*%
X8370000Y185785000D03*
X7860000Y185785000D03*
%TD*%
D83*
%TO.C,U59*%
X132183015Y121222934D03*
X134553803Y118852146D03*
%TD*%
D46*
%TO.C,RF_SW_16*%
X163716690Y155186791D03*
X164070244Y155540345D03*
X164423797Y155893898D03*
X164777351Y156247452D03*
D41*
X164763209Y157166690D03*
X164409655Y157520244D03*
X164056102Y157873797D03*
X163702548Y158227351D03*
D46*
X162797452Y158227351D03*
X162443898Y157873797D03*
X162090345Y157520244D03*
X161736791Y157166690D03*
D41*
X161722649Y156247452D03*
X162076203Y155893898D03*
X162429756Y155540345D03*
X162783310Y155186791D03*
D80*
X163250000Y156700000D03*
%TD*%
D14*
%TO.C,R55*%
X227410000Y222340000D03*
X227410000Y222850000D03*
%TD*%
D43*
%TO.C,C280*%
X168730000Y43010000D03*
X168230000Y43010000D03*
%TD*%
D36*
%TO.C,C244*%
X240127052Y234909738D03*
X239773498Y235263292D03*
%TD*%
D31*
%TO.C,C242*%
X241163073Y233800133D03*
X241516627Y233446579D03*
%TD*%
D57*
%TO.C,C171*%
X238964938Y203269163D03*
X239318492Y203622717D03*
%TD*%
D13*
%TO.C,C46*%
X58570000Y148025000D03*
X58570000Y148525000D03*
%TD*%
D95*
%TO.C,U15*%
X110850000Y184046400D03*
X110850000Y180693600D03*
%TD*%
D96*
%TO.C,C184*%
X11050000Y235000000D03*
X12950000Y235000000D03*
%TD*%
D26*
%TO.C,C130*%
X164963755Y203688161D03*
X164610201Y203334607D03*
%TD*%
D37*
%TO.C,C29*%
X75698571Y115042812D03*
X76198571Y115042812D03*
%TD*%
D97*
%TO.C,U7*%
X46685000Y51790000D03*
X46685000Y51290000D03*
X46685000Y50790000D03*
X46685000Y50290000D03*
X46685000Y49790000D03*
X46685000Y49290000D03*
D98*
X47409685Y48565000D03*
X47909813Y48565000D03*
X48409938Y48565000D03*
X48910062Y48565000D03*
X49410187Y48565000D03*
X49910315Y48565000D03*
D97*
X50635000Y49290000D03*
X50635000Y49790000D03*
X50635000Y50290000D03*
X50635000Y50790000D03*
X50635000Y51290000D03*
X50635000Y51790000D03*
D98*
X49910315Y52515000D03*
X49410187Y52515000D03*
X48910062Y52515000D03*
X48409938Y52515000D03*
X47909813Y52515000D03*
X47409685Y52515000D03*
D99*
X48660000Y50540000D03*
D100*
X47872600Y49752600D03*
X47872600Y50540000D03*
X47872600Y51327400D03*
X48660000Y49752600D03*
X48660000Y50540000D03*
X48660000Y51327400D03*
X49447400Y49752600D03*
X49447400Y50540000D03*
X49447400Y51327400D03*
%TD*%
D33*
%TO.C,R122*%
X31065000Y26170000D03*
X31575000Y26170000D03*
%TD*%
D13*
%TO.C,C6*%
X57045000Y153570000D03*
X57045000Y154070000D03*
%TD*%
D37*
%TO.C,L25*%
X77695000Y213410000D03*
X78245000Y213410000D03*
%TD*%
%TO.C,C25*%
X87071600Y96000112D03*
X87571600Y96000112D03*
%TD*%
D95*
%TO.C,U14*%
X110850000Y178296400D03*
X110850000Y174943600D03*
%TD*%
D13*
%TO.C,C272*%
X82500000Y216100000D03*
X82500000Y216600000D03*
%TD*%
D57*
%TO.C,C210*%
X243017382Y127883732D03*
X243370936Y128237286D03*
%TD*%
D13*
%TO.C,C34*%
X61353659Y93494106D03*
X61353659Y93994106D03*
%TD*%
D37*
%TO.C,C289*%
X37850000Y176875000D03*
X38350000Y176875000D03*
%TD*%
D101*
%TO.C,U13*%
X84207800Y144050000D03*
X84207800Y144550000D03*
X84207800Y145050000D03*
D102*
X83260000Y145502500D03*
X82760000Y145502500D03*
X82260000Y145502500D03*
D101*
X81312200Y145050000D03*
X81312200Y144550000D03*
X81312200Y144050000D03*
D102*
X82260000Y143597500D03*
X82760000Y143597500D03*
X83260000Y143597500D03*
%TD*%
D31*
%TO.C,C220*%
X213493223Y153106777D03*
X213846777Y152753223D03*
%TD*%
D33*
%TO.C,R51*%
X25920000Y180490000D03*
X26430000Y180490000D03*
%TD*%
D37*
%TO.C,C300*%
X202920000Y31100000D03*
X203420000Y31100000D03*
%TD*%
D26*
%TO.C,C68*%
X133876777Y231148492D03*
X133523223Y230794938D03*
%TD*%
D14*
%TO.C,R125*%
X107400000Y43215000D03*
X107400000Y43725000D03*
%TD*%
D25*
%TO.C,R172*%
X86835000Y98620000D03*
X86325000Y98620000D03*
%TD*%
D44*
%TO.C,X_10*%
X69130000Y14700000D03*
X71670000Y14700000D03*
%TD*%
D41*
%TO.C,RF_SW_11*%
X212563209Y155716690D03*
X212209655Y156070244D03*
X211856102Y156423797D03*
X211502548Y156777351D03*
D15*
X210583310Y156763209D03*
X210229756Y156409655D03*
X209876203Y156056102D03*
X209522649Y155702548D03*
D41*
X209522649Y154797452D03*
X209876203Y154443898D03*
X210229756Y154090345D03*
X210583310Y153736791D03*
D15*
X211502548Y153722649D03*
X211856102Y154076203D03*
X212209655Y154429756D03*
X212563209Y154783310D03*
D42*
X211050000Y155250000D03*
%TD*%
D25*
%TO.C,R89*%
X61585000Y47830000D03*
X61075000Y47830000D03*
%TD*%
D89*
%TO.C,C322*%
X182980000Y79090000D03*
X182980000Y76290000D03*
%TD*%
D90*
%TO.C,R1*%
X59230000Y151210000D03*
X59230000Y150210000D03*
%TD*%
D43*
%TO.C,C279*%
X76629071Y89353590D03*
X76129071Y89353590D03*
%TD*%
D103*
%TO.C,U1*%
X61850000Y163152400D03*
X61350000Y163152400D03*
X60850000Y163152400D03*
X60350000Y163152400D03*
X59850000Y163152400D03*
X59350000Y163152400D03*
X58850000Y163152400D03*
X58350000Y163152400D03*
X57850000Y163152400D03*
X57350000Y163152400D03*
X56850000Y163152400D03*
X56350000Y163152400D03*
X55850000Y163152400D03*
X55350000Y163152400D03*
D104*
X54697600Y162500000D03*
X54697600Y162000000D03*
X54697600Y161500000D03*
X54697600Y161000000D03*
X54697600Y160500000D03*
X54697600Y160000000D03*
X54697600Y159500000D03*
X54697600Y159000000D03*
X54697600Y158500000D03*
X54697600Y158000000D03*
X54697600Y157500000D03*
X54697600Y157000000D03*
X54697600Y156500000D03*
X54697600Y156000000D03*
D103*
X55350000Y155347600D03*
X55850000Y155347600D03*
X56350000Y155347600D03*
X56850000Y155347600D03*
X57350000Y155347600D03*
X57850000Y155347600D03*
X58350000Y155347600D03*
X58850000Y155347600D03*
X59350000Y155347600D03*
X59850000Y155347600D03*
X60350000Y155347600D03*
X60850000Y155347600D03*
X61350000Y155347600D03*
X61850000Y155347600D03*
D104*
X62502400Y156000000D03*
X62502400Y156500000D03*
X62502400Y157000000D03*
X62502400Y157500000D03*
X62502400Y158000000D03*
X62502400Y158500000D03*
X62502400Y159000000D03*
X62502400Y159500000D03*
X62502400Y160000000D03*
X62502400Y160500000D03*
X62502400Y161000000D03*
X62502400Y161500000D03*
X62502400Y162000000D03*
X62502400Y162500000D03*
D105*
X58600000Y159250000D03*
%TD*%
D60*
%TO.C,C323*%
X203080000Y79190000D03*
X203080000Y77290000D03*
%TD*%
D25*
%TO.C,R32*%
X59010000Y133600000D03*
X58500000Y133600000D03*
%TD*%
D29*
%TO.C,J46*%
X218940000Y120930000D03*
D28*
X215347898Y120930000D03*
X218940000Y117337898D03*
X222532102Y120930000D03*
X218940000Y124522102D03*
%TD*%
D57*
%TO.C,C238*%
X242622973Y204154588D03*
X242976527Y204508142D03*
%TD*%
D26*
%TO.C,C213*%
X237046777Y154396777D03*
X236693223Y154043223D03*
%TD*%
D56*
%TO.C,U83*%
X132675281Y46038831D03*
X132675281Y45388831D03*
X132675281Y44738831D03*
X132675281Y44088831D03*
X137075281Y44088831D03*
X137075281Y44738831D03*
X137075281Y45388831D03*
X137075281Y46038831D03*
%TD*%
D37*
%TO.C,L28*%
X77215000Y145570000D03*
X77765000Y145570000D03*
%TD*%
D30*
%TO.C,R86*%
X64390000Y47325000D03*
X64390000Y46815000D03*
%TD*%
%TO.C,R67*%
X8485000Y182725000D03*
X8485000Y182215000D03*
%TD*%
D36*
%TO.C,C215*%
X210906395Y126027254D03*
X210552841Y126380808D03*
%TD*%
D30*
%TO.C,R147*%
X144630000Y31985000D03*
X144630000Y31475000D03*
%TD*%
D32*
%TO.C,C345*%
X109536762Y44685746D03*
X109536762Y45985746D03*
%TD*%
D57*
%TO.C,C106*%
X215676760Y212712613D03*
X216030314Y213066167D03*
%TD*%
D25*
%TO.C,R8*%
X49205000Y173010000D03*
X48695000Y173010000D03*
%TD*%
D22*
%TO.C,C324*%
X205590000Y79290000D03*
X205590000Y77990000D03*
%TD*%
D87*
%TO.C,L5*%
X88684400Y109020343D03*
X89984400Y109020343D03*
%TD*%
D25*
%TO.C,R117*%
X70035000Y212870000D03*
X69525000Y212870000D03*
%TD*%
D31*
%TO.C,C139*%
X136841454Y202034139D03*
X137195008Y201680585D03*
%TD*%
D26*
%TO.C,C148*%
X209509752Y231565748D03*
X209156198Y231212194D03*
%TD*%
D34*
%TO.C,C20*%
X92730000Y103480000D03*
X92730000Y102980000D03*
%TD*%
D30*
%TO.C,R137*%
X134480000Y32035000D03*
X134480000Y31525000D03*
%TD*%
D37*
%TO.C,L9*%
X71385000Y144890000D03*
X71935000Y144890000D03*
%TD*%
D26*
%TO.C,C156*%
X38006405Y195403389D03*
X37652851Y195049835D03*
%TD*%
D53*
%TO.C,U45*%
X204474934Y233372869D03*
X202104146Y231002081D03*
%TD*%
D33*
%TO.C,R92*%
X61105000Y56170000D03*
X61615000Y56170000D03*
%TD*%
D31*
%TO.C,C167*%
X166000688Y158274908D03*
X166354242Y157921354D03*
%TD*%
D30*
%TO.C,R101*%
X64300000Y27385000D03*
X64300000Y26875000D03*
%TD*%
D31*
%TO.C,C230*%
X212533457Y201829748D03*
X212887011Y201476194D03*
%TD*%
D81*
%TO.C,L17*%
X28510000Y37480000D03*
X33510000Y37480000D03*
%TD*%
D57*
%TO.C,C204*%
X238812401Y127397744D03*
X239165955Y127751298D03*
%TD*%
D37*
%TO.C,C179*%
X62390000Y172940000D03*
X62890000Y172940000D03*
%TD*%
D106*
%TO.C,C340*%
X194865084Y32969743D03*
X192965084Y32969743D03*
%TD*%
D26*
%TO.C,C209*%
X208315595Y156717655D03*
X207962041Y156364101D03*
%TD*%
D29*
%TO.C,J44*%
X205050000Y149710000D03*
D28*
X201457898Y149710000D03*
X205050000Y146117898D03*
X208642102Y149710000D03*
X205050000Y153302102D03*
%TD*%
D26*
%TO.C,C144*%
X160746777Y230096777D03*
X160393223Y229743223D03*
%TD*%
D37*
%TO.C,C294*%
X164520000Y32040000D03*
X165020000Y32040000D03*
%TD*%
D33*
%TO.C,R96*%
X34565000Y47770000D03*
X35075000Y47770000D03*
%TD*%
D57*
%TO.C,C183*%
X166554707Y128230304D03*
X166908261Y128583858D03*
%TD*%
D44*
%TO.C,X21*%
X186250000Y78770000D03*
X188790000Y78770000D03*
%TD*%
D30*
%TO.C,R52*%
X26110000Y183375000D03*
X26110000Y182865000D03*
%TD*%
D77*
%TO.C,ADTR1107_11*%
X217368615Y148333288D03*
X217828234Y148792908D03*
X218287854Y149252527D03*
X218747473Y149712146D03*
X219207092Y150171766D03*
X219666712Y150631385D03*
D78*
X219666712Y151368615D03*
X219207092Y151828234D03*
X218747473Y152287854D03*
X218287854Y152747473D03*
X217828234Y153207092D03*
X217368615Y153666712D03*
D77*
X216631385Y153666712D03*
X216171766Y153207092D03*
X215712146Y152747473D03*
X215252527Y152287854D03*
X214792908Y151828234D03*
X214333288Y151368615D03*
D78*
X214333288Y150631385D03*
X214792908Y150171766D03*
X215252527Y149712146D03*
X215712146Y149252527D03*
X216171766Y148792908D03*
X216631385Y148333288D03*
D79*
X217000000Y151000000D03*
%TD*%
D34*
%TO.C,C96*%
X226235000Y136280000D03*
X226235000Y135780000D03*
%TD*%
D13*
%TO.C,C86*%
X226365000Y222745000D03*
X226365000Y223245000D03*
%TD*%
D34*
%TO.C,L2*%
X76230000Y145525000D03*
X76230000Y144975000D03*
%TD*%
D37*
%TO.C,L22*%
X77685000Y214020000D03*
X78235000Y214020000D03*
%TD*%
D30*
%TO.C,R109*%
X34400000Y27285000D03*
X34400000Y26775000D03*
%TD*%
D37*
%TO.C,C278*%
X104270000Y36280000D03*
X104770000Y36280000D03*
%TD*%
D32*
%TO.C,C262*%
X89698537Y44617618D03*
X89698537Y45917618D03*
%TD*%
D91*
%TO.C,JP3*%
X5540000Y180610000D03*
X3000000Y180610000D03*
X5540000Y183150000D03*
X3000000Y183150000D03*
X5540000Y185690000D03*
X3000000Y185690000D03*
X5540000Y188230000D03*
X3000000Y188230000D03*
%TD*%
D87*
%TO.C,C186*%
X8350000Y232000000D03*
X9650000Y232000000D03*
%TD*%
D30*
%TO.C,R78*%
X226875000Y222860000D03*
X226875000Y222350000D03*
%TD*%
D13*
%TO.C,C31*%
X65663265Y115014737D03*
X65663265Y115514737D03*
%TD*%
D34*
%TO.C,C26*%
X87092175Y101510615D03*
X87092175Y101010615D03*
%TD*%
D31*
%TO.C,C118*%
X220469494Y152151958D03*
X220823048Y151798404D03*
%TD*%
D25*
%TO.C,R9*%
X51045000Y172960000D03*
X50535000Y172960000D03*
%TD*%
D38*
%TO.C,X8*%
X5970000Y173610000D03*
X5970000Y171070000D03*
%TD*%
D44*
%TO.C,X_1*%
X26770000Y14500000D03*
X24230000Y14500000D03*
%TD*%
%TO.C,X47*%
X142490446Y54951746D03*
X145030446Y54951746D03*
X147570446Y54951746D03*
%TD*%
D92*
%TO.C,D3*%
X71880000Y117593000D03*
X71880000Y119347000D03*
%TD*%
D14*
%TO.C,R170*%
X79170000Y89815000D03*
X79170000Y90325000D03*
%TD*%
D31*
%TO.C,C140*%
X136214507Y201429495D03*
X136568061Y201075941D03*
%TD*%
D33*
%TO.C,R143*%
X59815000Y183405000D03*
X60325000Y183405000D03*
%TD*%
D36*
%TO.C,C169*%
X164889439Y159334963D03*
X164535885Y159688517D03*
%TD*%
D30*
%TO.C,R45*%
X151960000Y214000000D03*
X151960000Y213490000D03*
%TD*%
D34*
%TO.C,C274*%
X82740000Y142610000D03*
X82740000Y142110000D03*
%TD*%
D26*
%TO.C,C117*%
X236411830Y147315377D03*
X236058276Y146961823D03*
%TD*%
D18*
%TO.C,JP19*%
X219870000Y52680000D03*
X219870000Y50140000D03*
X219870000Y47600000D03*
%TD*%
D14*
%TO.C,R77*%
X148420578Y131943562D03*
X148420578Y132453562D03*
%TD*%
D33*
%TO.C,R98*%
X31325000Y56170000D03*
X31835000Y56170000D03*
%TD*%
D37*
%TO.C,C288*%
X133470000Y32040000D03*
X133970000Y32040000D03*
%TD*%
D85*
%TO.C,U84*%
X139227865Y29041906D03*
X139227865Y29691906D03*
X139227865Y30341906D03*
X139227865Y30991906D03*
X134827865Y30991906D03*
X134827865Y30341906D03*
X134827865Y29691906D03*
X134827865Y29041906D03*
%TD*%
D13*
%TO.C,C306*%
X193600000Y54770000D03*
X193600000Y55270000D03*
%TD*%
D56*
%TO.C,U80*%
X162787803Y46151109D03*
X162787803Y45501109D03*
X162787803Y44851109D03*
X162787803Y44201109D03*
X167187803Y44201109D03*
X167187803Y44851109D03*
X167187803Y45501109D03*
X167187803Y46151109D03*
%TD*%
D57*
%TO.C,C119*%
X215507913Y136829366D03*
X215861467Y137182920D03*
%TD*%
D13*
%TO.C,C63*%
X73840000Y144980000D03*
X73840000Y145480000D03*
%TD*%
%TO.C,C45*%
X59310000Y147830000D03*
X59310000Y148330000D03*
%TD*%
D14*
%TO.C,R79*%
X224600000Y137340000D03*
X224600000Y137850000D03*
%TD*%
D97*
%TO.C,U69*%
X46375000Y22690000D03*
X46375000Y22190000D03*
X46375000Y21690000D03*
X46375000Y21190000D03*
X46375000Y20690000D03*
X46375000Y20190000D03*
D98*
X47099685Y19465000D03*
X47599813Y19465000D03*
X48099938Y19465000D03*
X48600062Y19465000D03*
X49100187Y19465000D03*
X49600315Y19465000D03*
D97*
X50325000Y20190000D03*
X50325000Y20690000D03*
X50325000Y21190000D03*
X50325000Y21690000D03*
X50325000Y22190000D03*
X50325000Y22690000D03*
D98*
X49600315Y23415000D03*
X49100187Y23415000D03*
X48600062Y23415000D03*
X48099938Y23415000D03*
X47599813Y23415000D03*
X47099685Y23415000D03*
D99*
X48350000Y21440000D03*
D100*
X47562600Y20652600D03*
X47562600Y21440000D03*
X47562600Y22227400D03*
X48350000Y20652600D03*
X48350000Y21440000D03*
X48350000Y22227400D03*
X49137400Y20652600D03*
X49137400Y21440000D03*
X49137400Y22227400D03*
%TD*%
D67*
%TO.C,JP2*%
X39620000Y80870000D03*
X42160000Y80870000D03*
X44700000Y80870000D03*
X47240000Y80870000D03*
X49780000Y80870000D03*
X52320000Y80870000D03*
%TD*%
D22*
%TO.C,C337*%
X39690000Y38370000D03*
X39690000Y37070000D03*
%TD*%
D57*
%TO.C,C227*%
X214843223Y129443223D03*
X215196777Y129796777D03*
%TD*%
D34*
%TO.C,C84*%
X115934450Y177266143D03*
X115934450Y176766143D03*
%TD*%
D30*
%TO.C,R53*%
X17510000Y184505000D03*
X17510000Y183995000D03*
%TD*%
D29*
%TO.C,J55*%
X130170000Y133590000D03*
D28*
X126577898Y133590000D03*
X130170000Y129997898D03*
X133762102Y133590000D03*
X130170000Y137182102D03*
%TD*%
D30*
%TO.C,R88*%
X61590000Y57185000D03*
X61590000Y56675000D03*
%TD*%
D26*
%TO.C,C246*%
X136630523Y156995067D03*
X136276969Y156641513D03*
%TD*%
D107*
%TO.C,ADAR3_0*%
X226000000Y142000000D03*
D108*
X223000000Y145000000D03*
X223500000Y145000000D03*
X224000000Y145000000D03*
X224500000Y145000000D03*
X225000000Y145000000D03*
X225500000Y145000000D03*
X226000000Y145000000D03*
X226500000Y145000000D03*
X227000000Y145000000D03*
X227500000Y145000000D03*
X228000000Y145000000D03*
X228500000Y145000000D03*
X229000000Y145000000D03*
X223000000Y144500000D03*
X223500000Y144500000D03*
X224000000Y144500000D03*
X224500000Y144500000D03*
X225000000Y144500000D03*
X225500000Y144500000D03*
X226000000Y144500000D03*
X226500000Y144500000D03*
X227000000Y144500000D03*
X227500000Y144500000D03*
X228000000Y144500000D03*
X228500000Y144500000D03*
X229000000Y144500000D03*
X223000000Y144000000D03*
X223500000Y144000000D03*
X228500000Y144000000D03*
X229000000Y144000000D03*
X223000000Y143500000D03*
X223500000Y143500000D03*
X228500000Y143500000D03*
X229000000Y143500000D03*
X223000000Y143000000D03*
X223500000Y143000000D03*
X228500000Y143000000D03*
X229000000Y143000000D03*
X223000000Y142500000D03*
X223500000Y142500000D03*
X228500000Y142500000D03*
X229000000Y142500000D03*
X223000000Y142000000D03*
X223500000Y142000000D03*
X228500000Y142000000D03*
X229000000Y142000000D03*
X223000000Y141500000D03*
X223500000Y141500000D03*
X228500000Y141500000D03*
X229000000Y141500000D03*
X223000000Y141000000D03*
X223500000Y141000000D03*
X228500000Y141000000D03*
X229000000Y141000000D03*
X223000000Y140500000D03*
X223500000Y140500000D03*
X228500000Y140500000D03*
X229000000Y140500000D03*
X223000000Y140000000D03*
X223500000Y140000000D03*
X228500000Y140000000D03*
X229000000Y140000000D03*
X223000000Y139500000D03*
X223500000Y139500000D03*
X224000000Y139500000D03*
X224500000Y139500000D03*
X225000000Y139500000D03*
X225500000Y139500000D03*
X226000000Y139500000D03*
X226500000Y139500000D03*
X227000000Y139500000D03*
X227500000Y139500000D03*
X228000000Y139500000D03*
X228500000Y139500000D03*
X229000000Y139500000D03*
X223000000Y139000000D03*
X223500000Y139000000D03*
X224000000Y139000000D03*
X224500000Y139000000D03*
X225000000Y139000000D03*
X225500000Y139000000D03*
X226000000Y139000000D03*
X226500000Y139000000D03*
X227000000Y139000000D03*
X227500000Y139000000D03*
X228000000Y139000000D03*
X228500000Y139000000D03*
X229000000Y139000000D03*
%TD*%
D30*
%TO.C,R12*%
X59570000Y178975000D03*
X59570000Y178465000D03*
%TD*%
D31*
%TO.C,C254*%
X138250835Y125631042D03*
X138604389Y125277488D03*
%TD*%
D109*
%TO.C,U89*%
X202875000Y38079400D03*
X202225000Y38079400D03*
X201575000Y38079400D03*
X200925000Y38079400D03*
X200275004Y38079400D03*
X199625000Y38079400D03*
X198975004Y38079400D03*
X198325000Y38079400D03*
X198325000Y32440600D03*
X198975000Y32440600D03*
X199625000Y32440600D03*
X200275000Y32440600D03*
X200924996Y32440600D03*
X201575000Y32440600D03*
X202224996Y32440600D03*
X202875000Y32440600D03*
%TD*%
D110*
%TO.C,R38*%
X55160000Y150330000D03*
X55160000Y151330000D03*
%TD*%
D18*
%TO.C,JP14*%
X214920000Y52670000D03*
X214920000Y50130000D03*
X214920000Y47590000D03*
%TD*%
D30*
%TO.C,R47*%
X152501653Y225284787D03*
X152501653Y224774787D03*
%TD*%
D37*
%TO.C,L24*%
X77225000Y144940000D03*
X77775000Y144940000D03*
%TD*%
D18*
%TO.C,JP5*%
X204370000Y52520000D03*
X204370000Y49980000D03*
X204370000Y47440000D03*
%TD*%
D29*
%TO.C,J25*%
X142750078Y237019915D03*
D28*
X139157976Y237019915D03*
X142750078Y233427813D03*
X146342180Y237019915D03*
X142750078Y240612017D03*
%TD*%
D67*
%TO.C,JP17*%
X68490000Y125380000D03*
X65950000Y125380000D03*
X63410000Y125380000D03*
%TD*%
D39*
%TO.C,U64*%
X247552159Y157635862D03*
X245181371Y160006650D03*
%TD*%
D37*
%TO.C,C62*%
X75300000Y145560000D03*
X75800000Y145560000D03*
%TD*%
D32*
%TO.C,L6*%
X67435000Y214575000D03*
X67435000Y215875000D03*
%TD*%
D38*
%TO.C,X18*%
X5520000Y142830000D03*
X5520000Y140290000D03*
%TD*%
D22*
%TO.C,C321*%
X209130000Y290780000D03*
X209130000Y289480000D03*
%TD*%
D36*
%TO.C,C116*%
X231400248Y131653298D03*
X231046694Y132006852D03*
%TD*%
D61*
%TO.C,OPA_1*%
X31050000Y19180600D03*
X31700000Y19180600D03*
X32350000Y19180600D03*
X33000000Y19180600D03*
X33650000Y19180600D03*
X34300000Y19180600D03*
X34950000Y19180600D03*
X34950000Y24819400D03*
X34300000Y24819400D03*
X33650000Y24819400D03*
X33000000Y24819400D03*
X32350000Y24819400D03*
X31700000Y24819400D03*
X31050000Y24819400D03*
%TD*%
D60*
%TO.C,C312*%
X23230000Y157440000D03*
X23230000Y155540000D03*
%TD*%
D70*
%TO.C,ADAR1_0*%
X150000000Y218000000D03*
D71*
X153000000Y215000000D03*
X152500000Y215000000D03*
X152000000Y215000000D03*
X151500000Y215000000D03*
X151000000Y215000000D03*
X150500000Y215000000D03*
X150000000Y215000000D03*
X149500000Y215000000D03*
X149000000Y215000000D03*
X148500000Y215000000D03*
X148000000Y215000000D03*
X147500000Y215000000D03*
X147000000Y215000000D03*
X153000000Y215500000D03*
X152500000Y215500000D03*
X152000000Y215500000D03*
X151500000Y215500000D03*
X151000000Y215500000D03*
X150500000Y215500000D03*
X150000000Y215500000D03*
X149500000Y215500000D03*
X149000000Y215500000D03*
X148500000Y215500000D03*
X148000000Y215500000D03*
X147500000Y215500000D03*
X147000000Y215500000D03*
X153000000Y216000000D03*
X152500000Y216000000D03*
X147500000Y216000000D03*
X147000000Y216000000D03*
X153000000Y216500000D03*
X152500000Y216500000D03*
X147500000Y216500000D03*
X147000000Y216500000D03*
X153000000Y217000000D03*
X152500000Y217000000D03*
X147500000Y217000000D03*
X147000000Y217000000D03*
X153000000Y217500000D03*
X152500000Y217500000D03*
X147500000Y217500000D03*
X147000000Y217500000D03*
X153000000Y218000000D03*
X152500000Y218000000D03*
X147500000Y218000000D03*
X147000000Y218000000D03*
X153000000Y218500000D03*
X152500000Y218500000D03*
X147500000Y218500000D03*
X147000000Y218500000D03*
X153000000Y219000000D03*
X152500000Y219000000D03*
X147500000Y219000000D03*
X147000000Y219000000D03*
X153000000Y219500000D03*
X152500000Y219500000D03*
X147500000Y219500000D03*
X147000000Y219500000D03*
X153000000Y220000000D03*
X152500000Y220000000D03*
X147500000Y220000000D03*
X147000000Y220000000D03*
X153000000Y220500000D03*
X152500000Y220500000D03*
X152000000Y220500000D03*
X151500000Y220500000D03*
X151000000Y220500000D03*
X150500000Y220500000D03*
X150000000Y220500000D03*
X149500000Y220500000D03*
X149000000Y220500000D03*
X148500000Y220500000D03*
X148000000Y220500000D03*
X147500000Y220500000D03*
X147000000Y220500000D03*
X153000000Y221000000D03*
X152500000Y221000000D03*
X152000000Y221000000D03*
X151500000Y221000000D03*
X151000000Y221000000D03*
X150500000Y221000000D03*
X150000000Y221000000D03*
X149500000Y221000000D03*
X149000000Y221000000D03*
X148500000Y221000000D03*
X148000000Y221000000D03*
X147500000Y221000000D03*
X147000000Y221000000D03*
%TD*%
D30*
%TO.C,R153*%
X200330000Y30735000D03*
X200330000Y30225000D03*
%TD*%
D81*
%TO.C,L13*%
X194470000Y79230000D03*
X199470000Y79230000D03*
%TD*%
D36*
%TO.C,C136*%
X162106777Y207243223D03*
X161753223Y207596777D03*
%TD*%
D13*
%TO.C,C12*%
X61895000Y153520000D03*
X61895000Y154020000D03*
%TD*%
D29*
%TO.C,J28*%
X170810000Y212460000D03*
D28*
X167217898Y212460000D03*
X170810000Y208867898D03*
X174402102Y212460000D03*
X170810000Y216052102D03*
%TD*%
D64*
%TO.C,ADTR1107_9*%
X219666712Y133368615D03*
X219207092Y133828234D03*
X218747473Y134287854D03*
X218287854Y134747473D03*
X217828234Y135207092D03*
X217368615Y135666712D03*
D77*
X216631385Y135666712D03*
X216171766Y135207092D03*
X215712146Y134747473D03*
X215252527Y134287854D03*
X214792908Y133828234D03*
X214333288Y133368615D03*
D64*
X214333288Y132631385D03*
X214792908Y132171766D03*
X215252527Y131712146D03*
X215712146Y131252527D03*
X216171766Y130792908D03*
X216631385Y130333288D03*
D77*
X217368615Y130333288D03*
X217828234Y130792908D03*
X218287854Y131252527D03*
X218747473Y131712146D03*
X219207092Y132171766D03*
X219666712Y132631385D03*
D82*
X217000000Y133000000D03*
%TD*%
D31*
%TO.C,C107*%
X220722804Y228321033D03*
X221076358Y227967479D03*
%TD*%
D33*
%TO.C,R35*%
X60955000Y135680000D03*
X61465000Y135680000D03*
%TD*%
D83*
%TO.C,U60*%
X127532374Y125773575D03*
X129903162Y123402787D03*
%TD*%
D41*
%TO.C,RF_SW_15*%
X136613209Y155566690D03*
X136259655Y155920244D03*
X135906102Y156273797D03*
X135552548Y156627351D03*
D15*
X134633310Y156613209D03*
X134279756Y156259655D03*
X133926203Y155906102D03*
X133572649Y155552548D03*
D41*
X133572649Y154647452D03*
X133926203Y154293898D03*
X134279756Y153940345D03*
X134633310Y153586791D03*
D15*
X135552548Y153572649D03*
X135906102Y153926203D03*
X136259655Y154279756D03*
X136613209Y154633310D03*
D42*
X135100000Y155100000D03*
%TD*%
D37*
%TO.C,C287*%
X37850000Y176250000D03*
X38350000Y176250000D03*
%TD*%
D53*
%TO.C,U58*%
X133372294Y164766347D03*
X131001506Y162395559D03*
%TD*%
D60*
%TO.C,C336*%
X37480000Y38340000D03*
X37480000Y36440000D03*
%TD*%
D68*
%TO.C,L11*%
X180350000Y289220000D03*
X175350000Y289220000D03*
%TD*%
D26*
%TO.C,C158*%
X37097773Y196333236D03*
X36744219Y195979682D03*
%TD*%
D61*
%TO.C,OPA_4*%
X61050000Y49180600D03*
X61700000Y49180600D03*
X62350000Y49180600D03*
X63000000Y49180600D03*
X63650000Y49180600D03*
X64300000Y49180600D03*
X64950000Y49180600D03*
X64950000Y54819400D03*
X64300000Y54819400D03*
X63650000Y54819400D03*
X63000000Y54819400D03*
X62350000Y54819400D03*
X61700000Y54819400D03*
X61050000Y54819400D03*
%TD*%
D18*
%TO.C,JP11*%
X193820000Y52490000D03*
X193820000Y49950000D03*
X193820000Y47410000D03*
%TD*%
D13*
%TO.C,C87*%
X225915000Y222740000D03*
X225915000Y223240000D03*
%TD*%
D37*
%TO.C,L4*%
X74395000Y145560000D03*
X74945000Y145560000D03*
%TD*%
D14*
%TO.C,R27*%
X57240000Y200905000D03*
X57240000Y201415000D03*
%TD*%
D25*
%TO.C,R139*%
X69285000Y170495000D03*
X68775000Y170495000D03*
%TD*%
D29*
%TO.C,J24*%
X129191268Y223551593D03*
D28*
X125599166Y223551593D03*
X129191268Y219959491D03*
X132783370Y223551593D03*
X129191268Y227143695D03*
%TD*%
D37*
%TO.C,C269*%
X83420000Y32340000D03*
X83920000Y32340000D03*
%TD*%
D36*
%TO.C,C109*%
X59723761Y193051435D03*
X59370207Y193404989D03*
%TD*%
D31*
%TO.C,C196*%
X135531691Y124512314D03*
X135885245Y124158760D03*
%TD*%
D81*
%TO.C,L19*%
X5500000Y240000000D03*
X10500000Y240000000D03*
%TD*%
D36*
%TO.C,C124*%
X163048495Y233823223D03*
X162694941Y234176777D03*
%TD*%
D30*
%TO.C,R99*%
X61540000Y17475000D03*
X61540000Y16965000D03*
%TD*%
D34*
%TO.C,C97*%
X225710000Y136285000D03*
X225710000Y135785000D03*
%TD*%
D31*
%TO.C,C72*%
X137983223Y228686777D03*
X138336777Y228333223D03*
%TD*%
D37*
%TO.C,C275*%
X113370000Y32040000D03*
X113870000Y32040000D03*
%TD*%
D43*
%TO.C,C35*%
X71659190Y89461353D03*
X71159190Y89461353D03*
%TD*%
D14*
%TO.C,R111*%
X95140000Y108305000D03*
X95140000Y108815000D03*
%TD*%
D85*
%TO.C,U87*%
X170176859Y28954190D03*
X170176859Y29604190D03*
X170176859Y30254190D03*
X170176859Y30904190D03*
X165776859Y30904190D03*
X165776859Y30254190D03*
X165776859Y29604190D03*
X165776859Y28954190D03*
%TD*%
D14*
%TO.C,R134*%
X157370000Y43165000D03*
X157370000Y43675000D03*
%TD*%
D43*
%TO.C,C43*%
X58850000Y142075000D03*
X58350000Y142075000D03*
%TD*%
D57*
%TO.C,C205*%
X241884494Y130467710D03*
X242238048Y130821264D03*
%TD*%
D37*
%TO.C,C181*%
X62375000Y171665000D03*
X62875000Y171665000D03*
%TD*%
D13*
%TO.C,C89*%
X150965000Y222730000D03*
X150965000Y223230000D03*
%TD*%
%TO.C,C305*%
X188350000Y54870000D03*
X188350000Y55370000D03*
%TD*%
D29*
%TO.C,J49*%
X158250000Y122610000D03*
D28*
X154657898Y122610000D03*
X158250000Y119017898D03*
X161842102Y122610000D03*
X158250000Y126202102D03*
%TD*%
D34*
%TO.C,C82*%
X113662637Y178765056D03*
X113662637Y178265056D03*
%TD*%
D25*
%TO.C,R16*%
X58265000Y148940000D03*
X57755000Y148940000D03*
%TD*%
D44*
%TO.C,X40*%
X82334890Y55083209D03*
X84874890Y55083209D03*
X87414890Y55083209D03*
%TD*%
D36*
%TO.C,C239*%
X165171377Y155155391D03*
X164817823Y155508945D03*
%TD*%
D37*
%TO.C,C291*%
X37850000Y175600000D03*
X38350000Y175600000D03*
%TD*%
D44*
%TO.C,X_15*%
X54230000Y59500000D03*
X56770000Y59500000D03*
%TD*%
D46*
%TO.C,RF_SW_4*%
X162566690Y230246791D03*
X162920244Y230600345D03*
X163273797Y230953898D03*
X163627351Y231307452D03*
D41*
X163613209Y232226690D03*
X163259655Y232580244D03*
X162906102Y232933797D03*
X162552548Y233287351D03*
D46*
X161647452Y233287351D03*
X161293898Y232933797D03*
X160940345Y232580244D03*
X160586791Y232226690D03*
D41*
X160572649Y231307452D03*
X160926203Y230953898D03*
X161279756Y230600345D03*
X161633310Y230246791D03*
D80*
X162100000Y231760000D03*
%TD*%
D26*
%TO.C,C157*%
X37543248Y195859473D03*
X37189694Y195505919D03*
%TD*%
D13*
%TO.C,C32*%
X61338821Y105461028D03*
X61338821Y105961028D03*
%TD*%
D25*
%TO.C,R10*%
X48105000Y173010000D03*
X47595000Y173010000D03*
%TD*%
D22*
%TO.C,C317*%
X169190000Y290400000D03*
X169190000Y289100000D03*
%TD*%
D83*
%TO.C,U50*%
X204400074Y125942756D03*
X206770862Y123571968D03*
%TD*%
D61*
%TO.C,OPA_2*%
X31250000Y49130600D03*
X31900000Y49130600D03*
X32550000Y49130600D03*
X33200000Y49130600D03*
X33850000Y49130600D03*
X34500000Y49130600D03*
X35150000Y49130600D03*
X35150000Y54769400D03*
X34500000Y54769400D03*
X33850000Y54769400D03*
X33200000Y54769400D03*
X32550000Y54769400D03*
X31900000Y54769400D03*
X31250000Y54769400D03*
%TD*%
D36*
%TO.C,C142*%
X163995795Y230213713D03*
X163642241Y230567267D03*
%TD*%
D83*
%TO.C,U62*%
X205422974Y202948237D03*
X207793762Y200577449D03*
%TD*%
D30*
%TO.C,R93*%
X34590000Y57315000D03*
X34590000Y56805000D03*
%TD*%
D44*
%TO.C,X5*%
X243940000Y278030000D03*
X241400000Y278030000D03*
%TD*%
D31*
%TO.C,C231*%
X212034844Y201396770D03*
X212388398Y201043216D03*
%TD*%
D30*
%TO.C,R165*%
X63470000Y134215000D03*
X63470000Y133705000D03*
%TD*%
D44*
%TO.C,X_7*%
X24430000Y59450000D03*
X26970000Y59450000D03*
%TD*%
D36*
%TO.C,C113*%
X62043070Y195391957D03*
X61689516Y195745511D03*
%TD*%
D111*
%TO.C,U4*%
X57835000Y144088000D03*
X58335000Y144088000D03*
X58835000Y144088000D03*
X59335000Y144088000D03*
D112*
X59982000Y144735000D03*
X59982000Y145235000D03*
X59982000Y145735000D03*
X59982000Y146235000D03*
D111*
X59335000Y146882000D03*
X58835000Y146882000D03*
X58335000Y146882000D03*
X57835000Y146882000D03*
D112*
X57188000Y146235000D03*
X57188000Y145735000D03*
X57188000Y145235000D03*
X57188000Y144735000D03*
D113*
X58585000Y145485000D03*
%TD*%
D57*
%TO.C,C162*%
X167039607Y127783610D03*
X167393161Y128137164D03*
%TD*%
D30*
%TO.C,R56*%
X225165000Y137865000D03*
X225165000Y137355000D03*
%TD*%
D44*
%TO.C,X42*%
X97523334Y19941656D03*
X94983334Y19941656D03*
X92443334Y19941656D03*
%TD*%
D89*
%TO.C,C311*%
X11730000Y157540000D03*
X11730000Y154740000D03*
%TD*%
D29*
%TO.C,J47*%
X206520000Y133320000D03*
D28*
X202927898Y133320000D03*
X206520000Y129727898D03*
X210112102Y133320000D03*
X206520000Y136912102D03*
%TD*%
D29*
%TO.C,J31*%
X169040000Y225140000D03*
D28*
X165447898Y225140000D03*
X169040000Y221547898D03*
X172632102Y225140000D03*
X169040000Y228732102D03*
%TD*%
D25*
%TO.C,R3*%
X57815000Y173110000D03*
X57305000Y173110000D03*
%TD*%
D33*
%TO.C,R142*%
X37090000Y187530000D03*
X37600000Y187530000D03*
%TD*%
D13*
%TO.C,C50*%
X17630000Y182245000D03*
X17630000Y182745000D03*
%TD*%
D26*
%TO.C,C208*%
X241792489Y126826139D03*
X241438935Y126472585D03*
%TD*%
D81*
%TO.C,L23*%
X124340000Y64980000D03*
X129340000Y64980000D03*
%TD*%
D36*
%TO.C,C105*%
X155346942Y207734223D03*
X154993388Y208087777D03*
%TD*%
D13*
%TO.C,C88*%
X151490000Y222735000D03*
X151490000Y223235000D03*
%TD*%
D107*
%TO.C,ADAR4_0*%
X150000000Y142000000D03*
D108*
X147000000Y145000000D03*
X147500000Y145000000D03*
X148000000Y145000000D03*
X148500000Y145000000D03*
X149000000Y145000000D03*
X149500000Y145000000D03*
X150000000Y145000000D03*
X150500000Y145000000D03*
X151000000Y145000000D03*
X151500000Y145000000D03*
X152000000Y145000000D03*
X152500000Y145000000D03*
X153000000Y145000000D03*
X147000000Y144500000D03*
X147500000Y144500000D03*
X148000000Y144500000D03*
X148500000Y144500000D03*
X149000000Y144500000D03*
X149500000Y144500000D03*
X150000000Y144500000D03*
X150500000Y144500000D03*
X151000000Y144500000D03*
X151500000Y144500000D03*
X152000000Y144500000D03*
X152500000Y144500000D03*
X153000000Y144500000D03*
X147000000Y144000000D03*
X147500000Y144000000D03*
X152500000Y144000000D03*
X153000000Y144000000D03*
X147000000Y143500000D03*
X147500000Y143500000D03*
X152500000Y143500000D03*
X153000000Y143500000D03*
X147000000Y143000000D03*
X147500000Y143000000D03*
X152500000Y143000000D03*
X153000000Y143000000D03*
X147000000Y142500000D03*
X147500000Y142500000D03*
X152500000Y142500000D03*
X153000000Y142500000D03*
X147000000Y142000000D03*
X147500000Y142000000D03*
X152500000Y142000000D03*
X153000000Y142000000D03*
X147000000Y141500000D03*
X147500000Y141500000D03*
X152500000Y141500000D03*
X153000000Y141500000D03*
X147000000Y141000000D03*
X147500000Y141000000D03*
X152500000Y141000000D03*
X153000000Y141000000D03*
X147000000Y140500000D03*
X147500000Y140500000D03*
X152500000Y140500000D03*
X153000000Y140500000D03*
X147000000Y140000000D03*
X147500000Y140000000D03*
X152500000Y140000000D03*
X153000000Y140000000D03*
X147000000Y139500000D03*
X147500000Y139500000D03*
X148000000Y139500000D03*
X148500000Y139500000D03*
X149000000Y139500000D03*
X149500000Y139500000D03*
X150000000Y139500000D03*
X150500000Y139500000D03*
X151000000Y139500000D03*
X151500000Y139500000D03*
X152000000Y139500000D03*
X152500000Y139500000D03*
X153000000Y139500000D03*
X147000000Y139000000D03*
X147500000Y139000000D03*
X148000000Y139000000D03*
X148500000Y139000000D03*
X149000000Y139000000D03*
X149500000Y139000000D03*
X150000000Y139000000D03*
X150500000Y139000000D03*
X151000000Y139000000D03*
X151500000Y139000000D03*
X152000000Y139000000D03*
X152500000Y139000000D03*
X153000000Y139000000D03*
%TD*%
D57*
%TO.C,C237*%
X243089994Y203653201D03*
X243443548Y204006755D03*
%TD*%
D30*
%TO.C,R87*%
X64390000Y57305000D03*
X64390000Y56795000D03*
%TD*%
D32*
%TO.C,L7*%
X62360000Y214540000D03*
X62360000Y215840000D03*
%TD*%
D30*
%TO.C,R43*%
X48590000Y24995000D03*
X48590000Y24485000D03*
%TD*%
D37*
%TO.C,C65*%
X72370000Y145560000D03*
X72870000Y145560000D03*
%TD*%
D33*
%TO.C,R120*%
X34405000Y17920000D03*
X34915000Y17920000D03*
%TD*%
D36*
%TO.C,C211*%
X240498902Y154775066D03*
X240145348Y155128620D03*
%TD*%
D13*
%TO.C,C21*%
X92670000Y105520000D03*
X92670000Y106020000D03*
%TD*%
D34*
%TO.C,C301*%
X199580000Y30880000D03*
X199580000Y30380000D03*
%TD*%
D36*
%TO.C,C216*%
X239697911Y158504148D03*
X239344357Y158857702D03*
%TD*%
D60*
%TO.C,C319*%
X204830000Y290490000D03*
X204830000Y288590000D03*
%TD*%
D66*
%TO.C,U88*%
X147167056Y39393390D03*
X147167056Y38743390D03*
X147167056Y38093390D03*
X147167056Y37443390D03*
X147167056Y36793394D03*
X147167056Y36143390D03*
X147167056Y35493394D03*
X147167056Y34843390D03*
X152805856Y34843390D03*
X152805856Y35493390D03*
X152805856Y36143390D03*
X152805856Y36793390D03*
X152805856Y37443386D03*
X152805856Y38093390D03*
X152805856Y38743386D03*
X152805856Y39393390D03*
%TD*%
D32*
%TO.C,C57*%
X62340000Y134300000D03*
X62340000Y135600000D03*
%TD*%
D40*
%TO.C,UNK_HOLE_5*%
X256000000Y114000000D03*
%TD*%
D30*
%TO.C,R128*%
X84450000Y32335000D03*
X84450000Y31825000D03*
%TD*%
D37*
%TO.C,C24*%
X86520000Y109520000D03*
X87020000Y109520000D03*
%TD*%
%TO.C,C14*%
X52745000Y156480000D03*
X53245000Y156480000D03*
%TD*%
D53*
%TO.C,U17*%
X129675394Y233435394D03*
X127304606Y231064606D03*
%TD*%
D34*
%TO.C,C99*%
X150510000Y137945000D03*
X150510000Y137445000D03*
%TD*%
D44*
%TO.C,X_12*%
X69230000Y44500000D03*
X71770000Y44500000D03*
%TD*%
D16*
%TO.C,RF_SW_6*%
X238986791Y204683310D03*
X239340345Y204329756D03*
X239693898Y203976203D03*
X240047452Y203622649D03*
D46*
X240966690Y203636791D03*
X241320244Y203990345D03*
X241673797Y204343898D03*
X242027351Y204697452D03*
D16*
X242027351Y205602548D03*
X241673797Y205956102D03*
X241320244Y206309655D03*
X240966690Y206663209D03*
D46*
X240047452Y206677351D03*
X239693898Y206323797D03*
X239340345Y205970244D03*
X238986791Y205616690D03*
D47*
X240500000Y205150000D03*
%TD*%
D44*
%TO.C,X_11*%
X54230000Y44500000D03*
X56770000Y44500000D03*
%TD*%
D25*
%TO.C,R49*%
X8575000Y180660000D03*
X8065000Y180660000D03*
%TD*%
D13*
%TO.C,C80*%
X113603715Y180306018D03*
X113603715Y180806018D03*
%TD*%
D68*
%TO.C,L16*%
X109600000Y137020000D03*
X104600000Y137020000D03*
%TD*%
D44*
%TO.C,X14*%
X119770000Y278780000D03*
X117230000Y278780000D03*
%TD*%
D40*
%TO.C,UNK_HOLE_2*%
X256000000Y296000000D03*
%TD*%
D33*
%TO.C,R83*%
X-155000Y-41800000D03*
X355000Y-41800000D03*
%TD*%
D44*
%TO.C,X50*%
X147557268Y20079962D03*
X145017268Y20079962D03*
X142477268Y20079962D03*
%TD*%
D14*
%TO.C,R76*%
X149763284Y132643581D03*
X149763284Y133153581D03*
%TD*%
D26*
%TO.C,C218*%
X212592383Y157143986D03*
X212238829Y156790432D03*
%TD*%
D13*
%TO.C,C51*%
X58390000Y139010000D03*
X58390000Y139510000D03*
%TD*%
D111*
%TO.C,U8*%
X57970000Y135073000D03*
X58470000Y135073000D03*
X58970000Y135073000D03*
X59470000Y135073000D03*
D112*
X60117000Y135720000D03*
X60117000Y136220000D03*
X60117000Y136720000D03*
X60117000Y137220000D03*
D111*
X59470000Y137867000D03*
X58970000Y137867000D03*
X58470000Y137867000D03*
X57970000Y137867000D03*
D112*
X57323000Y137220000D03*
X57323000Y136720000D03*
X57323000Y136220000D03*
X57323000Y135720000D03*
D113*
X58720000Y136470000D03*
%TD*%
D34*
%TO.C,C95*%
X226185000Y137900000D03*
X226185000Y137400000D03*
%TD*%
D39*
%TO.C,U56*%
X174365065Y157828987D03*
X171994277Y160199775D03*
%TD*%
D18*
%TO.C,JP10*%
X64920000Y80950000D03*
X64920000Y78410000D03*
X64920000Y75870000D03*
%TD*%
D30*
%TO.C,R113*%
X73750000Y116185000D03*
X73750000Y115675000D03*
%TD*%
D25*
%TO.C,R138*%
X69285000Y171145000D03*
X68775000Y171145000D03*
%TD*%
D43*
%TO.C,C267*%
X88580000Y43110000D03*
X88080000Y43110000D03*
%TD*%
D33*
%TO.C,R164*%
X87365000Y187140000D03*
X87875000Y187140000D03*
%TD*%
D30*
%TO.C,R102*%
X61550000Y27385000D03*
X61550000Y26875000D03*
%TD*%
D114*
%TO.C,U5*%
X81042200Y214510000D03*
X81042200Y214010000D03*
X81042200Y213510000D03*
D115*
X81990000Y213057500D03*
X82490000Y213057500D03*
X82990000Y213057500D03*
D114*
X83937800Y213510000D03*
X83937800Y214010000D03*
X83937800Y214510000D03*
D115*
X82990000Y214962500D03*
X82490000Y214962500D03*
X81990000Y214962500D03*
%TD*%
D31*
%TO.C,C170*%
X136013226Y125030777D03*
X136366780Y124677223D03*
%TD*%
D14*
%TO.C,R169*%
X79720000Y89815000D03*
X79720000Y90325000D03*
%TD*%
%TO.C,R28*%
X58490000Y200925000D03*
X58490000Y201435000D03*
%TD*%
D37*
%TO.C,C178*%
X62395000Y174260000D03*
X62895000Y174260000D03*
%TD*%
D78*
%TO.C,ADTR1107_8*%
X232333288Y226631385D03*
X232792908Y226171766D03*
X233252527Y225712146D03*
X233712146Y225252527D03*
X234171766Y224792908D03*
X234631385Y224333288D03*
D63*
X235368615Y224333288D03*
X235828234Y224792908D03*
X236287854Y225252527D03*
X236747473Y225712146D03*
X237207092Y226171766D03*
X237666712Y226631385D03*
D78*
X237666712Y227368615D03*
X237207092Y227828234D03*
X236747473Y228287854D03*
X236287854Y228747473D03*
X235828234Y229207092D03*
X235368615Y229666712D03*
D63*
X234631385Y229666712D03*
X234171766Y229207092D03*
X233712146Y228747473D03*
X233252527Y228287854D03*
X232792908Y227828234D03*
X232333288Y227368615D03*
D88*
X235000000Y227000000D03*
%TD*%
D27*
%TO.C,J18*%
X67010000Y195240000D03*
D28*
X64470000Y197780000D03*
X64470000Y192700000D03*
X69550000Y192700000D03*
X69550000Y197780000D03*
%TD*%
D22*
%TO.C,C78*%
X109990000Y39190000D03*
X109990000Y37890000D03*
%TD*%
D36*
%TO.C,C108*%
X60201058Y193528732D03*
X59847504Y193882286D03*
%TD*%
D26*
%TO.C,C155*%
X38451883Y194964983D03*
X38098329Y194611429D03*
%TD*%
D116*
%TO.C,C315*%
X191920000Y285260000D03*
X191920000Y288060000D03*
%TD*%
D31*
%TO.C,C214*%
X240792216Y157405723D03*
X241145770Y157052169D03*
%TD*%
D26*
%TO.C,C201*%
X241312233Y127245883D03*
X240958679Y126892329D03*
%TD*%
D60*
%TO.C,C333*%
X100980000Y136990000D03*
X100980000Y135090000D03*
%TD*%
D59*
%TO.C,J30*%
X155530000Y238640000D03*
D28*
X155530000Y235047898D03*
X159122102Y238640000D03*
X155530000Y242232102D03*
X151937898Y238640000D03*
%TD*%
D16*
%TO.C,RF_SW_14*%
X162936791Y128733310D03*
X163290345Y128379756D03*
X163643898Y128026203D03*
X163997452Y127672649D03*
D46*
X164916690Y127686791D03*
X165270244Y128040345D03*
X165623797Y128393898D03*
X165977351Y128747452D03*
D16*
X165977351Y129652548D03*
X165623797Y130006102D03*
X165270244Y130359655D03*
X164916690Y130713209D03*
D46*
X163997452Y130727351D03*
X163643898Y130373797D03*
X163290345Y130020244D03*
X162936791Y129666690D03*
D47*
X164450000Y129200000D03*
%TD*%
D30*
%TO.C,R66*%
X8385000Y185195000D03*
X8385000Y184685000D03*
%TD*%
D60*
%TO.C,C75*%
X41980000Y38390000D03*
X41980000Y36490000D03*
%TD*%
D34*
%TO.C,C59*%
X80140000Y213990000D03*
X80140000Y213490000D03*
%TD*%
D92*
%TO.C,D2*%
X73530000Y117603000D03*
X73530000Y119357000D03*
%TD*%
D18*
%TO.C,JP6*%
X198870000Y52410000D03*
X198870000Y49870000D03*
X198870000Y47330000D03*
%TD*%
D37*
%TO.C,C47*%
X55970000Y145730000D03*
X56470000Y145730000D03*
%TD*%
D36*
%TO.C,C114*%
X231319992Y207733554D03*
X230966438Y208087108D03*
%TD*%
D37*
%TO.C,C285*%
X37850000Y177475000D03*
X38350000Y177475000D03*
%TD*%
D34*
%TO.C,C16*%
X53280000Y158480000D03*
X53280000Y157980000D03*
%TD*%
D25*
%TO.C,R103*%
X61545000Y18030000D03*
X61035000Y18030000D03*
%TD*%
D31*
%TO.C,C103*%
X144601794Y228268336D03*
X144955348Y227914782D03*
%TD*%
D33*
%TO.C,R19*%
X61065000Y144150000D03*
X61575000Y144150000D03*
%TD*%
D64*
%TO.C,ADTR1107_5*%
X219666712Y209368615D03*
X219207092Y209828234D03*
X218747473Y210287854D03*
X218287854Y210747473D03*
X217828234Y211207092D03*
X217368615Y211666712D03*
D77*
X216631385Y211666712D03*
X216171766Y211207092D03*
X215712146Y210747473D03*
X215252527Y210287854D03*
X214792908Y209828234D03*
X214333288Y209368615D03*
D64*
X214333288Y208631385D03*
X214792908Y208171766D03*
X215252527Y207712146D03*
X215712146Y207252527D03*
X216171766Y206792908D03*
X216631385Y206333288D03*
D77*
X217368615Y206333288D03*
X217828234Y206792908D03*
X218287854Y207252527D03*
X218747473Y207712146D03*
X219207092Y208171766D03*
X219666712Y208631385D03*
D82*
X217000000Y209000000D03*
%TD*%
D36*
%TO.C,C111*%
X61113223Y194447969D03*
X60759669Y194801523D03*
%TD*%
D44*
%TO.C,X38*%
X102464390Y55102053D03*
X105004390Y55102053D03*
X107544390Y55102053D03*
%TD*%
D56*
%TO.C,U75*%
X82823575Y46158459D03*
X82823575Y45508459D03*
X82823575Y44858459D03*
X82823575Y44208459D03*
X87223575Y44208459D03*
X87223575Y44858459D03*
X87223575Y45508459D03*
X87223575Y46158459D03*
%TD*%
D13*
%TO.C,C90*%
X149790000Y222175000D03*
X149790000Y222675000D03*
%TD*%
D55*
%TO.C,XTAL3*%
X90680000Y98162500D03*
X90680000Y96257500D03*
%TD*%
D38*
%TO.C,X56*%
X4950000Y18390000D03*
X4950000Y15850000D03*
%TD*%
D25*
%TO.C,R7*%
X52105000Y172990000D03*
X51595000Y172990000D03*
%TD*%
%TO.C,R97*%
X35105000Y56230000D03*
X34595000Y56230000D03*
%TD*%
D40*
%TO.C,UNK_HOLE_1*%
X256000000Y4000000D03*
%TD*%
D37*
%TO.C,L27*%
X79145000Y213430000D03*
X79695000Y213430000D03*
%TD*%
D13*
%TO.C,C91*%
X150265000Y222170000D03*
X150265000Y222670000D03*
%TD*%
D60*
%TO.C,C330*%
X101580000Y227190000D03*
X101580000Y225290000D03*
%TD*%
D22*
%TO.C,C76*%
X44175000Y38424568D03*
X44175000Y37124568D03*
%TD*%
D31*
%TO.C,C122*%
X144702419Y152366417D03*
X145055973Y152012863D03*
%TD*%
D26*
%TO.C,C150*%
X210578586Y228881105D03*
X210225032Y228527551D03*
%TD*%
D44*
%TO.C,X49*%
X137582584Y20026518D03*
X135042584Y20026518D03*
X132502584Y20026518D03*
%TD*%
D14*
%TO.C,R75*%
X148115000Y146385000D03*
X148115000Y146895000D03*
%TD*%
D78*
%TO.C,ADTR1107_4*%
X156333288Y226631385D03*
X156792908Y226171766D03*
X157252527Y225712146D03*
X157712146Y225252527D03*
X158171766Y224792908D03*
X158631385Y224333288D03*
D63*
X159368615Y224333288D03*
X159828234Y224792908D03*
X160287854Y225252527D03*
X160747473Y225712146D03*
X161207092Y226171766D03*
X161666712Y226631385D03*
D78*
X161666712Y227368615D03*
X161207092Y227828234D03*
X160747473Y228287854D03*
X160287854Y228747473D03*
X159828234Y229207092D03*
X159368615Y229666712D03*
D63*
X158631385Y229666712D03*
X158171766Y229207092D03*
X157712146Y228747473D03*
X157252527Y228287854D03*
X156792908Y227828234D03*
X156333288Y227368615D03*
D88*
X159000000Y227000000D03*
%TD*%
D36*
%TO.C,C223*%
X240178167Y159023891D03*
X239824613Y159377445D03*
%TD*%
D31*
%TO.C,C226*%
X214297391Y125553805D03*
X214650945Y125200251D03*
%TD*%
D85*
%TO.C,U76*%
X89040968Y29305050D03*
X89040968Y29955050D03*
X89040968Y30605050D03*
X89040968Y31255050D03*
X84640968Y31255050D03*
X84640968Y30605050D03*
X84640968Y29955050D03*
X84640968Y29305050D03*
%TD*%
D37*
%TO.C,C182*%
X62380000Y171065000D03*
X62880000Y171065000D03*
%TD*%
D31*
%TO.C,C224*%
X212123219Y124943130D03*
X212476773Y124589576D03*
%TD*%
D60*
%TO.C,C326*%
X169030000Y78690000D03*
X169030000Y76790000D03*
%TD*%
D37*
%TO.C,C292*%
X153620000Y32090000D03*
X154120000Y32090000D03*
%TD*%
D25*
%TO.C,R15*%
X58860000Y142625000D03*
X58350000Y142625000D03*
%TD*%
D33*
%TO.C,R61*%
X-155000Y-37050000D03*
X355000Y-37050000D03*
%TD*%
D44*
%TO.C,X20*%
X187810000Y285630000D03*
X185270000Y285630000D03*
%TD*%
D14*
%TO.C,R73*%
X223986359Y131630287D03*
X223986359Y132140287D03*
%TD*%
D36*
%TO.C,C206*%
X238256777Y131103223D03*
X237903223Y131456777D03*
%TD*%
D26*
%TO.C,C115*%
X236256573Y223460120D03*
X235903019Y223106566D03*
%TD*%
D18*
%TO.C,JP20*%
X78500000Y190230000D03*
X78500000Y192770000D03*
%TD*%
D117*
%TO.C,U$1*%
X116920000Y180950000D03*
X116420000Y180950000D03*
X115920000Y180950000D03*
X115420000Y180950000D03*
D118*
X114780000Y180290000D03*
X114780000Y179790000D03*
X114780000Y179290000D03*
X114780000Y178790000D03*
D117*
X115420000Y178150000D03*
X115920000Y178150000D03*
X116420000Y178150000D03*
X116920000Y178150000D03*
D118*
X117580000Y178790000D03*
X117580000Y179290000D03*
X117580000Y179790000D03*
X117580000Y180290000D03*
D119*
X116180000Y179550000D03*
%TD*%
D44*
%TO.C,X48*%
X132399156Y54989462D03*
X134939156Y54989462D03*
X137479156Y54989462D03*
%TD*%
D33*
%TO.C,R158*%
X87365000Y181590000D03*
X87875000Y181590000D03*
%TD*%
D30*
%TO.C,R149*%
X165580000Y31985000D03*
X165580000Y31475000D03*
%TD*%
%TO.C,R107*%
X31650000Y17435000D03*
X31650000Y16925000D03*
%TD*%
D45*
%TO.C,U53*%
X170995531Y125160709D03*
X173366319Y127531497D03*
%TD*%
D18*
%TO.C,JP12*%
X188520000Y52730000D03*
X188520000Y50190000D03*
X188520000Y47650000D03*
%TD*%
D22*
%TO.C,C346*%
X142577225Y30660328D03*
X142577225Y29360328D03*
%TD*%
D30*
%TO.C,R42*%
X48360000Y53915000D03*
X48360000Y53405000D03*
%TD*%
%TO.C,R40*%
X50240000Y47735000D03*
X50240000Y47225000D03*
%TD*%
D53*
%TO.C,U37*%
X135015394Y238525394D03*
X132644606Y236154606D03*
%TD*%
D26*
%TO.C,C252*%
X132793623Y156277802D03*
X132440069Y155924248D03*
%TD*%
D22*
%TO.C,C258*%
X112490000Y30710000D03*
X112490000Y29410000D03*
%TD*%
D36*
%TO.C,C251*%
X239607308Y234429482D03*
X239253754Y234783036D03*
%TD*%
D13*
%TO.C,C164*%
X95140000Y107220000D03*
X95140000Y107720000D03*
%TD*%
D57*
%TO.C,C243*%
X133476760Y157892582D03*
X133830314Y158246136D03*
%TD*%
D30*
%TO.C,R94*%
X31840000Y57195000D03*
X31840000Y56685000D03*
%TD*%
D44*
%TO.C,X_5*%
X24230000Y29500000D03*
X26770000Y29500000D03*
%TD*%
D39*
%TO.C,U68*%
X247054722Y233733299D03*
X244683934Y236104087D03*
%TD*%
D45*
%TO.C,U40*%
X169827627Y202529690D03*
X172198415Y204900478D03*
%TD*%
D13*
%TO.C,C5*%
X56470000Y153570000D03*
X56470000Y154070000D03*
%TD*%
D30*
%TO.C,R2*%
X59500000Y177755000D03*
X59500000Y177245000D03*
%TD*%
D14*
%TO.C,R126*%
X97350000Y43165000D03*
X97350000Y43675000D03*
%TD*%
D32*
%TO.C,C264*%
X139401212Y44347071D03*
X139401212Y45647071D03*
%TD*%
D33*
%TO.C,R154*%
X42015000Y165290000D03*
X42525000Y165290000D03*
%TD*%
D44*
%TO.C,X51*%
X157548121Y19864793D03*
X155008121Y19864793D03*
X152468121Y19864793D03*
%TD*%
D30*
%TO.C,R123*%
X49200000Y18685000D03*
X49200000Y18175000D03*
%TD*%
D34*
%TO.C,C100*%
X151065000Y136555000D03*
X151065000Y136055000D03*
%TD*%
%TO.C,C308*%
X75730000Y213450000D03*
X75730000Y212950000D03*
%TD*%
D30*
%TO.C,R130*%
X104680000Y31985000D03*
X104680000Y31475000D03*
%TD*%
D43*
%TO.C,C261*%
X118480000Y43060000D03*
X117980000Y43060000D03*
%TD*%
D57*
%TO.C,C145*%
X210985604Y232361201D03*
X211339158Y232714755D03*
%TD*%
D120*
%TO.C,U3*%
X52135000Y203203700D03*
X53405000Y203203700D03*
X54675000Y203203700D03*
X55945000Y203203700D03*
X57215000Y203203700D03*
X58485000Y203203700D03*
X59755000Y203203700D03*
X61025000Y203203700D03*
X62295000Y203203700D03*
X63565000Y203203700D03*
X64835000Y203203700D03*
X66105000Y203203700D03*
X67375000Y203203700D03*
X68645000Y203203700D03*
X68645000Y212576300D03*
X67375000Y212576300D03*
X66105000Y212576300D03*
X64835000Y212576300D03*
X63565000Y212576300D03*
X62295000Y212576300D03*
X61025000Y212576300D03*
X59755000Y212576300D03*
X58485000Y212576300D03*
X57215000Y212576300D03*
X55945000Y212576300D03*
X54675000Y212576300D03*
X53405000Y212576300D03*
X52135000Y212576300D03*
%TD*%
D13*
%TO.C,C38*%
X58495000Y213820000D03*
X58495000Y214320000D03*
%TD*%
D85*
%TO.C,U86*%
X159258262Y29092781D03*
X159258262Y29742781D03*
X159258262Y30392781D03*
X159258262Y31042781D03*
X154858262Y31042781D03*
X154858262Y30392781D03*
X154858262Y29742781D03*
X154858262Y29092781D03*
%TD*%
D45*
%TO.C,U66*%
X241934581Y196946559D03*
X244305369Y199317347D03*
%TD*%
D57*
%TO.C,C200*%
X209954788Y157352729D03*
X210308342Y157706283D03*
%TD*%
D22*
%TO.C,C334*%
X99190000Y137250000D03*
X99190000Y135950000D03*
%TD*%
D29*
%TO.C,J35*%
X206750000Y210560000D03*
D28*
X203157898Y210560000D03*
X206750000Y206967898D03*
X210342102Y210560000D03*
X206750000Y214152102D03*
%TD*%
D14*
%TO.C,R25*%
X54690000Y200865000D03*
X54690000Y201375000D03*
%TD*%
D57*
%TO.C,C135*%
X165432951Y207052476D03*
X165786505Y207406030D03*
%TD*%
D33*
%TO.C,R168*%
X61565000Y98030000D03*
X62075000Y98030000D03*
%TD*%
D18*
%TO.C,JP9*%
X58720000Y80990000D03*
X58720000Y78450000D03*
X58720000Y75910000D03*
X58720000Y73370000D03*
%TD*%
D121*
%TO.C,U2*%
X85128800Y93480000D03*
X85128800Y93980000D03*
X85128800Y94480000D03*
X85128800Y94980000D03*
X85128800Y95480000D03*
X85128800Y95980000D03*
X85128800Y96480000D03*
X85128800Y96980000D03*
X85128800Y97480000D03*
X85128800Y97980000D03*
X85128800Y98480000D03*
X85128800Y98980000D03*
X85128800Y99480000D03*
X85128800Y99980000D03*
X85128800Y100480000D03*
X85128800Y100980000D03*
X85128800Y101480000D03*
X85128800Y101980000D03*
X85128800Y102480000D03*
X85128800Y102980000D03*
X85128800Y103480000D03*
X85128800Y103980000D03*
X85128800Y104480000D03*
X85128800Y104980000D03*
X85128800Y105480000D03*
X85128800Y105980000D03*
X85128800Y106480000D03*
X85128800Y106980000D03*
X85128800Y107480000D03*
X85128800Y107980000D03*
X85128800Y108480000D03*
X85128800Y108980000D03*
X85128800Y109480000D03*
X85128800Y109980000D03*
X85128800Y110480000D03*
X85128800Y110980000D03*
D122*
X83160000Y112948800D03*
X82660000Y112948800D03*
X82160000Y112948800D03*
X81660000Y112948800D03*
X81160000Y112948800D03*
X80660000Y112948800D03*
X80160000Y112948800D03*
X79660000Y112948800D03*
X79160000Y112948800D03*
X78660000Y112948800D03*
X78160000Y112948800D03*
X77660000Y112948800D03*
X77160000Y112948800D03*
X76660000Y112948800D03*
X76160000Y112948800D03*
X75660000Y112948800D03*
X75160000Y112948800D03*
X74660000Y112948800D03*
X74160000Y112948800D03*
X73660000Y112948800D03*
X73160000Y112948800D03*
X72660000Y112948800D03*
X72160000Y112948800D03*
X71660000Y112948800D03*
X71160000Y112948800D03*
X70660000Y112948800D03*
X70160000Y112948800D03*
X69660000Y112948800D03*
X69160000Y112948800D03*
X68660000Y112948800D03*
X68160000Y112948800D03*
X67660000Y112948800D03*
X67160000Y112948800D03*
X66660000Y112948800D03*
X66160000Y112948800D03*
X65660000Y112948800D03*
D121*
X63691200Y110980000D03*
X63691200Y110480000D03*
X63691200Y109980000D03*
X63691200Y109480000D03*
X63691200Y108980000D03*
X63691200Y108480000D03*
X63691200Y107980000D03*
X63691200Y107480000D03*
X63691200Y106980000D03*
X63691200Y106480000D03*
X63691200Y105980000D03*
X63691200Y105480000D03*
X63691200Y104980000D03*
X63691200Y104480000D03*
X63691200Y103980000D03*
X63691200Y103480000D03*
X63691200Y102980000D03*
X63691200Y102480000D03*
X63691200Y101980000D03*
X63691200Y101480000D03*
X63691200Y100980000D03*
X63691200Y100480000D03*
X63691200Y99980000D03*
X63691200Y99480000D03*
X63691200Y98980000D03*
X63691200Y98480000D03*
X63691200Y97980000D03*
X63691200Y97480000D03*
X63691200Y96980000D03*
X63691200Y96480000D03*
X63691200Y95980000D03*
X63691200Y95480000D03*
X63691200Y94980000D03*
X63691200Y94480000D03*
X63691200Y93980000D03*
X63691200Y93480000D03*
D122*
X65660000Y91511200D03*
X66160000Y91511200D03*
X66660000Y91511200D03*
X67160000Y91511200D03*
X67660000Y91511200D03*
X68160000Y91511200D03*
X68660000Y91511200D03*
X69160000Y91511200D03*
X69660000Y91511200D03*
X70160000Y91511200D03*
X70660000Y91511200D03*
X71160000Y91511200D03*
X71660000Y91511200D03*
X72160000Y91511200D03*
X72660000Y91511200D03*
X73160000Y91511200D03*
X73660000Y91511200D03*
X74160000Y91511200D03*
X74660000Y91511200D03*
X75160000Y91511200D03*
X75660000Y91511200D03*
X76160000Y91511200D03*
X76660000Y91511200D03*
X77160000Y91511200D03*
X77660000Y91511200D03*
X78160000Y91511200D03*
X78660000Y91511200D03*
X79160000Y91511200D03*
X79660000Y91511200D03*
X80160000Y91511200D03*
X80660000Y91511200D03*
X81160000Y91511200D03*
X81660000Y91511200D03*
X82160000Y91511200D03*
X82660000Y91511200D03*
X83160000Y91511200D03*
%TD*%
D30*
%TO.C,R116*%
X76370000Y214515000D03*
X76370000Y214005000D03*
%TD*%
D57*
%TO.C,C255*%
X138993223Y129543223D03*
X139346777Y129896777D03*
%TD*%
G36*
X83242971Y143242971D02*
G01*
X83250000Y143226000D01*
X83250000Y135974000D01*
X83242971Y135957029D01*
X83226000Y135950000D01*
X82174000Y135950000D01*
X82157029Y135957029D01*
X82150000Y135974000D01*
X82150000Y143226000D01*
X82157029Y143242971D01*
X82174000Y143250000D01*
X83226000Y143250000D01*
X83242971Y143242971D01*
G37*
G36*
X82842971Y212842971D02*
G01*
X82850000Y212826000D01*
X82850000Y212250001D01*
X82850001Y212250000D01*
X101826000Y212250000D01*
X101842971Y212242971D01*
X101850000Y212226000D01*
X101850000Y207174000D01*
X101842971Y207157029D01*
X101826000Y207150000D01*
X81574000Y207150000D01*
X81557029Y207157029D01*
X81550000Y207174000D01*
X81550000Y212226000D01*
X81557029Y212242971D01*
X81574000Y212250000D01*
X82149999Y212250000D01*
X82150000Y212250001D01*
X82150000Y212826000D01*
X82157029Y212842971D01*
X82174000Y212850000D01*
X82826000Y212850000D01*
X82842971Y212842971D01*
G37*
G36*
X102442971Y152042971D02*
G01*
X102450000Y152026000D01*
X102450000Y146574000D01*
X102442971Y146557029D01*
X102426000Y146550000D01*
X83050001Y146550000D01*
X83050000Y146549999D01*
X83050000Y145774000D01*
X83042971Y145757029D01*
X83026000Y145750000D01*
X82374000Y145750000D01*
X82357029Y145757029D01*
X82350000Y145774000D01*
X82350000Y146549999D01*
X82349999Y146550000D01*
X81774000Y146550000D01*
X81757029Y146557029D01*
X81750000Y146574000D01*
X81750000Y152026000D01*
X81757029Y152042971D01*
X81774000Y152050000D01*
X102426000Y152050000D01*
X102442971Y152042971D01*
G37*
G36*
X83042971Y222242971D02*
G01*
X83050000Y222226000D01*
X83050000Y215374000D01*
X83042971Y215357029D01*
X83026000Y215350000D01*
X81774000Y215350000D01*
X81757029Y215357029D01*
X81750000Y215374000D01*
X81750000Y222226000D01*
X81757029Y222242971D01*
X81774000Y222250000D01*
X83026000Y222250000D01*
X83042971Y222242971D01*
G37*
M02*
