%TF.GenerationSoftware,KiCad,Pcbnew,10.0.6*%
%TF.CreationDate,2026-10-09T14:16:52+03:00*%
%TF.ProjectId,MAIN_BOARD,4d41494e-5f42-44f4-9152-442e6b696361,rev?*%
%TF.SameCoordinates,Original*%
%TF.FileFunction,Legend,Bot*%
%TF.FilePolarity,Positive*%
%FSLAX46Y46*%
G04 Gerber Fmt 4.6, Leading zero omitted, Abs format (unit mm)*
G04 Created by KiCad (PCBNEW 10.0.6) date 2026-10-09 14:16:52*
%MOMM*%
%LPD*%
G01*
G04 APERTURE LIST*
G04 Aperture macros list*
%AMFreePoly0*
4,1,17,0.351552,0.797921,0.797921,0.351552,0.812800,0.315631,0.812800,-0.315631,0.797921,-0.351552,0.351552,-0.797921,0.315631,-0.812800,-0.315631,-0.812800,-0.351552,-0.797921,-0.797921,-0.351552,-0.812800,-0.315631,-0.812800,0.315631,-0.797921,0.351552,-0.351552,0.797921,-0.315631,0.812800,0.315631,0.812800,0.351552,0.797921,0.351552,0.797921,$1*%
G04 Aperture macros list end*
%ADD10C,0.076200*%
%ADD11O,3.149600X1.625600*%
%ADD12C,1.101600*%
%ADD13C,1.466600*%
%ADD14C,1.892600*%
%ADD15FreePoly0,270.000000*%
%ADD16O,3.101600X1.601600*%
%ADD17C,3.200000*%
%ADD18O,1.601600X3.101600*%
%ADD19C,1.200000*%
%ADD20O,1.625600X3.149600*%
%ADD21FreePoly0,90.000000*%
%ADD22FreePoly0,180.000000*%
%ADD23C,0.655600*%
G04 APERTURE END LIST*
D10*
X223787861Y214768692D02*
X223787861Y214086521D01*
X223787861Y214427607D02*
X224981661Y214427607D01*
X224981661Y214427607D02*
X224811118Y214313911D01*
X224811118Y214313911D02*
X224697423Y214200216D01*
X224697423Y214200216D02*
X224640575Y214086521D01*
X224981661Y215166625D02*
X224981661Y215905644D01*
X224981661Y215905644D02*
X224526880Y215507711D01*
X224526880Y215507711D02*
X224526880Y215678254D01*
X224526880Y215678254D02*
X224470032Y215791949D01*
X224470032Y215791949D02*
X224413185Y215848797D01*
X224413185Y215848797D02*
X224299489Y215905644D01*
X224299489Y215905644D02*
X224015251Y215905644D01*
X224015251Y215905644D02*
X223901556Y215848797D01*
X223901556Y215848797D02*
X223844709Y215791949D01*
X223844709Y215791949D02*
X223787861Y215678254D01*
X223787861Y215678254D02*
X223787861Y215337168D01*
X223787861Y215337168D02*
X223844709Y215223473D01*
X223844709Y215223473D02*
X223901556Y215166625D01*
X229782261Y214768692D02*
X229782261Y214086521D01*
X229782261Y214427607D02*
X230976061Y214427607D01*
X230976061Y214427607D02*
X230805518Y214313911D01*
X230805518Y214313911D02*
X230691823Y214200216D01*
X230691823Y214200216D02*
X230634975Y214086521D01*
X230525369Y221482138D02*
X230525369Y220288338D01*
X230525369Y220288338D02*
X231207540Y221482138D01*
X231207540Y221482138D02*
X231207540Y220288338D01*
X230468521Y215146652D02*
X231036997Y215146652D01*
X230354826Y215487738D02*
X230752759Y214293938D01*
X230752759Y214293938D02*
X231150692Y215487738D01*
X22012261Y180049245D02*
X22012261Y179480769D01*
X22012261Y179480769D02*
X21443785Y179423921D01*
X21443785Y179423921D02*
X21500632Y179480769D01*
X21500632Y179480769D02*
X21557480Y179594464D01*
X21557480Y179594464D02*
X21557480Y179878702D01*
X21557480Y179878702D02*
X21500632Y179992397D01*
X21500632Y179992397D02*
X21443785Y180049245D01*
X21443785Y180049245D02*
X21330089Y180106092D01*
X21330089Y180106092D02*
X21045851Y180106092D01*
X21045851Y180106092D02*
X20932156Y180049245D01*
X20932156Y180049245D02*
X20875309Y179992397D01*
X20875309Y179992397D02*
X20818461Y179878702D01*
X20818461Y179878702D02*
X20818461Y179594464D01*
X20818461Y179594464D02*
X20875309Y179480769D01*
X20875309Y179480769D02*
X20932156Y179423921D01*
X24831661Y180106092D02*
X24831661Y179423921D01*
X24831661Y179765007D02*
X26025461Y179765007D01*
X26025461Y179765007D02*
X25854918Y179651311D01*
X25854918Y179651311D02*
X25741223Y179537616D01*
X25741223Y179537616D02*
X25684375Y179423921D01*
X26057369Y185686214D02*
X26455302Y185686214D01*
X26625845Y186311538D02*
X26057369Y186311538D01*
X26057369Y186311538D02*
X26057369Y185117738D01*
X26057369Y185117738D02*
X26625845Y185117738D01*
X26000521Y181957252D02*
X26568997Y181957252D01*
X25886826Y182298338D02*
X26284759Y181104538D01*
X26284759Y181104538D02*
X26682692Y182298338D01*
X221531478Y144853347D02*
X220963002Y144853347D01*
X221645173Y144512261D02*
X221247240Y145706061D01*
X221247240Y145706061D02*
X220849307Y144512261D01*
X221474630Y138517861D02*
X221474630Y139711661D01*
X221474630Y139711661D02*
X220792459Y138517861D01*
X220792459Y138517861D02*
X220792459Y139711661D01*
X222217738Y145231307D02*
X222217738Y145913478D01*
X222217738Y145572392D02*
X221023938Y145572392D01*
X221023938Y145572392D02*
X221194481Y145686088D01*
X221194481Y145686088D02*
X221308176Y145799783D01*
X221308176Y145799783D02*
X221365024Y145913478D01*
X228212138Y145231307D02*
X228212138Y145913478D01*
X228212138Y145572392D02*
X227018338Y145572392D01*
X227018338Y145572392D02*
X227188881Y145686088D01*
X227188881Y145686088D02*
X227302576Y145799783D01*
X227302576Y145799783D02*
X227359424Y145913478D01*
X227018338Y144833374D02*
X227018338Y144094355D01*
X227018338Y144094355D02*
X227473119Y144492288D01*
X227473119Y144492288D02*
X227473119Y144321745D01*
X227473119Y144321745D02*
X227529967Y144208050D01*
X227529967Y144208050D02*
X227586814Y144151202D01*
X227586814Y144151202D02*
X227700510Y144094355D01*
X227700510Y144094355D02*
X227984748Y144094355D01*
X227984748Y144094355D02*
X228098443Y144151202D01*
X228098443Y144151202D02*
X228155291Y144208050D01*
X228155291Y144208050D02*
X228212138Y144321745D01*
X228212138Y144321745D02*
X228212138Y144662831D01*
X228212138Y144662831D02*
X228155291Y144776526D01*
X228155291Y144776526D02*
X228098443Y144833374D01*
X147787861Y214768692D02*
X147787861Y214086521D01*
X147787861Y214427607D02*
X148981661Y214427607D01*
X148981661Y214427607D02*
X148811118Y214313911D01*
X148811118Y214313911D02*
X148697423Y214200216D01*
X148697423Y214200216D02*
X148640575Y214086521D01*
X148981661Y215166625D02*
X148981661Y215905644D01*
X148981661Y215905644D02*
X148526880Y215507711D01*
X148526880Y215507711D02*
X148526880Y215678254D01*
X148526880Y215678254D02*
X148470032Y215791949D01*
X148470032Y215791949D02*
X148413185Y215848797D01*
X148413185Y215848797D02*
X148299489Y215905644D01*
X148299489Y215905644D02*
X148015251Y215905644D01*
X148015251Y215905644D02*
X147901556Y215848797D01*
X147901556Y215848797D02*
X147844709Y215791949D01*
X147844709Y215791949D02*
X147787861Y215678254D01*
X147787861Y215678254D02*
X147787861Y215337168D01*
X147787861Y215337168D02*
X147844709Y215223473D01*
X147844709Y215223473D02*
X147901556Y215166625D01*
X153782261Y214768692D02*
X153782261Y214086521D01*
X153782261Y214427607D02*
X154976061Y214427607D01*
X154976061Y214427607D02*
X154805518Y214313911D01*
X154805518Y214313911D02*
X154691823Y214200216D01*
X154691823Y214200216D02*
X154634975Y214086521D01*
X154525369Y221482138D02*
X154525369Y220288338D01*
X154525369Y220288338D02*
X155207540Y221482138D01*
X155207540Y221482138D02*
X155207540Y220288338D01*
X154468521Y215146652D02*
X155036997Y215146652D01*
X154354826Y215487738D02*
X154752759Y214293938D01*
X154752759Y214293938D02*
X155150692Y215487738D01*
X145531478Y144853347D02*
X144963002Y144853347D01*
X145645173Y144512261D02*
X145247240Y145706061D01*
X145247240Y145706061D02*
X144849307Y144512261D01*
X145474630Y138517861D02*
X145474630Y139711661D01*
X145474630Y139711661D02*
X144792459Y138517861D01*
X144792459Y138517861D02*
X144792459Y139711661D01*
X146217738Y145231307D02*
X146217738Y145913478D01*
X146217738Y145572392D02*
X145023938Y145572392D01*
X145023938Y145572392D02*
X145194481Y145686088D01*
X145194481Y145686088D02*
X145308176Y145799783D01*
X145308176Y145799783D02*
X145365024Y145913478D01*
X152212138Y145231307D02*
X152212138Y145913478D01*
X152212138Y145572392D02*
X151018338Y145572392D01*
X151018338Y145572392D02*
X151188881Y145686088D01*
X151188881Y145686088D02*
X151302576Y145799783D01*
X151302576Y145799783D02*
X151359424Y145913478D01*
X151018338Y144833374D02*
X151018338Y144094355D01*
X151018338Y144094355D02*
X151473119Y144492288D01*
X151473119Y144492288D02*
X151473119Y144321745D01*
X151473119Y144321745D02*
X151529967Y144208050D01*
X151529967Y144208050D02*
X151586814Y144151202D01*
X151586814Y144151202D02*
X151700510Y144094355D01*
X151700510Y144094355D02*
X151984748Y144094355D01*
X151984748Y144094355D02*
X152098443Y144151202D01*
X152098443Y144151202D02*
X152155291Y144208050D01*
X152155291Y144208050D02*
X152212138Y144321745D01*
X152212138Y144321745D02*
X152212138Y144662831D01*
X152212138Y144662831D02*
X152155291Y144776526D01*
X152155291Y144776526D02*
X152098443Y144833374D01*
%LPC*%
D11*
%TO.C,JP4*%
X70470000Y80880000D03*
X70470000Y78340000D03*
X70470000Y75800000D03*
%TD*%
D12*
%TO.C,J21*%
X76940000Y156126231D03*
X76940000Y157396231D03*
D13*
X75670000Y155491231D03*
X75670000Y158031231D03*
X78210000Y155491231D03*
X78210000Y158031231D03*
%TD*%
D11*
%TO.C,JP15*%
X209720000Y52510000D03*
X209720000Y49970000D03*
X209720000Y47430000D03*
%TD*%
D14*
%TO.C,J22*%
X80190000Y139390000D03*
X80190000Y134310000D03*
X85270000Y134310000D03*
X85270000Y139390000D03*
%TD*%
%TO.C,J54*%
X139107898Y121170000D03*
X142700000Y117577898D03*
X146292102Y121170000D03*
X142700000Y124762102D03*
%TD*%
D15*
%TO.C,SV1*%
X48760000Y127410000D03*
X51300000Y127410000D03*
X48760000Y124870000D03*
X51300000Y124870000D03*
X48760000Y122330000D03*
X51300000Y122330000D03*
X48760000Y119790000D03*
X51300000Y119790000D03*
X48760000Y117250000D03*
X51300000Y117250000D03*
X48760000Y114710000D03*
X51300000Y114710000D03*
X48760000Y112170000D03*
X51300000Y112170000D03*
X48760000Y109630000D03*
X51300000Y109630000D03*
X48760000Y107090000D03*
X51300000Y107090000D03*
X48760000Y104550000D03*
X51300000Y104550000D03*
%TD*%
D16*
%TO.C,X54*%
X246800000Y98230000D03*
X246800000Y100770000D03*
%TD*%
%TO.C,X17*%
X5520000Y157440000D03*
X5520000Y154900000D03*
%TD*%
D17*
%TO.C,UNK_HOLE_6*%
X116000000Y114000000D03*
%TD*%
D14*
%TO.C,J41*%
X230717898Y122860000D03*
X234310000Y119267898D03*
X237902102Y122860000D03*
X234310000Y126452102D03*
%TD*%
D18*
%TO.C,X3*%
X112481303Y55000128D03*
X115021303Y55000128D03*
X117561303Y55000128D03*
%TD*%
D16*
%TO.C,X10*%
X5730000Y165730000D03*
X5730000Y163190000D03*
%TD*%
D14*
%TO.C,J33*%
X215057898Y237010000D03*
X218650000Y233417898D03*
X222242102Y237010000D03*
X218650000Y240602102D03*
%TD*%
%TO.C,J29*%
X153747898Y198890000D03*
X157340000Y195297898D03*
X160932102Y198890000D03*
X157340000Y202482102D03*
%TD*%
D19*
%TO.C,X53*%
X5330000Y109760000D03*
X5330000Y105360000D03*
%TD*%
D14*
%TO.C,J39*%
X241957898Y225610000D03*
X245550000Y222017898D03*
X249142102Y225610000D03*
X245550000Y229202102D03*
%TD*%
D18*
%TO.C,X_14*%
X69130000Y29700000D03*
X71670000Y29700000D03*
%TD*%
%TO.C,X_9*%
X54130000Y14700000D03*
X56670000Y14700000D03*
%TD*%
D14*
%TO.C,J42*%
X233130000Y158617898D03*
X236722102Y162210000D03*
X233130000Y165802102D03*
X229537898Y162210000D03*
%TD*%
D16*
%TO.C,X4*%
X246530000Y60450000D03*
X246530000Y62990000D03*
%TD*%
%TO.C,X55*%
X4950000Y60250000D03*
X4950000Y57710000D03*
%TD*%
D18*
%TO.C,X_8*%
X39430000Y59450000D03*
X41970000Y59450000D03*
%TD*%
D14*
%TO.C,J43*%
X241867898Y150020000D03*
X245460000Y146427898D03*
X249052102Y150020000D03*
X245460000Y153612102D03*
%TD*%
D18*
%TO.C,X22*%
X181670000Y276600000D03*
X179130000Y276600000D03*
%TD*%
D16*
%TO.C,X12*%
X246480000Y76510000D03*
X246480000Y79050000D03*
%TD*%
D11*
%TO.C,JP16*%
X183320000Y52750000D03*
X183320000Y50210000D03*
X183320000Y47670000D03*
%TD*%
D20*
%TO.C,JP7*%
X34630000Y94120000D03*
X37170000Y94120000D03*
X39710000Y94120000D03*
X42250000Y94120000D03*
X44790000Y94120000D03*
X47330000Y94120000D03*
X49870000Y94120000D03*
X52410000Y94120000D03*
%TD*%
D18*
%TO.C,X_2*%
X41770000Y14500000D03*
X39230000Y14500000D03*
%TD*%
D14*
%TO.C,J23*%
X79960000Y224350000D03*
X79960000Y219270000D03*
X85040000Y219270000D03*
X85040000Y224350000D03*
%TD*%
D18*
%TO.C,X15*%
X185340000Y90970000D03*
X187880000Y90970000D03*
%TD*%
D16*
%TO.C,X11*%
X246880000Y106200000D03*
X246880000Y108740000D03*
%TD*%
D14*
%TO.C,J27*%
X134632102Y210690000D03*
X131040000Y214282102D03*
X127447898Y210690000D03*
X131040000Y207097898D03*
%TD*%
%TO.C,J32*%
X201557898Y223410000D03*
X205150000Y219817898D03*
X208742102Y223410000D03*
X205150000Y227002102D03*
%TD*%
%TO.C,J40*%
X241857898Y134160000D03*
X245450000Y130567898D03*
X249042102Y134160000D03*
X245450000Y137752102D03*
%TD*%
%TO.C,J20*%
X49460000Y225590000D03*
X49460000Y220510000D03*
X54540000Y220510000D03*
X54540000Y225590000D03*
%TD*%
D17*
%TO.C,UNK_HOLE_4*%
X256000000Y250000000D03*
%TD*%
D18*
%TO.C,X44*%
X117390165Y19924350D03*
X114850165Y19924350D03*
X112310165Y19924350D03*
%TD*%
%TO.C,X1*%
X192170000Y276600000D03*
X189630000Y276600000D03*
%TD*%
D14*
%TO.C,J45*%
X213357898Y161510000D03*
X216950000Y157917898D03*
X220542102Y161510000D03*
X216950000Y165102102D03*
%TD*%
D18*
%TO.C,X_3*%
X26970000Y44450000D03*
X24430000Y44450000D03*
%TD*%
D16*
%TO.C,X6*%
X246530000Y42670000D03*
X246530000Y45210000D03*
%TD*%
D14*
%TO.C,J51*%
X165997898Y150890000D03*
X169590000Y147297898D03*
X173182102Y150890000D03*
X169590000Y154482102D03*
%TD*%
D18*
%TO.C,X_16*%
X69230000Y59500000D03*
X71770000Y59500000D03*
%TD*%
D14*
%TO.C,J36*%
X243707898Y211610000D03*
X247300000Y208017898D03*
X250892102Y211610000D03*
X247300000Y215202102D03*
%TD*%
D12*
%TO.C,J19*%
X75200000Y180455000D03*
X75200000Y179185000D03*
D13*
X76470000Y181090000D03*
X76470000Y178550000D03*
X73930000Y181090000D03*
X73930000Y178550000D03*
%TD*%
D18*
%TO.C,X52*%
X167456093Y19969943D03*
X164916093Y19969943D03*
X162376093Y19969943D03*
%TD*%
%TO.C,X43*%
X107603256Y19863450D03*
X105063256Y19863450D03*
X102523256Y19863450D03*
%TD*%
%TO.C,X_4*%
X41970000Y44450000D03*
X39430000Y44450000D03*
%TD*%
D14*
%TO.C,J38*%
X228407898Y239110000D03*
X232000000Y235517898D03*
X235592102Y239110000D03*
X232000000Y242702102D03*
%TD*%
D17*
%TO.C,UNK_HOLE_7*%
X116000000Y250000000D03*
%TD*%
D18*
%TO.C,X39*%
X92294228Y55073850D03*
X94834228Y55073850D03*
X97374228Y55073850D03*
%TD*%
%TO.C,X41*%
X87674834Y20022253D03*
X85134834Y20022253D03*
X82594834Y20022253D03*
%TD*%
D14*
%TO.C,J48*%
X166707898Y134660000D03*
X170300000Y131067898D03*
X173892102Y134660000D03*
X170300000Y138252102D03*
%TD*%
D16*
%TO.C,X24*%
X4520000Y88170000D03*
X4520000Y85630000D03*
%TD*%
D14*
%TO.C,J37*%
X230347898Y198220000D03*
X233940000Y194627898D03*
X237532102Y198220000D03*
X233940000Y201812102D03*
%TD*%
D18*
%TO.C,X_13*%
X54130000Y29700000D03*
X56670000Y29700000D03*
%TD*%
D21*
%TO.C,JP1*%
X104890000Y92440000D03*
X102350000Y92440000D03*
X104890000Y94980000D03*
X102350000Y94980000D03*
X104890000Y97520000D03*
X102350000Y97520000D03*
X104890000Y100060000D03*
X102350000Y100060000D03*
X104890000Y102600000D03*
X102350000Y102600000D03*
X104890000Y105140000D03*
X102350000Y105140000D03*
%TD*%
D18*
%TO.C,X13*%
X203330000Y277230000D03*
X200790000Y277230000D03*
%TD*%
D16*
%TO.C,X19*%
X4970000Y48520000D03*
X4970000Y45980000D03*
%TD*%
D18*
%TO.C,X7*%
X121780000Y91970000D03*
X124320000Y91970000D03*
%TD*%
D17*
%TO.C,UNK_HOLE_0*%
X4000000Y4000000D03*
%TD*%
%TO.C,UNK_HOLE_3*%
X4000000Y296000000D03*
%TD*%
D18*
%TO.C,X46*%
X152371006Y54952618D03*
X154911006Y54952618D03*
X157451006Y54952618D03*
%TD*%
D16*
%TO.C,X16*%
X6020000Y222550000D03*
X6020000Y220010000D03*
%TD*%
D14*
%TO.C,J53*%
X137827898Y161790000D03*
X141420000Y158197898D03*
X145012102Y161790000D03*
X141420000Y165382102D03*
%TD*%
D22*
%TO.C,JP13*%
X91200000Y80990000D03*
X91200000Y78450000D03*
X88660000Y80990000D03*
X88660000Y78450000D03*
X86120000Y80990000D03*
X86120000Y78450000D03*
X83580000Y80990000D03*
X83580000Y78450000D03*
X81040000Y80990000D03*
X81040000Y78450000D03*
X78500000Y80990000D03*
X78500000Y78450000D03*
X75960000Y80990000D03*
X75960000Y78450000D03*
%TD*%
D20*
%TO.C,JP8*%
X44640000Y87020000D03*
X47180000Y87020000D03*
X49720000Y87020000D03*
X52260000Y87020000D03*
%TD*%
D14*
%TO.C,J34*%
X218840000Y194757898D03*
X222432102Y198350000D03*
X218840000Y201942102D03*
X215247898Y198350000D03*
%TD*%
D18*
%TO.C,X45*%
X162354712Y54953493D03*
X164894712Y54953493D03*
X167434712Y54953493D03*
%TD*%
%TO.C,X_6*%
X39230000Y29500000D03*
X41770000Y29500000D03*
%TD*%
D14*
%TO.C,J52*%
X125107898Y149140000D03*
X128700000Y145547898D03*
X132292102Y149140000D03*
X128700000Y152732102D03*
%TD*%
D16*
%TO.C,X9*%
X4620000Y254920000D03*
X4620000Y252380000D03*
%TD*%
D14*
%TO.C,J50*%
X158330000Y158347898D03*
X161922102Y161940000D03*
X158330000Y165532102D03*
X154737898Y161940000D03*
%TD*%
D20*
%TO.C,JP18*%
X37260000Y86500000D03*
X34720000Y86500000D03*
X32180000Y86500000D03*
X29640000Y86500000D03*
%TD*%
D14*
%TO.C,J26*%
X144440000Y193647898D03*
X148032102Y197240000D03*
X144440000Y200832102D03*
X140847898Y197240000D03*
%TD*%
%TO.C,J1*%
X64460000Y188440000D03*
X64460000Y183360000D03*
X69540000Y183360000D03*
X69540000Y188440000D03*
%TD*%
D23*
%TO.C,U7*%
X47872600Y49752600D03*
X47872600Y50540000D03*
X47872600Y51327400D03*
X48660000Y49752600D03*
X48660000Y50540000D03*
X48660000Y51327400D03*
X49447400Y49752600D03*
X49447400Y50540000D03*
X49447400Y51327400D03*
%TD*%
D18*
%TO.C,X_10*%
X69130000Y14700000D03*
X71670000Y14700000D03*
%TD*%
D14*
%TO.C,J46*%
X215347898Y120930000D03*
X218940000Y117337898D03*
X222532102Y120930000D03*
X218940000Y124522102D03*
%TD*%
%TO.C,J44*%
X201457898Y149710000D03*
X205050000Y146117898D03*
X208642102Y149710000D03*
X205050000Y153302102D03*
%TD*%
D18*
%TO.C,X21*%
X186250000Y78770000D03*
X188790000Y78770000D03*
%TD*%
D21*
%TO.C,JP3*%
X5540000Y180610000D03*
X3000000Y180610000D03*
X5540000Y183150000D03*
X3000000Y183150000D03*
X5540000Y185690000D03*
X3000000Y185690000D03*
X5540000Y188230000D03*
X3000000Y188230000D03*
%TD*%
D16*
%TO.C,X8*%
X5970000Y173610000D03*
X5970000Y171070000D03*
%TD*%
D18*
%TO.C,X_1*%
X26770000Y14500000D03*
X24230000Y14500000D03*
%TD*%
%TO.C,X47*%
X142490446Y54951746D03*
X145030446Y54951746D03*
X147570446Y54951746D03*
%TD*%
D11*
%TO.C,JP19*%
X219870000Y52680000D03*
X219870000Y50140000D03*
X219870000Y47600000D03*
%TD*%
D23*
%TO.C,U69*%
X47562600Y20652600D03*
X47562600Y21440000D03*
X47562600Y22227400D03*
X48350000Y20652600D03*
X48350000Y21440000D03*
X48350000Y22227400D03*
X49137400Y20652600D03*
X49137400Y21440000D03*
X49137400Y22227400D03*
%TD*%
D20*
%TO.C,JP2*%
X39620000Y80870000D03*
X42160000Y80870000D03*
X44700000Y80870000D03*
X47240000Y80870000D03*
X49780000Y80870000D03*
X52320000Y80870000D03*
%TD*%
D14*
%TO.C,J55*%
X126577898Y133590000D03*
X130170000Y129997898D03*
X133762102Y133590000D03*
X130170000Y137182102D03*
%TD*%
D11*
%TO.C,JP14*%
X214920000Y52670000D03*
X214920000Y50130000D03*
X214920000Y47590000D03*
%TD*%
%TO.C,JP5*%
X204370000Y52520000D03*
X204370000Y49980000D03*
X204370000Y47440000D03*
%TD*%
D14*
%TO.C,J25*%
X139157976Y237019915D03*
X142750078Y233427813D03*
X146342180Y237019915D03*
X142750078Y240612017D03*
%TD*%
D20*
%TO.C,JP17*%
X68490000Y125380000D03*
X65950000Y125380000D03*
X63410000Y125380000D03*
%TD*%
D16*
%TO.C,X18*%
X5520000Y142830000D03*
X5520000Y140290000D03*
%TD*%
D14*
%TO.C,J28*%
X167217898Y212460000D03*
X170810000Y208867898D03*
X174402102Y212460000D03*
X170810000Y216052102D03*
%TD*%
D11*
%TO.C,JP11*%
X193820000Y52490000D03*
X193820000Y49950000D03*
X193820000Y47410000D03*
%TD*%
D14*
%TO.C,J24*%
X125599166Y223551593D03*
X129191268Y219959491D03*
X132783370Y223551593D03*
X129191268Y227143695D03*
%TD*%
%TO.C,J49*%
X154657898Y122610000D03*
X158250000Y119017898D03*
X161842102Y122610000D03*
X158250000Y126202102D03*
%TD*%
D18*
%TO.C,X40*%
X82334890Y55083209D03*
X84874890Y55083209D03*
X87414890Y55083209D03*
%TD*%
%TO.C,X_15*%
X54230000Y59500000D03*
X56770000Y59500000D03*
%TD*%
%TO.C,X5*%
X243940000Y278030000D03*
X241400000Y278030000D03*
%TD*%
%TO.C,X_7*%
X24430000Y59450000D03*
X26970000Y59450000D03*
%TD*%
%TO.C,X42*%
X97523334Y19941656D03*
X94983334Y19941656D03*
X92443334Y19941656D03*
%TD*%
D14*
%TO.C,J47*%
X202927898Y133320000D03*
X206520000Y129727898D03*
X210112102Y133320000D03*
X206520000Y136912102D03*
%TD*%
%TO.C,J31*%
X165447898Y225140000D03*
X169040000Y221547898D03*
X172632102Y225140000D03*
X169040000Y228732102D03*
%TD*%
D17*
%TO.C,UNK_HOLE_5*%
X256000000Y114000000D03*
%TD*%
D18*
%TO.C,X_12*%
X69230000Y44500000D03*
X71770000Y44500000D03*
%TD*%
%TO.C,X_11*%
X54230000Y44500000D03*
X56770000Y44500000D03*
%TD*%
%TO.C,X14*%
X119770000Y278780000D03*
X117230000Y278780000D03*
%TD*%
D17*
%TO.C,UNK_HOLE_2*%
X256000000Y296000000D03*
%TD*%
D18*
%TO.C,X50*%
X147557268Y20079962D03*
X145017268Y20079962D03*
X142477268Y20079962D03*
%TD*%
D11*
%TO.C,JP10*%
X64920000Y80950000D03*
X64920000Y78410000D03*
X64920000Y75870000D03*
%TD*%
D14*
%TO.C,J18*%
X64470000Y197780000D03*
X64470000Y192700000D03*
X69550000Y192700000D03*
X69550000Y197780000D03*
%TD*%
%TO.C,J30*%
X155530000Y235047898D03*
X159122102Y238640000D03*
X155530000Y242232102D03*
X151937898Y238640000D03*
%TD*%
D11*
%TO.C,JP6*%
X198870000Y52410000D03*
X198870000Y49870000D03*
X198870000Y47330000D03*
%TD*%
D18*
%TO.C,X38*%
X102464390Y55102053D03*
X105004390Y55102053D03*
X107544390Y55102053D03*
%TD*%
D16*
%TO.C,X56*%
X4950000Y18390000D03*
X4950000Y15850000D03*
%TD*%
D17*
%TO.C,UNK_HOLE_1*%
X256000000Y4000000D03*
%TD*%
D18*
%TO.C,X49*%
X137582584Y20026518D03*
X135042584Y20026518D03*
X132502584Y20026518D03*
%TD*%
%TO.C,X20*%
X187810000Y285630000D03*
X185270000Y285630000D03*
%TD*%
D11*
%TO.C,JP20*%
X78500000Y190230000D03*
X78500000Y192770000D03*
%TD*%
D18*
%TO.C,X48*%
X132399156Y54989462D03*
X134939156Y54989462D03*
X137479156Y54989462D03*
%TD*%
D11*
%TO.C,JP12*%
X188520000Y52730000D03*
X188520000Y50190000D03*
X188520000Y47650000D03*
%TD*%
D18*
%TO.C,X_5*%
X24230000Y29500000D03*
X26770000Y29500000D03*
%TD*%
%TO.C,X51*%
X157548121Y19864793D03*
X155008121Y19864793D03*
X152468121Y19864793D03*
%TD*%
D14*
%TO.C,J35*%
X203157898Y210560000D03*
X206750000Y206967898D03*
X210342102Y210560000D03*
X206750000Y214152102D03*
%TD*%
D11*
%TO.C,JP9*%
X58720000Y80990000D03*
X58720000Y78450000D03*
X58720000Y75910000D03*
X58720000Y73370000D03*
%TD*%
%LPD*%
M02*
