%TF.GenerationSoftware,KiCad,Pcbnew,10.0.6*%
%TF.CreationDate,2026-10-09T04:17:02+03:00*%
%TF.ProjectId,aeris10_patch_array,61657269-7331-4305-9f70-617463685f61,A*%
%TF.SameCoordinates,Original*%
%TF.FileFunction,Soldermask,Top*%
%TF.FilePolarity,Negative*%
%FSLAX46Y46*%
G04 Gerber Fmt 4.6, Leading zero omitted, Abs format (unit mm)*
G04 Created by KiCad (PCBNEW 10.0.6) date 2026-10-09 04:17:02*
%MOMM*%
%LPD*%
G01*
G04 APERTURE LIST*
G04 Aperture macros list*
%AMRoundRect*
0 Rectangle with rounded corners*
0 $1 Rounding radius*
0 $2 $3 $4 $5 $6 $7 $8 $9 X,Y pos of 4 corners*
0 Add a 4 corners polygon primitive as box body*
4,1,4,$2,$3,$4,$5,$6,$7,$8,$9,$2,$3,0*
0 Add four circle primitives for the rounded corners*
1,1,$1+$1,$2,$3*
1,1,$1+$1,$4,$5*
1,1,$1+$1,$6,$7*
1,1,$1+$1,$8,$9*
0 Add four rect primitives between the rounded corners*
20,1,$1+$1,$2,$3,$4,$5,0*
20,1,$1+$1,$4,$5,$6,$7,0*
20,1,$1+$1,$6,$7,$8,$9,0*
20,1,$1+$1,$8,$9,$2,$3,0*%
G04 Aperture macros list end*
%ADD10C,0.000000*%
%ADD11C,3.300000*%
%ADD12RoundRect,0.050000X-1.000000X-0.556000X1.000000X-0.556000X1.000000X0.556000X-1.000000X0.556000X0*%
%ADD13RoundRect,0.050000X-1.000000X-1.000000X1.000000X-1.000000X1.000000X1.000000X-1.000000X1.000000X0*%
%ADD14C,0.700000*%
G04 APERTURE END LIST*
D10*
G36*
X32000000Y230620200D02*
G01*
X2000000Y230620200D01*
X2000000Y231732200D01*
X32000000Y231732200D01*
X32000000Y230620200D01*
G37*
G36*
X32000000Y216320200D02*
G01*
X2000000Y216320200D01*
X2000000Y217432200D01*
X32000000Y217432200D01*
X32000000Y216320200D01*
G37*
G36*
X32000000Y202020200D02*
G01*
X2000000Y202020200D01*
X2000000Y203132200D01*
X32000000Y203132200D01*
X32000000Y202020200D01*
G37*
G36*
X32000000Y187720200D02*
G01*
X2000000Y187720200D01*
X2000000Y188832200D01*
X32000000Y188832200D01*
X32000000Y187720200D01*
G37*
G36*
X32000000Y173420200D02*
G01*
X2000000Y173420200D01*
X2000000Y174532200D01*
X32000000Y174532200D01*
X32000000Y173420200D01*
G37*
G36*
X32000000Y159120200D02*
G01*
X2000000Y159120200D01*
X2000000Y160232200D01*
X32000000Y160232200D01*
X32000000Y159120200D01*
G37*
G36*
X32000000Y144820200D02*
G01*
X2000000Y144820200D01*
X2000000Y145932200D01*
X32000000Y145932200D01*
X32000000Y144820200D01*
G37*
G36*
X32000000Y130520200D02*
G01*
X2000000Y130520200D01*
X2000000Y131632200D01*
X32000000Y131632200D01*
X32000000Y130520200D01*
G37*
G36*
X32000000Y116220200D02*
G01*
X2000000Y116220200D01*
X2000000Y117332200D01*
X32000000Y117332200D01*
X32000000Y116220200D01*
G37*
G36*
X32000000Y101920200D02*
G01*
X2000000Y101920200D01*
X2000000Y103032200D01*
X32000000Y103032200D01*
X32000000Y101920200D01*
G37*
G36*
X32000000Y87620200D02*
G01*
X2000000Y87620200D01*
X2000000Y88732200D01*
X32000000Y88732200D01*
X32000000Y87620200D01*
G37*
G36*
X32000000Y73320200D02*
G01*
X2000000Y73320200D01*
X2000000Y74432200D01*
X32000000Y74432200D01*
X32000000Y73320200D01*
G37*
G36*
X32000000Y59020200D02*
G01*
X2000000Y59020200D01*
X2000000Y60132200D01*
X32000000Y60132200D01*
X32000000Y59020200D01*
G37*
G36*
X32000000Y44720200D02*
G01*
X2000000Y44720200D01*
X2000000Y45832200D01*
X32000000Y45832200D01*
X32000000Y44720200D01*
G37*
G36*
X32000000Y30420200D02*
G01*
X2000000Y30420200D01*
X2000000Y31532200D01*
X32000000Y31532200D01*
X32000000Y30420200D01*
G37*
G36*
X32000000Y16120200D02*
G01*
X2000000Y16120200D01*
X2000000Y17232200D01*
X32000000Y17232200D01*
X32000000Y16120200D01*
G37*
G36*
X36182100Y230450800D02*
G01*
X32000000Y230450800D01*
X32000000Y231901600D01*
X36182100Y231901600D01*
X36182100Y230450800D01*
G37*
G36*
X36182100Y216150800D02*
G01*
X32000000Y216150800D01*
X32000000Y217601600D01*
X36182100Y217601600D01*
X36182100Y216150800D01*
G37*
G36*
X36182100Y201850800D02*
G01*
X32000000Y201850800D01*
X32000000Y203301600D01*
X36182100Y203301600D01*
X36182100Y201850800D01*
G37*
G36*
X36182100Y187550800D02*
G01*
X32000000Y187550800D01*
X32000000Y189001600D01*
X36182100Y189001600D01*
X36182100Y187550800D01*
G37*
G36*
X36182100Y173250800D02*
G01*
X32000000Y173250800D01*
X32000000Y174701600D01*
X36182100Y174701600D01*
X36182100Y173250800D01*
G37*
G36*
X36182100Y158950800D02*
G01*
X32000000Y158950800D01*
X32000000Y160401600D01*
X36182100Y160401600D01*
X36182100Y158950800D01*
G37*
G36*
X36182100Y144650800D02*
G01*
X32000000Y144650800D01*
X32000000Y146101600D01*
X36182100Y146101600D01*
X36182100Y144650800D01*
G37*
G36*
X36182100Y130350800D02*
G01*
X32000000Y130350800D01*
X32000000Y131801600D01*
X36182100Y131801600D01*
X36182100Y130350800D01*
G37*
G36*
X36182100Y116050800D02*
G01*
X32000000Y116050800D01*
X32000000Y117501600D01*
X36182100Y117501600D01*
X36182100Y116050800D01*
G37*
G36*
X36182100Y101750800D02*
G01*
X32000000Y101750800D01*
X32000000Y103201600D01*
X36182100Y103201600D01*
X36182100Y101750800D01*
G37*
G36*
X36182100Y87450800D02*
G01*
X32000000Y87450800D01*
X32000000Y88901600D01*
X36182100Y88901600D01*
X36182100Y87450800D01*
G37*
G36*
X36182100Y73150800D02*
G01*
X32000000Y73150800D01*
X32000000Y74601600D01*
X36182100Y74601600D01*
X36182100Y73150800D01*
G37*
G36*
X36182100Y58850800D02*
G01*
X32000000Y58850800D01*
X32000000Y60301600D01*
X36182100Y60301600D01*
X36182100Y58850800D01*
G37*
G36*
X36182100Y44550800D02*
G01*
X32000000Y44550800D01*
X32000000Y46001600D01*
X36182100Y46001600D01*
X36182100Y44550800D01*
G37*
G36*
X36182100Y30250800D02*
G01*
X32000000Y30250800D01*
X32000000Y31701600D01*
X36182100Y31701600D01*
X36182100Y30250800D01*
G37*
G36*
X36182100Y15950800D02*
G01*
X32000000Y15950800D01*
X32000000Y17401600D01*
X36182100Y17401600D01*
X36182100Y15950800D01*
G37*
G36*
X43484600Y226500000D02*
G01*
X36182100Y226500000D01*
X36182100Y235852400D01*
X43484600Y235852400D01*
X43484600Y226500000D01*
G37*
G36*
X43484600Y212200000D02*
G01*
X36182100Y212200000D01*
X36182100Y221552400D01*
X43484600Y221552400D01*
X43484600Y212200000D01*
G37*
G36*
X43484600Y197900000D02*
G01*
X36182100Y197900000D01*
X36182100Y207252400D01*
X43484600Y207252400D01*
X43484600Y197900000D01*
G37*
G36*
X43484600Y183600000D02*
G01*
X36182100Y183600000D01*
X36182100Y192952400D01*
X43484600Y192952400D01*
X43484600Y183600000D01*
G37*
G36*
X43484600Y169300000D02*
G01*
X36182100Y169300000D01*
X36182100Y178652400D01*
X43484600Y178652400D01*
X43484600Y169300000D01*
G37*
G36*
X43484600Y155000000D02*
G01*
X36182100Y155000000D01*
X36182100Y164352400D01*
X43484600Y164352400D01*
X43484600Y155000000D01*
G37*
G36*
X43484600Y140700000D02*
G01*
X36182100Y140700000D01*
X36182100Y150052400D01*
X43484600Y150052400D01*
X43484600Y140700000D01*
G37*
G36*
X43484600Y126400000D02*
G01*
X36182100Y126400000D01*
X36182100Y135752400D01*
X43484600Y135752400D01*
X43484600Y126400000D01*
G37*
G36*
X43484600Y112100000D02*
G01*
X36182100Y112100000D01*
X36182100Y121452400D01*
X43484600Y121452400D01*
X43484600Y112100000D01*
G37*
G36*
X43484600Y97800000D02*
G01*
X36182100Y97800000D01*
X36182100Y107152400D01*
X43484600Y107152400D01*
X43484600Y97800000D01*
G37*
G36*
X43484600Y83500000D02*
G01*
X36182100Y83500000D01*
X36182100Y92852400D01*
X43484600Y92852400D01*
X43484600Y83500000D01*
G37*
G36*
X43484600Y69200000D02*
G01*
X36182100Y69200000D01*
X36182100Y78552400D01*
X43484600Y78552400D01*
X43484600Y69200000D01*
G37*
G36*
X43484600Y54900000D02*
G01*
X36182100Y54900000D01*
X36182100Y64252400D01*
X43484600Y64252400D01*
X43484600Y54900000D01*
G37*
G36*
X43484600Y40600000D02*
G01*
X36182100Y40600000D01*
X36182100Y49952400D01*
X43484600Y49952400D01*
X43484600Y40600000D01*
G37*
G36*
X43484600Y26300000D02*
G01*
X36182100Y26300000D01*
X36182100Y35652400D01*
X43484600Y35652400D01*
X43484600Y26300000D01*
G37*
G36*
X43484600Y12000000D02*
G01*
X36182100Y12000000D01*
X36182100Y21352400D01*
X43484600Y21352400D01*
X43484600Y12000000D01*
G37*
G36*
X52325100Y231037300D02*
G01*
X43484600Y231037300D01*
X43484600Y231315100D01*
X52325100Y231315100D01*
X52325100Y231037300D01*
G37*
G36*
X52325100Y216737300D02*
G01*
X43484600Y216737300D01*
X43484600Y217015100D01*
X52325100Y217015100D01*
X52325100Y216737300D01*
G37*
G36*
X52325100Y202437300D02*
G01*
X43484600Y202437300D01*
X43484600Y202715100D01*
X52325100Y202715100D01*
X52325100Y202437300D01*
G37*
G36*
X52325100Y188137300D02*
G01*
X43484600Y188137300D01*
X43484600Y188415100D01*
X52325100Y188415100D01*
X52325100Y188137300D01*
G37*
G36*
X52325100Y173837300D02*
G01*
X43484600Y173837300D01*
X43484600Y174115100D01*
X52325100Y174115100D01*
X52325100Y173837300D01*
G37*
G36*
X52325100Y159537300D02*
G01*
X43484600Y159537300D01*
X43484600Y159815100D01*
X52325100Y159815100D01*
X52325100Y159537300D01*
G37*
G36*
X52325100Y145237300D02*
G01*
X43484600Y145237300D01*
X43484600Y145515100D01*
X52325100Y145515100D01*
X52325100Y145237300D01*
G37*
G36*
X52325100Y130937300D02*
G01*
X43484600Y130937300D01*
X43484600Y131215100D01*
X52325100Y131215100D01*
X52325100Y130937300D01*
G37*
G36*
X52325100Y116637300D02*
G01*
X43484600Y116637300D01*
X43484600Y116915100D01*
X52325100Y116915100D01*
X52325100Y116637300D01*
G37*
G36*
X52325100Y102337300D02*
G01*
X43484600Y102337300D01*
X43484600Y102615100D01*
X52325100Y102615100D01*
X52325100Y102337300D01*
G37*
G36*
X52325100Y88037300D02*
G01*
X43484600Y88037300D01*
X43484600Y88315100D01*
X52325100Y88315100D01*
X52325100Y88037300D01*
G37*
G36*
X52325100Y73737300D02*
G01*
X43484600Y73737300D01*
X43484600Y74015100D01*
X52325100Y74015100D01*
X52325100Y73737300D01*
G37*
G36*
X52325100Y59437300D02*
G01*
X43484600Y59437300D01*
X43484600Y59715100D01*
X52325100Y59715100D01*
X52325100Y59437300D01*
G37*
G36*
X52325100Y45137300D02*
G01*
X43484600Y45137300D01*
X43484600Y45415100D01*
X52325100Y45415100D01*
X52325100Y45137300D01*
G37*
G36*
X52325100Y30837300D02*
G01*
X43484600Y30837300D01*
X43484600Y31115100D01*
X52325100Y31115100D01*
X52325100Y30837300D01*
G37*
G36*
X52325100Y16537300D02*
G01*
X43484600Y16537300D01*
X43484600Y16815100D01*
X52325100Y16815100D01*
X52325100Y16537300D01*
G37*
G36*
X59627600Y226500000D02*
G01*
X52325100Y226500000D01*
X52325100Y235852400D01*
X59627600Y235852400D01*
X59627600Y226500000D01*
G37*
G36*
X59627600Y212200000D02*
G01*
X52325100Y212200000D01*
X52325100Y221552400D01*
X59627600Y221552400D01*
X59627600Y212200000D01*
G37*
G36*
X59627600Y197900000D02*
G01*
X52325100Y197900000D01*
X52325100Y207252400D01*
X59627600Y207252400D01*
X59627600Y197900000D01*
G37*
G36*
X59627600Y183600000D02*
G01*
X52325100Y183600000D01*
X52325100Y192952400D01*
X59627600Y192952400D01*
X59627600Y183600000D01*
G37*
G36*
X59627600Y169300000D02*
G01*
X52325100Y169300000D01*
X52325100Y178652400D01*
X59627600Y178652400D01*
X59627600Y169300000D01*
G37*
G36*
X59627600Y155000000D02*
G01*
X52325100Y155000000D01*
X52325100Y164352400D01*
X59627600Y164352400D01*
X59627600Y155000000D01*
G37*
G36*
X59627600Y140700000D02*
G01*
X52325100Y140700000D01*
X52325100Y150052400D01*
X59627600Y150052400D01*
X59627600Y140700000D01*
G37*
G36*
X59627600Y126400000D02*
G01*
X52325100Y126400000D01*
X52325100Y135752400D01*
X59627600Y135752400D01*
X59627600Y126400000D01*
G37*
G36*
X59627600Y112100000D02*
G01*
X52325100Y112100000D01*
X52325100Y121452400D01*
X59627600Y121452400D01*
X59627600Y112100000D01*
G37*
G36*
X59627600Y97800000D02*
G01*
X52325100Y97800000D01*
X52325100Y107152400D01*
X59627600Y107152400D01*
X59627600Y97800000D01*
G37*
G36*
X59627600Y83500000D02*
G01*
X52325100Y83500000D01*
X52325100Y92852400D01*
X59627600Y92852400D01*
X59627600Y83500000D01*
G37*
G36*
X59627600Y69200000D02*
G01*
X52325100Y69200000D01*
X52325100Y78552400D01*
X59627600Y78552400D01*
X59627600Y69200000D01*
G37*
G36*
X59627600Y54900000D02*
G01*
X52325100Y54900000D01*
X52325100Y64252400D01*
X59627600Y64252400D01*
X59627600Y54900000D01*
G37*
G36*
X59627600Y40600000D02*
G01*
X52325100Y40600000D01*
X52325100Y49952400D01*
X59627600Y49952400D01*
X59627600Y40600000D01*
G37*
G36*
X59627600Y26300000D02*
G01*
X52325100Y26300000D01*
X52325100Y35652400D01*
X59627600Y35652400D01*
X59627600Y26300000D01*
G37*
G36*
X59627600Y12000000D02*
G01*
X52325100Y12000000D01*
X52325100Y21352400D01*
X59627600Y21352400D01*
X59627600Y12000000D01*
G37*
G36*
X68468200Y231037300D02*
G01*
X59627600Y231037300D01*
X59627600Y231315100D01*
X68468200Y231315100D01*
X68468200Y231037300D01*
G37*
G36*
X68468200Y216737300D02*
G01*
X59627600Y216737300D01*
X59627600Y217015100D01*
X68468200Y217015100D01*
X68468200Y216737300D01*
G37*
G36*
X68468200Y202437300D02*
G01*
X59627600Y202437300D01*
X59627600Y202715100D01*
X68468200Y202715100D01*
X68468200Y202437300D01*
G37*
G36*
X68468200Y188137300D02*
G01*
X59627600Y188137300D01*
X59627600Y188415100D01*
X68468200Y188415100D01*
X68468200Y188137300D01*
G37*
G36*
X68468200Y173837300D02*
G01*
X59627600Y173837300D01*
X59627600Y174115100D01*
X68468200Y174115100D01*
X68468200Y173837300D01*
G37*
G36*
X68468200Y159537300D02*
G01*
X59627600Y159537300D01*
X59627600Y159815100D01*
X68468200Y159815100D01*
X68468200Y159537300D01*
G37*
G36*
X68468200Y145237300D02*
G01*
X59627600Y145237300D01*
X59627600Y145515100D01*
X68468200Y145515100D01*
X68468200Y145237300D01*
G37*
G36*
X68468200Y130937300D02*
G01*
X59627600Y130937300D01*
X59627600Y131215100D01*
X68468200Y131215100D01*
X68468200Y130937300D01*
G37*
G36*
X68468200Y116637300D02*
G01*
X59627600Y116637300D01*
X59627600Y116915100D01*
X68468200Y116915100D01*
X68468200Y116637300D01*
G37*
G36*
X68468200Y102337300D02*
G01*
X59627600Y102337300D01*
X59627600Y102615100D01*
X68468200Y102615100D01*
X68468200Y102337300D01*
G37*
G36*
X68468200Y88037300D02*
G01*
X59627600Y88037300D01*
X59627600Y88315100D01*
X68468200Y88315100D01*
X68468200Y88037300D01*
G37*
G36*
X68468200Y73737300D02*
G01*
X59627600Y73737300D01*
X59627600Y74015100D01*
X68468200Y74015100D01*
X68468200Y73737300D01*
G37*
G36*
X68468200Y59437300D02*
G01*
X59627600Y59437300D01*
X59627600Y59715100D01*
X68468200Y59715100D01*
X68468200Y59437300D01*
G37*
G36*
X68468200Y45137300D02*
G01*
X59627600Y45137300D01*
X59627600Y45415100D01*
X68468200Y45415100D01*
X68468200Y45137300D01*
G37*
G36*
X68468200Y30837300D02*
G01*
X59627600Y30837300D01*
X59627600Y31115100D01*
X68468200Y31115100D01*
X68468200Y30837300D01*
G37*
G36*
X68468200Y16537300D02*
G01*
X59627600Y16537300D01*
X59627600Y16815100D01*
X68468200Y16815100D01*
X68468200Y16537300D01*
G37*
G36*
X75770700Y226500000D02*
G01*
X68468200Y226500000D01*
X68468200Y235852400D01*
X75770700Y235852400D01*
X75770700Y226500000D01*
G37*
G36*
X75770700Y212200000D02*
G01*
X68468200Y212200000D01*
X68468200Y221552400D01*
X75770700Y221552400D01*
X75770700Y212200000D01*
G37*
G36*
X75770700Y197900000D02*
G01*
X68468200Y197900000D01*
X68468200Y207252400D01*
X75770700Y207252400D01*
X75770700Y197900000D01*
G37*
G36*
X75770700Y183600000D02*
G01*
X68468200Y183600000D01*
X68468200Y192952400D01*
X75770700Y192952400D01*
X75770700Y183600000D01*
G37*
G36*
X75770700Y169300000D02*
G01*
X68468200Y169300000D01*
X68468200Y178652400D01*
X75770700Y178652400D01*
X75770700Y169300000D01*
G37*
G36*
X75770700Y155000000D02*
G01*
X68468200Y155000000D01*
X68468200Y164352400D01*
X75770700Y164352400D01*
X75770700Y155000000D01*
G37*
G36*
X75770700Y140700000D02*
G01*
X68468200Y140700000D01*
X68468200Y150052400D01*
X75770700Y150052400D01*
X75770700Y140700000D01*
G37*
G36*
X75770700Y126400000D02*
G01*
X68468200Y126400000D01*
X68468200Y135752400D01*
X75770700Y135752400D01*
X75770700Y126400000D01*
G37*
G36*
X75770700Y112100000D02*
G01*
X68468200Y112100000D01*
X68468200Y121452400D01*
X75770700Y121452400D01*
X75770700Y112100000D01*
G37*
G36*
X75770700Y97800000D02*
G01*
X68468200Y97800000D01*
X68468200Y107152400D01*
X75770700Y107152400D01*
X75770700Y97800000D01*
G37*
G36*
X75770700Y83500000D02*
G01*
X68468200Y83500000D01*
X68468200Y92852400D01*
X75770700Y92852400D01*
X75770700Y83500000D01*
G37*
G36*
X75770700Y69200000D02*
G01*
X68468200Y69200000D01*
X68468200Y78552400D01*
X75770700Y78552400D01*
X75770700Y69200000D01*
G37*
G36*
X75770700Y54900000D02*
G01*
X68468200Y54900000D01*
X68468200Y64252400D01*
X75770700Y64252400D01*
X75770700Y54900000D01*
G37*
G36*
X75770700Y40600000D02*
G01*
X68468200Y40600000D01*
X68468200Y49952400D01*
X75770700Y49952400D01*
X75770700Y40600000D01*
G37*
G36*
X75770700Y26300000D02*
G01*
X68468200Y26300000D01*
X68468200Y35652400D01*
X75770700Y35652400D01*
X75770700Y26300000D01*
G37*
G36*
X75770700Y12000000D02*
G01*
X68468200Y12000000D01*
X68468200Y21352400D01*
X75770700Y21352400D01*
X75770700Y12000000D01*
G37*
G36*
X84611200Y231037300D02*
G01*
X75770700Y231037300D01*
X75770700Y231315100D01*
X84611200Y231315100D01*
X84611200Y231037300D01*
G37*
G36*
X84611200Y216737300D02*
G01*
X75770700Y216737300D01*
X75770700Y217015100D01*
X84611200Y217015100D01*
X84611200Y216737300D01*
G37*
G36*
X84611200Y202437300D02*
G01*
X75770700Y202437300D01*
X75770700Y202715100D01*
X84611200Y202715100D01*
X84611200Y202437300D01*
G37*
G36*
X84611200Y188137300D02*
G01*
X75770700Y188137300D01*
X75770700Y188415100D01*
X84611200Y188415100D01*
X84611200Y188137300D01*
G37*
G36*
X84611200Y173837300D02*
G01*
X75770700Y173837300D01*
X75770700Y174115100D01*
X84611200Y174115100D01*
X84611200Y173837300D01*
G37*
G36*
X84611200Y159537300D02*
G01*
X75770700Y159537300D01*
X75770700Y159815100D01*
X84611200Y159815100D01*
X84611200Y159537300D01*
G37*
G36*
X84611200Y145237300D02*
G01*
X75770700Y145237300D01*
X75770700Y145515100D01*
X84611200Y145515100D01*
X84611200Y145237300D01*
G37*
G36*
X84611200Y130937300D02*
G01*
X75770700Y130937300D01*
X75770700Y131215100D01*
X84611200Y131215100D01*
X84611200Y130937300D01*
G37*
G36*
X84611200Y116637300D02*
G01*
X75770700Y116637300D01*
X75770700Y116915100D01*
X84611200Y116915100D01*
X84611200Y116637300D01*
G37*
G36*
X84611200Y102337300D02*
G01*
X75770700Y102337300D01*
X75770700Y102615100D01*
X84611200Y102615100D01*
X84611200Y102337300D01*
G37*
G36*
X84611200Y88037300D02*
G01*
X75770700Y88037300D01*
X75770700Y88315100D01*
X84611200Y88315100D01*
X84611200Y88037300D01*
G37*
G36*
X84611200Y73737300D02*
G01*
X75770700Y73737300D01*
X75770700Y74015100D01*
X84611200Y74015100D01*
X84611200Y73737300D01*
G37*
G36*
X84611200Y59437300D02*
G01*
X75770700Y59437300D01*
X75770700Y59715100D01*
X84611200Y59715100D01*
X84611200Y59437300D01*
G37*
G36*
X84611200Y45137300D02*
G01*
X75770700Y45137300D01*
X75770700Y45415100D01*
X84611200Y45415100D01*
X84611200Y45137300D01*
G37*
G36*
X84611200Y30837300D02*
G01*
X75770700Y30837300D01*
X75770700Y31115100D01*
X84611200Y31115100D01*
X84611200Y30837300D01*
G37*
G36*
X84611200Y16537300D02*
G01*
X75770700Y16537300D01*
X75770700Y16815100D01*
X84611200Y16815100D01*
X84611200Y16537300D01*
G37*
G36*
X91913700Y226500000D02*
G01*
X84611200Y226500000D01*
X84611200Y235852400D01*
X91913700Y235852400D01*
X91913700Y226500000D01*
G37*
G36*
X91913700Y212200000D02*
G01*
X84611200Y212200000D01*
X84611200Y221552400D01*
X91913700Y221552400D01*
X91913700Y212200000D01*
G37*
G36*
X91913700Y197900000D02*
G01*
X84611200Y197900000D01*
X84611200Y207252400D01*
X91913700Y207252400D01*
X91913700Y197900000D01*
G37*
G36*
X91913700Y183600000D02*
G01*
X84611200Y183600000D01*
X84611200Y192952400D01*
X91913700Y192952400D01*
X91913700Y183600000D01*
G37*
G36*
X91913700Y169300000D02*
G01*
X84611200Y169300000D01*
X84611200Y178652400D01*
X91913700Y178652400D01*
X91913700Y169300000D01*
G37*
G36*
X91913700Y155000000D02*
G01*
X84611200Y155000000D01*
X84611200Y164352400D01*
X91913700Y164352400D01*
X91913700Y155000000D01*
G37*
G36*
X91913700Y140700000D02*
G01*
X84611200Y140700000D01*
X84611200Y150052400D01*
X91913700Y150052400D01*
X91913700Y140700000D01*
G37*
G36*
X91913700Y126400000D02*
G01*
X84611200Y126400000D01*
X84611200Y135752400D01*
X91913700Y135752400D01*
X91913700Y126400000D01*
G37*
G36*
X91913700Y112100000D02*
G01*
X84611200Y112100000D01*
X84611200Y121452400D01*
X91913700Y121452400D01*
X91913700Y112100000D01*
G37*
G36*
X91913700Y97800000D02*
G01*
X84611200Y97800000D01*
X84611200Y107152400D01*
X91913700Y107152400D01*
X91913700Y97800000D01*
G37*
G36*
X91913700Y83500000D02*
G01*
X84611200Y83500000D01*
X84611200Y92852400D01*
X91913700Y92852400D01*
X91913700Y83500000D01*
G37*
G36*
X91913700Y69200000D02*
G01*
X84611200Y69200000D01*
X84611200Y78552400D01*
X91913700Y78552400D01*
X91913700Y69200000D01*
G37*
G36*
X91913700Y54900000D02*
G01*
X84611200Y54900000D01*
X84611200Y64252400D01*
X91913700Y64252400D01*
X91913700Y54900000D01*
G37*
G36*
X91913700Y40600000D02*
G01*
X84611200Y40600000D01*
X84611200Y49952400D01*
X91913700Y49952400D01*
X91913700Y40600000D01*
G37*
G36*
X91913700Y26300000D02*
G01*
X84611200Y26300000D01*
X84611200Y35652400D01*
X91913700Y35652400D01*
X91913700Y26300000D01*
G37*
G36*
X91913700Y12000000D02*
G01*
X84611200Y12000000D01*
X84611200Y21352400D01*
X91913700Y21352400D01*
X91913700Y12000000D01*
G37*
G36*
X100754200Y231037300D02*
G01*
X91913700Y231037300D01*
X91913700Y231315100D01*
X100754200Y231315100D01*
X100754200Y231037300D01*
G37*
G36*
X100754200Y216737300D02*
G01*
X91913700Y216737300D01*
X91913700Y217015100D01*
X100754200Y217015100D01*
X100754200Y216737300D01*
G37*
G36*
X100754200Y202437300D02*
G01*
X91913700Y202437300D01*
X91913700Y202715100D01*
X100754200Y202715100D01*
X100754200Y202437300D01*
G37*
G36*
X100754200Y188137300D02*
G01*
X91913700Y188137300D01*
X91913700Y188415100D01*
X100754200Y188415100D01*
X100754200Y188137300D01*
G37*
G36*
X100754200Y173837300D02*
G01*
X91913700Y173837300D01*
X91913700Y174115100D01*
X100754200Y174115100D01*
X100754200Y173837300D01*
G37*
G36*
X100754200Y159537300D02*
G01*
X91913700Y159537300D01*
X91913700Y159815100D01*
X100754200Y159815100D01*
X100754200Y159537300D01*
G37*
G36*
X100754200Y145237300D02*
G01*
X91913700Y145237300D01*
X91913700Y145515100D01*
X100754200Y145515100D01*
X100754200Y145237300D01*
G37*
G36*
X100754200Y130937300D02*
G01*
X91913700Y130937300D01*
X91913700Y131215100D01*
X100754200Y131215100D01*
X100754200Y130937300D01*
G37*
G36*
X100754200Y116637300D02*
G01*
X91913700Y116637300D01*
X91913700Y116915100D01*
X100754200Y116915100D01*
X100754200Y116637300D01*
G37*
G36*
X100754200Y102337300D02*
G01*
X91913700Y102337300D01*
X91913700Y102615100D01*
X100754200Y102615100D01*
X100754200Y102337300D01*
G37*
G36*
X100754200Y88037300D02*
G01*
X91913700Y88037300D01*
X91913700Y88315100D01*
X100754200Y88315100D01*
X100754200Y88037300D01*
G37*
G36*
X100754200Y73737300D02*
G01*
X91913700Y73737300D01*
X91913700Y74015100D01*
X100754200Y74015100D01*
X100754200Y73737300D01*
G37*
G36*
X100754200Y59437300D02*
G01*
X91913700Y59437300D01*
X91913700Y59715100D01*
X100754200Y59715100D01*
X100754200Y59437300D01*
G37*
G36*
X100754200Y45137300D02*
G01*
X91913700Y45137300D01*
X91913700Y45415100D01*
X100754200Y45415100D01*
X100754200Y45137300D01*
G37*
G36*
X100754200Y30837300D02*
G01*
X91913700Y30837300D01*
X91913700Y31115100D01*
X100754200Y31115100D01*
X100754200Y30837300D01*
G37*
G36*
X100754200Y16537300D02*
G01*
X91913700Y16537300D01*
X91913700Y16815100D01*
X100754200Y16815100D01*
X100754200Y16537300D01*
G37*
G36*
X108056800Y226500000D02*
G01*
X100754200Y226500000D01*
X100754200Y235852400D01*
X108056800Y235852400D01*
X108056800Y226500000D01*
G37*
G36*
X108056800Y212200000D02*
G01*
X100754200Y212200000D01*
X100754200Y221552400D01*
X108056800Y221552400D01*
X108056800Y212200000D01*
G37*
G36*
X108056800Y197900000D02*
G01*
X100754200Y197900000D01*
X100754200Y207252400D01*
X108056800Y207252400D01*
X108056800Y197900000D01*
G37*
G36*
X108056800Y183600000D02*
G01*
X100754200Y183600000D01*
X100754200Y192952400D01*
X108056800Y192952400D01*
X108056800Y183600000D01*
G37*
G36*
X108056800Y169300000D02*
G01*
X100754200Y169300000D01*
X100754200Y178652400D01*
X108056800Y178652400D01*
X108056800Y169300000D01*
G37*
G36*
X108056800Y155000000D02*
G01*
X100754200Y155000000D01*
X100754200Y164352400D01*
X108056800Y164352400D01*
X108056800Y155000000D01*
G37*
G36*
X108056800Y140700000D02*
G01*
X100754200Y140700000D01*
X100754200Y150052400D01*
X108056800Y150052400D01*
X108056800Y140700000D01*
G37*
G36*
X108056800Y126400000D02*
G01*
X100754200Y126400000D01*
X100754200Y135752400D01*
X108056800Y135752400D01*
X108056800Y126400000D01*
G37*
G36*
X108056800Y112100000D02*
G01*
X100754200Y112100000D01*
X100754200Y121452400D01*
X108056800Y121452400D01*
X108056800Y112100000D01*
G37*
G36*
X108056800Y97800000D02*
G01*
X100754200Y97800000D01*
X100754200Y107152400D01*
X108056800Y107152400D01*
X108056800Y97800000D01*
G37*
G36*
X108056800Y83500000D02*
G01*
X100754200Y83500000D01*
X100754200Y92852400D01*
X108056800Y92852400D01*
X108056800Y83500000D01*
G37*
G36*
X108056800Y69200000D02*
G01*
X100754200Y69200000D01*
X100754200Y78552400D01*
X108056800Y78552400D01*
X108056800Y69200000D01*
G37*
G36*
X108056800Y54900000D02*
G01*
X100754200Y54900000D01*
X100754200Y64252400D01*
X108056800Y64252400D01*
X108056800Y54900000D01*
G37*
G36*
X108056800Y40600000D02*
G01*
X100754200Y40600000D01*
X100754200Y49952400D01*
X108056800Y49952400D01*
X108056800Y40600000D01*
G37*
G36*
X108056800Y26300000D02*
G01*
X100754200Y26300000D01*
X100754200Y35652400D01*
X108056800Y35652400D01*
X108056800Y26300000D01*
G37*
G36*
X108056800Y12000000D02*
G01*
X100754200Y12000000D01*
X100754200Y21352400D01*
X108056800Y21352400D01*
X108056800Y12000000D01*
G37*
G36*
X116897300Y231037300D02*
G01*
X108056800Y231037300D01*
X108056800Y231315100D01*
X116897300Y231315100D01*
X116897300Y231037300D01*
G37*
G36*
X116897300Y216737300D02*
G01*
X108056800Y216737300D01*
X108056800Y217015100D01*
X116897300Y217015100D01*
X116897300Y216737300D01*
G37*
G36*
X116897300Y202437300D02*
G01*
X108056800Y202437300D01*
X108056800Y202715100D01*
X116897300Y202715100D01*
X116897300Y202437300D01*
G37*
G36*
X116897300Y188137300D02*
G01*
X108056800Y188137300D01*
X108056800Y188415100D01*
X116897300Y188415100D01*
X116897300Y188137300D01*
G37*
G36*
X116897300Y173837300D02*
G01*
X108056800Y173837300D01*
X108056800Y174115100D01*
X116897300Y174115100D01*
X116897300Y173837300D01*
G37*
G36*
X116897300Y159537300D02*
G01*
X108056800Y159537300D01*
X108056800Y159815100D01*
X116897300Y159815100D01*
X116897300Y159537300D01*
G37*
G36*
X116897300Y145237300D02*
G01*
X108056800Y145237300D01*
X108056800Y145515100D01*
X116897300Y145515100D01*
X116897300Y145237300D01*
G37*
G36*
X116897300Y130937300D02*
G01*
X108056800Y130937300D01*
X108056800Y131215100D01*
X116897300Y131215100D01*
X116897300Y130937300D01*
G37*
G36*
X116897300Y116637300D02*
G01*
X108056800Y116637300D01*
X108056800Y116915100D01*
X116897300Y116915100D01*
X116897300Y116637300D01*
G37*
G36*
X116897300Y102337300D02*
G01*
X108056800Y102337300D01*
X108056800Y102615100D01*
X116897300Y102615100D01*
X116897300Y102337300D01*
G37*
G36*
X116897300Y88037300D02*
G01*
X108056800Y88037300D01*
X108056800Y88315100D01*
X116897300Y88315100D01*
X116897300Y88037300D01*
G37*
G36*
X116897300Y73737300D02*
G01*
X108056800Y73737300D01*
X108056800Y74015100D01*
X116897300Y74015100D01*
X116897300Y73737300D01*
G37*
G36*
X116897300Y59437300D02*
G01*
X108056800Y59437300D01*
X108056800Y59715100D01*
X116897300Y59715100D01*
X116897300Y59437300D01*
G37*
G36*
X116897300Y45137300D02*
G01*
X108056800Y45137300D01*
X108056800Y45415100D01*
X116897300Y45415100D01*
X116897300Y45137300D01*
G37*
G36*
X116897300Y30837300D02*
G01*
X108056800Y30837300D01*
X108056800Y31115100D01*
X116897300Y31115100D01*
X116897300Y30837300D01*
G37*
G36*
X116897300Y16537300D02*
G01*
X108056800Y16537300D01*
X108056800Y16815100D01*
X116897300Y16815100D01*
X116897300Y16537300D01*
G37*
G36*
X124199800Y226500000D02*
G01*
X116897300Y226500000D01*
X116897300Y235852400D01*
X124199800Y235852400D01*
X124199800Y226500000D01*
G37*
G36*
X124199800Y212200000D02*
G01*
X116897300Y212200000D01*
X116897300Y221552400D01*
X124199800Y221552400D01*
X124199800Y212200000D01*
G37*
G36*
X124199800Y197900000D02*
G01*
X116897300Y197900000D01*
X116897300Y207252400D01*
X124199800Y207252400D01*
X124199800Y197900000D01*
G37*
G36*
X124199800Y183600000D02*
G01*
X116897300Y183600000D01*
X116897300Y192952400D01*
X124199800Y192952400D01*
X124199800Y183600000D01*
G37*
G36*
X124199800Y169300000D02*
G01*
X116897300Y169300000D01*
X116897300Y178652400D01*
X124199800Y178652400D01*
X124199800Y169300000D01*
G37*
G36*
X124199800Y155000000D02*
G01*
X116897300Y155000000D01*
X116897300Y164352400D01*
X124199800Y164352400D01*
X124199800Y155000000D01*
G37*
G36*
X124199800Y140700000D02*
G01*
X116897300Y140700000D01*
X116897300Y150052400D01*
X124199800Y150052400D01*
X124199800Y140700000D01*
G37*
G36*
X124199800Y126400000D02*
G01*
X116897300Y126400000D01*
X116897300Y135752400D01*
X124199800Y135752400D01*
X124199800Y126400000D01*
G37*
G36*
X124199800Y112100000D02*
G01*
X116897300Y112100000D01*
X116897300Y121452400D01*
X124199800Y121452400D01*
X124199800Y112100000D01*
G37*
G36*
X124199800Y97800000D02*
G01*
X116897300Y97800000D01*
X116897300Y107152400D01*
X124199800Y107152400D01*
X124199800Y97800000D01*
G37*
G36*
X124199800Y83500000D02*
G01*
X116897300Y83500000D01*
X116897300Y92852400D01*
X124199800Y92852400D01*
X124199800Y83500000D01*
G37*
G36*
X124199800Y69200000D02*
G01*
X116897300Y69200000D01*
X116897300Y78552400D01*
X124199800Y78552400D01*
X124199800Y69200000D01*
G37*
G36*
X124199800Y54900000D02*
G01*
X116897300Y54900000D01*
X116897300Y64252400D01*
X124199800Y64252400D01*
X124199800Y54900000D01*
G37*
G36*
X124199800Y40600000D02*
G01*
X116897300Y40600000D01*
X116897300Y49952400D01*
X124199800Y49952400D01*
X124199800Y40600000D01*
G37*
G36*
X124199800Y26300000D02*
G01*
X116897300Y26300000D01*
X116897300Y35652400D01*
X124199800Y35652400D01*
X124199800Y26300000D01*
G37*
G36*
X124199800Y12000000D02*
G01*
X116897300Y12000000D01*
X116897300Y21352400D01*
X124199800Y21352400D01*
X124199800Y12000000D01*
G37*
G36*
X133040300Y231037300D02*
G01*
X124199800Y231037300D01*
X124199800Y231315100D01*
X133040300Y231315100D01*
X133040300Y231037300D01*
G37*
G36*
X133040300Y216737300D02*
G01*
X124199800Y216737300D01*
X124199800Y217015100D01*
X133040300Y217015100D01*
X133040300Y216737300D01*
G37*
G36*
X133040300Y202437300D02*
G01*
X124199800Y202437300D01*
X124199800Y202715100D01*
X133040300Y202715100D01*
X133040300Y202437300D01*
G37*
G36*
X133040300Y188137300D02*
G01*
X124199800Y188137300D01*
X124199800Y188415100D01*
X133040300Y188415100D01*
X133040300Y188137300D01*
G37*
G36*
X133040300Y173837300D02*
G01*
X124199800Y173837300D01*
X124199800Y174115100D01*
X133040300Y174115100D01*
X133040300Y173837300D01*
G37*
G36*
X133040300Y159537300D02*
G01*
X124199800Y159537300D01*
X124199800Y159815100D01*
X133040300Y159815100D01*
X133040300Y159537300D01*
G37*
G36*
X133040300Y145237300D02*
G01*
X124199800Y145237300D01*
X124199800Y145515100D01*
X133040300Y145515100D01*
X133040300Y145237300D01*
G37*
G36*
X133040300Y130937300D02*
G01*
X124199800Y130937300D01*
X124199800Y131215100D01*
X133040300Y131215100D01*
X133040300Y130937300D01*
G37*
G36*
X133040300Y116637300D02*
G01*
X124199800Y116637300D01*
X124199800Y116915100D01*
X133040300Y116915100D01*
X133040300Y116637300D01*
G37*
G36*
X133040300Y102337300D02*
G01*
X124199800Y102337300D01*
X124199800Y102615100D01*
X133040300Y102615100D01*
X133040300Y102337300D01*
G37*
G36*
X133040300Y88037300D02*
G01*
X124199800Y88037300D01*
X124199800Y88315100D01*
X133040300Y88315100D01*
X133040300Y88037300D01*
G37*
G36*
X133040300Y73737300D02*
G01*
X124199800Y73737300D01*
X124199800Y74015100D01*
X133040300Y74015100D01*
X133040300Y73737300D01*
G37*
G36*
X133040300Y59437300D02*
G01*
X124199800Y59437300D01*
X124199800Y59715100D01*
X133040300Y59715100D01*
X133040300Y59437300D01*
G37*
G36*
X133040300Y45137300D02*
G01*
X124199800Y45137300D01*
X124199800Y45415100D01*
X133040300Y45415100D01*
X133040300Y45137300D01*
G37*
G36*
X133040300Y30837300D02*
G01*
X124199800Y30837300D01*
X124199800Y31115100D01*
X133040300Y31115100D01*
X133040300Y30837300D01*
G37*
G36*
X133040300Y16537300D02*
G01*
X124199800Y16537300D01*
X124199800Y16815100D01*
X133040300Y16815100D01*
X133040300Y16537300D01*
G37*
G36*
X140342800Y226500000D02*
G01*
X133040300Y226500000D01*
X133040300Y235852400D01*
X140342800Y235852400D01*
X140342800Y226500000D01*
G37*
G36*
X140342800Y212200000D02*
G01*
X133040300Y212200000D01*
X133040300Y221552400D01*
X140342800Y221552400D01*
X140342800Y212200000D01*
G37*
G36*
X140342800Y197900000D02*
G01*
X133040300Y197900000D01*
X133040300Y207252400D01*
X140342800Y207252400D01*
X140342800Y197900000D01*
G37*
G36*
X140342800Y183600000D02*
G01*
X133040300Y183600000D01*
X133040300Y192952400D01*
X140342800Y192952400D01*
X140342800Y183600000D01*
G37*
G36*
X140342800Y169300000D02*
G01*
X133040300Y169300000D01*
X133040300Y178652400D01*
X140342800Y178652400D01*
X140342800Y169300000D01*
G37*
G36*
X140342800Y155000000D02*
G01*
X133040300Y155000000D01*
X133040300Y164352400D01*
X140342800Y164352400D01*
X140342800Y155000000D01*
G37*
G36*
X140342800Y140700000D02*
G01*
X133040300Y140700000D01*
X133040300Y150052400D01*
X140342800Y150052400D01*
X140342800Y140700000D01*
G37*
G36*
X140342800Y126400000D02*
G01*
X133040300Y126400000D01*
X133040300Y135752400D01*
X140342800Y135752400D01*
X140342800Y126400000D01*
G37*
G36*
X140342800Y112100000D02*
G01*
X133040300Y112100000D01*
X133040300Y121452400D01*
X140342800Y121452400D01*
X140342800Y112100000D01*
G37*
G36*
X140342800Y97800000D02*
G01*
X133040300Y97800000D01*
X133040300Y107152400D01*
X140342800Y107152400D01*
X140342800Y97800000D01*
G37*
G36*
X140342800Y83500000D02*
G01*
X133040300Y83500000D01*
X133040300Y92852400D01*
X140342800Y92852400D01*
X140342800Y83500000D01*
G37*
G36*
X140342800Y69200000D02*
G01*
X133040300Y69200000D01*
X133040300Y78552400D01*
X140342800Y78552400D01*
X140342800Y69200000D01*
G37*
G36*
X140342800Y54900000D02*
G01*
X133040300Y54900000D01*
X133040300Y64252400D01*
X140342800Y64252400D01*
X140342800Y54900000D01*
G37*
G36*
X140342800Y40600000D02*
G01*
X133040300Y40600000D01*
X133040300Y49952400D01*
X140342800Y49952400D01*
X140342800Y40600000D01*
G37*
G36*
X140342800Y26300000D02*
G01*
X133040300Y26300000D01*
X133040300Y35652400D01*
X140342800Y35652400D01*
X140342800Y26300000D01*
G37*
G36*
X140342800Y12000000D02*
G01*
X133040300Y12000000D01*
X133040300Y21352400D01*
X140342800Y21352400D01*
X140342800Y12000000D01*
G37*
G36*
X149183400Y231037300D02*
G01*
X140342800Y231037300D01*
X140342800Y231315100D01*
X149183400Y231315100D01*
X149183400Y231037300D01*
G37*
G36*
X149183400Y216737300D02*
G01*
X140342800Y216737300D01*
X140342800Y217015100D01*
X149183400Y217015100D01*
X149183400Y216737300D01*
G37*
G36*
X149183400Y202437300D02*
G01*
X140342800Y202437300D01*
X140342800Y202715100D01*
X149183400Y202715100D01*
X149183400Y202437300D01*
G37*
G36*
X149183400Y188137300D02*
G01*
X140342800Y188137300D01*
X140342800Y188415100D01*
X149183400Y188415100D01*
X149183400Y188137300D01*
G37*
G36*
X149183400Y173837300D02*
G01*
X140342800Y173837300D01*
X140342800Y174115100D01*
X149183400Y174115100D01*
X149183400Y173837300D01*
G37*
G36*
X149183400Y159537300D02*
G01*
X140342800Y159537300D01*
X140342800Y159815100D01*
X149183400Y159815100D01*
X149183400Y159537300D01*
G37*
G36*
X149183400Y145237300D02*
G01*
X140342800Y145237300D01*
X140342800Y145515100D01*
X149183400Y145515100D01*
X149183400Y145237300D01*
G37*
G36*
X149183400Y130937300D02*
G01*
X140342800Y130937300D01*
X140342800Y131215100D01*
X149183400Y131215100D01*
X149183400Y130937300D01*
G37*
G36*
X149183400Y116637300D02*
G01*
X140342800Y116637300D01*
X140342800Y116915100D01*
X149183400Y116915100D01*
X149183400Y116637300D01*
G37*
G36*
X149183400Y102337300D02*
G01*
X140342800Y102337300D01*
X140342800Y102615100D01*
X149183400Y102615100D01*
X149183400Y102337300D01*
G37*
G36*
X149183400Y88037300D02*
G01*
X140342800Y88037300D01*
X140342800Y88315100D01*
X149183400Y88315100D01*
X149183400Y88037300D01*
G37*
G36*
X149183400Y73737300D02*
G01*
X140342800Y73737300D01*
X140342800Y74015100D01*
X149183400Y74015100D01*
X149183400Y73737300D01*
G37*
G36*
X149183400Y59437300D02*
G01*
X140342800Y59437300D01*
X140342800Y59715100D01*
X149183400Y59715100D01*
X149183400Y59437300D01*
G37*
G36*
X149183400Y45137300D02*
G01*
X140342800Y45137300D01*
X140342800Y45415100D01*
X149183400Y45415100D01*
X149183400Y45137300D01*
G37*
G36*
X149183400Y30837300D02*
G01*
X140342800Y30837300D01*
X140342800Y31115100D01*
X149183400Y31115100D01*
X149183400Y30837300D01*
G37*
G36*
X149183400Y16537300D02*
G01*
X140342800Y16537300D01*
X140342800Y16815100D01*
X149183400Y16815100D01*
X149183400Y16537300D01*
G37*
G36*
X156485900Y226500000D02*
G01*
X149183400Y226500000D01*
X149183400Y235852400D01*
X156485900Y235852400D01*
X156485900Y226500000D01*
G37*
G36*
X156485900Y212200000D02*
G01*
X149183400Y212200000D01*
X149183400Y221552400D01*
X156485900Y221552400D01*
X156485900Y212200000D01*
G37*
G36*
X156485900Y197900000D02*
G01*
X149183400Y197900000D01*
X149183400Y207252400D01*
X156485900Y207252400D01*
X156485900Y197900000D01*
G37*
G36*
X156485900Y183600000D02*
G01*
X149183400Y183600000D01*
X149183400Y192952400D01*
X156485900Y192952400D01*
X156485900Y183600000D01*
G37*
G36*
X156485900Y169300000D02*
G01*
X149183400Y169300000D01*
X149183400Y178652400D01*
X156485900Y178652400D01*
X156485900Y169300000D01*
G37*
G36*
X156485900Y155000000D02*
G01*
X149183400Y155000000D01*
X149183400Y164352400D01*
X156485900Y164352400D01*
X156485900Y155000000D01*
G37*
G36*
X156485900Y140700000D02*
G01*
X149183400Y140700000D01*
X149183400Y150052400D01*
X156485900Y150052400D01*
X156485900Y140700000D01*
G37*
G36*
X156485900Y126400000D02*
G01*
X149183400Y126400000D01*
X149183400Y135752400D01*
X156485900Y135752400D01*
X156485900Y126400000D01*
G37*
G36*
X156485900Y112100000D02*
G01*
X149183400Y112100000D01*
X149183400Y121452400D01*
X156485900Y121452400D01*
X156485900Y112100000D01*
G37*
G36*
X156485900Y97800000D02*
G01*
X149183400Y97800000D01*
X149183400Y107152400D01*
X156485900Y107152400D01*
X156485900Y97800000D01*
G37*
G36*
X156485900Y83500000D02*
G01*
X149183400Y83500000D01*
X149183400Y92852400D01*
X156485900Y92852400D01*
X156485900Y83500000D01*
G37*
G36*
X156485900Y69200000D02*
G01*
X149183400Y69200000D01*
X149183400Y78552400D01*
X156485900Y78552400D01*
X156485900Y69200000D01*
G37*
G36*
X156485900Y54900000D02*
G01*
X149183400Y54900000D01*
X149183400Y64252400D01*
X156485900Y64252400D01*
X156485900Y54900000D01*
G37*
G36*
X156485900Y40600000D02*
G01*
X149183400Y40600000D01*
X149183400Y49952400D01*
X156485900Y49952400D01*
X156485900Y40600000D01*
G37*
G36*
X156485900Y26300000D02*
G01*
X149183400Y26300000D01*
X149183400Y35652400D01*
X156485900Y35652400D01*
X156485900Y26300000D01*
G37*
G36*
X156485900Y12000000D02*
G01*
X149183400Y12000000D01*
X149183400Y21352400D01*
X156485900Y21352400D01*
X156485900Y12000000D01*
G37*
D11*
%TO.C,H*%
X160000000Y243000000D03*
%TD*%
D12*
%TO.C,J4*%
X2000000Y59576200D03*
D13*
X2000000Y62576200D03*
X2000000Y56576200D03*
D14*
X2000000Y62576200D03*
X2000000Y56576200D03*
%TD*%
D12*
%TO.C,J8*%
X2000000Y116776200D03*
D13*
X2000000Y119776200D03*
X2000000Y113776200D03*
D14*
X2000000Y119776200D03*
X2000000Y113776200D03*
%TD*%
D11*
%TO.C,H*%
X160000000Y5000000D03*
%TD*%
%TO.C,H*%
X82500000Y243000000D03*
%TD*%
D12*
%TO.C,J16*%
X2000000Y231176200D03*
D13*
X2000000Y234176200D03*
X2000000Y228176200D03*
D14*
X2000000Y234176200D03*
X2000000Y228176200D03*
%TD*%
D12*
%TO.C,J6*%
X2000000Y88176200D03*
D13*
X2000000Y91176200D03*
X2000000Y85176200D03*
D14*
X2000000Y91176200D03*
X2000000Y85176200D03*
%TD*%
D12*
%TO.C,J14*%
X2000000Y202576200D03*
D13*
X2000000Y205576200D03*
X2000000Y199576200D03*
D14*
X2000000Y205576200D03*
X2000000Y199576200D03*
%TD*%
D11*
%TO.C,H*%
X82500000Y5000000D03*
%TD*%
D12*
%TO.C,J12*%
X2000000Y173976200D03*
D13*
X2000000Y176976200D03*
X2000000Y170976200D03*
D14*
X2000000Y176976200D03*
X2000000Y170976200D03*
%TD*%
D12*
%TO.C,J11*%
X2000000Y159676200D03*
D13*
X2000000Y162676200D03*
X2000000Y156676200D03*
D14*
X2000000Y162676200D03*
X2000000Y156676200D03*
%TD*%
D12*
%TO.C,J10*%
X2000000Y145376200D03*
D13*
X2000000Y148376200D03*
X2000000Y142376200D03*
D14*
X2000000Y148376200D03*
X2000000Y142376200D03*
%TD*%
D12*
%TO.C,J2*%
X2000000Y30976200D03*
D13*
X2000000Y33976200D03*
X2000000Y27976200D03*
D14*
X2000000Y33976200D03*
X2000000Y27976200D03*
%TD*%
D12*
%TO.C,J1*%
X2000000Y16676200D03*
D13*
X2000000Y19676200D03*
X2000000Y13676200D03*
D14*
X2000000Y19676200D03*
X2000000Y13676200D03*
%TD*%
D11*
%TO.C,H*%
X5000000Y243000000D03*
%TD*%
D12*
%TO.C,J7*%
X2000000Y102476200D03*
D13*
X2000000Y105476200D03*
X2000000Y99476200D03*
D14*
X2000000Y105476200D03*
X2000000Y99476200D03*
%TD*%
D12*
%TO.C,J15*%
X2000000Y216876200D03*
D13*
X2000000Y219876200D03*
X2000000Y213876200D03*
D14*
X2000000Y219876200D03*
X2000000Y213876200D03*
%TD*%
D12*
%TO.C,J3*%
X2000000Y45276200D03*
D13*
X2000000Y48276200D03*
X2000000Y42276200D03*
D14*
X2000000Y48276200D03*
X2000000Y42276200D03*
%TD*%
D12*
%TO.C,J9*%
X2000000Y131076200D03*
D13*
X2000000Y134076200D03*
X2000000Y128076200D03*
D14*
X2000000Y134076200D03*
X2000000Y128076200D03*
%TD*%
D12*
%TO.C,J13*%
X2000000Y188276200D03*
D13*
X2000000Y191276200D03*
X2000000Y185276200D03*
D14*
X2000000Y191276200D03*
X2000000Y185276200D03*
%TD*%
D11*
%TO.C,H*%
X5000000Y5000000D03*
%TD*%
D12*
%TO.C,J5*%
X2000000Y73876200D03*
D13*
X2000000Y76876200D03*
X2000000Y70876200D03*
D14*
X2000000Y76876200D03*
X2000000Y70876200D03*
%TD*%
M02*
