%TF.GenerationSoftware,KiCad,Pcbnew,10.0.6*%
%TF.CreationDate,2026-10-09T04:17:02+03:00*%
%TF.ProjectId,aeris10_patch_array,61657269-7331-4305-9f70-617463685f61,A*%
%TF.SameCoordinates,Original*%
%TF.FileFunction,Copper,L2,Bot*%
%TF.FilePolarity,Positive*%
%FSLAX46Y46*%
G04 Gerber Fmt 4.6, Leading zero omitted, Abs format (unit mm)*
G04 Created by KiCad (PCBNEW 10.0.6) date 2026-10-09 04:17:02*
%MOMM*%
%LPD*%
G01*
G04 APERTURE LIST*
%TA.AperFunction,ComponentPad*%
%ADD10C,0.600000*%
%TD*%
G04 APERTURE END LIST*
D10*
%TO.P,J4,3*%
%TO.N,GND*%
X2000000Y62576200D03*
X2000000Y56576200D03*
%TD*%
%TO.P,J8,3*%
%TO.N,GND*%
X2000000Y119776200D03*
X2000000Y113776200D03*
%TD*%
%TO.P,J16,3*%
%TO.N,GND*%
X2000000Y234176200D03*
X2000000Y228176200D03*
%TD*%
%TO.P,J6,3*%
%TO.N,GND*%
X2000000Y91176200D03*
X2000000Y85176200D03*
%TD*%
%TO.P,J14,3*%
%TO.N,GND*%
X2000000Y205576200D03*
X2000000Y199576200D03*
%TD*%
%TO.P,J12,3*%
%TO.N,GND*%
X2000000Y176976200D03*
X2000000Y170976200D03*
%TD*%
%TO.P,J11,3*%
%TO.N,GND*%
X2000000Y162676200D03*
X2000000Y156676200D03*
%TD*%
%TO.P,J10,3*%
%TO.N,GND*%
X2000000Y148376200D03*
X2000000Y142376200D03*
%TD*%
%TO.P,J2,3*%
%TO.N,GND*%
X2000000Y33976200D03*
X2000000Y27976200D03*
%TD*%
%TO.P,J1,3*%
%TO.N,GND*%
X2000000Y19676200D03*
X2000000Y13676200D03*
%TD*%
%TO.P,J7,3*%
%TO.N,GND*%
X2000000Y105476200D03*
X2000000Y99476200D03*
%TD*%
%TO.P,J15,3*%
%TO.N,GND*%
X2000000Y219876200D03*
X2000000Y213876200D03*
%TD*%
%TO.P,J3,3*%
%TO.N,GND*%
X2000000Y48276200D03*
X2000000Y42276200D03*
%TD*%
%TO.P,J9,3*%
%TO.N,GND*%
X2000000Y134076200D03*
X2000000Y128076200D03*
%TD*%
%TO.P,J13,3*%
%TO.N,GND*%
X2000000Y191276200D03*
X2000000Y185276200D03*
%TD*%
%TO.P,J5,3*%
%TO.N,GND*%
X2000000Y76876200D03*
X2000000Y70876200D03*
%TD*%
%TA.AperFunction,Conductor*%
%TO.N,GND*%
G36*
X164442539Y247479815D02*
G01*
X164488294Y247427011D01*
X164499500Y247375500D01*
X164499500Y624500D01*
X164479815Y557461D01*
X164427011Y511706D01*
X164375500Y500500D01*
X624500Y500500D01*
X557461Y520185D01*
X511706Y572989D01*
X500500Y624500D01*
X500500Y5121288D01*
X3149500Y5121288D01*
X3149500Y4878711D01*
X3181161Y4638214D01*
X3243947Y4403895D01*
X3336773Y4179794D01*
X3336777Y4179785D01*
X3458067Y3969706D01*
X3605733Y3777263D01*
X3605739Y3777256D01*
X3777256Y3605739D01*
X3777263Y3605733D01*
X3969706Y3458067D01*
X4179785Y3336777D01*
X4179794Y3336773D01*
X4403895Y3243947D01*
X4638214Y3181161D01*
X4878711Y3149500D01*
X4878712Y3149500D01*
X5121289Y3149500D01*
X5361785Y3181161D01*
X5596104Y3243947D01*
X5820205Y3336773D01*
X5820214Y3336777D01*
X5858661Y3358974D01*
X6030289Y3458064D01*
X6030293Y3458067D01*
X6222736Y3605733D01*
X6222743Y3605739D01*
X6394260Y3777256D01*
X6394266Y3777263D01*
X6541932Y3969706D01*
X6541936Y3969711D01*
X6663224Y4179788D01*
X6756054Y4403900D01*
X6818838Y4638211D01*
X6850500Y4878712D01*
X6850500Y5121288D01*
X80649500Y5121288D01*
X80649500Y4878711D01*
X80681161Y4638214D01*
X80743947Y4403895D01*
X80836773Y4179794D01*
X80836777Y4179785D01*
X80958067Y3969706D01*
X81105733Y3777263D01*
X81105739Y3777256D01*
X81277256Y3605739D01*
X81277263Y3605733D01*
X81469706Y3458067D01*
X81679785Y3336777D01*
X81679794Y3336773D01*
X81903895Y3243947D01*
X82138214Y3181161D01*
X82378711Y3149500D01*
X82378712Y3149500D01*
X82621289Y3149500D01*
X82861785Y3181161D01*
X83096104Y3243947D01*
X83320205Y3336773D01*
X83320214Y3336777D01*
X83358661Y3358974D01*
X83530289Y3458064D01*
X83530293Y3458067D01*
X83722736Y3605733D01*
X83722743Y3605739D01*
X83894260Y3777256D01*
X83894266Y3777263D01*
X84041932Y3969706D01*
X84041936Y3969711D01*
X84163224Y4179788D01*
X84256054Y4403900D01*
X84318838Y4638211D01*
X84350500Y4878712D01*
X84350500Y5121288D01*
X158149500Y5121288D01*
X158149500Y4878711D01*
X158181161Y4638214D01*
X158243947Y4403895D01*
X158336773Y4179794D01*
X158336777Y4179785D01*
X158458067Y3969706D01*
X158605733Y3777263D01*
X158605739Y3777256D01*
X158777256Y3605739D01*
X158777263Y3605733D01*
X158969706Y3458067D01*
X159179785Y3336777D01*
X159179794Y3336773D01*
X159403895Y3243947D01*
X159638214Y3181161D01*
X159878711Y3149500D01*
X159878712Y3149500D01*
X160121289Y3149500D01*
X160361785Y3181161D01*
X160596104Y3243947D01*
X160820205Y3336773D01*
X160820214Y3336777D01*
X160858661Y3358974D01*
X161030289Y3458064D01*
X161030293Y3458067D01*
X161222736Y3605733D01*
X161222743Y3605739D01*
X161394260Y3777256D01*
X161394266Y3777263D01*
X161541932Y3969706D01*
X161541936Y3969711D01*
X161663224Y4179788D01*
X161756054Y4403900D01*
X161818838Y4638211D01*
X161850500Y4878712D01*
X161850500Y5121288D01*
X161818838Y5361789D01*
X161756054Y5596100D01*
X161663224Y5820212D01*
X161541936Y6030289D01*
X161394265Y6222738D01*
X161222738Y6394265D01*
X161030289Y6541936D01*
X160820212Y6663224D01*
X160596100Y6756054D01*
X160361789Y6818838D01*
X160169388Y6844167D01*
X160121289Y6850500D01*
X160121288Y6850500D01*
X159878712Y6850500D01*
X159878711Y6850500D01*
X159818586Y6842584D01*
X159638211Y6818838D01*
X159403900Y6756054D01*
X159179788Y6663224D01*
X158969711Y6541936D01*
X158969706Y6541932D01*
X158777263Y6394266D01*
X158777256Y6394260D01*
X158605739Y6222743D01*
X158605735Y6222738D01*
X158458064Y6030289D01*
X158358974Y5858661D01*
X158336777Y5820214D01*
X158336773Y5820205D01*
X158243947Y5596104D01*
X158181161Y5361785D01*
X158149500Y5121288D01*
X84350500Y5121288D01*
X84318838Y5361789D01*
X84256054Y5596100D01*
X84163224Y5820212D01*
X84041936Y6030289D01*
X83894265Y6222738D01*
X83722738Y6394265D01*
X83530289Y6541936D01*
X83320212Y6663224D01*
X83096100Y6756054D01*
X82861789Y6818838D01*
X82669388Y6844167D01*
X82621289Y6850500D01*
X82621288Y6850500D01*
X82378712Y6850500D01*
X82378711Y6850500D01*
X82318586Y6842584D01*
X82138211Y6818838D01*
X81903900Y6756054D01*
X81679788Y6663224D01*
X81469711Y6541936D01*
X81469706Y6541932D01*
X81277263Y6394266D01*
X81277256Y6394260D01*
X81105739Y6222743D01*
X81105735Y6222738D01*
X80958064Y6030289D01*
X80858974Y5858661D01*
X80836777Y5820214D01*
X80836773Y5820205D01*
X80743947Y5596104D01*
X80681161Y5361785D01*
X80649500Y5121288D01*
X6850500Y5121288D01*
X6818838Y5361789D01*
X6756054Y5596100D01*
X6663224Y5820212D01*
X6541936Y6030289D01*
X6394265Y6222738D01*
X6222738Y6394265D01*
X6030289Y6541936D01*
X5820212Y6663224D01*
X5596100Y6756054D01*
X5361789Y6818838D01*
X5169388Y6844167D01*
X5121289Y6850500D01*
X5121288Y6850500D01*
X4878712Y6850500D01*
X4878711Y6850500D01*
X4818586Y6842584D01*
X4638211Y6818838D01*
X4403900Y6756054D01*
X4179788Y6663224D01*
X3969711Y6541936D01*
X3969706Y6541932D01*
X3777263Y6394266D01*
X3777256Y6394260D01*
X3605739Y6222743D01*
X3605735Y6222738D01*
X3458064Y6030289D01*
X3358974Y5858661D01*
X3336777Y5820214D01*
X3336773Y5820205D01*
X3243947Y5596104D01*
X3181161Y5361785D01*
X3149500Y5121288D01*
X500500Y5121288D01*
X500500Y12960353D01*
X1637705Y12960353D01*
X1766648Y12906943D01*
X1766656Y12906941D01*
X1921202Y12876200D01*
X2078797Y12876200D01*
X2233343Y12906941D01*
X2233351Y12906943D01*
X2362293Y12960353D01*
X2000001Y13322646D01*
X2000000Y13322646D01*
X1637705Y12960353D01*
X500500Y12960353D01*
X500500Y13754997D01*
X1200000Y13754997D01*
X1200000Y13597402D01*
X1230741Y13442856D01*
X1230743Y13442848D01*
X1284153Y13313905D01*
X1646446Y13676199D01*
X1646446Y13676201D01*
X1616610Y13706037D01*
X1850000Y13706037D01*
X1850000Y13646363D01*
X1872836Y13591232D01*
X1915032Y13549036D01*
X1970163Y13526200D01*
X2029837Y13526200D01*
X2084968Y13549036D01*
X2127164Y13591232D01*
X2150000Y13646363D01*
X2150000Y13676201D01*
X2353553Y13676201D01*
X2353553Y13676199D01*
X2715845Y13313906D01*
X2769257Y13442852D01*
X2769258Y13442856D01*
X2799999Y13597402D01*
X2800000Y13597406D01*
X2800000Y13754994D01*
X2799999Y13754997D01*
X2769258Y13909543D01*
X2769257Y13909547D01*
X2715845Y14038493D01*
X2353553Y13676201D01*
X2150000Y13676201D01*
X2150000Y13706037D01*
X2127164Y13761168D01*
X2084968Y13803364D01*
X2029837Y13826200D01*
X1970163Y13826200D01*
X1915032Y13803364D01*
X1872836Y13761168D01*
X1850000Y13706037D01*
X1616610Y13706037D01*
X1284153Y14038493D01*
X1230743Y13909551D01*
X1230741Y13909543D01*
X1200000Y13754997D01*
X500500Y13754997D01*
X500500Y14392045D01*
X1637706Y14392045D01*
X2000000Y14029753D01*
X2000001Y14029753D01*
X2362293Y14392045D01*
X2233347Y14445457D01*
X2233343Y14445458D01*
X2078797Y14476199D01*
X2078794Y14476200D01*
X1921206Y14476200D01*
X1921202Y14476199D01*
X1766656Y14445458D01*
X1766652Y14445457D01*
X1637706Y14392045D01*
X500500Y14392045D01*
X500500Y18960353D01*
X1637705Y18960353D01*
X1766648Y18906943D01*
X1766656Y18906941D01*
X1921202Y18876200D01*
X2078797Y18876200D01*
X2233343Y18906941D01*
X2233351Y18906943D01*
X2362293Y18960353D01*
X2000001Y19322646D01*
X2000000Y19322646D01*
X1637705Y18960353D01*
X500500Y18960353D01*
X500500Y19754997D01*
X1200000Y19754997D01*
X1200000Y19597402D01*
X1230741Y19442856D01*
X1230743Y19442848D01*
X1284153Y19313905D01*
X1646446Y19676199D01*
X1646446Y19676201D01*
X1616610Y19706037D01*
X1850000Y19706037D01*
X1850000Y19646363D01*
X1872836Y19591232D01*
X1915032Y19549036D01*
X1970163Y19526200D01*
X2029837Y19526200D01*
X2084968Y19549036D01*
X2127164Y19591232D01*
X2150000Y19646363D01*
X2150000Y19676201D01*
X2353553Y19676201D01*
X2353553Y19676199D01*
X2715845Y19313906D01*
X2769257Y19442852D01*
X2769258Y19442856D01*
X2799999Y19597402D01*
X2800000Y19597406D01*
X2800000Y19754994D01*
X2799999Y19754997D01*
X2769258Y19909543D01*
X2769257Y19909547D01*
X2715845Y20038493D01*
X2353553Y19676201D01*
X2150000Y19676201D01*
X2150000Y19706037D01*
X2127164Y19761168D01*
X2084968Y19803364D01*
X2029837Y19826200D01*
X1970163Y19826200D01*
X1915032Y19803364D01*
X1872836Y19761168D01*
X1850000Y19706037D01*
X1616610Y19706037D01*
X1284153Y20038493D01*
X1230743Y19909551D01*
X1230741Y19909543D01*
X1200000Y19754997D01*
X500500Y19754997D01*
X500500Y20392045D01*
X1637706Y20392045D01*
X2000000Y20029753D01*
X2000001Y20029753D01*
X2362293Y20392045D01*
X2233347Y20445457D01*
X2233343Y20445458D01*
X2078797Y20476199D01*
X2078794Y20476200D01*
X1921206Y20476200D01*
X1921202Y20476199D01*
X1766656Y20445458D01*
X1766652Y20445457D01*
X1637706Y20392045D01*
X500500Y20392045D01*
X500500Y27260353D01*
X1637705Y27260353D01*
X1766648Y27206943D01*
X1766656Y27206941D01*
X1921202Y27176200D01*
X2078797Y27176200D01*
X2233343Y27206941D01*
X2233351Y27206943D01*
X2362293Y27260353D01*
X2000001Y27622646D01*
X2000000Y27622646D01*
X1637705Y27260353D01*
X500500Y27260353D01*
X500500Y28054997D01*
X1200000Y28054997D01*
X1200000Y27897402D01*
X1230741Y27742856D01*
X1230743Y27742848D01*
X1284153Y27613905D01*
X1646446Y27976199D01*
X1646446Y27976201D01*
X1616610Y28006037D01*
X1850000Y28006037D01*
X1850000Y27946363D01*
X1872836Y27891232D01*
X1915032Y27849036D01*
X1970163Y27826200D01*
X2029837Y27826200D01*
X2084968Y27849036D01*
X2127164Y27891232D01*
X2150000Y27946363D01*
X2150000Y27976201D01*
X2353553Y27976201D01*
X2353553Y27976199D01*
X2715845Y27613906D01*
X2769257Y27742852D01*
X2769258Y27742856D01*
X2799999Y27897402D01*
X2800000Y27897406D01*
X2800000Y28054994D01*
X2799999Y28054997D01*
X2769258Y28209543D01*
X2769257Y28209547D01*
X2715845Y28338493D01*
X2353553Y27976201D01*
X2150000Y27976201D01*
X2150000Y28006037D01*
X2127164Y28061168D01*
X2084968Y28103364D01*
X2029837Y28126200D01*
X1970163Y28126200D01*
X1915032Y28103364D01*
X1872836Y28061168D01*
X1850000Y28006037D01*
X1616610Y28006037D01*
X1284153Y28338493D01*
X1230743Y28209551D01*
X1230741Y28209543D01*
X1200000Y28054997D01*
X500500Y28054997D01*
X500500Y28692045D01*
X1637706Y28692045D01*
X2000000Y28329753D01*
X2000001Y28329753D01*
X2362293Y28692045D01*
X2233347Y28745457D01*
X2233343Y28745458D01*
X2078797Y28776199D01*
X2078794Y28776200D01*
X1921206Y28776200D01*
X1921202Y28776199D01*
X1766656Y28745458D01*
X1766652Y28745457D01*
X1637706Y28692045D01*
X500500Y28692045D01*
X500500Y33260353D01*
X1637705Y33260353D01*
X1766648Y33206943D01*
X1766656Y33206941D01*
X1921202Y33176200D01*
X2078797Y33176200D01*
X2233343Y33206941D01*
X2233351Y33206943D01*
X2362293Y33260353D01*
X2000001Y33622646D01*
X2000000Y33622646D01*
X1637705Y33260353D01*
X500500Y33260353D01*
X500500Y34054997D01*
X1200000Y34054997D01*
X1200000Y33897402D01*
X1230741Y33742856D01*
X1230743Y33742848D01*
X1284153Y33613905D01*
X1646446Y33976199D01*
X1646446Y33976201D01*
X1616610Y34006037D01*
X1850000Y34006037D01*
X1850000Y33946363D01*
X1872836Y33891232D01*
X1915032Y33849036D01*
X1970163Y33826200D01*
X2029837Y33826200D01*
X2084968Y33849036D01*
X2127164Y33891232D01*
X2150000Y33946363D01*
X2150000Y33976201D01*
X2353553Y33976201D01*
X2353553Y33976199D01*
X2715845Y33613906D01*
X2769257Y33742852D01*
X2769258Y33742856D01*
X2799999Y33897402D01*
X2800000Y33897406D01*
X2800000Y34054994D01*
X2799999Y34054997D01*
X2769258Y34209543D01*
X2769257Y34209547D01*
X2715845Y34338493D01*
X2353553Y33976201D01*
X2150000Y33976201D01*
X2150000Y34006037D01*
X2127164Y34061168D01*
X2084968Y34103364D01*
X2029837Y34126200D01*
X1970163Y34126200D01*
X1915032Y34103364D01*
X1872836Y34061168D01*
X1850000Y34006037D01*
X1616610Y34006037D01*
X1284153Y34338493D01*
X1230743Y34209551D01*
X1230741Y34209543D01*
X1200000Y34054997D01*
X500500Y34054997D01*
X500500Y34692045D01*
X1637706Y34692045D01*
X2000000Y34329753D01*
X2000001Y34329753D01*
X2362293Y34692045D01*
X2233347Y34745457D01*
X2233343Y34745458D01*
X2078797Y34776199D01*
X2078794Y34776200D01*
X1921206Y34776200D01*
X1921202Y34776199D01*
X1766656Y34745458D01*
X1766652Y34745457D01*
X1637706Y34692045D01*
X500500Y34692045D01*
X500500Y41560353D01*
X1637705Y41560353D01*
X1766648Y41506943D01*
X1766656Y41506941D01*
X1921202Y41476200D01*
X2078797Y41476200D01*
X2233343Y41506941D01*
X2233351Y41506943D01*
X2362293Y41560353D01*
X2000001Y41922646D01*
X2000000Y41922646D01*
X1637705Y41560353D01*
X500500Y41560353D01*
X500500Y42354997D01*
X1200000Y42354997D01*
X1200000Y42197402D01*
X1230741Y42042856D01*
X1230743Y42042848D01*
X1284153Y41913905D01*
X1646446Y42276199D01*
X1646446Y42276201D01*
X1616610Y42306037D01*
X1850000Y42306037D01*
X1850000Y42246363D01*
X1872836Y42191232D01*
X1915032Y42149036D01*
X1970163Y42126200D01*
X2029837Y42126200D01*
X2084968Y42149036D01*
X2127164Y42191232D01*
X2150000Y42246363D01*
X2150000Y42276201D01*
X2353553Y42276201D01*
X2353553Y42276199D01*
X2715845Y41913906D01*
X2769257Y42042852D01*
X2769258Y42042856D01*
X2799999Y42197402D01*
X2800000Y42197406D01*
X2800000Y42354994D01*
X2799999Y42354997D01*
X2769258Y42509543D01*
X2769257Y42509547D01*
X2715845Y42638493D01*
X2353553Y42276201D01*
X2150000Y42276201D01*
X2150000Y42306037D01*
X2127164Y42361168D01*
X2084968Y42403364D01*
X2029837Y42426200D01*
X1970163Y42426200D01*
X1915032Y42403364D01*
X1872836Y42361168D01*
X1850000Y42306037D01*
X1616610Y42306037D01*
X1284153Y42638493D01*
X1230743Y42509551D01*
X1230741Y42509543D01*
X1200000Y42354997D01*
X500500Y42354997D01*
X500500Y42992045D01*
X1637706Y42992045D01*
X2000000Y42629753D01*
X2000001Y42629753D01*
X2362293Y42992045D01*
X2233347Y43045457D01*
X2233343Y43045458D01*
X2078797Y43076199D01*
X2078794Y43076200D01*
X1921206Y43076200D01*
X1921202Y43076199D01*
X1766656Y43045458D01*
X1766652Y43045457D01*
X1637706Y42992045D01*
X500500Y42992045D01*
X500500Y47560353D01*
X1637705Y47560353D01*
X1766648Y47506943D01*
X1766656Y47506941D01*
X1921202Y47476200D01*
X2078797Y47476200D01*
X2233343Y47506941D01*
X2233351Y47506943D01*
X2362293Y47560353D01*
X2000001Y47922646D01*
X2000000Y47922646D01*
X1637705Y47560353D01*
X500500Y47560353D01*
X500500Y48354997D01*
X1200000Y48354997D01*
X1200000Y48197402D01*
X1230741Y48042856D01*
X1230743Y48042848D01*
X1284153Y47913905D01*
X1646446Y48276199D01*
X1646446Y48276201D01*
X1616610Y48306037D01*
X1850000Y48306037D01*
X1850000Y48246363D01*
X1872836Y48191232D01*
X1915032Y48149036D01*
X1970163Y48126200D01*
X2029837Y48126200D01*
X2084968Y48149036D01*
X2127164Y48191232D01*
X2150000Y48246363D01*
X2150000Y48276201D01*
X2353553Y48276201D01*
X2353553Y48276199D01*
X2715845Y47913906D01*
X2769257Y48042852D01*
X2769258Y48042856D01*
X2799999Y48197402D01*
X2800000Y48197406D01*
X2800000Y48354994D01*
X2799999Y48354997D01*
X2769258Y48509543D01*
X2769257Y48509547D01*
X2715845Y48638493D01*
X2353553Y48276201D01*
X2150000Y48276201D01*
X2150000Y48306037D01*
X2127164Y48361168D01*
X2084968Y48403364D01*
X2029837Y48426200D01*
X1970163Y48426200D01*
X1915032Y48403364D01*
X1872836Y48361168D01*
X1850000Y48306037D01*
X1616610Y48306037D01*
X1284153Y48638493D01*
X1230743Y48509551D01*
X1230741Y48509543D01*
X1200000Y48354997D01*
X500500Y48354997D01*
X500500Y48992045D01*
X1637706Y48992045D01*
X2000000Y48629753D01*
X2000001Y48629753D01*
X2362293Y48992045D01*
X2233347Y49045457D01*
X2233343Y49045458D01*
X2078797Y49076199D01*
X2078794Y49076200D01*
X1921206Y49076200D01*
X1921202Y49076199D01*
X1766656Y49045458D01*
X1766652Y49045457D01*
X1637706Y48992045D01*
X500500Y48992045D01*
X500500Y55860353D01*
X1637705Y55860353D01*
X1766648Y55806943D01*
X1766656Y55806941D01*
X1921202Y55776200D01*
X2078797Y55776200D01*
X2233343Y55806941D01*
X2233351Y55806943D01*
X2362293Y55860353D01*
X2000001Y56222646D01*
X2000000Y56222646D01*
X1637705Y55860353D01*
X500500Y55860353D01*
X500500Y56654997D01*
X1200000Y56654997D01*
X1200000Y56497402D01*
X1230741Y56342856D01*
X1230743Y56342848D01*
X1284153Y56213905D01*
X1646446Y56576199D01*
X1646446Y56576201D01*
X1616610Y56606037D01*
X1850000Y56606037D01*
X1850000Y56546363D01*
X1872836Y56491232D01*
X1915032Y56449036D01*
X1970163Y56426200D01*
X2029837Y56426200D01*
X2084968Y56449036D01*
X2127164Y56491232D01*
X2150000Y56546363D01*
X2150000Y56576201D01*
X2353553Y56576201D01*
X2353553Y56576199D01*
X2715845Y56213906D01*
X2769257Y56342852D01*
X2769258Y56342856D01*
X2799999Y56497402D01*
X2800000Y56497406D01*
X2800000Y56654994D01*
X2799999Y56654997D01*
X2769258Y56809543D01*
X2769257Y56809547D01*
X2715845Y56938493D01*
X2353553Y56576201D01*
X2150000Y56576201D01*
X2150000Y56606037D01*
X2127164Y56661168D01*
X2084968Y56703364D01*
X2029837Y56726200D01*
X1970163Y56726200D01*
X1915032Y56703364D01*
X1872836Y56661168D01*
X1850000Y56606037D01*
X1616610Y56606037D01*
X1284153Y56938493D01*
X1230743Y56809551D01*
X1230741Y56809543D01*
X1200000Y56654997D01*
X500500Y56654997D01*
X500500Y57292045D01*
X1637706Y57292045D01*
X2000000Y56929753D01*
X2000001Y56929753D01*
X2362293Y57292045D01*
X2233347Y57345457D01*
X2233343Y57345458D01*
X2078797Y57376199D01*
X2078794Y57376200D01*
X1921206Y57376200D01*
X1921202Y57376199D01*
X1766656Y57345458D01*
X1766652Y57345457D01*
X1637706Y57292045D01*
X500500Y57292045D01*
X500500Y61860353D01*
X1637705Y61860353D01*
X1766648Y61806943D01*
X1766656Y61806941D01*
X1921202Y61776200D01*
X2078797Y61776200D01*
X2233343Y61806941D01*
X2233351Y61806943D01*
X2362293Y61860353D01*
X2000001Y62222646D01*
X2000000Y62222646D01*
X1637705Y61860353D01*
X500500Y61860353D01*
X500500Y62654997D01*
X1200000Y62654997D01*
X1200000Y62497402D01*
X1230741Y62342856D01*
X1230743Y62342848D01*
X1284153Y62213905D01*
X1646446Y62576199D01*
X1646446Y62576201D01*
X1616610Y62606037D01*
X1850000Y62606037D01*
X1850000Y62546363D01*
X1872836Y62491232D01*
X1915032Y62449036D01*
X1970163Y62426200D01*
X2029837Y62426200D01*
X2084968Y62449036D01*
X2127164Y62491232D01*
X2150000Y62546363D01*
X2150000Y62576201D01*
X2353553Y62576201D01*
X2353553Y62576199D01*
X2715845Y62213906D01*
X2769257Y62342852D01*
X2769258Y62342856D01*
X2799999Y62497402D01*
X2800000Y62497406D01*
X2800000Y62654994D01*
X2799999Y62654997D01*
X2769258Y62809543D01*
X2769257Y62809547D01*
X2715845Y62938493D01*
X2353553Y62576201D01*
X2150000Y62576201D01*
X2150000Y62606037D01*
X2127164Y62661168D01*
X2084968Y62703364D01*
X2029837Y62726200D01*
X1970163Y62726200D01*
X1915032Y62703364D01*
X1872836Y62661168D01*
X1850000Y62606037D01*
X1616610Y62606037D01*
X1284153Y62938493D01*
X1230743Y62809551D01*
X1230741Y62809543D01*
X1200000Y62654997D01*
X500500Y62654997D01*
X500500Y63292045D01*
X1637706Y63292045D01*
X2000000Y62929753D01*
X2000001Y62929753D01*
X2362293Y63292045D01*
X2233347Y63345457D01*
X2233343Y63345458D01*
X2078797Y63376199D01*
X2078794Y63376200D01*
X1921206Y63376200D01*
X1921202Y63376199D01*
X1766656Y63345458D01*
X1766652Y63345457D01*
X1637706Y63292045D01*
X500500Y63292045D01*
X500500Y70160353D01*
X1637705Y70160353D01*
X1766648Y70106943D01*
X1766656Y70106941D01*
X1921202Y70076200D01*
X2078797Y70076200D01*
X2233343Y70106941D01*
X2233351Y70106943D01*
X2362293Y70160353D01*
X2000001Y70522646D01*
X2000000Y70522646D01*
X1637705Y70160353D01*
X500500Y70160353D01*
X500500Y70954997D01*
X1200000Y70954997D01*
X1200000Y70797402D01*
X1230741Y70642856D01*
X1230743Y70642848D01*
X1284153Y70513905D01*
X1646446Y70876199D01*
X1646446Y70876201D01*
X1616610Y70906037D01*
X1850000Y70906037D01*
X1850000Y70846363D01*
X1872836Y70791232D01*
X1915032Y70749036D01*
X1970163Y70726200D01*
X2029837Y70726200D01*
X2084968Y70749036D01*
X2127164Y70791232D01*
X2150000Y70846363D01*
X2150000Y70876201D01*
X2353553Y70876201D01*
X2353553Y70876199D01*
X2715845Y70513906D01*
X2769257Y70642852D01*
X2769258Y70642856D01*
X2799999Y70797402D01*
X2800000Y70797406D01*
X2800000Y70954994D01*
X2799999Y70954997D01*
X2769258Y71109543D01*
X2769257Y71109547D01*
X2715845Y71238493D01*
X2353553Y70876201D01*
X2150000Y70876201D01*
X2150000Y70906037D01*
X2127164Y70961168D01*
X2084968Y71003364D01*
X2029837Y71026200D01*
X1970163Y71026200D01*
X1915032Y71003364D01*
X1872836Y70961168D01*
X1850000Y70906037D01*
X1616610Y70906037D01*
X1284153Y71238493D01*
X1230743Y71109551D01*
X1230741Y71109543D01*
X1200000Y70954997D01*
X500500Y70954997D01*
X500500Y71592045D01*
X1637706Y71592045D01*
X2000000Y71229753D01*
X2000001Y71229753D01*
X2362293Y71592045D01*
X2233347Y71645457D01*
X2233343Y71645458D01*
X2078797Y71676199D01*
X2078794Y71676200D01*
X1921206Y71676200D01*
X1921202Y71676199D01*
X1766656Y71645458D01*
X1766652Y71645457D01*
X1637706Y71592045D01*
X500500Y71592045D01*
X500500Y76160353D01*
X1637705Y76160353D01*
X1766648Y76106943D01*
X1766656Y76106941D01*
X1921202Y76076200D01*
X2078797Y76076200D01*
X2233343Y76106941D01*
X2233351Y76106943D01*
X2362293Y76160353D01*
X2000001Y76522646D01*
X2000000Y76522646D01*
X1637705Y76160353D01*
X500500Y76160353D01*
X500500Y76954997D01*
X1200000Y76954997D01*
X1200000Y76797402D01*
X1230741Y76642856D01*
X1230743Y76642848D01*
X1284153Y76513905D01*
X1646446Y76876199D01*
X1646446Y76876201D01*
X1616610Y76906037D01*
X1850000Y76906037D01*
X1850000Y76846363D01*
X1872836Y76791232D01*
X1915032Y76749036D01*
X1970163Y76726200D01*
X2029837Y76726200D01*
X2084968Y76749036D01*
X2127164Y76791232D01*
X2150000Y76846363D01*
X2150000Y76876201D01*
X2353553Y76876201D01*
X2353553Y76876199D01*
X2715845Y76513906D01*
X2769257Y76642852D01*
X2769258Y76642856D01*
X2799999Y76797402D01*
X2800000Y76797406D01*
X2800000Y76954994D01*
X2799999Y76954997D01*
X2769258Y77109543D01*
X2769257Y77109547D01*
X2715845Y77238493D01*
X2353553Y76876201D01*
X2150000Y76876201D01*
X2150000Y76906037D01*
X2127164Y76961168D01*
X2084968Y77003364D01*
X2029837Y77026200D01*
X1970163Y77026200D01*
X1915032Y77003364D01*
X1872836Y76961168D01*
X1850000Y76906037D01*
X1616610Y76906037D01*
X1284153Y77238493D01*
X1230743Y77109551D01*
X1230741Y77109543D01*
X1200000Y76954997D01*
X500500Y76954997D01*
X500500Y77592045D01*
X1637706Y77592045D01*
X2000000Y77229753D01*
X2000001Y77229753D01*
X2362293Y77592045D01*
X2233347Y77645457D01*
X2233343Y77645458D01*
X2078797Y77676199D01*
X2078794Y77676200D01*
X1921206Y77676200D01*
X1921202Y77676199D01*
X1766656Y77645458D01*
X1766652Y77645457D01*
X1637706Y77592045D01*
X500500Y77592045D01*
X500500Y84460353D01*
X1637705Y84460353D01*
X1766648Y84406943D01*
X1766656Y84406941D01*
X1921202Y84376200D01*
X2078797Y84376200D01*
X2233343Y84406941D01*
X2233351Y84406943D01*
X2362293Y84460353D01*
X2000001Y84822646D01*
X2000000Y84822646D01*
X1637705Y84460353D01*
X500500Y84460353D01*
X500500Y85254997D01*
X1200000Y85254997D01*
X1200000Y85097402D01*
X1230741Y84942856D01*
X1230743Y84942848D01*
X1284153Y84813905D01*
X1646446Y85176199D01*
X1646446Y85176201D01*
X1616610Y85206037D01*
X1850000Y85206037D01*
X1850000Y85146363D01*
X1872836Y85091232D01*
X1915032Y85049036D01*
X1970163Y85026200D01*
X2029837Y85026200D01*
X2084968Y85049036D01*
X2127164Y85091232D01*
X2150000Y85146363D01*
X2150000Y85176201D01*
X2353553Y85176201D01*
X2353553Y85176199D01*
X2715845Y84813906D01*
X2769257Y84942852D01*
X2769258Y84942856D01*
X2799999Y85097402D01*
X2800000Y85097406D01*
X2800000Y85254994D01*
X2799999Y85254997D01*
X2769258Y85409543D01*
X2769257Y85409547D01*
X2715845Y85538493D01*
X2353553Y85176201D01*
X2150000Y85176201D01*
X2150000Y85206037D01*
X2127164Y85261168D01*
X2084968Y85303364D01*
X2029837Y85326200D01*
X1970163Y85326200D01*
X1915032Y85303364D01*
X1872836Y85261168D01*
X1850000Y85206037D01*
X1616610Y85206037D01*
X1284153Y85538493D01*
X1230743Y85409551D01*
X1230741Y85409543D01*
X1200000Y85254997D01*
X500500Y85254997D01*
X500500Y85892045D01*
X1637706Y85892045D01*
X2000000Y85529753D01*
X2000001Y85529753D01*
X2362293Y85892045D01*
X2233347Y85945457D01*
X2233343Y85945458D01*
X2078797Y85976199D01*
X2078794Y85976200D01*
X1921206Y85976200D01*
X1921202Y85976199D01*
X1766656Y85945458D01*
X1766652Y85945457D01*
X1637706Y85892045D01*
X500500Y85892045D01*
X500500Y90460353D01*
X1637705Y90460353D01*
X1766648Y90406943D01*
X1766656Y90406941D01*
X1921202Y90376200D01*
X2078797Y90376200D01*
X2233343Y90406941D01*
X2233351Y90406943D01*
X2362293Y90460353D01*
X2000001Y90822646D01*
X2000000Y90822646D01*
X1637705Y90460353D01*
X500500Y90460353D01*
X500500Y91254997D01*
X1200000Y91254997D01*
X1200000Y91097402D01*
X1230741Y90942856D01*
X1230743Y90942848D01*
X1284153Y90813905D01*
X1646446Y91176199D01*
X1646446Y91176201D01*
X1616610Y91206037D01*
X1850000Y91206037D01*
X1850000Y91146363D01*
X1872836Y91091232D01*
X1915032Y91049036D01*
X1970163Y91026200D01*
X2029837Y91026200D01*
X2084968Y91049036D01*
X2127164Y91091232D01*
X2150000Y91146363D01*
X2150000Y91176201D01*
X2353553Y91176201D01*
X2353553Y91176199D01*
X2715845Y90813906D01*
X2769257Y90942852D01*
X2769258Y90942856D01*
X2799999Y91097402D01*
X2800000Y91097406D01*
X2800000Y91254994D01*
X2799999Y91254997D01*
X2769258Y91409543D01*
X2769257Y91409547D01*
X2715845Y91538493D01*
X2353553Y91176201D01*
X2150000Y91176201D01*
X2150000Y91206037D01*
X2127164Y91261168D01*
X2084968Y91303364D01*
X2029837Y91326200D01*
X1970163Y91326200D01*
X1915032Y91303364D01*
X1872836Y91261168D01*
X1850000Y91206037D01*
X1616610Y91206037D01*
X1284153Y91538493D01*
X1230743Y91409551D01*
X1230741Y91409543D01*
X1200000Y91254997D01*
X500500Y91254997D01*
X500500Y91892045D01*
X1637706Y91892045D01*
X2000000Y91529753D01*
X2000001Y91529753D01*
X2362293Y91892045D01*
X2233347Y91945457D01*
X2233343Y91945458D01*
X2078797Y91976199D01*
X2078794Y91976200D01*
X1921206Y91976200D01*
X1921202Y91976199D01*
X1766656Y91945458D01*
X1766652Y91945457D01*
X1637706Y91892045D01*
X500500Y91892045D01*
X500500Y98760353D01*
X1637705Y98760353D01*
X1766648Y98706943D01*
X1766656Y98706941D01*
X1921202Y98676200D01*
X2078797Y98676200D01*
X2233343Y98706941D01*
X2233351Y98706943D01*
X2362293Y98760353D01*
X2000001Y99122646D01*
X2000000Y99122646D01*
X1637705Y98760353D01*
X500500Y98760353D01*
X500500Y99554997D01*
X1200000Y99554997D01*
X1200000Y99397402D01*
X1230741Y99242856D01*
X1230743Y99242848D01*
X1284153Y99113905D01*
X1646446Y99476199D01*
X1646446Y99476201D01*
X1616610Y99506037D01*
X1850000Y99506037D01*
X1850000Y99446363D01*
X1872836Y99391232D01*
X1915032Y99349036D01*
X1970163Y99326200D01*
X2029837Y99326200D01*
X2084968Y99349036D01*
X2127164Y99391232D01*
X2150000Y99446363D01*
X2150000Y99476201D01*
X2353553Y99476201D01*
X2353553Y99476199D01*
X2715845Y99113906D01*
X2769257Y99242852D01*
X2769258Y99242856D01*
X2799999Y99397402D01*
X2800000Y99397406D01*
X2800000Y99554994D01*
X2799999Y99554997D01*
X2769258Y99709543D01*
X2769257Y99709547D01*
X2715845Y99838493D01*
X2353553Y99476201D01*
X2150000Y99476201D01*
X2150000Y99506037D01*
X2127164Y99561168D01*
X2084968Y99603364D01*
X2029837Y99626200D01*
X1970163Y99626200D01*
X1915032Y99603364D01*
X1872836Y99561168D01*
X1850000Y99506037D01*
X1616610Y99506037D01*
X1284153Y99838493D01*
X1230743Y99709551D01*
X1230741Y99709543D01*
X1200000Y99554997D01*
X500500Y99554997D01*
X500500Y100192045D01*
X1637706Y100192045D01*
X2000000Y99829753D01*
X2000001Y99829753D01*
X2362293Y100192045D01*
X2233347Y100245457D01*
X2233343Y100245458D01*
X2078797Y100276199D01*
X2078794Y100276200D01*
X1921206Y100276200D01*
X1921202Y100276199D01*
X1766656Y100245458D01*
X1766652Y100245457D01*
X1637706Y100192045D01*
X500500Y100192045D01*
X500500Y104760353D01*
X1637705Y104760353D01*
X1766648Y104706943D01*
X1766656Y104706941D01*
X1921202Y104676200D01*
X2078797Y104676200D01*
X2233343Y104706941D01*
X2233351Y104706943D01*
X2362293Y104760353D01*
X2000001Y105122646D01*
X2000000Y105122646D01*
X1637705Y104760353D01*
X500500Y104760353D01*
X500500Y105554997D01*
X1200000Y105554997D01*
X1200000Y105397402D01*
X1230741Y105242856D01*
X1230743Y105242848D01*
X1284153Y105113905D01*
X1646446Y105476199D01*
X1646446Y105476201D01*
X1616610Y105506037D01*
X1850000Y105506037D01*
X1850000Y105446363D01*
X1872836Y105391232D01*
X1915032Y105349036D01*
X1970163Y105326200D01*
X2029837Y105326200D01*
X2084968Y105349036D01*
X2127164Y105391232D01*
X2150000Y105446363D01*
X2150000Y105476201D01*
X2353553Y105476201D01*
X2353553Y105476199D01*
X2715845Y105113906D01*
X2769257Y105242852D01*
X2769258Y105242856D01*
X2799999Y105397402D01*
X2800000Y105397406D01*
X2800000Y105554994D01*
X2799999Y105554997D01*
X2769258Y105709543D01*
X2769257Y105709547D01*
X2715845Y105838493D01*
X2353553Y105476201D01*
X2150000Y105476201D01*
X2150000Y105506037D01*
X2127164Y105561168D01*
X2084968Y105603364D01*
X2029837Y105626200D01*
X1970163Y105626200D01*
X1915032Y105603364D01*
X1872836Y105561168D01*
X1850000Y105506037D01*
X1616610Y105506037D01*
X1284153Y105838493D01*
X1230743Y105709551D01*
X1230741Y105709543D01*
X1200000Y105554997D01*
X500500Y105554997D01*
X500500Y106192045D01*
X1637706Y106192045D01*
X2000000Y105829753D01*
X2000001Y105829753D01*
X2362293Y106192045D01*
X2233347Y106245457D01*
X2233343Y106245458D01*
X2078797Y106276199D01*
X2078794Y106276200D01*
X1921206Y106276200D01*
X1921202Y106276199D01*
X1766656Y106245458D01*
X1766652Y106245457D01*
X1637706Y106192045D01*
X500500Y106192045D01*
X500500Y113060353D01*
X1637705Y113060353D01*
X1766648Y113006943D01*
X1766656Y113006941D01*
X1921202Y112976200D01*
X2078797Y112976200D01*
X2233343Y113006941D01*
X2233351Y113006943D01*
X2362293Y113060353D01*
X2000001Y113422646D01*
X2000000Y113422646D01*
X1637705Y113060353D01*
X500500Y113060353D01*
X500500Y113854997D01*
X1200000Y113854997D01*
X1200000Y113697402D01*
X1230741Y113542856D01*
X1230743Y113542848D01*
X1284153Y113413905D01*
X1646446Y113776199D01*
X1646446Y113776201D01*
X1616610Y113806037D01*
X1850000Y113806037D01*
X1850000Y113746363D01*
X1872836Y113691232D01*
X1915032Y113649036D01*
X1970163Y113626200D01*
X2029837Y113626200D01*
X2084968Y113649036D01*
X2127164Y113691232D01*
X2150000Y113746363D01*
X2150000Y113776201D01*
X2353553Y113776201D01*
X2353553Y113776199D01*
X2715845Y113413906D01*
X2769257Y113542852D01*
X2769258Y113542856D01*
X2799999Y113697402D01*
X2800000Y113697406D01*
X2800000Y113854994D01*
X2799999Y113854997D01*
X2769258Y114009543D01*
X2769257Y114009547D01*
X2715845Y114138493D01*
X2353553Y113776201D01*
X2150000Y113776201D01*
X2150000Y113806037D01*
X2127164Y113861168D01*
X2084968Y113903364D01*
X2029837Y113926200D01*
X1970163Y113926200D01*
X1915032Y113903364D01*
X1872836Y113861168D01*
X1850000Y113806037D01*
X1616610Y113806037D01*
X1284153Y114138493D01*
X1230743Y114009551D01*
X1230741Y114009543D01*
X1200000Y113854997D01*
X500500Y113854997D01*
X500500Y114492045D01*
X1637706Y114492045D01*
X2000000Y114129753D01*
X2000001Y114129753D01*
X2362293Y114492045D01*
X2233347Y114545457D01*
X2233343Y114545458D01*
X2078797Y114576199D01*
X2078794Y114576200D01*
X1921206Y114576200D01*
X1921202Y114576199D01*
X1766656Y114545458D01*
X1766652Y114545457D01*
X1637706Y114492045D01*
X500500Y114492045D01*
X500500Y119060353D01*
X1637705Y119060353D01*
X1766648Y119006943D01*
X1766656Y119006941D01*
X1921202Y118976200D01*
X2078797Y118976200D01*
X2233343Y119006941D01*
X2233351Y119006943D01*
X2362293Y119060353D01*
X2000001Y119422646D01*
X2000000Y119422646D01*
X1637705Y119060353D01*
X500500Y119060353D01*
X500500Y119854997D01*
X1200000Y119854997D01*
X1200000Y119697402D01*
X1230741Y119542856D01*
X1230743Y119542848D01*
X1284153Y119413905D01*
X1646446Y119776199D01*
X1646446Y119776201D01*
X1616610Y119806037D01*
X1850000Y119806037D01*
X1850000Y119746363D01*
X1872836Y119691232D01*
X1915032Y119649036D01*
X1970163Y119626200D01*
X2029837Y119626200D01*
X2084968Y119649036D01*
X2127164Y119691232D01*
X2150000Y119746363D01*
X2150000Y119776201D01*
X2353553Y119776201D01*
X2353553Y119776199D01*
X2715845Y119413906D01*
X2769257Y119542852D01*
X2769258Y119542856D01*
X2799999Y119697402D01*
X2800000Y119697406D01*
X2800000Y119854994D01*
X2799999Y119854997D01*
X2769258Y120009543D01*
X2769257Y120009547D01*
X2715845Y120138493D01*
X2353553Y119776201D01*
X2150000Y119776201D01*
X2150000Y119806037D01*
X2127164Y119861168D01*
X2084968Y119903364D01*
X2029837Y119926200D01*
X1970163Y119926200D01*
X1915032Y119903364D01*
X1872836Y119861168D01*
X1850000Y119806037D01*
X1616610Y119806037D01*
X1284153Y120138493D01*
X1230743Y120009551D01*
X1230741Y120009543D01*
X1200000Y119854997D01*
X500500Y119854997D01*
X500500Y120492045D01*
X1637706Y120492045D01*
X2000000Y120129753D01*
X2000001Y120129753D01*
X2362293Y120492045D01*
X2233347Y120545457D01*
X2233343Y120545458D01*
X2078797Y120576199D01*
X2078794Y120576200D01*
X1921206Y120576200D01*
X1921202Y120576199D01*
X1766656Y120545458D01*
X1766652Y120545457D01*
X1637706Y120492045D01*
X500500Y120492045D01*
X500500Y127360353D01*
X1637705Y127360353D01*
X1766648Y127306943D01*
X1766656Y127306941D01*
X1921202Y127276200D01*
X2078797Y127276200D01*
X2233343Y127306941D01*
X2233351Y127306943D01*
X2362293Y127360353D01*
X2000001Y127722646D01*
X2000000Y127722646D01*
X1637705Y127360353D01*
X500500Y127360353D01*
X500500Y128154997D01*
X1200000Y128154997D01*
X1200000Y127997402D01*
X1230741Y127842856D01*
X1230743Y127842848D01*
X1284153Y127713905D01*
X1646446Y128076199D01*
X1646446Y128076201D01*
X1616610Y128106037D01*
X1850000Y128106037D01*
X1850000Y128046363D01*
X1872836Y127991232D01*
X1915032Y127949036D01*
X1970163Y127926200D01*
X2029837Y127926200D01*
X2084968Y127949036D01*
X2127164Y127991232D01*
X2150000Y128046363D01*
X2150000Y128076201D01*
X2353553Y128076201D01*
X2353553Y128076199D01*
X2715845Y127713906D01*
X2769257Y127842852D01*
X2769258Y127842856D01*
X2799999Y127997402D01*
X2800000Y127997406D01*
X2800000Y128154994D01*
X2799999Y128154997D01*
X2769258Y128309543D01*
X2769257Y128309547D01*
X2715845Y128438493D01*
X2353553Y128076201D01*
X2150000Y128076201D01*
X2150000Y128106037D01*
X2127164Y128161168D01*
X2084968Y128203364D01*
X2029837Y128226200D01*
X1970163Y128226200D01*
X1915032Y128203364D01*
X1872836Y128161168D01*
X1850000Y128106037D01*
X1616610Y128106037D01*
X1284153Y128438493D01*
X1230743Y128309551D01*
X1230741Y128309543D01*
X1200000Y128154997D01*
X500500Y128154997D01*
X500500Y128792045D01*
X1637706Y128792045D01*
X2000000Y128429753D01*
X2000001Y128429753D01*
X2362293Y128792045D01*
X2233347Y128845457D01*
X2233343Y128845458D01*
X2078797Y128876199D01*
X2078794Y128876200D01*
X1921206Y128876200D01*
X1921202Y128876199D01*
X1766656Y128845458D01*
X1766652Y128845457D01*
X1637706Y128792045D01*
X500500Y128792045D01*
X500500Y133360353D01*
X1637705Y133360353D01*
X1766648Y133306943D01*
X1766656Y133306941D01*
X1921202Y133276200D01*
X2078797Y133276200D01*
X2233343Y133306941D01*
X2233351Y133306943D01*
X2362293Y133360353D01*
X2000001Y133722646D01*
X2000000Y133722646D01*
X1637705Y133360353D01*
X500500Y133360353D01*
X500500Y134154997D01*
X1200000Y134154997D01*
X1200000Y133997402D01*
X1230741Y133842856D01*
X1230743Y133842848D01*
X1284153Y133713905D01*
X1646446Y134076199D01*
X1646446Y134076201D01*
X1616610Y134106037D01*
X1850000Y134106037D01*
X1850000Y134046363D01*
X1872836Y133991232D01*
X1915032Y133949036D01*
X1970163Y133926200D01*
X2029837Y133926200D01*
X2084968Y133949036D01*
X2127164Y133991232D01*
X2150000Y134046363D01*
X2150000Y134076201D01*
X2353553Y134076201D01*
X2353553Y134076199D01*
X2715845Y133713906D01*
X2769257Y133842852D01*
X2769258Y133842856D01*
X2799999Y133997402D01*
X2800000Y133997406D01*
X2800000Y134154994D01*
X2799999Y134154997D01*
X2769258Y134309543D01*
X2769257Y134309547D01*
X2715845Y134438493D01*
X2353553Y134076201D01*
X2150000Y134076201D01*
X2150000Y134106037D01*
X2127164Y134161168D01*
X2084968Y134203364D01*
X2029837Y134226200D01*
X1970163Y134226200D01*
X1915032Y134203364D01*
X1872836Y134161168D01*
X1850000Y134106037D01*
X1616610Y134106037D01*
X1284153Y134438493D01*
X1230743Y134309551D01*
X1230741Y134309543D01*
X1200000Y134154997D01*
X500500Y134154997D01*
X500500Y134792045D01*
X1637706Y134792045D01*
X2000000Y134429753D01*
X2000001Y134429753D01*
X2362293Y134792045D01*
X2233347Y134845457D01*
X2233343Y134845458D01*
X2078797Y134876199D01*
X2078794Y134876200D01*
X1921206Y134876200D01*
X1921202Y134876199D01*
X1766656Y134845458D01*
X1766652Y134845457D01*
X1637706Y134792045D01*
X500500Y134792045D01*
X500500Y141660353D01*
X1637705Y141660353D01*
X1766648Y141606943D01*
X1766656Y141606941D01*
X1921202Y141576200D01*
X2078797Y141576200D01*
X2233343Y141606941D01*
X2233351Y141606943D01*
X2362293Y141660353D01*
X2000001Y142022646D01*
X2000000Y142022646D01*
X1637705Y141660353D01*
X500500Y141660353D01*
X500500Y142454997D01*
X1200000Y142454997D01*
X1200000Y142297402D01*
X1230741Y142142856D01*
X1230743Y142142848D01*
X1284153Y142013905D01*
X1646446Y142376199D01*
X1646446Y142376201D01*
X1616610Y142406037D01*
X1850000Y142406037D01*
X1850000Y142346363D01*
X1872836Y142291232D01*
X1915032Y142249036D01*
X1970163Y142226200D01*
X2029837Y142226200D01*
X2084968Y142249036D01*
X2127164Y142291232D01*
X2150000Y142346363D01*
X2150000Y142376201D01*
X2353553Y142376201D01*
X2353553Y142376199D01*
X2715845Y142013906D01*
X2769257Y142142852D01*
X2769258Y142142856D01*
X2799999Y142297402D01*
X2800000Y142297406D01*
X2800000Y142454994D01*
X2799999Y142454997D01*
X2769258Y142609543D01*
X2769257Y142609547D01*
X2715845Y142738493D01*
X2353553Y142376201D01*
X2150000Y142376201D01*
X2150000Y142406037D01*
X2127164Y142461168D01*
X2084968Y142503364D01*
X2029837Y142526200D01*
X1970163Y142526200D01*
X1915032Y142503364D01*
X1872836Y142461168D01*
X1850000Y142406037D01*
X1616610Y142406037D01*
X1284153Y142738493D01*
X1230743Y142609551D01*
X1230741Y142609543D01*
X1200000Y142454997D01*
X500500Y142454997D01*
X500500Y143092045D01*
X1637706Y143092045D01*
X2000000Y142729753D01*
X2000001Y142729753D01*
X2362293Y143092045D01*
X2233347Y143145457D01*
X2233343Y143145458D01*
X2078797Y143176199D01*
X2078794Y143176200D01*
X1921206Y143176200D01*
X1921202Y143176199D01*
X1766656Y143145458D01*
X1766652Y143145457D01*
X1637706Y143092045D01*
X500500Y143092045D01*
X500500Y147660353D01*
X1637705Y147660353D01*
X1766648Y147606943D01*
X1766656Y147606941D01*
X1921202Y147576200D01*
X2078797Y147576200D01*
X2233343Y147606941D01*
X2233351Y147606943D01*
X2362293Y147660353D01*
X2000001Y148022646D01*
X2000000Y148022646D01*
X1637705Y147660353D01*
X500500Y147660353D01*
X500500Y148454997D01*
X1200000Y148454997D01*
X1200000Y148297402D01*
X1230741Y148142856D01*
X1230743Y148142848D01*
X1284153Y148013905D01*
X1646446Y148376199D01*
X1646446Y148376201D01*
X1616610Y148406037D01*
X1850000Y148406037D01*
X1850000Y148346363D01*
X1872836Y148291232D01*
X1915032Y148249036D01*
X1970163Y148226200D01*
X2029837Y148226200D01*
X2084968Y148249036D01*
X2127164Y148291232D01*
X2150000Y148346363D01*
X2150000Y148376201D01*
X2353553Y148376201D01*
X2353553Y148376199D01*
X2715845Y148013906D01*
X2769257Y148142852D01*
X2769258Y148142856D01*
X2799999Y148297402D01*
X2800000Y148297406D01*
X2800000Y148454994D01*
X2799999Y148454997D01*
X2769258Y148609543D01*
X2769257Y148609547D01*
X2715845Y148738493D01*
X2353553Y148376201D01*
X2150000Y148376201D01*
X2150000Y148406037D01*
X2127164Y148461168D01*
X2084968Y148503364D01*
X2029837Y148526200D01*
X1970163Y148526200D01*
X1915032Y148503364D01*
X1872836Y148461168D01*
X1850000Y148406037D01*
X1616610Y148406037D01*
X1284153Y148738493D01*
X1230743Y148609551D01*
X1230741Y148609543D01*
X1200000Y148454997D01*
X500500Y148454997D01*
X500500Y149092045D01*
X1637706Y149092045D01*
X2000000Y148729753D01*
X2000001Y148729753D01*
X2362293Y149092045D01*
X2233347Y149145457D01*
X2233343Y149145458D01*
X2078797Y149176199D01*
X2078794Y149176200D01*
X1921206Y149176200D01*
X1921202Y149176199D01*
X1766656Y149145458D01*
X1766652Y149145457D01*
X1637706Y149092045D01*
X500500Y149092045D01*
X500500Y155960353D01*
X1637705Y155960353D01*
X1766648Y155906943D01*
X1766656Y155906941D01*
X1921202Y155876200D01*
X2078797Y155876200D01*
X2233343Y155906941D01*
X2233351Y155906943D01*
X2362293Y155960353D01*
X2000001Y156322646D01*
X2000000Y156322646D01*
X1637705Y155960353D01*
X500500Y155960353D01*
X500500Y156754997D01*
X1200000Y156754997D01*
X1200000Y156597402D01*
X1230741Y156442856D01*
X1230743Y156442848D01*
X1284153Y156313905D01*
X1646446Y156676199D01*
X1646446Y156676201D01*
X1616610Y156706037D01*
X1850000Y156706037D01*
X1850000Y156646363D01*
X1872836Y156591232D01*
X1915032Y156549036D01*
X1970163Y156526200D01*
X2029837Y156526200D01*
X2084968Y156549036D01*
X2127164Y156591232D01*
X2150000Y156646363D01*
X2150000Y156676201D01*
X2353553Y156676201D01*
X2353553Y156676199D01*
X2715845Y156313906D01*
X2769257Y156442852D01*
X2769258Y156442856D01*
X2799999Y156597402D01*
X2800000Y156597406D01*
X2800000Y156754994D01*
X2799999Y156754997D01*
X2769258Y156909543D01*
X2769257Y156909547D01*
X2715845Y157038493D01*
X2353553Y156676201D01*
X2150000Y156676201D01*
X2150000Y156706037D01*
X2127164Y156761168D01*
X2084968Y156803364D01*
X2029837Y156826200D01*
X1970163Y156826200D01*
X1915032Y156803364D01*
X1872836Y156761168D01*
X1850000Y156706037D01*
X1616610Y156706037D01*
X1284153Y157038493D01*
X1230743Y156909551D01*
X1230741Y156909543D01*
X1200000Y156754997D01*
X500500Y156754997D01*
X500500Y157392045D01*
X1637706Y157392045D01*
X2000000Y157029753D01*
X2000001Y157029753D01*
X2362293Y157392045D01*
X2233347Y157445457D01*
X2233343Y157445458D01*
X2078797Y157476199D01*
X2078794Y157476200D01*
X1921206Y157476200D01*
X1921202Y157476199D01*
X1766656Y157445458D01*
X1766652Y157445457D01*
X1637706Y157392045D01*
X500500Y157392045D01*
X500500Y161960353D01*
X1637705Y161960353D01*
X1766648Y161906943D01*
X1766656Y161906941D01*
X1921202Y161876200D01*
X2078797Y161876200D01*
X2233343Y161906941D01*
X2233351Y161906943D01*
X2362293Y161960353D01*
X2000001Y162322646D01*
X2000000Y162322646D01*
X1637705Y161960353D01*
X500500Y161960353D01*
X500500Y162754997D01*
X1200000Y162754997D01*
X1200000Y162597402D01*
X1230741Y162442856D01*
X1230743Y162442848D01*
X1284153Y162313905D01*
X1646446Y162676199D01*
X1646446Y162676201D01*
X1616610Y162706037D01*
X1850000Y162706037D01*
X1850000Y162646363D01*
X1872836Y162591232D01*
X1915032Y162549036D01*
X1970163Y162526200D01*
X2029837Y162526200D01*
X2084968Y162549036D01*
X2127164Y162591232D01*
X2150000Y162646363D01*
X2150000Y162676201D01*
X2353553Y162676201D01*
X2353553Y162676199D01*
X2715845Y162313906D01*
X2769257Y162442852D01*
X2769258Y162442856D01*
X2799999Y162597402D01*
X2800000Y162597406D01*
X2800000Y162754994D01*
X2799999Y162754997D01*
X2769258Y162909543D01*
X2769257Y162909547D01*
X2715845Y163038493D01*
X2353553Y162676201D01*
X2150000Y162676201D01*
X2150000Y162706037D01*
X2127164Y162761168D01*
X2084968Y162803364D01*
X2029837Y162826200D01*
X1970163Y162826200D01*
X1915032Y162803364D01*
X1872836Y162761168D01*
X1850000Y162706037D01*
X1616610Y162706037D01*
X1284153Y163038493D01*
X1230743Y162909551D01*
X1230741Y162909543D01*
X1200000Y162754997D01*
X500500Y162754997D01*
X500500Y163392045D01*
X1637706Y163392045D01*
X2000000Y163029753D01*
X2000001Y163029753D01*
X2362293Y163392045D01*
X2233347Y163445457D01*
X2233343Y163445458D01*
X2078797Y163476199D01*
X2078794Y163476200D01*
X1921206Y163476200D01*
X1921202Y163476199D01*
X1766656Y163445458D01*
X1766652Y163445457D01*
X1637706Y163392045D01*
X500500Y163392045D01*
X500500Y170260353D01*
X1637705Y170260353D01*
X1766648Y170206943D01*
X1766656Y170206941D01*
X1921202Y170176200D01*
X2078797Y170176200D01*
X2233343Y170206941D01*
X2233351Y170206943D01*
X2362293Y170260353D01*
X2000001Y170622646D01*
X2000000Y170622646D01*
X1637705Y170260353D01*
X500500Y170260353D01*
X500500Y171054997D01*
X1200000Y171054997D01*
X1200000Y170897402D01*
X1230741Y170742856D01*
X1230743Y170742848D01*
X1284153Y170613905D01*
X1646446Y170976199D01*
X1646446Y170976201D01*
X1616610Y171006037D01*
X1850000Y171006037D01*
X1850000Y170946363D01*
X1872836Y170891232D01*
X1915032Y170849036D01*
X1970163Y170826200D01*
X2029837Y170826200D01*
X2084968Y170849036D01*
X2127164Y170891232D01*
X2150000Y170946363D01*
X2150000Y170976201D01*
X2353553Y170976201D01*
X2353553Y170976199D01*
X2715845Y170613906D01*
X2769257Y170742852D01*
X2769258Y170742856D01*
X2799999Y170897402D01*
X2800000Y170897406D01*
X2800000Y171054994D01*
X2799999Y171054997D01*
X2769258Y171209543D01*
X2769257Y171209547D01*
X2715845Y171338493D01*
X2353553Y170976201D01*
X2150000Y170976201D01*
X2150000Y171006037D01*
X2127164Y171061168D01*
X2084968Y171103364D01*
X2029837Y171126200D01*
X1970163Y171126200D01*
X1915032Y171103364D01*
X1872836Y171061168D01*
X1850000Y171006037D01*
X1616610Y171006037D01*
X1284153Y171338493D01*
X1230743Y171209551D01*
X1230741Y171209543D01*
X1200000Y171054997D01*
X500500Y171054997D01*
X500500Y171692045D01*
X1637706Y171692045D01*
X2000000Y171329753D01*
X2000001Y171329753D01*
X2362293Y171692045D01*
X2233347Y171745457D01*
X2233343Y171745458D01*
X2078797Y171776199D01*
X2078794Y171776200D01*
X1921206Y171776200D01*
X1921202Y171776199D01*
X1766656Y171745458D01*
X1766652Y171745457D01*
X1637706Y171692045D01*
X500500Y171692045D01*
X500500Y176260353D01*
X1637705Y176260353D01*
X1766648Y176206943D01*
X1766656Y176206941D01*
X1921202Y176176200D01*
X2078797Y176176200D01*
X2233343Y176206941D01*
X2233351Y176206943D01*
X2362293Y176260353D01*
X2000001Y176622646D01*
X2000000Y176622646D01*
X1637705Y176260353D01*
X500500Y176260353D01*
X500500Y177054997D01*
X1200000Y177054997D01*
X1200000Y176897402D01*
X1230741Y176742856D01*
X1230743Y176742848D01*
X1284153Y176613905D01*
X1646446Y176976199D01*
X1646446Y176976201D01*
X1616610Y177006037D01*
X1850000Y177006037D01*
X1850000Y176946363D01*
X1872836Y176891232D01*
X1915032Y176849036D01*
X1970163Y176826200D01*
X2029837Y176826200D01*
X2084968Y176849036D01*
X2127164Y176891232D01*
X2150000Y176946363D01*
X2150000Y176976201D01*
X2353553Y176976201D01*
X2353553Y176976199D01*
X2715845Y176613906D01*
X2769257Y176742852D01*
X2769258Y176742856D01*
X2799999Y176897402D01*
X2800000Y176897406D01*
X2800000Y177054994D01*
X2799999Y177054997D01*
X2769258Y177209543D01*
X2769257Y177209547D01*
X2715845Y177338493D01*
X2353553Y176976201D01*
X2150000Y176976201D01*
X2150000Y177006037D01*
X2127164Y177061168D01*
X2084968Y177103364D01*
X2029837Y177126200D01*
X1970163Y177126200D01*
X1915032Y177103364D01*
X1872836Y177061168D01*
X1850000Y177006037D01*
X1616610Y177006037D01*
X1284153Y177338493D01*
X1230743Y177209551D01*
X1230741Y177209543D01*
X1200000Y177054997D01*
X500500Y177054997D01*
X500500Y177692045D01*
X1637706Y177692045D01*
X2000000Y177329753D01*
X2000001Y177329753D01*
X2362293Y177692045D01*
X2233347Y177745457D01*
X2233343Y177745458D01*
X2078797Y177776199D01*
X2078794Y177776200D01*
X1921206Y177776200D01*
X1921202Y177776199D01*
X1766656Y177745458D01*
X1766652Y177745457D01*
X1637706Y177692045D01*
X500500Y177692045D01*
X500500Y184560353D01*
X1637705Y184560353D01*
X1766648Y184506943D01*
X1766656Y184506941D01*
X1921202Y184476200D01*
X2078797Y184476200D01*
X2233343Y184506941D01*
X2233351Y184506943D01*
X2362293Y184560353D01*
X2000001Y184922646D01*
X2000000Y184922646D01*
X1637705Y184560353D01*
X500500Y184560353D01*
X500500Y185354997D01*
X1200000Y185354997D01*
X1200000Y185197402D01*
X1230741Y185042856D01*
X1230743Y185042848D01*
X1284153Y184913905D01*
X1646446Y185276199D01*
X1646446Y185276201D01*
X1616610Y185306037D01*
X1850000Y185306037D01*
X1850000Y185246363D01*
X1872836Y185191232D01*
X1915032Y185149036D01*
X1970163Y185126200D01*
X2029837Y185126200D01*
X2084968Y185149036D01*
X2127164Y185191232D01*
X2150000Y185246363D01*
X2150000Y185276201D01*
X2353553Y185276201D01*
X2353553Y185276199D01*
X2715845Y184913906D01*
X2769257Y185042852D01*
X2769258Y185042856D01*
X2799999Y185197402D01*
X2800000Y185197406D01*
X2800000Y185354994D01*
X2799999Y185354997D01*
X2769258Y185509543D01*
X2769257Y185509547D01*
X2715845Y185638493D01*
X2353553Y185276201D01*
X2150000Y185276201D01*
X2150000Y185306037D01*
X2127164Y185361168D01*
X2084968Y185403364D01*
X2029837Y185426200D01*
X1970163Y185426200D01*
X1915032Y185403364D01*
X1872836Y185361168D01*
X1850000Y185306037D01*
X1616610Y185306037D01*
X1284153Y185638493D01*
X1230743Y185509551D01*
X1230741Y185509543D01*
X1200000Y185354997D01*
X500500Y185354997D01*
X500500Y185992045D01*
X1637706Y185992045D01*
X2000000Y185629753D01*
X2000001Y185629753D01*
X2362293Y185992045D01*
X2233347Y186045457D01*
X2233343Y186045458D01*
X2078797Y186076199D01*
X2078794Y186076200D01*
X1921206Y186076200D01*
X1921202Y186076199D01*
X1766656Y186045458D01*
X1766652Y186045457D01*
X1637706Y185992045D01*
X500500Y185992045D01*
X500500Y190560353D01*
X1637705Y190560353D01*
X1766648Y190506943D01*
X1766656Y190506941D01*
X1921202Y190476200D01*
X2078797Y190476200D01*
X2233343Y190506941D01*
X2233351Y190506943D01*
X2362293Y190560353D01*
X2000001Y190922646D01*
X2000000Y190922646D01*
X1637705Y190560353D01*
X500500Y190560353D01*
X500500Y191354997D01*
X1200000Y191354997D01*
X1200000Y191197402D01*
X1230741Y191042856D01*
X1230743Y191042848D01*
X1284153Y190913905D01*
X1646446Y191276199D01*
X1646446Y191276201D01*
X1616610Y191306037D01*
X1850000Y191306037D01*
X1850000Y191246363D01*
X1872836Y191191232D01*
X1915032Y191149036D01*
X1970163Y191126200D01*
X2029837Y191126200D01*
X2084968Y191149036D01*
X2127164Y191191232D01*
X2150000Y191246363D01*
X2150000Y191276201D01*
X2353553Y191276201D01*
X2353553Y191276199D01*
X2715845Y190913906D01*
X2769257Y191042852D01*
X2769258Y191042856D01*
X2799999Y191197402D01*
X2800000Y191197406D01*
X2800000Y191354994D01*
X2799999Y191354997D01*
X2769258Y191509543D01*
X2769257Y191509547D01*
X2715845Y191638493D01*
X2353553Y191276201D01*
X2150000Y191276201D01*
X2150000Y191306037D01*
X2127164Y191361168D01*
X2084968Y191403364D01*
X2029837Y191426200D01*
X1970163Y191426200D01*
X1915032Y191403364D01*
X1872836Y191361168D01*
X1850000Y191306037D01*
X1616610Y191306037D01*
X1284153Y191638493D01*
X1230743Y191509551D01*
X1230741Y191509543D01*
X1200000Y191354997D01*
X500500Y191354997D01*
X500500Y191992045D01*
X1637706Y191992045D01*
X2000000Y191629753D01*
X2000001Y191629753D01*
X2362293Y191992045D01*
X2233347Y192045457D01*
X2233343Y192045458D01*
X2078797Y192076199D01*
X2078794Y192076200D01*
X1921206Y192076200D01*
X1921202Y192076199D01*
X1766656Y192045458D01*
X1766652Y192045457D01*
X1637706Y191992045D01*
X500500Y191992045D01*
X500500Y198860353D01*
X1637705Y198860353D01*
X1766648Y198806943D01*
X1766656Y198806941D01*
X1921202Y198776200D01*
X2078797Y198776200D01*
X2233343Y198806941D01*
X2233351Y198806943D01*
X2362293Y198860353D01*
X2000001Y199222646D01*
X2000000Y199222646D01*
X1637705Y198860353D01*
X500500Y198860353D01*
X500500Y199654997D01*
X1200000Y199654997D01*
X1200000Y199497402D01*
X1230741Y199342856D01*
X1230743Y199342848D01*
X1284153Y199213905D01*
X1646446Y199576199D01*
X1646446Y199576201D01*
X1616610Y199606037D01*
X1850000Y199606037D01*
X1850000Y199546363D01*
X1872836Y199491232D01*
X1915032Y199449036D01*
X1970163Y199426200D01*
X2029837Y199426200D01*
X2084968Y199449036D01*
X2127164Y199491232D01*
X2150000Y199546363D01*
X2150000Y199576201D01*
X2353553Y199576201D01*
X2353553Y199576199D01*
X2715845Y199213906D01*
X2769257Y199342852D01*
X2769258Y199342856D01*
X2799999Y199497402D01*
X2800000Y199497406D01*
X2800000Y199654994D01*
X2799999Y199654997D01*
X2769258Y199809543D01*
X2769257Y199809547D01*
X2715845Y199938493D01*
X2353553Y199576201D01*
X2150000Y199576201D01*
X2150000Y199606037D01*
X2127164Y199661168D01*
X2084968Y199703364D01*
X2029837Y199726200D01*
X1970163Y199726200D01*
X1915032Y199703364D01*
X1872836Y199661168D01*
X1850000Y199606037D01*
X1616610Y199606037D01*
X1284153Y199938493D01*
X1230743Y199809551D01*
X1230741Y199809543D01*
X1200000Y199654997D01*
X500500Y199654997D01*
X500500Y200292045D01*
X1637706Y200292045D01*
X2000000Y199929753D01*
X2000001Y199929753D01*
X2362293Y200292045D01*
X2233347Y200345457D01*
X2233343Y200345458D01*
X2078797Y200376199D01*
X2078794Y200376200D01*
X1921206Y200376200D01*
X1921202Y200376199D01*
X1766656Y200345458D01*
X1766652Y200345457D01*
X1637706Y200292045D01*
X500500Y200292045D01*
X500500Y204860353D01*
X1637705Y204860353D01*
X1766648Y204806943D01*
X1766656Y204806941D01*
X1921202Y204776200D01*
X2078797Y204776200D01*
X2233343Y204806941D01*
X2233351Y204806943D01*
X2362293Y204860353D01*
X2000001Y205222646D01*
X2000000Y205222646D01*
X1637705Y204860353D01*
X500500Y204860353D01*
X500500Y205654997D01*
X1200000Y205654997D01*
X1200000Y205497402D01*
X1230741Y205342856D01*
X1230743Y205342848D01*
X1284153Y205213905D01*
X1646446Y205576199D01*
X1646446Y205576201D01*
X1616610Y205606037D01*
X1850000Y205606037D01*
X1850000Y205546363D01*
X1872836Y205491232D01*
X1915032Y205449036D01*
X1970163Y205426200D01*
X2029837Y205426200D01*
X2084968Y205449036D01*
X2127164Y205491232D01*
X2150000Y205546363D01*
X2150000Y205576201D01*
X2353553Y205576201D01*
X2353553Y205576199D01*
X2715845Y205213906D01*
X2769257Y205342852D01*
X2769258Y205342856D01*
X2799999Y205497402D01*
X2800000Y205497406D01*
X2800000Y205654994D01*
X2799999Y205654997D01*
X2769258Y205809543D01*
X2769257Y205809547D01*
X2715845Y205938493D01*
X2353553Y205576201D01*
X2150000Y205576201D01*
X2150000Y205606037D01*
X2127164Y205661168D01*
X2084968Y205703364D01*
X2029837Y205726200D01*
X1970163Y205726200D01*
X1915032Y205703364D01*
X1872836Y205661168D01*
X1850000Y205606037D01*
X1616610Y205606037D01*
X1284153Y205938493D01*
X1230743Y205809551D01*
X1230741Y205809543D01*
X1200000Y205654997D01*
X500500Y205654997D01*
X500500Y206292045D01*
X1637706Y206292045D01*
X2000000Y205929753D01*
X2000001Y205929753D01*
X2362293Y206292045D01*
X2233347Y206345457D01*
X2233343Y206345458D01*
X2078797Y206376199D01*
X2078794Y206376200D01*
X1921206Y206376200D01*
X1921202Y206376199D01*
X1766656Y206345458D01*
X1766652Y206345457D01*
X1637706Y206292045D01*
X500500Y206292045D01*
X500500Y213160353D01*
X1637705Y213160353D01*
X1766648Y213106943D01*
X1766656Y213106941D01*
X1921202Y213076200D01*
X2078797Y213076200D01*
X2233343Y213106941D01*
X2233351Y213106943D01*
X2362293Y213160353D01*
X2000001Y213522646D01*
X2000000Y213522646D01*
X1637705Y213160353D01*
X500500Y213160353D01*
X500500Y213954997D01*
X1200000Y213954997D01*
X1200000Y213797402D01*
X1230741Y213642856D01*
X1230743Y213642848D01*
X1284153Y213513905D01*
X1646446Y213876199D01*
X1646446Y213876201D01*
X1616610Y213906037D01*
X1850000Y213906037D01*
X1850000Y213846363D01*
X1872836Y213791232D01*
X1915032Y213749036D01*
X1970163Y213726200D01*
X2029837Y213726200D01*
X2084968Y213749036D01*
X2127164Y213791232D01*
X2150000Y213846363D01*
X2150000Y213876201D01*
X2353553Y213876201D01*
X2353553Y213876199D01*
X2715845Y213513906D01*
X2769257Y213642852D01*
X2769258Y213642856D01*
X2799999Y213797402D01*
X2800000Y213797406D01*
X2800000Y213954994D01*
X2799999Y213954997D01*
X2769258Y214109543D01*
X2769257Y214109547D01*
X2715845Y214238493D01*
X2353553Y213876201D01*
X2150000Y213876201D01*
X2150000Y213906037D01*
X2127164Y213961168D01*
X2084968Y214003364D01*
X2029837Y214026200D01*
X1970163Y214026200D01*
X1915032Y214003364D01*
X1872836Y213961168D01*
X1850000Y213906037D01*
X1616610Y213906037D01*
X1284153Y214238493D01*
X1230743Y214109551D01*
X1230741Y214109543D01*
X1200000Y213954997D01*
X500500Y213954997D01*
X500500Y214592045D01*
X1637706Y214592045D01*
X2000000Y214229753D01*
X2000001Y214229753D01*
X2362293Y214592045D01*
X2233347Y214645457D01*
X2233343Y214645458D01*
X2078797Y214676199D01*
X2078794Y214676200D01*
X1921206Y214676200D01*
X1921202Y214676199D01*
X1766656Y214645458D01*
X1766652Y214645457D01*
X1637706Y214592045D01*
X500500Y214592045D01*
X500500Y219160353D01*
X1637705Y219160353D01*
X1766648Y219106943D01*
X1766656Y219106941D01*
X1921202Y219076200D01*
X2078797Y219076200D01*
X2233343Y219106941D01*
X2233351Y219106943D01*
X2362293Y219160353D01*
X2000001Y219522646D01*
X2000000Y219522646D01*
X1637705Y219160353D01*
X500500Y219160353D01*
X500500Y219954997D01*
X1200000Y219954997D01*
X1200000Y219797402D01*
X1230741Y219642856D01*
X1230743Y219642848D01*
X1284153Y219513905D01*
X1646446Y219876199D01*
X1646446Y219876201D01*
X1616610Y219906037D01*
X1850000Y219906037D01*
X1850000Y219846363D01*
X1872836Y219791232D01*
X1915032Y219749036D01*
X1970163Y219726200D01*
X2029837Y219726200D01*
X2084968Y219749036D01*
X2127164Y219791232D01*
X2150000Y219846363D01*
X2150000Y219876201D01*
X2353553Y219876201D01*
X2353553Y219876199D01*
X2715845Y219513906D01*
X2769257Y219642852D01*
X2769258Y219642856D01*
X2799999Y219797402D01*
X2800000Y219797406D01*
X2800000Y219954994D01*
X2799999Y219954997D01*
X2769258Y220109543D01*
X2769257Y220109547D01*
X2715845Y220238493D01*
X2353553Y219876201D01*
X2150000Y219876201D01*
X2150000Y219906037D01*
X2127164Y219961168D01*
X2084968Y220003364D01*
X2029837Y220026200D01*
X1970163Y220026200D01*
X1915032Y220003364D01*
X1872836Y219961168D01*
X1850000Y219906037D01*
X1616610Y219906037D01*
X1284153Y220238493D01*
X1230743Y220109551D01*
X1230741Y220109543D01*
X1200000Y219954997D01*
X500500Y219954997D01*
X500500Y220592045D01*
X1637706Y220592045D01*
X2000000Y220229753D01*
X2000001Y220229753D01*
X2362293Y220592045D01*
X2233347Y220645457D01*
X2233343Y220645458D01*
X2078797Y220676199D01*
X2078794Y220676200D01*
X1921206Y220676200D01*
X1921202Y220676199D01*
X1766656Y220645458D01*
X1766652Y220645457D01*
X1637706Y220592045D01*
X500500Y220592045D01*
X500500Y227460353D01*
X1637705Y227460353D01*
X1766648Y227406943D01*
X1766656Y227406941D01*
X1921202Y227376200D01*
X2078797Y227376200D01*
X2233343Y227406941D01*
X2233351Y227406943D01*
X2362293Y227460353D01*
X2000001Y227822646D01*
X2000000Y227822646D01*
X1637705Y227460353D01*
X500500Y227460353D01*
X500500Y228254997D01*
X1200000Y228254997D01*
X1200000Y228097402D01*
X1230741Y227942856D01*
X1230743Y227942848D01*
X1284153Y227813905D01*
X1646446Y228176199D01*
X1646446Y228176201D01*
X1616610Y228206037D01*
X1850000Y228206037D01*
X1850000Y228146363D01*
X1872836Y228091232D01*
X1915032Y228049036D01*
X1970163Y228026200D01*
X2029837Y228026200D01*
X2084968Y228049036D01*
X2127164Y228091232D01*
X2150000Y228146363D01*
X2150000Y228176201D01*
X2353553Y228176201D01*
X2353553Y228176199D01*
X2715845Y227813906D01*
X2769257Y227942852D01*
X2769258Y227942856D01*
X2799999Y228097402D01*
X2800000Y228097406D01*
X2800000Y228254994D01*
X2799999Y228254997D01*
X2769258Y228409543D01*
X2769257Y228409547D01*
X2715845Y228538493D01*
X2353553Y228176201D01*
X2150000Y228176201D01*
X2150000Y228206037D01*
X2127164Y228261168D01*
X2084968Y228303364D01*
X2029837Y228326200D01*
X1970163Y228326200D01*
X1915032Y228303364D01*
X1872836Y228261168D01*
X1850000Y228206037D01*
X1616610Y228206037D01*
X1284153Y228538493D01*
X1230743Y228409551D01*
X1230741Y228409543D01*
X1200000Y228254997D01*
X500500Y228254997D01*
X500500Y228892045D01*
X1637706Y228892045D01*
X2000000Y228529753D01*
X2000001Y228529753D01*
X2362293Y228892045D01*
X2233347Y228945457D01*
X2233343Y228945458D01*
X2078797Y228976199D01*
X2078794Y228976200D01*
X1921206Y228976200D01*
X1921202Y228976199D01*
X1766656Y228945458D01*
X1766652Y228945457D01*
X1637706Y228892045D01*
X500500Y228892045D01*
X500500Y233460353D01*
X1637705Y233460353D01*
X1766648Y233406943D01*
X1766656Y233406941D01*
X1921202Y233376200D01*
X2078797Y233376200D01*
X2233343Y233406941D01*
X2233351Y233406943D01*
X2362293Y233460353D01*
X2000001Y233822646D01*
X2000000Y233822646D01*
X1637705Y233460353D01*
X500500Y233460353D01*
X500500Y234254997D01*
X1200000Y234254997D01*
X1200000Y234097402D01*
X1230741Y233942856D01*
X1230743Y233942848D01*
X1284153Y233813905D01*
X1646446Y234176199D01*
X1646446Y234176201D01*
X1616610Y234206037D01*
X1850000Y234206037D01*
X1850000Y234146363D01*
X1872836Y234091232D01*
X1915032Y234049036D01*
X1970163Y234026200D01*
X2029837Y234026200D01*
X2084968Y234049036D01*
X2127164Y234091232D01*
X2150000Y234146363D01*
X2150000Y234176201D01*
X2353553Y234176201D01*
X2353553Y234176199D01*
X2715845Y233813906D01*
X2769257Y233942852D01*
X2769258Y233942856D01*
X2799999Y234097402D01*
X2800000Y234097406D01*
X2800000Y234254994D01*
X2799999Y234254997D01*
X2769258Y234409543D01*
X2769257Y234409547D01*
X2715845Y234538493D01*
X2353553Y234176201D01*
X2150000Y234176201D01*
X2150000Y234206037D01*
X2127164Y234261168D01*
X2084968Y234303364D01*
X2029837Y234326200D01*
X1970163Y234326200D01*
X1915032Y234303364D01*
X1872836Y234261168D01*
X1850000Y234206037D01*
X1616610Y234206037D01*
X1284153Y234538493D01*
X1230743Y234409551D01*
X1230741Y234409543D01*
X1200000Y234254997D01*
X500500Y234254997D01*
X500500Y234892045D01*
X1637706Y234892045D01*
X2000000Y234529753D01*
X2000001Y234529753D01*
X2362293Y234892045D01*
X2233347Y234945457D01*
X2233343Y234945458D01*
X2078797Y234976199D01*
X2078794Y234976200D01*
X1921206Y234976200D01*
X1921202Y234976199D01*
X1766656Y234945458D01*
X1766652Y234945457D01*
X1637706Y234892045D01*
X500500Y234892045D01*
X500500Y243121288D01*
X3149500Y243121288D01*
X3149500Y242878711D01*
X3181161Y242638214D01*
X3243947Y242403895D01*
X3336773Y242179794D01*
X3336777Y242179785D01*
X3458067Y241969706D01*
X3605733Y241777263D01*
X3605739Y241777256D01*
X3777256Y241605739D01*
X3777263Y241605733D01*
X3969706Y241458067D01*
X4179785Y241336777D01*
X4179794Y241336773D01*
X4403895Y241243947D01*
X4638214Y241181161D01*
X4878711Y241149500D01*
X4878712Y241149500D01*
X5121289Y241149500D01*
X5361785Y241181161D01*
X5596104Y241243947D01*
X5820205Y241336773D01*
X5820214Y241336777D01*
X5858661Y241358974D01*
X6030289Y241458064D01*
X6030293Y241458067D01*
X6222736Y241605733D01*
X6222743Y241605739D01*
X6394260Y241777256D01*
X6394266Y241777263D01*
X6541932Y241969706D01*
X6541936Y241969711D01*
X6663224Y242179788D01*
X6756054Y242403900D01*
X6818838Y242638211D01*
X6850500Y242878712D01*
X6850500Y243121288D01*
X80649500Y243121288D01*
X80649500Y242878711D01*
X80681161Y242638214D01*
X80743947Y242403895D01*
X80836773Y242179794D01*
X80836777Y242179785D01*
X80958067Y241969706D01*
X81105733Y241777263D01*
X81105739Y241777256D01*
X81277256Y241605739D01*
X81277263Y241605733D01*
X81469706Y241458067D01*
X81679785Y241336777D01*
X81679794Y241336773D01*
X81903895Y241243947D01*
X82138214Y241181161D01*
X82378711Y241149500D01*
X82378712Y241149500D01*
X82621289Y241149500D01*
X82861785Y241181161D01*
X83096104Y241243947D01*
X83320205Y241336773D01*
X83320214Y241336777D01*
X83358661Y241358974D01*
X83530289Y241458064D01*
X83530293Y241458067D01*
X83722736Y241605733D01*
X83722743Y241605739D01*
X83894260Y241777256D01*
X83894266Y241777263D01*
X84041932Y241969706D01*
X84041936Y241969711D01*
X84163224Y242179788D01*
X84256054Y242403900D01*
X84318838Y242638211D01*
X84350500Y242878712D01*
X84350500Y243121288D01*
X158149500Y243121288D01*
X158149500Y242878711D01*
X158181161Y242638214D01*
X158243947Y242403895D01*
X158336773Y242179794D01*
X158336777Y242179785D01*
X158458067Y241969706D01*
X158605733Y241777263D01*
X158605739Y241777256D01*
X158777256Y241605739D01*
X158777263Y241605733D01*
X158969706Y241458067D01*
X159179785Y241336777D01*
X159179794Y241336773D01*
X159403895Y241243947D01*
X159638214Y241181161D01*
X159878711Y241149500D01*
X159878712Y241149500D01*
X160121289Y241149500D01*
X160361785Y241181161D01*
X160596104Y241243947D01*
X160820205Y241336773D01*
X160820214Y241336777D01*
X160858661Y241358974D01*
X161030289Y241458064D01*
X161030293Y241458067D01*
X161222736Y241605733D01*
X161222743Y241605739D01*
X161394260Y241777256D01*
X161394266Y241777263D01*
X161541932Y241969706D01*
X161541936Y241969711D01*
X161663224Y242179788D01*
X161756054Y242403900D01*
X161818838Y242638211D01*
X161850500Y242878712D01*
X161850500Y243121288D01*
X161818838Y243361789D01*
X161756054Y243596100D01*
X161663224Y243820212D01*
X161541936Y244030289D01*
X161394265Y244222738D01*
X161222738Y244394265D01*
X161030289Y244541936D01*
X160820212Y244663224D01*
X160596100Y244756054D01*
X160361789Y244818838D01*
X160169388Y244844167D01*
X160121289Y244850500D01*
X160121288Y244850500D01*
X159878712Y244850500D01*
X159878711Y244850500D01*
X159818586Y244842584D01*
X159638211Y244818838D01*
X159403900Y244756054D01*
X159179788Y244663224D01*
X158969711Y244541936D01*
X158969706Y244541932D01*
X158777263Y244394266D01*
X158777256Y244394260D01*
X158605739Y244222743D01*
X158605735Y244222738D01*
X158458064Y244030289D01*
X158358974Y243858661D01*
X158336777Y243820214D01*
X158336773Y243820205D01*
X158243947Y243596104D01*
X158181161Y243361785D01*
X158149500Y243121288D01*
X84350500Y243121288D01*
X84318838Y243361789D01*
X84256054Y243596100D01*
X84163224Y243820212D01*
X84041936Y244030289D01*
X83894265Y244222738D01*
X83722738Y244394265D01*
X83530289Y244541936D01*
X83320212Y244663224D01*
X83096100Y244756054D01*
X82861789Y244818838D01*
X82669388Y244844167D01*
X82621289Y244850500D01*
X82621288Y244850500D01*
X82378712Y244850500D01*
X82378711Y244850500D01*
X82318586Y244842584D01*
X82138211Y244818838D01*
X81903900Y244756054D01*
X81679788Y244663224D01*
X81469711Y244541936D01*
X81469706Y244541932D01*
X81277263Y244394266D01*
X81277256Y244394260D01*
X81105739Y244222743D01*
X81105735Y244222738D01*
X80958064Y244030289D01*
X80858974Y243858661D01*
X80836777Y243820214D01*
X80836773Y243820205D01*
X80743947Y243596104D01*
X80681161Y243361785D01*
X80649500Y243121288D01*
X6850500Y243121288D01*
X6818838Y243361789D01*
X6756054Y243596100D01*
X6663224Y243820212D01*
X6541936Y244030289D01*
X6394265Y244222738D01*
X6222738Y244394265D01*
X6030289Y244541936D01*
X5820212Y244663224D01*
X5596100Y244756054D01*
X5361789Y244818838D01*
X5169388Y244844167D01*
X5121289Y244850500D01*
X5121288Y244850500D01*
X4878712Y244850500D01*
X4878711Y244850500D01*
X4818586Y244842584D01*
X4638211Y244818838D01*
X4403900Y244756054D01*
X4179788Y244663224D01*
X3969711Y244541936D01*
X3969706Y244541932D01*
X3777263Y244394266D01*
X3777256Y244394260D01*
X3605739Y244222743D01*
X3605735Y244222738D01*
X3458064Y244030289D01*
X3358974Y243858661D01*
X3336777Y243820214D01*
X3336773Y243820205D01*
X3243947Y243596104D01*
X3181161Y243361785D01*
X3149500Y243121288D01*
X500500Y243121288D01*
X500500Y247375500D01*
X520185Y247442539D01*
X572989Y247488294D01*
X624500Y247499500D01*
X164375500Y247499500D01*
X164442539Y247479815D01*
G37*
%TD.AperFunction*%
%TD*%
M02*
