M48
; DRILL file KiCad 10.0.6 date 2026-10-09T14:28:17
; FORMAT={-:-/ absolute / metric / decimal}
; #@! TF.CreationDate,2026-10-09T14:28:17+03:00
; #@! TF.GenerationSoftware,Kicad,Pcbnew,10.0.6
; #@! TF.FileFunction,Plated,1,2,PTH
FMAT,2
METRIC
; #@! TA.AperFunction,Plated,PTH,ComponentDrill
T1C0.254
; #@! TA.AperFunction,Plated,PTH,ViaDrill
T2C0.300
; #@! TA.AperFunction,Plated,PTH,ViaDrill
T3C0.350
; #@! TA.AperFunction,Plated,PTH,ViaDrill
T4C0.600
; #@! TA.AperFunction,Plated,PTH,ComponentDrill
T5C1.000
; #@! TA.AperFunction,Plated,PTH,ComponentDrill
T6C1.016
; #@! TA.AperFunction,Plated,PTH,ComponentDrill
T7C1.321
%
G90
G05
T1
X120.594Y92.406
X120.594Y91.594
X121.406Y92.406
X121.406Y91.594
X237.594Y99.406
X237.594Y98.594
X238.406Y99.406
X238.406Y98.594
T2
X50.734Y196.918
X73.051Y177.291
X95.368Y194.659
X107.767Y83.013
X108.314Y84.369
X110.247Y87.266
X110.637Y32.926
X111.104Y87.238
X111.343Y80.375
X112.726Y75.57
X115.206Y87.266
X116.063Y87.238
X117.091Y14.141
X117.355Y140.451
X117.473Y83.5
X117.686Y75.57
X118.313Y85.495
X120.284Y87.975
X121.299Y9.857
X122.0Y81.361
X122.053Y86.317
X122.94Y18.212
X123.054Y21.118
X123.13Y82.962
X124.33Y92.592
X125.125Y92.938
X125.932Y82.193
X130.084Y92.938
X131.05Y80.0
X131.312Y81.311
X135.492Y80.532
X136.604Y81.513
X137.242Y87.349
X137.523Y134.164
X139.863Y88.058
X139.929Y93.076
X140.209Y77.956
X141.05Y86.0
X142.483Y231.873
X142.483Y95.418
X142.483Y88.033
X143.853Y88.797
X143.949Y84.702
X144.963Y97.899
X144.963Y95.418
X144.995Y88.0
X145.15Y36.55
X145.387Y88.798
X145.451Y86.954
X145.779Y94.667
X146.673Y84.677
X147.442Y94.996
X149.464Y115.192
X149.922Y95.418
X149.933Y32.85
X152.402Y132.862
X154.917Y180.033
X156.86Y90.456
X157.5Y85.495
X157.564Y35.801
X158.1Y87.324
X159.4Y81.311
X161.39Y81.311
X161.862Y89.661
X162.098Y90.456
X162.115Y87.775
X162.537Y92.322
X162.846Y82.7
X162.886Y87.486
X164.005Y88.203
X164.345Y84.737
X165.85Y80.0
X166.901Y90.377
X167.28Y95.418
X167.696Y87.95
X167.726Y83.013
X168.41Y84.677
X169.761Y95.42
X174.389Y77.918
X175.628Y75.475
X175.629Y72.5
X177.0Y80.0
X177.199Y83.013
X177.21Y127.671
X178.682Y78.596
X179.602Y79.318
X180.201Y78.434
X180.609Y75.477
X182.845Y118.524
X187.65Y41.05
X192.012Y179.64
X192.077Y122.712
X192.232Y121.807
X193.618Y111.057
X194.556Y90.456
X197.626Y121.653
X201.996Y112.785
X222.828Y132.874
X223.634Y65.472
X224.7Y115.4
X224.724Y89.065
X225.624Y88.243
X226.7Y39.25
X226.793Y229.392
X226.793Y127.671
X226.793Y83.013
X227.545Y123.021
X229.748Y93.762
X230.463Y86.976
X231.611Y90.299
X231.752Y87.444
X233.776Y86.977
X233.868Y93.539
X234.232Y159.924
X234.721Y102.478
X234.971Y97.409
X235.368Y100.231
X236.711Y95.418
X238.557Y87.356
X238.969Y95.547
X239.0Y89.061
X239.193Y90.35
X240.065Y93.734
X240.097Y92.521
X240.115Y143.324
X241.671Y83.013
X242.82Y139.302
X244.15Y95.418
X244.15Y87.478
X245.295Y143.324
X245.941Y140.315
X246.445Y137.525
X246.601Y150.315
X246.63Y97.899
X246.833Y149.359
X246.986Y143.398
X247.285Y139.64
X247.334Y150.761
X247.42Y119.775
X248.309Y137.601
X249.106Y143.686
X249.11Y152.481
X249.11Y92.938
X249.218Y150.173
X250.0Y148.0
X250.275Y143.349
X250.56Y123.533
X250.995Y136.379
X251.025Y79.721
X251.588Y140.474
X252.002Y145.454
X252.265Y80.859
X252.374Y140.306
X252.585Y141.726
X252.602Y142.556
X252.685Y138.732
X253.05Y78.0
X253.05Y75.0
X253.095Y140.251
X254.015Y137.375
X254.015Y82.349
X254.015Y76.331
X254.076Y143.324
X254.558Y133.349
X254.86Y150.735
X256.529Y88.32
X256.549Y70.608
X256.945Y83.077
X257.479Y83.8
X257.932Y81.63
X258.983Y121.667
X258.994Y83.052
X258.994Y79.723
X259.029Y150.0
X259.029Y90.458
X260.85Y75.0
X261.097Y90.46
X261.128Y84.1
X261.508Y152.481
X261.744Y140.076
X262.128Y84.049
X262.224Y78.051
X262.839Y109.284
X263.988Y90.458
X264.609Y148.141
X264.687Y88.269
X265.213Y83.076
X266.031Y79.696
T3
X16.65Y196.6
X16.95Y198.9
X22.2Y194.95
X24.85Y201.75
X27.15Y199.25
X34.4Y194.65
X42.35Y200.3
X72.7Y186.2
X108.2Y116.05
X110.6Y41.5
X114.95Y230.35
X115.25Y185.75
X117.95Y232.35
X138.6Y51.8
X145.375Y115.375
X151.6Y185.15
X153.95Y238.35
X187.7Y114.55
X188.15Y184.7
X189.3Y171.2
X190.1Y149.35
X199.8Y143.45
X217.55Y69.7
X217.95Y65.35
X220.9Y65.05
X220.9Y64.25
X220.9Y63.45
X221.8Y65.05
X221.8Y64.2
X221.8Y63.45
X222.5Y147.75
X223.6Y213.5
X234.5Y222.75
X259.35Y102.6
X262.1Y101.3
X264.85Y103.85
X265.5Y98.4
X266.85Y102.05
X268.8Y94.25
X269.0Y102.25
X273.6Y110.45
X275.25Y105.4
T4
X24.6Y231.8
X24.6Y210.0
X42.15Y230.0
X42.95Y214.8
X46.2Y244.45
X49.6Y230.9
X55.8Y148.0
X58.8Y259.05
X60.15Y157.35
X60.2Y226.7
X61.35Y180.8
X61.8Y145.6
X62.25Y241.1
X62.55Y32.8
X64.45Y113.85
X64.5Y183.6
X65.3Y231.0
X65.45Y35.4
X65.75Y195.05
X65.75Y192.85
X65.75Y190.2
X65.9Y120.8
X65.95Y123.2
X66.0Y125.2
X66.1Y226.95
X66.4Y156.15
X66.55Y183.65
X66.7Y113.75
X66.8Y253.25
X67.15Y41.8
X67.25Y187.1
X67.25Y46.5
X67.25Y44.3
X67.55Y193.6
X67.55Y35.3
X68.3Y162.65
X68.65Y190.2
X69.25Y180.8
X69.45Y32.85
X69.65Y189.0
X70.2Y150.4
X70.3Y112.75
X70.45Y182.75
X71.05Y45.7
X71.7Y241.25
X73.2Y201.85
X73.3Y37.85
X75.25Y158.3
X75.4Y260.65
X75.9Y205.0
X76.15Y229.9
X76.2Y144.9
X79.95Y224.85
X81.6Y271.05
X83.3Y128.9
X85.2Y253.05
X85.5Y227.4
X86.2Y194.15
X88.05Y183.15
X88.2Y130.25
X88.3Y133.95
X89.05Y187.85
X89.25Y128.3
X89.35Y201.5
X89.35Y145.5
X89.35Y136.25
X90.15Y161.65
X90.15Y133.55
X91.2Y130.65
X96.85Y32.9
X97.55Y110.45
X98.8Y262.25
X99.05Y162.85
X99.05Y35.7
X100.15Y45.5
X100.15Y43.1
X101.0Y113.3
X101.15Y35.8
X101.9Y150.15
X102.65Y45.5
X102.65Y43.1
X102.7Y122.0
X102.8Y124.45
X102.8Y119.6
X103.3Y113.4
X103.35Y225.2
X103.45Y179.8
X103.75Y32.9
X105.475Y110.425
X106.4Y227.85
X106.7Y112.45
X106.8Y182.35
X107.55Y36.5
X108.0Y239.7
X108.0Y237.1
X108.0Y232.3
X108.1Y188.15
X108.2Y194.1
X108.2Y191.75
X108.65Y227.85
X109.2Y182.25
X109.4Y185.85
X110.55Y156.65
X110.7Y235.6
X110.7Y232.7
X111.3Y225.15
X111.35Y260.65
X111.4Y191.2
X111.65Y188.95
X111.75Y179.8
X112.5Y227.1
X112.7Y148.95
X112.9Y181.85
X116.55Y201.35
X118.5Y203.85
X119.7Y129.65
X121.55Y269.85
X122.85Y128.2
X125.3Y196.5
X125.5Y134.95
X125.9Y145.85
X125.95Y129.9
X126.0Y137.2
X127.15Y136.0
X127.55Y132.25
X130.4Y200.8
X134.25Y167.7
X134.35Y158.65
X134.35Y109.9
X134.95Y32.85
X137.4Y35.7
X137.6Y112.35
X138.75Y121.0
X138.8Y123.55
X139.05Y44.0
X139.15Y140.5
X139.25Y45.85
X139.8Y112.5
X140.15Y179.95
X140.6Y35.65
X141.35Y41.45
X141.7Y45.7
X141.95Y32.85
X142.45Y109.85
X143.35Y182.65
X143.45Y111.7
X143.8Y254.85
X144.65Y258.5
X144.65Y192.05
X144.8Y194.7
X144.95Y227.85
X145.55Y187.2
X145.65Y182.7
X145.65Y144.75
X145.95Y232.05
X146.05Y235.3
X146.1Y239.9
X146.1Y138.6
X146.15Y237.65
X146.2Y155.15
X146.85Y149.65
X147.1Y227.75
X147.3Y133.3
X148.0Y252.65
X148.2Y179.95
X148.45Y191.2
X149.1Y237.95
X149.35Y181.9
X149.7Y188.3
X149.8Y232.45
X149.9Y155.3
X150.05Y150.3
X150.2Y144.75
X150.2Y139.0
X150.75Y227.15
X151.75Y235.7
X154.65Y251.35
X155.3Y257.0
X156.25Y203.4
X159.95Y199.4
X162.6Y203.7
X166.35Y201.2
X168.15Y245.85
X176.45Y108.85
X176.55Y179.35
X177.25Y33.5
X178.25Y145.15
X179.85Y182.1
X179.9Y111.8
X180.1Y148.25
X180.15Y156.05
X180.15Y151.05
X180.25Y153.7
X180.3Y36.9
X180.4Y145.2
X180.8Y187.75
X181.3Y194.0
X181.3Y191.4
X181.6Y253.35
X181.6Y184.15
X181.75Y117.6
X181.85Y123.0
X181.9Y120.45
X182.1Y37.0
X182.25Y182.0
X182.25Y111.8
X182.6Y47.9
X182.65Y154.4
X182.65Y151.4
X182.65Y45.85
X182.75Y43.5
X182.9Y149.05
X183.0Y157.8
X183.55Y187.6
X184.4Y144.2
X184.75Y155.6
X184.8Y108.85
X184.95Y179.35
X185.0Y36.05
X185.05Y33.5
X185.2Y152.0
X185.65Y163.7
X185.65Y111.05
X185.8Y191.9
X185.85Y181.3
X185.85Y166.4
X185.95Y227.25
X186.6Y158.4
X186.8Y232.2
X186.95Y240.1
X186.95Y235.6
X187.05Y237.9
X187.55Y153.25
X187.6Y188.3
X187.85Y191.05
X188.0Y166.0
X188.15Y227.2
X188.25Y151.2
X188.6Y162.85
X189.7Y239.25
X189.8Y231.95
X189.85Y155.2
X190.65Y202.6
X190.95Y165.35
X191.8Y226.8
X191.9Y153.25
X192.45Y248.35
X192.95Y151.05
X193.0Y233.95
X193.0Y161.7
X193.3Y200.2
X193.45Y237.0
X195.35Y204.65
X196.6Y199.1
X200.2Y192.05
X201.2Y194.8
X203.4Y193.4
X203.6Y184.0
X203.7Y174.7
X206.65Y172.9
X210.3Y173.7
X210.8Y142.35
X213.0Y109.0
X213.15Y175.2
X214.1Y145.4
X214.45Y177.25
X214.55Y186.25
X215.2Y147.8
X215.5Y157.05
X215.5Y152.55
X215.55Y154.95
X215.55Y150.15
X215.6Y33.4
X216.15Y145.4
X216.25Y111.5
X217.15Y156.3
X217.3Y149.2
X217.6Y118.05
X217.75Y120.35
X217.85Y154.65
X217.95Y162.1
X217.95Y122.85
X218.6Y111.55
X218.8Y36.9
X219.35Y142.35
X219.7Y151.25
X219.8Y153.45
X219.95Y157.55
X220.1Y144.5
X220.35Y166.05
X220.8Y47.45
X220.8Y36.75
X221.0Y44.95
X221.05Y156.6
X221.2Y152.3
X221.4Y109.0
X222.05Y111.3
X222.45Y36.8
X222.55Y155.1
X223.5Y33.4
T5
X5.397Y200.698
X5.397Y192.698
X7.937Y200.698
X7.937Y192.698
X62.65Y54.33
X65.19Y54.33
X74.93Y137.62
X74.93Y135.08
X87.68Y239.87
X87.68Y237.33
X91.23Y55.1
X93.77Y55.1
X97.57Y132.68
X98.397Y292.698
X100.11Y132.68
X100.937Y292.698
X111.13Y138.25
X111.13Y135.71
X111.397Y7.698
X113.937Y7.698
X118.397Y7.698
X120.937Y7.698
X125.397Y7.698
X127.937Y7.698
X132.397Y7.698
X134.33Y54.8
X134.937Y7.698
X136.87Y54.8
X143.397Y292.698
X144.397Y7.698
X145.937Y292.698
X146.937Y7.698
X147.13Y163.31
X147.13Y160.77
X156.397Y7.698
X158.937Y7.698
X163.08Y55.3
X163.397Y7.698
X165.62Y55.3
X165.937Y7.698
X175.397Y7.698
X177.937Y7.698
X204.39Y188.12
X206.93Y188.12
X215.01Y54.43
X217.55Y54.43
X232.93Y62.95
X235.47Y62.95
X271.397Y186.698
X271.397Y165.698
X271.397Y157.698
X271.397Y149.698
X271.397Y141.698
X271.397Y126.698
X271.397Y99.698
X271.397Y91.698
X271.397Y80.698
X271.397Y72.698
X273.937Y186.698
X273.937Y165.698
X273.937Y157.698
X273.937Y149.698
X273.937Y141.698
X273.937Y126.698
X273.937Y99.698
X273.937Y91.698
X273.937Y80.698
X273.937Y72.698
T6
X256.88Y130.53
X256.88Y127.99
X256.88Y125.45
X256.88Y122.91
X256.88Y120.37
X256.88Y117.83
X256.88Y115.29
X256.88Y112.75
X256.88Y110.21
X256.88Y107.67
X259.42Y130.53
X259.42Y127.99
X259.42Y125.45
X259.42Y122.91
X259.42Y120.37
X259.42Y117.83
X259.42Y115.29
X259.42Y112.75
X259.42Y110.21
X259.42Y107.67
T7
X10.45Y90.815
X10.45Y85.811
M30
