%TF.GenerationSoftware,KiCad,Pcbnew,10.0.6*%
%TF.CreationDate,2026-10-09T01:11:48+03:00*%
%TF.ProjectId,POWER_SUPPLY,504f5745-525f-4535-9550-504c592e6b69,rev?*%
%TF.SameCoordinates,Original*%
%TF.FileFunction,Soldermask,Top*%
%TF.FilePolarity,Negative*%
%FSLAX46Y46*%
G04 Gerber Fmt 4.6, Leading zero omitted, Abs format (unit mm)*
G04 Created by KiCad (PCBNEW 10.0.6) date 2026-10-09 01:11:48*
%MOMM*%
%LPD*%
G01*
G04 APERTURE LIST*
G04 Aperture macros list*
%AMRoundRect*
0 Rectangle with rounded corners*
0 $1 Rounding radius*
0 $2 $3 $4 $5 $6 $7 $8 $9 X,Y pos of 4 corners*
0 Add a 4 corners polygon primitive as box body*
4,1,4,$2,$3,$4,$5,$6,$7,$8,$9,$2,$3,0*
0 Add four circle primitives for the rounded corners*
1,1,$1+$1,$2,$3*
1,1,$1+$1,$4,$5*
1,1,$1+$1,$6,$7*
1,1,$1+$1,$8,$9*
0 Add four rect primitives between the rounded corners*
20,1,$1+$1,$2,$3,$4,$5,0*
20,1,$1+$1,$4,$5,$6,$7,0*
20,1,$1+$1,$6,$7,$8,$9,0*
20,1,$1+$1,$8,$9,$2,$3,0*%
%AMFreePoly0*
4,1,17,0.351552,0.797921,0.797921,0.351552,0.812800,0.315631,0.812800,-0.315631,0.797921,-0.351552,0.351552,-0.797921,0.315631,-0.812800,-0.315631,-0.812800,-0.351552,-0.797921,-0.797921,-0.351552,-0.812800,-0.315631,-0.812800,0.315631,-0.797921,0.351552,-0.351552,0.797921,-0.315631,0.812800,0.315631,0.812800,0.351552,0.797921,0.351552,0.797921,$1*%
G04 Aperture macros list end*
%ADD10C,0.000000*%
%ADD11RoundRect,0.050800X-0.800000X0.650000X-0.800000X-0.650000X0.800000X-0.650000X0.800000X0.650000X0*%
%ADD12RoundRect,0.050800X0.750000X-0.650000X0.750000X0.650000X-0.750000X0.650000X-0.750000X-0.650000X0*%
%ADD13RoundRect,0.050800X-0.650000X-0.800000X0.650000X-0.800000X0.650000X0.800000X-0.650000X0.800000X0*%
%ADD14O,1.601600X3.101600*%
%ADD15RoundRect,0.050800X-0.550000X-0.500000X0.550000X-0.500000X0.550000X0.500000X-0.550000X0.500000X0*%
%ADD16C,3.200000*%
%ADD17RoundRect,0.050800X-0.650000X-0.750000X0.650000X-0.750000X0.650000X0.750000X-0.650000X0.750000X0*%
%ADD18RoundRect,0.050800X0.500000X-0.300000X0.500000X0.300000X-0.500000X0.300000X-0.500000X-0.300000X0*%
%ADD19RoundRect,0.050800X-4.102100X1.651000X-4.102100X-1.651000X4.102100X-1.651000X4.102100X1.651000X0*%
%ADD20RoundRect,0.050800X0.800000X-0.650000X0.800000X0.650000X-0.800000X0.650000X-0.800000X-0.650000X0*%
%ADD21RoundRect,0.050800X-1.651000X-4.102100X1.651000X-4.102100X1.651000X4.102100X-1.651000X4.102100X0*%
%ADD22RoundRect,0.050800X-0.279400X0.990600X-0.279400X-0.990600X0.279400X-0.990600X0.279400X0.990600X0*%
%ADD23RoundRect,0.050800X-1.185000X1.215000X-1.185000X-1.215000X1.185000X-1.215000X1.185000X1.215000X0*%
%ADD24RoundRect,0.050800X0.650000X0.750000X-0.650000X0.750000X-0.650000X-0.750000X0.650000X-0.750000X0*%
%ADD25O,3.101600X1.601600*%
%ADD26RoundRect,0.050800X1.215000X1.185000X-1.215000X1.185000X-1.215000X-1.185000X1.215000X-1.185000X0*%
%ADD27RoundRect,0.050800X-0.402400X-0.124600X0.402400X-0.124600X0.402400X0.124600X-0.402400X0.124600X0*%
%ADD28RoundRect,0.050800X-0.850000X-1.220000X0.850000X-1.220000X0.850000X1.220000X-0.850000X1.220000X0*%
%ADD29RoundRect,0.050800X0.402400X0.124600X-0.402400X0.124600X-0.402400X-0.124600X0.402400X-0.124600X0*%
%ADD30RoundRect,0.050800X0.850000X1.220000X-0.850000X1.220000X-0.850000X-1.220000X0.850000X-1.220000X0*%
%ADD31FreePoly0,90.000000*%
%ADD32RoundRect,0.050800X1.185000X-1.215000X1.185000X1.215000X-1.185000X1.215000X-1.185000X-1.215000X0*%
%ADD33RoundRect,0.050800X-0.425000X0.140000X-0.425000X-0.140000X0.425000X-0.140000X0.425000X0.140000X0*%
%ADD34RoundRect,0.050800X0.140000X0.425000X-0.140000X0.425000X-0.140000X-0.425000X0.140000X-0.425000X0*%
%ADD35RoundRect,0.050800X-1.025000X-1.025000X1.025000X-1.025000X1.025000X1.025000X-1.025000X1.025000X0*%
%ADD36C,0.660400*%
%ADD37RoundRect,0.050800X-1.215000X-1.185000X1.215000X-1.185000X1.215000X1.185000X-1.215000X1.185000X0*%
%ADD38RoundRect,0.050800X-0.990600X-0.279400X0.990600X-0.279400X0.990600X0.279400X-0.990600X0.279400X0*%
%ADD39O,4.064000X2.082800*%
%ADD40RoundRect,0.050800X0.279400X-0.990600X0.279400X0.990600X-0.279400X0.990600X-0.279400X-0.990600X0*%
G04 APERTURE END LIST*
D10*
%TO.C,U34*%
G36*
X19469000Y-435401200D02*
G01*
X18948800Y-435401200D01*
X18948800Y-433198800D01*
X19469000Y-433198800D01*
X19469000Y-435401200D01*
G37*
G36*
X20256400Y-435401200D02*
G01*
X19843600Y-435401200D01*
X19843600Y-433198800D01*
X20256400Y-433198800D01*
X20256400Y-435401200D01*
G37*
G36*
X21151200Y-433719000D02*
G01*
X18948800Y-433719000D01*
X18948800Y-433198800D01*
X21151200Y-433198800D01*
X21151200Y-433719000D01*
G37*
G36*
X21151200Y-434506400D02*
G01*
X18948800Y-434506400D01*
X18948800Y-434093600D01*
X21151200Y-434093600D01*
X21151200Y-434506400D01*
G37*
G36*
X21151200Y-435401200D02*
G01*
X18948800Y-435401200D01*
X18948800Y-434881000D01*
X21151200Y-434881000D01*
X21151200Y-435401200D01*
G37*
G36*
X21151200Y-435401200D02*
G01*
X20631000Y-435401200D01*
X20631000Y-433198800D01*
X21151200Y-433198800D01*
X21151200Y-435401200D01*
G37*
%TO.C,U32*%
G36*
X19469000Y-375701200D02*
G01*
X18948800Y-375701200D01*
X18948800Y-373498800D01*
X19469000Y-373498800D01*
X19469000Y-375701200D01*
G37*
G36*
X20256400Y-375701200D02*
G01*
X19843600Y-375701200D01*
X19843600Y-373498800D01*
X20256400Y-373498800D01*
X20256400Y-375701200D01*
G37*
G36*
X21151200Y-374019000D02*
G01*
X18948800Y-374019000D01*
X18948800Y-373498800D01*
X21151200Y-373498800D01*
X21151200Y-374019000D01*
G37*
G36*
X21151200Y-374806400D02*
G01*
X18948800Y-374806400D01*
X18948800Y-374393600D01*
X21151200Y-374393600D01*
X21151200Y-374806400D01*
G37*
G36*
X21151200Y-375701200D02*
G01*
X18948800Y-375701200D01*
X18948800Y-375181000D01*
X21151200Y-375181000D01*
X21151200Y-375701200D01*
G37*
G36*
X21151200Y-375701200D02*
G01*
X20631000Y-375701200D01*
X20631000Y-373498800D01*
X21151200Y-373498800D01*
X21151200Y-375701200D01*
G37*
%TD*%
D11*
%TO.C,R22*%
X112970000Y111420000D03*
X112970000Y109520000D03*
%TD*%
D12*
%TO.C,C34*%
X182230000Y107590000D03*
X182230000Y109490000D03*
%TD*%
D13*
%TO.C,R42*%
X63250000Y-218700000D03*
X65150000Y-218700000D03*
%TD*%
%TO.C,R53*%
X950000Y-402500000D03*
X2850000Y-402500000D03*
%TD*%
D14*
%TO.C,X18*%
X206930000Y188120000D03*
X204390000Y188120000D03*
%TD*%
D12*
%TO.C,C39*%
X216330000Y107740000D03*
X216330000Y109640000D03*
%TD*%
D13*
%TO.C,R44*%
X5450000Y-224850000D03*
X7350000Y-224850000D03*
%TD*%
D15*
%TO.C,C62*%
X98370000Y122120000D03*
X100070000Y122120000D03*
%TD*%
D13*
%TO.C,R55*%
X950000Y-474900000D03*
X2850000Y-474900000D03*
%TD*%
D11*
%TO.C,R4*%
X155370000Y33860000D03*
X155370000Y31960000D03*
%TD*%
D15*
%TO.C,C11*%
X135140000Y46570000D03*
X136840000Y46570000D03*
%TD*%
D14*
%TO.C,X14*%
X1680000Y-613750000D03*
X4220000Y-613750000D03*
%TD*%
D12*
%TO.C,C21*%
X182280000Y32290000D03*
X182280000Y34190000D03*
%TD*%
D15*
%TO.C,C23*%
X177840000Y43520000D03*
X179540000Y43520000D03*
%TD*%
D16*
%TO.C,UNK_HOLE_1*%
X270000000Y10000000D03*
%TD*%
D15*
%TO.C,C91*%
X177720000Y191620000D03*
X179420000Y191620000D03*
%TD*%
%TO.C,C90*%
X177720000Y193920000D03*
X179420000Y193920000D03*
%TD*%
D17*
%TO.C,C106*%
X6550000Y-120900000D03*
X8450000Y-120900000D03*
%TD*%
D16*
%TO.C,UNK_HOLE_7*%
X10000000Y120000000D03*
%TD*%
D18*
%TO.C,U14*%
X113075000Y180750000D03*
X113075000Y179800000D03*
X113075000Y178850004D03*
X115825000Y178850004D03*
X115825000Y179800000D03*
X115825000Y180750000D03*
%TD*%
D19*
%TO.C,U$3*%
X56980000Y37940000D03*
X56980000Y33240000D03*
%TD*%
D15*
%TO.C,C82*%
X104170000Y239670000D03*
X105870000Y239670000D03*
%TD*%
D20*
%TO.C,R1*%
X119830000Y31970000D03*
X119830000Y33870000D03*
%TD*%
D15*
%TO.C,C61*%
X98370000Y124320000D03*
X100070000Y124320000D03*
%TD*%
D21*
%TO.C,U$18*%
X45950000Y-187150000D03*
X50650000Y-187150000D03*
%TD*%
D17*
%TO.C,C118*%
X44350000Y-218700000D03*
X46250000Y-218700000D03*
%TD*%
%TO.C,C50*%
X23050000Y-120900000D03*
X24950000Y-120900000D03*
%TD*%
D22*
%TO.C,U18*%
X217005000Y184153800D03*
X215735000Y184153800D03*
X214465000Y184153800D03*
X213195000Y184153800D03*
X213195000Y179226200D03*
X214465000Y179226200D03*
X215735000Y179226200D03*
X217005000Y179226200D03*
%TD*%
D15*
%TO.C,C145*%
X22300000Y-363050000D03*
X24000000Y-363050000D03*
%TD*%
D12*
%TO.C,C76*%
X117430000Y228520000D03*
X117430000Y230420000D03*
%TD*%
%TO.C,C58*%
X216330000Y141090000D03*
X216330000Y142990000D03*
%TD*%
D18*
%TO.C,U31*%
X6825000Y-363650000D03*
X6825000Y-364600000D03*
X6825000Y-365549996D03*
X9575000Y-365549996D03*
X9575000Y-364600000D03*
X9575000Y-363650000D03*
%TD*%
D17*
%TO.C,C143*%
X22950000Y-317950000D03*
X24850000Y-317950000D03*
%TD*%
D14*
%TO.C,X12*%
X232930000Y62950000D03*
X235470000Y62950000D03*
%TD*%
D15*
%TO.C,C160*%
X36150000Y-480450000D03*
X37850000Y-480450000D03*
%TD*%
%TO.C,C84*%
X141070000Y194670000D03*
X142770000Y194670000D03*
%TD*%
D13*
%TO.C,R36*%
X5450000Y-127050000D03*
X7350000Y-127050000D03*
%TD*%
D23*
%TO.C,C98*%
X92470000Y151160000D03*
X86230000Y151160000D03*
%TD*%
D17*
%TO.C,C124*%
X51550000Y-207850000D03*
X53450000Y-207850000D03*
%TD*%
D14*
%TO.C,X30*%
X1680000Y-646450000D03*
X4220000Y-646450000D03*
%TD*%
D12*
%TO.C,C60*%
X110680000Y114470000D03*
X110680000Y116370000D03*
%TD*%
D14*
%TO.C,X6*%
X1680000Y-526550000D03*
X4220000Y-526550000D03*
%TD*%
%TO.C,X8*%
X1680000Y-548350000D03*
X4220000Y-548350000D03*
%TD*%
D13*
%TO.C,R41*%
X34950000Y-207850000D03*
X36850000Y-207850000D03*
%TD*%
%TO.C,R54*%
X950000Y-408650000D03*
X2850000Y-408650000D03*
%TD*%
D15*
%TO.C,C38*%
X214040000Y120520000D03*
X215740000Y120520000D03*
%TD*%
D14*
%TO.C,X7*%
X1680000Y-537450000D03*
X4220000Y-537450000D03*
%TD*%
D18*
%TO.C,U13*%
X143655000Y110750000D03*
X143655000Y109800000D03*
X143655000Y108850004D03*
X146405000Y108850004D03*
X146405000Y109800000D03*
X146405000Y110750000D03*
%TD*%
D12*
%TO.C,C46*%
X66630000Y179540000D03*
X66630000Y181440000D03*
%TD*%
D17*
%TO.C,C133*%
X12050000Y-279600000D03*
X13950000Y-279600000D03*
%TD*%
D13*
%TO.C,R51*%
X15150000Y-352800000D03*
X17050000Y-352800000D03*
%TD*%
D15*
%TO.C,C88*%
X104170000Y237420000D03*
X105870000Y237420000D03*
%TD*%
D17*
%TO.C,C137*%
X34050000Y-279600000D03*
X35950000Y-279600000D03*
%TD*%
D12*
%TO.C,C30*%
X189880000Y112620000D03*
X189880000Y114520000D03*
%TD*%
D17*
%TO.C,C114*%
X22750000Y-218700000D03*
X24650000Y-218700000D03*
%TD*%
D15*
%TO.C,C155*%
X18200000Y-480450000D03*
X19900000Y-480450000D03*
%TD*%
%TO.C,C152*%
X550000Y-419100000D03*
X2250000Y-419100000D03*
%TD*%
%TO.C,C162*%
X6200000Y-486150000D03*
X7900000Y-486150000D03*
%TD*%
D24*
%TO.C,C27*%
X220400000Y67750000D03*
X218500000Y67750000D03*
%TD*%
D11*
%TO.C,R30*%
X157270000Y180890000D03*
X157270000Y178990000D03*
%TD*%
%TO.C,R20*%
X228020000Y144340000D03*
X228020000Y142440000D03*
%TD*%
D17*
%TO.C,C136*%
X28550000Y-279600000D03*
X30450000Y-279600000D03*
%TD*%
D21*
%TO.C,U$19*%
X14450000Y-258900000D03*
X19150000Y-258900000D03*
%TD*%
D15*
%TO.C,C35*%
X177640000Y118020000D03*
X179340000Y118020000D03*
%TD*%
D17*
%TO.C,C108*%
X17550000Y-120900000D03*
X19450000Y-120900000D03*
%TD*%
D12*
%TO.C,C18*%
X189880000Y37470000D03*
X189880000Y39370000D03*
%TD*%
D13*
%TO.C,R17*%
X950000Y-120900000D03*
X2850000Y-120900000D03*
%TD*%
D12*
%TO.C,C40*%
X218730000Y107740000D03*
X218730000Y109640000D03*
%TD*%
D13*
%TO.C,R56*%
X28650000Y-474900000D03*
X30550000Y-474900000D03*
%TD*%
D15*
%TO.C,C44*%
X62140000Y192770000D03*
X63840000Y192770000D03*
%TD*%
D13*
%TO.C,R57*%
X6550000Y-474900000D03*
X8450000Y-474900000D03*
%TD*%
D15*
%TO.C,C67*%
X216370000Y47420000D03*
X218070000Y47420000D03*
%TD*%
D25*
%TO.C,X21*%
X111130000Y138250000D03*
X111130000Y135710000D03*
%TD*%
D18*
%TO.C,U1*%
X105145000Y33850000D03*
X105145000Y32900000D03*
X105145000Y31950004D03*
X107895000Y31950004D03*
X107895000Y32900000D03*
X107895000Y33850000D03*
%TD*%
D16*
%TO.C,UNK_HOLE_5*%
X140000000Y10000000D03*
%TD*%
D12*
%TO.C,C10*%
X139480000Y31490000D03*
X139480000Y33390000D03*
%TD*%
%TO.C,C4*%
X99080000Y31540000D03*
X99080000Y33440000D03*
%TD*%
D26*
%TO.C,C105*%
X76030000Y233360000D03*
X76030000Y239600000D03*
%TD*%
D13*
%TO.C,R37*%
X29350000Y-207850000D03*
X31250000Y-207850000D03*
%TD*%
D12*
%TO.C,C22*%
X180180000Y32290000D03*
X180180000Y34190000D03*
%TD*%
%TO.C,C33*%
X179880000Y107590000D03*
X179880000Y109490000D03*
%TD*%
D15*
%TO.C,C37*%
X214040000Y122720000D03*
X215740000Y122720000D03*
%TD*%
D12*
%TO.C,C36*%
X227330000Y112470000D03*
X227330000Y114370000D03*
%TD*%
D20*
%TO.C,R31*%
X197130000Y178640000D03*
X197130000Y180540000D03*
%TD*%
D19*
%TO.C,U$15*%
X134500000Y184990000D03*
X134500000Y180290000D03*
%TD*%
D18*
%TO.C,U17*%
X112605000Y226100000D03*
X112605000Y225150000D03*
X112605000Y224200004D03*
X115355000Y224200004D03*
X115355000Y225150000D03*
X115355000Y226100000D03*
%TD*%
D19*
%TO.C,U$1*%
X91430000Y37690000D03*
X91430000Y32990000D03*
%TD*%
D17*
%TO.C,C158*%
X17650000Y-474900000D03*
X19550000Y-474900000D03*
%TD*%
D11*
%TO.C,R32*%
X193970000Y180520000D03*
X193970000Y178620000D03*
%TD*%
D17*
%TO.C,C148*%
X26250000Y-352800000D03*
X28150000Y-352800000D03*
%TD*%
D16*
%TO.C,UNK_HOLE_2*%
X270000000Y230000000D03*
%TD*%
D27*
%TO.C,U23*%
X18647600Y-77000000D03*
X18647600Y-77500000D03*
X18647600Y-78000000D03*
X18647600Y-78500000D03*
X21452400Y-78500000D03*
X21452400Y-78000000D03*
X21452400Y-77500000D03*
X21452400Y-77000000D03*
D28*
X20050000Y-77750000D03*
%TD*%
D17*
%TO.C,C135*%
X23050000Y-279600000D03*
X24950000Y-279600000D03*
%TD*%
%TO.C,C127*%
X950000Y-218700000D03*
X2850000Y-218700000D03*
%TD*%
D15*
%TO.C,C2*%
X96340000Y42970000D03*
X98040000Y42970000D03*
%TD*%
D17*
%TO.C,C116*%
X33550000Y-218700000D03*
X35450000Y-218700000D03*
%TD*%
D15*
%TO.C,C56*%
X212020000Y154920000D03*
X213720000Y154920000D03*
%TD*%
D13*
%TO.C,R35*%
X950000Y-127050000D03*
X2850000Y-127050000D03*
%TD*%
%TO.C,R46*%
X950000Y-285750000D03*
X2850000Y-285750000D03*
%TD*%
D19*
%TO.C,U$6*%
X171140000Y113840000D03*
X171140000Y109140000D03*
%TD*%
%TO.C,U$7*%
X207590000Y114040000D03*
X207590000Y109340000D03*
%TD*%
D29*
%TO.C,U5*%
X222752400Y63500000D03*
X222752400Y64000000D03*
X222752400Y64500000D03*
X222752400Y65000000D03*
X219947600Y65000000D03*
X219947600Y64500000D03*
X219947600Y64000000D03*
X219947600Y63500000D03*
D30*
X221350000Y64250000D03*
%TD*%
D13*
%TO.C,R52*%
X950000Y-363650000D03*
X2850000Y-363650000D03*
%TD*%
%TO.C,R9*%
X217900000Y71200000D03*
X219800000Y71200000D03*
%TD*%
D15*
%TO.C,C146*%
X28050000Y-363050000D03*
X29750000Y-363050000D03*
%TD*%
D17*
%TO.C,C112*%
X11950000Y-218700000D03*
X13850000Y-218700000D03*
%TD*%
D14*
%TO.C,X5*%
X134330000Y54800000D03*
X136870000Y54800000D03*
%TD*%
D26*
%TO.C,C101*%
X119580000Y133320000D03*
X119580000Y139560000D03*
%TD*%
D19*
%TO.C,U$14*%
X98150000Y184890000D03*
X98150000Y180190000D03*
%TD*%
D17*
%TO.C,C142*%
X17450000Y-317950000D03*
X19350000Y-317950000D03*
%TD*%
D12*
%TO.C,C45*%
X64480000Y179540000D03*
X64480000Y181440000D03*
%TD*%
D31*
%TO.C,SV1*%
X259420000Y107670000D03*
X256880000Y107670000D03*
X259420000Y110210000D03*
X256880000Y110210000D03*
X259420000Y112750000D03*
X256880000Y112750000D03*
X259420000Y115290000D03*
X256880000Y115290000D03*
X259420000Y117830000D03*
X256880000Y117830000D03*
X259420000Y120370000D03*
X256880000Y120370000D03*
X259420000Y122910000D03*
X256880000Y122910000D03*
X259420000Y125450000D03*
X256880000Y125450000D03*
X259420000Y127990000D03*
X256880000Y127990000D03*
X259420000Y130530000D03*
X256880000Y130530000D03*
%TD*%
D26*
%TO.C,C99*%
X83280000Y132200000D03*
X83280000Y138440000D03*
%TD*%
D13*
%TO.C,R49*%
X28450000Y-317950000D03*
X30350000Y-317950000D03*
%TD*%
D15*
%TO.C,C163*%
X11850000Y-486150000D03*
X13550000Y-486150000D03*
%TD*%
D17*
%TO.C,C128*%
X6450000Y-218700000D03*
X8350000Y-218700000D03*
%TD*%
D15*
%TO.C,C151*%
X550000Y-414200000D03*
X2250000Y-414200000D03*
%TD*%
D14*
%TO.C,X26*%
X1680000Y-354950000D03*
X4220000Y-354950000D03*
%TD*%
D13*
%TO.C,R47*%
X5450000Y-285750000D03*
X7350000Y-285750000D03*
%TD*%
D15*
%TO.C,C159*%
X30500000Y-480450000D03*
X32200000Y-480450000D03*
%TD*%
D12*
%TO.C,C42*%
X75430000Y184270000D03*
X75430000Y186170000D03*
%TD*%
D20*
%TO.C,R25*%
X154630000Y108840000D03*
X154630000Y110740000D03*
%TD*%
D25*
%TO.C,X20*%
X147130000Y163310000D03*
X147130000Y160770000D03*
%TD*%
D15*
%TO.C,C7*%
X135140000Y42170000D03*
X136840000Y42170000D03*
%TD*%
%TO.C,C111*%
X60650000Y-224250000D03*
X62350000Y-224250000D03*
%TD*%
D12*
%TO.C,C9*%
X137180000Y31490000D03*
X137180000Y33390000D03*
%TD*%
D15*
%TO.C,C32*%
X177640000Y120470000D03*
X179340000Y120470000D03*
%TD*%
D12*
%TO.C,C16*%
X67730000Y31290000D03*
X67730000Y33190000D03*
%TD*%
D18*
%TO.C,U8*%
X70655000Y181700000D03*
X70655000Y180750000D03*
X70655000Y179800004D03*
X73405000Y179800004D03*
X73405000Y180750000D03*
X73405000Y181700000D03*
%TD*%
D19*
%TO.C,U$17*%
X97710000Y230190000D03*
X97710000Y225490000D03*
%TD*%
D20*
%TO.C,R27*%
X124980000Y179490000D03*
X124980000Y181390000D03*
%TD*%
D19*
%TO.C,U$8*%
X55740000Y185890000D03*
X55740000Y181190000D03*
%TD*%
D14*
%TO.C,X34*%
X1680000Y-690050000D03*
X4220000Y-690050000D03*
%TD*%
D12*
%TO.C,C77*%
X118030000Y183870000D03*
X118030000Y185770000D03*
%TD*%
%TO.C,C93*%
X182280000Y178090000D03*
X182280000Y179990000D03*
%TD*%
D11*
%TO.C,R2*%
X116020000Y33830000D03*
X116020000Y31930000D03*
%TD*%
D18*
%TO.C,U16*%
X186165000Y180300000D03*
X186165000Y179350000D03*
X186165000Y178400004D03*
X188915000Y178400004D03*
X188915000Y179350000D03*
X188915000Y180300000D03*
%TD*%
%TO.C,U26*%
X28475000Y-224850000D03*
X28475000Y-225800000D03*
X28475000Y-226749996D03*
X31225000Y-226749996D03*
X31225000Y-225800000D03*
X31225000Y-224850000D03*
%TD*%
D17*
%TO.C,C132*%
X6550000Y-279600000D03*
X8450000Y-279600000D03*
%TD*%
D14*
%TO.C,X9*%
X1680000Y-210000000D03*
X4220000Y-210000000D03*
%TD*%
%TO.C,X2*%
X33230000Y-100550000D03*
X35770000Y-100550000D03*
%TD*%
D23*
%TO.C,C100*%
X127640000Y150630000D03*
X121400000Y150630000D03*
%TD*%
%TO.C,C96*%
X217890000Y191810000D03*
X211650000Y191810000D03*
%TD*%
D15*
%TO.C,C43*%
X62140000Y195120000D03*
X63840000Y195120000D03*
%TD*%
D19*
%TO.C,U$2*%
X129630000Y37540000D03*
X129630000Y32840000D03*
%TD*%
D17*
%TO.C,C123*%
X46050000Y-207850000D03*
X47950000Y-207850000D03*
%TD*%
D15*
%TO.C,C150*%
X550000Y-396950000D03*
X2250000Y-396950000D03*
%TD*%
%TO.C,C14*%
X63240000Y44270000D03*
X64940000Y44270000D03*
%TD*%
D12*
%TO.C,C80*%
X106830000Y178540000D03*
X106830000Y180440000D03*
%TD*%
D17*
%TO.C,C154*%
X40850000Y-452400000D03*
X42750000Y-452400000D03*
%TD*%
D15*
%TO.C,C79*%
X104570000Y191770000D03*
X106270000Y191770000D03*
%TD*%
D17*
%TO.C,C122*%
X40550000Y-207850000D03*
X42450000Y-207850000D03*
%TD*%
D15*
%TO.C,C31*%
X177640000Y122870000D03*
X179340000Y122870000D03*
%TD*%
D14*
%TO.C,X17*%
X10030000Y-210000000D03*
X12570000Y-210000000D03*
%TD*%
D15*
%TO.C,C120*%
X43850000Y-224250000D03*
X45550000Y-224250000D03*
%TD*%
D27*
%TO.C,U27*%
X18647600Y-163950000D03*
X18647600Y-164450000D03*
X18647600Y-164950000D03*
X18647600Y-165450000D03*
X21452400Y-165450000D03*
X21452400Y-164950000D03*
X21452400Y-164450000D03*
X21452400Y-163950000D03*
D28*
X20050000Y-164700000D03*
%TD*%
D18*
%TO.C,U12*%
X224735000Y34350000D03*
X224735000Y33400000D03*
X224735000Y32450004D03*
X227485000Y32450004D03*
X227485000Y33400000D03*
X227485000Y34350000D03*
%TD*%
%TO.C,U2*%
X143515000Y33800000D03*
X143515000Y32850000D03*
X143515000Y31900004D03*
X146265000Y31900004D03*
X146265000Y32850000D03*
X146265000Y33800000D03*
%TD*%
D12*
%TO.C,C86*%
X143280000Y178640000D03*
X143280000Y180540000D03*
%TD*%
D17*
%TO.C,C51*%
X28400000Y-120900000D03*
X30300000Y-120900000D03*
%TD*%
D12*
%TO.C,C87*%
X145680000Y178640000D03*
X145680000Y180540000D03*
%TD*%
D15*
%TO.C,C68*%
X216370000Y45220000D03*
X218070000Y45220000D03*
%TD*%
%TO.C,C19*%
X177840000Y47920000D03*
X179540000Y47920000D03*
%TD*%
D14*
%TO.C,X4*%
X91230000Y55100000D03*
X93770000Y55100000D03*
%TD*%
D15*
%TO.C,C72*%
X135220000Y123320000D03*
X136920000Y123320000D03*
%TD*%
D13*
%TO.C,R38*%
X49750000Y-218700000D03*
X51650000Y-218700000D03*
%TD*%
D17*
%TO.C,C109*%
X17650000Y-207850000D03*
X19550000Y-207850000D03*
%TD*%
D15*
%TO.C,C3*%
X96390000Y45370000D03*
X98090000Y45370000D03*
%TD*%
%TO.C,C161*%
X550000Y-486150000D03*
X2250000Y-486150000D03*
%TD*%
D17*
%TO.C,C119*%
X23500000Y-207850000D03*
X25400000Y-207850000D03*
%TD*%
D12*
%TO.C,C57*%
X214080000Y141090000D03*
X214080000Y142990000D03*
%TD*%
D32*
%TO.C,C102*%
X135230000Y150270000D03*
X141470000Y150270000D03*
%TD*%
D15*
%TO.C,C85*%
X141070000Y192370000D03*
X142770000Y192370000D03*
%TD*%
D12*
%TO.C,C83*%
X153780000Y183220000D03*
X153780000Y185120000D03*
%TD*%
D25*
%TO.C,X19*%
X87680000Y239870000D03*
X87680000Y237330000D03*
%TD*%
D14*
%TO.C,X3*%
X1680000Y-591950000D03*
X4220000Y-591950000D03*
%TD*%
D17*
%TO.C,C134*%
X17550000Y-279600000D03*
X19450000Y-279600000D03*
%TD*%
D18*
%TO.C,U7*%
X222465000Y110000000D03*
X222465000Y109050000D03*
X222465000Y108100004D03*
X225215000Y108100004D03*
X225215000Y109050000D03*
X225215000Y110000000D03*
%TD*%
D13*
%TO.C,R50*%
X950000Y-324100000D03*
X2850000Y-324100000D03*
%TD*%
D12*
%TO.C,C54*%
X224980000Y145870000D03*
X224980000Y147770000D03*
%TD*%
%TO.C,C12*%
X75530000Y34270000D03*
X75530000Y36170000D03*
%TD*%
D21*
%TO.C,U$5*%
X14450000Y-100200000D03*
X19150000Y-100200000D03*
%TD*%
D18*
%TO.C,U11*%
X106815000Y111400000D03*
X106815000Y110450000D03*
X106815000Y109500004D03*
X109565000Y109500004D03*
X109565000Y110450000D03*
X109565000Y111400000D03*
%TD*%
D17*
%TO.C,C144*%
X9300000Y-352800000D03*
X11200000Y-352800000D03*
%TD*%
D15*
%TO.C,C49*%
X32200000Y-126450000D03*
X33900000Y-126450000D03*
%TD*%
%TO.C,C110*%
X55150000Y-224250000D03*
X56850000Y-224250000D03*
%TD*%
D12*
%TO.C,C70*%
X221130000Y32190000D03*
X221130000Y34090000D03*
%TD*%
%TO.C,C15*%
X65530000Y31340000D03*
X65530000Y33240000D03*
%TD*%
D11*
%TO.C,R12*%
X193020000Y109820000D03*
X193020000Y107920000D03*
%TD*%
D12*
%TO.C,C63*%
X100830000Y109140000D03*
X100830000Y111040000D03*
%TD*%
D18*
%TO.C,U15*%
X149495000Y180850000D03*
X149495000Y179900000D03*
X149495000Y178950004D03*
X152245000Y178950004D03*
X152245000Y179900000D03*
X152245000Y180850000D03*
%TD*%
D24*
%TO.C,C28*%
X218850000Y61100000D03*
X216950000Y61100000D03*
%TD*%
D15*
%TO.C,C73*%
X135220000Y121070000D03*
X136920000Y121070000D03*
%TD*%
D14*
%TO.C,X13*%
X1680000Y-602850000D03*
X4220000Y-602850000D03*
%TD*%
D27*
%TO.C,U25*%
X18647600Y-137900000D03*
X18647600Y-138400000D03*
X18647600Y-138900000D03*
X18647600Y-139400000D03*
X21452400Y-139400000D03*
X21452400Y-138900000D03*
X21452400Y-138400000D03*
X21452400Y-137900000D03*
D28*
X20050000Y-138650000D03*
%TD*%
D13*
%TO.C,R10*%
X213500000Y71200000D03*
X215400000Y71200000D03*
%TD*%
D17*
%TO.C,C107*%
X12050000Y-120900000D03*
X13950000Y-120900000D03*
%TD*%
D12*
%TO.C,C64*%
X103180000Y109140000D03*
X103180000Y111040000D03*
%TD*%
D18*
%TO.C,U4*%
X186155000Y34450000D03*
X186155000Y33500000D03*
X186155000Y32550004D03*
X188905000Y32550004D03*
X188905000Y33500000D03*
X188905000Y34450000D03*
%TD*%
D33*
%TO.C,U34*%
X18325000Y-433300000D03*
X18325000Y-433800000D03*
X18325000Y-434300000D03*
X18325000Y-434800000D03*
X18325000Y-435300000D03*
D34*
X19049747Y-436025000D03*
X19549875Y-436025000D03*
X20050000Y-436025000D03*
X20550125Y-436025000D03*
X21050253Y-436025000D03*
D33*
X21775000Y-435300000D03*
X21775000Y-434800000D03*
X21775000Y-434300000D03*
X21775000Y-433800000D03*
X21775000Y-433300000D03*
D34*
X21050253Y-432575000D03*
X20550125Y-432575000D03*
X20050000Y-432575000D03*
X19549875Y-432575000D03*
X19049747Y-432575000D03*
D35*
X20050000Y-434300000D03*
D36*
X19643600Y-434706400D03*
X19643600Y-433893600D03*
X20456400Y-434706400D03*
X20456400Y-433893600D03*
%TD*%
D19*
%TO.C,U$13*%
X128700000Y114890000D03*
X128700000Y110190000D03*
%TD*%
D11*
%TO.C,R28*%
X121120000Y181460000D03*
X121120000Y179560000D03*
%TD*%
D21*
%TO.C,U$20*%
X14450000Y-332100000D03*
X19150000Y-332100000D03*
%TD*%
D15*
%TO.C,C156*%
X24350000Y-480450000D03*
X26050000Y-480450000D03*
%TD*%
D12*
%TO.C,C95*%
X108680000Y223890000D03*
X108680000Y225790000D03*
%TD*%
D15*
%TO.C,C59*%
X212020000Y152620000D03*
X213720000Y152620000D03*
%TD*%
D16*
%TO.C,UNK_HOLE_0*%
X10000000Y10000000D03*
%TD*%
D14*
%TO.C,X35*%
X1680000Y-700950000D03*
X4220000Y-700950000D03*
%TD*%
D20*
%TO.C,R29*%
X161380000Y179040000D03*
X161380000Y180940000D03*
%TD*%
D19*
%TO.C,U$10*%
X205490000Y147490000D03*
X205490000Y142790000D03*
%TD*%
D14*
%TO.C,X31*%
X1680000Y-657350000D03*
X4220000Y-657350000D03*
%TD*%
D33*
%TO.C,U32*%
X18325000Y-373600000D03*
X18325000Y-374100000D03*
X18325000Y-374600000D03*
X18325000Y-375100000D03*
X18325000Y-375600000D03*
D34*
X19049747Y-376325000D03*
X19549875Y-376325000D03*
X20050000Y-376325000D03*
X20550125Y-376325000D03*
X21050253Y-376325000D03*
D33*
X21775000Y-375600000D03*
X21775000Y-375100000D03*
X21775000Y-374600000D03*
X21775000Y-374100000D03*
X21775000Y-373600000D03*
D34*
X21050253Y-372875000D03*
X20550125Y-372875000D03*
X20050000Y-372875000D03*
X19549875Y-372875000D03*
X19049747Y-372875000D03*
D35*
X20050000Y-374600000D03*
D36*
X19643600Y-375006400D03*
X19643600Y-374193600D03*
X20456400Y-375006400D03*
X20456400Y-374193600D03*
%TD*%
D12*
%TO.C,C74*%
X137630000Y108640000D03*
X137630000Y110540000D03*
%TD*%
D17*
%TO.C,C125*%
X57050000Y-207850000D03*
X58950000Y-207850000D03*
%TD*%
D14*
%TO.C,X32*%
X1680000Y-668250000D03*
X4220000Y-668250000D03*
%TD*%
D15*
%TO.C,C65*%
X98370000Y119870000D03*
X100070000Y119870000D03*
%TD*%
D17*
%TO.C,C115*%
X28150000Y-218700000D03*
X30050000Y-218700000D03*
%TD*%
D14*
%TO.C,X15*%
X1680000Y-624650000D03*
X4220000Y-624650000D03*
%TD*%
D12*
%TO.C,C5*%
X101280000Y31590000D03*
X101280000Y33490000D03*
%TD*%
D15*
%TO.C,C47*%
X62170000Y190370000D03*
X63870000Y190370000D03*
%TD*%
D12*
%TO.C,C94*%
X106380000Y223890000D03*
X106380000Y225790000D03*
%TD*%
D14*
%TO.C,X10*%
X1680000Y-559250000D03*
X4220000Y-559250000D03*
%TD*%
D12*
%TO.C,C1*%
X110380000Y34640000D03*
X110380000Y36540000D03*
%TD*%
D20*
%TO.C,R23*%
X234030000Y32390000D03*
X234030000Y34290000D03*
%TD*%
D22*
%TO.C,U19*%
X91905000Y143433800D03*
X90635000Y143433800D03*
X89365000Y143433800D03*
X88095000Y143433800D03*
X88095000Y138506200D03*
X89365000Y138506200D03*
X90635000Y138506200D03*
X91905000Y138506200D03*
%TD*%
D17*
%TO.C,C117*%
X38950000Y-218700000D03*
X40850000Y-218700000D03*
%TD*%
%TO.C,C126*%
X62550000Y-207850000D03*
X64450000Y-207850000D03*
%TD*%
D15*
%TO.C,C13*%
X63240000Y46520000D03*
X64940000Y46520000D03*
%TD*%
D22*
%TO.C,U20*%
X128455000Y144113800D03*
X127185000Y144113800D03*
X125915000Y144113800D03*
X124645000Y144113800D03*
X124645000Y139186200D03*
X125915000Y139186200D03*
X127185000Y139186200D03*
X128455000Y139186200D03*
%TD*%
D37*
%TO.C,C104*%
X55920000Y243050000D03*
X55920000Y236810000D03*
%TD*%
D13*
%TO.C,R40*%
X58750000Y-218700000D03*
X60650000Y-218700000D03*
%TD*%
D20*
%TO.C,R21*%
X116080000Y109490000D03*
X116080000Y111390000D03*
%TD*%
D12*
%TO.C,C89*%
X190730000Y182770000D03*
X190730000Y184670000D03*
%TD*%
D14*
%TO.C,X22*%
X215010000Y54430000D03*
X217550000Y54430000D03*
%TD*%
D15*
%TO.C,C121*%
X49500000Y-224250000D03*
X51200000Y-224250000D03*
%TD*%
D11*
%TO.C,R26*%
X150570000Y110780000D03*
X150570000Y108880000D03*
%TD*%
D26*
%TO.C,C103*%
X141130000Y159040000D03*
X141130000Y165280000D03*
%TD*%
D15*
%TO.C,C48*%
X26700000Y-126450000D03*
X28400000Y-126450000D03*
%TD*%
D17*
%TO.C,C140*%
X6450000Y-317950000D03*
X8350000Y-317950000D03*
%TD*%
D16*
%TO.C,UNK_HOLE_6*%
X270000000Y120000000D03*
%TD*%
D17*
%TO.C,C26*%
X224750000Y67700000D03*
X226650000Y67700000D03*
%TD*%
D38*
%TO.C,U22*%
X64436200Y243615000D03*
X64436200Y242345000D03*
X64436200Y241075000D03*
X64436200Y239805000D03*
X69363800Y239805000D03*
X69363800Y241075000D03*
X69363800Y242345000D03*
X69363800Y243615000D03*
%TD*%
D15*
%TO.C,C41*%
X214040000Y118220000D03*
X215740000Y118220000D03*
%TD*%
D20*
%TO.C,R19*%
X231730000Y142440000D03*
X231730000Y144340000D03*
%TD*%
D19*
%TO.C,U$16*%
X171210000Y184590000D03*
X171210000Y179890000D03*
%TD*%
D14*
%TO.C,X29*%
X1680000Y-635550000D03*
X4220000Y-635550000D03*
%TD*%
D17*
%TO.C,C52*%
X33750000Y-120900000D03*
X35650000Y-120900000D03*
%TD*%
%TO.C,C29*%
X40850000Y-98350000D03*
X42750000Y-98350000D03*
%TD*%
D13*
%TO.C,R58*%
X23150000Y-474900000D03*
X25050000Y-474900000D03*
%TD*%
D18*
%TO.C,U24*%
X11325000Y-224850000D03*
X11325000Y-225800000D03*
X11325000Y-226749996D03*
X14075000Y-226749996D03*
X14075000Y-225800000D03*
X14075000Y-224850000D03*
%TD*%
D17*
%TO.C,C113*%
X17350000Y-218700000D03*
X19250000Y-218700000D03*
%TD*%
D27*
%TO.C,U30*%
X18647600Y-296600000D03*
X18647600Y-297100000D03*
X18647600Y-297600000D03*
X18647600Y-298100000D03*
X21452400Y-298100000D03*
X21452400Y-297600000D03*
X21452400Y-297100000D03*
X21452400Y-296600000D03*
D28*
X20050000Y-297350000D03*
%TD*%
D14*
%TO.C,X28*%
X33230000Y-454550000D03*
X35770000Y-454550000D03*
%TD*%
D39*
%TO.C,X1*%
X10450000Y90814600D03*
X10450000Y85810800D03*
%TD*%
D12*
%TO.C,C75*%
X139930000Y108640000D03*
X139930000Y110540000D03*
%TD*%
%TO.C,C81*%
X109130000Y178540000D03*
X109130000Y180440000D03*
%TD*%
D15*
%TO.C,C131*%
X36850000Y-285150000D03*
X38550000Y-285150000D03*
%TD*%
D18*
%TO.C,U10*%
X220495000Y143300000D03*
X220495000Y142350000D03*
X220495000Y141400004D03*
X223245000Y141400004D03*
X223245000Y142350000D03*
X223245000Y143300000D03*
%TD*%
D13*
%TO.C,R48*%
X9950000Y-285750000D03*
X11850000Y-285750000D03*
%TD*%
D14*
%TO.C,X16*%
X62650000Y54330000D03*
X65190000Y54330000D03*
%TD*%
D17*
%TO.C,C139*%
X950000Y-317950000D03*
X2850000Y-317950000D03*
%TD*%
D12*
%TO.C,C25*%
X226850000Y61200000D03*
X226850000Y63100000D03*
%TD*%
D17*
%TO.C,C138*%
X39550000Y-279600000D03*
X41450000Y-279600000D03*
%TD*%
D27*
%TO.C,U29*%
X18647600Y-235700000D03*
X18647600Y-236200000D03*
X18647600Y-236700000D03*
X18647600Y-237200000D03*
X21452400Y-237200000D03*
X21452400Y-236700000D03*
X21452400Y-236200000D03*
X21452400Y-235700000D03*
D28*
X20050000Y-236450000D03*
%TD*%
D17*
%TO.C,C24*%
X221350000Y61100000D03*
X223250000Y61100000D03*
%TD*%
D14*
%TO.C,X25*%
X33230000Y-259250000D03*
X35770000Y-259250000D03*
%TD*%
D18*
%TO.C,U28*%
X15825000Y-285750000D03*
X15825000Y-286700000D03*
X15825000Y-287649996D03*
X18575000Y-287649996D03*
X18575000Y-286700000D03*
X18575000Y-285750000D03*
%TD*%
D15*
%TO.C,C20*%
X177840000Y45720000D03*
X179540000Y45720000D03*
%TD*%
D16*
%TO.C,UNK_HOLE_4*%
X138450000Y267850000D03*
%TD*%
%TO.C,UNK_HOLE_3*%
X10000000Y230000000D03*
%TD*%
D19*
%TO.C,U$12*%
X209950000Y38540000D03*
X209950000Y33840000D03*
%TD*%
%TO.C,U$11*%
X91950000Y115490000D03*
X91950000Y110790000D03*
%TD*%
D12*
%TO.C,C69*%
X218730000Y32190000D03*
X218730000Y34090000D03*
%TD*%
D15*
%TO.C,C8*%
X135140000Y44420000D03*
X136840000Y44420000D03*
%TD*%
D11*
%TO.C,R6*%
X78470000Y33790000D03*
X78470000Y31890000D03*
%TD*%
D32*
%TO.C,C97*%
X203720000Y179340000D03*
X209960000Y179340000D03*
%TD*%
D13*
%TO.C,R18*%
X44450000Y-120900000D03*
X46350000Y-120900000D03*
%TD*%
D12*
%TO.C,C92*%
X179930000Y178090000D03*
X179930000Y179990000D03*
%TD*%
D15*
%TO.C,C78*%
X104570000Y194120000D03*
X106270000Y194120000D03*
%TD*%
D12*
%TO.C,C71*%
X147330000Y113470000D03*
X147330000Y115370000D03*
%TD*%
D11*
%TO.C,R16*%
X78270000Y182180000D03*
X78270000Y180280000D03*
%TD*%
D17*
%TO.C,C53*%
X39100000Y-120900000D03*
X41000000Y-120900000D03*
%TD*%
D18*
%TO.C,U9*%
X11325000Y-127050000D03*
X11325000Y-128000000D03*
X11325000Y-128949996D03*
X14075000Y-128949996D03*
X14075000Y-128000000D03*
X14075000Y-127050000D03*
%TD*%
D40*
%TO.C,U21*%
X131835000Y160816200D03*
X133105000Y160816200D03*
X134375000Y160816200D03*
X135645000Y160816200D03*
X135645000Y165743800D03*
X134375000Y165743800D03*
X133105000Y165743800D03*
X131835000Y165743800D03*
%TD*%
D15*
%TO.C,C149*%
X550000Y-392050000D03*
X2250000Y-392050000D03*
%TD*%
D18*
%TO.C,U33*%
X2325000Y-481050000D03*
X2325000Y-482000000D03*
X2325000Y-482949996D03*
X5075000Y-482949996D03*
X5075000Y-482000000D03*
X5075000Y-481050000D03*
%TD*%
D20*
%TO.C,R11*%
X196280000Y107870000D03*
X196280000Y109770000D03*
%TD*%
D14*
%TO.C,X11*%
X1680000Y-570150000D03*
X4220000Y-570150000D03*
%TD*%
%TO.C,X33*%
X1680000Y-679150000D03*
X4220000Y-679150000D03*
%TD*%
D17*
%TO.C,C157*%
X12150000Y-474900000D03*
X14050000Y-474900000D03*
%TD*%
D20*
%TO.C,R15*%
X81530000Y180220000D03*
X81530000Y182120000D03*
%TD*%
%TO.C,R7*%
X195180000Y32970000D03*
X195180000Y34870000D03*
%TD*%
D15*
%TO.C,C55*%
X212020000Y157170000D03*
X213720000Y157170000D03*
%TD*%
D17*
%TO.C,C147*%
X20750000Y-352800000D03*
X22650000Y-352800000D03*
%TD*%
D18*
%TO.C,U3*%
X70635000Y33800000D03*
X70635000Y32850000D03*
X70635000Y31900004D03*
X73385000Y31900004D03*
X73385000Y32850000D03*
X73385000Y33800000D03*
%TD*%
D12*
%TO.C,C66*%
X228880000Y37370000D03*
X228880000Y39270000D03*
%TD*%
D20*
%TO.C,R5*%
X81230000Y31920000D03*
X81230000Y33820000D03*
%TD*%
D13*
%TO.C,R45*%
X950000Y-279600000D03*
X2850000Y-279600000D03*
%TD*%
D11*
%TO.C,R24*%
X231020000Y34350000D03*
X231020000Y32450000D03*
%TD*%
D21*
%TO.C,U$21*%
X14450000Y-454200000D03*
X19150000Y-454200000D03*
%TD*%
D25*
%TO.C,X24*%
X74930000Y137620000D03*
X74930000Y135080000D03*
%TD*%
D20*
%TO.C,R33*%
X124980000Y224340000D03*
X124980000Y226240000D03*
%TD*%
D17*
%TO.C,C129*%
X40850000Y-257050000D03*
X42750000Y-257050000D03*
%TD*%
D11*
%TO.C,R14*%
X230670000Y110000000D03*
X230670000Y108100000D03*
%TD*%
D20*
%TO.C,R13*%
X234530000Y108070000D03*
X234530000Y109970000D03*
%TD*%
D21*
%TO.C,U$9*%
X14450000Y-187150000D03*
X19150000Y-187150000D03*
%TD*%
D11*
%TO.C,R8*%
X192620000Y34920000D03*
X192620000Y33020000D03*
%TD*%
D17*
%TO.C,C141*%
X11950000Y-317950000D03*
X13850000Y-317950000D03*
%TD*%
D19*
%TO.C,U$4*%
X171780000Y38690000D03*
X171780000Y33990000D03*
%TD*%
D11*
%TO.C,R34*%
X121620000Y226150000D03*
X121620000Y224250000D03*
%TD*%
D15*
%TO.C,C153*%
X550000Y-424000000D03*
X2250000Y-424000000D03*
%TD*%
D13*
%TO.C,R43*%
X950000Y-224850000D03*
X2850000Y-224850000D03*
%TD*%
D20*
%TO.C,R3*%
X159180000Y31970000D03*
X159180000Y33870000D03*
%TD*%
D12*
%TO.C,C6*%
X149780000Y34320000D03*
X149780000Y36220000D03*
%TD*%
D14*
%TO.C,X27*%
X163080000Y55300000D03*
X165620000Y55300000D03*
%TD*%
D15*
%TO.C,C17*%
X63240000Y42020000D03*
X64940000Y42020000D03*
%TD*%
D18*
%TO.C,U6*%
X185995000Y109800000D03*
X185995000Y108850000D03*
X185995000Y107900004D03*
X188745000Y107900004D03*
X188745000Y108850000D03*
X188745000Y109800000D03*
%TD*%
D13*
%TO.C,R39*%
X54250000Y-218700000D03*
X56150000Y-218700000D03*
%TD*%
D14*
%TO.C,X23*%
X97570000Y132680000D03*
X100110000Y132680000D03*
%TD*%
D15*
%TO.C,C130*%
X31200000Y-285150000D03*
X32900000Y-285150000D03*
%TD*%
M02*
