%TF.GenerationSoftware,KiCad,Pcbnew,10.0.6*%
%TF.CreationDate,2026-10-09T01:11:48+03:00*%
%TF.ProjectId,POWER_SUPPLY,504f5745-525f-4535-9550-504c592e6b69,rev?*%
%TF.SameCoordinates,Original*%
%TF.FileFunction,Copper,L2,Bot*%
%TF.FilePolarity,Positive*%
%FSLAX46Y46*%
G04 Gerber Fmt 4.6, Leading zero omitted, Abs format (unit mm)*
G04 Created by KiCad (PCBNEW 10.0.6) date 2026-10-09 01:11:48*
%MOMM*%
%LPD*%
G01*
G04 APERTURE LIST*
G04 Aperture macros list*
%AMOutline5P*
0 Free polygon, 5 corners , with rotation*
0 The origin of the aperture is its center*
0 number of corners: always 5*
0 $1 to $10 corner X, Y*
0 $11 Rotation angle, in degrees counterclockwise*
0 create outline with 5 corners*
4,1,5,$1,$2,$3,$4,$5,$6,$7,$8,$9,$10,$1,$2,$11*%
%AMOutline6P*
0 Free polygon, 6 corners , with rotation*
0 The origin of the aperture is its center*
0 number of corners: always 6*
0 $1 to $12 corner X, Y*
0 $13 Rotation angle, in degrees counterclockwise*
0 create outline with 6 corners*
4,1,6,$1,$2,$3,$4,$5,$6,$7,$8,$9,$10,$11,$12,$1,$2,$13*%
%AMOutline7P*
0 Free polygon, 7 corners , with rotation*
0 The origin of the aperture is its center*
0 number of corners: always 7*
0 $1 to $14 corner X, Y*
0 $15 Rotation angle, in degrees counterclockwise*
0 create outline with 7 corners*
4,1,7,$1,$2,$3,$4,$5,$6,$7,$8,$9,$10,$11,$12,$13,$14,$1,$2,$15*%
%AMOutline8P*
0 Free polygon, 8 corners , with rotation*
0 The origin of the aperture is its center*
0 number of corners: always 8*
0 $1 to $16 corner X, Y*
0 $17 Rotation angle, in degrees counterclockwise*
0 create outline with 8 corners*
4,1,8,$1,$2,$3,$4,$5,$6,$7,$8,$9,$10,$11,$12,$13,$14,$15,$16,$1,$2,$17*%
G04 Aperture macros list end*
%TA.AperFunction,ComponentPad*%
%ADD10O,1.500000X3.000000*%
%TD*%
%TA.AperFunction,ComponentPad*%
%ADD11O,3.000000X1.500000*%
%TD*%
%TA.AperFunction,ComponentPad*%
%ADD12Outline8P,-0.762000X0.315631X-0.315631X0.762000X0.315631X0.762000X0.762000X0.315631X0.762000X-0.315631X0.315631X-0.762000X-0.315631X-0.762000X-0.762000X-0.315631X90.000000*%
%TD*%
%TA.AperFunction,ComponentPad*%
%ADD13C,0.558800*%
%TD*%
%TA.AperFunction,ComponentPad*%
%ADD14O,3.962400X1.981200*%
%TD*%
%TA.AperFunction,ViaPad*%
%ADD15C,0.900000*%
%TD*%
%TA.AperFunction,ViaPad*%
%ADD16C,0.550000*%
%TD*%
%TA.AperFunction,ViaPad*%
%ADD17C,0.500000*%
%TD*%
%TA.AperFunction,Conductor*%
%ADD18C,0.600000*%
%TD*%
%TA.AperFunction,Conductor*%
%ADD19C,0.800000*%
%TD*%
%TA.AperFunction,Conductor*%
%ADD20C,1.000000*%
%TD*%
%TA.AperFunction,Conductor*%
%ADD21C,0.500000*%
%TD*%
%TA.AperFunction,Conductor*%
%ADD22C,0.508000*%
%TD*%
%TA.AperFunction,Conductor*%
%ADD23C,0.300000*%
%TD*%
%TA.AperFunction,Conductor*%
%ADD24C,0.200000*%
%TD*%
G04 APERTURE END LIST*
D10*
%TO.P,X18,1*%
%TO.N,-3V3_SW*%
X206930000Y188120000D03*
%TO.P,X18,2*%
%TO.N,GND*%
X204390000Y188120000D03*
%TD*%
%TO.P,X14,1*%
%TO.N,+3V3_ADAR_12*%
X1680000Y-613750000D03*
%TO.P,X14,2*%
%TO.N,GND*%
X4220000Y-613750000D03*
%TD*%
%TO.P,X12,1*%
%TO.N,+3V3_AN*%
X232930000Y62950000D03*
%TO.P,X12,2*%
%TO.N,GND*%
X235470000Y62950000D03*
%TD*%
%TO.P,X30,1*%
%TO.N,+3V3_VDD_SW*%
X1680000Y-646450000D03*
%TO.P,X30,2*%
%TO.N,GND*%
X4220000Y-646450000D03*
%TD*%
%TO.P,X6,1*%
%TO.N,+5V0_LO*%
X1680000Y-526550000D03*
%TO.P,X6,2*%
%TO.N,GND*%
X4220000Y-526550000D03*
%TD*%
%TO.P,X8,1*%
%TO.N,+3V3_LO_1*%
X1680000Y-548350000D03*
%TO.P,X8,2*%
%TO.N,GND*%
X4220000Y-548350000D03*
%TD*%
%TO.P,X7,1*%
%TO.N,+3V3_LO_2*%
X1680000Y-537450000D03*
%TO.P,X7,2*%
%TO.N,GND*%
X4220000Y-537450000D03*
%TD*%
D11*
%TO.P,X21,1*%
%TO.N,-5V0_ADAR12*%
X111130000Y138250000D03*
%TO.P,X21,2*%
%TO.N,GND*%
X111130000Y135710000D03*
%TD*%
D10*
%TO.P,X5,1*%
%TO.N,+1V8_FPGA*%
X134330000Y54800000D03*
%TO.P,X5,2*%
%TO.N,GND*%
X136870000Y54800000D03*
%TD*%
D12*
%TO.P,SV1,1*%
%TO.N,EN_+1V0_FPGA*%
X259420000Y107670000D03*
%TO.P,SV1,2*%
%TO.N,EN_+5V0_PA2*%
X256880000Y107670000D03*
%TO.P,SV1,3*%
%TO.N,EN_+1V8_FPGA*%
X259420000Y110210000D03*
%TO.P,SV1,4*%
%TO.N,EN_+5V0_PA3*%
X256880000Y110210000D03*
%TO.P,SV1,5*%
%TO.N,EN_+3V3_FPGA*%
X259420000Y112750000D03*
%TO.P,SV1,6*%
%TO.N,EN_+5V5_PA*%
X256880000Y112750000D03*
%TO.P,SV1,7*%
%TO.N,EN_+5V0_ADAR*%
X259420000Y115290000D03*
%TO.P,SV1,8*%
%TO.N,EN_+1V8_CLOCK*%
X256880000Y115290000D03*
%TO.P,SV1,9*%
%TO.N,EN_+3V3_ADAR12*%
X259420000Y117830000D03*
%TO.P,SV1,10*%
%TO.N,EN_+3V3_CLOCK*%
X256880000Y117830000D03*
%TO.P,SV1,11*%
%TO.N,EN_+3V3_ADAR34*%
X259420000Y120370000D03*
%TO.P,SV1,12*%
%TO.N,GND*%
X256880000Y120370000D03*
%TO.P,SV1,13*%
%TO.N,EN_+3V3_ADTR*%
X259420000Y122910000D03*
%TO.P,SV1,14*%
%TO.N,GND*%
X256880000Y122910000D03*
%TO.P,SV1,15*%
%TO.N,EN_+3V3_SW*%
X259420000Y125450000D03*
%TO.P,SV1,16*%
%TO.N,GND*%
X256880000Y125450000D03*
%TO.P,SV1,17*%
%TO.N,EN_+3V3_VDD_SW*%
X259420000Y127990000D03*
%TO.P,SV1,18*%
%TO.N,GND*%
X256880000Y127990000D03*
%TO.P,SV1,19*%
%TO.N,EN_+5V0_PA1*%
X259420000Y130530000D03*
%TO.P,SV1,20*%
%TO.N,GND*%
X256880000Y130530000D03*
%TD*%
D10*
%TO.P,X26,1*%
%TO.N,+5V0_ADTR*%
X1680000Y-354950000D03*
%TO.P,X26,2*%
%TO.N,GND*%
X4220000Y-354950000D03*
%TD*%
D11*
%TO.P,X20,1*%
%TO.N,-5V0_ADAR34*%
X147130000Y163310000D03*
%TO.P,X20,2*%
%TO.N,GND*%
X147130000Y160770000D03*
%TD*%
D10*
%TO.P,X34,1*%
%TO.N,+3V3_ADTR*%
X1680000Y-690050000D03*
%TO.P,X34,2*%
%TO.N,GND*%
X4220000Y-690050000D03*
%TD*%
%TO.P,X9,1*%
%TO.N,+5V0_2*%
X1680000Y-210000000D03*
%TO.P,X9,2*%
%TO.N,GND*%
X4220000Y-210000000D03*
%TD*%
%TO.P,X2,1*%
%TO.N,+5V0_1*%
X33230000Y-100550000D03*
%TO.P,X2,2*%
%TO.N,GND*%
X35770000Y-100550000D03*
%TD*%
%TO.P,X17,1*%
%TO.N,+5V0_3*%
X10030000Y-210000000D03*
%TO.P,X17,2*%
%TO.N,GND*%
X12570000Y-210000000D03*
%TD*%
%TO.P,X4,1*%
%TO.N,+1V0_FPGA*%
X91230000Y55100000D03*
%TO.P,X4,2*%
%TO.N,GND*%
X93770000Y55100000D03*
%TD*%
D11*
%TO.P,X19,1*%
%TO.N,-5V5_PA*%
X87680000Y239870000D03*
%TO.P,X19,2*%
%TO.N,GND*%
X87680000Y237330000D03*
%TD*%
D10*
%TO.P,X3,1*%
%TO.N,+5V5_PA*%
X1680000Y-591950000D03*
%TO.P,X3,2*%
%TO.N,GND*%
X4220000Y-591950000D03*
%TD*%
%TO.P,X13,1*%
%TO.N,+5V0_ADAR*%
X1680000Y-602850000D03*
%TO.P,X13,2*%
%TO.N,GND*%
X4220000Y-602850000D03*
%TD*%
D13*
%TO.P,U34,V*%
%TO.N,N/C*%
X19643600Y-434706400D03*
%TO.P,U34,V_1*%
X19643600Y-433893600D03*
%TO.P,U34,V_2*%
X20456400Y-434706400D03*
%TO.P,U34,V_3*%
X20456400Y-433893600D03*
%TD*%
D10*
%TO.P,X35,1*%
%TO.N,+3V3_XO*%
X1680000Y-700950000D03*
%TO.P,X35,2*%
%TO.N,GND*%
X4220000Y-700950000D03*
%TD*%
%TO.P,X31,1*%
%TO.N,+5V0_PA_1*%
X1680000Y-657350000D03*
%TO.P,X31,2*%
%TO.N,GND*%
X4220000Y-657350000D03*
%TD*%
D13*
%TO.P,U32,V*%
%TO.N,N/C*%
X19643600Y-375006400D03*
%TO.P,U32,V_1*%
X19643600Y-374193600D03*
%TO.P,U32,V_2*%
X20456400Y-375006400D03*
%TO.P,U32,V_3*%
X20456400Y-374193600D03*
%TD*%
D10*
%TO.P,X32,1*%
%TO.N,+5V0_PA_2*%
X1680000Y-668250000D03*
%TO.P,X32,2*%
%TO.N,GND*%
X4220000Y-668250000D03*
%TD*%
%TO.P,X15,1*%
%TO.N,+3V3_ADAR_34*%
X1680000Y-624650000D03*
%TO.P,X15,2*%
%TO.N,GND*%
X4220000Y-624650000D03*
%TD*%
%TO.P,X10,1*%
%TO.N,+1V8_CLOCK*%
X1680000Y-559250000D03*
%TO.P,X10,2*%
%TO.N,GND*%
X4220000Y-559250000D03*
%TD*%
%TO.P,X22,1*%
%TO.N,+5V0_0*%
X215010000Y54430000D03*
%TO.P,X22,2*%
%TO.N,GND*%
X217550000Y54430000D03*
%TD*%
%TO.P,X29,1*%
%TO.N,+3V3_SW*%
X1680000Y-635550000D03*
%TO.P,X29,2*%
%TO.N,GND*%
X4220000Y-635550000D03*
%TD*%
%TO.P,X28,1*%
%TO.N,+5V0_5*%
X33230000Y-454550000D03*
%TO.P,X28,2*%
%TO.N,GND*%
X35770000Y-454550000D03*
%TD*%
D14*
%TO.P,X1,1*%
%TO.N,VIN*%
X10450000Y90814600D03*
%TO.P,X1,2*%
%TO.N,GND*%
X10450000Y85810800D03*
%TD*%
D10*
%TO.P,X16,1*%
%TO.N,+3V3*%
X62650000Y54330000D03*
%TO.P,X16,2*%
%TO.N,GND*%
X65190000Y54330000D03*
%TD*%
%TO.P,X25,1*%
%TO.N,+5V0_4*%
X33230000Y-259250000D03*
%TO.P,X25,2*%
%TO.N,GND*%
X35770000Y-259250000D03*
%TD*%
%TO.P,X11,1*%
%TO.N,+3V3_CLOCK*%
X1680000Y-570150000D03*
%TO.P,X11,2*%
%TO.N,GND*%
X4220000Y-570150000D03*
%TD*%
%TO.P,X33,1*%
%TO.N,+5V0_PA_3*%
X1680000Y-679150000D03*
%TO.P,X33,2*%
%TO.N,GND*%
X4220000Y-679150000D03*
%TD*%
D11*
%TO.P,X24,1*%
%TO.N,-3V4*%
X74930000Y137620000D03*
%TO.P,X24,2*%
%TO.N,GND*%
X74930000Y135080000D03*
%TD*%
D10*
%TO.P,X27,1*%
%TO.N,+3V3_FPGA*%
X163080000Y55300000D03*
%TO.P,X27,2*%
%TO.N,GND*%
X165620000Y55300000D03*
%TD*%
%TO.P,X23,1*%
%TO.N,+3V4*%
X97570000Y132680000D03*
%TO.P,X23,2*%
%TO.N,GND*%
X100110000Y132680000D03*
%TD*%
D15*
%TO.N,GND*%
X143450000Y111700000D03*
X182650000Y154400000D03*
X214450000Y177250000D03*
X203700000Y174700000D03*
X217850000Y154650000D03*
X88200000Y130250000D03*
X62250000Y241100000D03*
D16*
X189300000Y171200000D03*
D15*
X186950000Y235600000D03*
X55800000Y148000000D03*
X67550000Y193600000D03*
X148000000Y252650000D03*
X79950000Y224850000D03*
X42150000Y230000000D03*
D16*
X138600000Y51800000D03*
D15*
X150750000Y227150000D03*
X138800000Y123550000D03*
X125500000Y134950000D03*
X70200000Y150400000D03*
X147300000Y133300000D03*
X89250000Y128300000D03*
X182650000Y45850000D03*
X90150000Y133550000D03*
X218600000Y111550000D03*
X215500000Y152550000D03*
X147100000Y227750000D03*
X24600000Y231800000D03*
X66000000Y125200000D03*
X146850000Y149650000D03*
X220350000Y166050000D03*
X156250000Y203400000D03*
X150200000Y144750000D03*
X125950000Y129900000D03*
D16*
X264850000Y103850000D03*
D15*
X200200000Y192050000D03*
X222450000Y36800000D03*
X146050000Y235300000D03*
X110700000Y235600000D03*
X216250000Y111500000D03*
X102800000Y124450000D03*
X111650000Y188950000D03*
X81600000Y271050000D03*
X217950000Y162100000D03*
X125300000Y196500000D03*
X187850000Y191050000D03*
X64500000Y183600000D03*
D16*
X269000000Y102250000D03*
D15*
X127550000Y132250000D03*
X187050000Y237900000D03*
X76150000Y229900000D03*
X189700000Y239250000D03*
X106700000Y112450000D03*
D16*
X221800000Y63450000D03*
D15*
X73200000Y201850000D03*
D16*
X220900000Y65050000D03*
D15*
X144950000Y227850000D03*
X196600000Y199100000D03*
X185800000Y191900000D03*
X100150000Y45500000D03*
X149900000Y155300000D03*
X145550000Y187200000D03*
X98800000Y262250000D03*
X180100000Y148250000D03*
X191800000Y226800000D03*
X65900000Y120800000D03*
X110700000Y232700000D03*
X195350000Y204650000D03*
X182250000Y182000000D03*
X85500000Y227400000D03*
X180400000Y145200000D03*
X116550000Y201350000D03*
X214550000Y186250000D03*
X221200000Y152300000D03*
X184750000Y155600000D03*
X186800000Y232200000D03*
X145950000Y232050000D03*
X179850000Y182100000D03*
D16*
X265500000Y98400000D03*
D15*
X185950000Y227250000D03*
X75400000Y260650000D03*
X121550000Y269850000D03*
X110550000Y156650000D03*
X89350000Y201500000D03*
X68300000Y162650000D03*
X75250000Y158300000D03*
D16*
X42350000Y200300000D03*
D15*
X101900000Y150150000D03*
X101000000Y113300000D03*
X180250000Y153700000D03*
X187550000Y153250000D03*
X215550000Y154950000D03*
X217600000Y118050000D03*
X138750000Y121000000D03*
X149800000Y232450000D03*
X91200000Y130650000D03*
X162600000Y203700000D03*
X109200000Y182250000D03*
X66800000Y253250000D03*
X215550000Y150150000D03*
X182900000Y149050000D03*
X189800000Y231950000D03*
X130400000Y200800000D03*
X111400000Y191200000D03*
X108200000Y191750000D03*
X190950000Y165350000D03*
X137400000Y35700000D03*
X150050000Y150300000D03*
X193450000Y237000000D03*
X69650000Y189000000D03*
X193000000Y233950000D03*
X219950000Y157550000D03*
X58800000Y259050000D03*
X182600000Y47900000D03*
X213150000Y175200000D03*
X183000000Y157800000D03*
X185650000Y163700000D03*
X106800000Y182350000D03*
X65300000Y231000000D03*
X137600000Y112350000D03*
X186600000Y158400000D03*
X108000000Y239700000D03*
X222550000Y155100000D03*
X220800000Y36750000D03*
X180800000Y187750000D03*
X217150000Y156300000D03*
X70300000Y112750000D03*
X108000000Y237100000D03*
X144800000Y194700000D03*
X76200000Y144900000D03*
X88300000Y133950000D03*
X185000000Y36050000D03*
X140600000Y35650000D03*
X111350000Y260650000D03*
X181300000Y194000000D03*
X219800000Y153450000D03*
X65750000Y192850000D03*
X181600000Y184150000D03*
D16*
X273600000Y110450000D03*
D15*
X99050000Y162850000D03*
X191900000Y153250000D03*
X181750000Y117600000D03*
X102650000Y43100000D03*
X65750000Y190200000D03*
D16*
X16650000Y196600000D03*
D15*
X180150000Y151050000D03*
X112500000Y227100000D03*
X112700000Y148950000D03*
X145650000Y182700000D03*
X100150000Y43100000D03*
X149100000Y237950000D03*
X60200000Y226700000D03*
D16*
X223600000Y213500000D03*
D15*
X154650000Y251350000D03*
X102800000Y119600000D03*
X149350000Y181900000D03*
X150200000Y139000000D03*
X217950000Y122850000D03*
X141700000Y45700000D03*
X71700000Y241250000D03*
X65750000Y195050000D03*
X66400000Y156150000D03*
X66550000Y183650000D03*
X65950000Y123200000D03*
X221000000Y44950000D03*
D16*
X220900000Y64250000D03*
X24850000Y201750000D03*
D15*
X186950000Y240100000D03*
X108100000Y188150000D03*
X151750000Y235700000D03*
X216150000Y145400000D03*
X181300000Y191400000D03*
X67250000Y187100000D03*
X168150000Y245850000D03*
X139800000Y112500000D03*
X139050000Y44000000D03*
X215500000Y157050000D03*
X187600000Y188300000D03*
X217750000Y120350000D03*
D16*
X110600000Y41500000D03*
D15*
X75900000Y205000000D03*
X134250000Y167700000D03*
X102700000Y122000000D03*
X155300000Y257000000D03*
X182250000Y111800000D03*
D16*
X268800000Y94250000D03*
D15*
X221050000Y156600000D03*
X146100000Y138600000D03*
X89050000Y187850000D03*
X67150000Y41800000D03*
X89350000Y136250000D03*
D16*
X262100000Y101300000D03*
D15*
X179900000Y111800000D03*
X67250000Y46500000D03*
X188150000Y227200000D03*
D16*
X117950000Y232350000D03*
D15*
X112900000Y181850000D03*
X66700000Y113750000D03*
X146200000Y155150000D03*
X218800000Y36900000D03*
D16*
X22200000Y194950000D03*
X234500000Y222750000D03*
D15*
X46200000Y244450000D03*
X214100000Y145400000D03*
X144650000Y258500000D03*
X90150000Y161650000D03*
X148450000Y191200000D03*
X139250000Y45850000D03*
X188000000Y166000000D03*
X222050000Y111300000D03*
X49600000Y230900000D03*
X68650000Y190200000D03*
X185650000Y111050000D03*
X139150000Y140500000D03*
X122850000Y128200000D03*
D16*
X190100000Y149350000D03*
D15*
X126000000Y137200000D03*
D16*
X259350000Y102600000D03*
D15*
X182100000Y37000000D03*
X99050000Y35700000D03*
X210300000Y173700000D03*
X143800000Y254850000D03*
X181900000Y120450000D03*
X89350000Y145500000D03*
X101150000Y35800000D03*
X109400000Y185850000D03*
X183550000Y187600000D03*
X193300000Y200200000D03*
X106400000Y227850000D03*
X64450000Y113850000D03*
X70450000Y182750000D03*
X189850000Y155200000D03*
X65450000Y35400000D03*
X146100000Y239900000D03*
X119700000Y129650000D03*
D16*
X221800000Y64200000D03*
D15*
X188600000Y162850000D03*
X192950000Y151050000D03*
X134350000Y158650000D03*
X182650000Y151400000D03*
X180300000Y36900000D03*
X108000000Y232300000D03*
X185850000Y166400000D03*
X145650000Y144750000D03*
X184400000Y144200000D03*
X108650000Y227850000D03*
X220800000Y47450000D03*
X178250000Y145150000D03*
X146150000Y237650000D03*
D16*
X153950000Y238350000D03*
X27150000Y199250000D03*
D15*
X188250000Y151200000D03*
X86200000Y194150000D03*
D16*
X266850000Y102050000D03*
D15*
X181850000Y123000000D03*
X149700000Y188300000D03*
X67550000Y35300000D03*
X220100000Y144500000D03*
X217300000Y149200000D03*
X159950000Y199400000D03*
X192450000Y248350000D03*
X182750000Y43500000D03*
D16*
X199800000Y143450000D03*
X34400000Y194650000D03*
D15*
X127150000Y136000000D03*
X203600000Y184000000D03*
X88050000Y183150000D03*
X193000000Y161700000D03*
X166350000Y201200000D03*
X181600000Y253350000D03*
D16*
X220900000Y63450000D03*
D15*
X215200000Y147800000D03*
X24600000Y210000000D03*
X102650000Y45500000D03*
X108200000Y194100000D03*
X143350000Y182650000D03*
X118500000Y203850000D03*
X103300000Y113400000D03*
X67250000Y44300000D03*
D16*
X221800000Y65050000D03*
X275250000Y105400000D03*
D15*
X66100000Y226950000D03*
X180150000Y156050000D03*
X206650000Y172900000D03*
X125900000Y145850000D03*
X61800000Y145600000D03*
D16*
X16950000Y198900000D03*
D15*
X144650000Y192050000D03*
X219700000Y151250000D03*
X83300000Y128900000D03*
X201200000Y194800000D03*
X190650000Y202600000D03*
X60150000Y157350000D03*
X141350000Y41450000D03*
X42950000Y214800000D03*
X203400000Y193400000D03*
X185850000Y181300000D03*
X71050000Y45700000D03*
X185200000Y152000000D03*
X85200000Y253050000D03*
%TO.N,N$40*%
X111750000Y179800000D03*
X103450000Y179800000D03*
D16*
X115250000Y185750000D03*
D15*
%TO.N,N$7*%
X73300000Y37850000D03*
X62550000Y32800000D03*
X69450000Y32850000D03*
D16*
%TO.N,N$49*%
X114950000Y230350000D03*
D15*
X111300000Y225150000D03*
X103350000Y225200000D03*
%TO.N,N$31*%
X97550000Y110450000D03*
X105475000Y110425000D03*
D16*
X108200000Y116050000D03*
D15*
%TO.N,N$37*%
X142450000Y109850000D03*
D16*
X145375000Y115375000D03*
D15*
X134350000Y109900000D03*
%TO.N,N$16*%
X176450000Y108850000D03*
D16*
X187700000Y114550000D03*
D15*
X184800000Y108850000D03*
%TO.N,N$10*%
X185050000Y33500000D03*
D17*
X187650000Y41050000D03*
D15*
X177250000Y33500000D03*
%TO.N,N$1*%
X107550000Y36500000D03*
X96850000Y32900000D03*
X103750000Y32900000D03*
D17*
%TO.N,N$19*%
X224700000Y115400000D03*
D15*
X213000000Y109000000D03*
X221400000Y109000000D03*
%TO.N,N$43*%
X140150000Y179950000D03*
D16*
X151600000Y185150000D03*
D15*
X148200000Y179950000D03*
D16*
%TO.N,N$25*%
X217950000Y65350000D03*
X217550000Y69700000D03*
D15*
%TO.N,N$22*%
X61350000Y180800000D03*
D16*
X72700000Y186200000D03*
D15*
X69250000Y180800000D03*
%TO.N,N$46*%
X176550000Y179350000D03*
D16*
X188150000Y184700000D03*
D15*
X184950000Y179350000D03*
D17*
%TO.N,N$3*%
X145150000Y36550000D03*
D15*
X134950000Y32850000D03*
X141950000Y32850000D03*
%TO.N,N$34*%
X223500000Y33400000D03*
D17*
X226700000Y39250000D03*
D15*
X215600000Y33400000D03*
%TO.N,N$28*%
X210800000Y142350000D03*
X219350000Y142350000D03*
D16*
X222500000Y147750000D03*
%TD*%
%TO.N,N$40*%
D18*
X115250000Y185750000D02*
X113750000Y185750000D01*
X110800000Y182800000D02*
X110800000Y179800000D01*
X113750000Y185750000D02*
X110800000Y182800000D01*
D19*
X111750000Y179800000D02*
X110800000Y179800000D01*
X110800000Y179800000D02*
X103450000Y179800000D01*
%TO.N,N$7*%
D20*
X62500000Y32800000D02*
X62550000Y32800000D01*
D21*
X69300000Y33000000D02*
X69450000Y32850000D01*
D20*
X69450000Y32850000D02*
X62500000Y32850000D01*
D22*
X72100000Y37850000D02*
X69300000Y35050000D01*
X73300000Y37850000D02*
X72100000Y37850000D01*
D20*
X62500000Y32850000D02*
X62500000Y32800000D01*
D22*
X69300000Y35050000D02*
X69300000Y33000000D01*
%TO.N,N$49*%
D18*
X110500000Y228250000D02*
X110500000Y225150000D01*
X114950000Y230350000D02*
X112600000Y230350000D01*
D19*
X111300000Y225150000D02*
X110500000Y225150000D01*
X110500000Y225150000D02*
X103400000Y225150000D01*
X103400000Y225150000D02*
X103350000Y225200000D01*
D18*
X112600000Y230350000D02*
X110500000Y228250000D01*
%TO.N,N$31*%
D19*
X97575000Y110425000D02*
X97550000Y110450000D01*
D18*
X108200000Y116050000D02*
X105800000Y113650000D01*
X104750000Y112702087D02*
X104750000Y110425000D01*
X105697912Y113650000D02*
X104750000Y112702087D01*
D19*
X105475000Y110425000D02*
X104750000Y110425000D01*
X104750000Y110425000D02*
X97575000Y110425000D01*
D18*
X105800000Y113650000D02*
X105697912Y113650000D01*
%TO.N,N$37*%
D19*
X142450000Y109850000D02*
X141550000Y109850000D01*
D18*
X143975000Y115375000D02*
X141550000Y112950000D01*
D19*
X141550000Y109850000D02*
X134350000Y109850000D01*
D18*
X145375000Y115375000D02*
X143975000Y115375000D01*
X141550000Y112950000D02*
X141550000Y109850000D01*
D19*
X134350000Y109850000D02*
X134350000Y109900000D01*
%TO.N,N$16*%
X184800000Y108850000D02*
X184300000Y108850000D01*
X184300000Y108850000D02*
X176550000Y108850000D01*
D18*
X185300000Y114550000D02*
X184300000Y113550000D01*
X187700000Y114550000D02*
X185300000Y114550000D01*
X184300000Y113550000D02*
X184300000Y108850000D01*
D19*
X176500000Y108800000D02*
X176450000Y108850000D01*
X176550000Y108850000D02*
X176500000Y108800000D01*
%TO.N,N$10*%
D22*
X187650000Y41050000D02*
X185150000Y38550000D01*
D20*
X184000000Y33500000D02*
X177250000Y33500000D01*
D22*
X184800000Y38550000D02*
X184000000Y37750000D01*
D20*
X185050000Y33500000D02*
X184000000Y33500000D01*
D22*
X184000000Y37750000D02*
X184000000Y33500000D01*
X185150000Y38550000D02*
X184800000Y38550000D01*
%TO.N,N$1*%
D23*
X103650000Y33000000D02*
X103750000Y32900000D01*
D22*
X103650000Y34200000D02*
X103650000Y33000000D01*
D20*
X96850000Y32900000D02*
X103750000Y32900000D01*
D22*
X105950000Y36500000D02*
X103650000Y34200000D01*
X107550000Y36500000D02*
X105950000Y36500000D01*
%TO.N,N$19*%
D18*
X220200000Y112000000D02*
X220200000Y109000000D01*
X223600000Y115400000D02*
X220200000Y112000000D01*
D19*
X221400000Y109000000D02*
X220200000Y109000000D01*
D18*
X224700000Y115400000D02*
X223600000Y115400000D01*
D19*
X220200000Y109000000D02*
X213000000Y109000000D01*
%TO.N,N$43*%
D18*
X148900000Y185150000D02*
X147400000Y183650000D01*
X151600000Y185150000D02*
X148900000Y185150000D01*
X147400000Y183650000D02*
X147400000Y180050000D01*
D19*
X147500000Y179950000D02*
X140150000Y179950000D01*
X148200000Y179950000D02*
X147500000Y179950000D01*
D18*
X147400000Y180050000D02*
X147500000Y179950000D01*
%TO.N,N$25*%
D24*
X216750000Y68950000D02*
X217500000Y69700000D01*
X217950000Y65350000D02*
X216750000Y66550000D01*
X216750000Y66550000D02*
X216750000Y68950000D01*
X217500000Y69700000D02*
X217550000Y69700000D01*
%TO.N,N$22*%
D18*
X72700000Y186200000D02*
X70750000Y186200000D01*
D19*
X68600000Y180800000D02*
X61350000Y180800000D01*
X69250000Y180800000D02*
X68600000Y180800000D01*
D18*
X68600000Y184050000D02*
X68600000Y180800000D01*
X70750000Y186200000D02*
X68600000Y184050000D01*
%TO.N,N$46*%
X188150000Y184700000D02*
X185650000Y184700000D01*
X183950000Y183000000D02*
X183950000Y179500000D01*
D19*
X184100000Y179350000D02*
X176550000Y179350000D01*
D18*
X183950000Y179500000D02*
X184100000Y179350000D01*
D19*
X184950000Y179350000D02*
X184100000Y179350000D01*
D18*
X185650000Y184700000D02*
X183950000Y183000000D01*
%TO.N,N$3*%
D22*
X143750000Y36550000D02*
X141950000Y34750000D01*
X145150000Y36550000D02*
X143750000Y36550000D01*
D19*
X141950000Y32850000D02*
X134950000Y32850000D01*
D22*
X141950000Y34750000D02*
X141950000Y32850000D01*
%TO.N,N$34*%
X224404000Y36954000D02*
X224404000Y36416968D01*
D20*
X223500000Y33400000D02*
X215600000Y33400000D01*
D22*
X224404000Y36416968D02*
X223500000Y35512968D01*
X226700000Y39250000D02*
X224404000Y36954000D01*
X223500000Y35512968D02*
X223500000Y33400000D01*
%TO.N,N$28*%
D18*
X217900000Y145450000D02*
X217900000Y142500000D01*
X217900000Y142500000D02*
X218050000Y142350000D01*
X222500000Y147750000D02*
X220200000Y147750000D01*
D19*
X219350000Y142350000D02*
X218050000Y142350000D01*
D18*
X220200000Y147750000D02*
X217900000Y145450000D01*
D19*
X218050000Y142350000D02*
X210800000Y142350000D01*
%TD*%
%TA.AperFunction,Conductor*%
%TO.N,GND*%
G36*
X279692471Y299692471D02*
G01*
X279699500Y299675500D01*
X279699500Y324500D01*
X279692471Y307529D01*
X279675500Y300500D01*
X324500Y300500D01*
X307529Y307529D01*
X300500Y324500D01*
X300500Y10125959D01*
X8399500Y10125959D01*
X8399500Y9874040D01*
X8438911Y9625210D01*
X8438912Y9625204D01*
X8516756Y9385628D01*
X8516760Y9385618D01*
X8631129Y9161155D01*
X8631133Y9161148D01*
X8779203Y8957348D01*
X8957348Y8779203D01*
X9161148Y8631133D01*
X9161155Y8631129D01*
X9385618Y8516760D01*
X9385628Y8516756D01*
X9625204Y8438912D01*
X9625210Y8438911D01*
X9625213Y8438910D01*
X9625215Y8438910D01*
X9874038Y8399500D01*
X9874041Y8399500D01*
X10125959Y8399500D01*
X10125962Y8399500D01*
X10374785Y8438910D01*
X10374787Y8438910D01*
X10374789Y8438911D01*
X10374795Y8438912D01*
X10614371Y8516756D01*
X10614381Y8516760D01*
X10838844Y8631129D01*
X10838851Y8631133D01*
X11042651Y8779203D01*
X11042652Y8779204D01*
X11042656Y8779207D01*
X11220793Y8957344D01*
X11220796Y8957348D01*
X11368866Y9161148D01*
X11368870Y9161155D01*
X11483239Y9385618D01*
X11483241Y9385621D01*
X11508419Y9463111D01*
X11561087Y9625204D01*
X11561088Y9625210D01*
X11561090Y9625215D01*
X11600500Y9874038D01*
X11600500Y10125959D01*
X138399500Y10125959D01*
X138399500Y9874040D01*
X138438911Y9625210D01*
X138438912Y9625204D01*
X138516756Y9385628D01*
X138516760Y9385618D01*
X138631129Y9161155D01*
X138631133Y9161148D01*
X138779203Y8957348D01*
X138957348Y8779203D01*
X139161148Y8631133D01*
X139161155Y8631129D01*
X139385618Y8516760D01*
X139385628Y8516756D01*
X139625204Y8438912D01*
X139625210Y8438911D01*
X139625213Y8438910D01*
X139625215Y8438910D01*
X139874038Y8399500D01*
X139874041Y8399500D01*
X140125959Y8399500D01*
X140125962Y8399500D01*
X140374785Y8438910D01*
X140374787Y8438910D01*
X140374789Y8438911D01*
X140374795Y8438912D01*
X140614371Y8516756D01*
X140614381Y8516760D01*
X140838844Y8631129D01*
X140838851Y8631133D01*
X141042651Y8779203D01*
X141042652Y8779204D01*
X141042656Y8779207D01*
X141220793Y8957344D01*
X141220796Y8957348D01*
X141368866Y9161148D01*
X141368870Y9161155D01*
X141483239Y9385618D01*
X141483241Y9385621D01*
X141508419Y9463111D01*
X141561087Y9625204D01*
X141561088Y9625210D01*
X141561090Y9625215D01*
X141600500Y9874038D01*
X141600500Y10125959D01*
X268399500Y10125959D01*
X268399500Y9874040D01*
X268438911Y9625210D01*
X268438912Y9625204D01*
X268516756Y9385628D01*
X268516760Y9385618D01*
X268631129Y9161155D01*
X268631133Y9161148D01*
X268779203Y8957348D01*
X268957348Y8779203D01*
X269161148Y8631133D01*
X269161155Y8631129D01*
X269385618Y8516760D01*
X269385628Y8516756D01*
X269625204Y8438912D01*
X269625210Y8438911D01*
X269625213Y8438910D01*
X269625215Y8438910D01*
X269874038Y8399500D01*
X269874041Y8399500D01*
X270125959Y8399500D01*
X270125962Y8399500D01*
X270374785Y8438910D01*
X270374787Y8438910D01*
X270374789Y8438911D01*
X270374795Y8438912D01*
X270614371Y8516756D01*
X270614381Y8516760D01*
X270838844Y8631129D01*
X270838851Y8631133D01*
X271042651Y8779203D01*
X271042652Y8779204D01*
X271042656Y8779207D01*
X271220793Y8957344D01*
X271220796Y8957348D01*
X271368866Y9161148D01*
X271368870Y9161155D01*
X271483239Y9385618D01*
X271483241Y9385621D01*
X271508419Y9463111D01*
X271561087Y9625204D01*
X271561088Y9625210D01*
X271561090Y9625215D01*
X271600500Y9874038D01*
X271600500Y10125962D01*
X271561090Y10374785D01*
X271483241Y10614379D01*
X271368870Y10838845D01*
X271220793Y11042656D01*
X271042656Y11220793D01*
X270838845Y11368870D01*
X270614379Y11483241D01*
X270445152Y11538226D01*
X270374795Y11561087D01*
X270374793Y11561087D01*
X270374785Y11561090D01*
X270125962Y11600500D01*
X269874038Y11600500D01*
X269625215Y11561090D01*
X269625207Y11561087D01*
X269625204Y11561087D01*
X269463111Y11508419D01*
X269385621Y11483241D01*
X269161155Y11368870D01*
X269161148Y11368866D01*
X268957348Y11220796D01*
X268957344Y11220793D01*
X268779207Y11042656D01*
X268779204Y11042652D01*
X268779203Y11042651D01*
X268631133Y10838851D01*
X268631129Y10838844D01*
X268516760Y10614381D01*
X268516756Y10614371D01*
X268438912Y10374795D01*
X268438911Y10374789D01*
X268399500Y10125959D01*
X141600500Y10125959D01*
X141600500Y10125962D01*
X141561090Y10374785D01*
X141483241Y10614379D01*
X141368870Y10838845D01*
X141220793Y11042656D01*
X141042656Y11220793D01*
X140838845Y11368870D01*
X140614379Y11483241D01*
X140445152Y11538226D01*
X140374795Y11561087D01*
X140374793Y11561087D01*
X140374785Y11561090D01*
X140125962Y11600500D01*
X139874038Y11600500D01*
X139625215Y11561090D01*
X139625207Y11561087D01*
X139625204Y11561087D01*
X139463111Y11508419D01*
X139385621Y11483241D01*
X139161155Y11368870D01*
X139161148Y11368866D01*
X138957348Y11220796D01*
X138957344Y11220793D01*
X138779207Y11042656D01*
X138779204Y11042652D01*
X138779203Y11042651D01*
X138631133Y10838851D01*
X138631129Y10838844D01*
X138516760Y10614381D01*
X138516756Y10614371D01*
X138438912Y10374795D01*
X138438911Y10374789D01*
X138399500Y10125959D01*
X11600500Y10125959D01*
X11600500Y10125962D01*
X11561090Y10374785D01*
X11483241Y10614379D01*
X11368870Y10838845D01*
X11220793Y11042656D01*
X11042656Y11220793D01*
X10838845Y11368870D01*
X10614379Y11483241D01*
X10445152Y11538226D01*
X10374795Y11561087D01*
X10374793Y11561087D01*
X10374785Y11561090D01*
X10125962Y11600500D01*
X9874038Y11600500D01*
X9625215Y11561090D01*
X9625207Y11561087D01*
X9625204Y11561087D01*
X9463111Y11508419D01*
X9385621Y11483241D01*
X9161155Y11368870D01*
X9161148Y11368866D01*
X8957348Y11220796D01*
X8957344Y11220793D01*
X8779207Y11042656D01*
X8779204Y11042652D01*
X8779203Y11042651D01*
X8631133Y10838851D01*
X8631129Y10838844D01*
X8516760Y10614381D01*
X8516756Y10614371D01*
X8438912Y10374795D01*
X8438911Y10374789D01*
X8399500Y10125959D01*
X300500Y10125959D01*
X300500Y32939326D01*
X61593100Y32939326D01*
X61593100Y32710673D01*
X61627950Y32535471D01*
X61627952Y32535464D01*
X61696313Y32370425D01*
X61795563Y32221887D01*
X61921887Y32095563D01*
X62070425Y31996313D01*
X62235464Y31927952D01*
X62235471Y31927950D01*
X62410673Y31893100D01*
X62410678Y31893100D01*
X62639326Y31893100D01*
X62814528Y31927950D01*
X62814535Y31927953D01*
X62846693Y31941273D01*
X62855877Y31943100D01*
X69539326Y31943100D01*
X69714528Y31977950D01*
X69714535Y31977952D01*
X69879574Y32046313D01*
X70028112Y32145563D01*
X70028115Y32145565D01*
X70154435Y32271885D01*
X70253684Y32420422D01*
X70253686Y32420425D01*
X70322047Y32585464D01*
X70322049Y32585471D01*
X70356899Y32760673D01*
X70356900Y32760681D01*
X70356900Y32939318D01*
X70356899Y32939326D01*
X70347651Y32985819D01*
X70346953Y32989326D01*
X95943100Y32989326D01*
X95943100Y32810673D01*
X95977950Y32635471D01*
X95977952Y32635464D01*
X96046313Y32470425D01*
X96145563Y32321887D01*
X96271887Y32195563D01*
X96345652Y32146275D01*
X96420422Y32096316D01*
X96420424Y32096314D01*
X96420425Y32096314D01*
X96585464Y32027952D01*
X96585471Y32027950D01*
X96760673Y31993100D01*
X96760678Y31993100D01*
X103839326Y31993100D01*
X104014528Y32027950D01*
X104014535Y32027952D01*
X104179574Y32096314D01*
X104179575Y32096314D01*
X104179578Y32096316D01*
X104328115Y32195565D01*
X104454435Y32321885D01*
X104553684Y32470422D01*
X104553686Y32470425D01*
X104622047Y32635464D01*
X104622049Y32635471D01*
X104656899Y32810673D01*
X104656900Y32810681D01*
X104656900Y32934401D01*
X134093100Y32934401D01*
X134093100Y32765598D01*
X134126028Y32600056D01*
X134126030Y32600049D01*
X134190622Y32444109D01*
X134284400Y32303760D01*
X134403760Y32184400D01*
X134544109Y32090622D01*
X134700049Y32026030D01*
X134700056Y32026028D01*
X134865598Y31993100D01*
X134865603Y31993100D01*
X135034401Y31993100D01*
X135199943Y32026028D01*
X135199950Y32026031D01*
X135236748Y32041273D01*
X135245932Y32043100D01*
X141654068Y32043100D01*
X141663252Y32041273D01*
X141700049Y32026031D01*
X141700056Y32026028D01*
X141865598Y31993100D01*
X141865603Y31993100D01*
X142034401Y31993100D01*
X142199943Y32026028D01*
X142199950Y32026030D01*
X142355890Y32090622D01*
X142496239Y32184400D01*
X142496242Y32184402D01*
X142615598Y32303758D01*
X142709375Y32444106D01*
X142709377Y32444109D01*
X142773969Y32600049D01*
X142773971Y32600056D01*
X142806899Y32765598D01*
X142806900Y32765606D01*
X142806900Y32934393D01*
X142806899Y32934401D01*
X142805919Y32939326D01*
X142773970Y33099948D01*
X142747217Y33164535D01*
X142709377Y33255890D01*
X142709376Y33255891D01*
X142709375Y33255894D01*
X142615598Y33396242D01*
X142615597Y33396242D01*
X142614945Y33397219D01*
X142610900Y33410553D01*
X142610900Y33589326D01*
X176343100Y33589326D01*
X176343100Y33410673D01*
X176377950Y33235471D01*
X176377952Y33235464D01*
X176446313Y33070425D01*
X176545563Y32921887D01*
X176671887Y32795563D01*
X176745652Y32746275D01*
X176820422Y32696316D01*
X176820424Y32696314D01*
X176820425Y32696314D01*
X176985464Y32627952D01*
X176985471Y32627950D01*
X177160673Y32593100D01*
X177160678Y32593100D01*
X185139326Y32593100D01*
X185314528Y32627950D01*
X185314535Y32627952D01*
X185479574Y32696314D01*
X185479575Y32696314D01*
X185479578Y32696316D01*
X185628115Y32795565D01*
X185754435Y32921885D01*
X185853684Y33070422D01*
X185853686Y33070425D01*
X185922047Y33235464D01*
X185922049Y33235471D01*
X185956899Y33410673D01*
X185956900Y33410681D01*
X185956900Y33489326D01*
X214693100Y33489326D01*
X214693100Y33310673D01*
X214727950Y33135471D01*
X214727952Y33135464D01*
X214796313Y32970425D01*
X214895563Y32821887D01*
X215021887Y32695563D01*
X215170425Y32596313D01*
X215335464Y32527952D01*
X215335471Y32527950D01*
X215510673Y32493100D01*
X215510678Y32493100D01*
X223589326Y32493100D01*
X223764528Y32527950D01*
X223764535Y32527952D01*
X223929574Y32596313D01*
X224078112Y32695563D01*
X224078115Y32695565D01*
X224204435Y32821885D01*
X224303684Y32970422D01*
X224303686Y32970425D01*
X224372047Y33135464D01*
X224372049Y33135471D01*
X224406899Y33310673D01*
X224406900Y33310681D01*
X224406900Y33489318D01*
X224406899Y33489326D01*
X224387008Y33589322D01*
X224372048Y33664533D01*
X224303684Y33829578D01*
X224204435Y33978115D01*
X224167928Y34014621D01*
X224160900Y34031591D01*
X224160900Y35229272D01*
X224167929Y35246243D01*
X224499751Y35578065D01*
X224917355Y35995669D01*
X224989682Y36103914D01*
X224989684Y36103917D01*
X225014592Y36164052D01*
X225039502Y36224191D01*
X225044646Y36250049D01*
X225064899Y36351870D01*
X225064900Y36351878D01*
X225064900Y36670304D01*
X225071929Y36687275D01*
X225595554Y37210900D01*
X227213354Y38828701D01*
X227285681Y38936946D01*
X227285683Y38936949D01*
X227335501Y39057220D01*
X227335503Y39057227D01*
X227360899Y39184901D01*
X227360900Y39184909D01*
X227360900Y39315089D01*
X227360899Y39315097D01*
X227335503Y39442772D01*
X227335501Y39442779D01*
X227285683Y39563050D01*
X227285682Y39563051D01*
X227285681Y39563054D01*
X227213354Y39671299D01*
X227121299Y39763354D01*
X227013054Y39835681D01*
X227013051Y39835682D01*
X227013050Y39835683D01*
X226892779Y39885501D01*
X226892777Y39885502D01*
X226765093Y39910900D01*
X226634906Y39910900D01*
X226634901Y39910899D01*
X226507227Y39885503D01*
X226507224Y39885502D01*
X226507223Y39885502D01*
X226507221Y39885501D01*
X226507220Y39885501D01*
X226386949Y39835683D01*
X226386946Y39835681D01*
X226278701Y39763354D01*
X223982701Y37467355D01*
X223982700Y37467355D01*
X223890648Y37375302D01*
X223890643Y37375296D01*
X223818315Y37267050D01*
X223768499Y37146779D01*
X223768496Y37146772D01*
X223743100Y37019097D01*
X223743100Y36700664D01*
X223736071Y36683693D01*
X223078701Y36026323D01*
X223078700Y36026323D01*
X222986648Y35934270D01*
X222986643Y35934264D01*
X222914315Y35826018D01*
X222864499Y35705747D01*
X222864496Y35705740D01*
X222839100Y35578065D01*
X222839100Y34330900D01*
X222832071Y34313929D01*
X222815100Y34306900D01*
X215510678Y34306900D01*
X215510673Y34306899D01*
X215335471Y34272049D01*
X215335468Y34272048D01*
X215335467Y34272048D01*
X215335465Y34272047D01*
X215335464Y34272047D01*
X215170426Y34203686D01*
X215170424Y34203685D01*
X215170422Y34203684D01*
X215021885Y34104435D01*
X214895565Y33978115D01*
X214895563Y33978112D01*
X214796313Y33829574D01*
X214727952Y33664535D01*
X214727950Y33664528D01*
X214693100Y33489326D01*
X185956900Y33489326D01*
X185956900Y33589318D01*
X185956899Y33589326D01*
X185953893Y33604436D01*
X185922048Y33764533D01*
X185894558Y33830900D01*
X185853686Y33929574D01*
X185853685Y33929575D01*
X185853684Y33929578D01*
X185754435Y34078115D01*
X185628115Y34204435D01*
X185479578Y34303684D01*
X185479575Y34303685D01*
X185479574Y34303686D01*
X185314535Y34372047D01*
X185314533Y34372048D01*
X185139322Y34406900D01*
X185139318Y34406900D01*
X184684900Y34406900D01*
X184667929Y34413929D01*
X184660900Y34430900D01*
X184660900Y37466304D01*
X184667929Y37483275D01*
X185066725Y37882071D01*
X185083696Y37889100D01*
X185215097Y37889100D01*
X185342772Y37914496D01*
X185342779Y37914499D01*
X185463050Y37964315D01*
X185571296Y38036643D01*
X185571299Y38036645D01*
X188163355Y40628701D01*
X188235682Y40736946D01*
X188235684Y40736949D01*
X188260592Y40797084D01*
X188285502Y40857223D01*
X188310900Y40984907D01*
X188310900Y41115093D01*
X188285502Y41242777D01*
X188235682Y41363054D01*
X188163355Y41471299D01*
X188071299Y41563355D01*
X187963054Y41635682D01*
X187963051Y41635683D01*
X187963050Y41635684D01*
X187935803Y41646969D01*
X187842777Y41685502D01*
X187715093Y41710900D01*
X187584907Y41710900D01*
X187584902Y41710899D01*
X187457227Y41685503D01*
X187457226Y41685502D01*
X187457223Y41685502D01*
X187397084Y41660592D01*
X187336949Y41635684D01*
X187336946Y41635682D01*
X187228701Y41563355D01*
X185576246Y39910900D01*
X184883275Y39217929D01*
X184866304Y39210900D01*
X184865094Y39210900D01*
X184734907Y39210900D01*
X184734902Y39210899D01*
X184607227Y39185503D01*
X184607226Y39185502D01*
X184607223Y39185502D01*
X184547084Y39160592D01*
X184486949Y39135684D01*
X184486946Y39135682D01*
X184378701Y39063355D01*
X183578701Y38263355D01*
X183578700Y38263355D01*
X183486648Y38171302D01*
X183486643Y38171296D01*
X183414315Y38063050D01*
X183364499Y37942779D01*
X183364496Y37942772D01*
X183339100Y37815097D01*
X183339100Y34430900D01*
X183332071Y34413929D01*
X183315100Y34406900D01*
X177160678Y34406900D01*
X177160673Y34406899D01*
X176985471Y34372049D01*
X176985468Y34372048D01*
X176985467Y34372048D01*
X176985465Y34372047D01*
X176985464Y34372047D01*
X176820425Y34303686D01*
X176820422Y34303684D01*
X176671885Y34204435D01*
X176545565Y34078115D01*
X176545563Y34078112D01*
X176446313Y33929574D01*
X176377952Y33764535D01*
X176377950Y33764528D01*
X176343100Y33589326D01*
X142610900Y33589326D01*
X142610900Y34466304D01*
X142617929Y34483275D01*
X144016724Y35882071D01*
X144033695Y35889100D01*
X145215097Y35889100D01*
X145342772Y35914496D01*
X145342779Y35914499D01*
X145463050Y35964315D01*
X145571296Y36036643D01*
X145571299Y36036645D01*
X145663355Y36128701D01*
X145735682Y36236946D01*
X145735684Y36236949D01*
X145760592Y36297084D01*
X145785502Y36357223D01*
X145810900Y36484907D01*
X145810900Y36615093D01*
X145785502Y36742777D01*
X145735682Y36863054D01*
X145663355Y36971299D01*
X145571299Y37063355D01*
X145463054Y37135682D01*
X145463051Y37135683D01*
X145463050Y37135684D01*
X145435803Y37146969D01*
X145342777Y37185502D01*
X145215093Y37210900D01*
X143815093Y37210900D01*
X143684906Y37210900D01*
X143684901Y37210899D01*
X143575311Y37189100D01*
X143557227Y37185503D01*
X143557226Y37185502D01*
X143557223Y37185502D01*
X143507594Y37164945D01*
X143436949Y37135684D01*
X143436946Y37135682D01*
X143328701Y37063355D01*
X143236645Y36971299D01*
X143236643Y36971296D01*
X141528701Y35263355D01*
X141528700Y35263355D01*
X141436648Y35171302D01*
X141436643Y35171296D01*
X141364315Y35063050D01*
X141314499Y34942779D01*
X141314496Y34942772D01*
X141289100Y34815097D01*
X141289100Y33680900D01*
X141282071Y33663929D01*
X141265100Y33656900D01*
X135245932Y33656900D01*
X135236748Y33658727D01*
X135199948Y33673970D01*
X135034397Y33706900D01*
X134865603Y33706900D01*
X134865598Y33706899D01*
X134700056Y33673971D01*
X134700053Y33673970D01*
X134700052Y33673970D01*
X134700050Y33673969D01*
X134700049Y33673969D01*
X134544109Y33609377D01*
X134544106Y33609375D01*
X134403758Y33515598D01*
X134284402Y33396242D01*
X134284400Y33396239D01*
X134190622Y33255890D01*
X134126030Y33099950D01*
X134126028Y33099943D01*
X134093100Y32934401D01*
X104656900Y32934401D01*
X104656900Y32989318D01*
X104656899Y32989326D01*
X104622049Y33164528D01*
X104622047Y33164535D01*
X104553686Y33329574D01*
X104553685Y33329575D01*
X104553684Y33329578D01*
X104454435Y33478115D01*
X104328115Y33604435D01*
X104323540Y33607492D01*
X104321568Y33608810D01*
X104311361Y33624082D01*
X104310900Y33628766D01*
X104310900Y33916304D01*
X104317929Y33933275D01*
X106216724Y35832071D01*
X106233695Y35839100D01*
X106989447Y35839100D01*
X107002781Y35835055D01*
X107144109Y35740622D01*
X107300049Y35676030D01*
X107300056Y35676028D01*
X107465598Y35643100D01*
X107465603Y35643100D01*
X107634401Y35643100D01*
X107799943Y35676028D01*
X107799950Y35676030D01*
X107955890Y35740622D01*
X108096239Y35834400D01*
X108096242Y35834402D01*
X108215598Y35953758D01*
X108309375Y36094106D01*
X108309377Y36094109D01*
X108373969Y36250049D01*
X108373971Y36250056D01*
X108406899Y36415598D01*
X108406900Y36415606D01*
X108406900Y36584393D01*
X108406899Y36584401D01*
X108387834Y36680246D01*
X108373970Y36749948D01*
X108309375Y36905894D01*
X108215598Y37046242D01*
X108096242Y37165598D01*
X107955894Y37259375D01*
X107955891Y37259376D01*
X107955890Y37259377D01*
X107799950Y37323969D01*
X107799948Y37323970D01*
X107634397Y37356900D01*
X107465603Y37356900D01*
X107465598Y37356899D01*
X107300056Y37323971D01*
X107300053Y37323970D01*
X107300052Y37323970D01*
X107300050Y37323969D01*
X107300049Y37323969D01*
X107144109Y37259377D01*
X107144106Y37259375D01*
X107003760Y37165599D01*
X107002781Y37164945D01*
X106989447Y37160900D01*
X106015093Y37160900D01*
X105884906Y37160900D01*
X105758128Y37135682D01*
X105757223Y37135502D01*
X105757218Y37135500D01*
X105636949Y37085684D01*
X105636946Y37085682D01*
X105528701Y37013355D01*
X105436645Y36921299D01*
X105436643Y36921296D01*
X103228701Y34713355D01*
X103228700Y34713355D01*
X103136648Y34621302D01*
X103136643Y34621296D01*
X103064315Y34513050D01*
X103014499Y34392779D01*
X103014496Y34392772D01*
X102989100Y34265097D01*
X102989100Y33830900D01*
X102982071Y33813929D01*
X102965100Y33806900D01*
X96760678Y33806900D01*
X96760673Y33806899D01*
X96585471Y33772049D01*
X96585468Y33772048D01*
X96585467Y33772048D01*
X96585465Y33772047D01*
X96585464Y33772047D01*
X96420425Y33703686D01*
X96420422Y33703684D01*
X96271885Y33604435D01*
X96145565Y33478115D01*
X96145563Y33478112D01*
X96046313Y33329574D01*
X95977952Y33164535D01*
X95977950Y33164528D01*
X95943100Y32989326D01*
X70346953Y32989326D01*
X70322049Y33114528D01*
X70322047Y33114535D01*
X70253686Y33279574D01*
X70253685Y33279575D01*
X70253684Y33279578D01*
X70154435Y33428115D01*
X70028115Y33554435D01*
X69971565Y33592219D01*
X69961361Y33607492D01*
X69960900Y33612174D01*
X69960900Y34766304D01*
X69967929Y34783275D01*
X72366725Y37182071D01*
X72383696Y37189100D01*
X72739447Y37189100D01*
X72752781Y37185055D01*
X72894109Y37090622D01*
X73050049Y37026030D01*
X73050056Y37026028D01*
X73215598Y36993100D01*
X73215603Y36993100D01*
X73384401Y36993100D01*
X73549943Y37026028D01*
X73549950Y37026030D01*
X73705890Y37090622D01*
X73846239Y37184400D01*
X73846242Y37184402D01*
X73965598Y37303758D01*
X74059375Y37444106D01*
X74059377Y37444109D01*
X74123969Y37600049D01*
X74123971Y37600056D01*
X74156899Y37765598D01*
X74156900Y37765606D01*
X74156900Y37934393D01*
X74156899Y37934401D01*
X74123971Y38099943D01*
X74123969Y38099950D01*
X74059377Y38255890D01*
X74059376Y38255891D01*
X74059375Y38255894D01*
X73965598Y38396242D01*
X73846242Y38515598D01*
X73705894Y38609375D01*
X73705891Y38609376D01*
X73705890Y38609377D01*
X73549950Y38673969D01*
X73549948Y38673970D01*
X73384397Y38706900D01*
X73215603Y38706900D01*
X73215598Y38706899D01*
X73050056Y38673971D01*
X73050053Y38673970D01*
X73050052Y38673970D01*
X73050050Y38673969D01*
X73050049Y38673969D01*
X72894109Y38609377D01*
X72894106Y38609375D01*
X72753760Y38515599D01*
X72752781Y38514945D01*
X72739447Y38510900D01*
X72165093Y38510900D01*
X72034907Y38510900D01*
X72034902Y38510899D01*
X71907227Y38485503D01*
X71907226Y38485502D01*
X71907223Y38485502D01*
X71847084Y38460592D01*
X71786949Y38435684D01*
X71786946Y38435682D01*
X71678701Y38363355D01*
X68878701Y35563355D01*
X68878700Y35563355D01*
X68786648Y35471302D01*
X68786643Y35471296D01*
X68714315Y35363050D01*
X68664499Y35242779D01*
X68664496Y35242772D01*
X68639100Y35115097D01*
X68639100Y33780900D01*
X68632071Y33763929D01*
X68615100Y33756900D01*
X62589322Y33756900D01*
X62410678Y33756900D01*
X62410673Y33756899D01*
X62235471Y33722049D01*
X62235468Y33722048D01*
X62235467Y33722048D01*
X62235465Y33722047D01*
X62235464Y33722047D01*
X62070425Y33653686D01*
X62070422Y33653684D01*
X61921885Y33554435D01*
X61795565Y33428115D01*
X61795563Y33428112D01*
X61696313Y33279574D01*
X61627952Y33114535D01*
X61627950Y33114528D01*
X61593100Y32939326D01*
X300500Y32939326D01*
X300500Y55171050D01*
X61493100Y55171050D01*
X61493100Y53488950D01*
X61513440Y53360531D01*
X61521588Y53309087D01*
X61521589Y53309081D01*
X61577856Y53135912D01*
X61577860Y53135902D01*
X61660530Y52973652D01*
X61660534Y52973645D01*
X61767562Y52826334D01*
X61896334Y52697562D01*
X62043645Y52590534D01*
X62043652Y52590530D01*
X62205902Y52507860D01*
X62205912Y52507856D01*
X62379081Y52451589D01*
X62379087Y52451588D01*
X62379090Y52451587D01*
X62379092Y52451587D01*
X62558950Y52423100D01*
X62558953Y52423100D01*
X62741047Y52423100D01*
X62741050Y52423100D01*
X62920908Y52451587D01*
X62920910Y52451587D01*
X62920912Y52451588D01*
X62920918Y52451589D01*
X63094087Y52507856D01*
X63094097Y52507860D01*
X63256347Y52590530D01*
X63256354Y52590534D01*
X63403665Y52697562D01*
X63403666Y52697563D01*
X63403670Y52697566D01*
X63532434Y52826330D01*
X63532437Y52826334D01*
X63639465Y52973645D01*
X63639469Y52973652D01*
X63656096Y53006285D01*
X63722141Y53135905D01*
X63749981Y53221588D01*
X63778410Y53309081D01*
X63778411Y53309087D01*
X63778413Y53309092D01*
X63806900Y53488950D01*
X63806900Y55168646D01*
X64290000Y55168646D01*
X64290000Y54405001D01*
X64290001Y54405000D01*
X64692458Y54405000D01*
X64690000Y54395826D01*
X64690000Y54264174D01*
X64692458Y54255000D01*
X64290001Y54255000D01*
X64290000Y54254999D01*
X64290000Y53491353D01*
X64324584Y53317484D01*
X64324587Y53317477D01*
X64392427Y53153693D01*
X64490922Y53006285D01*
X64616285Y52880922D01*
X64763693Y52782427D01*
X64927477Y52714587D01*
X64927484Y52714584D01*
X65101353Y52680000D01*
X65114999Y52680000D01*
X65115000Y52680001D01*
X65115000Y53832458D01*
X65124174Y53830000D01*
X65255826Y53830000D01*
X65265000Y53832458D01*
X65265000Y52680001D01*
X65265001Y52680000D01*
X65278646Y52680000D01*
X65452515Y52714584D01*
X65452522Y52714587D01*
X65616306Y52782427D01*
X65763714Y52880922D01*
X65889077Y53006285D01*
X65987572Y53153693D01*
X66055412Y53317477D01*
X66055415Y53317484D01*
X66089999Y53491353D01*
X66090000Y53491361D01*
X66090000Y54254999D01*
X66089999Y54255000D01*
X65687542Y54255000D01*
X65690000Y54264174D01*
X65690000Y54395826D01*
X65687542Y54405000D01*
X66089999Y54405000D01*
X66090000Y54405001D01*
X66090000Y55168638D01*
X66089999Y55168646D01*
X66055415Y55342515D01*
X66055412Y55342522D01*
X65987572Y55506306D01*
X65889077Y55653714D01*
X65763714Y55779077D01*
X65616306Y55877572D01*
X65514310Y55919820D01*
X65463053Y55941050D01*
X90073100Y55941050D01*
X90073100Y54258950D01*
X90092414Y54137007D01*
X90101588Y54079087D01*
X90101589Y54079081D01*
X90157856Y53905912D01*
X90157860Y53905902D01*
X90240530Y53743652D01*
X90240534Y53743645D01*
X90347562Y53596334D01*
X90476334Y53467562D01*
X90623645Y53360534D01*
X90623652Y53360530D01*
X90785902Y53277860D01*
X90785912Y53277856D01*
X90959081Y53221589D01*
X90959087Y53221588D01*
X90959090Y53221587D01*
X90959092Y53221587D01*
X91138950Y53193100D01*
X91138953Y53193100D01*
X91321047Y53193100D01*
X91321050Y53193100D01*
X91500908Y53221587D01*
X91500910Y53221587D01*
X91500912Y53221588D01*
X91500918Y53221589D01*
X91674087Y53277856D01*
X91674097Y53277860D01*
X91836347Y53360530D01*
X91836354Y53360534D01*
X91983665Y53467562D01*
X91983666Y53467563D01*
X91983670Y53467566D01*
X92112434Y53596330D01*
X92112437Y53596334D01*
X92219465Y53743645D01*
X92219469Y53743652D01*
X92237524Y53779087D01*
X92302141Y53905905D01*
X92325009Y53976285D01*
X92358410Y54079081D01*
X92358411Y54079087D01*
X92358413Y54079092D01*
X92386900Y54258950D01*
X92386900Y55938646D01*
X92870000Y55938646D01*
X92870000Y55175001D01*
X92870001Y55175000D01*
X93272458Y55175000D01*
X93270000Y55165826D01*
X93270000Y55034174D01*
X93272458Y55025000D01*
X92870001Y55025000D01*
X92870000Y55024999D01*
X92870000Y54261353D01*
X92904584Y54087484D01*
X92904587Y54087477D01*
X92972427Y53923693D01*
X93070922Y53776285D01*
X93196285Y53650922D01*
X93343693Y53552427D01*
X93507477Y53484587D01*
X93507484Y53484584D01*
X93681353Y53450000D01*
X93694999Y53450000D01*
X93695000Y53450001D01*
X93695000Y54602458D01*
X93704174Y54600000D01*
X93835826Y54600000D01*
X93845000Y54602458D01*
X93845000Y53450001D01*
X93845001Y53450000D01*
X93858646Y53450000D01*
X94032515Y53484584D01*
X94032522Y53484587D01*
X94196306Y53552427D01*
X94343714Y53650922D01*
X94469077Y53776285D01*
X94567572Y53923693D01*
X94635412Y54087477D01*
X94635415Y54087484D01*
X94669999Y54261353D01*
X94670000Y54261361D01*
X94670000Y55024999D01*
X94669999Y55025000D01*
X94267542Y55025000D01*
X94270000Y55034174D01*
X94270000Y55165826D01*
X94267542Y55175000D01*
X94669999Y55175000D01*
X94670000Y55175001D01*
X94670000Y55641050D01*
X133173100Y55641050D01*
X133173100Y53958950D01*
X133181502Y53905905D01*
X133201588Y53779087D01*
X133201589Y53779081D01*
X133257856Y53605912D01*
X133257860Y53605902D01*
X133340530Y53443652D01*
X133340534Y53443645D01*
X133447562Y53296334D01*
X133576334Y53167562D01*
X133723645Y53060534D01*
X133723652Y53060530D01*
X133885902Y52977860D01*
X133885912Y52977856D01*
X134059081Y52921589D01*
X134059087Y52921588D01*
X134059090Y52921587D01*
X134059092Y52921587D01*
X134238950Y52893100D01*
X134238953Y52893100D01*
X134421047Y52893100D01*
X134421050Y52893100D01*
X134600908Y52921587D01*
X134600910Y52921587D01*
X134600912Y52921588D01*
X134600918Y52921589D01*
X134774087Y52977856D01*
X134774097Y52977860D01*
X134936347Y53060530D01*
X134936354Y53060534D01*
X135083665Y53167562D01*
X135083666Y53167563D01*
X135083670Y53167566D01*
X135212434Y53296330D01*
X135221698Y53309081D01*
X135319465Y53443645D01*
X135319469Y53443652D01*
X135343778Y53491361D01*
X135402141Y53605905D01*
X135422176Y53667566D01*
X135458410Y53779081D01*
X135458411Y53779087D01*
X135458413Y53779092D01*
X135486900Y53958950D01*
X135486900Y55638646D01*
X135970000Y55638646D01*
X135970000Y54875001D01*
X135970001Y54875000D01*
X136372458Y54875000D01*
X136370000Y54865826D01*
X136370000Y54734174D01*
X136372458Y54725000D01*
X135970001Y54725000D01*
X135970000Y54724999D01*
X135970000Y53961353D01*
X136004584Y53787484D01*
X136004587Y53787477D01*
X136072427Y53623693D01*
X136170922Y53476285D01*
X136296285Y53350922D01*
X136443693Y53252427D01*
X136607477Y53184587D01*
X136607484Y53184584D01*
X136781353Y53150000D01*
X136794999Y53150000D01*
X136795000Y53150001D01*
X136795000Y54302458D01*
X136804174Y54300000D01*
X136935826Y54300000D01*
X136945000Y54302458D01*
X136945000Y53150001D01*
X136945001Y53150000D01*
X136958646Y53150000D01*
X137132515Y53184584D01*
X137132522Y53184587D01*
X137296306Y53252427D01*
X137443714Y53350922D01*
X137569077Y53476285D01*
X137667572Y53623693D01*
X137735412Y53787477D01*
X137735415Y53787484D01*
X137769999Y53961353D01*
X137770000Y53961361D01*
X137770000Y54724999D01*
X137769999Y54725000D01*
X137367542Y54725000D01*
X137370000Y54734174D01*
X137370000Y54865826D01*
X137367542Y54875000D01*
X137769999Y54875000D01*
X137770000Y54875001D01*
X137770000Y55638638D01*
X137769999Y55638646D01*
X137735415Y55812515D01*
X137735412Y55812522D01*
X137667572Y55976306D01*
X137569077Y56123714D01*
X137567770Y56125022D01*
X137551742Y56141050D01*
X161923100Y56141050D01*
X161923100Y54458950D01*
X161950258Y54287484D01*
X161951588Y54279087D01*
X161951589Y54279081D01*
X162007856Y54105912D01*
X162007860Y54105902D01*
X162090530Y53943652D01*
X162090534Y53943645D01*
X162197562Y53796334D01*
X162326334Y53667562D01*
X162473645Y53560534D01*
X162473652Y53560530D01*
X162635902Y53477860D01*
X162635912Y53477856D01*
X162809081Y53421589D01*
X162809087Y53421588D01*
X162809090Y53421587D01*
X162809092Y53421587D01*
X162988950Y53393100D01*
X162988953Y53393100D01*
X163171047Y53393100D01*
X163171050Y53393100D01*
X163350908Y53421587D01*
X163350910Y53421587D01*
X163350912Y53421588D01*
X163350918Y53421589D01*
X163524087Y53477856D01*
X163524097Y53477860D01*
X163686347Y53560530D01*
X163686354Y53560534D01*
X163833665Y53667562D01*
X163833666Y53667563D01*
X163833670Y53667566D01*
X163962434Y53796330D01*
X163986897Y53830000D01*
X164069465Y53943645D01*
X164069469Y53943652D01*
X164138473Y54079081D01*
X164152141Y54105905D01*
X164200585Y54255000D01*
X164208410Y54279081D01*
X164208411Y54279087D01*
X164208413Y54279092D01*
X164236900Y54458950D01*
X164236900Y56138646D01*
X164720000Y56138646D01*
X164720000Y55375001D01*
X164720001Y55375000D01*
X165122458Y55375000D01*
X165120000Y55365826D01*
X165120000Y55234174D01*
X165122458Y55225000D01*
X164720001Y55225000D01*
X164720000Y55224999D01*
X164720000Y54461353D01*
X164754584Y54287484D01*
X164754587Y54287477D01*
X164822427Y54123693D01*
X164920922Y53976285D01*
X165046285Y53850922D01*
X165193693Y53752427D01*
X165357477Y53684587D01*
X165357484Y53684584D01*
X165531353Y53650000D01*
X165544999Y53650000D01*
X165545000Y53650001D01*
X165545000Y54802458D01*
X165554174Y54800000D01*
X165685826Y54800000D01*
X165695000Y54802458D01*
X165695000Y53650001D01*
X165695001Y53650000D01*
X165708646Y53650000D01*
X165882515Y53684584D01*
X165882522Y53684587D01*
X166046306Y53752427D01*
X166193714Y53850922D01*
X166319077Y53976285D01*
X166417572Y54123693D01*
X166485412Y54287477D01*
X166485415Y54287484D01*
X166519999Y54461353D01*
X166520000Y54461361D01*
X166520000Y55224999D01*
X166519999Y55225000D01*
X166117542Y55225000D01*
X166120000Y55234174D01*
X166120000Y55271050D01*
X213853100Y55271050D01*
X213853100Y53588950D01*
X213879608Y53421589D01*
X213881588Y53409087D01*
X213881589Y53409081D01*
X213937856Y53235912D01*
X213937860Y53235902D01*
X214020530Y53073652D01*
X214020534Y53073645D01*
X214127562Y52926334D01*
X214256334Y52797562D01*
X214403645Y52690534D01*
X214403652Y52690530D01*
X214565902Y52607860D01*
X214565912Y52607856D01*
X214739081Y52551589D01*
X214739087Y52551588D01*
X214739090Y52551587D01*
X214739092Y52551587D01*
X214918950Y52523100D01*
X214918953Y52523100D01*
X215101047Y52523100D01*
X215101050Y52523100D01*
X215280908Y52551587D01*
X215280910Y52551587D01*
X215280912Y52551588D01*
X215280918Y52551589D01*
X215454087Y52607856D01*
X215454097Y52607860D01*
X215616347Y52690530D01*
X215616354Y52690534D01*
X215763665Y52797562D01*
X215763666Y52797563D01*
X215763670Y52797566D01*
X215892434Y52926330D01*
X215892437Y52926334D01*
X215999465Y53073645D01*
X215999469Y53073652D01*
X216040252Y53153693D01*
X216082141Y53235905D01*
X216105921Y53309092D01*
X216138410Y53409081D01*
X216138411Y53409087D01*
X216138413Y53409092D01*
X216166900Y53588950D01*
X216166900Y55268646D01*
X216650000Y55268646D01*
X216650000Y54505001D01*
X216650001Y54505000D01*
X217052458Y54505000D01*
X217050000Y54495826D01*
X217050000Y54364174D01*
X217052458Y54355000D01*
X216650001Y54355000D01*
X216650000Y54354999D01*
X216650000Y53591353D01*
X216684584Y53417484D01*
X216684587Y53417477D01*
X216752427Y53253693D01*
X216850922Y53106285D01*
X216976285Y52980922D01*
X217123693Y52882427D01*
X217287477Y52814587D01*
X217287484Y52814584D01*
X217461353Y52780000D01*
X217474999Y52780000D01*
X217475000Y52780001D01*
X217475000Y53932458D01*
X217484174Y53930000D01*
X217615826Y53930000D01*
X217625000Y53932458D01*
X217625000Y52780001D01*
X217625001Y52780000D01*
X217638646Y52780000D01*
X217812515Y52814584D01*
X217812522Y52814587D01*
X217976306Y52882427D01*
X218123714Y52980922D01*
X218249077Y53106285D01*
X218347572Y53253693D01*
X218415412Y53417477D01*
X218415415Y53417484D01*
X218449999Y53591353D01*
X218450000Y53591361D01*
X218450000Y54354999D01*
X218449999Y54355000D01*
X218047542Y54355000D01*
X218050000Y54364174D01*
X218050000Y54495826D01*
X218047542Y54505000D01*
X218449999Y54505000D01*
X218450000Y54505001D01*
X218450000Y55268638D01*
X218449999Y55268646D01*
X218415415Y55442515D01*
X218415412Y55442522D01*
X218347572Y55606306D01*
X218249077Y55753714D01*
X218123714Y55879077D01*
X217976306Y55977572D01*
X217812522Y56045412D01*
X217812515Y56045415D01*
X217638646Y56079999D01*
X217638638Y56080000D01*
X217625001Y56080000D01*
X217625000Y56079999D01*
X217625000Y54927541D01*
X217615826Y54930000D01*
X217484174Y54930000D01*
X217475000Y54927541D01*
X217475000Y56079999D01*
X217474999Y56080000D01*
X217461362Y56080000D01*
X217461353Y56079999D01*
X217287484Y56045415D01*
X217287477Y56045412D01*
X217123693Y55977572D01*
X216976285Y55879077D01*
X216850922Y55753714D01*
X216752427Y55606306D01*
X216684587Y55442522D01*
X216684584Y55442515D01*
X216650000Y55268646D01*
X216166900Y55268646D01*
X216166900Y55271050D01*
X216138413Y55450908D01*
X216082141Y55624095D01*
X215999469Y55786348D01*
X215989550Y55800000D01*
X215932098Y55879077D01*
X215892434Y55933670D01*
X215763670Y56062434D01*
X215658784Y56138638D01*
X215616354Y56169465D01*
X215616351Y56169466D01*
X215616348Y56169469D01*
X215454095Y56252141D01*
X215295521Y56303665D01*
X215280918Y56308410D01*
X215280916Y56308410D01*
X215280908Y56308413D01*
X215101050Y56336900D01*
X214918950Y56336900D01*
X214739092Y56308413D01*
X214739084Y56308410D01*
X214739081Y56308410D01*
X214640277Y56276306D01*
X214565905Y56252141D01*
X214480084Y56208413D01*
X214403652Y56169469D01*
X214403645Y56169465D01*
X214280506Y56079999D01*
X214256330Y56062434D01*
X214127566Y55933670D01*
X214127563Y55933666D01*
X214127562Y55933665D01*
X214020534Y55786354D01*
X214020530Y55786347D01*
X213937860Y55624097D01*
X213937856Y55624087D01*
X213881589Y55450918D01*
X213881588Y55450912D01*
X213881587Y55450908D01*
X213853100Y55271050D01*
X166120000Y55271050D01*
X166120000Y55365826D01*
X166117542Y55375000D01*
X166519999Y55375000D01*
X166520000Y55375001D01*
X166520000Y56138638D01*
X166519999Y56138646D01*
X166485415Y56312515D01*
X166485412Y56312522D01*
X166417572Y56476306D01*
X166319077Y56623714D01*
X166193714Y56749077D01*
X166046306Y56847572D01*
X165882522Y56915412D01*
X165882515Y56915415D01*
X165708646Y56949999D01*
X165708638Y56950000D01*
X165695001Y56950000D01*
X165695000Y56949999D01*
X165695000Y55797541D01*
X165685826Y55800000D01*
X165554174Y55800000D01*
X165545000Y55797541D01*
X165545000Y56949999D01*
X165544999Y56950000D01*
X165531362Y56950000D01*
X165531353Y56949999D01*
X165357484Y56915415D01*
X165357477Y56915412D01*
X165193693Y56847572D01*
X165046285Y56749077D01*
X164920922Y56623714D01*
X164822427Y56476306D01*
X164754587Y56312522D01*
X164754584Y56312515D01*
X164720000Y56138646D01*
X164236900Y56138646D01*
X164236900Y56141050D01*
X164208413Y56320908D01*
X164152141Y56494095D01*
X164069469Y56656348D01*
X164053439Y56678411D01*
X164026555Y56715415D01*
X163962434Y56803670D01*
X163833670Y56932434D01*
X163686348Y57039469D01*
X163524095Y57122141D01*
X163401773Y57161885D01*
X163350918Y57178410D01*
X163350916Y57178410D01*
X163350908Y57178413D01*
X163171050Y57206900D01*
X162988950Y57206900D01*
X162809092Y57178413D01*
X162809084Y57178410D01*
X162809081Y57178410D01*
X162691918Y57140340D01*
X162635905Y57122141D01*
X162473652Y57039469D01*
X162473645Y57039465D01*
X162350506Y56949999D01*
X162326330Y56932434D01*
X162197566Y56803670D01*
X162197563Y56803666D01*
X162197562Y56803665D01*
X162090534Y56656354D01*
X162090530Y56656347D01*
X162007860Y56494097D01*
X162007856Y56494087D01*
X161951589Y56320918D01*
X161951588Y56320912D01*
X161951587Y56320908D01*
X161923100Y56141050D01*
X137551742Y56141050D01*
X137443714Y56249077D01*
X137296306Y56347572D01*
X137132522Y56415412D01*
X137132515Y56415415D01*
X136958646Y56449999D01*
X136958638Y56450000D01*
X136945001Y56450000D01*
X136945000Y56449999D01*
X136945000Y55297541D01*
X136935826Y55300000D01*
X136804174Y55300000D01*
X136795000Y55297541D01*
X136795000Y56449999D01*
X136794999Y56450000D01*
X136781362Y56450000D01*
X136781353Y56449999D01*
X136607484Y56415415D01*
X136607477Y56415412D01*
X136443693Y56347572D01*
X136296285Y56249077D01*
X136170922Y56123714D01*
X136072427Y55976306D01*
X136004587Y55812522D01*
X136004584Y55812515D01*
X135970000Y55638646D01*
X135486900Y55638646D01*
X135486900Y55641050D01*
X135458413Y55820908D01*
X135454266Y55833670D01*
X135420160Y55938638D01*
X135402141Y55994095D01*
X135319469Y56156348D01*
X135212434Y56303670D01*
X135083670Y56432434D01*
X134936348Y56539469D01*
X134774095Y56622141D01*
X134651773Y56661885D01*
X134600918Y56678410D01*
X134600916Y56678410D01*
X134600908Y56678413D01*
X134421050Y56706900D01*
X134238950Y56706900D01*
X134059092Y56678413D01*
X134059084Y56678410D01*
X134059081Y56678410D01*
X133964173Y56647572D01*
X133885905Y56622141D01*
X133742509Y56549077D01*
X133723652Y56539469D01*
X133723645Y56539465D01*
X133600506Y56449999D01*
X133576330Y56432434D01*
X133447566Y56303670D01*
X133447563Y56303666D01*
X133447562Y56303665D01*
X133340534Y56156354D01*
X133340530Y56156347D01*
X133257860Y55994097D01*
X133257856Y55994087D01*
X133201589Y55820918D01*
X133201588Y55820912D01*
X133201587Y55820908D01*
X133173100Y55641050D01*
X94670000Y55641050D01*
X94670000Y55938638D01*
X94669999Y55938646D01*
X94635415Y56112515D01*
X94635412Y56112522D01*
X94567572Y56276306D01*
X94469077Y56423714D01*
X94343714Y56549077D01*
X94196306Y56647572D01*
X94032522Y56715412D01*
X94032515Y56715415D01*
X93858646Y56749999D01*
X93858638Y56750000D01*
X93845001Y56750000D01*
X93845000Y56749999D01*
X93845000Y55597541D01*
X93835826Y55600000D01*
X93704174Y55600000D01*
X93695000Y55597541D01*
X93695000Y56749999D01*
X93694999Y56750000D01*
X93681362Y56750000D01*
X93681353Y56749999D01*
X93507484Y56715415D01*
X93507477Y56715412D01*
X93343693Y56647572D01*
X93196285Y56549077D01*
X93070922Y56423714D01*
X92972427Y56276306D01*
X92904587Y56112522D01*
X92904584Y56112515D01*
X92870000Y55938646D01*
X92386900Y55938646D01*
X92386900Y55941050D01*
X92358413Y56120908D01*
X92357501Y56123714D01*
X92315773Y56252139D01*
X92302141Y56294095D01*
X92219469Y56456348D01*
X92112434Y56603670D01*
X91983670Y56732434D01*
X91836348Y56839469D01*
X91674095Y56922141D01*
X91551773Y56961885D01*
X91500918Y56978410D01*
X91500916Y56978410D01*
X91500908Y56978413D01*
X91321050Y57006900D01*
X91138950Y57006900D01*
X90959092Y56978413D01*
X90959084Y56978410D01*
X90959081Y56978410D01*
X90841918Y56940340D01*
X90785905Y56922141D01*
X90772699Y56915412D01*
X90623652Y56839469D01*
X90623645Y56839465D01*
X90500506Y56749999D01*
X90476330Y56732434D01*
X90347566Y56603670D01*
X90347563Y56603666D01*
X90347562Y56603665D01*
X90240534Y56456354D01*
X90240530Y56456347D01*
X90157860Y56294097D01*
X90157856Y56294087D01*
X90101589Y56120918D01*
X90101588Y56120912D01*
X90101587Y56120908D01*
X90073100Y55941050D01*
X65463053Y55941050D01*
X65452522Y55945412D01*
X65452515Y55945415D01*
X65278646Y55979999D01*
X65278638Y55980000D01*
X65265001Y55980000D01*
X65265000Y55979999D01*
X65265000Y54827541D01*
X65255826Y54830000D01*
X65124174Y54830000D01*
X65115000Y54827541D01*
X65115000Y55979999D01*
X65114999Y55980000D01*
X65101362Y55980000D01*
X65101353Y55979999D01*
X64927484Y55945415D01*
X64927477Y55945412D01*
X64763693Y55877572D01*
X64616285Y55779077D01*
X64490922Y55653714D01*
X64392427Y55506306D01*
X64324587Y55342522D01*
X64324584Y55342515D01*
X64290000Y55168646D01*
X63806900Y55168646D01*
X63806900Y55171050D01*
X63778413Y55350908D01*
X63722141Y55524095D01*
X63639469Y55686348D01*
X63629478Y55700099D01*
X63566811Y55786354D01*
X63532434Y55833670D01*
X63403670Y55962434D01*
X63256348Y56069469D01*
X63094095Y56152141D01*
X62971773Y56191885D01*
X62920918Y56208410D01*
X62920916Y56208410D01*
X62920908Y56208413D01*
X62741050Y56236900D01*
X62558950Y56236900D01*
X62379092Y56208413D01*
X62379084Y56208410D01*
X62379081Y56208410D01*
X62261918Y56170340D01*
X62205905Y56152141D01*
X62128135Y56112515D01*
X62043652Y56069469D01*
X62043645Y56069465D01*
X61915423Y55976306D01*
X61896330Y55962434D01*
X61767566Y55833670D01*
X61767563Y55833666D01*
X61767562Y55833665D01*
X61660534Y55686354D01*
X61660530Y55686347D01*
X61577860Y55524097D01*
X61577856Y55524087D01*
X61521589Y55350918D01*
X61521588Y55350912D01*
X61521587Y55350908D01*
X61493100Y55171050D01*
X300500Y55171050D01*
X300500Y63791047D01*
X231773100Y63791047D01*
X231773100Y62108952D01*
X231801588Y61929087D01*
X231801589Y61929081D01*
X231857856Y61755912D01*
X231857860Y61755902D01*
X231940530Y61593652D01*
X231940534Y61593645D01*
X232047562Y61446334D01*
X232176334Y61317562D01*
X232323645Y61210534D01*
X232323652Y61210530D01*
X232485902Y61127860D01*
X232485912Y61127856D01*
X232659081Y61071589D01*
X232659087Y61071588D01*
X232659090Y61071587D01*
X232659092Y61071587D01*
X232838950Y61043100D01*
X232838953Y61043100D01*
X233021047Y61043100D01*
X233021050Y61043100D01*
X233200908Y61071587D01*
X233200910Y61071587D01*
X233200912Y61071588D01*
X233200918Y61071589D01*
X233374087Y61127856D01*
X233374097Y61127860D01*
X233536347Y61210530D01*
X233536354Y61210534D01*
X233683665Y61317562D01*
X233683666Y61317563D01*
X233683670Y61317566D01*
X233812434Y61446330D01*
X233812437Y61446334D01*
X233919465Y61593645D01*
X233919469Y61593652D01*
X234002139Y61755902D01*
X234002141Y61755905D01*
X234020340Y61811918D01*
X234058410Y61929081D01*
X234058411Y61929087D01*
X234058413Y61929092D01*
X234086900Y62108950D01*
X234086900Y63788646D01*
X234570000Y63788646D01*
X234570000Y63025001D01*
X234570001Y63025000D01*
X234972458Y63025000D01*
X234970000Y63015826D01*
X234970000Y62884174D01*
X234972458Y62875000D01*
X234570001Y62875000D01*
X234570000Y62874999D01*
X234570000Y62111353D01*
X234604584Y61937484D01*
X234604587Y61937477D01*
X234672427Y61773693D01*
X234770922Y61626285D01*
X234896285Y61500922D01*
X235043693Y61402427D01*
X235207477Y61334587D01*
X235207484Y61334584D01*
X235381353Y61300000D01*
X235394999Y61300000D01*
X235395000Y61300001D01*
X235395000Y62452458D01*
X235404174Y62450000D01*
X235535826Y62450000D01*
X235545000Y62452458D01*
X235545000Y61300001D01*
X235545001Y61300000D01*
X235558646Y61300000D01*
X235732515Y61334584D01*
X235732522Y61334587D01*
X235896306Y61402427D01*
X236043714Y61500922D01*
X236169077Y61626285D01*
X236267572Y61773693D01*
X236335412Y61937477D01*
X236335415Y61937484D01*
X236369999Y62111353D01*
X236370000Y62111361D01*
X236370000Y62874999D01*
X236369999Y62875000D01*
X235967542Y62875000D01*
X235970000Y62884174D01*
X235970000Y63015826D01*
X235967542Y63025000D01*
X236369999Y63025000D01*
X236370000Y63025001D01*
X236370000Y63788638D01*
X236369999Y63788646D01*
X236335415Y63962515D01*
X236335412Y63962522D01*
X236267572Y64126306D01*
X236169077Y64273714D01*
X236043714Y64399077D01*
X235896306Y64497572D01*
X235732522Y64565412D01*
X235732515Y64565415D01*
X235558646Y64599999D01*
X235558638Y64600000D01*
X235545001Y64600000D01*
X235545000Y64599999D01*
X235545000Y63447541D01*
X235535826Y63450000D01*
X235404174Y63450000D01*
X235395000Y63447541D01*
X235395000Y64599999D01*
X235394999Y64600000D01*
X235381362Y64600000D01*
X235381353Y64599999D01*
X235207484Y64565415D01*
X235207477Y64565412D01*
X235043693Y64497572D01*
X234896285Y64399077D01*
X234770922Y64273714D01*
X234672427Y64126306D01*
X234604587Y63962522D01*
X234604584Y63962515D01*
X234570000Y63788646D01*
X234086900Y63788646D01*
X234086900Y63791050D01*
X234058413Y63970908D01*
X234002141Y64144095D01*
X233919469Y64306348D01*
X233812434Y64453670D01*
X233683670Y64582434D01*
X233536348Y64689469D01*
X233374095Y64772141D01*
X233225773Y64820334D01*
X233200918Y64828410D01*
X233200916Y64828410D01*
X233200908Y64828413D01*
X233021050Y64856900D01*
X232838950Y64856900D01*
X232659092Y64828413D01*
X232659084Y64828410D01*
X232659081Y64828410D01*
X232541918Y64790340D01*
X232485905Y64772141D01*
X232333145Y64694306D01*
X232323652Y64689469D01*
X232323645Y64689465D01*
X232200506Y64599999D01*
X232176330Y64582434D01*
X232047566Y64453670D01*
X232047563Y64453666D01*
X232047562Y64453665D01*
X231940534Y64306354D01*
X231940530Y64306347D01*
X231857860Y64144097D01*
X231857856Y64144087D01*
X231801589Y63970918D01*
X231801588Y63970912D01*
X231773100Y63791047D01*
X300500Y63791047D01*
X300500Y69016735D01*
X216243100Y69016735D01*
X216243100Y69016733D01*
X216243100Y66483266D01*
X216277643Y66354345D01*
X216344379Y66238756D01*
X217261071Y65322064D01*
X217268100Y65305093D01*
X217268100Y65282834D01*
X217294303Y65151101D01*
X217294306Y65151094D01*
X217345705Y65027002D01*
X217420332Y64915316D01*
X217515316Y64820332D01*
X217627002Y64745705D01*
X217751094Y64694306D01*
X217751101Y64694303D01*
X217882834Y64668100D01*
X217882839Y64668100D01*
X218017165Y64668100D01*
X218148898Y64694303D01*
X218148905Y64694306D01*
X218272997Y64745705D01*
X218384683Y64820332D01*
X218384686Y64820334D01*
X218479666Y64915314D01*
X218554292Y65026999D01*
X218554294Y65027002D01*
X218579993Y65089048D01*
X218605695Y65151097D01*
X218631900Y65282839D01*
X218631900Y65417161D01*
X218605695Y65548903D01*
X218554292Y65673001D01*
X218479666Y65784686D01*
X218384686Y65879666D01*
X218273001Y65954292D01*
X218272998Y65954293D01*
X218272997Y65954294D01*
X218244884Y65965938D01*
X218148903Y66005695D01*
X218017161Y66031900D01*
X218017157Y66031900D01*
X217994907Y66031900D01*
X217977936Y66038929D01*
X217263929Y66752936D01*
X217256900Y66769907D01*
X217256900Y68730093D01*
X217263929Y68747064D01*
X217527936Y69011071D01*
X217544907Y69018100D01*
X217617165Y69018100D01*
X217748898Y69044303D01*
X217748905Y69044306D01*
X217872997Y69095705D01*
X217984683Y69170332D01*
X217984686Y69170334D01*
X218079666Y69265314D01*
X218154292Y69376999D01*
X218154294Y69377002D01*
X218179993Y69439048D01*
X218205695Y69501097D01*
X218231900Y69632839D01*
X218231900Y69767161D01*
X218205695Y69898903D01*
X218154292Y70023001D01*
X218079666Y70134686D01*
X217984686Y70229666D01*
X217873001Y70304292D01*
X217872998Y70304293D01*
X217872997Y70304294D01*
X217844884Y70315938D01*
X217748903Y70355695D01*
X217617161Y70381900D01*
X217482839Y70381900D01*
X217482834Y70381899D01*
X217351101Y70355696D01*
X217351100Y70355695D01*
X217351097Y70355695D01*
X217289048Y70329993D01*
X217227002Y70304294D01*
X217226999Y70304292D01*
X217115314Y70229666D01*
X217020334Y70134686D01*
X217020332Y70134683D01*
X216945705Y70022997D01*
X216894306Y69898905D01*
X216894303Y69898898D01*
X216873940Y69796526D01*
X216867372Y69784237D01*
X216438756Y69355621D01*
X216438755Y69355621D01*
X216348451Y69265316D01*
X216344379Y69261244D01*
X216277644Y69145656D01*
X216243100Y69016735D01*
X300500Y69016735D01*
X300500Y85900564D01*
X8318800Y85900564D01*
X8318800Y85885801D01*
X8318801Y85885800D01*
X9791580Y85885800D01*
X9789600Y85875844D01*
X9789600Y85745756D01*
X9791580Y85735800D01*
X8318801Y85735800D01*
X8318800Y85735799D01*
X8318800Y85721035D01*
X8346886Y85543704D01*
X8346887Y85543698D01*
X8402361Y85372969D01*
X8402365Y85372959D01*
X8483870Y85212995D01*
X8483874Y85212988D01*
X8589395Y85067753D01*
X8716353Y84940795D01*
X8861588Y84835274D01*
X8861595Y84835270D01*
X9021559Y84753765D01*
X9021569Y84753761D01*
X9192298Y84698287D01*
X9192304Y84698286D01*
X9369636Y84670200D01*
X10374999Y84670200D01*
X10375000Y84670201D01*
X10375000Y85152380D01*
X10384956Y85150400D01*
X10515044Y85150400D01*
X10525000Y85152380D01*
X10525000Y84670201D01*
X10525001Y84670200D01*
X11530364Y84670200D01*
X11707695Y84698286D01*
X11707701Y84698287D01*
X11878430Y84753761D01*
X11878440Y84753765D01*
X12038404Y84835270D01*
X12038411Y84835274D01*
X12183646Y84940795D01*
X12310604Y85067753D01*
X12416125Y85212988D01*
X12416129Y85212995D01*
X12497634Y85372959D01*
X12497638Y85372969D01*
X12553112Y85543698D01*
X12553113Y85543704D01*
X12581200Y85721035D01*
X12581200Y85735799D01*
X12581199Y85735800D01*
X11108420Y85735800D01*
X11110400Y85745756D01*
X11110400Y85875844D01*
X11108420Y85885800D01*
X12581199Y85885800D01*
X12581200Y85885801D01*
X12581200Y85900564D01*
X12553113Y86077895D01*
X12553112Y86077901D01*
X12497638Y86248630D01*
X12497634Y86248640D01*
X12416129Y86408604D01*
X12416125Y86408611D01*
X12310604Y86553846D01*
X12183646Y86680804D01*
X12038411Y86786325D01*
X12038404Y86786329D01*
X11878440Y86867834D01*
X11878430Y86867838D01*
X11707701Y86923312D01*
X11707695Y86923313D01*
X11530364Y86951400D01*
X10525001Y86951400D01*
X10525000Y86951399D01*
X10525000Y86469219D01*
X10515044Y86471200D01*
X10384956Y86471200D01*
X10375000Y86469219D01*
X10375000Y86951399D01*
X10374999Y86951400D01*
X9369636Y86951400D01*
X9192304Y86923313D01*
X9192298Y86923312D01*
X9021569Y86867838D01*
X9021559Y86867834D01*
X8861595Y86786329D01*
X8861588Y86786325D01*
X8716353Y86680804D01*
X8589395Y86553846D01*
X8483874Y86408611D01*
X8483870Y86408604D01*
X8402365Y86248640D01*
X8402361Y86248630D01*
X8346887Y86077901D01*
X8346886Y86077895D01*
X8318800Y85900564D01*
X300500Y85900564D01*
X300500Y90924583D01*
X8061900Y90924583D01*
X8061900Y90704616D01*
X8096312Y90487346D01*
X8096313Y90487340D01*
X8164283Y90278153D01*
X8164287Y90278143D01*
X8264150Y90082151D01*
X8264154Y90082144D01*
X8393443Y89904194D01*
X8548994Y89748643D01*
X8726944Y89619354D01*
X8726951Y89619350D01*
X8922943Y89519487D01*
X8922953Y89519483D01*
X9132140Y89451513D01*
X9132146Y89451512D01*
X9132149Y89451511D01*
X9132151Y89451511D01*
X9349414Y89417100D01*
X9349417Y89417100D01*
X11550583Y89417100D01*
X11550586Y89417100D01*
X11767849Y89451511D01*
X11767851Y89451511D01*
X11767853Y89451512D01*
X11767859Y89451513D01*
X11977046Y89519483D01*
X11977056Y89519487D01*
X12173048Y89619350D01*
X12173055Y89619354D01*
X12351005Y89748643D01*
X12351006Y89748644D01*
X12351010Y89748647D01*
X12506553Y89904190D01*
X12506556Y89904194D01*
X12635845Y90082144D01*
X12635849Y90082151D01*
X12735712Y90278143D01*
X12735714Y90278146D01*
X12757698Y90345808D01*
X12803686Y90487340D01*
X12803687Y90487346D01*
X12803689Y90487351D01*
X12838100Y90704614D01*
X12838100Y90924586D01*
X12803689Y91141849D01*
X12735714Y91351054D01*
X12635849Y91547049D01*
X12506553Y91725010D01*
X12351010Y91880553D01*
X12173049Y92009849D01*
X11977054Y92109714D01*
X11829292Y92157724D01*
X11767859Y92177686D01*
X11767857Y92177686D01*
X11767849Y92177689D01*
X11550586Y92212100D01*
X9349414Y92212100D01*
X9132151Y92177689D01*
X9132143Y92177686D01*
X9132140Y92177686D01*
X8990608Y92131698D01*
X8922946Y92109714D01*
X8726951Y92009849D01*
X8726944Y92009845D01*
X8548994Y91880556D01*
X8548990Y91880553D01*
X8393447Y91725010D01*
X8393444Y91725006D01*
X8393443Y91725005D01*
X8264154Y91547055D01*
X8264150Y91547048D01*
X8164287Y91351056D01*
X8164283Y91351046D01*
X8096313Y91141859D01*
X8096312Y91141853D01*
X8061900Y90924583D01*
X300500Y90924583D01*
X300500Y108934401D01*
X175593100Y108934401D01*
X175593100Y108765598D01*
X175626028Y108600056D01*
X175626030Y108600049D01*
X175690622Y108444109D01*
X175784400Y108303760D01*
X175903760Y108184400D01*
X176044109Y108090622D01*
X176200049Y108026030D01*
X176200056Y108026028D01*
X176365598Y107993100D01*
X176365603Y107993100D01*
X176579477Y107993100D01*
X176735359Y108024107D01*
X176735366Y108024109D01*
X176776801Y108041273D01*
X176785985Y108043100D01*
X184220527Y108043100D01*
X184504068Y108043100D01*
X184513252Y108041273D01*
X184550049Y108026031D01*
X184550056Y108026028D01*
X184715598Y107993100D01*
X184715603Y107993100D01*
X184884401Y107993100D01*
X185049943Y108026028D01*
X185049950Y108026030D01*
X185055862Y108028479D01*
X255711099Y108028479D01*
X255711099Y107311520D01*
X255711099Y107311518D01*
X255717411Y107258196D01*
X255717412Y107258194D01*
X255717412Y107258193D01*
X255766733Y107139118D01*
X255766735Y107139115D01*
X255799977Y107096947D01*
X256306946Y106589978D01*
X256349115Y106556735D01*
X256349118Y106556733D01*
X256468193Y106507412D01*
X256468193Y106507411D01*
X256468196Y106507411D01*
X256507198Y106502794D01*
X256521515Y106501100D01*
X256521520Y106501099D01*
X257238481Y106501099D01*
X257238482Y106501099D01*
X257291804Y106507411D01*
X257310370Y106515101D01*
X257410881Y106556733D01*
X257410884Y106556735D01*
X257410886Y106556736D01*
X257435202Y106575905D01*
X257453052Y106589977D01*
X257960021Y107096946D01*
X257960022Y107096947D01*
X257960024Y107096949D01*
X257993264Y107139114D01*
X258042589Y107258196D01*
X258048900Y107311517D01*
X258048901Y108028479D01*
X258251099Y108028479D01*
X258251099Y107311520D01*
X258251099Y107311518D01*
X258257411Y107258196D01*
X258257412Y107258194D01*
X258257412Y107258193D01*
X258306733Y107139118D01*
X258306735Y107139115D01*
X258339977Y107096947D01*
X258846946Y106589978D01*
X258889115Y106556735D01*
X258889118Y106556733D01*
X259008193Y106507412D01*
X259008193Y106507411D01*
X259008196Y106507411D01*
X259047198Y106502794D01*
X259061515Y106501100D01*
X259061520Y106501099D01*
X259778481Y106501099D01*
X259778482Y106501099D01*
X259831804Y106507411D01*
X259850370Y106515101D01*
X259950881Y106556733D01*
X259950884Y106556735D01*
X259950886Y106556736D01*
X259975202Y106575905D01*
X259993052Y106589977D01*
X260500021Y107096946D01*
X260500022Y107096947D01*
X260500024Y107096949D01*
X260533264Y107139114D01*
X260582589Y107258196D01*
X260588900Y107311517D01*
X260588901Y108028482D01*
X260582589Y108081804D01*
X260533264Y108200886D01*
X260500021Y108243054D01*
X259993051Y108750024D01*
X259950886Y108783264D01*
X259831804Y108832589D01*
X259778483Y108838900D01*
X259061518Y108838901D01*
X259008196Y108832589D01*
X258926247Y108798644D01*
X258889118Y108783266D01*
X258889116Y108783265D01*
X258889114Y108783264D01*
X258866705Y108765598D01*
X258846982Y108750049D01*
X258846946Y108750021D01*
X258339976Y108243051D01*
X258306736Y108200886D01*
X258306735Y108200884D01*
X258306733Y108200881D01*
X258257412Y108081807D01*
X258257411Y108081804D01*
X258252830Y108043100D01*
X258251100Y108028484D01*
X258251099Y108028479D01*
X258048901Y108028479D01*
X258048901Y108028482D01*
X258042589Y108081804D01*
X257993264Y108200886D01*
X257960021Y108243054D01*
X257453051Y108750024D01*
X257410886Y108783264D01*
X257291804Y108832589D01*
X257238483Y108838900D01*
X256521518Y108838901D01*
X256468196Y108832589D01*
X256386247Y108798644D01*
X256349118Y108783266D01*
X256349116Y108783265D01*
X256349114Y108783264D01*
X256326705Y108765598D01*
X256306982Y108750049D01*
X256306946Y108750021D01*
X255799976Y108243051D01*
X255766736Y108200886D01*
X255766735Y108200884D01*
X255766733Y108200881D01*
X255717412Y108081807D01*
X255717411Y108081804D01*
X255712830Y108043100D01*
X255711100Y108028484D01*
X255711099Y108028479D01*
X185055862Y108028479D01*
X185205890Y108090622D01*
X185346239Y108184400D01*
X185346242Y108184402D01*
X185465598Y108303758D01*
X185559375Y108444106D01*
X185559377Y108444109D01*
X185623969Y108600049D01*
X185623971Y108600056D01*
X185656899Y108765598D01*
X185656900Y108765606D01*
X185656900Y108934393D01*
X185656899Y108934401D01*
X185638673Y109026028D01*
X185627062Y109084401D01*
X212143100Y109084401D01*
X212143100Y108915598D01*
X212176028Y108750056D01*
X212176030Y108750049D01*
X212240622Y108594109D01*
X212334400Y108453760D01*
X212453760Y108334400D01*
X212594109Y108240622D01*
X212750049Y108176030D01*
X212750056Y108176028D01*
X212915598Y108143100D01*
X212915603Y108143100D01*
X213084401Y108143100D01*
X213249943Y108176028D01*
X213249950Y108176031D01*
X213286748Y108191273D01*
X213295932Y108193100D01*
X220120527Y108193100D01*
X221104068Y108193100D01*
X221113252Y108191273D01*
X221150049Y108176031D01*
X221150056Y108176028D01*
X221315598Y108143100D01*
X221315603Y108143100D01*
X221484401Y108143100D01*
X221649943Y108176028D01*
X221649950Y108176030D01*
X221805890Y108240622D01*
X221946239Y108334400D01*
X221946242Y108334402D01*
X222065598Y108453758D01*
X222159375Y108594106D01*
X222159377Y108594109D01*
X222223969Y108750049D01*
X222223971Y108750056D01*
X222256899Y108915598D01*
X222256900Y108915606D01*
X222256900Y109084393D01*
X222256899Y109084401D01*
X222254445Y109096736D01*
X222223970Y109249948D01*
X222201680Y109303760D01*
X222159377Y109405890D01*
X222159376Y109405891D01*
X222159375Y109405894D01*
X222065598Y109546242D01*
X221946242Y109665598D01*
X221805894Y109759375D01*
X221805891Y109759376D01*
X221805890Y109759377D01*
X221670160Y109815598D01*
X221649948Y109823970D01*
X221615108Y109830900D01*
X221511459Y109851517D01*
X221484397Y109856900D01*
X221315603Y109856900D01*
X221315598Y109856899D01*
X221150056Y109823971D01*
X221150055Y109823970D01*
X221150052Y109823970D01*
X221125811Y109813929D01*
X221113252Y109808727D01*
X221104068Y109806900D01*
X220930900Y109806900D01*
X220913929Y109813929D01*
X220906900Y109830900D01*
X220906900Y110568479D01*
X255711099Y110568479D01*
X255711099Y110200056D01*
X255711099Y109851518D01*
X255717411Y109798196D01*
X255717412Y109798194D01*
X255717412Y109798193D01*
X255766733Y109679118D01*
X255766735Y109679115D01*
X255799977Y109636947D01*
X256306946Y109129978D01*
X256349115Y109096735D01*
X256349118Y109096733D01*
X256468193Y109047412D01*
X256468193Y109047411D01*
X256468196Y109047411D01*
X256507198Y109042794D01*
X256521515Y109041100D01*
X256521520Y109041099D01*
X257238481Y109041099D01*
X257238482Y109041099D01*
X257291804Y109047411D01*
X257310370Y109055101D01*
X257410881Y109096733D01*
X257410884Y109096735D01*
X257410886Y109096736D01*
X257435202Y109115905D01*
X257453052Y109129977D01*
X257960021Y109636946D01*
X257960022Y109636947D01*
X257960024Y109636949D01*
X257993264Y109679114D01*
X258042589Y109798196D01*
X258048900Y109851517D01*
X258048901Y110568479D01*
X258251099Y110568479D01*
X258251099Y110200056D01*
X258251099Y109851518D01*
X258257411Y109798196D01*
X258257412Y109798194D01*
X258257412Y109798193D01*
X258306733Y109679118D01*
X258306735Y109679115D01*
X258339977Y109636947D01*
X258846946Y109129978D01*
X258889115Y109096735D01*
X258889118Y109096733D01*
X259008193Y109047412D01*
X259008193Y109047411D01*
X259008196Y109047411D01*
X259047198Y109042794D01*
X259061515Y109041100D01*
X259061520Y109041099D01*
X259778481Y109041099D01*
X259778482Y109041099D01*
X259831804Y109047411D01*
X259850370Y109055101D01*
X259950881Y109096733D01*
X259950884Y109096735D01*
X259950886Y109096736D01*
X259975202Y109115905D01*
X259993052Y109129977D01*
X260500021Y109636946D01*
X260500022Y109636947D01*
X260500024Y109636949D01*
X260533264Y109679114D01*
X260582589Y109798196D01*
X260588900Y109851517D01*
X260588901Y110568482D01*
X260582589Y110621804D01*
X260533264Y110740886D01*
X260500021Y110783054D01*
X259993051Y111290024D01*
X259950886Y111323264D01*
X259831804Y111372589D01*
X259778483Y111378900D01*
X259061518Y111378901D01*
X259008196Y111372589D01*
X258926247Y111338644D01*
X258889118Y111323266D01*
X258889116Y111323265D01*
X258889114Y111323264D01*
X258846946Y111290021D01*
X258339976Y110783051D01*
X258306736Y110740886D01*
X258306735Y110740884D01*
X258306733Y110740881D01*
X258272786Y110658924D01*
X258257411Y110621804D01*
X258251847Y110574795D01*
X258251100Y110568484D01*
X258251099Y110568479D01*
X258048901Y110568479D01*
X258048901Y110568482D01*
X258042589Y110621804D01*
X257993264Y110740886D01*
X257960021Y110783054D01*
X257453051Y111290024D01*
X257410886Y111323264D01*
X257291804Y111372589D01*
X257238483Y111378900D01*
X256521518Y111378901D01*
X256468196Y111372589D01*
X256386247Y111338644D01*
X256349118Y111323266D01*
X256349116Y111323265D01*
X256349114Y111323264D01*
X256306946Y111290021D01*
X255799976Y110783051D01*
X255766736Y110740886D01*
X255766735Y110740884D01*
X255766733Y110740881D01*
X255732786Y110658924D01*
X255717411Y110621804D01*
X255711847Y110574795D01*
X255711100Y110568484D01*
X255711099Y110568479D01*
X220906900Y110568479D01*
X220906900Y111697251D01*
X220913929Y111714222D01*
X222308186Y113108479D01*
X255711099Y113108479D01*
X255711099Y112664222D01*
X255711099Y112391518D01*
X255717411Y112338196D01*
X255717412Y112338194D01*
X255717412Y112338193D01*
X255766733Y112219118D01*
X255766735Y112219115D01*
X255799977Y112176947D01*
X256306946Y111669978D01*
X256349115Y111636735D01*
X256349118Y111636733D01*
X256468193Y111587412D01*
X256468193Y111587411D01*
X256468196Y111587411D01*
X256507198Y111582794D01*
X256521515Y111581100D01*
X256521520Y111581099D01*
X257238481Y111581099D01*
X257238482Y111581099D01*
X257291804Y111587411D01*
X257310370Y111595101D01*
X257410881Y111636733D01*
X257410884Y111636735D01*
X257410886Y111636736D01*
X257435202Y111655905D01*
X257453052Y111669977D01*
X257960021Y112176946D01*
X257960022Y112176947D01*
X257960024Y112176949D01*
X257993264Y112219114D01*
X258042589Y112338196D01*
X258048900Y112391517D01*
X258048901Y113108479D01*
X258251099Y113108479D01*
X258251099Y112664222D01*
X258251099Y112391518D01*
X258257411Y112338196D01*
X258257412Y112338194D01*
X258257412Y112338193D01*
X258306733Y112219118D01*
X258306735Y112219115D01*
X258339977Y112176947D01*
X258846946Y111669978D01*
X258889115Y111636735D01*
X258889118Y111636733D01*
X259008193Y111587412D01*
X259008193Y111587411D01*
X259008196Y111587411D01*
X259047198Y111582794D01*
X259061515Y111581100D01*
X259061520Y111581099D01*
X259778481Y111581099D01*
X259778482Y111581099D01*
X259831804Y111587411D01*
X259850370Y111595101D01*
X259950881Y111636733D01*
X259950884Y111636735D01*
X259950886Y111636736D01*
X259975202Y111655905D01*
X259993052Y111669977D01*
X260500021Y112176946D01*
X260500022Y112176947D01*
X260500024Y112176949D01*
X260533264Y112219114D01*
X260582589Y112338196D01*
X260588900Y112391517D01*
X260588901Y113108482D01*
X260582589Y113161804D01*
X260533264Y113280886D01*
X260500021Y113323054D01*
X259993051Y113830024D01*
X259950886Y113863264D01*
X259831804Y113912589D01*
X259778483Y113918900D01*
X259061518Y113918901D01*
X259008196Y113912589D01*
X258941211Y113884843D01*
X258889118Y113863266D01*
X258889116Y113863265D01*
X258889114Y113863264D01*
X258846946Y113830021D01*
X258339976Y113323051D01*
X258306736Y113280886D01*
X258306735Y113280884D01*
X258306733Y113280881D01*
X258272974Y113199377D01*
X258257411Y113161804D01*
X258251847Y113114795D01*
X258251100Y113108484D01*
X258251099Y113108479D01*
X258048901Y113108479D01*
X258048901Y113108482D01*
X258042589Y113161804D01*
X257993264Y113280886D01*
X257960021Y113323054D01*
X257453051Y113830024D01*
X257410886Y113863264D01*
X257291804Y113912589D01*
X257238483Y113918900D01*
X256521518Y113918901D01*
X256468196Y113912589D01*
X256401211Y113884843D01*
X256349118Y113863266D01*
X256349116Y113863265D01*
X256349114Y113863264D01*
X256306946Y113830021D01*
X255799976Y113323051D01*
X255766736Y113280886D01*
X255766735Y113280884D01*
X255766733Y113280881D01*
X255732974Y113199377D01*
X255717411Y113161804D01*
X255711847Y113114795D01*
X255711100Y113108484D01*
X255711099Y113108479D01*
X222308186Y113108479D01*
X223885778Y114686071D01*
X223902749Y114693100D01*
X224769628Y114693100D01*
X224906190Y114720264D01*
X224906197Y114720266D01*
X225034839Y114773551D01*
X225150619Y114850913D01*
X225150622Y114850915D01*
X225249085Y114949378D01*
X225326446Y115065157D01*
X225326448Y115065160D01*
X225379733Y115193802D01*
X225379735Y115193809D01*
X225406899Y115330371D01*
X225406900Y115330379D01*
X225406900Y115469620D01*
X225406899Y115469628D01*
X225379735Y115606190D01*
X225379733Y115606197D01*
X225362219Y115648479D01*
X255711099Y115648479D01*
X255711099Y115256900D01*
X255711099Y114931518D01*
X255717411Y114878196D01*
X255717412Y114878194D01*
X255717412Y114878193D01*
X255766733Y114759118D01*
X255766735Y114759115D01*
X255799977Y114716947D01*
X256306946Y114209978D01*
X256349115Y114176735D01*
X256349118Y114176733D01*
X256468193Y114127412D01*
X256468193Y114127411D01*
X256468196Y114127411D01*
X256507198Y114122794D01*
X256521515Y114121100D01*
X256521520Y114121099D01*
X257238481Y114121099D01*
X257238482Y114121099D01*
X257291804Y114127411D01*
X257310370Y114135101D01*
X257410881Y114176733D01*
X257410884Y114176735D01*
X257410886Y114176736D01*
X257439235Y114199085D01*
X257453052Y114209977D01*
X257960021Y114716946D01*
X257960022Y114716947D01*
X257960024Y114716949D01*
X257993264Y114759114D01*
X258042589Y114878196D01*
X258048900Y114931517D01*
X258048901Y115648479D01*
X258251099Y115648479D01*
X258251099Y115256900D01*
X258251099Y114931518D01*
X258257411Y114878196D01*
X258257412Y114878194D01*
X258257412Y114878193D01*
X258306733Y114759118D01*
X258306735Y114759115D01*
X258339977Y114716947D01*
X258846946Y114209978D01*
X258889115Y114176735D01*
X258889118Y114176733D01*
X259008193Y114127412D01*
X259008193Y114127411D01*
X259008196Y114127411D01*
X259047198Y114122794D01*
X259061515Y114121100D01*
X259061520Y114121099D01*
X259778481Y114121099D01*
X259778482Y114121099D01*
X259831804Y114127411D01*
X259850370Y114135101D01*
X259950881Y114176733D01*
X259950884Y114176735D01*
X259950886Y114176736D01*
X259979235Y114199085D01*
X259993052Y114209977D01*
X260500021Y114716946D01*
X260500022Y114716947D01*
X260500024Y114716949D01*
X260533264Y114759114D01*
X260582589Y114878196D01*
X260588900Y114931517D01*
X260588901Y115648482D01*
X260582589Y115701804D01*
X260533264Y115820886D01*
X260500021Y115863054D01*
X259993051Y116370024D01*
X259950886Y116403264D01*
X259831804Y116452589D01*
X259778483Y116458900D01*
X259061518Y116458901D01*
X259008196Y116452589D01*
X258926247Y116418644D01*
X258889118Y116403266D01*
X258889116Y116403265D01*
X258889114Y116403264D01*
X258846946Y116370021D01*
X258339976Y115863051D01*
X258306736Y115820886D01*
X258306735Y115820884D01*
X258306733Y115820881D01*
X258262942Y115715158D01*
X258257411Y115701804D01*
X258251847Y115654795D01*
X258251100Y115648484D01*
X258251099Y115648479D01*
X258048901Y115648479D01*
X258048901Y115648482D01*
X258042589Y115701804D01*
X257993264Y115820886D01*
X257960021Y115863054D01*
X257453051Y116370024D01*
X257410886Y116403264D01*
X257291804Y116452589D01*
X257238483Y116458900D01*
X256521518Y116458901D01*
X256468196Y116452589D01*
X256386247Y116418644D01*
X256349118Y116403266D01*
X256349116Y116403265D01*
X256349114Y116403264D01*
X256306946Y116370021D01*
X255799976Y115863051D01*
X255766736Y115820886D01*
X255766735Y115820884D01*
X255766733Y115820881D01*
X255722942Y115715158D01*
X255717411Y115701804D01*
X255711847Y115654795D01*
X255711100Y115648484D01*
X255711099Y115648479D01*
X225362219Y115648479D01*
X225326448Y115734839D01*
X225326447Y115734840D01*
X225326446Y115734843D01*
X225249085Y115850622D01*
X225150622Y115949085D01*
X225034843Y116026446D01*
X225034840Y116026447D01*
X225034839Y116026448D01*
X224906197Y116079733D01*
X224906195Y116079734D01*
X224769624Y116106900D01*
X223669624Y116106900D01*
X223530376Y116106900D01*
X223530371Y116106899D01*
X223393809Y116079735D01*
X223393806Y116079734D01*
X223393805Y116079734D01*
X223393803Y116079733D01*
X223393802Y116079733D01*
X223265160Y116026448D01*
X223265157Y116026446D01*
X223149378Y115949085D01*
X219749378Y112549085D01*
X219749377Y112549085D01*
X219650918Y112450625D01*
X219650913Y112450619D01*
X219573551Y112334839D01*
X219520266Y112206197D01*
X219520264Y112206190D01*
X219493100Y112069628D01*
X219493100Y109830900D01*
X219486071Y109813929D01*
X219469100Y109806900D01*
X213295932Y109806900D01*
X213286748Y109808727D01*
X213249948Y109823970D01*
X213084397Y109856900D01*
X212915603Y109856900D01*
X212915598Y109856899D01*
X212750056Y109823971D01*
X212750053Y109823970D01*
X212750052Y109823970D01*
X212750050Y109823969D01*
X212750049Y109823969D01*
X212594109Y109759377D01*
X212594106Y109759375D01*
X212453758Y109665598D01*
X212334402Y109546242D01*
X212334400Y109546239D01*
X212240622Y109405890D01*
X212176030Y109249950D01*
X212176028Y109249943D01*
X212143100Y109084401D01*
X185627062Y109084401D01*
X185623970Y109099948D01*
X185568278Y109234400D01*
X185559377Y109255890D01*
X185559376Y109255891D01*
X185559375Y109255894D01*
X185465598Y109396242D01*
X185346242Y109515598D01*
X185205894Y109609375D01*
X185205891Y109609376D01*
X185205890Y109609377D01*
X185107681Y109650056D01*
X185049948Y109673970D01*
X185026217Y109678689D01*
X185010945Y109688893D01*
X185006900Y109702228D01*
X185006900Y113247250D01*
X185013929Y113264221D01*
X185585779Y113836071D01*
X185602750Y113843100D01*
X187769628Y113843100D01*
X187906190Y113870264D01*
X187906197Y113870266D01*
X188034839Y113923551D01*
X188150619Y114000913D01*
X188150622Y114000915D01*
X188249085Y114099378D01*
X188326446Y114215157D01*
X188326448Y114215160D01*
X188379733Y114343802D01*
X188379735Y114343809D01*
X188406899Y114480371D01*
X188406900Y114480379D01*
X188406900Y114619620D01*
X188406899Y114619628D01*
X188398655Y114661071D01*
X188379734Y114756195D01*
X188350855Y114825915D01*
X188326448Y114884839D01*
X188326447Y114884840D01*
X188326446Y114884843D01*
X188249085Y115000622D01*
X188150622Y115099085D01*
X188034843Y115176446D01*
X188034840Y115176447D01*
X188034839Y115176448D01*
X187906197Y115229733D01*
X187906195Y115229734D01*
X187769624Y115256900D01*
X185230376Y115256900D01*
X185230371Y115256899D01*
X185093809Y115229735D01*
X185093806Y115229734D01*
X185093805Y115229734D01*
X185093803Y115229733D01*
X185093802Y115229733D01*
X185042274Y115208389D01*
X184965161Y115176449D01*
X184965160Y115176448D01*
X184965158Y115176447D01*
X184849378Y115099086D01*
X183849378Y114099085D01*
X183849377Y114099085D01*
X183750918Y114000625D01*
X183750913Y114000619D01*
X183673551Y113884839D01*
X183620266Y113756197D01*
X183620264Y113756190D01*
X183593100Y113619628D01*
X183593100Y109680900D01*
X183586071Y109663929D01*
X183569100Y109656900D01*
X176745932Y109656900D01*
X176736748Y109658727D01*
X176699948Y109673970D01*
X176534397Y109706900D01*
X176365603Y109706900D01*
X176365598Y109706899D01*
X176200056Y109673971D01*
X176200053Y109673970D01*
X176200052Y109673970D01*
X176200050Y109673969D01*
X176200049Y109673969D01*
X176044109Y109609377D01*
X176044106Y109609375D01*
X175903758Y109515598D01*
X175784402Y109396242D01*
X175784400Y109396239D01*
X175690622Y109255890D01*
X175626030Y109099950D01*
X175626028Y109099943D01*
X175593100Y108934401D01*
X300500Y108934401D01*
X300500Y110534401D01*
X96693100Y110534401D01*
X96693100Y110365598D01*
X96726028Y110200056D01*
X96726030Y110200049D01*
X96790622Y110044109D01*
X96884400Y109903760D01*
X97003760Y109784400D01*
X97144109Y109690622D01*
X97300049Y109626030D01*
X97300056Y109626028D01*
X97465598Y109593100D01*
X97465603Y109593100D01*
X97634401Y109593100D01*
X97757763Y109617639D01*
X97762445Y109618100D01*
X104670527Y109618100D01*
X105179068Y109618100D01*
X105188252Y109616273D01*
X105225049Y109601031D01*
X105225056Y109601028D01*
X105390598Y109568100D01*
X105390603Y109568100D01*
X105559401Y109568100D01*
X105724943Y109601028D01*
X105724950Y109601030D01*
X105880890Y109665622D01*
X106021239Y109759400D01*
X106021242Y109759402D01*
X106140598Y109878758D01*
X106211186Y109984401D01*
X133493100Y109984401D01*
X133493100Y109815598D01*
X133526028Y109650056D01*
X133526030Y109650049D01*
X133590622Y109494109D01*
X133684400Y109353760D01*
X133803760Y109234400D01*
X133944109Y109140622D01*
X134100049Y109076030D01*
X134100056Y109076028D01*
X134265598Y109043100D01*
X134265603Y109043100D01*
X134270527Y109043100D01*
X134429473Y109043100D01*
X141470527Y109043100D01*
X142154068Y109043100D01*
X142163251Y109041273D01*
X142163672Y109041099D01*
X142200049Y109026031D01*
X142200056Y109026028D01*
X142365598Y108993100D01*
X142365603Y108993100D01*
X142534401Y108993100D01*
X142699943Y109026028D01*
X142699950Y109026030D01*
X142855890Y109090622D01*
X142996239Y109184400D01*
X142996242Y109184402D01*
X143115598Y109303758D01*
X143209375Y109444106D01*
X143209377Y109444109D01*
X143273969Y109600049D01*
X143273971Y109600056D01*
X143306899Y109765598D01*
X143306900Y109765606D01*
X143306900Y109934393D01*
X143306899Y109934401D01*
X143296953Y109984401D01*
X143273970Y110099948D01*
X143209375Y110255894D01*
X143115598Y110396242D01*
X142996242Y110515598D01*
X142855894Y110609375D01*
X142855891Y110609376D01*
X142855890Y110609377D01*
X142735183Y110659375D01*
X142699948Y110673970D01*
X142534397Y110706900D01*
X142365603Y110706900D01*
X142285581Y110690982D01*
X142267567Y110694566D01*
X142257361Y110709839D01*
X142256900Y110714521D01*
X142256900Y112647251D01*
X142263929Y112664222D01*
X144260778Y114661071D01*
X144277749Y114668100D01*
X145444628Y114668100D01*
X145581190Y114695264D01*
X145581197Y114695266D01*
X145709839Y114748551D01*
X145825619Y114825913D01*
X145825622Y114825915D01*
X145924085Y114924378D01*
X146001446Y115040157D01*
X146001448Y115040160D01*
X146054733Y115168802D01*
X146054735Y115168809D01*
X146081899Y115305371D01*
X146081900Y115305379D01*
X146081900Y115444620D01*
X146081899Y115444628D01*
X146054735Y115581190D01*
X146054733Y115581197D01*
X146001448Y115709839D01*
X146001447Y115709840D01*
X146001446Y115709843D01*
X145924085Y115825622D01*
X145825622Y115924085D01*
X145709843Y116001446D01*
X145709840Y116001447D01*
X145709839Y116001448D01*
X145581197Y116054733D01*
X145581195Y116054734D01*
X145444624Y116081900D01*
X143905376Y116081900D01*
X143905371Y116081899D01*
X143768809Y116054735D01*
X143768806Y116054734D01*
X143768805Y116054734D01*
X143768803Y116054733D01*
X143768802Y116054733D01*
X143640160Y116001448D01*
X143640157Y116001446D01*
X143524378Y115924085D01*
X141099378Y113499085D01*
X141099377Y113499085D01*
X141000918Y113400625D01*
X141000913Y113400619D01*
X140923551Y113284839D01*
X140870266Y113156197D01*
X140870264Y113156190D01*
X140843100Y113019628D01*
X140843100Y110680900D01*
X140836071Y110663929D01*
X140819100Y110656900D01*
X134766536Y110656900D01*
X134757123Y110659260D01*
X134756984Y110658924D01*
X134599950Y110723969D01*
X134599948Y110723970D01*
X134434397Y110756900D01*
X134265603Y110756900D01*
X134265598Y110756899D01*
X134100056Y110723971D01*
X134100053Y110723970D01*
X134100052Y110723970D01*
X134100050Y110723969D01*
X134100049Y110723969D01*
X133944109Y110659377D01*
X133944106Y110659375D01*
X133803758Y110565598D01*
X133684402Y110446242D01*
X133684400Y110446239D01*
X133590622Y110305890D01*
X133526030Y110149950D01*
X133526028Y110149943D01*
X133493100Y109984401D01*
X106211186Y109984401D01*
X106234375Y110019106D01*
X106234377Y110019109D01*
X106298969Y110175049D01*
X106298971Y110175056D01*
X106331899Y110340598D01*
X106331900Y110340606D01*
X106331900Y110509393D01*
X106331899Y110509401D01*
X106330666Y110515598D01*
X106298970Y110674948D01*
X106254192Y110783052D01*
X106234377Y110830890D01*
X106234376Y110830891D01*
X106234375Y110830894D01*
X106140598Y110971242D01*
X106021242Y111090598D01*
X105880894Y111184375D01*
X105880891Y111184376D01*
X105880890Y111184377D01*
X105724950Y111248969D01*
X105724948Y111248970D01*
X105559397Y111281900D01*
X105559393Y111281900D01*
X105480900Y111281900D01*
X105463929Y111288929D01*
X105456900Y111305900D01*
X105456900Y112399338D01*
X105463929Y112416309D01*
X106022777Y112975157D01*
X106030563Y112980359D01*
X106134840Y113023552D01*
X106250619Y113100913D01*
X106250622Y113100915D01*
X106258191Y113108484D01*
X106349085Y113199377D01*
X106349085Y113199378D01*
X107493516Y114343809D01*
X108749086Y115599378D01*
X108826447Y115715158D01*
X108826449Y115715161D01*
X108870238Y115820881D01*
X108879734Y115843806D01*
X108883563Y115863052D01*
X108906899Y115980371D01*
X108906900Y115980379D01*
X108906900Y116119620D01*
X108906899Y116119628D01*
X108879735Y116256190D01*
X108879734Y116256190D01*
X108879734Y116256195D01*
X108838520Y116355695D01*
X108826449Y116384839D01*
X108826448Y116384840D01*
X108826447Y116384843D01*
X108749086Y116500622D01*
X108650622Y116599086D01*
X108534843Y116676447D01*
X108534840Y116676448D01*
X108534839Y116676449D01*
X108505695Y116688520D01*
X108406195Y116729734D01*
X108269624Y116756900D01*
X108130376Y116756900D01*
X108130371Y116756899D01*
X107993810Y116729735D01*
X107993809Y116729734D01*
X107993806Y116729734D01*
X107929482Y116703090D01*
X107865161Y116676449D01*
X107865158Y116676447D01*
X107749378Y116599086D01*
X106594921Y115444628D01*
X105475134Y114324841D01*
X105467347Y114319639D01*
X105363072Y114276448D01*
X105363069Y114276446D01*
X105247290Y114199085D01*
X104200914Y113152709D01*
X104123553Y113036929D01*
X104123552Y113036926D01*
X104108636Y113000915D01*
X104070266Y112908284D01*
X104070264Y112908277D01*
X104043100Y112771715D01*
X104043100Y111255900D01*
X104036071Y111238929D01*
X104019100Y111231900D01*
X97906287Y111231900D01*
X97897103Y111233727D01*
X97884544Y111238929D01*
X97799948Y111273970D01*
X97634397Y111306900D01*
X97465603Y111306900D01*
X97465598Y111306899D01*
X97300056Y111273971D01*
X97300053Y111273970D01*
X97300052Y111273970D01*
X97300050Y111273969D01*
X97300049Y111273969D01*
X97144109Y111209377D01*
X97144106Y111209375D01*
X97003758Y111115598D01*
X96884402Y110996242D01*
X96884400Y110996239D01*
X96790622Y110855890D01*
X96726030Y110699950D01*
X96726028Y110699943D01*
X96693100Y110534401D01*
X300500Y110534401D01*
X300500Y118188479D01*
X255711099Y118188479D01*
X255711099Y117471520D01*
X255711099Y117471518D01*
X255717411Y117418196D01*
X255717412Y117418194D01*
X255717412Y117418193D01*
X255766733Y117299118D01*
X255766735Y117299115D01*
X255799977Y117256947D01*
X256306946Y116749978D01*
X256349115Y116716735D01*
X256349118Y116716733D01*
X256468193Y116667412D01*
X256468193Y116667411D01*
X256468196Y116667411D01*
X256507198Y116662794D01*
X256521515Y116661100D01*
X256521520Y116661099D01*
X257238481Y116661099D01*
X257238482Y116661099D01*
X257291804Y116667411D01*
X257313624Y116676449D01*
X257410881Y116716733D01*
X257410884Y116716735D01*
X257410886Y116716736D01*
X257435202Y116735905D01*
X257453052Y116749977D01*
X257960021Y117256946D01*
X257960022Y117256947D01*
X257960024Y117256949D01*
X257993264Y117299114D01*
X258042589Y117418196D01*
X258048900Y117471517D01*
X258048901Y118188479D01*
X258251099Y118188479D01*
X258251099Y117471520D01*
X258251099Y117471518D01*
X258257411Y117418196D01*
X258257412Y117418194D01*
X258257412Y117418193D01*
X258306733Y117299118D01*
X258306735Y117299115D01*
X258339977Y117256947D01*
X258846946Y116749978D01*
X258889115Y116716735D01*
X258889118Y116716733D01*
X259008193Y116667412D01*
X259008193Y116667411D01*
X259008196Y116667411D01*
X259047198Y116662794D01*
X259061515Y116661100D01*
X259061520Y116661099D01*
X259778481Y116661099D01*
X259778482Y116661099D01*
X259831804Y116667411D01*
X259853624Y116676449D01*
X259950881Y116716733D01*
X259950884Y116716735D01*
X259950886Y116716736D01*
X259975202Y116735905D01*
X259993052Y116749977D01*
X260500021Y117256946D01*
X260500022Y117256947D01*
X260500024Y117256949D01*
X260533264Y117299114D01*
X260582589Y117418196D01*
X260588900Y117471517D01*
X260588901Y118188482D01*
X260582589Y118241804D01*
X260533264Y118360886D01*
X260500021Y118403054D01*
X259993051Y118910024D01*
X259950886Y118943264D01*
X259831804Y118992589D01*
X259778483Y118998900D01*
X259061518Y118998901D01*
X259008196Y118992589D01*
X258926247Y118958644D01*
X258889118Y118943266D01*
X258889116Y118943265D01*
X258889114Y118943264D01*
X258846946Y118910021D01*
X258339976Y118403051D01*
X258306736Y118360886D01*
X258306735Y118360884D01*
X258306733Y118360881D01*
X258257412Y118241807D01*
X258257411Y118241804D01*
X258251847Y118194795D01*
X258251100Y118188484D01*
X258251099Y118188479D01*
X258048901Y118188479D01*
X258048901Y118188482D01*
X258042589Y118241804D01*
X257993264Y118360886D01*
X257960021Y118403054D01*
X257453051Y118910024D01*
X257410886Y118943264D01*
X257291804Y118992589D01*
X257238483Y118998900D01*
X256521518Y118998901D01*
X256468196Y118992589D01*
X256386247Y118958644D01*
X256349118Y118943266D01*
X256349116Y118943265D01*
X256349114Y118943264D01*
X256306946Y118910021D01*
X255799976Y118403051D01*
X255766736Y118360886D01*
X255766735Y118360884D01*
X255766733Y118360881D01*
X255717412Y118241807D01*
X255717411Y118241804D01*
X255711847Y118194795D01*
X255711100Y118188484D01*
X255711099Y118188479D01*
X300500Y118188479D01*
X300500Y120125962D01*
X8399500Y120125962D01*
X8399500Y119874038D01*
X8438910Y119625215D01*
X8438911Y119625210D01*
X8438912Y119625204D01*
X8516756Y119385628D01*
X8516760Y119385618D01*
X8631129Y119161155D01*
X8631133Y119161148D01*
X8779203Y118957348D01*
X8957348Y118779203D01*
X9161148Y118631133D01*
X9161155Y118631129D01*
X9385618Y118516760D01*
X9385628Y118516756D01*
X9625204Y118438912D01*
X9625210Y118438911D01*
X9625213Y118438910D01*
X9625215Y118438910D01*
X9874038Y118399500D01*
X9874041Y118399500D01*
X10125959Y118399500D01*
X10125962Y118399500D01*
X10374785Y118438910D01*
X10374787Y118438910D01*
X10374789Y118438911D01*
X10374795Y118438912D01*
X10614371Y118516756D01*
X10614381Y118516760D01*
X10838844Y118631129D01*
X10838851Y118631133D01*
X11042651Y118779203D01*
X11042652Y118779204D01*
X11042656Y118779207D01*
X11220793Y118957344D01*
X11220796Y118957348D01*
X11368866Y119161148D01*
X11368870Y119161155D01*
X11389223Y119201100D01*
X11483241Y119385621D01*
X11517638Y119491485D01*
X11561087Y119625204D01*
X11561088Y119625210D01*
X11561090Y119625215D01*
X11600500Y119874038D01*
X11600500Y120125962D01*
X11561090Y120374785D01*
X11483241Y120614379D01*
X11439406Y120700410D01*
X255968000Y120700410D01*
X255968000Y120445001D01*
X255968001Y120445000D01*
X256374176Y120445000D01*
X256372000Y120436880D01*
X256372000Y120303120D01*
X256374176Y120295000D01*
X255968002Y120295000D01*
X255968001Y120294999D01*
X255968001Y120039594D01*
X255976702Y119995842D01*
X255976703Y119995840D01*
X256001485Y119958752D01*
X256468752Y119491484D01*
X256505840Y119466703D01*
X256505842Y119466702D01*
X256549589Y119458000D01*
X256804999Y119458000D01*
X256805000Y119458001D01*
X256805000Y119864175D01*
X256813120Y119862000D01*
X256946880Y119862000D01*
X256955000Y119864175D01*
X256955000Y119458000D01*
X257210405Y119458000D01*
X257254157Y119466702D01*
X257254159Y119466703D01*
X257291247Y119491485D01*
X257758515Y119958752D01*
X257783296Y119995840D01*
X257783297Y119995842D01*
X257787206Y120015493D01*
X257791999Y120039589D01*
X257792000Y120039597D01*
X257792000Y120294999D01*
X257791999Y120295000D01*
X257385824Y120295000D01*
X257388000Y120303120D01*
X257388000Y120436880D01*
X257385824Y120445000D01*
X257791998Y120445000D01*
X257791999Y120445001D01*
X257791999Y120700405D01*
X257786415Y120728479D01*
X258251099Y120728479D01*
X258251099Y120303120D01*
X258251099Y120011518D01*
X258257411Y119958196D01*
X258257412Y119958194D01*
X258257412Y119958193D01*
X258306733Y119839118D01*
X258306735Y119839115D01*
X258339977Y119796947D01*
X258846946Y119289978D01*
X258889115Y119256735D01*
X258889118Y119256733D01*
X259008193Y119207412D01*
X259008193Y119207411D01*
X259008196Y119207411D01*
X259047198Y119202794D01*
X259061515Y119201100D01*
X259061520Y119201099D01*
X259778481Y119201099D01*
X259778482Y119201099D01*
X259831804Y119207411D01*
X259850370Y119215101D01*
X259950881Y119256733D01*
X259950884Y119256735D01*
X259950886Y119256736D01*
X259975202Y119275905D01*
X259993052Y119289977D01*
X260500021Y119796946D01*
X260500022Y119796947D01*
X260500024Y119796949D01*
X260533264Y119839114D01*
X260582589Y119958196D01*
X260588900Y120011517D01*
X260588900Y120125962D01*
X268399500Y120125962D01*
X268399500Y119874038D01*
X268438910Y119625215D01*
X268438911Y119625210D01*
X268438912Y119625204D01*
X268516756Y119385628D01*
X268516760Y119385618D01*
X268631129Y119161155D01*
X268631133Y119161148D01*
X268779203Y118957348D01*
X268957348Y118779203D01*
X269161148Y118631133D01*
X269161155Y118631129D01*
X269385618Y118516760D01*
X269385628Y118516756D01*
X269625204Y118438912D01*
X269625210Y118438911D01*
X269625213Y118438910D01*
X269625215Y118438910D01*
X269874038Y118399500D01*
X269874041Y118399500D01*
X270125959Y118399500D01*
X270125962Y118399500D01*
X270374785Y118438910D01*
X270374787Y118438910D01*
X270374789Y118438911D01*
X270374795Y118438912D01*
X270614371Y118516756D01*
X270614381Y118516760D01*
X270838844Y118631129D01*
X270838851Y118631133D01*
X271042651Y118779203D01*
X271042652Y118779204D01*
X271042656Y118779207D01*
X271220793Y118957344D01*
X271220796Y118957348D01*
X271368866Y119161148D01*
X271368870Y119161155D01*
X271389223Y119201100D01*
X271483241Y119385621D01*
X271517638Y119491485D01*
X271561087Y119625204D01*
X271561088Y119625210D01*
X271561090Y119625215D01*
X271600500Y119874038D01*
X271600500Y120125962D01*
X271561090Y120374785D01*
X271483241Y120614379D01*
X271368870Y120838845D01*
X271365574Y120843381D01*
X271293159Y120943052D01*
X271220793Y121042656D01*
X271042656Y121220793D01*
X270838845Y121368870D01*
X270614379Y121483241D01*
X270443076Y121538901D01*
X270374795Y121561087D01*
X270374793Y121561087D01*
X270374785Y121561090D01*
X270125962Y121600500D01*
X269874038Y121600500D01*
X269625215Y121561090D01*
X269625207Y121561087D01*
X269625204Y121561087D01*
X269463111Y121508419D01*
X269385621Y121483241D01*
X269161155Y121368870D01*
X269161148Y121368866D01*
X268957348Y121220796D01*
X268957344Y121220793D01*
X268779207Y121042656D01*
X268779204Y121042652D01*
X268779203Y121042651D01*
X268631133Y120838851D01*
X268631129Y120838844D01*
X268516760Y120614381D01*
X268516756Y120614371D01*
X268438912Y120374795D01*
X268438911Y120374789D01*
X268438910Y120374785D01*
X268399500Y120125962D01*
X260588900Y120125962D01*
X260588901Y120728482D01*
X260582589Y120781804D01*
X260533264Y120900886D01*
X260500021Y120943054D01*
X259993051Y121450024D01*
X259950886Y121483264D01*
X259831804Y121532589D01*
X259778483Y121538900D01*
X259061518Y121538901D01*
X259008196Y121532589D01*
X258926247Y121498644D01*
X258889118Y121483266D01*
X258889116Y121483265D01*
X258889114Y121483264D01*
X258846946Y121450021D01*
X258339976Y120943051D01*
X258306736Y120900886D01*
X258306735Y120900884D01*
X258306733Y120900881D01*
X258257412Y120781807D01*
X258257411Y120781804D01*
X258252955Y120744157D01*
X258251100Y120728484D01*
X258251099Y120728479D01*
X257786415Y120728479D01*
X257783297Y120744157D01*
X257783296Y120744159D01*
X257758514Y120781247D01*
X257291247Y121248515D01*
X257254159Y121273296D01*
X257254157Y121273297D01*
X257210406Y121281999D01*
X256955001Y121281999D01*
X256955000Y121281998D01*
X256955000Y120875824D01*
X256946880Y120878000D01*
X256813120Y120878000D01*
X256805000Y120875824D01*
X256805000Y121281998D01*
X256804999Y121281999D01*
X256549595Y121281999D01*
X256505842Y121273297D01*
X256505840Y121273296D01*
X256468752Y121248514D01*
X256001484Y120781247D01*
X255976703Y120744159D01*
X255976702Y120744157D01*
X255968000Y120700410D01*
X11439406Y120700410D01*
X11368870Y120838845D01*
X11365574Y120843381D01*
X11293159Y120943052D01*
X11220793Y121042656D01*
X11042656Y121220793D01*
X10838845Y121368870D01*
X10614379Y121483241D01*
X10443076Y121538901D01*
X10374795Y121561087D01*
X10374793Y121561087D01*
X10374785Y121561090D01*
X10125962Y121600500D01*
X9874038Y121600500D01*
X9625215Y121561090D01*
X9625207Y121561087D01*
X9625204Y121561087D01*
X9463111Y121508419D01*
X9385621Y121483241D01*
X9161155Y121368870D01*
X9161148Y121368866D01*
X8957348Y121220796D01*
X8957344Y121220793D01*
X8779207Y121042656D01*
X8779204Y121042652D01*
X8779203Y121042651D01*
X8631133Y120838851D01*
X8631129Y120838844D01*
X8516760Y120614381D01*
X8516756Y120614371D01*
X8438912Y120374795D01*
X8438911Y120374789D01*
X8438910Y120374785D01*
X8399500Y120125962D01*
X300500Y120125962D01*
X300500Y123240410D01*
X255968000Y123240410D01*
X255968000Y122985001D01*
X255968001Y122985000D01*
X256374176Y122985000D01*
X256372000Y122976880D01*
X256372000Y122843120D01*
X256374176Y122835000D01*
X255968002Y122835000D01*
X255968001Y122834999D01*
X255968001Y122579594D01*
X255976702Y122535842D01*
X255976703Y122535840D01*
X256001485Y122498752D01*
X256468752Y122031484D01*
X256505840Y122006703D01*
X256505842Y122006702D01*
X256549589Y121998000D01*
X256804999Y121998000D01*
X256805000Y121998001D01*
X256805000Y122404175D01*
X256813120Y122402000D01*
X256946880Y122402000D01*
X256955000Y122404175D01*
X256955000Y121998000D01*
X257210405Y121998000D01*
X257254157Y122006702D01*
X257254159Y122006703D01*
X257291247Y122031485D01*
X257758515Y122498752D01*
X257783296Y122535840D01*
X257783297Y122535842D01*
X257787206Y122555493D01*
X257791999Y122579589D01*
X257792000Y122579597D01*
X257792000Y122834999D01*
X257791999Y122835000D01*
X257385824Y122835000D01*
X257388000Y122843120D01*
X257388000Y122976880D01*
X257385824Y122985000D01*
X257791998Y122985000D01*
X257791999Y122985001D01*
X257791999Y123240405D01*
X257786415Y123268479D01*
X258251099Y123268479D01*
X258251099Y122843120D01*
X258251099Y122551518D01*
X258257411Y122498196D01*
X258257412Y122498194D01*
X258257412Y122498193D01*
X258306733Y122379118D01*
X258306735Y122379115D01*
X258339977Y122336947D01*
X258846946Y121829978D01*
X258889115Y121796735D01*
X258889118Y121796733D01*
X259008193Y121747412D01*
X259008193Y121747411D01*
X259008196Y121747411D01*
X259047198Y121742794D01*
X259061515Y121741100D01*
X259061520Y121741099D01*
X259778481Y121741099D01*
X259778482Y121741099D01*
X259831804Y121747411D01*
X259850370Y121755101D01*
X259950881Y121796733D01*
X259950884Y121796735D01*
X259950886Y121796736D01*
X259975202Y121815905D01*
X259993052Y121829977D01*
X260500021Y122336946D01*
X260500022Y122336947D01*
X260500024Y122336949D01*
X260533264Y122379114D01*
X260582589Y122498196D01*
X260588900Y122551517D01*
X260588901Y123268482D01*
X260582589Y123321804D01*
X260533264Y123440886D01*
X260500021Y123483054D01*
X259993051Y123990024D01*
X259950886Y124023264D01*
X259831804Y124072589D01*
X259778483Y124078900D01*
X259061518Y124078901D01*
X259008196Y124072589D01*
X258926247Y124038644D01*
X258889118Y124023266D01*
X258889116Y124023265D01*
X258889114Y124023264D01*
X258846946Y123990021D01*
X258339976Y123483051D01*
X258306736Y123440886D01*
X258306735Y123440884D01*
X258306733Y123440881D01*
X258257412Y123321807D01*
X258257411Y123321804D01*
X258252955Y123284157D01*
X258251100Y123268484D01*
X258251099Y123268479D01*
X257786415Y123268479D01*
X257783297Y123284157D01*
X257783296Y123284159D01*
X257758514Y123321247D01*
X257291247Y123788515D01*
X257254159Y123813296D01*
X257254157Y123813297D01*
X257210406Y123821999D01*
X256955001Y123821999D01*
X256955000Y123821998D01*
X256955000Y123415824D01*
X256946880Y123418000D01*
X256813120Y123418000D01*
X256805000Y123415824D01*
X256805000Y123821998D01*
X256804999Y123821999D01*
X256549595Y123821999D01*
X256505842Y123813297D01*
X256505840Y123813296D01*
X256468752Y123788514D01*
X256001484Y123321247D01*
X255976703Y123284159D01*
X255976702Y123284157D01*
X255968000Y123240410D01*
X300500Y123240410D01*
X300500Y125780410D01*
X255968000Y125780410D01*
X255968000Y125525001D01*
X255968001Y125525000D01*
X256374176Y125525000D01*
X256372000Y125516880D01*
X256372000Y125383120D01*
X256374176Y125375000D01*
X255968002Y125375000D01*
X255968001Y125374999D01*
X255968001Y125119594D01*
X255976702Y125075842D01*
X255976703Y125075840D01*
X256001485Y125038752D01*
X256468752Y124571484D01*
X256505840Y124546703D01*
X256505842Y124546702D01*
X256549589Y124538000D01*
X256804999Y124538000D01*
X256805000Y124538001D01*
X256805000Y124944175D01*
X256813120Y124942000D01*
X256946880Y124942000D01*
X256955000Y124944175D01*
X256955000Y124538000D01*
X257210405Y124538000D01*
X257254157Y124546702D01*
X257254159Y124546703D01*
X257291247Y124571485D01*
X257758515Y125038752D01*
X257783296Y125075840D01*
X257783297Y125075842D01*
X257787206Y125095493D01*
X257791999Y125119589D01*
X257792000Y125119597D01*
X257792000Y125374999D01*
X257791999Y125375000D01*
X257385824Y125375000D01*
X257388000Y125383120D01*
X257388000Y125516880D01*
X257385824Y125525000D01*
X257791998Y125525000D01*
X257791999Y125525001D01*
X257791999Y125780405D01*
X257786415Y125808479D01*
X258251099Y125808479D01*
X258251099Y125383120D01*
X258251099Y125091518D01*
X258257411Y125038196D01*
X258257412Y125038194D01*
X258257412Y125038193D01*
X258306733Y124919118D01*
X258306735Y124919115D01*
X258339977Y124876947D01*
X258846946Y124369978D01*
X258889115Y124336735D01*
X258889118Y124336733D01*
X259008193Y124287412D01*
X259008193Y124287411D01*
X259008196Y124287411D01*
X259047198Y124282794D01*
X259061515Y124281100D01*
X259061520Y124281099D01*
X259778481Y124281099D01*
X259778482Y124281099D01*
X259831804Y124287411D01*
X259850370Y124295101D01*
X259950881Y124336733D01*
X259950884Y124336735D01*
X259950886Y124336736D01*
X259975202Y124355905D01*
X259993052Y124369977D01*
X260500021Y124876946D01*
X260500022Y124876947D01*
X260500024Y124876949D01*
X260533264Y124919114D01*
X260582589Y125038196D01*
X260588900Y125091517D01*
X260588901Y125808482D01*
X260582589Y125861804D01*
X260533264Y125980886D01*
X260500021Y126023054D01*
X259993051Y126530024D01*
X259950886Y126563264D01*
X259831804Y126612589D01*
X259778483Y126618900D01*
X259061518Y126618901D01*
X259008196Y126612589D01*
X258926247Y126578644D01*
X258889118Y126563266D01*
X258889116Y126563265D01*
X258889114Y126563264D01*
X258846946Y126530021D01*
X258339976Y126023051D01*
X258306736Y125980886D01*
X258306735Y125980884D01*
X258306733Y125980881D01*
X258257412Y125861807D01*
X258257411Y125861804D01*
X258252955Y125824157D01*
X258251100Y125808484D01*
X258251099Y125808479D01*
X257786415Y125808479D01*
X257783297Y125824157D01*
X257783296Y125824159D01*
X257758514Y125861247D01*
X257291247Y126328515D01*
X257254159Y126353296D01*
X257254157Y126353297D01*
X257210406Y126361999D01*
X256955001Y126361999D01*
X256955000Y126361998D01*
X256955000Y125955824D01*
X256946880Y125958000D01*
X256813120Y125958000D01*
X256805000Y125955824D01*
X256805000Y126361998D01*
X256804999Y126361999D01*
X256549595Y126361999D01*
X256505842Y126353297D01*
X256505840Y126353296D01*
X256468752Y126328514D01*
X256001484Y125861247D01*
X255976703Y125824159D01*
X255976702Y125824157D01*
X255968000Y125780410D01*
X300500Y125780410D01*
X300500Y128320410D01*
X255968000Y128320410D01*
X255968000Y128065001D01*
X255968001Y128065000D01*
X256374176Y128065000D01*
X256372000Y128056880D01*
X256372000Y127923120D01*
X256374176Y127915000D01*
X255968002Y127915000D01*
X255968001Y127914999D01*
X255968001Y127659594D01*
X255976702Y127615842D01*
X255976703Y127615840D01*
X256001485Y127578752D01*
X256468752Y127111484D01*
X256505840Y127086703D01*
X256505842Y127086702D01*
X256549589Y127078000D01*
X256804999Y127078000D01*
X256805000Y127078001D01*
X256805000Y127484175D01*
X256813120Y127482000D01*
X256946880Y127482000D01*
X256955000Y127484175D01*
X256955000Y127078000D01*
X257210405Y127078000D01*
X257254157Y127086702D01*
X257254159Y127086703D01*
X257291247Y127111485D01*
X257758515Y127578752D01*
X257783296Y127615840D01*
X257783297Y127615842D01*
X257787206Y127635493D01*
X257791999Y127659589D01*
X257792000Y127659597D01*
X257792000Y127914999D01*
X257791999Y127915000D01*
X257385824Y127915000D01*
X257388000Y127923120D01*
X257388000Y128056880D01*
X257385824Y128065000D01*
X257791998Y128065000D01*
X257791999Y128065001D01*
X257791999Y128320405D01*
X257786415Y128348479D01*
X258251099Y128348479D01*
X258251099Y127923120D01*
X258251099Y127631518D01*
X258257411Y127578196D01*
X258257412Y127578194D01*
X258257412Y127578193D01*
X258306733Y127459118D01*
X258306735Y127459115D01*
X258339977Y127416947D01*
X258846946Y126909978D01*
X258889115Y126876735D01*
X258889118Y126876733D01*
X259008193Y126827412D01*
X259008193Y126827411D01*
X259008196Y126827411D01*
X259047198Y126822794D01*
X259061515Y126821100D01*
X259061520Y126821099D01*
X259778481Y126821099D01*
X259778482Y126821099D01*
X259831804Y126827411D01*
X259850370Y126835101D01*
X259950881Y126876733D01*
X259950884Y126876735D01*
X259950886Y126876736D01*
X259975202Y126895905D01*
X259993052Y126909977D01*
X260500021Y127416946D01*
X260500022Y127416947D01*
X260500024Y127416949D01*
X260533264Y127459114D01*
X260582589Y127578196D01*
X260588900Y127631517D01*
X260588901Y128348482D01*
X260582589Y128401804D01*
X260533264Y128520886D01*
X260500021Y128563054D01*
X259993051Y129070024D01*
X259950886Y129103264D01*
X259831804Y129152589D01*
X259778483Y129158900D01*
X259061518Y129158901D01*
X259008196Y129152589D01*
X258926247Y129118644D01*
X258889118Y129103266D01*
X258889116Y129103265D01*
X258889114Y129103264D01*
X258846946Y129070021D01*
X258339976Y128563051D01*
X258306736Y128520886D01*
X258306735Y128520884D01*
X258306733Y128520881D01*
X258257412Y128401807D01*
X258257411Y128401804D01*
X258252955Y128364157D01*
X258251100Y128348484D01*
X258251099Y128348479D01*
X257786415Y128348479D01*
X257783297Y128364157D01*
X257783296Y128364159D01*
X257758514Y128401247D01*
X257291247Y128868515D01*
X257254159Y128893296D01*
X257254157Y128893297D01*
X257210406Y128901999D01*
X256955001Y128901999D01*
X256955000Y128901998D01*
X256955000Y128495824D01*
X256946880Y128498000D01*
X256813120Y128498000D01*
X256805000Y128495824D01*
X256805000Y128901998D01*
X256804999Y128901999D01*
X256549595Y128901999D01*
X256505842Y128893297D01*
X256505840Y128893296D01*
X256468752Y128868514D01*
X256001484Y128401247D01*
X255976703Y128364159D01*
X255976702Y128364157D01*
X255968000Y128320410D01*
X300500Y128320410D01*
X300500Y133521047D01*
X96413100Y133521047D01*
X96413100Y131838952D01*
X96441588Y131659087D01*
X96441589Y131659081D01*
X96497856Y131485912D01*
X96497860Y131485902D01*
X96580530Y131323652D01*
X96580534Y131323645D01*
X96687562Y131176334D01*
X96816334Y131047562D01*
X96963645Y130940534D01*
X96963652Y130940530D01*
X97125902Y130857860D01*
X97125912Y130857856D01*
X97299081Y130801589D01*
X97299087Y130801588D01*
X97299090Y130801587D01*
X97299092Y130801587D01*
X97478950Y130773100D01*
X97478953Y130773100D01*
X97661047Y130773100D01*
X97661050Y130773100D01*
X97840908Y130801587D01*
X97840910Y130801587D01*
X97840912Y130801588D01*
X97840918Y130801589D01*
X98014087Y130857856D01*
X98014097Y130857860D01*
X98019102Y130860410D01*
X255968000Y130860410D01*
X255968000Y130605001D01*
X255968001Y130605000D01*
X256374176Y130605000D01*
X256372000Y130596880D01*
X256372000Y130463120D01*
X256374176Y130455000D01*
X255968002Y130455000D01*
X255968001Y130454999D01*
X255968001Y130199594D01*
X255976702Y130155842D01*
X255976703Y130155840D01*
X256001485Y130118752D01*
X256468752Y129651484D01*
X256505840Y129626703D01*
X256505842Y129626702D01*
X256549589Y129618000D01*
X256804999Y129618000D01*
X256805000Y129618001D01*
X256805000Y130024175D01*
X256813120Y130022000D01*
X256946880Y130022000D01*
X256955000Y130024175D01*
X256955000Y129618000D01*
X257210405Y129618000D01*
X257254157Y129626702D01*
X257254159Y129626703D01*
X257291247Y129651485D01*
X257758515Y130118752D01*
X257783296Y130155840D01*
X257783297Y130155842D01*
X257787206Y130175493D01*
X257791999Y130199589D01*
X257792000Y130199597D01*
X257792000Y130454999D01*
X257791999Y130455000D01*
X257385824Y130455000D01*
X257388000Y130463120D01*
X257388000Y130596880D01*
X257385824Y130605000D01*
X257791998Y130605000D01*
X257791999Y130605001D01*
X257791999Y130860405D01*
X257786415Y130888479D01*
X258251099Y130888479D01*
X258251099Y130463120D01*
X258251099Y130171518D01*
X258257411Y130118196D01*
X258257412Y130118194D01*
X258257412Y130118193D01*
X258306733Y129999118D01*
X258306735Y129999115D01*
X258339977Y129956947D01*
X258846946Y129449978D01*
X258889115Y129416735D01*
X258889118Y129416733D01*
X259008193Y129367412D01*
X259008193Y129367411D01*
X259008196Y129367411D01*
X259047198Y129362794D01*
X259061515Y129361100D01*
X259061520Y129361099D01*
X259778481Y129361099D01*
X259778482Y129361099D01*
X259831804Y129367411D01*
X259850370Y129375101D01*
X259950881Y129416733D01*
X259950884Y129416735D01*
X259950886Y129416736D01*
X259975202Y129435905D01*
X259993052Y129449977D01*
X260500021Y129956946D01*
X260500022Y129956947D01*
X260500024Y129956949D01*
X260533264Y129999114D01*
X260582589Y130118196D01*
X260588900Y130171517D01*
X260588901Y130888482D01*
X260582589Y130941804D01*
X260533264Y131060886D01*
X260500021Y131103054D01*
X259993051Y131610024D01*
X259950886Y131643264D01*
X259831804Y131692589D01*
X259778483Y131698900D01*
X259061518Y131698901D01*
X259008196Y131692589D01*
X258947587Y131667484D01*
X258889118Y131643266D01*
X258889116Y131643265D01*
X258889114Y131643264D01*
X258846946Y131610021D01*
X258339976Y131103051D01*
X258306736Y131060886D01*
X258306735Y131060884D01*
X258306733Y131060881D01*
X258257412Y130941807D01*
X258257411Y130941804D01*
X258252955Y130904157D01*
X258251100Y130888484D01*
X258251099Y130888479D01*
X257786415Y130888479D01*
X257783297Y130904157D01*
X257783296Y130904159D01*
X257758514Y130941247D01*
X257291247Y131408515D01*
X257254159Y131433296D01*
X257254157Y131433297D01*
X257210406Y131441999D01*
X256955001Y131441999D01*
X256955000Y131441998D01*
X256955000Y131035824D01*
X256946880Y131038000D01*
X256813120Y131038000D01*
X256805000Y131035824D01*
X256805000Y131441998D01*
X256804999Y131441999D01*
X256549595Y131441999D01*
X256505842Y131433297D01*
X256505840Y131433296D01*
X256468752Y131408514D01*
X256001484Y130941247D01*
X255976703Y130904159D01*
X255976702Y130904157D01*
X255968000Y130860410D01*
X98019102Y130860410D01*
X98063376Y130882969D01*
X98176347Y130940530D01*
X98176354Y130940534D01*
X98323665Y131047562D01*
X98323666Y131047563D01*
X98323670Y131047566D01*
X98452434Y131176330D01*
X98452437Y131176334D01*
X98559465Y131323645D01*
X98559469Y131323652D01*
X98619769Y131441998D01*
X98642141Y131485905D01*
X98682470Y131610024D01*
X98698410Y131659081D01*
X98698411Y131659087D01*
X98698413Y131659092D01*
X98726900Y131838950D01*
X98726900Y133518646D01*
X99210000Y133518646D01*
X99210000Y132755001D01*
X99210001Y132755000D01*
X99612458Y132755000D01*
X99610000Y132745826D01*
X99610000Y132614174D01*
X99612458Y132605000D01*
X99210001Y132605000D01*
X99210000Y132604999D01*
X99210000Y131841353D01*
X99244584Y131667484D01*
X99244587Y131667477D01*
X99312427Y131503693D01*
X99410922Y131356285D01*
X99536285Y131230922D01*
X99683693Y131132427D01*
X99847477Y131064587D01*
X99847484Y131064584D01*
X100021353Y131030000D01*
X100034999Y131030000D01*
X100035000Y131030001D01*
X100035000Y132182458D01*
X100044174Y132180000D01*
X100175826Y132180000D01*
X100185000Y132182458D01*
X100185000Y131030001D01*
X100185001Y131030000D01*
X100198646Y131030000D01*
X100372515Y131064584D01*
X100372522Y131064587D01*
X100536306Y131132427D01*
X100683714Y131230922D01*
X100809077Y131356285D01*
X100907572Y131503693D01*
X100975412Y131667477D01*
X100975415Y131667484D01*
X101009999Y131841353D01*
X101010000Y131841361D01*
X101010000Y132604999D01*
X101009999Y132605000D01*
X100607542Y132605000D01*
X100610000Y132614174D01*
X100610000Y132745826D01*
X100607542Y132755000D01*
X101009999Y132755000D01*
X101010000Y132755001D01*
X101010000Y133518638D01*
X101009999Y133518646D01*
X100975415Y133692515D01*
X100975412Y133692522D01*
X100907572Y133856306D01*
X100809077Y134003714D01*
X100683714Y134129077D01*
X100536306Y134227572D01*
X100372522Y134295412D01*
X100372515Y134295415D01*
X100198646Y134329999D01*
X100198638Y134330000D01*
X100185001Y134330000D01*
X100185000Y134329999D01*
X100185000Y133177541D01*
X100175826Y133180000D01*
X100044174Y133180000D01*
X100035000Y133177541D01*
X100035000Y134329999D01*
X100034999Y134330000D01*
X100021362Y134330000D01*
X100021353Y134329999D01*
X99847484Y134295415D01*
X99847477Y134295412D01*
X99683693Y134227572D01*
X99536285Y134129077D01*
X99410922Y134003714D01*
X99312427Y133856306D01*
X99244587Y133692522D01*
X99244584Y133692515D01*
X99210000Y133518646D01*
X98726900Y133518646D01*
X98726900Y133521050D01*
X98698413Y133700908D01*
X98642141Y133874095D01*
X98559469Y134036348D01*
X98452434Y134183670D01*
X98323670Y134312434D01*
X98176348Y134419469D01*
X98014095Y134502141D01*
X97891773Y134541885D01*
X97840918Y134558410D01*
X97840916Y134558410D01*
X97840908Y134558413D01*
X97661050Y134586900D01*
X97478950Y134586900D01*
X97299092Y134558413D01*
X97299084Y134558410D01*
X97299081Y134558410D01*
X97181918Y134520340D01*
X97125905Y134502141D01*
X96963652Y134419469D01*
X96963645Y134419465D01*
X96840506Y134329999D01*
X96816330Y134312434D01*
X96687566Y134183670D01*
X96687563Y134183666D01*
X96687562Y134183665D01*
X96580534Y134036354D01*
X96580530Y134036347D01*
X96497860Y133874097D01*
X96497856Y133874087D01*
X96441589Y133700918D01*
X96441588Y133700912D01*
X96413100Y133521047D01*
X300500Y133521047D01*
X300500Y135168646D01*
X73280000Y135168646D01*
X73280000Y135155001D01*
X73280001Y135155000D01*
X74432458Y135155000D01*
X74430000Y135145826D01*
X74430000Y135014174D01*
X74432458Y135005000D01*
X73280001Y135005000D01*
X73280000Y135004999D01*
X73280000Y134991353D01*
X73314584Y134817484D01*
X73314587Y134817477D01*
X73382427Y134653693D01*
X73480922Y134506285D01*
X73606285Y134380922D01*
X73753693Y134282427D01*
X73917477Y134214587D01*
X73917484Y134214584D01*
X74091353Y134180000D01*
X74854999Y134180000D01*
X74855000Y134180001D01*
X74855000Y134582458D01*
X74864174Y134580000D01*
X74995826Y134580000D01*
X75005000Y134582458D01*
X75005000Y134180001D01*
X75005001Y134180000D01*
X75768646Y134180000D01*
X75942515Y134214584D01*
X75942522Y134214587D01*
X76106306Y134282427D01*
X76253714Y134380922D01*
X76379077Y134506285D01*
X76477572Y134653693D01*
X76545412Y134817477D01*
X76545415Y134817484D01*
X76579999Y134991353D01*
X76580000Y134991361D01*
X76580000Y135004999D01*
X76579999Y135005000D01*
X75427542Y135005000D01*
X75430000Y135014174D01*
X75430000Y135145826D01*
X75427542Y135155000D01*
X76579999Y135155000D01*
X76580000Y135155001D01*
X76580000Y135168638D01*
X76579999Y135168646D01*
X76545415Y135342515D01*
X76545412Y135342522D01*
X76477572Y135506306D01*
X76393849Y135631607D01*
X76379077Y135653714D01*
X76253714Y135779077D01*
X76253712Y135779078D01*
X76252536Y135779865D01*
X76252535Y135779865D01*
X76252534Y135779866D01*
X76224428Y135798646D01*
X109480000Y135798646D01*
X109480000Y135785001D01*
X109480001Y135785000D01*
X110632458Y135785000D01*
X110630000Y135775826D01*
X110630000Y135644174D01*
X110632458Y135635000D01*
X109480001Y135635000D01*
X109480000Y135634999D01*
X109480000Y135621353D01*
X109514584Y135447484D01*
X109514587Y135447477D01*
X109582427Y135283693D01*
X109680922Y135136285D01*
X109806285Y135010922D01*
X109953693Y134912427D01*
X110117477Y134844587D01*
X110117484Y134844584D01*
X110291353Y134810000D01*
X111054999Y134810000D01*
X111055000Y134810001D01*
X111055000Y135212458D01*
X111064174Y135210000D01*
X111195826Y135210000D01*
X111205000Y135212458D01*
X111205000Y134810001D01*
X111205001Y134810000D01*
X111968646Y134810000D01*
X112142515Y134844584D01*
X112142522Y134844587D01*
X112306306Y134912427D01*
X112453714Y135010922D01*
X112579077Y135136285D01*
X112677572Y135283693D01*
X112745412Y135447477D01*
X112745415Y135447484D01*
X112779999Y135621353D01*
X112780000Y135621361D01*
X112780000Y135634999D01*
X112779999Y135635000D01*
X111627542Y135635000D01*
X111630000Y135644174D01*
X111630000Y135775826D01*
X111627542Y135785000D01*
X112779999Y135785000D01*
X112780000Y135785001D01*
X112780000Y135798638D01*
X112779999Y135798646D01*
X112745415Y135972515D01*
X112745412Y135972522D01*
X112677572Y136136306D01*
X112579077Y136283714D01*
X112453714Y136409077D01*
X112306306Y136507572D01*
X112142522Y136575412D01*
X112142515Y136575415D01*
X111968646Y136609999D01*
X111968638Y136610000D01*
X111205001Y136610000D01*
X111205000Y136609999D01*
X111205000Y136207541D01*
X111195826Y136210000D01*
X111064174Y136210000D01*
X111055000Y136207541D01*
X111055000Y136609999D01*
X111054999Y136610000D01*
X110291362Y136610000D01*
X110291353Y136609999D01*
X110117484Y136575415D01*
X110117477Y136575412D01*
X109953693Y136507572D01*
X109806285Y136409077D01*
X109680922Y136283714D01*
X109582427Y136136306D01*
X109514587Y135972522D01*
X109514584Y135972515D01*
X109480000Y135798646D01*
X76224428Y135798646D01*
X76106306Y135877572D01*
X75942522Y135945412D01*
X75942515Y135945415D01*
X75768646Y135979999D01*
X75768638Y135980000D01*
X75005001Y135980000D01*
X75005000Y135979999D01*
X75005000Y135577541D01*
X74995826Y135580000D01*
X74864174Y135580000D01*
X74855000Y135577541D01*
X74855000Y135979999D01*
X74854999Y135980000D01*
X74091362Y135980000D01*
X74091353Y135979999D01*
X73917484Y135945415D01*
X73917477Y135945412D01*
X73753693Y135877572D01*
X73606285Y135779077D01*
X73480922Y135653714D01*
X73382427Y135506306D01*
X73314587Y135342522D01*
X73314584Y135342515D01*
X73280000Y135168646D01*
X300500Y135168646D01*
X300500Y137711047D01*
X73023100Y137711047D01*
X73023100Y137528952D01*
X73051588Y137349087D01*
X73051589Y137349081D01*
X73107856Y137175912D01*
X73107860Y137175902D01*
X73190530Y137013652D01*
X73190534Y137013645D01*
X73297562Y136866334D01*
X73426334Y136737562D01*
X73573645Y136630534D01*
X73573652Y136630530D01*
X73735902Y136547860D01*
X73735912Y136547856D01*
X73909081Y136491589D01*
X73909087Y136491588D01*
X73909090Y136491587D01*
X73909092Y136491587D01*
X74088950Y136463100D01*
X74088953Y136463100D01*
X75771047Y136463100D01*
X75771050Y136463100D01*
X75950908Y136491587D01*
X75950910Y136491587D01*
X75950912Y136491588D01*
X75950918Y136491589D01*
X76124087Y136547856D01*
X76124097Y136547860D01*
X76286347Y136630530D01*
X76286354Y136630534D01*
X76433665Y136737562D01*
X76433666Y136737563D01*
X76433670Y136737566D01*
X76562434Y136866330D01*
X76562437Y136866334D01*
X76669465Y137013645D01*
X76669469Y137013652D01*
X76709950Y137093100D01*
X76752141Y137175905D01*
X76770340Y137231918D01*
X76808410Y137349081D01*
X76808411Y137349087D01*
X76808413Y137349092D01*
X76836900Y137528950D01*
X76836900Y137711050D01*
X76808413Y137890908D01*
X76752141Y138064095D01*
X76669469Y138226348D01*
X76586134Y138341050D01*
X109223100Y138341050D01*
X109223100Y138158950D01*
X109238124Y138064095D01*
X109251588Y137979087D01*
X109251589Y137979081D01*
X109307856Y137805912D01*
X109307860Y137805902D01*
X109390530Y137643652D01*
X109390534Y137643645D01*
X109497562Y137496334D01*
X109626334Y137367562D01*
X109773645Y137260534D01*
X109773652Y137260530D01*
X109935902Y137177860D01*
X109935912Y137177856D01*
X110109081Y137121589D01*
X110109087Y137121588D01*
X110109090Y137121587D01*
X110109092Y137121587D01*
X110288950Y137093100D01*
X110288953Y137093100D01*
X111971047Y137093100D01*
X111971050Y137093100D01*
X112150908Y137121587D01*
X112150910Y137121587D01*
X112150912Y137121588D01*
X112150918Y137121589D01*
X112324087Y137177856D01*
X112324097Y137177860D01*
X112486347Y137260530D01*
X112486354Y137260534D01*
X112633665Y137367562D01*
X112633666Y137367563D01*
X112633670Y137367566D01*
X112762434Y137496330D01*
X112786135Y137528952D01*
X112869465Y137643645D01*
X112869469Y137643652D01*
X112952139Y137805902D01*
X112952141Y137805905D01*
X112979762Y137890912D01*
X113008410Y137979081D01*
X113008411Y137979087D01*
X113008413Y137979092D01*
X113036900Y138158950D01*
X113036900Y138341050D01*
X113008413Y138520908D01*
X112952141Y138694095D01*
X112869469Y138856348D01*
X112762434Y139003670D01*
X112633670Y139132434D01*
X112486348Y139239469D01*
X112324095Y139322141D01*
X112201773Y139361885D01*
X112150918Y139378410D01*
X112150916Y139378410D01*
X112150908Y139378413D01*
X111971050Y139406900D01*
X110288950Y139406900D01*
X110109092Y139378413D01*
X110109084Y139378410D01*
X110109081Y139378410D01*
X109991918Y139340340D01*
X109935905Y139322141D01*
X109773652Y139239469D01*
X109773645Y139239465D01*
X109626334Y139132437D01*
X109626330Y139132434D01*
X109497566Y139003670D01*
X109497563Y139003666D01*
X109497562Y139003665D01*
X109390534Y138856354D01*
X109390530Y138856347D01*
X109307860Y138694097D01*
X109307856Y138694087D01*
X109251589Y138520918D01*
X109251588Y138520912D01*
X109251587Y138520908D01*
X109223100Y138341050D01*
X76586134Y138341050D01*
X76562434Y138373670D01*
X76433670Y138502434D01*
X76286348Y138609469D01*
X76124095Y138692141D01*
X76001773Y138731885D01*
X75950918Y138748410D01*
X75950916Y138748410D01*
X75950908Y138748413D01*
X75771050Y138776900D01*
X74088950Y138776900D01*
X73909092Y138748413D01*
X73909084Y138748410D01*
X73909081Y138748410D01*
X73791918Y138710340D01*
X73735905Y138692141D01*
X73573652Y138609469D01*
X73573645Y138609465D01*
X73451771Y138520918D01*
X73426330Y138502434D01*
X73297566Y138373670D01*
X73297563Y138373666D01*
X73297562Y138373665D01*
X73190534Y138226354D01*
X73190530Y138226347D01*
X73107860Y138064097D01*
X73107856Y138064087D01*
X73051589Y137890918D01*
X73051588Y137890912D01*
X73051587Y137890908D01*
X73038124Y137805902D01*
X73023100Y137711047D01*
X300500Y137711047D01*
X300500Y142434401D01*
X209943100Y142434401D01*
X209943100Y142265598D01*
X209976028Y142100056D01*
X209976030Y142100049D01*
X210040622Y141944109D01*
X210134400Y141803760D01*
X210253760Y141684400D01*
X210394109Y141590622D01*
X210550049Y141526030D01*
X210550056Y141526028D01*
X210715598Y141493100D01*
X210715603Y141493100D01*
X210884401Y141493100D01*
X211049943Y141526028D01*
X211049950Y141526031D01*
X211086748Y141541273D01*
X211095932Y141543100D01*
X217970527Y141543100D01*
X219054068Y141543100D01*
X219063252Y141541273D01*
X219100049Y141526031D01*
X219100056Y141526028D01*
X219265598Y141493100D01*
X219265603Y141493100D01*
X219434401Y141493100D01*
X219599943Y141526028D01*
X219599950Y141526030D01*
X219755890Y141590622D01*
X219896239Y141684400D01*
X219896242Y141684402D01*
X220015598Y141803758D01*
X220109375Y141944106D01*
X220109377Y141944109D01*
X220173969Y142100049D01*
X220173971Y142100056D01*
X220206899Y142265598D01*
X220206900Y142265606D01*
X220206900Y142434393D01*
X220206899Y142434401D01*
X220173971Y142599943D01*
X220173969Y142599950D01*
X220109377Y142755890D01*
X220109376Y142755891D01*
X220109375Y142755894D01*
X220015598Y142896242D01*
X219896242Y143015598D01*
X219755894Y143109375D01*
X219755891Y143109376D01*
X219755890Y143109377D01*
X219624189Y143163929D01*
X219599948Y143173970D01*
X219434397Y143206900D01*
X219265603Y143206900D01*
X219265598Y143206899D01*
X219100056Y143173971D01*
X219100055Y143173970D01*
X219100052Y143173970D01*
X219075811Y143163929D01*
X219063252Y143158727D01*
X219054068Y143156900D01*
X218630900Y143156900D01*
X218613929Y143163929D01*
X218606900Y143180900D01*
X218606900Y145147251D01*
X218613929Y145164222D01*
X220485778Y147036071D01*
X220502749Y147043100D01*
X222569628Y147043100D01*
X222706190Y147070264D01*
X222706197Y147070266D01*
X222834839Y147123551D01*
X222950619Y147200913D01*
X222950622Y147200915D01*
X223049085Y147299378D01*
X223126446Y147415157D01*
X223126448Y147415160D01*
X223179733Y147543802D01*
X223179735Y147543809D01*
X223206899Y147680371D01*
X223206900Y147680379D01*
X223206900Y147819620D01*
X223206899Y147819628D01*
X223179735Y147956190D01*
X223179733Y147956197D01*
X223126448Y148084839D01*
X223126447Y148084840D01*
X223126446Y148084843D01*
X223049085Y148200622D01*
X222950622Y148299085D01*
X222834843Y148376446D01*
X222834840Y148376447D01*
X222834839Y148376448D01*
X222706197Y148429733D01*
X222706195Y148429734D01*
X222569624Y148456900D01*
X220130376Y148456900D01*
X220004694Y148431900D01*
X219993805Y148429734D01*
X219993802Y148429733D01*
X219865160Y148376448D01*
X219865157Y148376446D01*
X219749378Y148299085D01*
X217449378Y145999085D01*
X217449377Y145999085D01*
X217350918Y145900625D01*
X217350913Y145900619D01*
X217273551Y145784839D01*
X217220266Y145656197D01*
X217220264Y145656190D01*
X217193100Y145519628D01*
X217193100Y143180900D01*
X217186071Y143163929D01*
X217169100Y143156900D01*
X211095932Y143156900D01*
X211086748Y143158727D01*
X211049948Y143173970D01*
X210884397Y143206900D01*
X210715603Y143206900D01*
X210715598Y143206899D01*
X210550056Y143173971D01*
X210550053Y143173970D01*
X210550052Y143173970D01*
X210550050Y143173969D01*
X210550049Y143173969D01*
X210394109Y143109377D01*
X210394106Y143109375D01*
X210253758Y143015598D01*
X210134402Y142896242D01*
X210134400Y142896239D01*
X210040622Y142755890D01*
X209976030Y142599950D01*
X209976028Y142599943D01*
X209943100Y142434401D01*
X300500Y142434401D01*
X300500Y160858646D01*
X145480000Y160858646D01*
X145480000Y160845001D01*
X145480001Y160845000D01*
X146632458Y160845000D01*
X146630000Y160835826D01*
X146630000Y160704174D01*
X146632458Y160695000D01*
X145480001Y160695000D01*
X145480000Y160694999D01*
X145480000Y160681353D01*
X145514584Y160507484D01*
X145514587Y160507477D01*
X145582427Y160343693D01*
X145680922Y160196285D01*
X145806285Y160070922D01*
X145953693Y159972427D01*
X146117477Y159904587D01*
X146117484Y159904584D01*
X146291353Y159870000D01*
X147054999Y159870000D01*
X147055000Y159870001D01*
X147055000Y160272458D01*
X147064174Y160270000D01*
X147195826Y160270000D01*
X147205000Y160272458D01*
X147205000Y159870001D01*
X147205001Y159870000D01*
X147968646Y159870000D01*
X148142515Y159904584D01*
X148142522Y159904587D01*
X148306306Y159972427D01*
X148453714Y160070922D01*
X148579077Y160196285D01*
X148677572Y160343693D01*
X148745412Y160507477D01*
X148745415Y160507484D01*
X148779999Y160681353D01*
X148780000Y160681361D01*
X148780000Y160694999D01*
X148779999Y160695000D01*
X147627542Y160695000D01*
X147630000Y160704174D01*
X147630000Y160835826D01*
X147627542Y160845000D01*
X148779999Y160845000D01*
X148780000Y160845001D01*
X148780000Y160858638D01*
X148779999Y160858646D01*
X148745415Y161032515D01*
X148745412Y161032522D01*
X148677572Y161196306D01*
X148579077Y161343714D01*
X148453714Y161469077D01*
X148306306Y161567572D01*
X148142522Y161635412D01*
X148142515Y161635415D01*
X147968646Y161669999D01*
X147968638Y161670000D01*
X147205001Y161670000D01*
X147205000Y161669999D01*
X147205000Y161267541D01*
X147195826Y161270000D01*
X147064174Y161270000D01*
X147055000Y161267541D01*
X147055000Y161669999D01*
X147054999Y161670000D01*
X146291362Y161670000D01*
X146291353Y161669999D01*
X146117484Y161635415D01*
X146117477Y161635412D01*
X145953693Y161567572D01*
X145806285Y161469077D01*
X145680922Y161343714D01*
X145582427Y161196306D01*
X145514587Y161032522D01*
X145514584Y161032515D01*
X145480000Y160858646D01*
X300500Y160858646D01*
X300500Y163401047D01*
X145223100Y163401047D01*
X145223100Y163218952D01*
X145251588Y163039087D01*
X145251589Y163039081D01*
X145307856Y162865912D01*
X145307860Y162865902D01*
X145390530Y162703652D01*
X145390534Y162703645D01*
X145497562Y162556334D01*
X145626334Y162427562D01*
X145773645Y162320534D01*
X145773652Y162320530D01*
X145935902Y162237860D01*
X145935912Y162237856D01*
X146109081Y162181589D01*
X146109087Y162181588D01*
X146109090Y162181587D01*
X146109092Y162181587D01*
X146288950Y162153100D01*
X146288953Y162153100D01*
X147971047Y162153100D01*
X147971050Y162153100D01*
X148150908Y162181587D01*
X148150910Y162181587D01*
X148150912Y162181588D01*
X148150918Y162181589D01*
X148324087Y162237856D01*
X148324097Y162237860D01*
X148486347Y162320530D01*
X148486354Y162320534D01*
X148633665Y162427562D01*
X148633666Y162427563D01*
X148633670Y162427566D01*
X148762434Y162556330D01*
X148762437Y162556334D01*
X148869465Y162703645D01*
X148869469Y162703652D01*
X148952139Y162865902D01*
X148952141Y162865905D01*
X148970340Y162921918D01*
X149008410Y163039081D01*
X149008411Y163039087D01*
X149008413Y163039092D01*
X149036900Y163218950D01*
X149036900Y163401050D01*
X149008413Y163580908D01*
X148952141Y163754095D01*
X148869469Y163916348D01*
X148762434Y164063670D01*
X148633670Y164192434D01*
X148486348Y164299469D01*
X148324095Y164382141D01*
X148201773Y164421885D01*
X148150918Y164438410D01*
X148150916Y164438410D01*
X148150908Y164438413D01*
X147971050Y164466900D01*
X146288950Y164466900D01*
X146109092Y164438413D01*
X146109084Y164438410D01*
X146109081Y164438410D01*
X145991918Y164400340D01*
X145935905Y164382141D01*
X145773652Y164299469D01*
X145773645Y164299465D01*
X145626334Y164192437D01*
X145626330Y164192434D01*
X145497566Y164063670D01*
X145497563Y164063666D01*
X145497562Y164063665D01*
X145390534Y163916354D01*
X145390530Y163916347D01*
X145307860Y163754097D01*
X145307856Y163754087D01*
X145251589Y163580918D01*
X145251588Y163580912D01*
X145223100Y163401047D01*
X300500Y163401047D01*
X300500Y179884401D01*
X102593100Y179884401D01*
X102593100Y179715598D01*
X102626028Y179550056D01*
X102626030Y179550049D01*
X102690622Y179394109D01*
X102784400Y179253760D01*
X102903760Y179134400D01*
X103044109Y179040622D01*
X103200049Y178976030D01*
X103200056Y178976028D01*
X103365598Y178943100D01*
X103365603Y178943100D01*
X103534401Y178943100D01*
X103699943Y178976028D01*
X103699950Y178976031D01*
X103736748Y178991273D01*
X103745932Y178993100D01*
X110720527Y178993100D01*
X111454068Y178993100D01*
X111463252Y178991273D01*
X111500049Y178976031D01*
X111500056Y178976028D01*
X111665598Y178943100D01*
X111665603Y178943100D01*
X111834401Y178943100D01*
X111999943Y178976028D01*
X111999950Y178976030D01*
X112155890Y179040622D01*
X112296239Y179134400D01*
X112296242Y179134402D01*
X112415598Y179253758D01*
X112509375Y179394106D01*
X112509377Y179394109D01*
X112573969Y179550049D01*
X112573971Y179550056D01*
X112606899Y179715598D01*
X112606900Y179715606D01*
X112606900Y179884393D01*
X112606899Y179884401D01*
X112588673Y179976028D01*
X112577062Y180034401D01*
X139293100Y180034401D01*
X139293100Y179865598D01*
X139326028Y179700056D01*
X139326030Y179700049D01*
X139390622Y179544109D01*
X139484400Y179403760D01*
X139603760Y179284400D01*
X139744109Y179190622D01*
X139900049Y179126030D01*
X139900056Y179126028D01*
X140065598Y179093100D01*
X140065603Y179093100D01*
X140234401Y179093100D01*
X140399943Y179126028D01*
X140399950Y179126031D01*
X140436748Y179141273D01*
X140445932Y179143100D01*
X147420527Y179143100D01*
X147904068Y179143100D01*
X147913252Y179141273D01*
X147950049Y179126031D01*
X147950056Y179126028D01*
X148115598Y179093100D01*
X148115603Y179093100D01*
X148284401Y179093100D01*
X148449943Y179126028D01*
X148449950Y179126030D01*
X148605890Y179190622D01*
X148746239Y179284400D01*
X148746242Y179284402D01*
X148865598Y179403758D01*
X148886073Y179434401D01*
X175693100Y179434401D01*
X175693100Y179265598D01*
X175726028Y179100056D01*
X175726030Y179100049D01*
X175790622Y178944109D01*
X175884400Y178803760D01*
X176003760Y178684400D01*
X176144109Y178590622D01*
X176300049Y178526030D01*
X176300056Y178526028D01*
X176465598Y178493100D01*
X176465603Y178493100D01*
X176634401Y178493100D01*
X176799943Y178526028D01*
X176799950Y178526031D01*
X176836748Y178541273D01*
X176845932Y178543100D01*
X184020527Y178543100D01*
X184654068Y178543100D01*
X184663252Y178541273D01*
X184700049Y178526031D01*
X184700056Y178526028D01*
X184865598Y178493100D01*
X184865603Y178493100D01*
X185034401Y178493100D01*
X185199943Y178526028D01*
X185199950Y178526030D01*
X185355890Y178590622D01*
X185496239Y178684400D01*
X185496242Y178684402D01*
X185615598Y178803758D01*
X185709375Y178944106D01*
X185709377Y178944109D01*
X185773969Y179100049D01*
X185773971Y179100056D01*
X185806899Y179265598D01*
X185806900Y179265606D01*
X185806900Y179434393D01*
X185806899Y179434401D01*
X185773971Y179599943D01*
X185773969Y179599950D01*
X185709377Y179755890D01*
X185709376Y179755891D01*
X185709375Y179755894D01*
X185615598Y179896242D01*
X185496242Y180015598D01*
X185355894Y180109375D01*
X185355891Y180109376D01*
X185355890Y180109377D01*
X185209916Y180169841D01*
X185199948Y180173970D01*
X185034397Y180206900D01*
X184865603Y180206900D01*
X184865598Y180206899D01*
X184700056Y180173971D01*
X184700053Y180173970D01*
X184700052Y180173970D01*
X184700050Y180173969D01*
X184700049Y180173969D01*
X184690084Y180169841D01*
X184671716Y180169841D01*
X184658727Y180182830D01*
X184656900Y180192014D01*
X184656900Y182697251D01*
X184663929Y182714222D01*
X185935778Y183986071D01*
X185952749Y183993100D01*
X188219628Y183993100D01*
X188356190Y184020264D01*
X188356197Y184020266D01*
X188484839Y184073551D01*
X188600619Y184150913D01*
X188600622Y184150915D01*
X188699085Y184249378D01*
X188776446Y184365157D01*
X188776448Y184365160D01*
X188829733Y184493802D01*
X188829735Y184493809D01*
X188856899Y184630371D01*
X188856900Y184630379D01*
X188856900Y184769620D01*
X188856899Y184769628D01*
X188829735Y184906190D01*
X188829733Y184906197D01*
X188776448Y185034839D01*
X188776447Y185034840D01*
X188776446Y185034843D01*
X188699085Y185150622D01*
X188600622Y185249085D01*
X188484843Y185326446D01*
X188484840Y185326447D01*
X188484839Y185326448D01*
X188356197Y185379733D01*
X188356195Y185379734D01*
X188219624Y185406900D01*
X185580376Y185406900D01*
X185580371Y185406899D01*
X185443809Y185379735D01*
X185443806Y185379734D01*
X185443805Y185379734D01*
X185443803Y185379733D01*
X185443802Y185379733D01*
X185369373Y185348903D01*
X185315160Y185326448D01*
X185315157Y185326446D01*
X185199378Y185249085D01*
X183499378Y183549085D01*
X183499377Y183549085D01*
X183400918Y183450625D01*
X183400913Y183450619D01*
X183323551Y183334839D01*
X183270266Y183206197D01*
X183270264Y183206190D01*
X183243100Y183069628D01*
X183243100Y180180900D01*
X183236071Y180163929D01*
X183219100Y180156900D01*
X176845932Y180156900D01*
X176836748Y180158727D01*
X176799948Y180173970D01*
X176634397Y180206900D01*
X176465603Y180206900D01*
X176465598Y180206899D01*
X176300056Y180173971D01*
X176300053Y180173970D01*
X176300052Y180173970D01*
X176300050Y180173969D01*
X176300049Y180173969D01*
X176144109Y180109377D01*
X176144106Y180109375D01*
X176003758Y180015598D01*
X175884402Y179896242D01*
X175884400Y179896239D01*
X175790622Y179755890D01*
X175726030Y179599950D01*
X175726028Y179599943D01*
X175693100Y179434401D01*
X148886073Y179434401D01*
X148959375Y179544106D01*
X148959377Y179544109D01*
X149023969Y179700049D01*
X149023971Y179700056D01*
X149056899Y179865598D01*
X149056900Y179865606D01*
X149056900Y180034393D01*
X149056899Y180034401D01*
X149029137Y180173969D01*
X149023970Y180199948D01*
X149001680Y180253760D01*
X148959377Y180355890D01*
X148959376Y180355891D01*
X148959375Y180355894D01*
X148865598Y180496242D01*
X148746242Y180615598D01*
X148605894Y180709375D01*
X148605891Y180709376D01*
X148605890Y180709377D01*
X148474189Y180763929D01*
X148449948Y180773970D01*
X148284397Y180806900D01*
X148130900Y180806900D01*
X148113929Y180813929D01*
X148106900Y180830900D01*
X148106900Y183347251D01*
X148113929Y183364222D01*
X149185778Y184436071D01*
X149202749Y184443100D01*
X151669628Y184443100D01*
X151806190Y184470264D01*
X151806197Y184470266D01*
X151934839Y184523551D01*
X152050619Y184600913D01*
X152050622Y184600915D01*
X152149085Y184699378D01*
X152226446Y184815157D01*
X152226448Y184815160D01*
X152279733Y184943802D01*
X152279735Y184943809D01*
X152306899Y185080371D01*
X152306900Y185080379D01*
X152306900Y185219620D01*
X152306899Y185219628D01*
X152301039Y185249086D01*
X152279734Y185356195D01*
X152226446Y185484843D01*
X152149085Y185600622D01*
X152050622Y185699085D01*
X151934843Y185776446D01*
X151934840Y185776447D01*
X151934839Y185776448D01*
X151830612Y185819620D01*
X151806195Y185829734D01*
X151669624Y185856900D01*
X148830376Y185856900D01*
X148704694Y185831900D01*
X148693805Y185829734D01*
X148693802Y185829733D01*
X148565160Y185776448D01*
X148565157Y185776446D01*
X148449378Y185699085D01*
X146949378Y184199085D01*
X146949377Y184199085D01*
X146850918Y184100625D01*
X146850913Y184100619D01*
X146773551Y183984839D01*
X146720266Y183856197D01*
X146720264Y183856190D01*
X146693100Y183719628D01*
X146693100Y180780900D01*
X146686071Y180763929D01*
X146669100Y180756900D01*
X140445932Y180756900D01*
X140436748Y180758727D01*
X140399948Y180773970D01*
X140234397Y180806900D01*
X140065603Y180806900D01*
X140065598Y180806899D01*
X139900056Y180773971D01*
X139900053Y180773970D01*
X139900052Y180773970D01*
X139900050Y180773969D01*
X139900049Y180773969D01*
X139744109Y180709377D01*
X139744106Y180709375D01*
X139603758Y180615598D01*
X139484402Y180496242D01*
X139484400Y180496239D01*
X139390622Y180355890D01*
X139326030Y180199950D01*
X139326028Y180199943D01*
X139293100Y180034401D01*
X112577062Y180034401D01*
X112573970Y180049948D01*
X112528912Y180158727D01*
X112509377Y180205890D01*
X112509376Y180205891D01*
X112509375Y180205894D01*
X112415598Y180346242D01*
X112296242Y180465598D01*
X112155894Y180559375D01*
X112155891Y180559376D01*
X112155890Y180559377D01*
X112020157Y180615599D01*
X111999948Y180623970D01*
X111834397Y180656900D01*
X111665603Y180656900D01*
X111535581Y180631037D01*
X111517566Y180634621D01*
X111507361Y180649894D01*
X111506900Y180654576D01*
X111506900Y182497251D01*
X111513929Y182514222D01*
X114035778Y185036071D01*
X114052749Y185043100D01*
X115319628Y185043100D01*
X115456190Y185070264D01*
X115456197Y185070266D01*
X115584839Y185123551D01*
X115700619Y185200913D01*
X115700622Y185200915D01*
X115799085Y185299378D01*
X115876446Y185415157D01*
X115876448Y185415160D01*
X115929733Y185543802D01*
X115929735Y185543809D01*
X115956899Y185680371D01*
X115956900Y185680379D01*
X115956900Y185819620D01*
X115956899Y185819628D01*
X115929735Y185956190D01*
X115929733Y185956197D01*
X115876448Y186084839D01*
X115876447Y186084840D01*
X115876446Y186084843D01*
X115799085Y186200622D01*
X115700622Y186299085D01*
X115584843Y186376446D01*
X115584840Y186376447D01*
X115584839Y186376448D01*
X115456197Y186429733D01*
X115456195Y186429734D01*
X115319624Y186456900D01*
X113680376Y186456900D01*
X113680371Y186456899D01*
X113543809Y186429735D01*
X113543806Y186429734D01*
X113543805Y186429734D01*
X113543803Y186429733D01*
X113543802Y186429733D01*
X113469373Y186398903D01*
X113415160Y186376448D01*
X113415157Y186376446D01*
X113299378Y186299085D01*
X110349378Y183349085D01*
X110349377Y183349085D01*
X110250918Y183250625D01*
X110250913Y183250619D01*
X110173551Y183134839D01*
X110120266Y183006197D01*
X110120264Y183006190D01*
X110093100Y182869628D01*
X110093100Y180630900D01*
X110086071Y180613929D01*
X110069100Y180606900D01*
X103745932Y180606900D01*
X103736748Y180608727D01*
X103699948Y180623970D01*
X103534397Y180656900D01*
X103365603Y180656900D01*
X103365598Y180656899D01*
X103200056Y180623971D01*
X103200053Y180623970D01*
X103200052Y180623970D01*
X103200050Y180623969D01*
X103200049Y180623969D01*
X103044109Y180559377D01*
X103044106Y180559375D01*
X102903758Y180465598D01*
X102784402Y180346242D01*
X102784400Y180346239D01*
X102690622Y180205890D01*
X102626030Y180049950D01*
X102626028Y180049943D01*
X102593100Y179884401D01*
X300500Y179884401D01*
X300500Y180884401D01*
X60493100Y180884401D01*
X60493100Y180715598D01*
X60526028Y180550056D01*
X60526030Y180550049D01*
X60590622Y180394109D01*
X60684400Y180253760D01*
X60803760Y180134400D01*
X60944109Y180040622D01*
X61100049Y179976030D01*
X61100056Y179976028D01*
X61265598Y179943100D01*
X61265603Y179943100D01*
X61434401Y179943100D01*
X61599943Y179976028D01*
X61599950Y179976031D01*
X61636748Y179991273D01*
X61645932Y179993100D01*
X68520527Y179993100D01*
X68954068Y179993100D01*
X68963252Y179991273D01*
X69000049Y179976031D01*
X69000056Y179976028D01*
X69165598Y179943100D01*
X69165603Y179943100D01*
X69334401Y179943100D01*
X69499943Y179976028D01*
X69499950Y179976030D01*
X69655890Y180040622D01*
X69796239Y180134400D01*
X69796242Y180134402D01*
X69915598Y180253758D01*
X70009375Y180394106D01*
X70009377Y180394109D01*
X70073969Y180550049D01*
X70073971Y180550056D01*
X70106899Y180715598D01*
X70106900Y180715606D01*
X70106900Y180884393D01*
X70106899Y180884401D01*
X70073971Y181049943D01*
X70073969Y181049950D01*
X70009377Y181205890D01*
X70009376Y181205891D01*
X70009375Y181205894D01*
X69915598Y181346242D01*
X69796242Y181465598D01*
X69655894Y181559375D01*
X69655891Y181559376D01*
X69655890Y181559377D01*
X69524189Y181613929D01*
X69499948Y181623970D01*
X69334397Y181656900D01*
X69334393Y181656900D01*
X69330900Y181656900D01*
X69313929Y181663929D01*
X69306900Y181680900D01*
X69306900Y183747251D01*
X69313929Y183764222D01*
X71035778Y185486071D01*
X71052749Y185493100D01*
X72769628Y185493100D01*
X72906190Y185520264D01*
X72906197Y185520266D01*
X73034839Y185573551D01*
X73150619Y185650913D01*
X73150622Y185650915D01*
X73249085Y185749378D01*
X73326446Y185865157D01*
X73326448Y185865160D01*
X73379733Y185993802D01*
X73379735Y185993809D01*
X73406899Y186130371D01*
X73406900Y186130379D01*
X73406900Y186269620D01*
X73406899Y186269628D01*
X73401283Y186297859D01*
X73379734Y186406195D01*
X73326446Y186534843D01*
X73249085Y186650622D01*
X73150622Y186749085D01*
X73034843Y186826446D01*
X73034840Y186826447D01*
X73034839Y186826448D01*
X72906197Y186879733D01*
X72906195Y186879734D01*
X72769624Y186906900D01*
X70680376Y186906900D01*
X70554694Y186881900D01*
X70543805Y186879734D01*
X70543802Y186879733D01*
X70415160Y186826448D01*
X70415157Y186826446D01*
X70299378Y186749085D01*
X68149378Y184599085D01*
X68149377Y184599085D01*
X68050918Y184500625D01*
X68050913Y184500619D01*
X67973551Y184384839D01*
X67920266Y184256197D01*
X67920264Y184256190D01*
X67893100Y184119628D01*
X67893100Y181630900D01*
X67886071Y181613929D01*
X67869100Y181606900D01*
X61645932Y181606900D01*
X61636748Y181608727D01*
X61599948Y181623970D01*
X61434397Y181656900D01*
X61265603Y181656900D01*
X61265598Y181656899D01*
X61100056Y181623971D01*
X61100053Y181623970D01*
X61100052Y181623970D01*
X61100050Y181623969D01*
X61100049Y181623969D01*
X60944109Y181559377D01*
X60944106Y181559375D01*
X60803758Y181465598D01*
X60684402Y181346242D01*
X60684400Y181346239D01*
X60590622Y181205890D01*
X60526030Y181049950D01*
X60526028Y181049943D01*
X60493100Y180884401D01*
X300500Y180884401D01*
X300500Y188958646D01*
X203490000Y188958646D01*
X203490000Y188195001D01*
X203490001Y188195000D01*
X203892458Y188195000D01*
X203890000Y188185826D01*
X203890000Y188054174D01*
X203892458Y188045000D01*
X203490001Y188045000D01*
X203490000Y188044999D01*
X203490000Y187281353D01*
X203524584Y187107484D01*
X203524587Y187107477D01*
X203592427Y186943693D01*
X203690922Y186796285D01*
X203816285Y186670922D01*
X203963693Y186572427D01*
X204127477Y186504587D01*
X204127484Y186504584D01*
X204301353Y186470000D01*
X204314999Y186470000D01*
X204315000Y186470001D01*
X204315000Y187622458D01*
X204324174Y187620000D01*
X204455826Y187620000D01*
X204465000Y187622458D01*
X204465000Y186470001D01*
X204465001Y186470000D01*
X204478646Y186470000D01*
X204652515Y186504584D01*
X204652522Y186504587D01*
X204816306Y186572427D01*
X204963714Y186670922D01*
X205089077Y186796285D01*
X205187572Y186943693D01*
X205255412Y187107477D01*
X205255415Y187107484D01*
X205289999Y187281353D01*
X205290000Y187281361D01*
X205290000Y188044999D01*
X205289999Y188045000D01*
X204887542Y188045000D01*
X204890000Y188054174D01*
X204890000Y188185826D01*
X204887542Y188195000D01*
X205289999Y188195000D01*
X205290000Y188195001D01*
X205290000Y188958642D01*
X205289522Y188961047D01*
X205773100Y188961047D01*
X205773100Y187278952D01*
X205801588Y187099087D01*
X205801589Y187099081D01*
X205857856Y186925912D01*
X205857860Y186925902D01*
X205940530Y186763652D01*
X205940534Y186763645D01*
X206047562Y186616334D01*
X206176334Y186487562D01*
X206323645Y186380534D01*
X206323652Y186380530D01*
X206485902Y186297860D01*
X206485912Y186297856D01*
X206659081Y186241589D01*
X206659087Y186241588D01*
X206659090Y186241587D01*
X206659092Y186241587D01*
X206838950Y186213100D01*
X206838953Y186213100D01*
X207021047Y186213100D01*
X207021050Y186213100D01*
X207200908Y186241587D01*
X207200910Y186241587D01*
X207200912Y186241588D01*
X207200918Y186241589D01*
X207374087Y186297856D01*
X207374097Y186297860D01*
X207536347Y186380530D01*
X207536354Y186380534D01*
X207683665Y186487562D01*
X207683666Y186487563D01*
X207683670Y186487566D01*
X207812434Y186616330D01*
X207812437Y186616334D01*
X207919465Y186763645D01*
X207919469Y186763652D01*
X207978615Y186879733D01*
X208002141Y186925905D01*
X208020340Y186981918D01*
X208058410Y187099081D01*
X208058411Y187099087D01*
X208058413Y187099092D01*
X208086900Y187278950D01*
X208086900Y188961050D01*
X208058413Y189140908D01*
X208002141Y189314095D01*
X207919469Y189476348D01*
X207812434Y189623670D01*
X207683670Y189752434D01*
X207536348Y189859469D01*
X207374095Y189942141D01*
X207251773Y189981885D01*
X207200918Y189998410D01*
X207200916Y189998410D01*
X207200908Y189998413D01*
X207021050Y190026900D01*
X206838950Y190026900D01*
X206659092Y189998413D01*
X206659084Y189998410D01*
X206659081Y189998410D01*
X206541918Y189960340D01*
X206485905Y189942141D01*
X206323652Y189859469D01*
X206323645Y189859465D01*
X206200506Y189769999D01*
X206176330Y189752434D01*
X206047566Y189623670D01*
X206047563Y189623666D01*
X206047562Y189623665D01*
X205940534Y189476354D01*
X205940530Y189476347D01*
X205857860Y189314097D01*
X205857856Y189314087D01*
X205801589Y189140918D01*
X205801588Y189140912D01*
X205773100Y188961047D01*
X205289522Y188961047D01*
X205255415Y189132515D01*
X205255412Y189132522D01*
X205187572Y189296306D01*
X205089077Y189443714D01*
X204963714Y189569077D01*
X204816306Y189667572D01*
X204652522Y189735412D01*
X204652515Y189735415D01*
X204478646Y189769999D01*
X204478638Y189770000D01*
X204465001Y189770000D01*
X204465000Y189769999D01*
X204465000Y188617541D01*
X204455826Y188620000D01*
X204324174Y188620000D01*
X204315000Y188617541D01*
X204315000Y189769999D01*
X204314999Y189770000D01*
X204301362Y189770000D01*
X204301353Y189769999D01*
X204127484Y189735415D01*
X204127477Y189735412D01*
X203963693Y189667572D01*
X203816285Y189569077D01*
X203690922Y189443714D01*
X203592427Y189296306D01*
X203524587Y189132522D01*
X203524584Y189132515D01*
X203490000Y188958646D01*
X300500Y188958646D01*
X300500Y225284401D01*
X102493100Y225284401D01*
X102493100Y225115598D01*
X102526028Y224950056D01*
X102526030Y224950049D01*
X102590622Y224794109D01*
X102684400Y224653760D01*
X102803760Y224534400D01*
X102944109Y224440622D01*
X103100049Y224376030D01*
X103100056Y224376028D01*
X103265598Y224343100D01*
X103265603Y224343100D01*
X103320527Y224343100D01*
X103320528Y224343100D01*
X103479473Y224343100D01*
X110420527Y224343100D01*
X111004068Y224343100D01*
X111013252Y224341273D01*
X111050049Y224326031D01*
X111050056Y224326028D01*
X111215598Y224293100D01*
X111215603Y224293100D01*
X111384401Y224293100D01*
X111549943Y224326028D01*
X111549950Y224326030D01*
X111705890Y224390622D01*
X111846239Y224484400D01*
X111846242Y224484402D01*
X111965598Y224603758D01*
X112059375Y224744106D01*
X112059377Y224744109D01*
X112123969Y224900049D01*
X112123971Y224900056D01*
X112156899Y225065598D01*
X112156900Y225065606D01*
X112156900Y225234393D01*
X112156899Y225234401D01*
X112146953Y225284401D01*
X112123970Y225399948D01*
X112059375Y225555894D01*
X111965598Y225696242D01*
X111846242Y225815598D01*
X111705894Y225909375D01*
X111705891Y225909376D01*
X111705890Y225909377D01*
X111585183Y225959375D01*
X111549948Y225973970D01*
X111384397Y226006900D01*
X111230900Y226006900D01*
X111213929Y226013929D01*
X111206900Y226030900D01*
X111206900Y227947250D01*
X111213929Y227964221D01*
X112885779Y229636071D01*
X112902750Y229643100D01*
X115019628Y229643100D01*
X115156190Y229670264D01*
X115156197Y229670266D01*
X115284839Y229723551D01*
X115400619Y229800913D01*
X115400622Y229800915D01*
X115499085Y229899378D01*
X115576446Y230015157D01*
X115576448Y230015160D01*
X115622342Y230125959D01*
X268399500Y230125959D01*
X268399500Y229874040D01*
X268438911Y229625210D01*
X268438912Y229625204D01*
X268516756Y229385628D01*
X268516760Y229385618D01*
X268631129Y229161155D01*
X268631133Y229161148D01*
X268779203Y228957348D01*
X268957348Y228779203D01*
X269161148Y228631133D01*
X269161155Y228631129D01*
X269385618Y228516760D01*
X269385628Y228516756D01*
X269625204Y228438912D01*
X269625210Y228438911D01*
X269625213Y228438910D01*
X269625215Y228438910D01*
X269874038Y228399500D01*
X269874041Y228399500D01*
X270125959Y228399500D01*
X270125962Y228399500D01*
X270374785Y228438910D01*
X270374787Y228438910D01*
X270374789Y228438911D01*
X270374795Y228438912D01*
X270614371Y228516756D01*
X270614381Y228516760D01*
X270838844Y228631129D01*
X270838851Y228631133D01*
X271042651Y228779203D01*
X271042652Y228779204D01*
X271042656Y228779207D01*
X271220793Y228957344D01*
X271220796Y228957348D01*
X271368866Y229161148D01*
X271368870Y229161155D01*
X271483239Y229385618D01*
X271483241Y229385621D01*
X271508419Y229463111D01*
X271561087Y229625204D01*
X271561088Y229625210D01*
X271561090Y229625215D01*
X271600500Y229874038D01*
X271600500Y230125962D01*
X271561090Y230374785D01*
X271483241Y230614379D01*
X271368870Y230838845D01*
X271325102Y230899086D01*
X271230181Y231029734D01*
X271220793Y231042656D01*
X271042656Y231220793D01*
X270838845Y231368870D01*
X270614379Y231483241D01*
X270445152Y231538226D01*
X270374795Y231561087D01*
X270374793Y231561087D01*
X270374785Y231561090D01*
X270125962Y231600500D01*
X269874038Y231600500D01*
X269625215Y231561090D01*
X269625207Y231561087D01*
X269625204Y231561087D01*
X269463111Y231508419D01*
X269385621Y231483241D01*
X269161155Y231368870D01*
X269161148Y231368866D01*
X268957348Y231220796D01*
X268957344Y231220793D01*
X268779207Y231042656D01*
X268779204Y231042652D01*
X268779203Y231042651D01*
X268631133Y230838851D01*
X268631129Y230838844D01*
X268516760Y230614381D01*
X268516756Y230614371D01*
X268438912Y230374795D01*
X268438911Y230374789D01*
X268438910Y230374785D01*
X268402327Y230143805D01*
X268399500Y230125959D01*
X115622342Y230125959D01*
X115626538Y230136089D01*
X115626867Y230136884D01*
X115629734Y230143805D01*
X115656900Y230280376D01*
X115656900Y230419624D01*
X115629734Y230556195D01*
X115605633Y230614379D01*
X115576448Y230684839D01*
X115576447Y230684840D01*
X115576446Y230684843D01*
X115499085Y230800622D01*
X115400622Y230899085D01*
X115284843Y230976446D01*
X115284840Y230976447D01*
X115284839Y230976448D01*
X115156197Y231029733D01*
X115156195Y231029734D01*
X115019624Y231056900D01*
X112530376Y231056900D01*
X112404694Y231031900D01*
X112393805Y231029734D01*
X112393802Y231029733D01*
X112265160Y230976448D01*
X112265157Y230976446D01*
X112149377Y230899085D01*
X110049378Y228799085D01*
X110049377Y228799085D01*
X109950918Y228700625D01*
X109950913Y228700619D01*
X109873551Y228584839D01*
X109820266Y228456197D01*
X109820264Y228456190D01*
X109793100Y228319628D01*
X109793100Y225980900D01*
X109786071Y225963929D01*
X109769100Y225956900D01*
X103766536Y225956900D01*
X103757123Y225959260D01*
X103756984Y225958924D01*
X103599950Y226023969D01*
X103599948Y226023970D01*
X103434397Y226056900D01*
X103265603Y226056900D01*
X103265598Y226056899D01*
X103100056Y226023971D01*
X103100053Y226023970D01*
X103100052Y226023970D01*
X103100050Y226023969D01*
X103100049Y226023969D01*
X102944109Y225959377D01*
X102944106Y225959375D01*
X102803758Y225865598D01*
X102684402Y225746242D01*
X102684400Y225746239D01*
X102590622Y225605890D01*
X102526030Y225449950D01*
X102526028Y225449943D01*
X102493100Y225284401D01*
X300500Y225284401D01*
X300500Y230125959D01*
X8399500Y230125959D01*
X8399500Y229874040D01*
X8438911Y229625210D01*
X8438912Y229625204D01*
X8516756Y229385628D01*
X8516760Y229385618D01*
X8631129Y229161155D01*
X8631133Y229161148D01*
X8779203Y228957348D01*
X8957348Y228779203D01*
X9161148Y228631133D01*
X9161155Y228631129D01*
X9385618Y228516760D01*
X9385628Y228516756D01*
X9625204Y228438912D01*
X9625210Y228438911D01*
X9625213Y228438910D01*
X9625215Y228438910D01*
X9874038Y228399500D01*
X9874041Y228399500D01*
X10125959Y228399500D01*
X10125962Y228399500D01*
X10374785Y228438910D01*
X10374787Y228438910D01*
X10374789Y228438911D01*
X10374795Y228438912D01*
X10614371Y228516756D01*
X10614381Y228516760D01*
X10838844Y228631129D01*
X10838851Y228631133D01*
X11042651Y228779203D01*
X11042652Y228779204D01*
X11042656Y228779207D01*
X11220793Y228957344D01*
X11220796Y228957348D01*
X11368866Y229161148D01*
X11368870Y229161155D01*
X11483239Y229385618D01*
X11483241Y229385621D01*
X11508419Y229463111D01*
X11561087Y229625204D01*
X11561088Y229625210D01*
X11561090Y229625215D01*
X11600500Y229874038D01*
X11600500Y230125962D01*
X11561090Y230374785D01*
X11483241Y230614379D01*
X11368870Y230838845D01*
X11325102Y230899086D01*
X11230181Y231029734D01*
X11220793Y231042656D01*
X11042656Y231220793D01*
X10838845Y231368870D01*
X10614379Y231483241D01*
X10445152Y231538226D01*
X10374795Y231561087D01*
X10374793Y231561087D01*
X10374785Y231561090D01*
X10125962Y231600500D01*
X9874038Y231600500D01*
X9625215Y231561090D01*
X9625207Y231561087D01*
X9625204Y231561087D01*
X9463111Y231508419D01*
X9385621Y231483241D01*
X9161155Y231368870D01*
X9161148Y231368866D01*
X8957348Y231220796D01*
X8957344Y231220793D01*
X8779207Y231042656D01*
X8779204Y231042652D01*
X8779203Y231042651D01*
X8631133Y230838851D01*
X8631129Y230838844D01*
X8516760Y230614381D01*
X8516756Y230614371D01*
X8438912Y230374795D01*
X8438911Y230374789D01*
X8438910Y230374785D01*
X8402327Y230143805D01*
X8399500Y230125959D01*
X300500Y230125959D01*
X300500Y237418646D01*
X86030000Y237418646D01*
X86030000Y237405001D01*
X86030001Y237405000D01*
X87182458Y237405000D01*
X87180000Y237395826D01*
X87180000Y237264174D01*
X87182458Y237255000D01*
X86030001Y237255000D01*
X86030000Y237254999D01*
X86030000Y237241353D01*
X86064584Y237067484D01*
X86064587Y237067477D01*
X86132427Y236903693D01*
X86230922Y236756285D01*
X86356285Y236630922D01*
X86503693Y236532427D01*
X86667477Y236464587D01*
X86667484Y236464584D01*
X86841353Y236430000D01*
X87604999Y236430000D01*
X87605000Y236430001D01*
X87605000Y236832458D01*
X87614174Y236830000D01*
X87745826Y236830000D01*
X87755000Y236832458D01*
X87755000Y236430001D01*
X87755001Y236430000D01*
X88518646Y236430000D01*
X88692515Y236464584D01*
X88692522Y236464587D01*
X88856306Y236532427D01*
X89003714Y236630922D01*
X89129077Y236756285D01*
X89227572Y236903693D01*
X89295412Y237067477D01*
X89295415Y237067484D01*
X89329999Y237241353D01*
X89330000Y237241361D01*
X89330000Y237254999D01*
X89329999Y237255000D01*
X88177542Y237255000D01*
X88180000Y237264174D01*
X88180000Y237395826D01*
X88177542Y237405000D01*
X89329999Y237405000D01*
X89330000Y237405001D01*
X89330000Y237418638D01*
X89329999Y237418646D01*
X89295415Y237592515D01*
X89295412Y237592522D01*
X89227572Y237756306D01*
X89129077Y237903714D01*
X89003714Y238029077D01*
X88856306Y238127572D01*
X88692522Y238195412D01*
X88692515Y238195415D01*
X88518646Y238229999D01*
X88518638Y238230000D01*
X87755001Y238230000D01*
X87755000Y238229999D01*
X87755000Y237827541D01*
X87745826Y237830000D01*
X87614174Y237830000D01*
X87605000Y237827541D01*
X87605000Y238229999D01*
X87604999Y238230000D01*
X86841362Y238230000D01*
X86841353Y238229999D01*
X86667484Y238195415D01*
X86667477Y238195412D01*
X86503693Y238127572D01*
X86356285Y238029077D01*
X86230922Y237903714D01*
X86132427Y237756306D01*
X86064587Y237592522D01*
X86064584Y237592515D01*
X86030000Y237418646D01*
X300500Y237418646D01*
X300500Y239961047D01*
X85773100Y239961047D01*
X85773100Y239778952D01*
X85801588Y239599087D01*
X85801589Y239599081D01*
X85857856Y239425912D01*
X85857860Y239425902D01*
X85940530Y239263652D01*
X85940534Y239263645D01*
X86047562Y239116334D01*
X86176334Y238987562D01*
X86323645Y238880534D01*
X86323652Y238880530D01*
X86485902Y238797860D01*
X86485912Y238797856D01*
X86659081Y238741589D01*
X86659087Y238741588D01*
X86659090Y238741587D01*
X86659092Y238741587D01*
X86838950Y238713100D01*
X86838953Y238713100D01*
X88521047Y238713100D01*
X88521050Y238713100D01*
X88700908Y238741587D01*
X88700910Y238741587D01*
X88700912Y238741588D01*
X88700918Y238741589D01*
X88874087Y238797856D01*
X88874097Y238797860D01*
X89036347Y238880530D01*
X89036354Y238880534D01*
X89183665Y238987562D01*
X89183666Y238987563D01*
X89183670Y238987566D01*
X89312434Y239116330D01*
X89312437Y239116334D01*
X89419465Y239263645D01*
X89419469Y239263652D01*
X89502139Y239425902D01*
X89502141Y239425905D01*
X89520340Y239481918D01*
X89558410Y239599081D01*
X89558411Y239599087D01*
X89558413Y239599092D01*
X89586900Y239778950D01*
X89586900Y239961050D01*
X89558413Y240140908D01*
X89502141Y240314095D01*
X89419469Y240476348D01*
X89312434Y240623670D01*
X89183670Y240752434D01*
X89036348Y240859469D01*
X88874095Y240942141D01*
X88751773Y240981885D01*
X88700918Y240998410D01*
X88700916Y240998410D01*
X88700908Y240998413D01*
X88521050Y241026900D01*
X86838950Y241026900D01*
X86659092Y240998413D01*
X86659084Y240998410D01*
X86659081Y240998410D01*
X86541918Y240960340D01*
X86485905Y240942141D01*
X86323652Y240859469D01*
X86323645Y240859465D01*
X86176334Y240752437D01*
X86176330Y240752434D01*
X86047566Y240623670D01*
X86047563Y240623666D01*
X86047562Y240623665D01*
X85940534Y240476354D01*
X85940530Y240476347D01*
X85857860Y240314097D01*
X85857856Y240314087D01*
X85801589Y240140918D01*
X85801588Y240140912D01*
X85773100Y239961047D01*
X300500Y239961047D01*
X300500Y267975959D01*
X136849500Y267975959D01*
X136849500Y267724040D01*
X136888911Y267475210D01*
X136888912Y267475204D01*
X136966756Y267235628D01*
X136966760Y267235618D01*
X137081129Y267011155D01*
X137081133Y267011148D01*
X137229203Y266807348D01*
X137407348Y266629203D01*
X137611148Y266481133D01*
X137611155Y266481129D01*
X137835618Y266366760D01*
X137835628Y266366756D01*
X138075204Y266288912D01*
X138075210Y266288911D01*
X138075213Y266288910D01*
X138075215Y266288910D01*
X138324038Y266249500D01*
X138324041Y266249500D01*
X138575959Y266249500D01*
X138575962Y266249500D01*
X138824785Y266288910D01*
X138824787Y266288910D01*
X138824789Y266288911D01*
X138824795Y266288912D01*
X139064371Y266366756D01*
X139064381Y266366760D01*
X139288844Y266481129D01*
X139288851Y266481133D01*
X139492651Y266629203D01*
X139492652Y266629204D01*
X139492656Y266629207D01*
X139670793Y266807344D01*
X139670796Y266807348D01*
X139818866Y267011148D01*
X139818870Y267011155D01*
X139933239Y267235618D01*
X139933241Y267235621D01*
X139958419Y267313111D01*
X140011087Y267475204D01*
X140011088Y267475210D01*
X140011090Y267475215D01*
X140050500Y267724038D01*
X140050500Y267975962D01*
X140011090Y268224785D01*
X139933241Y268464379D01*
X139818870Y268688845D01*
X139670793Y268892656D01*
X139492656Y269070793D01*
X139288845Y269218870D01*
X139064379Y269333241D01*
X138895152Y269388226D01*
X138824795Y269411087D01*
X138824793Y269411087D01*
X138824785Y269411090D01*
X138575962Y269450500D01*
X138324038Y269450500D01*
X138075215Y269411090D01*
X138075207Y269411087D01*
X138075204Y269411087D01*
X137913111Y269358419D01*
X137835621Y269333241D01*
X137611155Y269218870D01*
X137611148Y269218866D01*
X137407348Y269070796D01*
X137407344Y269070793D01*
X137229207Y268892656D01*
X137229204Y268892652D01*
X137229203Y268892651D01*
X137081133Y268688851D01*
X137081129Y268688844D01*
X136966760Y268464381D01*
X136966756Y268464371D01*
X136888912Y268224795D01*
X136888911Y268224789D01*
X136849500Y267975959D01*
X300500Y267975959D01*
X300500Y299675500D01*
X307529Y299692471D01*
X324500Y299699500D01*
X279675500Y299699500D01*
X279692471Y299692471D01*
G37*
%TD.AperFunction*%
%TD*%
M02*
