M48
; DRILL file KiCad 10.0.6 date 2026-10-09T01:11:49
; FORMAT={-:-/ absolute / metric / decimal}
; #@! TF.CreationDate,2026-10-09T01:11:49+03:00
; #@! TF.GenerationSoftware,Kicad,Pcbnew,10.0.6
; #@! TF.FileFunction,Plated,1,2,PTH
FMAT,2
METRIC
; #@! TA.AperFunction,Plated,PTH,ComponentDrill
T1C0.254
; #@! TA.AperFunction,Plated,PTH,ViaDrill
T2C0.300
; #@! TA.AperFunction,Plated,PTH,ViaDrill
T3C0.350
; #@! TA.AperFunction,Plated,PTH,ViaDrill
T4C0.600
; #@! TA.AperFunction,Plated,PTH,ComponentDrill
T5C1.000
; #@! TA.AperFunction,Plated,PTH,ComponentDrill
T6C1.016
; #@! TA.AperFunction,Plated,PTH,ComponentDrill
T7C1.321
%
G90
G05
T1
X19.644Y-374.194
X19.644Y-375.006
X19.644Y-433.894
X19.644Y-434.706
X20.456Y-374.194
X20.456Y-375.006
X20.456Y-433.894
X20.456Y-434.706
T2
X145.15Y36.55
X187.65Y41.05
X224.7Y115.4
X226.7Y39.25
T3
X16.65Y196.6
X16.95Y198.9
X22.2Y194.95
X24.85Y201.75
X27.15Y199.25
X34.4Y194.65
X42.35Y200.3
X72.7Y186.2
X108.2Y116.05
X110.6Y41.5
X114.95Y230.35
X115.25Y185.75
X117.95Y232.35
X138.6Y51.8
X145.375Y115.375
X151.6Y185.15
X153.95Y238.35
X187.7Y114.55
X188.15Y184.7
X189.3Y171.2
X190.1Y149.35
X199.8Y143.45
X217.55Y69.7
X217.95Y65.35
X220.9Y65.05
X220.9Y64.25
X220.9Y63.45
X221.8Y65.05
X221.8Y64.2
X221.8Y63.45
X222.5Y147.75
X223.6Y213.5
X234.5Y222.75
X259.35Y102.6
X262.1Y101.3
X264.85Y103.85
X265.5Y98.4
X266.85Y102.05
X268.8Y94.25
X269.0Y102.25
X273.6Y110.45
X275.25Y105.4
T4
X24.6Y231.8
X24.6Y210.0
X42.15Y230.0
X42.95Y214.8
X46.2Y244.45
X49.6Y230.9
X55.8Y148.0
X58.8Y259.05
X60.15Y157.35
X60.2Y226.7
X61.35Y180.8
X61.8Y145.6
X62.25Y241.1
X62.55Y32.8
X64.45Y113.85
X64.5Y183.6
X65.3Y231.0
X65.45Y35.4
X65.75Y195.05
X65.75Y192.85
X65.75Y190.2
X65.9Y120.8
X65.95Y123.2
X66.0Y125.2
X66.1Y226.95
X66.4Y156.15
X66.55Y183.65
X66.7Y113.75
X66.8Y253.25
X67.15Y41.8
X67.25Y187.1
X67.25Y46.5
X67.25Y44.3
X67.55Y193.6
X67.55Y35.3
X68.3Y162.65
X68.65Y190.2
X69.25Y180.8
X69.45Y32.85
X69.65Y189.0
X70.2Y150.4
X70.3Y112.75
X70.45Y182.75
X71.05Y45.7
X71.7Y241.25
X73.2Y201.85
X73.3Y37.85
X75.25Y158.3
X75.4Y260.65
X75.9Y205.0
X76.15Y229.9
X76.2Y144.9
X79.95Y224.85
X81.6Y271.05
X83.3Y128.9
X85.2Y253.05
X85.5Y227.4
X86.2Y194.15
X88.05Y183.15
X88.2Y130.25
X88.3Y133.95
X89.05Y187.85
X89.25Y128.3
X89.35Y201.5
X89.35Y145.5
X89.35Y136.25
X90.15Y161.65
X90.15Y133.55
X91.2Y130.65
X96.85Y32.9
X97.55Y110.45
X98.8Y262.25
X99.05Y162.85
X99.05Y35.7
X100.15Y45.5
X100.15Y43.1
X101.0Y113.3
X101.15Y35.8
X101.9Y150.15
X102.65Y45.5
X102.65Y43.1
X102.7Y122.0
X102.8Y124.45
X102.8Y119.6
X103.3Y113.4
X103.35Y225.2
X103.45Y179.8
X103.75Y32.9
X105.475Y110.425
X106.4Y227.85
X106.7Y112.45
X106.8Y182.35
X107.55Y36.5
X108.0Y239.7
X108.0Y237.1
X108.0Y232.3
X108.1Y188.15
X108.2Y194.1
X108.2Y191.75
X108.65Y227.85
X109.2Y182.25
X109.4Y185.85
X110.55Y156.65
X110.7Y235.6
X110.7Y232.7
X111.3Y225.15
X111.35Y260.65
X111.4Y191.2
X111.65Y188.95
X111.75Y179.8
X112.5Y227.1
X112.7Y148.95
X112.9Y181.85
X116.55Y201.35
X118.5Y203.85
X119.7Y129.65
X121.55Y269.85
X122.85Y128.2
X125.3Y196.5
X125.5Y134.95
X125.9Y145.85
X125.95Y129.9
X126.0Y137.2
X127.15Y136.0
X127.55Y132.25
X130.4Y200.8
X134.25Y167.7
X134.35Y158.65
X134.35Y109.9
X134.95Y32.85
X137.4Y35.7
X137.6Y112.35
X138.75Y121.0
X138.8Y123.55
X139.05Y44.0
X139.15Y140.5
X139.25Y45.85
X139.8Y112.5
X140.15Y179.95
X140.6Y35.65
X141.35Y41.45
X141.7Y45.7
X141.95Y32.85
X142.45Y109.85
X143.35Y182.65
X143.45Y111.7
X143.8Y254.85
X144.65Y258.5
X144.65Y192.05
X144.8Y194.7
X144.95Y227.85
X145.55Y187.2
X145.65Y182.7
X145.65Y144.75
X145.95Y232.05
X146.05Y235.3
X146.1Y239.9
X146.1Y138.6
X146.15Y237.65
X146.2Y155.15
X146.85Y149.65
X147.1Y227.75
X147.3Y133.3
X148.0Y252.65
X148.2Y179.95
X148.45Y191.2
X149.1Y237.95
X149.35Y181.9
X149.7Y188.3
X149.8Y232.45
X149.9Y155.3
X150.05Y150.3
X150.2Y144.75
X150.2Y139.0
X150.75Y227.15
X151.75Y235.7
X154.65Y251.35
X155.3Y257.0
X156.25Y203.4
X159.95Y199.4
X162.6Y203.7
X166.35Y201.2
X168.15Y245.85
X176.45Y108.85
X176.55Y179.35
X177.25Y33.5
X178.25Y145.15
X179.85Y182.1
X179.9Y111.8
X180.1Y148.25
X180.15Y156.05
X180.15Y151.05
X180.25Y153.7
X180.3Y36.9
X180.4Y145.2
X180.8Y187.75
X181.3Y194.0
X181.3Y191.4
X181.6Y253.35
X181.6Y184.15
X181.75Y117.6
X181.85Y123.0
X181.9Y120.45
X182.1Y37.0
X182.25Y182.0
X182.25Y111.8
X182.6Y47.9
X182.65Y154.4
X182.65Y151.4
X182.65Y45.85
X182.75Y43.5
X182.9Y149.05
X183.0Y157.8
X183.55Y187.6
X184.4Y144.2
X184.75Y155.6
X184.8Y108.85
X184.95Y179.35
X185.0Y36.05
X185.05Y33.5
X185.2Y152.0
X185.65Y163.7
X185.65Y111.05
X185.8Y191.9
X185.85Y181.3
X185.85Y166.4
X185.95Y227.25
X186.6Y158.4
X186.8Y232.2
X186.95Y240.1
X186.95Y235.6
X187.05Y237.9
X187.55Y153.25
X187.6Y188.3
X187.85Y191.05
X188.0Y166.0
X188.15Y227.2
X188.25Y151.2
X188.6Y162.85
X189.7Y239.25
X189.8Y231.95
X189.85Y155.2
X190.65Y202.6
X190.95Y165.35
X191.8Y226.8
X191.9Y153.25
X192.45Y248.35
X192.95Y151.05
X193.0Y233.95
X193.0Y161.7
X193.3Y200.2
X193.45Y237.0
X195.35Y204.65
X196.6Y199.1
X200.2Y192.05
X201.2Y194.8
X203.4Y193.4
X203.6Y184.0
X203.7Y174.7
X206.65Y172.9
X210.3Y173.7
X210.8Y142.35
X213.0Y109.0
X213.15Y175.2
X214.1Y145.4
X214.45Y177.25
X214.55Y186.25
X215.2Y147.8
X215.5Y157.05
X215.5Y152.55
X215.55Y154.95
X215.55Y150.15
X215.6Y33.4
X216.15Y145.4
X216.25Y111.5
X217.15Y156.3
X217.3Y149.2
X217.6Y118.05
X217.75Y120.35
X217.85Y154.65
X217.95Y162.1
X217.95Y122.85
X218.6Y111.55
X218.8Y36.9
X219.35Y142.35
X219.7Y151.25
X219.8Y153.45
X219.95Y157.55
X220.1Y144.5
X220.35Y166.05
X220.8Y47.45
X220.8Y36.75
X221.0Y44.95
X221.05Y156.6
X221.2Y152.3
X221.4Y109.0
X222.05Y111.3
X222.45Y36.8
X222.55Y155.1
X223.5Y33.4
T5
X1.68Y-210.0
X1.68Y-354.95
X1.68Y-526.55
X1.68Y-537.45
X1.68Y-548.35
X1.68Y-559.25
X1.68Y-570.15
X1.68Y-591.95
X1.68Y-602.85
X1.68Y-613.75
X1.68Y-624.65
X1.68Y-635.55
X1.68Y-646.45
X1.68Y-657.35
X1.68Y-668.25
X1.68Y-679.15
X1.68Y-690.05
X1.68Y-700.95
X4.22Y-210.0
X4.22Y-354.95
X4.22Y-526.55
X4.22Y-537.45
X4.22Y-548.35
X4.22Y-559.25
X4.22Y-570.15
X4.22Y-591.95
X4.22Y-602.85
X4.22Y-613.75
X4.22Y-624.65
X4.22Y-635.55
X4.22Y-646.45
X4.22Y-657.35
X4.22Y-668.25
X4.22Y-679.15
X4.22Y-690.05
X4.22Y-700.95
X10.03Y-210.0
X12.57Y-210.0
X33.23Y-100.55
X33.23Y-259.25
X33.23Y-454.55
X35.77Y-100.55
X35.77Y-259.25
X35.77Y-454.55
X62.65Y54.33
X65.19Y54.33
X74.93Y137.62
X74.93Y135.08
X87.68Y239.87
X87.68Y237.33
X91.23Y55.1
X93.77Y55.1
X97.57Y132.68
X100.11Y132.68
X111.13Y138.25
X111.13Y135.71
X134.33Y54.8
X136.87Y54.8
X147.13Y163.31
X147.13Y160.77
X163.08Y55.3
X165.62Y55.3
X204.39Y188.12
X206.93Y188.12
X215.01Y54.43
X217.55Y54.43
X232.93Y62.95
X235.47Y62.95
T6
X256.88Y130.53
X256.88Y127.99
X256.88Y125.45
X256.88Y122.91
X256.88Y120.37
X256.88Y117.83
X256.88Y115.29
X256.88Y112.75
X256.88Y110.21
X256.88Y107.67
X259.42Y130.53
X259.42Y127.99
X259.42Y125.45
X259.42Y122.91
X259.42Y120.37
X259.42Y117.83
X259.42Y115.29
X259.42Y112.75
X259.42Y110.21
X259.42Y107.67
T7
X10.45Y90.815
X10.45Y85.811
M30
